<svg width="360" xmlns="http://www.w3.org/2000/svg" height="271" id="screenshot-aed79e32-8dac-801f-8004-75a4a258d2a0" viewBox="-1020 -1743 360 271" style="-webkit-print-color-adjust::exact" xmlns:xlink="http://www.w3.org/1999/xlink" fill="none" version="1.1">
  <g id="shape-aed79e32-8dac-801f-8004-75a4a258d2a0">
    <g fill="none">
      <g class="fills" id="fills-aed79e32-8dac-801f-8004-75a4a258d2a0">
        <rect rx="0" ry="0" x="-1020" y="-1743" width="360" height="271" transform="matrix(1.000000, 0.000000, 0.000000, 1.000000, 0.000000, 0.000000)" class="frame-background">
        </rect>
      </g>
      <g class="frame-children">
        <g id="shape-aed79e32-8dac-801f-8004-75a2521e1269" style="fill:#000000" width="360" height="271" rx="0" ry="0">
          <g id="shape-aed79e32-8dac-801f-8004-75a2522199f2" style="opacity:1">
            <g class="fills" id="fills-aed79e32-8dac-801f-8004-75a2522199f2">
              <path d="M-753.500,-1635.500C-755.001,-1639.678,-757.668,-1643.011,-761.500,-1645.500C-762.086,-1645.291,-762.586,-1644.957,-763.000,-1644.500C-763.870,-1640.176,-764.703,-1635.842,-765.500,-1631.500C-766.167,-1630.833,-766.833,-1630.167,-767.500,-1629.500C-769.499,-1632.997,-771.499,-1636.330,-773.500,-1639.500C-772.418,-1641.823,-772.585,-1644.157,-774.000,-1646.500C-776.261,-1650.929,-779.428,-1654.596,-783.500,-1657.500C-787.256,-1666.816,-793.922,-1669.649,-803.500,-1666.000C-810.002,-1660.469,-816.168,-1654.636,-822.000,-1648.500C-825.828,-1647.308,-829.662,-1647.308,-833.500,-1648.500C-833.935,-1651.613,-832.935,-1652.279,-830.500,-1650.500C-828.500,-1651.000,-826.500,-1651.500,-824.500,-1652.000C-818.431,-1658.679,-812.264,-1665.179,-806.000,-1671.500C-807.407,-1674.945,-809.741,-1677.945,-813.000,-1680.500C-813.333,-1680.167,-813.667,-1679.833,-814.000,-1679.500C-814.541,-1682.209,-816.041,-1684.209,-818.500,-1685.500C-819.251,-1684.624,-819.751,-1683.624,-820.000,-1682.500C-820.169,-1676.141,-820.669,-1669.807,-821.500,-1663.500C-822.192,-1662.975,-822.692,-1662.308,-823.000,-1661.500C-827.529,-1672.086,-831.862,-1682.753,-836.000,-1693.500C-837.400,-1696.902,-839.567,-1699.736,-842.500,-1702.000C-847.898,-1704.433,-853.565,-1705.766,-859.500,-1706.000C-869.577,-1706.877,-879.577,-1706.377,-889.500,-1704.500C-899.150,-1684.985,-904.817,-1664.651,-906.500,-1643.500C-908.808,-1643.034,-910.142,-1641.701,-910.500,-1639.500C-911.688,-1640.684,-912.855,-1640.684,-914.000,-1639.500C-914.414,-1635.344,-915.414,-1631.344,-917.000,-1627.500C-918.000,-1628.500,-919.000,-1629.500,-920.000,-1630.500C-921.489,-1635.457,-922.822,-1640.457,-924.000,-1645.500C-924.740,-1643.681,-925.907,-1642.348,-927.500,-1641.500C-929.390,-1639.410,-931.057,-1637.077,-932.500,-1634.500C-939.290,-1657.422,-937.290,-1679.756,-926.500,-1701.500C-927.428,-1702.768,-927.595,-1704.101,-927.000,-1705.500C-916.744,-1711.543,-905.910,-1716.377,-894.500,-1720.000C-891.989,-1725.845,-888.656,-1731.178,-884.500,-1736.000C-878.422,-1739.157,-871.922,-1740.657,-865.000,-1740.500C-846.454,-1739.181,-828.454,-1736.514,-811.000,-1732.500C-804.619,-1732.714,-798.619,-1731.047,-793.000,-1727.500C-792.667,-1727.833,-792.333,-1728.167,-792.000,-1728.500C-787.737,-1725.300,-783.237,-1722.467,-778.500,-1720.000C-771.273,-1712.361,-763.939,-1704.861,-756.500,-1697.500C-757.263,-1696.281,-758.263,-1695.281,-759.500,-1694.500C-747.941,-1676.313,-745.108,-1656.979,-751.000,-1636.500C-751.671,-1635.748,-752.504,-1635.414,-753.500,-1635.500ZZ" style="shape-rendering:geometricPrecision;text-rendering:geometricPrecision;image-rendering:optimizeQuality;fill-rule:evenodd;clip-rule:evenodd;fill:#c74a0b">
              </path>
            </g>
          </g>
          <g id="shape-aed79e32-8dac-801f-8004-75a2522288a7" style="opacity:1">
            <g class="fills" id="fills-aed79e32-8dac-801f-8004-75a2522288a7">
              <path d="M-773.500,-1639.500C-774.315,-1638.163,-775.482,-1637.163,-777.000,-1636.500C-776.649,-1634.114,-776.815,-1631.781,-777.500,-1629.500C-780.579,-1624.914,-784.246,-1620.747,-788.500,-1617.000C-795.582,-1613.143,-802.915,-1609.977,-810.500,-1607.500C-814.984,-1607.574,-819.317,-1606.907,-823.500,-1605.500C-835.828,-1604.220,-848.161,-1604.220,-860.500,-1605.500C-864.567,-1607.054,-868.900,-1607.720,-873.500,-1607.500C-884.777,-1610.221,-894.277,-1615.887,-902.000,-1624.500C-904.133,-1628.232,-905.466,-1632.232,-906.000,-1636.500C-907.615,-1637.386,-909.115,-1638.386,-910.500,-1639.500C-910.142,-1641.701,-908.808,-1643.034,-906.500,-1643.500C-904.817,-1664.651,-899.150,-1684.985,-889.500,-1704.500C-879.577,-1706.377,-869.577,-1706.877,-859.500,-1706.000C-853.565,-1705.766,-847.898,-1704.433,-842.500,-1702.000C-839.567,-1699.736,-837.400,-1696.902,-836.000,-1693.500C-831.862,-1682.753,-827.529,-1672.086,-823.000,-1661.500C-822.692,-1662.308,-822.192,-1662.975,-821.500,-1663.500C-820.669,-1669.807,-820.169,-1676.141,-820.000,-1682.500C-819.751,-1683.624,-819.251,-1684.624,-818.500,-1685.500C-816.041,-1684.209,-814.541,-1682.209,-814.000,-1679.500C-813.667,-1679.833,-813.333,-1680.167,-813.000,-1680.500C-809.741,-1677.945,-807.407,-1674.945,-806.000,-1671.500C-812.264,-1665.179,-818.431,-1658.679,-824.500,-1652.000C-826.500,-1651.500,-828.500,-1651.000,-830.500,-1650.500C-832.935,-1652.279,-833.935,-1651.613,-833.500,-1648.500C-829.662,-1647.308,-825.828,-1647.308,-822.000,-1648.500C-816.168,-1654.636,-810.002,-1660.469,-803.500,-1666.000C-793.922,-1669.649,-787.256,-1666.816,-783.500,-1657.500C-779.428,-1654.596,-776.261,-1650.929,-774.000,-1646.500C-772.585,-1644.157,-772.418,-1641.823,-773.500,-1639.500ZL-773.500,-1639.500ZM-887.000,-1649.000C-887.000,-1649.000,-890.000,-1644.000,-889.000,-1644.000M-880.000,-1643.000" style="shape-rendering:geometricPrecision;text-rendering:geometricPrecision;image-rendering:optimizeQuality;fill-rule:evenodd;clip-rule:evenodd;fill:#eb9c74">
              </path>
            </g>
          </g>
          <g id="shape-aed79e32-8dac-801f-8004-75a2522312fe" style="opacity:1">
            <g class="fills" id="fills-aed79e32-8dac-801f-8004-75a2522312fe">
              <path d="M-805.500,-1683.500C-801.873,-1681.207,-798.539,-1678.540,-795.500,-1675.500C-797.527,-1673.661,-799.860,-1673.161,-802.500,-1674.000C-804.404,-1676.877,-805.404,-1680.044,-805.500,-1683.500ZZ" style="shape-rendering:geometricPrecision;text-rendering:geometricPrecision;image-rendering:optimizeQuality;fill-rule:evenodd;clip-rule:evenodd;fill:#ea956d">
              </path>
            </g>
          </g>
          <g id="shape-aed79e32-8dac-801f-8004-75a2522379e2" style="opacity:1">
            <g class="fills" id="fills-aed79e32-8dac-801f-8004-75a2522379e2">
              <path d="M-889.500,-1674.500C-884.164,-1674.749,-879.164,-1673.582,-874.500,-1671.000C-868.801,-1665.635,-863.467,-1659.968,-858.500,-1654.000C-855.155,-1651.909,-851.488,-1650.576,-847.500,-1650.000C-850.378,-1647.550,-853.712,-1646.884,-857.500,-1648.000C-863.776,-1653.273,-869.776,-1658.940,-875.500,-1665.000C-880.630,-1667.733,-885.963,-1668.066,-891.500,-1666.000C-894.612,-1664.397,-897.612,-1662.563,-900.500,-1660.500C-901.167,-1660.667,-901.833,-1660.833,-902.500,-1661.000C-899.308,-1666.690,-894.975,-1671.190,-889.500,-1674.500ZZ" style="shape-rendering:geometricPrecision;text-rendering:geometricPrecision;image-rendering:optimizeQuality;fill-rule:evenodd;clip-rule:evenodd;fill:#c64a09">
              </path>
            </g>
          </g>
          <g id="shape-aed79e32-8dac-801f-8004-75a25223a384" style="opacity:1">
            <g class="fills" id="fills-aed79e32-8dac-801f-8004-75a25223a384">
              <path d="M-883.500,-1661.500C-871.476,-1660.313,-867.309,-1653.979,-871.000,-1642.500C-877.263,-1634.892,-883.930,-1634.558,-891.000,-1641.500C-895.280,-1650.836,-892.780,-1657.502,-883.500,-1661.500ZZ" style="shape-rendering:geometricPrecision;text-rendering:geometricPrecision;image-rendering:optimizeQuality;fill-rule:evenodd;clip-rule:evenodd">
              </path>
            </g>
          </g>
          <g id="shape-aed79e32-8dac-801f-8004-75a25223a385" style="opacity:1">
            <g class="fills" id="fills-aed79e32-8dac-801f-8004-75a25223a385">
              <path d="M-806.500,-1660.500C-794.681,-1661.515,-789.514,-1656.182,-791.000,-1644.500C-794.193,-1637.877,-799.360,-1635.710,-806.500,-1638.000C-812.887,-1641.284,-815.053,-1646.451,-813.000,-1653.500C-811.306,-1656.358,-809.139,-1658.691,-806.500,-1660.500ZZ" style="shape-rendering:geometricPrecision;text-rendering:geometricPrecision;image-rendering:optimizeQuality;fill-rule:evenodd;clip-rule:evenodd">
              </path>
            </g>
          </g>
          <g id="shape-aed79e32-8dac-801f-8004-75a25223c31f" style="opacity:1">
            <g class="fills" id="fills-aed79e32-8dac-801f-8004-75a25223c31f">
              <path d="M-879.000,-1656.000C-874.000,-1658.000,-871.500,-1653.500,-874.500,-1650.000C-879.500,-1647.500,-882.500,-1652.000,-879.000,-1656.000ZL-879.000,-1656.000Z" style="shape-rendering:geometricPrecision;text-rendering:geometricPrecision;image-rendering:optimizeQuality;fill-rule:evenodd;clip-rule:evenodd;fill:#dbdee4">
              </path>
            </g>
          </g>
          <g id="shape-aed79e32-8dac-801f-8004-75a4781fd22d" style="opacity:1">
            <g class="fills" id="fills-aed79e32-8dac-801f-8004-75a4781fd22d">
              <path d="M-800.483,-1656.507C-795.483,-1658.507,-792.983,-1654.007,-795.983,-1650.507C-800.983,-1648.007,-803.983,-1652.507,-800.483,-1656.507ZL-800.483,-1656.507Z" style="shape-rendering:geometricPrecision;text-rendering:geometricPrecision;image-rendering:optimizeQuality;fill-rule:evenodd;clip-rule:evenodd;fill:#dbdee4">
              </path>
            </g>
          </g>
          <g id="shape-aed79e32-8dac-801f-8004-75a25224556f" style="opacity:1">
            <g class="fills" id="fills-aed79e32-8dac-801f-8004-75a25224556f">
              <path d="M-910.500,-1639.500C-909.115,-1638.386,-907.615,-1637.386,-906.000,-1636.500C-905.466,-1632.232,-904.133,-1628.232,-902.000,-1624.500C-894.277,-1615.887,-884.777,-1610.221,-873.500,-1607.500C-876.193,-1604.419,-877.193,-1600.753,-876.500,-1596.500C-877.167,-1596.500,-877.833,-1596.500,-878.500,-1596.500C-881.914,-1599.327,-883.747,-1602.994,-884.000,-1607.500C-886.729,-1605.109,-889.063,-1602.442,-891.000,-1599.500C-895.153,-1603.488,-898.320,-1608.155,-900.500,-1613.500C-903.545,-1611.291,-906.045,-1608.624,-908.000,-1605.500C-909.996,-1609.418,-911.996,-1613.418,-914.000,-1617.500C-922.537,-1613.106,-927.204,-1615.772,-928.000,-1625.500C-928.609,-1630.861,-928.442,-1636.195,-927.500,-1641.500C-925.907,-1642.348,-924.740,-1643.681,-924.000,-1645.500C-922.822,-1640.457,-921.489,-1635.457,-920.000,-1630.500C-919.000,-1629.500,-918.000,-1628.500,-917.000,-1627.500C-915.414,-1631.344,-914.414,-1635.344,-914.000,-1639.500C-912.855,-1640.684,-911.688,-1640.684,-910.500,-1639.500ZZ" style="shape-rendering:geometricPrecision;text-rendering:geometricPrecision;image-rendering:optimizeQuality;fill-rule:evenodd;clip-rule:evenodd;fill:#813109">
              </path>
            </g>
          </g>
          <g id="shape-aed79e32-8dac-801f-8004-75a25224f20f" style="opacity:1">
            <g class="fills" id="fills-aed79e32-8dac-801f-8004-75a25224f20f">
              <path d="M-753.500,-1635.500C-753.609,-1627.064,-755.609,-1619.064,-759.500,-1611.500C-760.000,-1611.167,-760.500,-1610.833,-761.000,-1610.500C-763.350,-1613.183,-766.017,-1615.516,-769.000,-1617.500C-770.000,-1614.500,-771.000,-1611.500,-772.000,-1608.500C-772.908,-1606.561,-774.408,-1605.561,-776.500,-1605.500C-777.264,-1608.787,-779.097,-1611.454,-782.000,-1613.500C-784.613,-1608.400,-787.780,-1603.733,-791.500,-1599.500C-793.427,-1602.350,-795.594,-1605.017,-798.000,-1607.500C-799.144,-1605.291,-799.977,-1602.957,-800.500,-1600.500C-801.167,-1600.167,-801.833,-1599.833,-802.500,-1599.500C-803.934,-1601.378,-805.601,-1602.045,-807.500,-1601.500C-808.350,-1603.603,-809.350,-1605.603,-810.500,-1607.500C-802.915,-1609.977,-795.582,-1613.143,-788.500,-1617.000C-784.246,-1620.747,-780.579,-1624.914,-777.500,-1629.500C-776.815,-1631.781,-776.649,-1634.114,-777.000,-1636.500C-775.482,-1637.163,-774.315,-1638.163,-773.500,-1639.500C-771.499,-1636.330,-769.499,-1632.997,-767.500,-1629.500C-766.833,-1630.167,-766.167,-1630.833,-765.500,-1631.500C-764.703,-1635.842,-763.870,-1640.176,-763.000,-1644.500C-762.586,-1644.957,-762.086,-1645.291,-761.500,-1645.500C-757.668,-1643.011,-755.001,-1639.678,-753.500,-1635.500ZZ" style="shape-rendering:geometricPrecision;text-rendering:geometricPrecision;image-rendering:optimizeQuality;fill-rule:evenodd;clip-rule:evenodd;fill:#82330b">
              </path>
            </g>
          </g>
          <g id="shape-aed79e32-8dac-801f-8004-75a252251abe" style="opacity:1">
            <g class="fills" id="fills-aed79e32-8dac-801f-8004-75a252251abe">
              <path d="M-844.500,-1628.500C-841.428,-1628.817,-838.428,-1628.484,-835.500,-1627.500C-837.000,-1627.167,-838.500,-1626.833,-840.000,-1626.500C-841.986,-1626.569,-843.486,-1627.235,-844.500,-1628.500ZZ" style="shape-rendering:geometricPrecision;text-rendering:geometricPrecision;image-rendering:optimizeQuality;fill-rule:evenodd;clip-rule:evenodd">
              </path>
            </g>
          </g>
          <g id="shape-aed79e32-8dac-801f-8004-75a25225636a" style="opacity:1">
            <g class="fills" id="fills-aed79e32-8dac-801f-8004-75a25225636a">
              <path d="M-918.500,-1604.500C-921.500,-1605.833,-924.500,-1607.167,-927.500,-1608.500C-926.674,-1613.819,-923.674,-1615.653,-918.500,-1614.000C-917.605,-1610.905,-917.605,-1607.738,-918.500,-1604.500ZZ" style="shape-rendering:geometricPrecision;text-rendering:geometricPrecision;image-rendering:optimizeQuality;fill-rule:evenodd;clip-rule:evenodd;fill:#ffffff">
              </path>
            </g>
          </g>
          <g id="shape-aed79e32-8dac-801f-8004-75a252258234" style="opacity:1">
            <g class="fills" id="fills-aed79e32-8dac-801f-8004-75a252258234">
              <path d="M-927.500,-1608.500C-924.500,-1607.167,-921.500,-1605.833,-918.500,-1604.500C-916.914,-1602.330,-915.580,-1599.996,-914.500,-1597.500C-914.123,-1590.303,-916.123,-1583.969,-920.500,-1578.500C-921.500,-1578.500,-922.500,-1578.500,-923.500,-1578.500C-923.743,-1583.244,-926.243,-1585.911,-931.000,-1586.500C-932.431,-1584.562,-934.265,-1583.229,-936.500,-1582.500C-939.552,-1584.440,-940.885,-1587.273,-940.500,-1591.000C-940.289,-1597.310,-937.956,-1602.644,-933.500,-1607.000C-931.564,-1607.813,-929.564,-1608.313,-927.500,-1608.500ZZ" style="shape-rendering:geometricPrecision;text-rendering:geometricPrecision;image-rendering:optimizeQuality;fill-rule:evenodd;clip-rule:evenodd;fill:#ec9e76">
              </path>
            </g>
          </g>
          <g id="shape-aed79e32-8dac-801f-8004-75a252265933" style="opacity:1">
            <g class="fills" id="fills-aed79e32-8dac-801f-8004-75a252265933">
              <path d="M-873.500,-1607.500C-868.900,-1607.720,-864.567,-1607.054,-860.500,-1605.500C-860.500,-1604.167,-860.500,-1602.833,-860.500,-1601.500C-860.500,-1599.833,-860.500,-1598.167,-860.500,-1596.500C-860.500,-1595.500,-860.500,-1594.500,-860.500,-1593.500C-854.705,-1592.170,-848.538,-1591.504,-842.000,-1591.500C-835.462,-1591.504,-829.295,-1592.170,-823.500,-1593.500C-823.500,-1594.500,-823.500,-1595.500,-823.500,-1596.500C-823.216,-1598.415,-823.549,-1600.081,-824.500,-1601.500C-823.766,-1602.708,-823.433,-1604.041,-823.500,-1605.500C-819.317,-1606.907,-814.984,-1607.574,-810.500,-1607.500C-809.350,-1605.603,-808.350,-1603.603,-807.500,-1601.500C-807.500,-1598.500,-807.500,-1595.500,-807.500,-1592.500C-807.500,-1589.833,-807.500,-1587.167,-807.500,-1584.500C-807.500,-1583.167,-807.500,-1581.833,-807.500,-1580.500C-807.500,-1578.833,-807.500,-1577.167,-807.500,-1575.500C-807.500,-1574.167,-807.500,-1572.833,-807.500,-1571.500C-807.500,-1571.167,-807.500,-1570.833,-807.500,-1570.500C-808.777,-1569.306,-809.444,-1567.640,-809.500,-1565.500C-808.983,-1559.799,-806.817,-1554.799,-803.000,-1550.500C-800.808,-1544.015,-799.474,-1537.348,-799.000,-1530.500C-795.985,-1525.475,-793.818,-1520.142,-792.500,-1514.500C-795.817,-1512.242,-799.484,-1510.742,-803.500,-1510.000C-813.977,-1508.472,-824.310,-1508.305,-834.500,-1509.500C-834.212,-1512.866,-834.046,-1516.200,-834.000,-1519.500C-839.143,-1522.955,-841.143,-1527.622,-840.000,-1533.500C-842.267,-1534.935,-844.267,-1534.602,-846.000,-1532.500C-846.333,-1528.500,-846.667,-1524.500,-847.000,-1520.500C-849.374,-1517.086,-851.207,-1513.419,-852.500,-1509.500C-864.244,-1507.950,-875.910,-1508.450,-887.500,-1511.000C-889.590,-1511.669,-891.257,-1512.836,-892.500,-1514.500C-891.835,-1521.329,-889.668,-1527.663,-886.000,-1533.500C-885.519,-1537.531,-884.853,-1541.531,-884.000,-1545.500C-881.368,-1550.814,-878.701,-1556.147,-876.000,-1561.500C-875.304,-1564.478,-874.804,-1567.478,-874.500,-1570.500C-874.135,-1579.274,-874.802,-1587.941,-876.500,-1596.500C-877.193,-1600.753,-876.193,-1604.419,-873.500,-1607.500ZZ" style="shape-rendering:geometricPrecision;text-rendering:geometricPrecision;image-rendering:optimizeQuality;fill-rule:evenodd;clip-rule:evenodd;fill:#3c7f72">
              </path>
            </g>
          </g>
          <g id="shape-aed79e32-8dac-801f-8004-75a25226fa54" style="opacity:1">
            <g class="fills" id="fills-aed79e32-8dac-801f-8004-75a25226fa54">
              <path d="M-860.500,-1605.500C-848.161,-1604.220,-835.828,-1604.220,-823.500,-1605.500C-823.433,-1604.041,-823.766,-1602.708,-824.500,-1601.500C-836.500,-1598.833,-848.500,-1598.833,-860.500,-1601.500C-860.500,-1602.833,-860.500,-1604.167,-860.500,-1605.500ZZ" style="shape-rendering:geometricPrecision;text-rendering:geometricPrecision;image-rendering:optimizeQuality;fill-rule:evenodd;clip-rule:evenodd;fill:#4e141d">
              </path>
            </g>
          </g>
          <g id="shape-aed79e32-8dac-801f-8004-75a2522737f6" style="opacity:1">
            <g class="fills" id="fills-aed79e32-8dac-801f-8004-75a2522737f6">
              <path d="M-802.500,-1599.500C-803.811,-1596.865,-805.478,-1594.531,-807.500,-1592.500C-807.500,-1595.500,-807.500,-1598.500,-807.500,-1601.500C-805.601,-1602.045,-803.934,-1601.378,-802.500,-1599.500ZZ" style="shape-rendering:geometricPrecision;text-rendering:geometricPrecision;image-rendering:optimizeQuality;fill-rule:evenodd;clip-rule:evenodd;fill:#ffffff">
              </path>
            </g>
          </g>
          <g id="shape-aed79e32-8dac-801f-8004-75a252276c36" style="opacity:1">
            <g class="fills" id="fills-aed79e32-8dac-801f-8004-75a252276c36">
              <path d="M-860.500,-1601.500C-848.500,-1598.833,-836.500,-1598.833,-824.500,-1601.500C-823.549,-1600.081,-823.216,-1598.415,-823.500,-1596.500C-835.833,-1595.167,-848.167,-1595.167,-860.500,-1596.500C-860.500,-1598.167,-860.500,-1599.833,-860.500,-1601.500ZZ" style="shape-rendering:geometricPrecision;text-rendering:geometricPrecision;image-rendering:optimizeQuality;fill-rule:evenodd;clip-rule:evenodd;fill:#ffffff">
              </path>
            </g>
          </g>
          <g id="shape-aed79e32-8dac-801f-8004-75a2522784f9" style="opacity:1">
            <g class="fills" id="fills-aed79e32-8dac-801f-8004-75a2522784f9">
              <path d="M-800.500,-1600.500C-799.306,-1599.728,-798.306,-1598.728,-797.500,-1597.500C-799.229,-1595.050,-800.729,-1592.383,-802.000,-1589.500C-803.853,-1587.720,-805.687,-1586.053,-807.500,-1584.500C-807.500,-1587.167,-807.500,-1589.833,-807.500,-1592.500C-805.478,-1594.531,-803.811,-1596.865,-802.500,-1599.500C-801.833,-1599.833,-801.167,-1600.167,-800.500,-1600.500ZZ" style="shape-rendering:geometricPrecision;text-rendering:geometricPrecision;image-rendering:optimizeQuality;fill-rule:evenodd;clip-rule:evenodd;fill:#3892c6">
              </path>
            </g>
          </g>
          <g id="shape-aed79e32-8dac-801f-8004-75a25227e792" style="opacity:1">
            <g class="fills" id="fills-aed79e32-8dac-801f-8004-75a25227e792">
              <path d="M-914.500,-1597.500C-910.673,-1596.626,-907.007,-1595.293,-903.500,-1593.500C-905.201,-1585.974,-905.867,-1578.308,-905.500,-1570.500C-910.887,-1571.735,-914.387,-1573.235,-919.000,-1576.000C-919.500,-1576.500,-919.650,-1576.571,-920.000,-1577.000C-920.397,-1577.486,-920.500,-1578.146,-920.500,-1578.500C-916.123,-1583.969,-914.123,-1590.303,-914.500,-1597.500ZL-914.500,-1597.500Z" style="shape-rendering:geometricPrecision;text-rendering:geometricPrecision;image-rendering:optimizeQuality;fill-rule:evenodd;clip-rule:evenodd;fill:#c40208">
              </path>
            </g>
          </g>
          <g id="shape-aed79e32-8dac-801f-8004-75a25228075a" style="opacity:1">
            <g class="fills" id="fills-aed79e32-8dac-801f-8004-75a25228075a">
              <path d="M-797.500,-1597.500C-795.973,-1597.573,-794.973,-1596.906,-794.500,-1595.500C-799.060,-1590.727,-803.393,-1585.727,-807.500,-1580.500C-807.500,-1581.833,-807.500,-1583.167,-807.500,-1584.500C-805.687,-1586.053,-803.853,-1587.720,-802.000,-1589.500C-800.729,-1592.383,-799.229,-1595.050,-797.500,-1597.500ZZ" style="shape-rendering:geometricPrecision;text-rendering:geometricPrecision;image-rendering:optimizeQuality;fill-rule:evenodd;clip-rule:evenodd;fill:#ffffff">
              </path>
            </g>
          </g>
          <g id="shape-aed79e32-8dac-801f-8004-75a252286753" style="opacity:1">
            <g class="fills" id="fills-aed79e32-8dac-801f-8004-75a252286753">
              <path d="M-878.500,-1596.500C-877.833,-1596.500,-877.167,-1596.500,-876.500,-1596.500C-874.802,-1587.941,-874.135,-1579.274,-874.500,-1570.500C-875.500,-1570.500,-876.500,-1570.500,-877.500,-1570.500C-877.334,-1576.509,-877.501,-1582.509,-878.000,-1588.500C-878.585,-1590.661,-879.418,-1592.661,-880.500,-1594.500C-880.167,-1595.500,-879.500,-1596.167,-878.500,-1596.500ZZ" style="shape-rendering:geometricPrecision;text-rendering:geometricPrecision;image-rendering:optimizeQuality;fill-rule:evenodd;clip-rule:evenodd;fill:#750a18">
              </path>
            </g>
          </g>
          <g id="shape-aed79e32-8dac-801f-8004-75a252286754" style="opacity:1">
            <g class="fills" id="fills-aed79e32-8dac-801f-8004-75a252286754">
              <path d="M-860.500,-1596.500C-848.167,-1595.167,-835.833,-1595.167,-823.500,-1596.500C-823.500,-1595.500,-823.500,-1594.500,-823.500,-1593.500C-835.833,-1593.500,-848.167,-1593.500,-860.500,-1593.500C-860.500,-1594.500,-860.500,-1595.500,-860.500,-1596.500ZZ" style="shape-rendering:geometricPrecision;text-rendering:geometricPrecision;image-rendering:optimizeQuality;fill-rule:evenodd;clip-rule:evenodd;fill:#3892c6">
              </path>
            </g>
          </g>
          <g id="shape-aed79e32-8dac-801f-8004-75a2522899c8" style="opacity:1">
            <g class="fills" id="fills-aed79e32-8dac-801f-8004-75a2522899c8">
              <path d="M-794.500,-1595.500C-793.167,-1594.833,-792.167,-1593.833,-791.500,-1592.500C-796.833,-1586.833,-802.167,-1581.167,-807.500,-1575.500C-807.500,-1577.167,-807.500,-1578.833,-807.500,-1580.500C-803.393,-1585.727,-799.060,-1590.727,-794.500,-1595.500ZZ" style="shape-rendering:geometricPrecision;text-rendering:geometricPrecision;image-rendering:optimizeQuality;fill-rule:evenodd;clip-rule:evenodd;fill:#760b19">
              </path>
            </g>
          </g>
          <g id="shape-aed79e32-8dac-801f-8004-75a2522899c9" style="opacity:1">
            <g class="fills" id="fills-aed79e32-8dac-801f-8004-75a2522899c9">
              <path d="M-880.500,-1594.500C-879.418,-1592.661,-878.585,-1590.661,-878.000,-1588.500C-877.501,-1582.509,-877.334,-1576.509,-877.500,-1570.500C-878.500,-1570.500,-879.500,-1570.500,-880.500,-1570.500C-880.197,-1578.301,-880.864,-1585.968,-882.500,-1593.500C-882.158,-1594.338,-881.492,-1594.672,-880.500,-1594.500ZZ" style="shape-rendering:geometricPrecision;text-rendering:geometricPrecision;image-rendering:optimizeQuality;fill-rule:evenodd;clip-rule:evenodd;fill:#ffffff">
              </path>
            </g>
          </g>
          <g id="shape-aed79e32-8dac-801f-8004-75a25228c2f4" style="opacity:1">
            <g class="fills" id="fills-aed79e32-8dac-801f-8004-75a25228c2f4">
              <path d="M-903.500,-1593.500C-902.209,-1593.737,-901.209,-1593.404,-900.500,-1592.500C-900.500,-1584.833,-900.500,-1577.167,-900.500,-1569.500C-902.415,-1569.216,-904.081,-1569.549,-905.500,-1570.500C-905.867,-1578.308,-905.201,-1585.974,-903.500,-1593.500ZZ" style="shape-rendering:geometricPrecision;text-rendering:geometricPrecision;image-rendering:optimizeQuality;fill-rule:evenodd;clip-rule:evenodd;fill:#ffffff">
              </path>
            </g>
          </g>
          <g id="shape-aed79e32-8dac-801f-8004-75a2522926d4" style="opacity:1">
            <g class="fills" id="fills-aed79e32-8dac-801f-8004-75a2522926d4">
              <path d="M-882.500,-1593.500C-880.864,-1585.968,-880.197,-1578.301,-880.500,-1570.500C-881.918,-1568.692,-883.918,-1568.025,-886.500,-1568.500C-886.500,-1576.167,-886.500,-1583.833,-886.500,-1591.500C-885.817,-1593.176,-884.483,-1593.843,-882.500,-1593.500ZZ" style="shape-rendering:geometricPrecision;text-rendering:geometricPrecision;image-rendering:optimizeQuality;fill-rule:evenodd;clip-rule:evenodd;fill:#0a7617">
              </path>
            </g>
          </g>
          <g id="shape-aed79e32-8dac-801f-8004-75a2522926d5" style="opacity:1">
            <g class="fills" id="fills-aed79e32-8dac-801f-8004-75a2522926d5">
              <path d="M-860.500,-1593.500C-848.167,-1593.500,-835.833,-1593.500,-823.500,-1593.500C-829.295,-1592.170,-835.462,-1591.504,-842.000,-1591.500C-848.538,-1591.504,-854.705,-1592.170,-860.500,-1593.500ZZ" style="shape-rendering:geometricPrecision;text-rendering:geometricPrecision;image-rendering:optimizeQuality;fill-rule:evenodd;clip-rule:evenodd;fill:#ffffff">
              </path>
            </g>
          </g>
          <g id="shape-aed79e32-8dac-801f-8004-75a252295365" style="opacity:1">
            <g class="fills" id="fills-aed79e32-8dac-801f-8004-75a252295365">
              <path d="M-900.500,-1592.500C-899.209,-1592.737,-898.209,-1592.404,-897.500,-1591.500C-897.500,-1583.833,-897.500,-1576.167,-897.500,-1568.500C-898.791,-1568.263,-899.791,-1568.596,-900.500,-1569.500C-900.500,-1577.167,-900.500,-1584.833,-900.500,-1592.500ZZ" style="shape-rendering:geometricPrecision;text-rendering:geometricPrecision;image-rendering:optimizeQuality;fill-rule:evenodd;clip-rule:evenodd;fill:#750a18">
              </path>
            </g>
          </g>
          <g id="shape-aed79e32-8dac-801f-8004-75a25229fc7e" style="opacity:1">
            <g class="fills" id="fills-aed79e32-8dac-801f-8004-75a25229fc7e">
              <path d="M-791.500,-1592.500C-790.290,-1592.068,-789.290,-1591.401,-788.500,-1590.500C-794.521,-1583.812,-800.854,-1577.479,-807.500,-1571.500C-807.500,-1572.833,-807.500,-1574.167,-807.500,-1575.500C-802.167,-1581.167,-796.833,-1586.833,-791.500,-1592.500ZZ" style="shape-rendering:geometricPrecision;text-rendering:geometricPrecision;image-rendering:optimizeQuality;fill-rule:evenodd;clip-rule:evenodd;fill:#ffffff">
              </path>
            </g>
          </g>
          <g id="shape-aed79e32-8dac-801f-8004-75a2522a397b" style="opacity:1">
            <g class="fills" id="fills-aed79e32-8dac-801f-8004-75a2522a397b">
              <path d="M-897.500,-1591.500C-896.833,-1591.500,-896.167,-1591.500,-895.500,-1591.500C-895.500,-1583.833,-895.500,-1576.167,-895.500,-1568.500C-896.167,-1568.500,-896.833,-1568.500,-897.500,-1568.500C-897.500,-1576.167,-897.500,-1583.833,-897.500,-1591.500ZZ" style="shape-rendering:geometricPrecision;text-rendering:geometricPrecision;image-rendering:optimizeQuality;fill-rule:evenodd;clip-rule:evenodd;fill:#ffffff">
              </path>
            </g>
          </g>
          <g id="shape-aed79e32-8dac-801f-8004-75a2522a5ac9" style="opacity:1">
            <g class="fills" id="fills-aed79e32-8dac-801f-8004-75a2522a5ac9">
              <path d="M-895.500,-1591.500C-893.833,-1591.500,-892.167,-1591.500,-890.500,-1591.500C-890.500,-1583.833,-890.500,-1576.167,-890.500,-1568.500C-892.167,-1568.500,-893.833,-1568.500,-895.500,-1568.500C-895.500,-1576.167,-895.500,-1583.833,-895.500,-1591.500ZZ" style="shape-rendering:geometricPrecision;text-rendering:geometricPrecision;image-rendering:optimizeQuality;fill-rule:evenodd;clip-rule:evenodd;fill:#3892c6">
              </path>
            </g>
          </g>
          <g id="shape-aed79e32-8dac-801f-8004-75a2522a5aca" style="opacity:1">
            <g class="fills" id="fills-aed79e32-8dac-801f-8004-75a2522a5aca">
              <path d="M-890.500,-1591.500C-889.167,-1591.500,-887.833,-1591.500,-886.500,-1591.500C-886.500,-1583.833,-886.500,-1576.167,-886.500,-1568.500C-887.833,-1568.500,-889.167,-1568.500,-890.500,-1568.500C-890.500,-1576.167,-890.500,-1583.833,-890.500,-1591.500ZZ" style="shape-rendering:geometricPrecision;text-rendering:geometricPrecision;image-rendering:optimizeQuality;fill-rule:evenodd;clip-rule:evenodd;fill:#ffffff">
              </path>
            </g>
          </g>
          <g id="shape-aed79e32-8dac-801f-8004-75a2522ab1c2" style="opacity:1">
            <g class="fills" id="fills-aed79e32-8dac-801f-8004-75a2522ab1c2">
              <path d="M-788.500,-1590.500C-787.167,-1588.833,-785.833,-1587.167,-784.500,-1585.500C-791.203,-1579.798,-797.203,-1573.464,-802.500,-1566.500C-804.191,-1567.864,-805.858,-1569.197,-807.500,-1570.500C-807.500,-1570.833,-807.500,-1571.167,-807.500,-1571.500C-800.854,-1577.479,-794.521,-1583.812,-788.500,-1590.500ZZ" style="shape-rendering:geometricPrecision;text-rendering:geometricPrecision;image-rendering:optimizeQuality;fill-rule:evenodd;clip-rule:evenodd;fill:#760b19">
              </path>
            </g>
          </g>
          <g id="shape-aed79e32-8dac-801f-8004-75a2522acc73" style="opacity:1">
            <g class="fills" id="fills-aed79e32-8dac-801f-8004-75a2522acc73">
              <path d="M-868.500,-1589.500C-863.959,-1589.185,-862.959,-1587.351,-865.500,-1584.000C-870.278,-1583.927,-871.278,-1585.760,-868.500,-1589.500ZZ" style="shape-rendering:geometricPrecision;text-rendering:geometricPrecision;image-rendering:optimizeQuality;fill-rule:evenodd;clip-rule:evenodd;fill:#750a18">
              </path>
            </g>
          </g>
          <g id="shape-aed79e32-8dac-801f-8004-75a2522b0009" style="opacity:1">
            <g class="fills" id="fills-aed79e32-8dac-801f-8004-75a2522b0009">
              <path d="M-819.500,-1589.500C-814.959,-1589.185,-813.959,-1587.351,-816.500,-1584.000C-821.278,-1583.927,-822.278,-1585.760,-819.500,-1589.500ZZ" style="shape-rendering:geometricPrecision;text-rendering:geometricPrecision;image-rendering:optimizeQuality;fill-rule:evenodd;clip-rule:evenodd;fill:#750a18">
              </path>
            </g>
          </g>
          <g id="shape-aed79e32-8dac-801f-8004-75a2522b000a" style="opacity:1">
            <g class="fills" id="fills-aed79e32-8dac-801f-8004-75a2522b000a">
              <path d="M-923.500,-1578.500C-923.500,-1578.370,-924.000,-1577.204,-924.000,-1577.000C-924.000,-1576.500,-923.847,-1576.193,-923.500,-1575.500C-923.000,-1574.500,-922.500,-1574.261,-922.500,-1574.000C-922.500,-1569.000,-922.961,-1567.117,-924.500,-1562.500C-925.458,-1562.953,-926.292,-1563.619,-927.000,-1564.500C-929.344,-1562.819,-931.677,-1561.152,-934.000,-1559.500C-935.642,-1561.805,-937.142,-1564.138,-938.500,-1566.500C-936.638,-1571.775,-935.972,-1577.108,-936.500,-1582.500C-934.265,-1583.229,-932.431,-1584.562,-931.000,-1586.500C-926.243,-1585.911,-923.743,-1583.244,-923.500,-1578.500ZC-922.891,-1578.500,-923.395,-1578.500,-923.656,-1578.500C-923.824,-1578.500,-923.891,-1578.500,-923.500,-1578.500ZL-923.500,-1578.500ZL-923.500,-1578.500ZL-923.500,-1578.500ZL-923.500,-1578.500ZM-923.000,-1573.000L-922.500,-1574.000" style="shape-rendering:geometricPrecision;text-rendering:geometricPrecision;image-rendering:optimizeQuality;fill-rule:evenodd;clip-rule:evenodd;fill:#ffffff;fill-opacity:1">
              </path>
            </g>
          </g>
          <g id="shape-aed79e32-8dac-801f-8004-75a2522b7e1a" style="opacity:1">
            <g class="fills" id="fills-aed79e32-8dac-801f-8004-75a2522b7e1a">
              <path d="M-784.500,-1585.500C-783.110,-1584.101,-782.110,-1582.434,-781.500,-1580.500C-782.423,-1581.303,-783.423,-1581.470,-784.500,-1581.000C-790.459,-1575.211,-796.126,-1569.378,-801.500,-1563.500C-802.110,-1564.391,-802.443,-1565.391,-802.500,-1566.500C-797.203,-1573.464,-791.203,-1579.798,-784.500,-1585.500ZZ" style="shape-rendering:geometricPrecision;text-rendering:geometricPrecision;image-rendering:optimizeQuality;fill-rule:evenodd;clip-rule:evenodd;fill:#ffffff">
              </path>
            </g>
          </g>
          <g id="shape-aed79e32-8dac-801f-8004-75a2522b8575" style="opacity:1">
            <g class="fills" id="fills-aed79e32-8dac-801f-8004-75a2522b8575">
              <path d="M-781.500,-1580.500C-780.326,-1579.486,-779.660,-1578.153,-779.500,-1576.500C-784.584,-1571.919,-789.584,-1567.085,-794.500,-1562.000C-795.900,-1560.562,-797.567,-1559.729,-799.500,-1559.500C-799.733,-1561.062,-800.400,-1562.395,-801.500,-1563.500C-796.126,-1569.378,-790.459,-1575.211,-784.500,-1581.000C-783.423,-1581.470,-782.423,-1581.303,-781.500,-1580.500ZZ" style="shape-rendering:geometricPrecision;text-rendering:geometricPrecision;image-rendering:optimizeQuality;fill-rule:evenodd;clip-rule:evenodd;fill:#0c7618">
              </path>
            </g>
          </g>
          <g id="shape-aed79e32-8dac-801f-8004-75a2522b8576" style="opacity:1">
            <g class="fills" id="fills-aed79e32-8dac-801f-8004-75a2522b8576">
              <path d="M-779.500,-1576.500C-778.076,-1574.485,-777.410,-1572.152,-777.500,-1569.500C-778.625,-1567.871,-779.959,-1566.371,-781.500,-1565.000C-786.866,-1562.322,-791.866,-1559.156,-796.500,-1555.500C-797.974,-1556.436,-798.974,-1557.770,-799.500,-1559.500C-797.567,-1559.729,-795.900,-1560.562,-794.500,-1562.000C-789.584,-1567.085,-784.584,-1571.919,-779.500,-1576.500ZZ" style="shape-rendering:geometricPrecision;text-rendering:geometricPrecision;image-rendering:optimizeQuality;fill-rule:evenodd;clip-rule:evenodd;fill:#ffffff">
              </path>
            </g>
          </g>
          <g id="shape-aed79e32-8dac-801f-8004-75a2522bdc52" style="opacity:1">
            <g class="fills" id="fills-aed79e32-8dac-801f-8004-75a2522bdc52">
              <path d="M-777.500,-1569.500C-774.753,-1566.277,-772.753,-1562.611,-771.500,-1558.500C-773.740,-1557.736,-776.073,-1556.902,-778.500,-1556.000C-782.687,-1552.969,-786.687,-1549.803,-790.500,-1546.500C-792.735,-1549.291,-794.735,-1552.291,-796.500,-1555.500C-791.866,-1559.156,-786.866,-1562.322,-781.500,-1565.000C-779.959,-1566.371,-778.625,-1567.871,-777.500,-1569.500ZZ" style="shape-rendering:geometricPrecision;text-rendering:geometricPrecision;image-rendering:optimizeQuality;fill-rule:evenodd;clip-rule:evenodd;fill:#c6140f">
              </path>
            </g>
          </g>
          <g id="shape-aed79e32-8dac-801f-8004-75a2522c2879" style="opacity:1">
            <g class="fills" id="fills-aed79e32-8dac-801f-8004-75a2522c2879">
              <path d="M-938.500,-1566.500C-937.142,-1564.138,-935.642,-1561.805,-934.000,-1559.500C-931.677,-1561.152,-929.344,-1562.819,-927.000,-1564.500C-926.292,-1563.619,-925.458,-1562.953,-924.500,-1562.500C-928.377,-1549.734,-935.044,-1538.734,-944.500,-1529.500C-945.287,-1530.242,-945.954,-1531.075,-946.500,-1532.000C-943.288,-1543.349,-940.621,-1554.849,-938.500,-1566.500ZZ" style="shape-rendering:geometricPrecision;text-rendering:geometricPrecision;image-rendering:optimizeQuality;fill-rule:evenodd;clip-rule:evenodd;fill:#c60e0c">
              </path>
            </g>
          </g>
          <g id="shape-aed79e32-8dac-801f-8004-75a2522c287a" style="opacity:1">
            <g class="fills" id="fills-aed79e32-8dac-801f-8004-75a2522c287a">
              <path d="M-771.500,-1558.500C-769.525,-1555.694,-767.025,-1553.361,-764.000,-1551.500C-758.919,-1543.905,-759.419,-1536.738,-765.500,-1530.000C-766.833,-1529.333,-768.167,-1529.333,-769.500,-1530.000C-771.590,-1532.764,-773.590,-1535.597,-775.500,-1538.500C-777.833,-1541.167,-780.167,-1541.167,-782.500,-1538.500C-783.624,-1537.086,-784.624,-1535.586,-785.500,-1534.000C-787.289,-1533.480,-788.956,-1533.813,-790.500,-1535.000C-790.358,-1538.621,-790.358,-1542.455,-790.500,-1546.500C-786.687,-1549.803,-782.687,-1552.969,-778.500,-1556.000C-776.073,-1556.902,-773.740,-1557.736,-771.500,-1558.500ZZ" style="shape-rendering:geometricPrecision;text-rendering:geometricPrecision;image-rendering:optimizeQuality;fill-rule:evenodd;clip-rule:evenodd;fill:#ec9f78">
              </path>
            </g>
          </g>
          <g id="shape-aed79e32-8dac-801f-8004-75a2522c9247" style="opacity:1">
            <g class="fills" id="fills-aed79e32-8dac-801f-8004-75a2522c9247">
              <path d="M-892.500,-1514.500C-891.257,-1512.836,-889.590,-1511.669,-887.500,-1511.000C-875.910,-1508.450,-864.244,-1507.950,-852.500,-1509.500C-852.793,-1505.563,-852.460,-1501.730,-851.500,-1498.000C-852.737,-1497.768,-853.737,-1497.268,-854.500,-1496.500C-854.833,-1496.500,-855.167,-1496.500,-855.500,-1496.500C-858.167,-1496.500,-860.833,-1496.500,-863.500,-1496.500C-864.833,-1496.500,-866.167,-1496.500,-867.500,-1496.500C-869.500,-1496.500,-871.500,-1496.500,-873.500,-1496.500C-874.833,-1496.500,-876.167,-1496.500,-877.500,-1496.500C-879.607,-1497.468,-881.941,-1497.802,-884.500,-1497.500C-887.697,-1498.452,-890.697,-1499.785,-893.500,-1501.500C-893.360,-1503.124,-894.027,-1504.290,-895.500,-1505.000C-894.718,-1507.740,-894.218,-1510.574,-894.000,-1513.500C-893.617,-1514.056,-893.117,-1514.389,-892.500,-1514.500ZL-892.500,-1514.500Z" style="shape-rendering:geometricPrecision;text-rendering:geometricPrecision;image-rendering:optimizeQuality;fill-rule:evenodd;clip-rule:evenodd;fill:#5a6e89;fill-opacity:1">
              </path>
            </g>
          </g>
          <g id="shape-aed79e32-8dac-801f-8004-75a2522cddba" style="opacity:0.998">
            <g class="fills" id="fills-aed79e32-8dac-801f-8004-75a2522cddba">
              <path d="M-792.500,-1514.500C-790.044,-1510.274,-789.044,-1505.607,-789.500,-1500.500C-789.833,-1500.500,-790.167,-1500.500,-790.500,-1500.500C-790.560,-1501.043,-790.893,-1501.376,-791.500,-1501.500C-795.525,-1499.162,-799.859,-1497.828,-804.500,-1497.500C-806.167,-1497.500,-807.833,-1497.500,-809.500,-1497.500C-811.500,-1497.500,-813.500,-1497.500,-815.500,-1497.500C-817.500,-1497.500,-819.500,-1497.500,-821.500,-1497.500C-822.833,-1497.500,-824.167,-1497.500,-825.500,-1497.500C-827.833,-1497.500,-830.167,-1497.500,-832.500,-1497.500C-833.167,-1497.500,-833.833,-1497.500,-834.500,-1497.500C-835.636,-1499.046,-836.302,-1500.879,-836.500,-1503.000C-836.664,-1505.544,-835.997,-1507.710,-834.500,-1509.500C-824.310,-1508.305,-813.977,-1508.472,-803.500,-1510.000C-799.484,-1510.742,-795.817,-1512.242,-792.500,-1514.500ZZ" style="shape-rendering:geometricPrecision;text-rendering:geometricPrecision;image-rendering:optimizeQuality;fill-rule:evenodd;clip-rule:evenodd;fill:#5a6e89;fill-opacity:1">
              </path>
            </g>
          </g>
          <g id="shape-aed79e32-8dac-801f-8004-75a2522d26b4" style="opacity:1">
            <g class="fills" id="fills-aed79e32-8dac-801f-8004-75a2522d26b4">
              <path d="M-895.500,-1501.500C-891.942,-1499.446,-888.775,-1496.780,-886.000,-1493.500C-885.023,-1491.260,-884.523,-1488.927,-884.500,-1486.500C-891.842,-1487.073,-899.176,-1487.739,-906.500,-1488.500C-906.957,-1496.417,-903.291,-1500.750,-895.500,-1501.500ZZ" style="shape-rendering:geometricPrecision;text-rendering:geometricPrecision;image-rendering:optimizeQuality;fill-rule:evenodd;clip-rule:evenodd;fill:#780e1b">
              </path>
            </g>
          </g>
          <g id="shape-aed79e32-8dac-801f-8004-75a2522d6d06" style="opacity:1">
            <g class="fills" id="fills-aed79e32-8dac-801f-8004-75a2522d6d06">
              <path d="M-895.500,-1501.500C-894.833,-1501.500,-894.167,-1501.500,-893.500,-1501.500C-890.697,-1499.785,-887.697,-1498.452,-884.500,-1497.500C-882.486,-1494.806,-880.986,-1491.806,-880.000,-1488.500C-878.301,-1487.594,-876.467,-1487.261,-874.500,-1487.500C-874.664,-1490.817,-875.664,-1493.817,-877.500,-1496.500C-876.167,-1496.500,-874.833,-1496.500,-873.500,-1496.500C-871.688,-1494.539,-870.688,-1492.206,-870.500,-1489.500C-869.022,-1489.238,-867.689,-1489.571,-866.500,-1490.500C-867.348,-1492.409,-867.682,-1494.409,-867.500,-1496.500C-866.167,-1496.500,-864.833,-1496.500,-863.500,-1496.500C-863.362,-1490.787,-860.695,-1489.121,-855.500,-1491.500C-855.500,-1493.167,-855.500,-1494.833,-855.500,-1496.500C-855.167,-1496.500,-854.833,-1496.500,-854.500,-1496.500C-854.216,-1493.223,-854.549,-1490.057,-855.500,-1487.000C-871.556,-1481.785,-887.889,-1480.118,-904.500,-1482.000C-907.305,-1483.578,-907.972,-1485.745,-906.500,-1488.500C-899.176,-1487.739,-891.842,-1487.073,-884.500,-1486.500C-884.523,-1488.927,-885.023,-1491.260,-886.000,-1493.500C-888.775,-1496.780,-891.942,-1499.446,-895.500,-1501.500ZZ" style="shape-rendering:geometricPrecision;text-rendering:geometricPrecision;image-rendering:optimizeQuality;fill-rule:evenodd;clip-rule:evenodd;fill:#ffffff">
              </path>
            </g>
          </g>
          <g id="shape-aed79e32-8dac-801f-8004-75a2522d870c" style="opacity:1">
            <g class="fills" id="fills-aed79e32-8dac-801f-8004-75a2522d870c">
              <path d="M-790.500,-1500.500C-790.167,-1500.500,-789.833,-1500.500,-789.500,-1500.500C-784.473,-1498.101,-781.806,-1494.101,-781.500,-1488.500C-788.654,-1486.656,-795.987,-1485.989,-803.500,-1486.500C-803.540,-1489.425,-802.707,-1492.091,-801.000,-1494.500C-797.589,-1496.764,-794.089,-1498.764,-790.500,-1500.500ZZ" style="shape-rendering:geometricPrecision;text-rendering:geometricPrecision;image-rendering:optimizeQuality;fill-rule:evenodd;clip-rule:evenodd;fill:#770c1a">
              </path>
            </g>
          </g>
          <g id="shape-aed79e32-8dac-801f-8004-75a2522e3e2d" style="opacity:1">
            <g class="fills" id="fills-aed79e32-8dac-801f-8004-75a2522e3e2d">
              <path d="M-790.500,-1500.500C-794.089,-1498.764,-797.589,-1496.764,-801.000,-1494.500C-802.707,-1492.091,-803.540,-1489.425,-803.500,-1486.500C-795.987,-1485.989,-788.654,-1486.656,-781.500,-1488.500C-779.504,-1484.493,-780.838,-1481.993,-785.500,-1481.000C-802.058,-1479.652,-818.225,-1481.485,-834.000,-1486.500C-834.499,-1490.152,-834.665,-1493.818,-834.500,-1497.500C-833.833,-1497.500,-833.167,-1497.500,-832.500,-1497.500C-832.500,-1495.167,-832.500,-1492.833,-832.500,-1490.500C-827.753,-1490.284,-825.419,-1492.617,-825.500,-1497.500C-824.167,-1497.500,-822.833,-1497.500,-821.500,-1497.500C-821.380,-1495.266,-821.713,-1493.099,-822.500,-1491.000C-822.387,-1489.720,-821.720,-1488.887,-820.500,-1488.500C-818.044,-1491.079,-816.378,-1494.079,-815.500,-1497.500C-813.500,-1497.500,-811.500,-1497.500,-809.500,-1497.500C-811.396,-1494.716,-813.063,-1491.716,-814.500,-1488.500C-813.034,-1486.343,-811.200,-1486.010,-809.000,-1487.500C-807.396,-1490.821,-805.896,-1494.154,-804.500,-1497.500C-799.859,-1497.828,-795.525,-1499.162,-791.500,-1501.500C-790.893,-1501.376,-790.560,-1501.043,-790.500,-1500.500ZZ" style="shape-rendering:geometricPrecision;text-rendering:geometricPrecision;image-rendering:optimizeQuality;fill-rule:evenodd;clip-rule:evenodd;fill:#ffffff">
              </path>
            </g>
          </g>
          <g id="shape-aed79e32-8dac-801f-8004-75a2522eb9a8" style="opacity:1">
            <g class="fills" id="fills-aed79e32-8dac-801f-8004-75a2522eb9a8">
              <path d="M-884.500,-1497.500C-881.941,-1497.802,-879.607,-1497.468,-877.500,-1496.500C-875.664,-1493.817,-874.664,-1490.817,-874.500,-1487.500C-876.467,-1487.261,-878.301,-1487.594,-880.000,-1488.500C-880.986,-1491.806,-882.486,-1494.806,-884.500,-1497.500ZZ" style="shape-rendering:geometricPrecision;text-rendering:geometricPrecision;image-rendering:optimizeQuality;fill-rule:evenodd;clip-rule:evenodd;fill:#750a18">
              </path>
            </g>
          </g>
          <g id="shape-aed79e32-8dac-801f-8004-75a2522eb9a9" style="opacity:1">
            <g class="fills" id="fills-aed79e32-8dac-801f-8004-75a2522eb9a9">
              <path d="M-832.500,-1497.500C-830.167,-1497.500,-827.833,-1497.500,-825.500,-1497.500C-825.419,-1492.617,-827.753,-1490.284,-832.500,-1490.500C-832.500,-1492.833,-832.500,-1495.167,-832.500,-1497.500ZZ" style="shape-rendering:geometricPrecision;text-rendering:geometricPrecision;image-rendering:optimizeQuality;fill-rule:evenodd;clip-rule:evenodd;fill:#750a18">
              </path>
            </g>
          </g>
          <g id="shape-aed79e32-8dac-801f-8004-75a2522ede53" style="opacity:1">
            <g class="fills" id="fills-aed79e32-8dac-801f-8004-75a2522ede53">
              <path d="M-821.500,-1497.500C-819.500,-1497.500,-817.500,-1497.500,-815.500,-1497.500C-816.378,-1494.079,-818.044,-1491.079,-820.500,-1488.500C-821.720,-1488.887,-822.387,-1489.720,-822.500,-1491.000C-821.713,-1493.099,-821.380,-1495.266,-821.500,-1497.500ZZ" style="shape-rendering:geometricPrecision;text-rendering:geometricPrecision;image-rendering:optimizeQuality;fill-rule:evenodd;clip-rule:evenodd;fill:#760a19">
              </path>
            </g>
          </g>
          <g id="shape-aed79e32-8dac-801f-8004-75a2522ede54" style="opacity:1">
            <g class="fills" id="fills-aed79e32-8dac-801f-8004-75a2522ede54">
              <path d="M-809.500,-1497.500C-807.833,-1497.500,-806.167,-1497.500,-804.500,-1497.500C-805.896,-1494.154,-807.396,-1490.821,-809.000,-1487.500C-811.200,-1486.010,-813.034,-1486.343,-814.500,-1488.500C-813.063,-1491.716,-811.396,-1494.716,-809.500,-1497.500ZZ" style="shape-rendering:geometricPrecision;text-rendering:geometricPrecision;image-rendering:optimizeQuality;fill-rule:evenodd;clip-rule:evenodd;fill:#750a18">
              </path>
            </g>
          </g>
          <g id="shape-aed79e32-8dac-801f-8004-75a2522f0995" style="opacity:1">
            <g class="fills" id="fills-aed79e32-8dac-801f-8004-75a2522f0995">
              <path d="M-873.500,-1496.500C-871.500,-1496.500,-869.500,-1496.500,-867.500,-1496.500C-867.682,-1494.409,-867.348,-1492.409,-866.500,-1490.500C-867.689,-1489.571,-869.022,-1489.238,-870.500,-1489.500C-870.688,-1492.206,-871.688,-1494.539,-873.500,-1496.500ZZ" style="shape-rendering:geometricPrecision;text-rendering:geometricPrecision;image-rendering:optimizeQuality;fill-rule:evenodd;clip-rule:evenodd;fill:#750a18">
              </path>
            </g>
          </g>
          <g id="shape-aed79e32-8dac-801f-8004-75a2522f69d0" style="opacity:1">
            <g class="fills" id="fills-aed79e32-8dac-801f-8004-75a2522f69d0">
              <path d="M-863.500,-1496.500C-860.833,-1496.500,-858.167,-1496.500,-855.500,-1496.500C-855.500,-1494.833,-855.500,-1493.167,-855.500,-1491.500C-860.695,-1489.121,-863.362,-1490.787,-863.500,-1496.500ZZ" style="shape-rendering:geometricPrecision;text-rendering:geometricPrecision;image-rendering:optimizeQuality;fill-rule:evenodd;clip-rule:evenodd;fill:#750a18">
              </path>
            </g>
          </g>
        </g>
      </g>
    </g>
  </g>
</svg>