<svg width="500" xmlns="http://www.w3.org/2000/svg" height="500" id="screenshot-4795fd89-cbe8-8091-8004-77f060a87abc" viewBox="-1458 -857 512 512" style="-webkit-print-color-adjust::exact" xmlns:xlink="http://www.w3.org/1999/xlink" fill="none" version="1.1">
  <g id="shape-4795fd89-cbe8-8091-8004-77f060a87abc" style="fill:#000000" version="1.0" width="682.667" height="682.667" rx="0" ry="0">
    <g id="shape-4795fd89-cbe8-8091-8004-77f060aadda6" style="fill:#000000" rx="0" ry="0">
      <g id="shape-4795fd89-cbe8-8091-8004-77f060b04a25">
        <g class="fills" id="fills-4795fd89-cbe8-8091-8004-77f060b04a25">
          <path d="M-1408.816,-855.409C-1416.110,-852.805,-1421.505,-848.900,-1425.602,-843.392C-1432.695,-833.779,-1432.096,-849.801,-1431.896,-641.912L-1431.596,-454.152L-1428.899,-449.145C-1424.003,-439.832,-1416.310,-433.723,-1406.618,-431.120C-1401.523,-429.818,-1390.632,-429.617,-1331.584,-429.617L-1262.345,-429.617L-1262.046,-400.377L-1261.746,-371.036L-1259.048,-365.328C-1255.551,-357.718,-1249.257,-351.108,-1242.363,-347.804L-1236.768,-345.000L-1117.373,-345.000L-997.978,-345.000L-991.284,-348.305C-983.990,-351.910,-978.895,-357.017,-975.298,-364.427L-973.000,-369.033L-973.000,-558.296L-973.000,-747.559L-975.698,-752.566C-980.793,-762.079,-987.987,-767.987,-997.978,-770.591C-1003.074,-771.893,-1013.964,-772.093,-1073.012,-772.093L-1142.251,-772.093L-1142.551,-801.434L-1142.851,-830.674L-1145.548,-836.382C-1149.045,-843.993,-1155.340,-850.602,-1162.233,-853.907L-1167.829,-856.710L-1285.725,-856.911C-1397.027,-857.111,-1403.921,-857.111,-1408.816,-855.409ZZM-1169.827,-838.285C-1160.235,-833.879,-1159.436,-830.875,-1159.336,-798.430L-1159.336,-772.193L-1197.003,-771.793C-1223.180,-771.592,-1235.869,-771.092,-1238.466,-770.290C-1246.060,-767.687,-1253.453,-761.278,-1258.749,-752.766C-1259.548,-751.364,-1260.447,-751.264,-1264.044,-752.065C-1266.342,-752.666,-1272.636,-753.567,-1277.932,-754.068C-1307.905,-757.172,-1340.377,-745.857,-1363.356,-724.227C-1395.228,-694.285,-1406.419,-647.620,-1391.731,-606.363C-1379.143,-571.114,-1350.768,-545.578,-1313.201,-535.565C-1303.109,-532.861,-1280.729,-532.060,-1269.939,-533.962L-1262.245,-535.364L-1262.245,-491.003L-1262.245,-446.641L-1330.385,-446.641C-1374.946,-446.641,-1399.924,-447.042,-1402.422,-447.743C-1406.918,-448.944,-1412.413,-453.551,-1414.012,-457.356C-1414.811,-459.459,-1415.111,-508.827,-1414.911,-644.916L-1414.611,-829.673L-1412.213,-833.078C-1410.915,-834.880,-1408.017,-837.284,-1405.719,-838.285C-1401.823,-840.087,-1396.627,-840.188,-1287.723,-840.188C-1179.318,-840.188,-1173.623,-840.087,-1169.827,-838.285ZZM-1002.274,-754.068C-1000.176,-753.467,-997.179,-751.865,-995.480,-750.363C-988.986,-744.955,-989.485,-760.076,-989.485,-558.296C-989.485,-352.210,-988.786,-370.035,-996.779,-364.727L-1000.875,-362.024L-1115.275,-361.723C-1218.184,-361.523,-1230.174,-361.623,-1233.970,-363.025C-1239.066,-365.028,-1242.862,-369.234,-1244.261,-374.441C-1244.961,-377.145,-1245.160,-437.028,-1245.061,-560.399L-1244.761,-742.552L-1242.463,-746.157C-1239.965,-750.363,-1236.268,-753.067,-1231.772,-754.168C-1226.877,-755.370,-1006.570,-755.170,-1002.274,-754.068ZZM-1279.730,-737.144C-1274.734,-736.644,-1268.740,-735.743,-1266.442,-735.142L-1262.245,-733.940L-1262.245,-643.414L-1262.245,-552.989L-1267.441,-551.787C-1275.734,-549.884,-1293.318,-549.384,-1302.010,-550.786C-1308.904,-551.887,-1322.592,-555.893,-1323.891,-557.195C-1324.291,-557.595,-1320.594,-570.413,-1319.795,-571.515C-1319.695,-571.615,-1317.297,-571.014,-1314.400,-570.213C-1305.807,-567.709,-1300.212,-570.513,-1300.212,-577.323C-1300.212,-582.129,-1303.409,-585.234,-1310.103,-586.836C-1314.699,-587.937,-1315.299,-588.338,-1314.799,-590.241C-1314.499,-591.342,-1313.400,-597.150,-1312.501,-603.058L-1310.703,-613.673L-1304.009,-613.172C-1297.814,-612.672,-1297.215,-612.772,-1294.817,-615.175C-1289.621,-620.382,-1292.918,-629.896,-1300.012,-629.896C-1301.611,-629.896,-1304.408,-630.196,-1306.107,-630.496L-1309.204,-631.197L-1309.204,-643.915L-1309.204,-656.733L-1303.010,-657.133C-1297.914,-657.534,-1296.515,-658.035,-1294.517,-660.338C-1291.520,-663.943,-1291.520,-668.349,-1294.717,-671.453C-1296.815,-673.656,-1298.014,-673.957,-1303.909,-673.957L-1310.803,-673.957L-1312.501,-684.271C-1313.400,-689.879,-1314.400,-695.487,-1314.799,-696.688C-1315.299,-698.691,-1314.799,-699.092,-1309.804,-700.494C-1306.706,-701.395,-1303.209,-703.097,-1302.210,-704.299C-1299.313,-707.303,-1299.613,-712.510,-1302.810,-715.715C-1305.108,-718.018,-1305.907,-718.218,-1310.003,-717.617C-1312.601,-717.317,-1315.798,-716.716,-1317.197,-716.416C-1319.595,-715.915,-1319.895,-716.316,-1321.693,-721.723C-1322.792,-724.928,-1323.791,-728.032,-1323.991,-728.733C-1324.591,-731.036,-1309.903,-735.642,-1297.514,-736.944C-1293.218,-737.445,-1289.521,-737.845,-1289.222,-737.845C-1288.922,-737.946,-1284.626,-737.645,-1279.730,-737.144ZZM-1338.279,-717.317C-1337.579,-715.214,-1336.780,-713.011,-1336.580,-712.310C-1336.280,-711.509,-1338.079,-710.507,-1341.476,-709.506C-1348.070,-707.603,-1350.568,-705.100,-1350.568,-700.293C-1350.568,-697.590,-1349.868,-696.087,-1347.670,-694.285C-1344.773,-691.681,-1343.274,-691.581,-1334.582,-693.484L-1331.584,-694.185L-1329.886,-684.772C-1327.488,-671.453,-1327.288,-672.254,-1333.882,-671.353C-1343.474,-670.151,-1347.171,-663.542,-1341.775,-657.234C-1339.477,-654.630,-1338.878,-654.430,-1332.783,-654.630L-1326.189,-654.830L-1326.189,-643.514L-1326.189,-632.299L-1332.184,-632.699C-1337.679,-633.100,-1338.279,-632.900,-1341.176,-630.096C-1345.073,-626.190,-1345.073,-622.686,-1341.276,-618.780C-1339.078,-616.577,-1337.379,-615.876,-1334.482,-615.876C-1327.788,-615.876,-1327.588,-615.476,-1329.686,-603.359C-1331.385,-593.345,-1331.584,-592.744,-1333.583,-593.245C-1339.078,-594.847,-1344.373,-595.047,-1346.671,-593.846C-1349.668,-592.243,-1351.467,-587.937,-1350.568,-584.432C-1349.968,-581.829,-1345.073,-577.823,-1342.475,-577.823C-1341.875,-577.823,-1340.177,-577.423,-1338.778,-576.822L-1336.280,-575.921L-1337.879,-571.114C-1338.778,-568.510,-1339.577,-566.107,-1339.777,-565.907C-1340.676,-564.805,-1355.164,-578.124,-1360.759,-585.234C-1375.346,-603.659,-1382.140,-624.989,-1380.841,-648.822C-1379.742,-670.752,-1371.449,-690.680,-1356.762,-706.802C-1352.066,-712.010,-1341.476,-721.022,-1340.077,-721.022C-1339.777,-721.022,-1338.978,-719.320,-1338.279,-717.317ZZ">
          </path>
        </g>
      </g>
      <g id="shape-4795fd89-cbe8-8091-8004-77f060b67c0c">
        <g class="fills" id="fills-4795fd89-cbe8-8091-8004-77f060b67c0c">
          <path d="M-1140.553,-701.495C-1148.446,-699.292,-1157.538,-694.585,-1163.932,-689.178C-1174.323,-680.566,-1183.415,-664.243,-1183.215,-654.630C-1183.215,-652.327,-1183.615,-648.021,-1184.214,-645.017C-1187.911,-626.591,-1181.616,-606.964,-1167.229,-592.644L-1159.436,-585.033L-1162.533,-583.731C-1172.325,-579.726,-1188.311,-566.007,-1195.304,-555.793C-1208.493,-536.366,-1211.890,-519.843,-1211.090,-479.186C-1210.591,-456.054,-1210.191,-454.051,-1204.197,-447.142C-1199.501,-441.734,-1192.307,-438.630,-1184.714,-438.630L-1178.619,-438.630L-1178.020,-434.124C-1177.120,-428.216,-1174.423,-423.008,-1169.627,-418.402C-1164.531,-413.495,-1159.736,-411.592,-1152.042,-411.592C-1142.451,-411.592,-1137.655,-414.496,-1125.466,-427.615C-1118.172,-435.426,-1113.876,-439.231,-1110.579,-440.633C-1104.384,-443.437,-1099.788,-447.042,-1096.691,-451.748L-1094.093,-455.654L-1077.908,-455.654C-1058.625,-455.654,-1054.528,-456.655,-1048.034,-463.264C-1041.040,-470.274,-1040.241,-473.879,-1040.541,-498.313L-1040.740,-519.042L-1027.352,-533.562C-1007.969,-554.491,-1006.471,-557.094,-1006.471,-569.812C-1006.471,-591.242,-1028.651,-606.363,-1048.933,-598.852C-1055.128,-596.549,-1060.823,-591.542,-1070.115,-580.327C-1074.011,-575.520,-1074.311,-575.420,-1076.609,-576.722C-1085.201,-582.129,-1089.797,-584.833,-1090.796,-585.133C-1091.396,-585.334,-1090.497,-586.635,-1088.898,-587.937C-1080.505,-594.446,-1072.912,-605.061,-1069.415,-615.175C-1067.817,-619.581,-1067.017,-624.688,-1066.718,-632.699L-1066.118,-643.915L-1055.727,-643.915C-1046.036,-643.915,-1045.137,-644.115,-1042.938,-646.419C-1039.741,-649.523,-1039.741,-653.929,-1042.839,-657.634C-1045.137,-660.338,-1045.636,-660.438,-1056.926,-660.939L-1068.616,-661.439L-1070.614,-666.346C-1077.008,-682.769,-1093.194,-696.788,-1110.879,-701.495C-1117.972,-703.297,-1133.958,-703.398,-1140.553,-701.495ZZM-1107.082,-681.667C-1099.489,-677.862,-1092.095,-671.053,-1088.099,-664.043L-1086.300,-660.939L-1125.366,-660.939L-1164.432,-660.939L-1162.733,-664.243C-1158.137,-673.055,-1149.045,-680.666,-1138.754,-684.071C-1134.258,-685.473,-1130.661,-685.873,-1123.767,-685.673C-1115.475,-685.373,-1113.876,-684.972,-1107.082,-681.667ZZM-1083.603,-636.104C-1083.103,-623.086,-1087.199,-613.072,-1096.891,-603.960C-1117.073,-584.733,-1151.343,-590.941,-1163.532,-615.976C-1166.929,-622.986,-1168.828,-633.100,-1167.928,-639.208L-1167.229,-643.915L-1125.566,-643.715L-1083.902,-643.414L-1083.603,-636.104ZZM-1031.449,-582.029C-1024.255,-578.424,-1021.258,-569.111,-1025.154,-562.101C-1026.153,-560.399,-1042.439,-542.274,-1061.322,-521.846L-1095.792,-484.694L-1100.288,-489.100C-1102.886,-491.604,-1106.982,-494.608,-1109.680,-495.709C-1113.576,-497.512,-1114.276,-498.113,-1113.376,-499.515C-1112.877,-500.416,-1097.890,-519.042,-1080.206,-540.772C-1047.035,-581.328,-1044.637,-583.832,-1037.943,-583.832C-1036.244,-583.832,-1033.347,-583.030,-1031.449,-582.029ZZM-1108.980,-572.816C-1101.787,-571.014,-1085.401,-563.403,-1085.401,-561.901C-1085.401,-561.501,-1096.791,-547.281,-1110.679,-530.257L-1135.957,-499.214L-1148.845,-498.713C-1156.838,-498.413,-1162.733,-497.712,-1164.132,-496.911C-1168.828,-494.207,-1169.327,-486.196,-1165.031,-483.192C-1163.332,-481.990,-1159.036,-481.690,-1142.851,-481.690C-1131.860,-481.690,-1121.070,-481.189,-1118.872,-480.688C-1107.881,-478.185,-1105.084,-463.464,-1114.575,-457.656C-1117.673,-455.754,-1119.571,-455.654,-1153.141,-455.654L-1188.410,-455.654L-1190.808,-458.157L-1193.306,-460.560L-1193.306,-488.499C-1193.306,-520.243,-1192.407,-525.951,-1185.613,-539.069C-1180.018,-549.884,-1167.429,-562.101,-1156.339,-567.609C-1151.643,-569.912,-1145.148,-572.416,-1141.851,-573.217C-1132.859,-575.320,-1118.172,-575.220,-1108.980,-572.816ZZM-1058.425,-477.584C-1060.123,-473.679,-1063.720,-472.577,-1074.111,-472.878L-1083.203,-473.178L-1070.514,-486.897L-1057.925,-500.616L-1057.626,-490.402C-1057.426,-484.494,-1057.825,-479.186,-1058.425,-477.584ZZM-1141.352,-435.626C-1146.847,-427.915,-1154.141,-426.213,-1158.737,-431.720C-1160.135,-433.423,-1161.334,-435.626,-1161.334,-436.727C-1161.334,-438.530,-1160.535,-438.630,-1150.244,-438.630L-1139.254,-438.630L-1141.352,-435.626ZZ">
          </path>
        </g>
      </g>
    </g>
  </g>
</svg>