<svg width="500" xmlns="http://www.w3.org/2000/svg" height="500" id="screenshot-4795fd89-cbe8-8091-8004-77f5c06f10f9" viewBox="-2989 -616 516 512" style="-webkit-print-color-adjust::exact" xmlns:xlink="http://www.w3.org/1999/xlink" fill="none" version="1.1">
  <g id="shape-4795fd89-cbe8-8091-8004-77f5c06f10f9" style="fill:#000000" version="1.0" width="682.667" height="682.667" rx="0" ry="0">
    <g id="shape-4795fd89-cbe8-8091-8004-77f5c070889d" style="fill:#000000" rx="0" ry="0">
      <g id="shape-4795fd89-cbe8-8091-8004-77f5c072810d">
        <g class="fills" id="fills-4795fd89-cbe8-8091-8004-77f5c072810d">
          <path d="M-2705.300,-358.900C-2714.700,-356.700,-2723.200,-349.300,-2726.600,-340.400C-2728.400,-335.700,-2728.500,-331.500,-2728.500,-239.500C-2728.500,-147.300,-2728.400,-143.300,-2726.600,-138.500C-2724.100,-132.000,-2717.200,-124.800,-2710.700,-121.900L-2705.500,-119.500L-2608.500,-119.500L-2511.500,-119.500L-2506.300,-121.900C-2499.800,-124.800,-2492.900,-132.000,-2490.400,-138.500C-2488.600,-143.300,-2488.500,-147.300,-2488.500,-239.500C-2488.500,-331.700,-2488.600,-335.700,-2490.400,-340.500C-2492.900,-347.000,-2499.800,-354.200,-2506.300,-357.100L-2511.500,-359.500L-2606.500,-359.700C-2659.900,-359.800,-2703.100,-359.400,-2705.300,-358.900ZZM-2526.400,-328.400C-2524.500,-327.500,-2522.000,-325.300,-2520.700,-323.600L-2518.500,-320.500L-2518.500,-239.500L-2518.500,-158.500L-2520.700,-155.400C-2525.500,-148.700,-2521.500,-149.000,-2608.500,-149.000C-2695.500,-149.000,-2691.500,-148.700,-2696.300,-155.400L-2698.500,-158.500L-2698.500,-239.700C-2698.500,-320.200,-2698.500,-320.900,-2696.400,-323.700C-2695.300,-325.200,-2692.800,-327.300,-2690.900,-328.200C-2687.800,-329.900,-2681.700,-330.000,-2608.700,-330.000C-2538.000,-330.000,-2529.400,-329.800,-2526.400,-328.400ZZ">
          </path>
        </g>
      </g>
      <g id="shape-ea88cce6-61da-80ac-8004-7809a5261ee1">
        <g class="fills" id="fills-ea88cce6-61da-80ac-8004-7809a5261ee1">
          <path d="M-2605.294,-308.548C-2630.316,-304.856,-2651.849,-280.085,-2655.338,-250.669C-2656.335,-242.452,-2656.235,-239.475,-2654.840,-231.019C-2650.852,-206.724,-2637.992,-188.741,-2619.949,-182.072C-2610.877,-178.857,-2595.624,-179.452,-2587.151,-183.382C-2578.977,-187.193,-2570.104,-195.410,-2565.718,-203.270C-2562.528,-208.987,-2561.930,-211.131,-2561.631,-217.919C-2561.431,-223.993,-2561.730,-226.732,-2563.226,-229.947C-2566.914,-238.165,-2573.000,-238.000,-2576.000,-232.000C-2577.495,-231.285,-2579.813,-222.764,-2584.000,-218.000C-2592.673,-207.877,-2606.022,-207.975,-2613.000,-210.000C-2624.863,-213.692,-2631.779,-242.446,-2625.000,-259.000C-2621.710,-266.979,-2613.978,-278.499,-2607.000,-281.000C-2597.629,-284.215,-2588.069,-283.599,-2578.000,-273.000C-2568.928,-263.473,-2565.081,-265.212,-2559.000,-272.000C-2555.500,-277.500,-2558.000,-281.500,-2559.000,-283.000C-2570.000,-296.000,-2583.363,-311.764,-2605.294,-308.548ZL-2605.294,-308.548Z">
          </path>
        </g>
      </g>
    </g>
    <g id="shape-4795fd89-cbe8-8091-8004-77f5e5db1f89" style="fill:#000000" rx="0" ry="0">
      <g id="shape-4795fd89-cbe8-8091-8004-77f5e5db7d07">
        <g class="fills" id="fills-4795fd89-cbe8-8091-8004-77f5e5db7d07">
          <path d="M-2965.800,-354.185C-2975.200,-351.985,-2983.700,-344.585,-2987.100,-335.685C-2988.900,-330.985,-2989.000,-326.785,-2989.000,-234.785C-2989.000,-142.585,-2988.900,-138.585,-2987.100,-133.785C-2984.600,-127.285,-2977.700,-120.085,-2971.200,-117.185L-2966.000,-114.785L-2869.000,-114.785L-2772.000,-114.785L-2766.800,-117.185C-2760.300,-120.085,-2753.400,-127.285,-2750.900,-133.785C-2749.100,-138.585,-2749.000,-142.585,-2749.000,-234.785C-2749.000,-326.985,-2749.100,-330.985,-2750.900,-335.785C-2753.400,-342.285,-2760.300,-349.485,-2766.800,-352.385L-2772.000,-354.785L-2867.000,-354.985C-2920.400,-355.085,-2963.600,-354.685,-2965.800,-354.185ZZM-2786.900,-323.685C-2785.000,-322.785,-2782.500,-320.585,-2781.200,-318.885L-2779.000,-315.785L-2779.000,-234.785L-2779.000,-153.785L-2781.200,-150.685C-2786.000,-143.985,-2782.000,-144.285,-2869.000,-144.285C-2956.000,-144.285,-2952.000,-143.985,-2956.800,-150.685L-2959.000,-153.785L-2959.000,-234.985C-2959.000,-315.485,-2959.000,-316.185,-2956.900,-318.985C-2955.800,-320.485,-2953.300,-322.585,-2951.400,-323.485C-2948.300,-325.185,-2942.200,-325.285,-2869.200,-325.285C-2798.500,-325.285,-2789.900,-325.085,-2786.900,-323.685ZZ">
          </path>
        </g>
      </g>
      <g id="shape-ea88cce6-61da-80ac-8004-780aeb3b758d">
        <g class="fills" id="fills-ea88cce6-61da-80ac-8004-780aeb3b758d">
          <path d="M-2894.825,-297.510C-2901.325,-295.510,-2906.225,-289.910,-2907.625,-282.910C-2908.125,-280.010,-2910.225,-257.910,-2912.225,-233.910C-2915.925,-188.410,-2915.925,-185.710,-2912.225,-180.310C-2910.325,-177.610,-2904.525,-174.610,-2899.725,-173.810C-2897.825,-173.410,-2890.125,-172.710,-2882.725,-172.110C-2866.725,-170.910,-2852.525,-172.010,-2842.325,-175.210C-2836.325,-177.010,-2834.425,-178.210,-2829.225,-183.410C-2821.625,-191.110,-2818.725,-198.010,-2818.725,-208.410C-2818.725,-217.110,-2820.825,-221.810,-2828.025,-229.710C-2832.525,-234.710,-2832.925,-235.410,-2831.325,-236.310C-2827.125,-238.610,-2822.925,-243.410,-2820.125,-248.810C-2817.525,-254.010,-2817.225,-255.610,-2817.225,-263.610C-2817.225,-271.410,-2817.625,-273.310,-2820.025,-277.810C-2825.525,-288.310,-2835.825,-295.210,-2849.725,-297.710C-2860.025,-299.510,-2888.725,-299.410,-2894.825,-297.510ZL-2894.825,-297.510ZM-2878.981,-278.569L-2878.981,-278.569ZC-2875.681,-279.569,-2867.781,-278.769,-2861.081,-276.769C-2854.081,-274.669,-2847.581,-268.569,-2846.581,-263.069C-2845.681,-258.169,-2848.281,-251.069,-2851.881,-248.469C-2860.081,-242.669,-2880.781,-242.969,-2884.681,-248.969C-2886.081,-251.069,-2886.281,-253.169,-2885.681,-262.169C-2884.981,-273.769,-2883.481,-277.169,-2878.981,-278.569ZM-2881.948,-225.889L-2881.948,-225.889ZC-2879.748,-226.889,-2876.748,-227.189,-2872.648,-226.889C-2866.148,-226.389,-2862.948,-225.289,-2856.948,-221.389C-2845.148,-213.789,-2847.048,-198.889,-2860.748,-193.589C-2865.648,-191.689,-2880.148,-191.989,-2884.248,-194.089C-2889.748,-196.789,-2890.848,-200.089,-2889.448,-210.589C-2888.248,-220.489,-2886.648,-223.789,-2881.948,-225.889Z" style="fill:#000000">
          </path>
        </g>
      </g>
    </g>
    <g id="shape-4795fd89-cbe8-8091-8004-77f5f078590a" style="fill:#000000" rx="0" ry="0">
      <g id="shape-4795fd89-cbe8-8091-8004-77f5f0788d9b">
        <g class="fills" id="fills-4795fd89-cbe8-8091-8004-77f5f0788d9b">
          <path d="M-2844.800,-605.185C-2854.200,-602.985,-2862.700,-595.585,-2866.100,-586.685C-2867.900,-581.985,-2868.000,-577.785,-2868.000,-485.785C-2868.000,-393.585,-2867.900,-389.585,-2866.100,-384.785C-2863.600,-378.285,-2856.700,-371.085,-2850.200,-368.185L-2845.000,-365.785L-2748.000,-365.785L-2651.000,-365.785L-2645.800,-368.185C-2639.300,-371.085,-2632.400,-378.285,-2629.900,-384.785C-2628.100,-389.585,-2628.000,-393.585,-2628.000,-485.785C-2628.000,-577.985,-2628.100,-581.985,-2629.900,-586.785C-2632.400,-593.285,-2639.300,-600.485,-2645.800,-603.385L-2651.000,-605.785L-2746.000,-605.985C-2799.400,-606.085,-2842.600,-605.685,-2844.800,-605.185ZZM-2665.900,-574.685C-2664.000,-573.785,-2661.500,-571.585,-2660.200,-569.885L-2658.000,-566.785L-2658.000,-485.785L-2658.000,-404.785L-2660.200,-401.685C-2665.000,-394.985,-2661.000,-395.285,-2748.000,-395.285C-2835.000,-395.285,-2831.000,-394.985,-2835.800,-401.685L-2838.000,-404.785L-2838.000,-485.985C-2838.000,-566.485,-2838.000,-567.185,-2835.900,-569.985C-2834.800,-571.485,-2832.300,-573.585,-2830.400,-574.485C-2827.300,-576.185,-2821.200,-576.285,-2748.200,-576.285C-2677.500,-576.285,-2668.900,-576.085,-2665.900,-574.685ZZ">
          </path>
        </g>
      </g>
      <g id="shape-ea88cce6-61da-80ac-8004-780a944e7731">
        <g class="fills" id="fills-ea88cce6-61da-80ac-8004-780a944e7731">
          <path d="M-2758.434,-547.241C-2761.034,-546.141,-2764.934,-543.941,-2767.134,-542.241C-2774.834,-536.141,-2785.534,-517.541,-2792.134,-498.641C-2798.334,-481.141,-2802.734,-451.341,-2800.334,-443.841C-2797.434,-435.041,-2787.534,-432.241,-2780.734,-438.341C-2776.734,-441.741,-2774.534,-445.641,-2770.834,-455.441C-2766.034,-468.241,-2763.734,-469.641,-2749.234,-469.541C-2742.034,-469.541,-2738.634,-469.041,-2735.234,-467.441C-2730.534,-465.341,-2729.734,-464.241,-2725.734,-452.941C-2722.134,-442.541,-2712.134,-438.841,-2704.934,-445.141C-2700.134,-449.341,-2698.834,-452.941,-2699.434,-460.941C-2700.334,-472.341,-2716.334,-517.541,-2724.534,-531.641C-2733.134,-546.441,-2745.634,-552.241,-2758.434,-547.241ZL-2758.434,-547.241ZM-2757.495,-518.633L-2757.495,-518.633ZC-2753.788,-520.652,-2751.685,-520.450,-2747.077,-517.927C-2742.368,-515.202,-2739.864,-511.367,-2737.860,-503.798C-2735.256,-493.605,-2738.462,-489.063,-2748.880,-488.155C-2757.194,-487.449,-2762.904,-489.164,-2764.908,-493.100C-2766.210,-495.623,-2766.310,-497.137,-2765.409,-502.183C-2764.006,-510.055,-2760.801,-516.817,-2757.495,-518.633Z" style="fill:#000000;fill-opacity:1">
          </path>
        </g>
        <g id="strokes-ea88cce6-61da-80ac-8004-780a944e7731" class="strokes">
          <g class="outer-stroke-shape">
            <defs>
              <mask id="outer-stroke-render-118-ea88cce6-61da-80ac-8004-780a944e7731-0" x="-2802.414213562373" y="-550.414213562373" width="104.53064631635922" height="116.75095889905523" maskUnits="userSpaceOnUse">
                <use href="#stroke-shape-render-118-ea88cce6-61da-80ac-8004-780a944e7731-0" style="fill:none;stroke:white;stroke-width:2">
                </use>
                <use href="#stroke-shape-render-118-ea88cce6-61da-80ac-8004-780a944e7731-0" style="fill:black;stroke:none">
                </use>
              </mask>
              <path d="M-2758.434,-547.241C-2761.034,-546.141,-2764.934,-543.941,-2767.134,-542.241C-2774.834,-536.141,-2785.534,-517.541,-2792.134,-498.641C-2798.334,-481.141,-2802.734,-451.341,-2800.334,-443.841C-2797.434,-435.041,-2787.534,-432.241,-2780.734,-438.341C-2776.734,-441.741,-2774.534,-445.641,-2770.834,-455.441C-2766.034,-468.241,-2763.734,-469.641,-2749.234,-469.541C-2742.034,-469.541,-2738.634,-469.041,-2735.234,-467.441C-2730.534,-465.341,-2729.734,-464.241,-2725.734,-452.941C-2722.134,-442.541,-2712.134,-438.841,-2704.934,-445.141C-2700.134,-449.341,-2698.834,-452.941,-2699.434,-460.941C-2700.334,-472.341,-2716.334,-517.541,-2724.534,-531.641C-2733.134,-546.441,-2745.634,-552.241,-2758.434,-547.241ZL-2758.434,-547.241ZM-2757.495,-518.633L-2757.495,-518.633ZC-2753.788,-520.652,-2751.685,-520.450,-2747.077,-517.927C-2742.368,-515.202,-2739.864,-511.367,-2737.860,-503.798C-2735.256,-493.605,-2738.462,-489.063,-2748.880,-488.155C-2757.194,-487.449,-2762.904,-489.164,-2764.908,-493.100C-2766.210,-495.623,-2766.310,-497.137,-2765.409,-502.183C-2764.006,-510.055,-2760.801,-516.817,-2757.495,-518.633Z" id="stroke-shape-render-118-ea88cce6-61da-80ac-8004-780a944e7731-0">
              </path>
            </defs>
            <use href="#stroke-shape-render-118-ea88cce6-61da-80ac-8004-780a944e7731-0" mask="url(#outer-stroke-render-118-ea88cce6-61da-80ac-8004-780a944e7731-0)" style="fill:none;stroke-width:2;stroke:#000000;stroke-opacity:1">
            </use>
            <use href="#stroke-shape-render-118-ea88cce6-61da-80ac-8004-780a944e7731-0" style="fill:none;fill-opacity:none;stroke-width:1;stroke:none;stroke-opacity:1">
            </use>
          </g>
        </g>
      </g>
    </g>
  </g>
</svg>