<svg width="512" xmlns="http://www.w3.org/2000/svg" height="512" id="screenshot-4795fd89-cbe8-8091-8004-77f5c06f10f9" viewBox="-2985 -616 512 512" style="-webkit-print-color-adjust::exact" xmlns:xlink="http://www.w3.org/1999/xlink" fill="none" version="1.1">
  <g id="shape-4795fd89-cbe8-8091-8004-77f5c06f10f9" style="fill:#000000" version="1.0" width="682.667" height="682.667" rx="0" ry="0">
    <g id="shape-ea88cce6-61da-80ac-8004-7809a5261ee1">
      <g class="fills" id="fills-ea88cce6-61da-80ac-8004-7809a5261ee1">
        <path d="M-2603.294,-325.577C-2628.316,-321.885,-2649.849,-297.114,-2653.338,-267.698C-2654.335,-259.481,-2654.235,-256.504,-2652.840,-248.048C-2648.852,-223.753,-2635.992,-205.770,-2617.949,-199.101C-2608.877,-195.886,-2593.624,-196.481,-2585.151,-200.411C-2576.977,-204.222,-2568.104,-212.439,-2563.718,-220.300C-2560.528,-226.016,-2559.930,-228.160,-2559.631,-234.948C-2559.431,-241.022,-2559.730,-243.761,-2561.226,-246.976C-2564.914,-255.194,-2571.000,-255.029,-2574.000,-249.029C-2575.495,-248.315,-2577.813,-239.793,-2582.000,-235.029C-2590.673,-224.906,-2604.022,-225.004,-2611.000,-227.029C-2622.863,-230.721,-2629.779,-259.475,-2623.000,-276.029C-2619.710,-284.008,-2611.978,-295.528,-2605.000,-298.029C-2595.629,-301.245,-2586.069,-300.628,-2576.000,-290.029C-2566.928,-280.502,-2563.081,-282.241,-2557.000,-289.029C-2553.500,-294.529,-2556.000,-298.529,-2557.000,-300.029C-2568.000,-313.029,-2581.363,-328.793,-2603.294,-325.577ZL-2603.294,-325.577Z">
        </path>
      </g>
    </g>
    <g id="shape-35598288-0f3d-8003-8004-7e4c97f3ca40">
      <g class="fills" id="fills-35598288-0f3d-8003-8004-7e4c97f3ca40">
        <path d="M-2950.476,-369.822C-2951.930,-368.046,-2956.084,-159.763,-2954.734,-156.942C-2954.007,-155.585,-2950.684,-155.167,-2933.446,-154.644C-2905.615,-153.704,-2791.800,-153.809,-2761.269,-154.853C-2739.046,-155.585,-2736.242,-155.898,-2735.100,-157.569C-2733.958,-159.136,-2733.750,-177.833,-2734.269,-262.964C-2734.685,-321.877,-2735.412,-367.002,-2735.931,-367.629C-2737.385,-369.509,-2756.492,-370.031,-2856.807,-370.658C-2936.665,-371.285,-2949.438,-371.076,-2950.476,-369.822ZZM-2749.639,-361.152L-2743.304,-360.630L-2742.577,-262.860C-2742.058,-192.875,-2742.162,-164.777,-2742.992,-163.941C-2744.342,-162.583,-2944.765,-162.270,-2946.115,-163.628C-2946.946,-164.359,-2945.076,-306.418,-2943.726,-343.813L-2943.103,-362.928L-2849.538,-362.301C-2798.031,-361.988,-2753.169,-361.466,-2749.639,-361.152ZZ">
        </path>
      </g>
    </g>
    <g id="shape-35598288-0f3d-8003-8004-7e4d8a9b3ceb">
      <g class="fills" id="fills-35598288-0f3d-8003-8004-7e4d8a9b3ceb">
        <path d="M-2876.825,-321.510C-2883.325,-319.510,-2888.225,-313.910,-2889.625,-306.910C-2890.125,-304.010,-2892.225,-281.910,-2894.225,-257.910C-2897.925,-212.410,-2897.925,-209.710,-2894.225,-204.310C-2892.325,-201.610,-2886.525,-198.610,-2881.725,-197.810C-2879.825,-197.410,-2872.125,-196.710,-2864.725,-196.110C-2848.725,-194.910,-2834.525,-196.010,-2824.325,-199.210C-2818.325,-201.010,-2816.425,-202.210,-2811.225,-207.410C-2803.625,-215.110,-2800.725,-222.010,-2800.725,-232.410C-2800.725,-241.110,-2802.825,-245.810,-2810.025,-253.710C-2814.525,-258.710,-2814.925,-259.410,-2813.325,-260.310C-2809.125,-262.610,-2804.925,-267.410,-2802.125,-272.810C-2799.525,-278.010,-2799.225,-279.610,-2799.225,-287.610C-2799.225,-295.410,-2799.625,-297.310,-2802.025,-301.810C-2807.525,-312.310,-2817.825,-319.210,-2831.725,-321.710C-2842.025,-323.510,-2870.725,-323.410,-2876.825,-321.510ZL-2876.825,-321.510ZL-2876.825,-321.510ZL-2876.825,-321.510ZM-2860.981,-302.569L-2860.981,-302.569ZL-2860.981,-302.569ZC-2857.681,-303.569,-2849.781,-302.769,-2843.081,-300.769C-2836.081,-298.669,-2829.581,-292.569,-2828.581,-287.069C-2827.681,-282.169,-2830.281,-275.069,-2833.881,-272.469C-2842.081,-266.669,-2862.781,-266.969,-2866.681,-272.969C-2868.081,-275.069,-2868.281,-277.169,-2867.681,-286.169C-2866.981,-297.769,-2865.481,-301.169,-2860.981,-302.569ZL-2860.981,-302.569ZM-2863.948,-249.889L-2863.948,-249.889ZL-2863.948,-249.889ZC-2861.748,-250.889,-2858.748,-251.189,-2854.648,-250.889C-2848.148,-250.389,-2844.948,-249.289,-2838.948,-245.389C-2827.148,-237.789,-2829.048,-222.889,-2842.748,-217.589C-2847.648,-215.689,-2862.148,-215.989,-2866.248,-218.089C-2871.748,-220.789,-2872.848,-224.089,-2871.448,-234.589C-2870.248,-244.489,-2868.648,-247.789,-2863.948,-249.889ZL-2863.948,-249.889Z" style="-webkit-print-color-adjust::exact;fill:#000000" class="fills">
        </path>
      </g>
    </g>
    <g id="shape-35598288-0f3d-8003-8004-7e4cc0cdffe7">
      <g class="fills" id="fills-35598288-0f3d-8003-8004-7e4cc0cdffe7">
        <path d="M-2711.476,-369.828C-2712.930,-368.060,-2717.084,-160.736,-2715.734,-157.929C-2715.007,-156.577,-2711.684,-156.161,-2694.446,-155.641C-2666.615,-154.706,-2552.800,-154.810,-2522.269,-155.849C-2500.046,-156.577,-2497.242,-156.889,-2496.100,-158.553C-2494.958,-160.112,-2494.750,-178.724,-2495.269,-263.462C-2495.685,-322.104,-2496.412,-367.020,-2496.931,-367.644C-2498.385,-369.516,-2517.492,-370.036,-2617.807,-370.659C-2697.665,-371.283,-2710.438,-371.075,-2711.476,-369.828ZL-2711.476,-369.828ZM-2510.639,-361.198L-2504.304,-360.678L-2503.577,-263.358C-2503.058,-193.696,-2503.162,-165.727,-2503.992,-164.895C-2505.342,-163.543,-2705.765,-163.232,-2707.115,-164.583C-2707.946,-165.311,-2706.076,-306.715,-2704.726,-343.938L-2704.103,-362.965L-2610.538,-362.341C-2559.031,-362.030,-2514.169,-361.510,-2510.639,-361.198ZL-2510.639,-361.198Z">
        </path>
      </g>
    </g>
    <g id="shape-35598288-0f3d-8003-8004-7e4cd2481fb7">
      <g class="fills" id="fills-35598288-0f3d-8003-8004-7e4cd2481fb7">
        <path d="M-2829.742,-585.898C-2831.111,-584.237,-2835.020,-389.391,-2833.750,-386.753C-2833.065,-385.482,-2829.938,-385.091,-2813.713,-384.603C-2787.520,-383.723,-2680.400,-383.821,-2651.665,-384.798C-2630.749,-385.482,-2628.111,-385.775,-2627.035,-387.339C-2625.960,-388.805,-2625.765,-406.296,-2626.254,-485.934C-2626.644,-541.046,-2627.329,-583.260,-2627.817,-583.846C-2629.186,-585.605,-2647.169,-586.094,-2741.583,-586.680C-2816.743,-587.266,-2828.765,-587.071,-2829.742,-585.898ZL-2829.742,-585.898ZM-2640.719,-577.788L-2634.757,-577.299L-2634.072,-485.837C-2633.584,-420.367,-2633.682,-394.081,-2634.463,-393.300C-2635.734,-392.029,-2824.367,-391.736,-2825.637,-393.006C-2826.419,-393.690,-2824.660,-526.584,-2823.389,-561.567L-2822.803,-579.449L-2734.742,-578.863C-2686.264,-578.569,-2644.042,-578.081,-2640.719,-577.788ZL-2640.719,-577.788Z">
        </path>
      </g>
    </g>
    <g id="shape-4795fd89-cbe8-8091-8004-77f5f078590a" style="fill:#000000" rx="0" ry="0">
      <g id="shape-ea88cce6-61da-80ac-8004-780a944e7731">
        <g class="fills" id="fills-ea88cce6-61da-80ac-8004-780a944e7731">
          <path d="M-2738.434,-547.241C-2741.034,-546.141,-2744.934,-543.941,-2747.134,-542.241C-2754.834,-536.141,-2765.534,-517.541,-2772.134,-498.641C-2778.334,-481.141,-2782.734,-451.341,-2780.334,-443.841C-2777.434,-435.041,-2767.534,-432.241,-2760.734,-438.341C-2756.734,-441.741,-2754.534,-445.641,-2750.834,-455.441C-2746.034,-468.241,-2743.734,-469.641,-2729.234,-469.541C-2722.034,-469.541,-2718.634,-469.041,-2715.234,-467.441C-2710.534,-465.341,-2709.734,-464.241,-2705.734,-452.941C-2702.134,-442.541,-2692.134,-438.841,-2684.934,-445.141C-2680.134,-449.341,-2678.834,-452.941,-2679.434,-460.941C-2680.334,-472.341,-2696.334,-517.541,-2704.534,-531.641C-2713.134,-546.441,-2725.634,-552.241,-2738.434,-547.241ZL-2738.434,-547.241ZM-2737.495,-518.633L-2737.495,-518.633ZC-2733.788,-520.652,-2731.685,-520.450,-2727.077,-517.927C-2722.368,-515.202,-2719.864,-511.367,-2717.860,-503.798C-2715.256,-493.605,-2718.462,-489.063,-2728.880,-488.155C-2737.194,-487.449,-2742.904,-489.164,-2744.908,-493.100C-2746.210,-495.623,-2746.310,-497.137,-2745.409,-502.183C-2744.006,-510.055,-2740.801,-516.817,-2737.495,-518.633Z" style="fill:#000000;fill-opacity:1">
          </path>
        </g>
        <g id="strokes-ea88cce6-61da-80ac-8004-780a944e7731" class="strokes">
          <g class="outer-stroke-shape">
            <defs>
              <mask id="outer-stroke-render-694-ea88cce6-61da-80ac-8004-780a944e7731-0" x="-2782.414213562373" y="-550.414213562373" width="104.53064631635922" height="116.75095889905523" maskUnits="userSpaceOnUse">
                <use href="#stroke-shape-render-694-ea88cce6-61da-80ac-8004-780a944e7731-0" style="fill:none;stroke:white;stroke-width:2">
                </use>
                <use href="#stroke-shape-render-694-ea88cce6-61da-80ac-8004-780a944e7731-0" style="fill:black;stroke:none">
                </use>
              </mask>
              <path d="M-2738.434,-547.241C-2741.034,-546.141,-2744.934,-543.941,-2747.134,-542.241C-2754.834,-536.141,-2765.534,-517.541,-2772.134,-498.641C-2778.334,-481.141,-2782.734,-451.341,-2780.334,-443.841C-2777.434,-435.041,-2767.534,-432.241,-2760.734,-438.341C-2756.734,-441.741,-2754.534,-445.641,-2750.834,-455.441C-2746.034,-468.241,-2743.734,-469.641,-2729.234,-469.541C-2722.034,-469.541,-2718.634,-469.041,-2715.234,-467.441C-2710.534,-465.341,-2709.734,-464.241,-2705.734,-452.941C-2702.134,-442.541,-2692.134,-438.841,-2684.934,-445.141C-2680.134,-449.341,-2678.834,-452.941,-2679.434,-460.941C-2680.334,-472.341,-2696.334,-517.541,-2704.534,-531.641C-2713.134,-546.441,-2725.634,-552.241,-2738.434,-547.241ZL-2738.434,-547.241ZM-2737.495,-518.633L-2737.495,-518.633ZC-2733.788,-520.652,-2731.685,-520.450,-2727.077,-517.927C-2722.368,-515.202,-2719.864,-511.367,-2717.860,-503.798C-2715.256,-493.605,-2718.462,-489.063,-2728.880,-488.155C-2737.194,-487.449,-2742.904,-489.164,-2744.908,-493.100C-2746.210,-495.623,-2746.310,-497.137,-2745.409,-502.183C-2744.006,-510.055,-2740.801,-516.817,-2737.495,-518.633Z" id="stroke-shape-render-694-ea88cce6-61da-80ac-8004-780a944e7731-0">
              </path>
            </defs>
            <use href="#stroke-shape-render-694-ea88cce6-61da-80ac-8004-780a944e7731-0" mask="url(#outer-stroke-render-694-ea88cce6-61da-80ac-8004-780a944e7731-0)" style="fill:none;stroke-width:2;stroke:#000000;stroke-opacity:1">
            </use>
            <use href="#stroke-shape-render-694-ea88cce6-61da-80ac-8004-780a944e7731-0" style="fill:none;fill-opacity:none;stroke-width:1;stroke:none;stroke-opacity:1">
            </use>
          </g>
        </g>
      </g>
    </g>
  </g>
</svg>