<svg width="500" xmlns="http://www.w3.org/2000/svg" height="500" id="screenshot-ea88cce6-61da-80ac-8004-7808be730bbd" viewBox="-3030 1956 512 512" style="-webkit-print-color-adjust::exact" xmlns:xlink="http://www.w3.org/1999/xlink" fill="none" version="1.1">
  <g id="shape-ea88cce6-61da-80ac-8004-7808be730bbd" style="fill:#000000" version="1.0" width="682.667" height="682.667" rx="0" ry="0">
    <g id="shape-ea88cce6-61da-80ac-8004-7808be74bc3a" style="fill:#000000" rx="0" ry="0">
      <g id="shape-ea88cce6-61da-80ac-8004-7808be7b34a0">
        <g class="fills" id="fills-ea88cce6-61da-80ac-8004-7808be7b34a0">
          <path d="M-2790.500,1956.600C-2799.500,1957.600,-2817.000,1961.300,-2826.000,1964.200C-2858.000,1974.400,-2884.500,1994.100,-2899.800,2019.100L-2904.500,2026.700L-2912.700,2027.400C-2939.500,2029.400,-2963.200,2039.900,-2987.500,2060.200C-3007.100,2076.600,-3011.800,2084.600,-3007.600,2094.300C-3005.800,2098.400,-2966.400,2137.600,-2962.700,2139.000C-2958.400,2140.500,-2954.100,2140.200,-2949.400,2137.900C-2944.500,2135.600,-2941.900,2131.900,-2939.000,2123.400C-2936.500,2116.200,-2930.900,2105.900,-2926.200,2100.000C-2921.700,2094.300,-2914.800,2087.000,-2913.900,2087.000C-2913.500,2087.000,-2912.900,2088.700,-2912.500,2090.700C-2908.100,2115.200,-2888.300,2142.300,-2862.600,2159.100C-2853.700,2164.900,-2852.900,2165.700,-2853.500,2168.000C-2853.900,2169.400,-2854.700,2171.000,-2855.300,2171.700C-2856.000,2172.400,-2877.900,2183.400,-2904.000,2196.100C-2930.100,2208.900,-2953.400,2220.600,-2955.700,2222.300C-2977.100,2237.500,-2968.400,2271.600,-2941.900,2276.500C-2934.900,2277.800,-2927.800,2275.400,-2903.500,2263.600C-2890.400,2257.200,-2879.500,2252.100,-2879.300,2252.300C-2879.200,2252.500,-2885.100,2273.000,-2892.600,2298.000C-2907.400,2347.400,-2907.600,2348.600,-2902.000,2351.500C-2899.700,2352.700,-2895.100,2353.000,-2880.500,2353.000L-2862.000,2353.000L-2862.000,2391.900C-2862.000,2414.000,-2861.600,2433.100,-2861.000,2436.100C-2857.100,2456.700,-2836.700,2470.900,-2816.400,2467.100C-2803.700,2464.800,-2793.000,2456.800,-2787.600,2445.800C-2783.700,2437.800,-2783.000,2429.700,-2783.000,2389.700L-2783.000,2353.000L-2774.000,2353.000L-2765.000,2353.000L-2765.000,2390.200C-2765.000,2410.700,-2764.600,2430.300,-2764.100,2433.700C-2760.800,2456.000,-2740.200,2471.100,-2718.500,2467.100C-2702.600,2464.100,-2690.000,2451.500,-2687.100,2435.600C-2686.400,2432.000,-2686.000,2414.600,-2686.000,2391.300L-2686.000,2353.000L-2666.900,2353.000L-2647.800,2353.000L-2644.900,2350.100C-2643.300,2348.500,-2642.000,2346.200,-2642.000,2345.100C-2642.000,2343.900,-2648.100,2322.700,-2655.600,2297.900C-2663.100,2273.100,-2669.000,2252.700,-2668.800,2252.400C-2668.500,2252.200,-2657.600,2257.200,-2644.500,2263.600C-2620.200,2275.400,-2613.100,2277.800,-2606.100,2276.500C-2594.500,2274.300,-2584.600,2265.700,-2581.700,2255.300C-2579.600,2247.900,-2579.600,2243.400,-2581.600,2237.400C-2583.800,2230.800,-2587.400,2225.800,-2592.300,2222.300C-2594.600,2220.600,-2618.400,2208.600,-2645.200,2195.500C-2672.100,2182.400,-2694.000,2171.200,-2694.000,2170.600C-2694.000,2170.000,-2694.300,2168.600,-2694.600,2167.500C-2695.000,2165.800,-2693.400,2164.400,-2685.400,2159.100C-2674.400,2151.900,-2661.200,2139.700,-2653.900,2130.000C-2645.700,2119.200,-2637.500,2101.700,-2635.500,2090.700C-2635.100,2088.700,-2634.500,2087.000,-2634.100,2087.000C-2633.200,2087.000,-2626.300,2094.300,-2621.800,2100.000C-2617.100,2105.900,-2611.500,2116.200,-2609.000,2123.400C-2606.100,2131.900,-2603.500,2135.600,-2598.600,2137.900C-2593.700,2140.300,-2589.200,2140.600,-2584.700,2138.600C-2580.600,2136.800,-2541.400,2097.400,-2540.000,2093.700C-2536.500,2084.100,-2541.300,2076.200,-2560.500,2060.200C-2584.800,2039.900,-2608.500,2029.500,-2635.300,2027.400L-2643.500,2026.700L-2649.900,2016.800C-2661.400,1999.200,-2681.700,1981.900,-2702.500,1972.000C-2724.000,1961.800,-2744.300,1957.100,-2769.500,1956.600C-2778.800,1956.400,-2788.300,1956.400,-2790.500,1956.600ZZM-2788.700,1976.000C-2800.600,1994.800,-2829.800,2018.500,-2856.500,2031.100C-2869.800,2037.300,-2891.100,2044.200,-2892.600,2042.700C-2893.600,2041.700,-2888.300,2031.300,-2882.900,2023.500C-2874.000,2010.600,-2857.200,1996.200,-2842.300,1988.700C-2829.200,1982.000,-2813.100,1976.900,-2798.300,1974.600C-2785.900,1972.600,-2786.500,1972.500,-2788.700,1976.000ZZM-2744.200,1975.600C-2711.300,1981.400,-2679.400,2001.400,-2663.300,2026.100C-2658.800,2033.200,-2654.600,2041.900,-2655.400,2042.800C-2656.200,2043.600,-2670.100,2039.900,-2679.400,2036.300C-2697.600,2029.400,-2716.400,2018.200,-2733.100,2004.200C-2742.700,1996.200,-2755.800,1982.100,-2759.300,1976.100L-2761.100,1973.000L-2756.800,1973.600C-2754.400,1973.900,-2748.800,1974.800,-2744.200,1975.600ZZM-2768.800,1991.200C-2758.500,2005.200,-2736.000,2024.800,-2716.900,2036.400C-2699.900,2046.700,-2678.500,2055.400,-2662.300,2058.500C-2658.000,2059.400,-2653.400,2060.300,-2652.100,2060.600L-2649.700,2061.100L-2650.300,2073.300C-2651.200,2096.100,-2659.300,2113.600,-2677.000,2131.000C-2694.400,2148.200,-2715.700,2159.200,-2743.400,2165.200C-2751.900,2167.100,-2756.700,2167.400,-2774.000,2167.500C-2791.900,2167.500,-2795.800,2167.200,-2804.800,2165.200C-2853.100,2154.400,-2887.100,2125.800,-2896.100,2088.500C-2898.300,2079.000,-2898.800,2061.100,-2896.700,2060.600C-2896.100,2060.400,-2891.500,2059.500,-2886.700,2058.600C-2863.200,2054.100,-2836.600,2041.600,-2812.600,2023.600C-2802.200,2015.800,-2785.100,1999.200,-2779.200,1991.200C-2776.700,1987.800,-2774.300,1985.000,-2774.000,1985.000C-2773.700,1985.000,-2771.300,1987.800,-2768.800,1991.200ZZM-2912.000,2047.100C-2912.500,2048.900,-2913.400,2053.900,-2914.000,2058.300C-2915.000,2065.100,-2915.500,2066.600,-2917.800,2068.400C-2923.300,2072.500,-2935.400,2084.700,-2939.800,2090.500C-2944.900,2097.000,-2953.100,2112.400,-2955.100,2118.900C-2955.800,2121.100,-2956.600,2123.000,-2956.900,2123.000C-2957.300,2123.000,-2965.400,2115.100,-2975.000,2105.500L-2992.500,2088.000L-2987.000,2082.400C-2980.900,2076.200,-2970.000,2067.100,-2962.900,2062.200C-2948.500,2052.500,-2927.400,2044.500,-2914.800,2044.100C-2911.200,2044.000,-2911.100,2044.000,-2912.000,2047.100ZZM-2613.200,2048.500C-2595.400,2054.500,-2580.000,2064.300,-2564.000,2079.700L-2555.500,2087.900L-2573.000,2105.500C-2582.600,2115.100,-2590.700,2123.000,-2591.100,2123.000C-2591.400,2123.000,-2592.200,2121.100,-2592.900,2118.900C-2594.900,2112.400,-2603.100,2097.000,-2608.200,2090.500C-2612.700,2084.600,-2624.700,2072.500,-2630.300,2068.300C-2632.600,2066.500,-2633.200,2065.100,-2634.000,2058.800C-2634.500,2054.800,-2635.400,2049.900,-2636.000,2048.000C-2636.500,2046.100,-2637.000,2044.300,-2637.000,2044.100C-2637.000,2042.800,-2621.900,2045.600,-2613.200,2048.500ZZM-2829.400,2175.400C-2799.200,2186.100,-2771.900,2187.300,-2729.500,2179.900C-2726.200,2179.300,-2722.800,2178.200,-2722.000,2177.500C-2720.300,2176.100,-2711.100,2172.500,-2710.600,2173.100C-2709.800,2174.000,-2704.000,2194.500,-2704.000,2196.500C-2704.000,2197.700,-2702.900,2200.700,-2701.600,2203.200C-2700.300,2205.700,-2698.900,2209.200,-2698.500,2211.100C-2698.100,2213.000,-2696.900,2217.600,-2695.800,2221.500C-2694.700,2225.300,-2693.700,2228.900,-2693.600,2229.500C-2691.700,2238.500,-2690.500,2243.000,-2689.200,2245.500C-2688.300,2247.100,-2687.100,2250.300,-2686.400,2252.500C-2685.800,2254.700,-2683.900,2261.400,-2682.200,2267.500C-2679.400,2277.400,-2675.800,2288.900,-2674.300,2293.000C-2673.900,2293.800,-2672.400,2299.200,-2670.900,2305.000C-2669.400,2310.800,-2667.000,2318.700,-2665.600,2322.700C-2664.300,2326.600,-2662.900,2331.200,-2662.500,2332.900L-2661.800,2336.000L-2774.300,2336.000L-2886.700,2336.000L-2883.300,2324.700C-2881.400,2318.600,-2879.300,2311.700,-2878.700,2309.500C-2878.100,2307.300,-2875.300,2298.100,-2872.300,2289.000C-2869.400,2280.000,-2867.200,2272.000,-2867.400,2271.400C-2867.600,2270.800,-2867.500,2269.900,-2867.000,2269.400C-2866.600,2268.900,-2864.800,2263.300,-2863.000,2257.000C-2861.200,2250.700,-2857.600,2238.500,-2855.000,2230.000C-2852.300,2221.500,-2849.900,2212.900,-2849.500,2211.000C-2849.200,2209.100,-2847.800,2204.800,-2846.600,2201.500C-2845.300,2198.200,-2842.800,2190.400,-2841.000,2184.200C-2839.200,2178.100,-2837.400,2173.000,-2837.000,2173.000C-2836.600,2173.000,-2833.200,2174.100,-2829.400,2175.400ZZM-2867.000,2212.600C-2869.700,2221.800,-2872.200,2229.500,-2872.300,2229.700C-2872.500,2229.800,-2886.400,2236.700,-2903.300,2245.000C-2936.200,2261.100,-2938.500,2261.800,-2944.700,2258.000C-2951.600,2253.800,-2953.200,2242.700,-2947.700,2237.200C-2944.900,2234.400,-2862.700,2193.900,-2862.200,2195.100C-2862.000,2195.500,-2864.200,2203.300,-2867.000,2212.600ZZM-2644.900,2214.100C-2598.800,2236.500,-2597.000,2237.600,-2597.000,2245.500C-2597.000,2251.200,-2599.200,2255.500,-2603.300,2258.000C-2609.500,2261.800,-2611.800,2261.100,-2644.700,2245.000C-2661.500,2236.700,-2675.500,2229.800,-2675.700,2229.600C-2676.200,2229.100,-2686.800,2194.000,-2686.500,2194.000C-2686.300,2194.000,-2667.600,2203.000,-2644.900,2214.100ZZM-2800.000,2392.300C-2800.000,2436.300,-2800.200,2437.900,-2806.700,2444.400C-2816.900,2454.600,-2833.800,2452.900,-2841.700,2440.800L-2844.500,2436.600L-2844.800,2394.800L-2845.100,2353.000L-2822.500,2353.000L-2800.000,2353.000L-2800.000,2392.300ZZM-2703.000,2393.400L-2703.000,2433.800L-2705.800,2439.100C-2714.500,2455.700,-2738.300,2454.800,-2746.100,2437.500C-2747.800,2433.800,-2748.000,2430.100,-2748.000,2393.200L-2748.000,2353.000L-2725.500,2353.000L-2703.000,2353.000L-2703.000,2393.400ZZ">
          </path>
        </g>
      </g>
    </g>
  </g>
</svg>