<svg width="500" xmlns="http://www.w3.org/2000/svg" height="500" id="screenshot-4795fd89-cbe8-8091-8004-77f8a7bbdc80" viewBox="-2970 174 384 512" style="-webkit-print-color-adjust::exact" xmlns:xlink="http://www.w3.org/1999/xlink" fill="none" version="1.1">
  <g id="shape-4795fd89-cbe8-8091-8004-77f8a7bbdc80" style="fill:#000000" version="1.0" width="512" height="682.667" rx="0" ry="0">
    <g id="shape-4795fd89-cbe8-8091-8004-77f8a7bdfc1f" style="fill:#000000" rx="0" ry="0">
      <g id="shape-4795fd89-cbe8-8091-8004-77f8a7c0a38d">
        <g class="fills" id="fills-4795fd89-cbe8-8091-8004-77f8a7c0a38d">
          <path d="M-2925.000,207.600C-2941.300,211.100,-2956.400,223.100,-2964.000,238.500C-2970.300,251.200,-2971.500,268.100,-2967.100,282.000L-2965.100,288.400L-2967.300,295.500C-2969.500,302.400,-2969.500,303.100,-2969.500,371.000L-2969.500,439.500L-2967.200,447.000C-2962.300,462.300,-2954.100,474.800,-2942.500,484.400C-2939.200,487.000,-2931.000,491.900,-2924.200,495.200C-2915.900,499.200,-2912.200,501.500,-2912.700,502.300C-2913.100,503.000,-2915.400,506.200,-2917.800,509.500C-2920.200,512.800,-2924.100,519.500,-2926.500,524.500C-2935.400,543.200,-2938.000,556.900,-2938.000,586.200L-2938.000,606.000L-2914.000,606.000L-2890.000,606.000L-2890.000,587.500C-2890.000,565.400,-2888.600,557.100,-2883.000,545.500C-2874.600,528.100,-2870.900,525.200,-2815.500,492.100C-2807.100,487.100,-2801.400,481.000,-2797.700,473.200L-2794.500,466.500L-2794.200,432.300L-2793.900,398.100L-2803.200,403.500C-2815.600,410.800,-2817.200,412.800,-2821.000,425.200C-2828.200,449.000,-2829.100,451.100,-2833.400,455.500C-2836.200,458.200,-2840.600,460.900,-2846.500,463.500C-2854.000,466.700,-2856.600,467.400,-2862.500,467.400C-2869.200,467.500,-2870.400,467.100,-2889.500,458.500C-2912.300,448.300,-2916.700,445.100,-2920.000,436.400C-2921.900,431.100,-2922.000,428.800,-2922.000,370.900C-2922.000,303.100,-2922.400,307.100,-2913.900,298.400L-2908.900,293.300L-2915.400,280.000C-2919.100,272.700,-2922.000,265.700,-2922.000,264.300C-2922.000,260.700,-2919.500,256.500,-2916.500,255.200C-2912.300,253.300,-2801.600,253.500,-2786.800,255.500C-2723.200,263.900,-2671.900,309.600,-2655.900,372.200C-2651.200,390.800,-2651.000,395.000,-2651.000,503.700L-2651.000,606.000L-2627.000,606.000L-2602.900,606.000L-2603.300,496.700C-2603.600,377.300,-2603.300,383.300,-2609.600,358.500C-2623.700,302.900,-2663.500,253.800,-2715.600,227.700C-2736.700,217.200,-2759.800,210.300,-2783.000,207.600C-2801.700,205.400,-2915.000,205.400,-2925.000,207.600ZZ">
          </path>
        </g>
      </g>
      <g id="shape-4795fd89-cbe8-8091-8004-77f8a7c1af08">
        <g class="fills" id="fills-4795fd89-cbe8-8091-8004-77f8a7c1af08">
          <path d="M-2876.500,319.200C-2881.900,321.200,-2884.800,323.900,-2887.600,329.500C-2890.900,336.400,-2890.600,342.000,-2886.400,348.700C-2882.500,354.900,-2877.400,357.500,-2869.300,357.500C-2864.100,357.500,-2862.500,357.000,-2858.900,354.500C-2847.200,346.300,-2847.200,329.800,-2858.800,321.600C-2863.500,318.300,-2871.300,317.200,-2876.500,319.200ZZ">
          </path>
        </g>
      </g>
      <g id="shape-4795fd89-cbe8-8091-8004-77f8a7c25e5b">
        <g class="fills" id="fills-4795fd89-cbe8-8091-8004-77f8a7c25e5b">
          <path d="M-2954.100,639.400C-2962.600,642.400,-2968.400,649.600,-2969.600,658.300C-2971.000,668.100,-2965.100,678.800,-2955.900,683.400L-2950.600,686.000L-2778.700,686.000C-2646.600,686.000,-2605.800,685.700,-2602.600,684.800C-2597.100,683.200,-2588.800,674.900,-2587.200,669.400C-2584.600,660.500,-2586.300,653.100,-2592.700,646.000C-2600.500,637.300,-2584.100,638.000,-2778.400,638.000C-2916.400,638.100,-2951.200,638.300,-2954.100,639.400ZZ">
          </path>
        </g>
      </g>
    </g>
  </g>
</svg>