<svg width="211" xmlns="http://www.w3.org/2000/svg" height="319" id="screenshot-759f96bd-bdb6-8028-8004-7e59c94cb09a" viewBox="632 358 211 319" style="-webkit-print-color-adjust::exact" xmlns:xlink="http://www.w3.org/1999/xlink" fill="none" version="1.1">
  <g id="shape-759f96bd-bdb6-8028-8004-7e59c94cb09a" style="fill:#000000" width="198" height="255" rx="0" ry="0">
    <g id="shape-759f96bd-bdb6-8028-8004-7e59c95c306c" style="opacity:1">
      <g class="fills" id="fills-759f96bd-bdb6-8028-8004-7e59c95c306c">
        <path d="M788.500,508.500C788.167,507.833,787.833,507.167,787.500,506.500C788.527,502.554,788.694,498.554,788.000,494.500C787.004,492.339,785.504,490.673,783.500,489.500C782.150,486.894,780.650,486.894,779.000,489.500C778.828,482.654,778.328,475.987,777.500,469.500C776.610,463.834,774.943,458.500,772.500,453.500C769.548,444.930,764.215,438.263,756.500,433.500C743.454,426.545,732.120,428.545,722.500,439.500C721.655,440.671,720.989,442.005,720.500,443.500C698.114,438.926,692.448,446.926,703.500,467.500C704.275,469.612,704.275,471.612,703.500,473.500C702.342,474.950,702.842,475.950,705.000,476.500C706.039,475.756,706.539,474.756,706.500,473.500C707.492,473.328,708.158,473.662,708.500,474.500C707.438,475.575,707.438,476.575,708.500,477.500C710.156,475.540,711.823,473.540,713.500,471.500C718.682,469.137,721.349,470.804,721.500,476.500C720.705,480.218,719.705,483.885,718.500,487.500C718.267,488.932,717.600,489.432,716.500,489.000C711.848,480.167,704.848,477.167,695.500,480.000C688.543,487.701,688.876,495.035,696.500,502.000C703.481,504.424,710.148,503.924,716.500,500.500C717.824,502.318,719.657,503.318,722.000,503.500C724.856,503.129,727.689,502.629,730.500,502.000C733.281,501.478,735.615,500.312,737.500,498.500C738.496,498.414,739.329,498.748,740.000,499.500C741.767,506.064,739.267,509.564,732.500,510.000C729.203,514.124,727.703,518.957,728.000,524.500C724.006,531.663,719.006,532.330,713.000,526.500C711.139,524.112,709.806,521.446,709.000,518.500C708.097,517.299,706.931,516.465,705.500,516.000C707.167,515.667,708.833,515.333,710.500,515.000C709.833,514.333,709.167,513.667,708.500,513.000C706.406,514.094,704.073,514.428,701.500,514.000C698.423,511.710,695.589,509.210,693.000,506.500C692.755,510.443,693.755,514.110,696.000,517.500C702.101,523.254,707.935,529.087,713.500,535.000C720.353,537.180,727.019,536.680,733.500,533.500C732.962,535.117,732.629,536.784,732.500,538.500C731.312,540.722,730.312,543.055,729.500,545.500C722.313,545.175,715.313,545.509,708.500,546.500C706.722,548.829,705.722,551.496,705.500,554.500C704.532,552.393,704.198,550.059,704.500,547.500C708.215,543.421,709.048,538.754,707.000,533.500C704.625,535.539,702.625,537.872,701.000,540.500C700.174,543.212,700.674,545.545,702.500,547.500C702.073,550.010,701.407,552.343,700.500,554.500C700.664,551.813,700.497,549.146,700.000,546.500C694.398,545.431,691.898,547.931,692.500,554.000C692.581,555.924,692.914,557.757,693.500,559.500C692.226,560.189,692.226,561.023,693.500,562.000C695.167,562.667,696.833,562.667,698.500,562.000C700.436,559.963,702.102,557.797,703.500,555.500C704.632,557.990,704.299,560.324,702.500,562.500C700.281,564.606,697.615,565.606,694.500,565.500C694.264,568.609,694.597,571.609,695.500,574.500C695.995,576.482,696.495,578.482,697.000,580.500C697.671,581.252,698.504,581.586,699.500,581.500C703.219,584.054,706.052,587.387,708.000,591.500C710.252,597.020,712.252,602.686,714.000,608.500C715.635,611.632,717.468,614.632,719.500,617.500C722.788,618.568,724.454,617.235,724.500,613.500C725.151,612.909,725.818,612.243,726.500,611.500C726.973,613.247,727.307,614.914,727.500,616.500C727.361,620.111,725.694,622.777,722.500,624.500C721.667,626.500,720.833,628.500,720.000,630.500C715.255,634.122,710.422,637.622,705.500,641.000C694.798,643.066,685.965,639.900,679.000,631.500C677.872,629.655,677.372,627.655,677.500,625.500C661.543,620.272,655.376,609.272,659.000,592.500C665.130,578.017,675.964,572.350,691.500,575.500C691.750,568.411,691.083,561.411,689.500,554.500C690.213,549.412,692.713,545.412,697.000,542.500C697.667,541.167,697.667,539.833,697.000,538.500C688.489,526.154,680.989,513.154,674.500,499.500C667.815,498.313,664.649,494.313,665.000,487.500C653.916,480.990,649.583,471.324,652.000,458.500C659.564,440.636,672.730,433.803,691.500,438.000C693.960,439.458,696.127,441.291,698.000,443.500C699.214,441.951,700.714,440.784,702.500,440.000C708.194,439.616,713.861,439.616,719.500,440.000C729.721,426.416,742.721,423.083,758.500,430.000C771.542,439.907,779.042,453.074,781.000,469.500C781.333,474.500,781.667,479.500,782.000,484.500C791.650,490.724,793.817,498.724,788.500,508.500ZL788.500,508.500Z" style="shape-rendering:geometricPrecision;text-rendering:geometricPrecision;image-rendering:optimizeQuality;fill-rule:evenodd;clip-rule:evenodd;fill:#140d0c">
        </path>
      </g>
    </g>
    <g id="shape-759f96bd-bdb6-8028-8004-7e59c95e9fc3" style="opacity:1">
      <g class="fills" id="fills-759f96bd-bdb6-8028-8004-7e59c95e9fc3">
        <path d="M676.500,438.500C684.022,437.394,690.189,439.728,695.000,445.500C695.497,447.810,695.663,450.143,695.500,452.500C693.712,452.785,692.045,452.452,690.500,451.500C688.954,447.097,685.954,444.930,681.500,445.000C684.695,446.695,687.028,449.195,688.500,452.500C687.055,454.063,685.389,455.396,683.500,456.500C681.833,454.500,680.167,452.500,678.500,450.500C676.368,448.883,674.035,448.383,671.500,449.000C680.748,452.666,683.582,459.166,680.000,468.500C678.989,469.337,677.822,469.670,676.500,469.500C676.605,463.113,673.939,458.279,668.500,455.000C663.371,454.474,663.371,455.140,668.500,457.000C673.635,461.474,674.635,466.641,671.500,472.500C667.474,474.326,664.307,473.326,662.000,469.500C662.011,473.674,664.177,475.674,668.500,475.500C672.971,473.591,677.638,471.924,682.500,470.500C685.908,471.894,689.241,471.728,692.500,470.000C693.451,469.283,693.617,468.449,693.000,467.500C684.491,470.992,681.824,468.325,685.000,459.500C687.760,455.793,691.260,454.793,695.500,456.500C696.663,460.830,698.497,464.830,701.000,468.500C701.687,470.920,701.187,473.087,699.500,475.000C696.344,475.937,693.511,477.437,691.000,479.500C688.723,483.905,686.890,488.405,685.500,493.000C680.995,494.962,676.328,495.629,671.500,495.000C669.081,493.491,668.081,491.325,668.500,488.500C671.187,488.664,673.854,488.497,676.500,488.000C661.074,485.245,653.908,476.079,655.000,460.500C658.515,449.512,665.682,442.179,676.500,438.500ZZ" style="shape-rendering:geometricPrecision;text-rendering:geometricPrecision;image-rendering:optimizeQuality;fill-rule:evenodd;clip-rule:evenodd;fill:#f4f4f4">
        </path>
      </g>
    </g>
    <g id="shape-759f96bd-bdb6-8028-8004-7e59c95f7012" style="opacity:1">
      <g class="fills" id="fills-759f96bd-bdb6-8028-8004-7e59c95f7012">
        <path d="M756.500,433.500C753.362,432.284,751.028,433.450,749.500,437.000C750.582,438.330,751.249,439.830,751.500,441.500C747.426,436.298,742.092,434.131,735.500,435.000C733.680,435.200,732.347,436.034,731.500,437.500C728.615,438.545,726.448,440.545,725.000,443.500C723.294,442.692,722.461,441.359,722.500,439.500C732.120,428.545,743.454,426.545,756.500,433.500ZZ" style="shape-rendering:geometricPrecision;text-rendering:geometricPrecision;image-rendering:optimizeQuality;fill-rule:evenodd;clip-rule:evenodd;fill:#f11f43">
        </path>
      </g>
    </g>
    <g id="shape-759f96bd-bdb6-8028-8004-7e59c960b531" style="opacity:1">
      <g class="fills" id="fills-759f96bd-bdb6-8028-8004-7e59c960b531">
        <path d="M756.500,433.500C764.215,438.263,769.548,444.930,772.500,453.500C773.390,459.166,775.057,464.500,777.500,469.500C777.500,476.833,777.500,484.167,777.500,491.500C779.500,490.833,781.500,490.167,783.500,489.500C785.504,490.673,787.004,492.339,788.000,494.500C788.694,498.554,788.527,502.554,787.500,506.500C785.370,508.127,783.370,509.960,781.500,512.000C780.552,512.483,779.552,512.649,778.500,512.500C778.151,508.470,776.151,505.470,772.500,503.500C770.365,501.631,767.698,500.964,764.500,501.500C764.054,496.148,763.387,490.815,762.500,485.500C761.894,482.660,760.561,480.327,758.500,478.500C756.978,476.280,755.978,473.780,755.500,471.000C753.274,468.283,751.274,465.449,749.500,462.500C749.712,460.616,750.712,459.283,752.500,458.500C753.663,453.198,753.829,447.864,753.000,442.500C752.617,441.944,752.117,441.611,751.500,441.500C751.249,439.830,750.582,438.330,749.500,437.000C751.028,433.450,753.362,432.284,756.500,433.500ZZ" style="shape-rendering:geometricPrecision;text-rendering:geometricPrecision;image-rendering:optimizeQuality;fill-rule:evenodd;clip-rule:evenodd;fill:#f11f43">
        </path>
      </g>
    </g>
    <g id="shape-759f96bd-bdb6-8028-8004-7e59c9614db0" style="opacity:1">
      <g class="fills" id="fills-759f96bd-bdb6-8028-8004-7e59c9614db0">
        <path d="M720.500,443.500C730.279,448.928,738.946,455.928,746.500,464.500C744.735,465.461,742.735,465.795,740.500,465.500C736.722,460.383,732.055,456.383,726.500,453.500C726.369,454.239,726.536,454.906,727.000,455.500C743.312,468.005,742.145,470.338,723.500,462.500C719.539,456.037,715.539,456.037,711.500,462.500C712.341,465.252,711.341,467.418,708.500,469.000C706.505,469.613,704.838,469.113,703.500,467.500C692.448,446.926,698.114,438.926,720.500,443.500ZZ" style="shape-rendering:geometricPrecision;text-rendering:geometricPrecision;image-rendering:optimizeQuality;fill-rule:evenodd;clip-rule:evenodd;fill:#f11f43">
        </path>
      </g>
    </g>
    <g id="shape-759f96bd-bdb6-8028-8004-7e59c96234d5" style="opacity:1">
      <g class="fills" id="fills-759f96bd-bdb6-8028-8004-7e59c96234d5">
        <path d="M726.500,453.500C721.192,451.712,716.192,449.212,711.500,446.000C717.462,446.435,722.462,448.935,726.500,453.500ZZ" style="shape-rendering:geometricPrecision;text-rendering:geometricPrecision;image-rendering:optimizeQuality;fill-rule:evenodd;clip-rule:evenodd;fill:#140d0c;fill-opacity:1">
        </path>
      </g>
    </g>
    <g id="shape-759f96bd-bdb6-8028-8004-7e59c962ab27" style="opacity:1">
      <g class="fills" id="fills-759f96bd-bdb6-8028-8004-7e59c962ab27">
        <path d="M772.500,453.500C774.943,458.500,776.610,463.834,777.500,469.500C775.057,464.500,773.390,459.166,772.500,453.500ZZ" style="shape-rendering:geometricPrecision;text-rendering:geometricPrecision;image-rendering:optimizeQuality;fill-rule:evenodd;clip-rule:evenodd;fill:#f11f43">
        </path>
      </g>
    </g>
    <g id="shape-759f96bd-bdb6-8028-8004-7e59c9635372" style="opacity:1">
      <g class="fills" id="fills-759f96bd-bdb6-8028-8004-7e59c9635372">
        <path d="M751.500,441.500C752.117,441.611,752.617,441.944,753.000,442.500C753.829,447.864,753.663,453.198,752.500,458.500C750.712,459.283,749.712,460.616,749.500,462.500C748.427,461.749,748.260,460.749,749.000,459.500C750.385,458.450,751.385,457.116,752.000,455.500C752.648,450.796,752.481,446.129,751.500,441.500ZZ" style="shape-rendering:geometricPrecision;text-rendering:geometricPrecision;image-rendering:optimizeQuality;fill-rule:evenodd;clip-rule:evenodd;fill:#f11f43">
        </path>
      </g>
    </g>
    <g id="shape-759f96bd-bdb6-8028-8004-7e59c96502f4" style="opacity:1">
      <g class="fills" id="fills-759f96bd-bdb6-8028-8004-7e59c96502f4">
        <path d="M745.500,530.500C741.385,531.510,737.385,532.510,733.500,533.500C727.019,536.680,720.353,537.180,713.500,535.000C707.935,529.087,702.101,523.254,696.000,517.500C693.755,514.110,692.755,510.443,693.000,506.500C695.589,509.210,698.423,511.710,701.500,514.000C704.073,514.428,706.406,514.094,708.500,513.000C709.167,513.667,709.833,514.333,710.500,515.000C708.833,515.333,707.167,515.667,705.500,516.000C706.931,516.465,708.097,517.299,709.000,518.500C709.806,521.446,711.139,524.112,713.000,526.500C719.006,532.330,724.006,531.663,728.000,524.500C727.703,518.957,729.203,514.124,732.500,510.000C739.267,509.564,741.767,506.064,740.000,499.500C739.329,498.748,738.496,498.414,737.500,498.500C735.615,500.312,733.281,501.478,730.500,502.000C727.689,502.629,724.856,503.129,722.000,503.500C719.657,503.318,717.824,502.318,716.500,500.500C710.148,503.924,703.481,504.424,696.500,502.000C688.876,495.035,688.543,487.701,695.500,480.000C704.848,477.167,711.848,480.167,716.500,489.000C717.600,489.432,718.267,488.932,718.500,487.500C719.705,483.885,720.705,480.218,721.500,476.500C721.349,470.804,718.682,469.137,713.500,471.500C711.823,473.540,710.156,475.540,708.500,477.500C707.438,476.575,707.438,475.575,708.500,474.500C709.976,472.231,711.476,469.898,713.000,467.500C716.310,463.164,718.977,463.497,721.000,468.500C721.333,469.833,721.667,471.167,722.000,472.500C723.351,470.406,723.851,468.073,723.500,465.500C727.907,465.711,731.907,467.044,735.500,469.500C733.861,470.916,733.028,472.583,733.000,474.500C736.382,472.685,739.882,472.351,743.500,473.500C745.333,477.167,747.167,480.833,749.000,484.500C751.967,487.401,755.467,489.401,759.500,490.500C760.341,493.251,759.341,495.418,756.500,497.000C753.133,497.800,749.966,498.966,747.000,500.500C746.747,503.882,745.914,507.049,744.500,510.000C744.615,511.895,745.282,513.562,746.500,515.000C751.949,515.272,755.949,512.939,758.500,508.000C769.523,501.759,775.023,504.926,775.000,517.500C770.097,527.531,762.263,530.865,751.500,527.500C749.164,528.001,747.164,529.001,745.500,530.500ZZ" style="shape-rendering:geometricPrecision;text-rendering:geometricPrecision;image-rendering:optimizeQuality;fill-rule:evenodd;clip-rule:evenodd;fill:#f4ceb1">
        </path>
      </g>
    </g>
    <g id="shape-759f96bd-bdb6-8028-8004-7e59c965ad48" style="opacity:1">
      <g class="fills" id="fills-759f96bd-bdb6-8028-8004-7e59c965ad48">
        <path d="M703.500,473.500C704.500,473.500,705.500,473.500,706.500,473.500C706.539,474.756,706.039,475.756,705.000,476.500C702.842,475.950,702.342,474.950,703.500,473.500ZZ" style="shape-rendering:geometricPrecision;text-rendering:geometricPrecision;image-rendering:optimizeQuality;fill-rule:evenodd;clip-rule:evenodd;fill:#ccd5cf">
        </path>
      </g>
    </g>
    <g id="shape-759f96bd-bdb6-8028-8004-7e59c9661d76" style="opacity:1">
      <g class="fills" id="fills-759f96bd-bdb6-8028-8004-7e59c9661d76">
        <path d="M717.500,474.500C719.686,474.511,720.519,475.511,720.000,477.500C719.283,476.549,718.449,476.383,717.500,477.000C716.212,478.409,715.046,479.909,714.000,481.500C713.722,480.584,713.222,479.918,712.500,479.500C713.189,476.811,714.856,475.144,717.500,474.500ZZ" style="shape-rendering:geometricPrecision;text-rendering:geometricPrecision;image-rendering:optimizeQuality;fill-rule:evenodd;clip-rule:evenodd;fill:#3c7f72">
        </path>
      </g>
    </g>
    <g id="shape-759f96bd-bdb6-8028-8004-7e59c966aebb" style="opacity:1">
      <g class="fills" id="fills-759f96bd-bdb6-8028-8004-7e59c966aebb">
        <path d="M717.500,474.500C714.856,475.144,713.189,476.811,712.500,479.500C711.624,479.631,710.957,479.298,710.500,478.500C711.770,475.261,713.937,472.927,717.000,471.500C720.037,472.320,720.204,473.320,717.500,474.500ZZ" style="shape-rendering:geometricPrecision;text-rendering:geometricPrecision;image-rendering:optimizeQuality;fill-rule:evenodd;clip-rule:evenodd;fill:#e6ecf1">
        </path>
      </g>
    </g>
    <g id="shape-759f96bd-bdb6-8028-8004-7e59c96716de" style="opacity:1">
      <g class="fills" id="fills-759f96bd-bdb6-8028-8004-7e59c96716de">
        <path d="M717.500,479.500C718.776,480.386,718.776,481.386,717.500,482.500C716.438,481.575,716.438,480.575,717.500,479.500ZZ" style="shape-rendering:geometricPrecision;text-rendering:geometricPrecision;image-rendering:optimizeQuality;fill-rule:evenodd;clip-rule:evenodd;fill:#e4eceb">
        </path>
      </g>
    </g>
    <g id="shape-759f96bd-bdb6-8028-8004-7e59c967872a" style="opacity:1">
      <g class="fills" id="fills-759f96bd-bdb6-8028-8004-7e59c967872a">
        <path d="M758.500,478.500C760.561,480.327,761.894,482.660,762.500,485.500C763.387,490.815,764.054,496.148,764.500,501.500C767.698,500.964,770.365,501.631,772.500,503.500C769.545,502.841,766.545,502.508,763.500,502.500C762.978,494.173,761.312,486.173,758.500,478.500ZZ" style="shape-rendering:geometricPrecision;text-rendering:geometricPrecision;image-rendering:optimizeQuality;fill-rule:evenodd;clip-rule:evenodd;fill:#f11f43">
        </path>
      </g>
    </g>
    <g id="shape-759f96bd-bdb6-8028-8004-7e59c967c108" style="opacity:1">
      <g class="fills" id="fills-759f96bd-bdb6-8028-8004-7e59c967c108">
        <path d="M777.500,469.500C778.328,475.987,778.828,482.654,779.000,489.500C780.650,486.894,782.150,486.894,783.500,489.500C781.500,490.167,779.500,490.833,777.500,491.500C777.500,484.167,777.500,476.833,777.500,469.500ZZ" style="shape-rendering:geometricPrecision;text-rendering:geometricPrecision;image-rendering:optimizeQuality;fill-rule:evenodd;clip-rule:evenodd;fill:#f11f43">
        </path>
      </g>
    </g>
    <g id="shape-759f96bd-bdb6-8028-8004-7e59c96874e6" style="opacity:1">
      <g class="fills" id="fills-759f96bd-bdb6-8028-8004-7e59c96874e6">
        <path d="M737.500,498.500C730.957,499.912,727.290,497.412,726.500,491.000C726.865,486.697,728.365,482.863,731.000,479.500C741.772,473.916,746.105,477.250,744.000,489.500C742.325,492.985,740.158,495.985,737.500,498.500ZZ" style="shape-rendering:geometricPrecision;text-rendering:geometricPrecision;image-rendering:optimizeQuality;fill-rule:evenodd;clip-rule:evenodd;fill:#121011">
        </path>
      </g>
    </g>
    <g id="shape-759f96bd-bdb6-8028-8004-7e59c968f63c" style="opacity:1">
      <g class="fills" id="fills-759f96bd-bdb6-8028-8004-7e59c968f63c">
        <path d="M741.500,479.500C742.289,479.783,742.956,480.283,743.500,481.000C743.201,482.320,743.034,483.820,743.000,485.500C740.368,482.808,738.034,483.141,736.000,486.500C735.071,489.775,735.571,492.775,737.500,495.500C736.643,496.425,735.643,497.092,734.500,497.500C730.215,491.627,730.882,486.127,736.500,481.000C738.025,479.991,739.692,479.491,741.500,479.500ZZ" style="shape-rendering:geometricPrecision;text-rendering:geometricPrecision;image-rendering:optimizeQuality;fill-rule:evenodd;clip-rule:evenodd;fill:#3c7f72">
        </path>
      </g>
    </g>
    <g id="shape-759f96bd-bdb6-8028-8004-7e59c9696f5e" style="opacity:1">
      <g class="fills" id="fills-759f96bd-bdb6-8028-8004-7e59c9696f5e">
        <path d="M741.500,479.500C739.692,479.491,738.025,479.991,736.500,481.000C730.882,486.127,730.215,491.627,734.500,497.500C732.097,497.607,730.264,496.607,729.000,494.500C727.166,487.345,729.333,481.845,735.500,478.000C737.989,477.059,739.989,477.559,741.500,479.500ZZ" style="shape-rendering:geometricPrecision;text-rendering:geometricPrecision;image-rendering:optimizeQuality;fill-rule:evenodd;clip-rule:evenodd;fill:#ececf0">
        </path>
      </g>
    </g>
    <g id="shape-759f96bd-bdb6-8028-8004-7e59c969a799" style="opacity:1">
      <g class="fills" id="fills-759f96bd-bdb6-8028-8004-7e59c969a799">
        <path d="M738.500,486.500C742.157,486.974,742.324,488.307,739.000,490.500C738.510,489.207,738.343,487.873,738.500,486.500ZZ" style="shape-rendering:geometricPrecision;text-rendering:geometricPrecision;image-rendering:optimizeQuality;fill-rule:evenodd;clip-rule:evenodd;fill:#d4d0d7">
        </path>
      </g>
    </g>
    <g id="shape-759f96bd-bdb6-8028-8004-7e59c96bfb7b" style="opacity:1">
      <g class="fills" id="fills-759f96bd-bdb6-8028-8004-7e59c96bfb7b">
        <path d="M751.500,441.500C752.481,446.129,752.648,450.796,752.000,455.500C751.385,457.116,750.385,458.450,749.000,459.500C748.260,460.749,748.427,461.749,749.500,462.500C751.274,465.449,753.274,468.283,755.500,471.000C755.978,473.780,756.978,476.280,758.500,478.500C761.312,486.173,762.978,494.173,763.500,502.500C766.545,502.508,769.545,502.841,772.500,503.500C776.151,505.470,778.151,508.470,778.500,512.500C779.552,512.649,780.552,512.483,781.500,512.000C783.370,509.960,785.370,508.127,787.500,506.500C787.833,507.167,788.167,507.833,788.500,508.500C786.275,511.889,783.275,514.389,779.500,516.000C778.748,516.671,778.414,517.504,778.500,518.500C777.357,518.908,776.357,519.575,775.500,520.500C774.450,521.429,774.450,522.095,775.500,522.500C774.890,523.391,774.557,524.391,774.500,525.500C767.091,531.209,758.757,533.043,749.500,531.000C748.219,532.409,747.219,533.909,746.500,535.500C746.784,533.585,746.451,531.919,745.500,530.500C747.164,529.001,749.164,528.001,751.500,527.500C762.263,530.865,770.097,527.531,775.000,517.500C775.023,504.926,769.523,501.759,758.500,508.000C755.949,512.939,751.949,515.272,746.500,515.000C745.282,513.562,744.615,511.895,744.500,510.000C745.914,507.049,746.747,503.882,747.000,500.500C749.966,498.966,753.133,497.800,756.500,497.000C759.341,495.418,760.341,493.251,759.500,490.500C755.467,489.401,751.967,487.401,749.000,484.500C747.167,480.833,745.333,477.167,743.500,473.500C739.882,472.351,736.382,472.685,733.000,474.500C733.028,472.583,733.861,470.916,735.500,469.500C731.907,467.044,727.907,465.711,723.500,465.500C723.851,468.073,723.351,470.406,722.000,472.500C721.667,471.167,721.333,469.833,721.000,468.500C718.977,463.497,716.310,463.164,713.000,467.500C711.476,469.898,709.976,472.231,708.500,474.500C708.158,473.662,707.492,473.328,706.500,473.500C705.500,473.500,704.500,473.500,703.500,473.500C704.275,471.612,704.275,469.612,703.500,467.500C704.838,469.113,706.505,469.613,708.500,469.000C711.341,467.418,712.341,465.252,711.500,462.500C715.539,456.037,719.539,456.037,723.500,462.500C742.145,470.338,743.312,468.005,727.000,455.500C726.536,454.906,726.369,454.239,726.500,453.500C732.055,456.383,736.722,460.383,740.500,465.500C742.698,466.165,745.031,466.832,747.500,467.500C749.086,469.173,749.753,471.173,749.500,473.500C748.500,473.500,747.500,473.500,746.500,473.500C746.263,474.791,746.596,475.791,747.500,476.500C748.509,479.686,750.176,482.519,752.500,485.000C754.134,485.493,755.801,485.660,757.500,485.500C756.731,479.312,754.398,473.979,750.500,469.500C749.920,467.251,748.587,465.585,746.500,464.500C738.946,455.928,730.279,448.928,720.500,443.500C720.989,442.005,721.655,440.671,722.500,439.500C722.461,441.359,723.294,442.692,725.000,443.500C726.448,440.545,728.615,438.545,731.500,437.500C732.347,436.034,733.680,435.200,735.500,435.000C742.092,434.131,747.426,436.298,751.500,441.500ZZ" style="shape-rendering:geometricPrecision;text-rendering:geometricPrecision;image-rendering:optimizeQuality;fill-rule:evenodd;clip-rule:evenodd;fill:#1c0c08">
        </path>
      </g>
    </g>
    <g id="shape-759f96bd-bdb6-8028-8004-7e59c96c3f15" style="opacity:1">
      <g class="fills" id="fills-759f96bd-bdb6-8028-8004-7e59c96c3f15">
        <path d="M750.500,469.500C754.398,473.979,756.731,479.312,757.500,485.500C755.801,485.660,754.134,485.493,752.500,485.000C750.176,482.519,748.509,479.686,747.500,476.500C747.775,474.158,748.608,474.158,750.000,476.500C750.497,474.190,750.663,471.857,750.500,469.500ZZ" style="shape-rendering:geometricPrecision;text-rendering:geometricPrecision;image-rendering:optimizeQuality;fill-rule:evenodd;clip-rule:evenodd;fill:#f11f43">
        </path>
      </g>
    </g>
    <g id="shape-759f96bd-bdb6-8028-8004-7e59c96ce778" style="opacity:1">
      <g class="fills" id="fills-759f96bd-bdb6-8028-8004-7e59c96ce778">
        <path d="M746.500,464.500C748.587,465.585,749.920,467.251,750.500,469.500C750.663,471.857,750.497,474.190,750.000,476.500C748.608,474.158,747.775,474.158,747.500,476.500C746.596,475.791,746.263,474.791,746.500,473.500C747.500,473.500,748.500,473.500,749.500,473.500C749.753,471.173,749.086,469.173,747.500,467.500C745.031,466.832,742.698,466.165,740.500,465.500C742.735,465.795,744.735,465.461,746.500,464.500ZZ" style="shape-rendering:geometricPrecision;text-rendering:geometricPrecision;image-rendering:optimizeQuality;fill-rule:evenodd;clip-rule:evenodd;fill:#f11f43">
        </path>
      </g>
    </g>
    <g id="shape-759f96bd-bdb6-8028-8004-7e59c96d2af0" style="opacity:1">
      <g class="fills" id="fills-759f96bd-bdb6-8028-8004-7e59c96d2af0">
        <path d="M742.500,455.500C738.854,453.183,735.520,450.516,732.500,447.500C734.459,442.487,736.126,442.487,737.500,447.500C738.833,446.833,740.167,446.167,741.500,445.500C742.487,448.768,742.820,452.102,742.500,455.500ZZ" style="shape-rendering:geometricPrecision;text-rendering:geometricPrecision;image-rendering:optimizeQuality;fill-rule:evenodd;clip-rule:evenodd;fill:#f4ebe8">
        </path>
      </g>
    </g>
    <g id="shape-759f96bd-bdb6-8028-8004-7e59c96dc05d" style="opacity:1">
      <g class="fills" id="fills-759f96bd-bdb6-8028-8004-7e59c96dc05d">
        <path d="M744.500,457.500C743.500,457.167,742.833,456.500,742.500,455.500C742.820,452.102,742.487,448.768,741.500,445.500C740.167,446.167,738.833,446.833,737.500,447.500C736.126,442.487,734.459,442.487,732.500,447.500C730.973,447.573,729.973,446.906,729.500,445.500C732.021,443.299,734.521,440.966,737.000,438.500C737.980,440.059,738.813,441.726,739.500,443.500C741.179,442.218,743.013,441.218,745.000,440.500C745.513,445.897,746.347,451.230,747.500,456.500C746.209,456.263,745.209,456.596,744.500,457.500ZZ" style="shape-rendering:geometricPrecision;text-rendering:geometricPrecision;image-rendering:optimizeQuality;fill-rule:evenodd;clip-rule:evenodd;fill:#f11f43">
        </path>
      </g>
    </g>
    <g id="shape-759f96bd-bdb6-8028-8004-7e59c96e4208" style="opacity:1">
      <g class="fills" id="fills-759f96bd-bdb6-8028-8004-7e59c96e4208">
        <path d="M744.500,457.500C745.209,456.596,746.209,456.263,747.500,456.500C746.347,451.230,745.513,445.897,745.000,440.500C743.013,441.218,741.179,442.218,739.500,443.500C738.813,441.726,737.980,440.059,737.000,438.500C734.521,440.966,732.021,443.299,729.500,445.500C728.244,445.539,727.244,445.039,726.500,444.000C727.999,441.672,729.666,439.505,731.500,437.500C744.766,434.706,751.266,440.039,751.000,453.500C750.654,455.848,749.487,457.681,747.500,459.000C746.002,459.585,745.002,459.085,744.500,457.500ZZ" style="shape-rendering:geometricPrecision;text-rendering:geometricPrecision;image-rendering:optimizeQuality;fill-rule:evenodd;clip-rule:evenodd;fill:#f3ece9">
        </path>
      </g>
    </g>
    <g id="shape-759f96bd-bdb6-8028-8004-7e59c96edce4" style="opacity:1">
      <g class="fills" id="fills-759f96bd-bdb6-8028-8004-7e59c96edce4">
        <path d="M759.500,496.500C761.326,498.455,761.826,500.788,761.000,503.500C758.167,506.333,755.333,509.167,752.500,512.000C750.866,512.494,749.199,512.660,747.500,512.500C747.564,508.780,748.064,505.113,749.000,501.500C752.784,500.301,756.284,498.635,759.500,496.500ZZ" style="shape-rendering:geometricPrecision;text-rendering:geometricPrecision;image-rendering:optimizeQuality;fill-rule:evenodd;clip-rule:evenodd;fill:#140d0c;fill-opacity:1">
        </path>
      </g>
    </g>
    <g id="shape-759f96bd-bdb6-8028-8004-7e59c96f2b95" style="opacity:1">
      <g class="fills" id="fills-759f96bd-bdb6-8028-8004-7e59c96f2b95">
        <path d="M763.500,510.500C771.320,511.484,771.320,512.317,763.500,513.000C763.167,513.333,762.833,513.667,762.500,514.000C763.672,514.419,764.672,515.085,765.500,516.000C760.976,515.369,758.143,517.203,757.000,521.500C756.814,516.504,758.981,512.837,763.500,510.500ZZ" style="shape-rendering:geometricPrecision;text-rendering:geometricPrecision;image-rendering:optimizeQuality;fill-rule:evenodd;clip-rule:evenodd;fill:#211712">
        </path>
      </g>
    </g>
    <g id="shape-759f96bd-bdb6-8028-8004-7e59c96f9bb9" style="opacity:1">
      <g class="fills" id="fills-759f96bd-bdb6-8028-8004-7e59c96f9bb9">
        <path d="M724.500,517.500C721.367,518.265,718.200,518.932,715.000,519.500C713.272,519.546,711.772,519.046,710.500,518.000C716.069,516.135,721.736,515.135,727.500,515.000C726.429,515.852,725.429,516.685,724.500,517.500ZZ" style="shape-rendering:geometricPrecision;text-rendering:geometricPrecision;image-rendering:optimizeQuality;fill-rule:evenodd;clip-rule:evenodd;fill:#d6d6d4">
        </path>
      </g>
    </g>
    <g id="shape-759f96bd-bdb6-8028-8004-7e59c9701a15" style="opacity:1">
      <g class="fills" id="fills-759f96bd-bdb6-8028-8004-7e59c9701a15">
        <path d="M775.500,522.500C778.833,522.500,782.167,522.500,785.500,522.500C785.737,523.791,785.404,524.791,784.500,525.500C781.348,522.959,778.015,522.959,774.500,525.500C774.557,524.391,774.890,523.391,775.500,522.500ZZ" style="shape-rendering:geometricPrecision;text-rendering:geometricPrecision;image-rendering:optimizeQuality;fill-rule:evenodd;clip-rule:evenodd;fill:#f11f43">
        </path>
      </g>
    </g>
    <g id="shape-759f96bd-bdb6-8028-8004-7e59c9717313" style="opacity:1">
      <g class="fills" id="fills-759f96bd-bdb6-8028-8004-7e59c9717313">
        <path d="M685.500,495.500C686.500,495.500,687.500,495.500,688.500,495.500C687.644,509.437,692.811,520.437,704.000,528.500C705.224,532.210,704.058,534.877,700.500,536.500C692.346,525.542,685.179,513.875,679.000,501.500C678.510,500.207,678.343,498.873,678.500,497.500C681.228,497.829,683.562,497.163,685.500,495.500ZZ" style="shape-rendering:geometricPrecision;text-rendering:geometricPrecision;image-rendering:optimizeQuality;fill-rule:evenodd;clip-rule:evenodd;fill:#f11f43">
        </path>
      </g>
    </g>
    <g id="shape-759f96bd-bdb6-8028-8004-7e6295fac27d">
      <g class="fills" id="fills-759f96bd-bdb6-8028-8004-7e6295fac27d">
        <path d="M725.438,517.500C725.458,517.500,725.479,517.500,725.438,517.500ZC725.500,517.500,725.500,517.500,725.438,517.500ZC725.502,517.525,725.505,517.550,725.507,517.575C728.436,523.005,726.769,527.005,720.500,529.500C714.299,527.043,713.966,523.876,719.500,520.000C721.103,519.411,722.717,518.924,724.343,518.537C724.369,518.531,724.395,518.525,724.421,518.518C724.448,518.512,724.474,518.506,724.500,518.500C724.500,518.167,724.500,517.833,724.500,517.500M723.519,526.468C723.513,526.478,723.506,526.489,723.519,526.468ZC723.479,526.513,723.458,526.526,723.438,526.538M717.516,525.031C717.510,525.021,717.505,525.010,717.516,525.031ZC717.513,524.976,717.526,524.952,717.539,524.929M724.361,518.558C724.376,518.552,724.392,518.545,724.361,518.558ZC724.438,518.526,724.469,518.513,724.500,518.500" style="fill:#f11f43">
        </path>
      </g>
    </g>
    <g id="shape-759f96bd-bdb6-8028-8004-7e59c972f845" style="opacity:1">
      <g class="fills" id="fills-759f96bd-bdb6-8028-8004-7e59c972f845">
        <path d="M784.500,525.500C782.007,531.571,781.007,537.905,781.500,544.500C774.027,543.808,767.027,545.141,760.500,548.500C759.614,549.325,759.281,550.325,759.500,551.500C760.791,551.263,761.791,551.596,762.500,552.500C762.592,556.071,760.926,557.238,757.500,556.000C754.000,553.167,750.500,550.333,747.000,547.500C746.501,543.514,746.334,539.514,746.500,535.500C747.219,533.909,748.219,532.409,749.500,531.000C758.757,533.043,767.091,531.209,774.500,525.500C778.015,522.959,781.348,522.959,784.500,525.500ZL784.500,525.500Z" style="shape-rendering:geometricPrecision;text-rendering:geometricPrecision;image-rendering:optimizeQuality;fill-rule:evenodd;clip-rule:evenodd;fill:#f11f43">
        </path>
      </g>
    </g>
    <g id="shape-759f96bd-bdb6-8028-8004-7e59c973779b" style="opacity:1">
      <g class="fills" id="fills-759f96bd-bdb6-8028-8004-7e59c973779b">
        <path d="M729.500,545.500C730.312,543.055,731.312,540.722,732.500,538.500C734.544,537.969,736.211,536.802,737.500,535.000C740.117,534.178,742.784,533.678,745.500,533.500C744.829,541.478,744.662,549.478,745.000,557.500C743.419,562.571,739.919,565.238,734.500,565.500C729.336,563.489,726.669,559.655,726.500,554.000C727.232,551.091,728.232,548.257,729.500,545.500ZL729.500,545.500Z" style="shape-rendering:geometricPrecision;text-rendering:geometricPrecision;image-rendering:optimizeQuality;fill-rule:evenodd;clip-rule:evenodd;fill:#3c7f72">
        </path>
      </g>
    </g>
    <g id="shape-759f96bd-bdb6-8028-8004-7e59c973df9d" style="opacity:1">
      <g class="fills" id="fills-759f96bd-bdb6-8028-8004-7e59c973df9d">
        <path d="M704.500,547.500C703.833,547.500,703.167,547.500,702.500,547.500C700.674,545.545,700.174,543.212,701.000,540.500C702.625,537.872,704.625,535.539,707.000,533.500C709.048,538.754,708.215,543.421,704.500,547.500ZZ" style="shape-rendering:geometricPrecision;text-rendering:geometricPrecision;image-rendering:optimizeQuality;fill-rule:evenodd;clip-rule:evenodd;fill:#3c7f72">
        </path>
      </g>
    </g>
    <g id="shape-759f96bd-bdb6-8028-8004-7e59c9743929" style="opacity:1">
      <g class="fills" id="fills-759f96bd-bdb6-8028-8004-7e59c9743929">
        <path d="M711.500,537.500C717.496,540.166,723.496,540.166,729.500,537.500C730.666,539.365,730.333,541.032,728.500,542.500C722.202,543.496,715.868,543.830,709.500,543.500C709.604,541.297,710.270,539.297,711.500,537.500ZZ" style="shape-rendering:geometricPrecision;text-rendering:geometricPrecision;image-rendering:optimizeQuality;fill-rule:evenodd;clip-rule:evenodd;fill:#f11f43">
        </path>
      </g>
    </g>
    <g id="shape-759f96bd-bdb6-8028-8004-7e59c97487e3" style="opacity:1">
      <g class="fills" id="fills-759f96bd-bdb6-8028-8004-7e59c97487e3">
        <path d="M700.500,554.500C699.002,557.331,696.668,558.998,693.500,559.500C692.914,557.757,692.581,555.924,692.500,554.000C691.898,547.931,694.398,545.431,700.000,546.500C700.497,549.146,700.664,551.813,700.500,554.500ZZ" style="shape-rendering:geometricPrecision;text-rendering:geometricPrecision;image-rendering:optimizeQuality;fill-rule:evenodd;clip-rule:evenodd;fill:#fd8f35">
        </path>
      </g>
    </g>
    <g id="shape-759f96bd-bdb6-8028-8004-7e59c975c708" style="opacity:1">
      <g class="fills" id="fills-759f96bd-bdb6-8028-8004-7e59c975c708">
        <path d="M708.500,546.500C714.509,546.334,720.509,546.501,726.500,547.000C723.284,553.522,723.951,559.522,728.500,565.000C722.629,563.739,716.629,563.406,710.500,564.000C705.305,565.858,701.305,569.192,698.500,574.000C697.552,574.483,696.552,574.649,695.500,574.500C694.597,571.609,694.264,568.609,694.500,565.500C697.615,565.606,700.281,564.606,702.500,562.500C703.750,562.423,704.583,561.756,705.000,560.500C705.495,558.527,705.662,556.527,705.500,554.500C705.722,551.496,706.722,548.829,708.500,546.500ZZ" style="shape-rendering:geometricPrecision;text-rendering:geometricPrecision;image-rendering:optimizeQuality;fill-rule:evenodd;clip-rule:evenodd;fill:#3c7f72">
        </path>
      </g>
    </g>
    <g id="shape-759f96bd-bdb6-8028-8004-7e59c9769f4c" style="opacity:1">
      <g class="fills" id="fills-759f96bd-bdb6-8028-8004-7e59c9769f4c">
        <path d="M702.500,547.500C703.167,547.500,703.833,547.500,704.500,547.500C704.198,550.059,704.532,552.393,705.500,554.500C705.662,556.527,705.495,558.527,705.000,560.500C704.583,561.756,703.750,562.423,702.500,562.500C704.299,560.324,704.632,557.990,703.500,555.500C702.102,557.797,700.436,559.963,698.500,562.000C696.833,562.667,695.167,562.667,693.500,562.000C692.226,561.023,692.226,560.189,693.500,559.500C696.668,558.998,699.002,557.331,700.500,554.500C701.407,552.343,702.073,550.010,702.500,547.500ZZ" style="shape-rendering:geometricPrecision;text-rendering:geometricPrecision;image-rendering:optimizeQuality;fill-rule:evenodd;clip-rule:evenodd;fill:#3c7f72">
        </path>
      </g>
    </g>
    <g id="shape-759f96bd-bdb6-8028-8004-7e59c9778e47" style="opacity:1">
      <g class="fills" id="fills-759f96bd-bdb6-8028-8004-7e59c9778e47">
        <path d="M766.500,558.500C765.167,556.500,763.833,554.500,762.500,552.500C761.791,551.596,760.791,551.263,759.500,551.500C759.281,550.325,759.614,549.325,760.500,548.500C767.027,545.141,774.027,543.808,781.500,544.500C781.007,537.905,782.007,531.571,784.500,525.500C785.404,524.791,785.737,523.791,785.500,522.500C782.167,522.500,778.833,522.500,775.500,522.500C774.450,522.095,774.450,521.429,775.500,520.500C776.357,519.575,777.357,518.908,778.500,518.500C780.304,519.162,782.304,519.495,784.500,519.500C794.489,518.057,804.489,516.723,814.500,515.500C826.515,514.416,833.681,519.749,836.000,531.500C836.332,537.518,835.999,543.518,835.000,549.500C832.055,552.797,829.721,556.463,828.000,560.500C825.806,563.181,822.973,564.681,819.500,565.000C814.136,564.822,808.802,564.989,803.500,565.500C795.746,564.416,790.746,560.083,788.500,552.500C786.076,551.577,784.076,550.077,782.500,548.000C777.446,547.219,772.446,547.386,767.500,548.500C766.513,551.768,766.180,555.102,766.500,558.500ZL766.500,558.500Z" style="shape-rendering:geometricPrecision;text-rendering:geometricPrecision;image-rendering:optimizeQuality;fill-rule:evenodd;clip-rule:evenodd;fill:#141211">
        </path>
      </g>
    </g>
    <g id="shape-759f96bd-bdb6-8028-8004-7e59c9788081" style="opacity:1">
      <g class="fills" id="fills-759f96bd-bdb6-8028-8004-7e59c9788081">
        <path d="M809.500,517.500C825.806,515.489,833.806,522.489,833.500,538.500C832.155,537.653,831.155,536.487,830.500,535.000C829.833,534.333,829.167,534.333,828.500,535.000C833.277,540.336,833.610,545.836,829.500,551.500C828.333,549.833,827.167,548.167,826.000,546.500C828.401,558.269,823.568,563.602,811.500,562.500C811.343,561.127,811.510,559.793,812.000,558.500C813.692,558.324,815.192,557.824,816.500,557.000C813.538,554.292,810.204,553.125,806.500,553.500C810.017,555.384,810.351,557.717,807.500,560.500C803.152,563.252,799.152,562.752,795.500,559.000C791.239,553.252,789.406,546.752,790.000,539.500C787.415,551.314,785.581,550.981,784.500,538.500C784.441,530.786,787.441,524.619,793.500,520.000C798.115,518.686,799.115,519.686,796.500,523.000C796.833,523.167,797.167,523.333,797.500,523.500C801.324,520.921,805.324,518.921,809.500,517.500ZZ" style="shape-rendering:geometricPrecision;text-rendering:geometricPrecision;image-rendering:optimizeQuality;fill-rule:evenodd;clip-rule:evenodd;fill:#f6f6f6">
        </path>
      </g>
    </g>
    <g id="shape-759f96bd-bdb6-8028-8004-7e59c978e00b" style="opacity:1">
      <g class="fills" id="fills-759f96bd-bdb6-8028-8004-7e59c978e00b">
        <path d="M805.500,534.500C808.897,534.737,810.730,536.404,811.000,539.500C809.951,540.517,808.784,540.684,807.500,540.000C806.536,538.275,805.869,536.441,805.500,534.500ZZ" style="shape-rendering:geometricPrecision;text-rendering:geometricPrecision;image-rendering:optimizeQuality;fill-rule:evenodd;clip-rule:evenodd;fill:#0c0c0c">
        </path>
      </g>
    </g>
    <g id="shape-759f96bd-bdb6-8028-8004-7e59c9796cc8" style="opacity:1">
      <g class="fills" id="fills-759f96bd-bdb6-8028-8004-7e59c9796cc8">
        <path d="M807.500,529.500C809.948,528.527,812.615,528.194,815.500,528.500C815.500,529.500,815.500,530.500,815.500,531.500C812.579,531.717,809.913,531.051,807.500,529.500ZZ" style="shape-rendering:geometricPrecision;text-rendering:geometricPrecision;image-rendering:optimizeQuality;fill-rule:evenodd;clip-rule:evenodd;fill:#0d0d0d">
        </path>
      </g>
    </g>
    <g id="shape-759f96bd-bdb6-8028-8004-7e59c97983b4" style="opacity:1">
      <g class="fills" id="fills-759f96bd-bdb6-8028-8004-7e59c97983b4">
        <path d="M811.500,520.500C812.833,520.500,814.167,520.500,815.500,520.500C815.500,521.500,815.500,522.500,815.500,523.500C813.473,523.662,811.473,523.495,809.500,523.000C810.381,522.292,811.047,521.458,811.500,520.500ZZ" style="shape-rendering:geometricPrecision;text-rendering:geometricPrecision;image-rendering:optimizeQuality;fill-rule:evenodd;clip-rule:evenodd;fill:#111111">
        </path>
      </g>
    </g>
    <g id="shape-759f96bd-bdb6-8028-8004-7e59c97aa562" style="opacity:1">
      <g class="fills" id="fills-759f96bd-bdb6-8028-8004-7e59c97aa562">
        <path d="M724.500,613.500C724.454,617.235,722.788,618.568,719.500,617.500C717.468,614.632,715.635,611.632,714.000,608.500C712.252,602.686,710.252,597.020,708.000,591.500C706.052,587.387,703.219,584.054,699.500,581.500C698.859,580.518,698.192,579.518,697.500,578.500C699.423,577.692,701.423,577.192,703.500,577.000C702.483,575.951,702.316,574.784,703.000,573.500C707.916,566.865,714.416,564.698,722.500,567.000C727.112,568.639,731.446,570.806,735.500,573.500C736.583,572.635,736.749,571.635,736.000,570.500C734.745,569.789,733.579,568.956,732.500,568.000C743.497,568.454,748.497,563.287,747.500,552.500C751.249,554.233,754.582,556.733,757.500,560.000C759.657,560.078,761.657,560.245,763.500,560.500C772.620,589.336,762.286,603.670,732.500,603.500C732.357,601.738,732.691,600.071,733.500,598.500C732.311,597.571,730.978,597.238,729.500,597.500C728.684,601.147,727.184,604.480,725.000,607.500C724.505,609.473,724.338,611.473,724.500,613.500ZZ" style="shape-rendering:geometricPrecision;text-rendering:geometricPrecision;image-rendering:optimizeQuality;fill-rule:evenodd;clip-rule:evenodd;fill:#3c7f72">
        </path>
      </g>
    </g>
    <g id="shape-759f96bd-bdb6-8028-8004-7e622a4fbdad">
      <g class="fills" id="fills-759f96bd-bdb6-8028-8004-7e622a4fbdad">
        <path d="M665.500,587.500C671.031,579.483,678.697,576.650,688.500,579.000C694.750,581.233,699.916,585.066,704.000,590.500C708.288,600.705,712.954,610.705,718.000,620.500C719.662,626.173,717.829,630.173,712.500,632.500C711.478,629.559,710.645,626.559,710.000,623.500C708.733,620.625,707.236,617.963,705.510,615.515C705.507,615.510,705.503,615.505,705.500,615.500C701.304,610.312,696.971,605.145,692.500,600.000C685.602,593.878,677.602,591.878,668.500,594.000C666.131,594.536,664.131,595.703,662.500,597.500C662.167,597.167,661.833,596.833,661.500,596.500C662.189,594.556,662.689,592.556,663.000,590.500C663.371,589.080,664.184,588.089,665.500,587.500ZC665.460,587.518,665.480,587.509,665.500,587.500ZC665.503,587.526,665.507,587.551,665.500,587.500ZM664.510,591.984C664.507,591.989,664.503,591.995,664.510,591.984ZC664.520,592.003,664.539,592.005,664.510,591.984ZM679.470,591.506C679.480,591.504,679.490,591.502,679.470,591.506ZC679.518,591.505,679.535,591.509,679.470,591.506ZM692.451,596.475C692.468,596.483,692.484,596.492,692.451,596.475ZC692.494,596.518,692.487,596.536,692.451,596.475ZC692.272,597.112,691.948,597.591,691.511,597.990C691.507,597.994,691.504,597.997,691.500,598.000C691.548,598.036,691.597,598.072,691.645,598.107M705.496,615.490C705.497,615.494,705.499,615.497,705.496,615.490Z" style="fill:#d34a24">
        </path>
      </g>
    </g>
    <g id="shape-759f96bd-bdb6-8028-8004-7e59c97d97fc" style="opacity:1">
      <g class="fills" id="fills-759f96bd-bdb6-8028-8004-7e59c97d97fc">
        <path d="M669.500,594.500C679.951,593.642,688.451,597.309,695.000,605.500C701.958,613.079,707.124,621.746,710.500,631.500C710.196,633.441,709.363,635.107,708.000,636.500C706.122,632.306,704.788,627.973,704.000,623.500C697.718,617.096,691.551,610.596,685.500,604.000C677.144,598.856,669.311,599.356,662.000,605.500C661.365,603.365,661.699,601.365,663.000,599.500C664.965,597.450,667.132,595.783,669.500,594.500ZL669.500,594.500Z" style="shape-rendering:geometricPrecision;text-rendering:geometricPrecision;image-rendering:optimizeQuality;fill-rule:evenodd;clip-rule:evenodd;fill:#e8b074">
        </path>
      </g>
    </g>
    <g id="shape-759f96bd-bdb6-8028-8004-7e59c97f904e" style="opacity:1">
      <g class="fills" id="fills-759f96bd-bdb6-8028-8004-7e59c97f904e">
        <path d="M745.500,530.500C746.451,531.919,746.784,533.585,746.500,535.500C746.334,539.514,746.501,543.514,747.000,547.500C750.500,550.333,754.000,553.167,757.500,556.000C760.926,557.238,762.592,556.071,762.500,552.500C763.833,554.500,765.167,556.500,766.500,558.500C772.132,571.033,771.798,583.366,765.500,595.500C767.884,600.876,771.551,604.876,776.500,607.500C776.833,609.500,777.167,611.500,777.500,613.500C778.483,617.298,778.817,621.298,778.500,625.500C777.250,635.082,771.916,640.749,762.500,642.500C759.102,642.180,755.768,642.513,752.500,643.500C753.981,644.944,753.648,645.611,751.500,645.500C749.992,640.965,748.658,636.298,747.500,631.500C741.158,625.157,735.158,618.491,729.500,611.500C728.830,613.291,728.163,614.958,727.500,616.500C727.307,614.914,726.973,613.247,726.500,611.500C725.818,612.243,725.151,612.909,724.500,613.500C724.338,611.473,724.505,609.473,725.000,607.500C727.184,604.480,728.684,601.147,729.500,597.500C730.978,597.238,732.311,597.571,733.500,598.500C732.691,600.071,732.357,601.738,732.500,603.500C762.286,603.670,772.620,589.336,763.500,560.500C761.657,560.245,759.657,560.078,757.500,560.000C754.582,556.733,751.249,554.233,747.500,552.500C748.497,563.287,743.497,568.454,732.500,568.000C733.579,568.956,734.745,569.789,736.000,570.500C736.749,571.635,736.583,572.635,735.500,573.500C731.446,570.806,727.112,568.639,722.500,567.000C714.416,564.698,707.916,566.865,703.000,573.500C702.316,574.784,702.483,575.951,703.500,577.000C701.423,577.192,699.423,577.692,697.500,578.500C698.192,579.518,698.859,580.518,699.500,581.500C698.504,581.586,697.671,581.252,697.000,580.500C696.495,578.482,695.995,576.482,695.500,574.500C696.552,574.649,697.552,574.483,698.500,574.000C701.305,569.192,705.305,565.858,710.500,564.000C716.629,563.406,722.629,563.739,728.500,565.000C723.951,559.522,723.284,553.522,726.500,547.000C720.509,546.501,714.509,546.334,708.500,546.500C715.313,545.509,722.313,545.175,729.500,545.500C728.232,548.257,727.232,551.091,726.500,554.000C726.669,559.655,729.336,563.489,734.500,565.500C739.919,565.238,743.419,562.571,745.000,557.500C744.662,549.478,744.829,541.478,745.500,533.500C742.784,533.678,740.117,534.178,737.500,535.000C736.211,536.802,734.544,537.969,732.500,538.500C732.629,536.784,732.962,535.117,733.500,533.500C737.385,532.510,741.385,531.510,745.500,530.500ZZ" style="shape-rendering:geometricPrecision;text-rendering:geometricPrecision;image-rendering:optimizeQuality;fill-rule:evenodd;clip-rule:evenodd;fill:#0e0b16">
        </path>
      </g>
    </g>
    <g id="shape-759f96bd-bdb6-8028-8004-7e59c98041e9" style="opacity:1">
      <g class="fills" id="fills-759f96bd-bdb6-8028-8004-7e59c98041e9">
        <path d="M777.500,613.500C777.878,621.125,776.044,628.125,772.000,634.500C767.302,638.733,761.802,640.566,755.500,640.000C752.527,637.552,751.027,634.386,751.000,630.500C743.644,624.093,737.477,616.759,732.500,608.500C743.557,608.196,753.723,605.196,763.000,599.500C765.540,601.534,767.873,603.868,770.000,606.500C770.483,607.448,770.649,608.448,770.500,609.500C773.837,609.187,776.171,610.520,777.500,613.500ZZ" style="shape-rendering:geometricPrecision;text-rendering:geometricPrecision;image-rendering:optimizeQuality;fill-rule:evenodd;clip-rule:evenodd;fill:#3c7f72">
        </path>
      </g>
    </g>
    <g id="shape-759f96bd-bdb6-8028-8004-7e59c980f047" style="opacity:1">
      <g class="fills" id="fills-759f96bd-bdb6-8028-8004-7e59c980f047">
        <path d="M742.500,557.500C741.500,557.833,740.833,558.500,740.500,559.500C732.177,562.252,729.010,559.252,731.000,550.500C734.667,546.500,738.333,546.500,742.000,550.500C742.497,552.810,742.663,555.143,742.500,557.500ZZ" style="shape-rendering:geometricPrecision;text-rendering:geometricPrecision;image-rendering:optimizeQuality;fill-rule:evenodd;clip-rule:evenodd;fill:#fd8f35">
        </path>
      </g>
    </g>
    <g id="shape-759f96bd-bdb6-8028-8004-7e59c9819f5c" style="opacity:1">
      <g class="fills" id="fills-759f96bd-bdb6-8028-8004-7e59c9819f5c">
        <path d="M742.500,557.500C742.663,555.143,742.497,552.810,742.000,550.500C738.333,546.500,734.667,546.500,731.000,550.500C729.010,559.252,732.177,562.252,740.500,559.500C737.906,563.107,734.739,563.440,731.000,560.500C726.704,553.111,728.537,548.111,736.500,545.500C741.602,545.689,743.935,548.355,743.500,553.500C743.489,555.045,743.156,556.378,742.500,557.500ZZ" style="shape-rendering:geometricPrecision;text-rendering:geometricPrecision;image-rendering:optimizeQuality;fill-rule:evenodd;clip-rule:evenodd;fill:#171811">
        </path>
      </g>
    </g>
    <g id="shape-759f96bd-bdb6-8028-8004-7e621dcb2ff0">
      <g class="fills" id="fills-759f96bd-bdb6-8028-8004-7e621dcb2ff0">
        <path d="M676.500,623.500C669.296,621.075,664.630,616.241,662.500,609.000C663.043,606.119,664.709,604.119,667.500,603.000C673.394,601.963,679.061,602.629,684.500,605.000C690.135,611.636,696.135,617.969,702.500,624.000C694.073,624.815,685.819,624.660,677.739,623.534C677.676,623.525,677.612,623.516,677.549,623.507M677.500,623.500C677.499,623.500,677.497,623.500,677.500,623.500ZM676.531,623.500C676.521,623.500,676.510,623.500,676.531,623.500ZC676.500,623.469,676.500,623.438,676.531,623.500ZM676.500,620.512C676.500,620.508,676.500,620.504,676.500,620.512ZC676.477,620.495,676.453,620.489,676.500,620.512ZM664.512,609.536C664.508,609.524,664.504,609.512,664.512,609.536ZC664.503,609.473,664.505,609.446,664.508,609.420M669.465,606.483C669.477,606.489,669.488,606.494,669.465,606.483ZC669.517,606.473,669.535,606.447,669.553,606.420M677.464,605.468C677.476,605.478,677.488,605.489,677.464,605.468ZC677.521,605.482,677.543,605.465,677.564,605.448M681.440,605.447C681.460,605.465,681.480,605.482,681.440,605.447ZC681.487,605.514,681.474,605.527,681.440,605.447ZM678.527,606.505C678.518,606.503,678.509,606.502,678.527,606.505ZC678.496,606.531,678.491,606.561,678.527,606.505ZM676.013,606.546C676.009,606.531,676.004,606.515,676.013,606.546ZC675.971,606.509,675.943,606.518,675.915,606.527M674.469,611.971C674.479,611.981,674.490,611.990,674.469,611.971ZC674.496,612.019,674.492,612.039,674.469,611.971ZM672.550,614.965C672.533,614.977,672.517,614.988,672.550,614.965ZC672.519,615.005,672.539,615.010,672.550,614.965ZM675.950,616.468C675.967,616.478,675.983,616.489,675.950,616.468ZC676.008,616.484,676.016,616.469,675.950,616.468ZM678.487,614.504C678.491,614.502,678.496,614.501,678.487,614.504ZC678.518,614.503,678.536,614.507,678.487,614.504ZM692.445,615.503C692.463,615.502,692.482,615.501,692.445,615.503ZC692.507,615.518,692.514,615.537,692.445,615.503ZM692.511,622.473C692.507,622.482,692.504,622.491,692.511,622.473ZC692.481,622.504,692.461,622.508,692.511,622.473ZM677.592,623.506C677.581,623.505,677.570,623.505,677.592,623.506ZC677.539,623.503,677.520,623.501,677.592,623.506Z" style="fill:#fab267">
        </path>
      </g>
    </g>
    <g id="shape-759f96bd-bdb6-8028-8004-7e59c9829086" style="opacity:1">
      <g class="fills" id="fills-759f96bd-bdb6-8028-8004-7e59c9829086">
        <path d="M680.500,629.500C687.655,628.345,694.988,628.178,702.500,629.000C705.194,631.653,706.027,634.820,705.000,638.500C700.977,640.981,696.811,641.148,692.500,639.000C687.845,636.525,683.845,633.358,680.500,629.500ZZ" style="shape-rendering:geometricPrecision;text-rendering:geometricPrecision;image-rendering:optimizeQuality;fill-rule:evenodd;clip-rule:evenodd;fill:#e7ab6e">
        </path>
      </g>
    </g>
    <g id="shape-759f96bd-bdb6-8028-8004-7e59c98329a7" style="opacity:1">
      <g class="fills" id="fills-759f96bd-bdb6-8028-8004-7e59c98329a7">
        <path d="M762.500,642.500C771.916,640.749,777.250,635.082,778.500,625.500C779.324,621.688,779.824,617.688,780.000,613.500C782.667,614.833,784.667,616.833,786.000,619.500C785.725,630.812,785.725,642.145,786.000,653.500C784.357,662.639,778.857,667.306,769.500,667.500C757.636,664.465,752.802,656.798,755.000,644.500C757.607,643.877,760.107,643.210,762.500,642.500ZZ" style="shape-rendering:geometricPrecision;text-rendering:geometricPrecision;image-rendering:optimizeQuality;fill-rule:evenodd;clip-rule:evenodd;fill:#d34a24">
        </path>
      </g>
    </g>
    <g id="shape-759f96bd-bdb6-8028-8004-7e59c983e420" style="opacity:1">
      <g class="fills" id="fills-759f96bd-bdb6-8028-8004-7e59c983e420">
        <path d="M776.500,607.500C780.805,610.323,785.138,613.156,789.500,616.000C791.378,617.543,792.878,619.376,794.000,621.500C794.667,626.500,794.667,631.500,794.000,636.500C793.500,637.000,793.000,637.500,792.500,638.000C795.481,646.691,794.981,655.191,791.000,663.500C786.439,666.188,781.606,668.355,776.500,670.000C758.602,671.938,750.268,663.771,751.500,645.500C753.648,645.611,753.981,644.944,752.500,643.500C755.768,642.513,759.102,642.180,762.500,642.500C760.107,643.210,757.607,643.877,755.000,644.500C752.802,656.798,757.636,664.465,769.500,667.500C778.857,667.306,784.357,662.639,786.000,653.500C785.725,642.145,785.725,630.812,786.000,619.500C784.667,616.833,782.667,614.833,780.000,613.500C779.824,617.688,779.324,621.688,778.500,625.500C778.817,621.298,778.483,617.298,777.500,613.500C777.167,611.500,776.833,609.500,776.500,607.500ZZ" style="shape-rendering:geometricPrecision;text-rendering:geometricPrecision;image-rendering:optimizeQuality;fill-rule:evenodd;clip-rule:evenodd;fill:#130705">
        </path>
      </g>
    </g>
    <g id="shape-759f96bd-bdb6-8028-8004-7e623cf2b56b">
      <g class="fills" id="fills-759f96bd-bdb6-8028-8004-7e623cf2b56b">
        <path d="M790.500,634.500C790.500,635.832,790.500,637.164,790.500,638.496C790.500,638.497,790.500,638.499,790.500,638.500C791.653,644.319,791.819,650.319,791.000,656.500C790.117,659.102,788.617,661.269,786.500,663.000C785.668,663.688,785.002,663.521,784.500,662.500C785.609,660.615,786.443,658.615,787.000,656.500C787.333,643.833,787.667,631.167,788.000,618.500C792.140,622.664,793.474,627.664,792.000,633.500C791.629,634.039,791.148,634.368,790.500,634.500ZC790.542,634.492,790.526,634.495,790.500,634.500ZM790.500,634.500C790.502,634.471,790.505,634.443,790.500,634.500ZM789.546,623.669C789.531,623.613,789.515,623.556,789.500,623.500C789.499,623.520,789.497,623.540,789.496,623.560M788.501,638.984C788.501,638.990,788.500,638.995,788.501,638.984ZM790.498,638.562C790.499,638.542,790.499,638.521,790.498,638.562ZM790.510,634.498C790.507,634.499,790.503,634.499,790.510,634.498Z" style="fill:#e8b074">
        </path>
      </g>
    </g>
    <g id="shape-759f96bd-bdb6-8028-8004-7e61bf2cc637">
      <g fill="none">
        <g class="fills" id="fills-759f96bd-bdb6-8028-8004-7e61bf2cc637">
          <rect rx="0" ry="0" x="632" y="358" width="66" height="65.99999999999994" transform="matrix(1.000000, 0.000000, 0.000000, 1.000000, 0.000000, 0.000000)" class="frame-background">
          </rect>
        </g>
        <g class="frame-children">
          <g id="shape-759f96bd-bdb6-8028-8004-7e61bf2cc638">
            <g class="fills" id="fills-759f96bd-bdb6-8028-8004-7e61bf2cc638">
              <ellipse cx="665" cy="391.30841121495325" rx="33" ry="32.99999999999997" transform="matrix(1.000000, 0.000000, 0.000000, 1.000000, 0.000000, 0.000000)" style="fill:#fd8f35;fill-opacity:1">
              </ellipse>
            </g>
            <g id="strokes-759f96bd-bdb6-8028-8004-7e61bf2cc638" class="strokes">
              <g class="inner-stroke-shape" transform="matrix(1.000000, 0.000000, 0.000000, 1.000000, 0.000000, 0.000000)">
                <defs>
                  <clipPath id="inner-stroke-render-2079-759f96bd-bdb6-8028-8004-7e61bf2cc638-0">
                    <use href="#stroke-shape-render-2079-759f96bd-bdb6-8028-8004-7e61bf2cc638-0">
                    </use>
                  </clipPath>
                  <ellipse cx="665" cy="391.30841121495325" rx="33" ry="32.99999999999997" style="fill:none;fill-opacity:none;stroke-width:10;stroke:#d34a24;stroke-opacity:1" id="stroke-shape-render-2079-759f96bd-bdb6-8028-8004-7e61bf2cc638-0">
                  </ellipse>
                </defs>
                <use href="#stroke-shape-render-2079-759f96bd-bdb6-8028-8004-7e61bf2cc638-0" clip-path="url(&#x27;#inner-stroke-render-2079-759f96bd-bdb6-8028-8004-7e61bf2cc638-0&#x27;)">
                </use>
              </g>
            </g>
          </g>
          <g id="shape-759f96bd-bdb6-8028-8004-7e61bf2cc639" style="fill:#000000" width="512" height="512" rx="0" ry="0">
            <g id="shape-759f96bd-bdb6-8028-8004-7e61bf2cc63b" style="opacity:0.973">
              <g class="fills" id="fills-759f96bd-bdb6-8028-8004-7e61bf2cc63b">
                <path d="M673.125,381.267C672.802,381.435,672.534,381.372,672.321,381.078C670.550,377.441,668.753,373.816,666.931,370.202C666.449,369.672,665.929,369.609,665.370,370.013C665.221,370.055,665.111,370.149,665.039,370.297C663.211,374.017,661.382,377.737,659.554,381.456C659.266,381.965,658.841,382.296,658.277,382.449C653.947,383.059,649.628,383.721,645.321,384.435C644.790,384.916,644.711,385.468,645.085,386.090C648.140,388.988,651.166,391.920,654.163,394.886C654.552,395.356,654.709,395.892,654.636,396.493C653.943,400.528,653.249,404.563,652.556,408.598C652.480,408.839,652.496,409.059,652.603,409.260C652.668,409.593,652.857,409.830,653.170,409.970C653.526,410.039,653.873,410.008,654.211,409.875C657.931,407.921,661.650,405.966,665.370,404.012C665.883,403.932,666.387,403.964,666.883,404.106C670.603,406.061,674.323,408.015,678.043,409.970C678.911,410.136,679.415,409.789,679.556,408.929C678.872,404.842,678.163,400.760,677.428,396.682C677.295,396.054,677.421,395.487,677.806,394.980C680.896,391.954,683.985,388.928,687.074,385.901C687.406,385.164,687.201,384.643,686.460,384.341C682.522,383.765,678.581,383.197,674.638,382.639C674.318,382.555,674.160,382.350,674.165,382.024C674.193,381.692,674.382,381.535,674.733,381.551C678.705,382.130,682.677,382.713,686.649,383.301C687.880,383.729,688.400,384.596,688.209,385.901C688.141,386.133,688.046,386.354,687.925,386.563C684.836,389.590,681.747,392.616,678.657,395.642C678.560,395.840,678.481,396.045,678.421,396.257C679.164,400.493,679.889,404.733,680.596,408.977C680.561,410.011,680.056,410.689,679.083,411.010C678.570,411.089,678.066,411.058,677.570,410.915C673.976,409.024,670.382,407.133,666.789,405.241C666.284,404.926,665.780,404.926,665.276,405.241C661.682,407.133,658.088,409.024,654.494,410.915C653.178,411.350,652.217,410.956,651.610,409.733C651.533,409.487,651.485,409.235,651.468,408.977C652.157,404.730,652.883,400.490,653.643,396.257C653.583,396.045,653.504,395.840,653.407,395.642C650.318,392.616,647.228,389.590,644.139,386.563C643.522,385.332,643.758,384.307,644.848,383.490C649.120,382.749,653.408,382.087,657.710,381.504C658.087,381.465,658.387,381.291,658.608,380.984C660.474,377.157,662.365,373.343,664.283,369.540C665.081,368.650,666.043,368.445,667.167,368.926C667.385,369.121,667.590,369.326,667.782,369.540C669.636,373.217,671.464,376.905,673.267,380.605C673.346,380.858,673.298,381.079,673.125,381.267ZZ" style="shape-rendering:geometricPrecision;text-rendering:geometricPrecision;image-rendering:optimizeQuality;fill-rule:evenodd;clip-rule:evenodd;fill:#000000;fill-opacity:1">
                </path>
              </g>
            </g>
          </g>
          <g id="shape-759f96bd-bdb6-8028-8004-7e61bf2d3689">
            <g class="fills" id="fills-759f96bd-bdb6-8028-8004-7e61bf2d3689">
              <ellipse cx="665.1542056074766" cy="391.15420560747657" rx="29.761682242990616" ry="29.761682242990588" transform="matrix(1.000000, 0.000000, 0.000000, 1.000000, 0.000000, 0.000000)" style="fill:#b1b2b5;fill-opacity:0">
              </ellipse>
            </g>
            <g id="strokes-759f96bd-bdb6-8028-8004-7e61bf2d3689" class="strokes">
              <g class="inner-stroke-shape" transform="matrix(1.000000, 0.000000, 0.000000, 1.000000, 0.000000, 0.000000)">
                <defs>
                  <clipPath id="inner-stroke-render-2082-759f96bd-bdb6-8028-8004-7e61bf2d3689-0">
                    <use href="#stroke-shape-render-2082-759f96bd-bdb6-8028-8004-7e61bf2d3689-0">
                    </use>
                  </clipPath>
                  <ellipse cx="665.1542056074766" cy="391.15420560747657" rx="29.761682242990616" ry="29.761682242990588" style="fill:none;fill-opacity:none;stroke-width:6;stroke:#d34a24;stroke-opacity:1" id="stroke-shape-render-2082-759f96bd-bdb6-8028-8004-7e61bf2d3689-0">
                  </ellipse>
                </defs>
                <use href="#stroke-shape-render-2082-759f96bd-bdb6-8028-8004-7e61bf2d3689-0" clip-path="url(&#x27;#inner-stroke-render-2082-759f96bd-bdb6-8028-8004-7e61bf2d3689-0&#x27;)">
                </use>
              </g>
            </g>
          </g>
          <g id="shape-759f96bd-bdb6-8028-8004-7e61bf2d368a">
            <g class="fills" id="fills-759f96bd-bdb6-8028-8004-7e61bf2d368a">
              <ellipse cx="665.1542056074766" cy="391.15420560747657" rx="29.761682242990616" ry="29.761682242990588" transform="matrix(1.000000, 0.000000, 0.000000, 1.000000, 0.000000, 0.000000)" style="fill:#b1b2b5;fill-opacity:0">
              </ellipse>
            </g>
            <g id="strokes-759f96bd-bdb6-8028-8004-7e61bf2d368a" class="strokes">
              <g class="inner-stroke-shape" transform="matrix(1.000000, 0.000000, 0.000000, 1.000000, 0.000000, 0.000000)">
                <defs>
                  <clipPath id="inner-stroke-render-2083-759f96bd-bdb6-8028-8004-7e61bf2d368a-0">
                    <use href="#stroke-shape-render-2083-759f96bd-bdb6-8028-8004-7e61bf2d368a-0">
                    </use>
                  </clipPath>
                  <ellipse cx="665.1542056074766" cy="391.15420560747657" rx="29.761682242990616" ry="29.761682242990588" style="fill:none;fill-opacity:none;stroke-width:2;stroke:#000000;stroke-opacity:1" id="stroke-shape-render-2083-759f96bd-bdb6-8028-8004-7e61bf2d368a-0">
                  </ellipse>
                </defs>
                <use href="#stroke-shape-render-2083-759f96bd-bdb6-8028-8004-7e61bf2d368a-0" clip-path="url(&#x27;#inner-stroke-render-2083-759f96bd-bdb6-8028-8004-7e61bf2d368a-0&#x27;)">
                </use>
              </g>
            </g>
          </g>
          <g id="shape-759f96bd-bdb6-8028-8004-7e61bf2d5694">
            <g class="fills" id="fills-759f96bd-bdb6-8028-8004-7e61bf2d5694">
              <path d="M660.991,383.907C660.991,383.907,661.397,382.827,662.224,382.827C663.041,382.827,663.458,383.907,663.458,383.907L663.458,393.159C663.458,393.159,663.043,394.084,662.224,394.084C661.398,394.084,660.991,393.159,660.991,393.159L660.991,383.907ZM662.224,388.841" style="fill:#000000;fill-opacity:1">
              </path>
            </g>
          </g>
          <g id="shape-759f96bd-bdb6-8028-8004-7e61bf2d5695">
            <g class="fills" id="fills-759f96bd-bdb6-8028-8004-7e61bf2d5695">
              <path d="M661.916,383.712C661.916,383.712,662.144,383.136,662.610,383.136C663.069,383.136,663.304,383.712,663.304,383.712L663.304,388.655C663.304,388.655,663.070,389.150,662.610,389.150C662.145,389.150,661.916,388.655,661.916,388.655L661.916,383.712ZM662.610,386.348" style="fill:#ffffff;fill-opacity:1">
              </path>
            </g>
          </g>
          <g id="shape-759f96bd-bdb6-8028-8004-7e61bf2d5696">
            <g class="fills" id="fills-759f96bd-bdb6-8028-8004-7e61bf2d5696">
              <path d="M669.009,383.907C669.009,383.907,669.415,382.827,670.243,382.827C671.060,382.827,671.477,383.907,671.477,383.907L671.477,393.159C671.477,393.159,671.062,394.084,670.243,394.084C669.417,394.084,669.009,393.159,669.009,393.159L669.009,383.907ZM670.243,388.841" style="fill:#000000;fill-opacity:1">
              </path>
            </g>
          </g>
          <g id="shape-759f96bd-bdb6-8028-8004-7e61bf2d5697">
            <g class="fills" id="fills-759f96bd-bdb6-8028-8004-7e61bf2d5697">
              <path d="M669.935,383.712C669.935,383.712,670.163,383.136,670.629,383.136C671.088,383.136,671.322,383.712,671.322,383.712L671.322,388.655C671.322,388.655,671.089,389.150,670.629,389.150C670.164,389.150,669.935,388.655,669.935,388.655L669.935,383.712ZM670.629,386.348" style="fill:#ffffff;fill-opacity:1">
              </path>
            </g>
          </g>
          <g id="shape-759f96bd-bdb6-8028-8004-7e61bf2d5698">
            <g class="fills" id="fills-759f96bd-bdb6-8028-8004-7e61bf2d5698">
              <ellipse cx="665" cy="391.30841121495325" rx="33" ry="32.99999999999997" transform="matrix(1.000000, 0.000000, 0.000000, 1.000000, 0.000000, 0.000000)" style="fill:#fd8f35;fill-opacity:0">
              </ellipse>
            </g>
            <g id="strokes-759f96bd-bdb6-8028-8004-7e61bf2d5698" class="strokes">
              <g class="inner-stroke-shape" transform="matrix(1.000000, 0.000000, 0.000000, 1.000000, 0.000000, 0.000000)">
                <defs>
                  <clipPath id="inner-stroke-render-2088-759f96bd-bdb6-8028-8004-7e61bf2d5698-0">
                    <use href="#stroke-shape-render-2088-759f96bd-bdb6-8028-8004-7e61bf2d5698-0">
                    </use>
                  </clipPath>
                  <ellipse cx="665" cy="391.30841121495325" rx="33" ry="32.99999999999997" style="fill:none;fill-opacity:none;stroke-width:2;stroke:#000000;stroke-opacity:1" id="stroke-shape-render-2088-759f96bd-bdb6-8028-8004-7e61bf2d5698-0">
                  </ellipse>
                </defs>
                <use href="#stroke-shape-render-2088-759f96bd-bdb6-8028-8004-7e61bf2d5698-0" clip-path="url(&#x27;#inner-stroke-render-2088-759f96bd-bdb6-8028-8004-7e61bf2d5698-0&#x27;)">
                </use>
              </g>
            </g>
          </g>
        </g>
      </g>
    </g>
  </g>
</svg>