<svg width="565" xmlns="http://www.w3.org/2000/svg" height="274" id="screenshot-3540ebb7-4f8f-806e-8004-7ed8538f6476" viewBox="4040 131 565 274" style="-webkit-print-color-adjust::exact" xmlns:xlink="http://www.w3.org/1999/xlink" fill="none" version="1.1">
  <g id="shape-3540ebb7-4f8f-806e-8004-7ed8538f6476">
    <g fill="none">
      <g class="fills" id="fills-3540ebb7-4f8f-806e-8004-7ed8538f6476">
        <rect rx="0" ry="0" x="4039.9999999999995" y="131" width="565.0000000000009" height="274" transform="matrix(1.000000, 0.000000, 0.000000, 1.000000, 0.000000, 0.000000)" class="frame-background">
        </rect>
      </g>
      <g class="frame-children">
        <g id="shape-d39ca38a-ad3c-8047-8004-7ed4cbe6149e" style="fill:#000000" width="500" height="512" rx="0" ry="0">
          <g id="shape-d39ca38a-ad3c-8047-8004-7ed4cbe6149f">
            <g class="fills" id="fills-d39ca38a-ad3c-8047-8004-7ed4cbe6149f">
              <path d="M4148.377,131.587C4148.377,131.391,4148.377,131.196,4148.377,131.000L4148.377,131.000C4150.134,131.000,4151.892,131.000,4153.649,131.000C4181.387,135.248,4236.836,143.908,4236.836,143.908L4252.067,163.857L4294.832,220.769L4307.720,328.726C4307.720,328.726,4307.945,351.025,4307.427,395.612C4307.134,395.319,4307.134,395.319,4306.949,395.158C4306.780,395.012,4306.548,395.026,4306.548,395.026C4306.548,395.026,4300.341,387.949,4287.216,374.490C4275.737,362.720,4269.642,357.182,4269.642,357.182C4269.642,357.182,4268.044,357.898,4265.541,360.116C4262.966,362.396,4262.026,363.929,4262.026,363.929L4223.655,399.133L4222.776,398.253C4222.776,398.253,4189.200,374.896,4172.395,363.343C4155.997,377.127,4139.692,391.012,4123.479,405.000C4110.428,395.485,4097.442,385.901,4084.522,376.251C4069.742,380.340,4055.096,384.643,4040.586,389.158C4040.391,389.158,4040.195,389.158,4040.000,389.158C4040.000,381.726,4040.000,374.295,4040.000,366.863C4041.139,334.104,4042.115,301.248,4042.929,268.293C4043.304,267.176,4043.499,266.021,4043.514,264.830C4043.515,264.811,4043.515,264.792,4043.515,264.773C4057.033,229.634,4070.897,194.626,4085.108,159.749C4105.997,150.067,4127.004,140.715,4148.129,131.693C4148.191,131.666,4148.253,131.640,4148.377,131.587ZC4148.335,131.604,4148.356,131.596,4148.377,131.587ZC4148.362,131.600,4148.347,131.613,4148.377,131.587ZM4068.119,226.049C4067.707,229.656,4066.926,233.177,4065.776,236.610C4068.999,249.712,4072.513,262.718,4076.321,275.627C4084.917,279.493,4093.607,283.111,4102.390,286.482C4111.071,283.681,4119.761,280.943,4128.459,278.268C4131.776,268.007,4135.389,257.837,4139.297,247.758C4139.687,235.045,4139.687,222.334,4139.297,209.621C4135.019,202.800,4130.527,196.150,4125.823,189.672C4120.223,187.797,4114.658,185.841,4109.127,183.805C4103.283,184.782,4097.447,185.756,4091.621,186.727C4091.598,186.731,4091.575,186.735,4091.552,186.739C4090.745,187.170,4089.866,187.561,4088.916,187.912C4083.839,194.171,4078.762,200.429,4073.685,206.687C4071.727,213.174,4069.873,219.621,4068.119,226.049ZC4068.123,226.036,4068.121,226.043,4068.119,226.049ZM4143.791,135.583C4143.285,136.022,4142.779,136.461,4142.272,136.899M4114.607,160.219C4114.088,160.644,4113.570,161.070,4113.050,161.495C4112.531,161.920,4112.011,162.345,4111.492,162.769M4103.315,169.393C4103.299,169.406,4103.284,169.418,4103.315,169.393ZC4103.251,169.451,4103.233,169.472,4103.215,169.493M4091.590,186.666C4091.578,186.690,4091.565,186.715,4091.590,186.666ZM4068.119,226.049C4068.104,226.073,4068.088,226.098,4068.119,226.049ZM4045.609,262.938C4045.594,262.963,4045.580,262.988,4045.609,262.938ZC4045.552,263.041,4045.538,263.069,4045.524,263.097M4043.558,264.761C4043.544,264.765,4043.529,264.769,4043.558,264.761Z" style="fill:#3c7f72">
              </path>
            </g>
            <g id="strokes-d39ca38a-ad3c-8047-8004-7ed4cbe6149f" class="strokes">
              <g class="outer-stroke-shape">
                <defs>
                  <mask id="outer-stroke-render-265-d39ca38a-ad3c-8047-8004-7ed4cbe6149f-0" x="4035.757359312881" y="126.75735931288071" width="276.2536862822148" height="282.4852813742386" maskUnits="userSpaceOnUse">
                    <use href="#stroke-shape-render-265-d39ca38a-ad3c-8047-8004-7ed4cbe6149f-0" style="fill:none;stroke:white;stroke-width:6">
                    </use>
                    <use href="#stroke-shape-render-265-d39ca38a-ad3c-8047-8004-7ed4cbe6149f-0" style="fill:black;stroke:none">
                    </use>
                  </mask>
                  <path d="M4148.377,131.587C4148.377,131.391,4148.377,131.196,4148.377,131.000L4148.377,131.000C4150.134,131.000,4151.892,131.000,4153.649,131.000C4181.387,135.248,4236.836,143.908,4236.836,143.908L4252.067,163.857L4294.832,220.769L4307.720,328.726C4307.720,328.726,4307.945,351.025,4307.427,395.612C4307.134,395.319,4307.134,395.319,4306.949,395.158C4306.780,395.012,4306.548,395.026,4306.548,395.026C4306.548,395.026,4300.341,387.949,4287.216,374.490C4275.737,362.720,4269.642,357.182,4269.642,357.182C4269.642,357.182,4268.044,357.898,4265.541,360.116C4262.966,362.396,4262.026,363.929,4262.026,363.929L4223.655,399.133L4222.776,398.253C4222.776,398.253,4189.200,374.896,4172.395,363.343C4155.997,377.127,4139.692,391.012,4123.479,405.000C4110.428,395.485,4097.442,385.901,4084.522,376.251C4069.742,380.340,4055.096,384.643,4040.586,389.158C4040.391,389.158,4040.195,389.158,4040.000,389.158C4040.000,381.726,4040.000,374.295,4040.000,366.863C4041.139,334.104,4042.115,301.248,4042.929,268.293C4043.304,267.176,4043.499,266.021,4043.514,264.830C4043.515,264.811,4043.515,264.792,4043.515,264.773C4057.033,229.634,4070.897,194.626,4085.108,159.749C4105.997,150.067,4127.004,140.715,4148.129,131.693C4148.191,131.666,4148.253,131.640,4148.377,131.587ZC4148.335,131.604,4148.356,131.596,4148.377,131.587ZC4148.362,131.600,4148.347,131.613,4148.377,131.587ZM4068.119,226.049C4067.707,229.656,4066.926,233.177,4065.776,236.610C4068.999,249.712,4072.513,262.718,4076.321,275.627C4084.917,279.493,4093.607,283.111,4102.390,286.482C4111.071,283.681,4119.761,280.943,4128.459,278.268C4131.776,268.007,4135.389,257.837,4139.297,247.758C4139.687,235.045,4139.687,222.334,4139.297,209.621C4135.019,202.800,4130.527,196.150,4125.823,189.672C4120.223,187.797,4114.658,185.841,4109.127,183.805C4103.283,184.782,4097.447,185.756,4091.621,186.727C4091.598,186.731,4091.575,186.735,4091.552,186.739C4090.745,187.170,4089.866,187.561,4088.916,187.912C4083.839,194.171,4078.762,200.429,4073.685,206.687C4071.727,213.174,4069.873,219.621,4068.119,226.049ZC4068.123,226.036,4068.121,226.043,4068.119,226.049ZM4143.791,135.583C4143.285,136.022,4142.779,136.461,4142.272,136.899M4114.607,160.219C4114.088,160.644,4113.570,161.070,4113.050,161.495C4112.531,161.920,4112.011,162.345,4111.492,162.769M4103.315,169.393C4103.299,169.406,4103.284,169.418,4103.315,169.393ZC4103.251,169.451,4103.233,169.472,4103.215,169.493M4091.590,186.666C4091.578,186.690,4091.565,186.715,4091.590,186.666ZM4068.119,226.049C4068.104,226.073,4068.088,226.098,4068.119,226.049ZM4045.609,262.938C4045.594,262.963,4045.580,262.988,4045.609,262.938ZC4045.552,263.041,4045.538,263.069,4045.524,263.097M4043.558,264.761C4043.544,264.765,4043.529,264.769,4043.558,264.761Z" id="stroke-shape-render-265-d39ca38a-ad3c-8047-8004-7ed4cbe6149f-0">
                  </path>
                </defs>
                <use href="#stroke-shape-render-265-d39ca38a-ad3c-8047-8004-7ed4cbe6149f-0" mask="url(#outer-stroke-render-265-d39ca38a-ad3c-8047-8004-7ed4cbe6149f-0)" style="fill:none;stroke-width:6;stroke:#000000;stroke-opacity:1">
                </use>
                <use href="#stroke-shape-render-265-d39ca38a-ad3c-8047-8004-7ed4cbe6149f-0" style="fill:none;fill-opacity:none;stroke-width:3;stroke:none;stroke-opacity:1">
                </use>
              </g>
            </g>
          </g>
          <g id="shape-d39ca38a-ad3c-8047-8004-7ed4cbe614a0" style="opacity:1">
            <g class="fills" id="fills-d39ca38a-ad3c-8047-8004-7ed4cbe614a0">
              <path d="M4236.836,143.908C4243.475,152.513,4250.114,161.118,4256.754,169.724C4268.591,186.379,4280.796,202.807,4293.367,219.009C4294.393,220.176,4294.979,221.545,4295.125,223.116C4299.226,258.124,4303.326,293.131,4307.427,328.139C4307.818,350.630,4307.818,373.122,4307.427,395.612C4307.203,395.286,4306.910,395.091,4306.548,395.026C4294.622,382.199,4282.319,369.584,4269.642,357.182C4266.720,358.828,4264.181,361.077,4262.026,363.929C4249.335,375.759,4236.544,387.493,4223.655,399.133C4223.235,398.814,4222.942,398.422,4222.776,397.959C4223.614,397.736,4224.102,397.149,4224.241,396.199C4230.522,372.232,4236.576,348.176,4242.401,324.032C4248.167,290.758,4254.123,257.511,4260.268,224.289C4252.457,197.494,4244.646,170.700,4236.836,143.908ZZ" style="shape-rendering:geometricPrecision;text-rendering:geometricPrecision;image-rendering:optimizeQuality;fill-rule:evenodd;clip-rule:evenodd;fill:#2c5e54;fill-opacity:0.9601953125">
              </path>
            </g>
          </g>
          <g id="shape-d39ca38a-ad3c-8047-8004-7ed4cbe614a1" style="opacity:1">
            <g class="fills" id="fills-d39ca38a-ad3c-8047-8004-7ed4cbe614a1">
              <path d="M4068.119,226.049C4069.870,219.634,4071.725,213.180,4073.685,206.687C4078.762,200.429,4083.839,194.171,4088.916,187.912C4089.866,187.561,4090.745,187.170,4091.552,186.739C4097.401,185.764,4103.260,184.786,4109.127,183.805C4114.658,185.841,4120.223,187.797,4125.823,189.672C4130.527,196.150,4135.019,202.800,4139.297,209.621C4139.687,222.334,4139.687,235.045,4139.297,247.758C4135.389,257.837,4131.776,268.007,4128.459,278.268C4119.761,280.943,4111.071,283.681,4102.390,286.482C4093.607,283.111,4084.917,279.493,4076.321,275.627C4072.513,262.718,4068.999,249.712,4065.776,236.610C4066.926,233.177,4067.707,229.656,4068.119,226.049ZZ" style="shape-rendering:geometricPrecision;text-rendering:geometricPrecision;image-rendering:optimizeQuality;fill-rule:evenodd;clip-rule:evenodd;fill:#fdfefe">
              </path>
            </g>
            <g style="shape-rendering:geometricPrecision;text-rendering:geometricPrecision;image-rendering:optimizeQuality;fill-rule:evenodd;clip-rule:evenodd" id="strokes-d39ca38a-ad3c-8047-8004-7ed4cbe614a1" class="strokes">
              <g class="inner-stroke-shape">
                <defs>
                  <clipPath id="inner-stroke-render-267-d39ca38a-ad3c-8047-8004-7ed4cbe614a1-0">
                    <use href="#stroke-shape-render-267-d39ca38a-ad3c-8047-8004-7ed4cbe614a1-0">
                    </use>
                  </clipPath>
                  <path d="M4068.119,226.049C4069.870,219.634,4071.725,213.180,4073.685,206.687C4078.762,200.429,4083.839,194.171,4088.916,187.912C4089.866,187.561,4090.745,187.170,4091.552,186.739C4097.401,185.764,4103.260,184.786,4109.127,183.805C4114.658,185.841,4120.223,187.797,4125.823,189.672C4130.527,196.150,4135.019,202.800,4139.297,209.621C4139.687,222.334,4139.687,235.045,4139.297,247.758C4135.389,257.837,4131.776,268.007,4128.459,278.268C4119.761,280.943,4111.071,283.681,4102.390,286.482C4093.607,283.111,4084.917,279.493,4076.321,275.627C4072.513,262.718,4068.999,249.712,4065.776,236.610C4066.926,233.177,4067.707,229.656,4068.119,226.049ZZ" style="fill:none;fill-opacity:none;stroke-width:6;stroke:#000000;stroke-opacity:1" id="stroke-shape-render-267-d39ca38a-ad3c-8047-8004-7ed4cbe614a1-0">
                  </path>
                </defs>
                <use href="#stroke-shape-render-267-d39ca38a-ad3c-8047-8004-7ed4cbe614a1-0" clip-path="url(&#x27;#inner-stroke-render-267-d39ca38a-ad3c-8047-8004-7ed4cbe614a1-0&#x27;)">
                </use>
              </g>
            </g>
          </g>
          <g id="shape-d39ca38a-ad3c-8047-8004-7ed4cbe614a2" style="opacity:1">
            <g class="fills" id="fills-d39ca38a-ad3c-8047-8004-7ed4cbe614a2">
              <path d="M4215.160,185.565C4221.569,187.249,4227.818,189.400,4233.907,192.019C4237.795,198.162,4241.798,204.224,4245.916,210.208C4246.307,223.702,4246.307,237.197,4245.916,250.692C4242.088,260.336,4238.670,270.115,4235.664,280.028C4227.047,282.643,4218.455,285.382,4209.888,288.242C4200.970,284.950,4192.183,281.332,4183.526,277.388C4179.320,263.963,4175.903,250.370,4173.274,236.610C4175.891,227.497,4178.234,218.305,4180.304,209.034C4185.674,202.482,4191.044,195.931,4196.414,189.379C4202.718,188.009,4208.967,186.738,4215.160,185.565ZZ" style="shape-rendering:geometricPrecision;text-rendering:geometricPrecision;image-rendering:optimizeQuality;fill-rule:evenodd;clip-rule:evenodd;fill:#fdfefe">
              </path>
            </g>
            <g style="shape-rendering:geometricPrecision;text-rendering:geometricPrecision;image-rendering:optimizeQuality;fill-rule:evenodd;clip-rule:evenodd" id="strokes-d39ca38a-ad3c-8047-8004-7ed4cbe614a2" class="strokes">
              <g class="inner-stroke-shape">
                <defs>
                  <clipPath id="inner-stroke-render-268-d39ca38a-ad3c-8047-8004-7ed4cbe614a2-0">
                    <use href="#stroke-shape-render-268-d39ca38a-ad3c-8047-8004-7ed4cbe614a2-0">
                    </use>
                  </clipPath>
                  <path d="M4215.160,185.565C4221.569,187.249,4227.818,189.400,4233.907,192.019C4237.795,198.162,4241.798,204.224,4245.916,210.208C4246.307,223.702,4246.307,237.197,4245.916,250.692C4242.088,260.336,4238.670,270.115,4235.664,280.028C4227.047,282.643,4218.455,285.382,4209.888,288.242C4200.970,284.950,4192.183,281.332,4183.526,277.388C4179.320,263.963,4175.903,250.370,4173.274,236.610C4175.891,227.497,4178.234,218.305,4180.304,209.034C4185.674,202.482,4191.044,195.931,4196.414,189.379C4202.718,188.009,4208.967,186.738,4215.160,185.565ZZ" style="fill:none;fill-opacity:none;stroke-width:6;stroke:#000000;stroke-opacity:1" id="stroke-shape-render-268-d39ca38a-ad3c-8047-8004-7ed4cbe614a2-0">
                  </path>
                </defs>
                <use href="#stroke-shape-render-268-d39ca38a-ad3c-8047-8004-7ed4cbe614a2-0" clip-path="url(&#x27;#inner-stroke-render-268-d39ca38a-ad3c-8047-8004-7ed4cbe614a2-0&#x27;)">
                </use>
              </g>
            </g>
          </g>
          <g id="shape-d39ca38a-ad3c-8047-8004-7ed4cbe614a3" style="opacity:1">
            <g class="fills" id="fills-d39ca38a-ad3c-8047-8004-7ed4cbe614a3">
              <path d="M4083.937,220.769C4088.827,221.567,4093.709,222.447,4098.582,223.409C4100.652,225.679,4102.898,227.733,4105.319,229.570C4105.779,236.045,4105.584,242.499,4104.733,248.931C4102.389,254.315,4100.338,259.791,4098.582,265.360C4092.258,264.818,4086.010,263.840,4079.836,262.426C4078.487,260.001,4077.023,257.654,4075.442,255.385C4074.499,246.983,4073.913,238.573,4073.685,230.156C4077.217,227.106,4080.634,223.976,4083.937,220.769ZL4083.937,220.769Z" style="shape-rendering:geometricPrecision;text-rendering:geometricPrecision;image-rendering:optimizeQuality;fill-rule:evenodd;clip-rule:evenodd;fill:#3c7f72">
              </path>
            </g>
          </g>
          <g id="shape-d39ca38a-ad3c-8047-8004-7ed5a6d40e60" style="opacity:1">
            <g class="fills" id="fills-d39ca38a-ad3c-8047-8004-7ed5a6d40e60">
              <path d="M4082.662,227.223C4084.010,227.443,4085.356,227.686,4086.699,227.952C4087.270,228.579,4087.889,229.147,4088.556,229.655C4088.683,231.444,4088.629,233.227,4088.395,235.005C4087.749,236.492,4087.183,238.005,4086.699,239.544C4084.956,239.394,4083.233,239.124,4081.531,238.733C4081.160,238.063,4080.756,237.415,4080.320,236.788C4080.060,234.466,4079.899,232.142,4079.836,229.817C4080.809,228.974,4081.751,228.109,4082.662,227.223ZL4082.662,227.223Z" style="shape-rendering:geometricPrecision;text-rendering:geometricPrecision;image-rendering:optimizeQuality;fill-rule:evenodd;clip-rule:evenodd;fill:#ffffff;fill-opacity:1">
              </path>
            </g>
          </g>
          <g id="shape-d39ca38a-ad3c-8047-8004-7ed4cbe614a4" style="opacity:1">
            <g class="fills" id="fills-d39ca38a-ad3c-8047-8004-7ed4cbe614a4">
              <path d="M4191.142,222.529C4196.051,223.219,4200.932,224.099,4205.787,225.169C4207.857,227.439,4210.103,229.493,4212.524,231.330C4212.963,237.803,4212.767,244.256,4211.938,250.692C4209.594,256.075,4207.543,261.551,4205.787,267.120C4199.551,266.144,4193.303,265.166,4187.041,264.186C4185.692,261.761,4184.228,259.414,4182.647,257.146C4181.521,248.544,4181.033,239.938,4181.183,231.330C4184.703,228.584,4188.022,225.651,4191.142,222.529ZL4191.142,222.529Z" style="shape-rendering:geometricPrecision;text-rendering:geometricPrecision;image-rendering:optimizeQuality;fill-rule:evenodd;clip-rule:evenodd;fill:#3c7f72">
              </path>
            </g>
          </g>
          <g id="shape-d39ca38a-ad3c-8047-8004-7ed4cbe614a5" style="opacity:1">
            <g class="fills" id="fills-d39ca38a-ad3c-8047-8004-7ed4cbe614a5">
              <path d="M4306.548,395.026C4303.804,393.250,4301.070,391.490,4298.347,389.745C4293.975,385.950,4289.288,382.625,4284.287,379.771C4277.195,374.039,4269.775,368.758,4262.026,363.929C4264.181,361.077,4266.720,358.828,4269.642,357.182C4282.319,369.584,4294.622,382.199,4306.548,395.026ZZ" style="shape-rendering:geometricPrecision;text-rendering:geometricPrecision;image-rendering:optimizeQuality;fill-rule:evenodd;clip-rule:evenodd;fill:#142b27;fill-opacity:1">
              </path>
            </g>
          </g>
          <g id="shape-d39ca38a-ad3c-8047-8004-7ed5b7f90835" style="opacity:1">
            <g class="fills" id="fills-d39ca38a-ad3c-8047-8004-7ed5b7f90835">
              <path d="M4189.867,228.396C4191.215,228.617,4192.561,228.860,4193.904,229.126C4194.475,229.753,4195.094,230.320,4195.761,230.828C4195.888,232.617,4195.834,234.400,4195.600,236.178C4194.954,237.665,4194.388,239.178,4193.904,240.717C4192.161,240.568,4190.438,240.297,4188.737,239.907C4188.365,239.237,4187.961,238.588,4187.525,237.961C4187.265,235.640,4187.104,233.316,4187.041,230.990C4188.015,230.147,4188.957,229.282,4189.867,228.396ZL4189.867,228.396Z" style="shape-rendering:geometricPrecision;text-rendering:geometricPrecision;image-rendering:optimizeQuality;fill-rule:evenodd;clip-rule:evenodd;fill:#ffffff;fill-opacity:1">
              </path>
            </g>
          </g>
        </g>
        <g id="shape-d39ca38a-ad3c-8047-8004-7ed447a0cd08" style="fill:#000000" width="474" height="512" rx="0" ry="0">
          <g id="shape-d39ca38a-ad3c-8047-8004-7ed447a0cd0a" style="opacity:0.998">
            <g class="fills" id="fills-d39ca38a-ad3c-8047-8004-7ed447a0cd0a">
              <path d="M4493.612,176.956C4494.917,176.956,4496.222,176.956,4497.528,176.956C4516.172,182.143,4534.882,187.273,4553.657,192.347C4565.055,203.848,4576.585,215.192,4588.248,226.380C4593.674,239.781,4604.130,266.699,4604.130,266.699L4605.000,295.097L4605.000,308.320L4592.817,342.570L4563.665,372.918L4529.073,393.078L4479.688,398.930L4474.467,398.930L4427.475,377.036L4415.292,363.597L4403.979,350.373C4403.979,350.373,4403.284,349.424,4402.891,347.339C4402.413,344.800,4402.674,343.437,4402.674,343.437L4408.983,344.304C4417.250,343.003,4427.783,342.118,4435.307,341.052C4445.750,336.717,4456.192,332.381,4466.635,328.046C4470.923,325.984,4513.961,299.118,4529.291,289.677C4529.436,288.954,4528.856,286.209,4528.856,285.342C4500.903,271.850,4472.911,258.338,4444.879,244.805C4433.814,242.049,4422.791,239.159,4411.811,236.134C4410.506,235.845,4409.200,235.845,4407.895,236.134C4404.860,236.742,4401.815,237.247,4398.758,237.652C4398.758,237.508,4398.758,237.363,4398.758,237.218C4401.539,232.692,4404.222,228.068,4406.807,223.345C4419.657,211.263,4432.638,199.340,4445.750,187.578C4461.766,184.055,4477.720,180.514,4493.612,176.956ZL4493.612,176.956Z" style="shape-rendering:geometricPrecision;text-rendering:geometricPrecision;image-rendering:optimizeQuality;fill-rule:evenodd;clip-rule:evenodd;fill:#fddd08">
              </path>
            </g>
            <g style="shape-rendering:geometricPrecision;text-rendering:geometricPrecision;image-rendering:optimizeQuality;fill-rule:evenodd;clip-rule:evenodd" id="strokes-d39ca38a-ad3c-8047-8004-7ed447a0cd0a" class="strokes">
              <g class="outer-stroke-shape">
                <defs>
                  <mask id="outer-stroke-render-275-d39ca38a-ad3c-8047-8004-7ed447a0cd0a-0" x="4391.515028024538" y="169.71305551541235" width="220.72761266258243" height="236.4599649185424" maskUnits="userSpaceOnUse">
                    <use href="#stroke-shape-render-275-d39ca38a-ad3c-8047-8004-7ed447a0cd0a-0" style="fill:none;stroke:white;stroke-width:6">
                    </use>
                    <use href="#stroke-shape-render-275-d39ca38a-ad3c-8047-8004-7ed447a0cd0a-0" style="fill:black;stroke:none">
                    </use>
                  </mask>
                  <path d="M4493.612,176.956C4494.917,176.956,4496.222,176.956,4497.528,176.956C4516.172,182.143,4534.882,187.273,4553.657,192.347C4565.055,203.848,4576.585,215.192,4588.248,226.380C4593.674,239.781,4604.130,266.699,4604.130,266.699L4605.000,295.097L4605.000,308.320L4592.817,342.570L4563.665,372.918L4529.073,393.078L4479.688,398.930L4474.467,398.930L4427.475,377.036L4415.292,363.597L4403.979,350.373C4403.979,350.373,4403.284,349.424,4402.891,347.339C4402.413,344.800,4402.674,343.437,4402.674,343.437L4408.983,344.304C4417.250,343.003,4427.783,342.118,4435.307,341.052C4445.750,336.717,4456.192,332.381,4466.635,328.046C4470.923,325.984,4513.961,299.118,4529.291,289.677C4529.436,288.954,4528.856,286.209,4528.856,285.342C4500.903,271.850,4472.911,258.338,4444.879,244.805C4433.814,242.049,4422.791,239.159,4411.811,236.134C4410.506,235.845,4409.200,235.845,4407.895,236.134C4404.860,236.742,4401.815,237.247,4398.758,237.652C4398.758,237.508,4398.758,237.363,4398.758,237.218C4401.539,232.692,4404.222,228.068,4406.807,223.345C4419.657,211.263,4432.638,199.340,4445.750,187.578C4461.766,184.055,4477.720,180.514,4493.612,176.956ZL4493.612,176.956Z" id="stroke-shape-render-275-d39ca38a-ad3c-8047-8004-7ed447a0cd0a-0">
                  </path>
                </defs>
                <use href="#stroke-shape-render-275-d39ca38a-ad3c-8047-8004-7ed447a0cd0a-0" mask="url(#outer-stroke-render-275-d39ca38a-ad3c-8047-8004-7ed447a0cd0a-0)" style="fill:none;stroke-width:6;stroke:#000000;stroke-opacity:1">
                </use>
                <use href="#stroke-shape-render-275-d39ca38a-ad3c-8047-8004-7ed447a0cd0a-0" style="fill:none;fill-opacity:none;stroke-width:3;stroke:none;stroke-opacity:1">
                </use>
              </g>
            </g>
          </g>
          <g id="shape-d39ca38a-ad3c-8047-8004-7ed447a0cd0b" style="opacity:1">
            <g class="fills" id="fills-d39ca38a-ad3c-8047-8004-7ed447a0cd0b">
              <path d="M4504.925,215.975C4507.076,215.507,4509.251,215.073,4511.451,214.674C4510.609,213.184,4509.522,211.883,4508.188,210.772C4507.978,210.361,4507.906,209.928,4507.970,209.472C4508.690,207.747,4509.415,206.012,4510.146,204.269C4512.177,203.691,4514.207,203.691,4516.237,204.269C4517.047,205.822,4517.772,207.412,4518.413,209.038C4515.029,217.372,4511.766,225.753,4508.623,234.184C4506.368,235.740,4504.048,237.185,4501.661,238.519C4500.723,237.521,4499.998,236.366,4499.486,235.051C4499.196,233.027,4499.196,231.004,4499.486,228.981C4501.424,224.686,4503.237,220.351,4504.925,215.975ZZ" style="shape-rendering:geometricPrecision;text-rendering:geometricPrecision;image-rendering:optimizeQuality;fill-rule:evenodd;clip-rule:evenodd;fill:#3f3d1e">
              </path>
            </g>
          </g>
          <g id="shape-d39ca38a-ad3c-8047-8004-7ed447a0cd0c" style="opacity:1">
            <g class="fills" id="fills-d39ca38a-ad3c-8047-8004-7ed447a0cd0c">
              <path d="M4507.970,209.472C4507.906,209.928,4507.978,210.361,4508.188,210.772C4509.522,211.883,4510.609,213.184,4511.451,214.674C4509.251,215.073,4507.076,215.507,4504.925,215.975C4504.603,216.031,4504.313,215.959,4504.054,215.758C4504.935,213.849,4505.733,211.898,4506.447,209.905C4506.946,209.853,4507.453,209.709,4507.970,209.472ZZ" style="shape-rendering:geometricPrecision;text-rendering:geometricPrecision;image-rendering:optimizeQuality;fill-rule:evenodd;clip-rule:evenodd;fill:#f4f0b9">
              </path>
            </g>
          </g>
          <g id="shape-d39ca38a-ad3c-8047-8004-7ed447a0cd0d" style="opacity:1">
            <g class="fills" id="fills-d39ca38a-ad3c-8047-8004-7ed447a0cd0d">
              <path d="M4604.130,266.699C4604.152,275.159,4604.442,283.541,4605.000,291.845C4605.000,297.337,4605.000,302.828,4605.000,308.320C4600.751,319.789,4596.618,331.350,4592.599,343.003C4582.941,352.771,4573.441,362.670,4564.100,372.701C4552.497,379.493,4540.894,386.285,4529.291,393.078C4512.697,395.051,4496.163,397.002,4479.688,398.930C4477.948,398.930,4476.207,398.930,4474.467,398.930C4458.895,391.535,4443.231,384.237,4427.475,377.036C4419.063,368.221,4403.979,350.373,4403.979,350.373C4403.979,350.373,4403.310,349.347,4402.891,347.122C4402.440,344.722,4402.674,343.437,4402.674,343.437L4405.937,343.870C4405.937,343.870,4405.895,343.840,4405.891,343.836C4405.889,343.835,4405.899,343.842,4405.937,343.870C4409.654,346.614,4432.135,361.621,4459.238,364.247C4474.964,365.771,4492.979,367.785,4509.276,364.680C4534.947,361.646,4542.779,356.877,4558.443,350.807C4568.886,342.136,4584.550,326.962,4588.901,313.089C4594.467,298.257,4597.730,282.506,4603.042,267.566C4603.223,267.022,4603.586,266.733,4604.130,266.699ZL4604.130,266.699Z" style="shape-rendering:geometricPrecision;text-rendering:geometricPrecision;image-rendering:optimizeQuality;fill-rule:evenodd;clip-rule:evenodd;fill:#ebbb1f">
              </path>
            </g>
          </g>
          <g id="shape-d39ca38a-ad3c-8047-8004-7ed447a0cd0e">
            <g class="fills" id="fills-d39ca38a-ad3c-8047-8004-7ed447a0cd0e">
              <path d="M4528.856,285.342C4528.828,285.339,4528.799,285.337,4528.856,285.342ZM4486.421,282.668C4460.128,274.344,4433.808,266.058,4407.460,257.812C4404.619,253.471,4401.718,249.208,4398.758,245.022C4398.758,242.565,4398.758,240.109,4398.758,237.652C4401.815,237.247,4404.860,236.742,4407.895,236.134C4409.200,235.845,4410.506,235.845,4411.811,236.134C4422.791,239.159,4433.814,242.049,4444.879,244.805C4472.855,258.311,4500.791,271.796,4528.688,285.261C4528.744,285.288,4528.800,285.315,4528.856,285.342C4528.936,285.414,4529.041,285.486,4529.073,285.559C4530.596,289.027,4530.161,289.244,4528.856,290.111C4525.021,292.818,4470.923,325.984,4466.635,328.046C4456.192,332.381,4445.750,336.717,4435.307,341.052C4426.552,342.292,4417.777,343.376,4408.983,344.304C4406.872,344.038,4404.769,343.748,4402.674,343.437C4402.244,339.836,4402.026,336.223,4402.021,332.598C4404.980,328.220,4408.098,323.956,4411.376,319.809C4423.842,312.718,4479.475,285.962,4486.421,282.668ZM4528.735,285.330C4528.745,285.334,4528.754,285.338,4528.735,285.330Z" style="fill:#d34a24">
              </path>
            </g>
            <g id="strokes-d39ca38a-ad3c-8047-8004-7ed447a0cd0e" class="strokes">
              <g class="outer-stroke-shape">
                <defs>
                  <mask id="outer-stroke-render-279-d39ca38a-ad3c-8047-8004-7ed447a0cd0e-0" x="4394.515028024538" y="231.67497244579218" width="139.76656919881083" height="116.87146570968154" maskUnits="userSpaceOnUse">
                    <use href="#stroke-shape-render-279-d39ca38a-ad3c-8047-8004-7ed447a0cd0e-0" style="fill:none;stroke:white;stroke-width:6">
                    </use>
                    <use href="#stroke-shape-render-279-d39ca38a-ad3c-8047-8004-7ed447a0cd0e-0" style="fill:black;stroke:none">
                    </use>
                  </mask>
                  <path d="M4528.856,285.342C4528.828,285.339,4528.799,285.337,4528.856,285.342ZM4486.421,282.668C4460.128,274.344,4433.808,266.058,4407.460,257.812C4404.619,253.471,4401.718,249.208,4398.758,245.022C4398.758,242.565,4398.758,240.109,4398.758,237.652C4401.815,237.247,4404.860,236.742,4407.895,236.134C4409.200,235.845,4410.506,235.845,4411.811,236.134C4422.791,239.159,4433.814,242.049,4444.879,244.805C4472.855,258.311,4500.791,271.796,4528.688,285.261C4528.744,285.288,4528.800,285.315,4528.856,285.342C4528.936,285.414,4529.041,285.486,4529.073,285.559C4530.596,289.027,4530.161,289.244,4528.856,290.111C4525.021,292.818,4470.923,325.984,4466.635,328.046C4456.192,332.381,4445.750,336.717,4435.307,341.052C4426.552,342.292,4417.777,343.376,4408.983,344.304C4406.872,344.038,4404.769,343.748,4402.674,343.437C4402.244,339.836,4402.026,336.223,4402.021,332.598C4404.980,328.220,4408.098,323.956,4411.376,319.809C4423.842,312.718,4479.475,285.962,4486.421,282.668ZM4528.735,285.330C4528.745,285.334,4528.754,285.338,4528.735,285.330Z" id="stroke-shape-render-279-d39ca38a-ad3c-8047-8004-7ed447a0cd0e-0">
                  </path>
                </defs>
                <use href="#stroke-shape-render-279-d39ca38a-ad3c-8047-8004-7ed447a0cd0e-0" mask="url(#outer-stroke-render-279-d39ca38a-ad3c-8047-8004-7ed447a0cd0e-0)" style="fill:none;stroke-width:6;stroke:#000000;stroke-opacity:1">
                </use>
                <use href="#stroke-shape-render-279-d39ca38a-ad3c-8047-8004-7ed447a0cd0e-0" style="fill:none;fill-opacity:none;stroke-width:3;stroke:none;stroke-opacity:1">
                </use>
              </g>
            </g>
          </g>
        </g>
        <g id="shape-3540ebb7-4f8f-806e-8004-7ed7f625d27f">
          <g class="fills" id="fills-3540ebb7-4f8f-806e-8004-7ed7f625d27f">
            <ellipse cx="4354.129601226994" cy="287.50949367088606" rx="15.164877300613625" ry="15.174050632911388" transform="matrix(1.000000, 0.000000, 0.000000, 1.000000, 0.000000, 0.000000)" style="fill:#ff9037">
            </ellipse>
          </g>
        </g>
      </g>
    </g>
  </g>
</svg>