<svg width="500" xmlns="http://www.w3.org/2000/svg" height="500" id="screenshot-4795fd89-cbe8-8091-8004-77f93fd5419e" viewBox="-2220 1404 323 477" style="-webkit-print-color-adjust::exact" xmlns:xlink="http://www.w3.org/1999/xlink" fill="none" version="1.1">
  <g id="shape-4795fd89-cbe8-8091-8004-77f93fd5419e" style="fill:#000000" version="1.0" width="430.667" height="636" rx="0" ry="0">
    <g id="shape-4795fd89-cbe8-8091-8004-77f93fd642b6" style="fill:#000000" rx="0" ry="0">
      <g id="shape-4795fd89-cbe8-8091-8004-77f93fdb9193">
        <g class="fills" id="fills-4795fd89-cbe8-8091-8004-77f93fdb9193">
          <path d="M-2158.300,1405.600C-2167.800,1407.900,-2175.000,1411.900,-2182.000,1419.000C-2192.400,1429.400,-2197.000,1440.300,-2197.000,1454.500C-2197.000,1468.400,-2192.000,1480.000,-2181.800,1490.200L-2175.100,1496.800L-2177.000,1502.500C-2189.800,1539.600,-2180.500,1582.700,-2153.200,1613.000L-2148.300,1618.500L-2155.900,1622.800C-2182.600,1638.000,-2203.000,1663.000,-2213.100,1692.700C-2223.100,1722.300,-2221.700,1755.900,-2209.400,1784.000C-2205.800,1792.100,-2205.700,1793.000,-2205.400,1805.000C-2205.100,1819.900,-2202.900,1829.800,-2197.100,1841.500C-2178.500,1879.100,-2131.400,1892.100,-2094.600,1869.900L-2087.900,1865.900L-2079.700,1867.600C-2068.200,1870.100,-2046.500,1869.900,-2035.000,1867.200L-2026.500,1865.200L-2022.200,1868.200C-1996.000,1886.300,-1959.200,1884.700,-1934.700,1864.400C-1916.000,1849.000,-1905.200,1820.400,-1908.700,1795.500C-1909.500,1789.900,-1909.300,1788.800,-1905.800,1780.000C-1900.000,1765.100,-1897.700,1752.200,-1897.600,1734.500C-1897.500,1717.800,-1898.700,1709.200,-1903.200,1695.000C-1912.800,1664.600,-1934.300,1637.800,-1960.900,1622.900L-1968.800,1618.500L-1963.200,1612.500C-1936.100,1583.200,-1926.900,1538.800,-1940.100,1501.300L-1943.100,1492.900L-1938.100,1487.400C-1911.700,1458.500,-1928.200,1411.900,-1967.200,1404.900C-1983.000,1402.100,-1998.400,1407.200,-2010.600,1419.400L-2017.700,1426.500L-2026.200,1424.300C-2046.800,1419.100,-2070.000,1419.200,-2090.700,1424.600C-2096.100,1426.000,-2101.500,1427.400,-2102.600,1427.700C-2104.200,1428.100,-2105.200,1427.300,-2106.900,1424.600C-2112.000,1416.400,-2124.400,1408.300,-2136.200,1405.500C-2143.900,1403.700,-2150.700,1403.700,-2158.300,1405.600ZZM-2131.900,1420.200C-2128.800,1421.600,-2124.300,1424.500,-2122.000,1426.600C-2117.800,1430.400,-2113.000,1438.700,-2113.000,1442.200C-2113.000,1445.100,-2111.400,1445.100,-2103.400,1441.900C-2099.200,1440.200,-2091.400,1437.600,-2086.100,1436.200C-2077.600,1434.000,-2074.600,1433.700,-2059.000,1433.700C-2040.100,1433.600,-2033.700,1434.600,-2018.400,1439.900L-2010.200,1442.700L-2008.000,1437.300C-2005.200,1430.600,-1998.700,1424.000,-1991.200,1420.300C-1986.100,1417.800,-1984.400,1417.500,-1975.500,1417.500C-1966.800,1417.500,-1964.800,1417.800,-1959.800,1420.200C-1951.900,1423.900,-1945.600,1430.000,-1941.800,1437.700C-1933.700,1454.200,-1938.800,1474.400,-1953.600,1484.600C-1956.600,1486.700,-1958.900,1488.900,-1958.600,1489.400C-1950.700,1507.500,-1948.300,1515.800,-1947.100,1528.700C-1941.900,1587.200,-1989.000,1637.800,-2052.300,1641.600C-2098.700,1644.500,-2145.200,1616.800,-2162.000,1576.300C-2168.200,1561.400,-2169.400,1555.100,-2169.400,1537.000C-2169.400,1521.900,-2169.100,1519.700,-2166.600,1511.500C-2165.100,1506.500,-2162.600,1499.600,-2161.000,1496.100C-2159.300,1492.600,-2158.000,1489.600,-2158.000,1489.500C-2158.000,1489.300,-2160.200,1488.400,-2162.900,1487.500C-2172.800,1484.300,-2181.400,1473.300,-2184.000,1460.800C-2186.200,1449.900,-2182.700,1438.200,-2174.800,1429.500C-2169.500,1423.700,-2166.600,1421.700,-2159.000,1418.800C-2152.200,1416.100,-2139.200,1416.800,-2131.900,1420.200ZZM-2133.500,1630.700C-2131.300,1632.100,-2129.400,1633.400,-2129.200,1633.600C-2129.000,1633.700,-2133.600,1638.500,-2139.300,1644.100C-2155.900,1660.700,-2167.100,1679.400,-2173.500,1701.800C-2176.000,1710.500,-2178.900,1728.900,-2179.000,1736.100C-2179.000,1738.700,-2179.800,1740.400,-2182.100,1742.600C-2186.500,1746.800,-2193.800,1758.100,-2197.000,1765.600C-2198.500,1769.100,-2199.900,1772.300,-2200.200,1772.500C-2201.000,1773.300,-2204.700,1759.000,-2206.100,1750.000C-2207.900,1738.100,-2206.700,1716.600,-2203.600,1704.500C-2196.500,1677.600,-2178.400,1652.300,-2155.400,1637.400C-2148.300,1632.700,-2139.700,1628.100,-2138.000,1628.000C-2137.700,1628.000,-2135.700,1629.200,-2133.500,1630.700ZZM-1970.000,1632.300C-1943.800,1646.900,-1924.800,1669.600,-1915.600,1697.500C-1908.900,1717.700,-1908.100,1743.500,-1913.600,1762.900L-1915.200,1768.300L-1919.100,1761.100C-1924.200,1751.700,-1927.700,1746.700,-1933.200,1740.700L-1937.700,1735.900L-1939.300,1723.200C-1943.300,1691.600,-1955.600,1666.200,-1977.600,1644.300L-1987.900,1634.100L-1983.700,1631.000C-1979.100,1627.600,-1978.300,1627.700,-1970.000,1632.300ZZM-2109.900,1643.900C-2098.100,1649.200,-2081.600,1653.100,-2065.000,1654.500C-2049.400,1655.800,-2025.800,1651.700,-2008.700,1644.700L-2000.300,1641.300L-1995.400,1645.200C-1974.100,1662.200,-1959.300,1686.600,-1953.600,1714.400C-1951.000,1726.800,-1950.600,1726.400,-1960.200,1722.800C-1998.100,1709.000,-2038.400,1735.200,-2050.600,1781.500C-2054.000,1794.300,-2054.400,1813.500,-2051.600,1824.500C-2049.400,1832.800,-2044.400,1844.100,-2040.100,1850.400L-2037.000,1854.900L-2041.700,1855.700C-2047.600,1856.700,-2072.800,1856.700,-2075.300,1855.800C-2076.800,1855.100,-2076.600,1854.400,-2073.000,1849.100C-2068.500,1842.500,-2065.100,1834.800,-2062.400,1825.000C-2059.700,1815.500,-2060.000,1793.300,-2062.800,1782.800C-2071.100,1752.200,-2089.800,1730.000,-2114.000,1722.000C-2128.000,1717.400,-2145.100,1718.600,-2158.800,1725.000L-2165.300,1728.000L-2164.700,1722.300C-2161.800,1695.400,-2145.100,1664.800,-2123.700,1647.000C-2119.700,1643.700,-2116.400,1641.000,-2116.400,1641.000C-2116.300,1641.000,-2113.400,1642.300,-2109.900,1643.900ZZM-2120.500,1733.500C-2086.600,1742.400,-2064.400,1789.100,-2076.400,1826.600C-2080.800,1840.300,-2089.100,1851.200,-2101.200,1859.100C-2117.700,1869.700,-2141.900,1870.800,-2160.200,1861.800C-2168.900,1857.500,-2181.500,1844.700,-2185.700,1836.000C-2196.200,1814.400,-2195.000,1789.000,-2182.600,1765.300C-2176.200,1753.200,-2165.700,1742.500,-2154.800,1736.900C-2145.400,1732.100,-2131.400,1730.700,-2120.500,1733.500ZZM-1968.500,1733.500C-1934.600,1742.400,-1912.400,1789.100,-1924.400,1826.600C-1928.800,1840.300,-1937.100,1851.200,-1949.200,1859.100C-1965.700,1869.700,-1989.900,1870.800,-2008.200,1861.800C-2017.100,1857.400,-2029.500,1844.700,-2033.800,1835.700C-2044.200,1814.100,-2043.000,1789.000,-2030.600,1765.300C-2024.200,1753.200,-2013.700,1742.500,-2002.800,1736.900C-1993.400,1732.100,-1979.400,1730.700,-1968.500,1733.500ZZ">
          </path>
        </g>
      </g>
      <g id="shape-4795fd89-cbe8-8091-8004-77f93fdece81">
        <g class="fills" id="fills-4795fd89-cbe8-8091-8004-77f93fdece81">
          <path d="M-2097.500,1519.900C-2104.800,1523.200,-2107.500,1530.300,-2104.100,1537.300C-2101.500,1542.600,-2097.600,1545.000,-2091.500,1545.000C-2087.300,1545.000,-2086.300,1544.500,-2082.900,1541.100C-2079.500,1537.700,-2079.000,1536.700,-2079.000,1532.500C-2079.000,1526.500,-2081.400,1522.500,-2086.500,1520.000C-2091.500,1517.600,-2092.400,1517.600,-2097.500,1519.900ZL-2097.500,1519.900Z">
          </path>
        </g>
      </g>
      <g id="shape-4795fd89-cbe8-8091-8004-77f93fdf8931">
        <g class="fills" id="fills-4795fd89-cbe8-8091-8004-77f93fdf8931">
          <path d="M-2028.400,1519.000C-2039.500,1522.400,-2041.300,1538.200,-2031.100,1543.500C-2019.100,1549.600,-2006.100,1536.600,-2013.000,1525.300C-2016.300,1519.800,-2022.500,1517.300,-2028.400,1519.000ZL-2028.400,1519.000Z">
          </path>
        </g>
      </g>
      <g id="shape-4795fd89-cbe8-8091-8004-77f93fe179a5">
        <g class="fills" id="fills-4795fd89-cbe8-8091-8004-77f93fe179a5">
          <path d="M-2076.200,1549.000C-2097.900,1552.700,-2109.000,1564.700,-2109.000,1584.400C-2108.900,1616.400,-2079.100,1640.400,-2047.800,1633.900C-2038.600,1632.000,-2030.100,1627.200,-2022.900,1620.100C-2012.500,1609.700,-2007.800,1598.500,-2007.700,1584.100C-2007.700,1576.700,-2008.100,1574.600,-2010.500,1569.200C-2015.100,1558.800,-2024.100,1552.600,-2038.700,1549.500C-2046.000,1547.900,-2068.100,1547.700,-2076.200,1549.000ZZM-2045.200,1555.000C-2024.400,1557.600,-2015.200,1565.700,-2014.200,1582.100C-2013.500,1594.600,-2017.200,1604.600,-2026.000,1614.400C-2031.900,1620.800,-2043.000,1626.900,-2050.400,1627.700L-2055.000,1628.300L-2055.000,1618.600C-2055.000,1610.600,-2054.700,1609.000,-2053.500,1609.000C-2051.100,1609.000,-2044.800,1605.500,-2042.300,1602.800C-2038.900,1599.200,-2037.000,1593.600,-2037.000,1587.400C-2037.000,1582.400,-2037.300,1581.500,-2040.300,1578.500C-2044.400,1574.400,-2052.500,1572.500,-2062.300,1573.300C-2075.000,1574.400,-2080.500,1579.500,-2079.700,1589.700C-2079.000,1598.900,-2072.400,1606.600,-2062.700,1609.400C-2061.200,1609.900,-2061.000,1611.200,-2061.000,1619.100L-2061.000,1628.300L-2066.200,1627.700C-2078.400,1626.200,-2092.500,1615.600,-2098.000,1603.800C-2108.000,1582.400,-2102.100,1563.600,-2083.400,1557.500C-2073.500,1554.300,-2058.700,1553.300,-2045.200,1555.000ZZ">
          </path>
        </g>
      </g>
    </g>
  </g>
</svg>