<svg width="503.5" xmlns="http://www.w3.org/2000/svg" height="503.5"
        id="screenshot-1561576d-332c-80d0-8004-73e01cdbb394" viewBox="-431 845 503.5 503.5"
        style="-webkit-print-color-adjust:exact" xmlns:xlink="http://www.w3.org/1999/xlink" fill="none" version="1.1">
        <g id="shape-1561576d-332c-80d0-8004-73e01cdbb394" style="fill:#000000" width="503" height="503" rx="0" ry="0">
          <g id="shape-1561576d-332c-80d0-8004-73e134cf5358">
            <g class="fills" id="fills-1561576d-332c-80d0-8004-73e134cf5358">
              <path
                d="M-132.000,1266.000C-132.000,1265.333,-132.000,1264.667,-132.000,1264.000C-130.520,1261.112,-129.187,1258.112,-128.000,1255.000C-125.610,1251.934,-123.610,1248.600,-122.000,1245.000C-119.956,1244.469,-118.289,1243.302,-117.000,1241.500C-123.348,1240.331,-129.681,1239.164,-136.000,1238.000C-142.347,1237.093,-148.680,1236.093,-155.000,1235.000C-157.264,1234.281,-159.597,1233.948,-162.000,1234.000C-163.879,1233.159,-165.879,1232.825,-168.000,1233.000C-169.208,1232.266,-170.541,1231.933,-172.000,1232.000C-173.333,1231.667,-174.667,1231.333,-176.000,1231.000C-176.667,1231.000,-177.333,1231.000,-178.000,1231.000C-178.333,1231.000,-178.667,1231.000,-179.000,1231.000C-179.667,1231.000,-180.333,1231.000,-181.000,1231.000C-181.709,1230.096,-182.709,1229.763,-184.000,1230.000C-184.667,1230.000,-185.333,1230.000,-186.000,1230.000C-186.709,1229.096,-187.709,1228.763,-189.000,1229.000C-190.000,1229.000,-191.000,1229.000,-192.000,1229.000C-193.068,1228.066,-194.401,1227.732,-196.000,1228.000C-197.935,1227.350,-199.935,1227.017,-202.000,1227.000C-205.613,1224.003,-207.279,1225.003,-207.000,1230.000C-208.517,1237.262,-212.851,1239.595,-220.000,1237.000C-222.098,1235.586,-223.098,1236.252,-223.000,1239.000C-223.000,1243.000,-223.000,1247.000,-223.000,1251.000C-223.463,1253.982,-223.796,1256.982,-224.000,1260.000C-224.667,1262.333,-225.333,1264.667,-226.000,1267.000C-230.296,1278.964,-237.629,1288.630,-248.000,1296.000C-258.123,1302.038,-269.123,1305.038,-281.000,1305.000C-291.348,1304.772,-301.015,1302.106,-310.000,1297.000C-316.631,1292.037,-322.631,1286.370,-328.000,1280.000C-331.988,1271.368,-334.988,1262.368,-337.000,1253.000C-338.312,1249.964,-340.646,1247.798,-344.000,1246.500C-349.554,1241.772,-354.888,1236.939,-360.000,1232.000C-363.242,1226.519,-366.242,1220.852,-369.000,1215.000C-369.629,1212.103,-370.629,1209.436,-372.000,1207.000C-372.973,1204.552,-373.306,1201.885,-373.000,1199.000C-372.949,1194.093,-370.616,1190.593,-366.000,1188.500C-355.772,1183.490,-345.439,1178.990,-335.000,1175.000C-334.000,1175.000,-333.000,1175.000,-332.000,1175.000C-332.142,1171.350,-331.475,1167.850,-330.000,1164.500C-333.301,1160.401,-335.968,1155.901,-338.000,1151.000C-338.629,1148.103,-339.629,1145.436,-341.000,1143.000C-341.052,1133.982,-340.718,1124.982,-340.000,1116.000C-340.000,1115.333,-340.000,1114.667,-340.000,1114.000C-336.960,1109.064,-334.460,1103.731,-332.500,1098.000C-328.830,1093.498,-324.997,1089.165,-321.000,1085.000C-312.644,1079.633,-304.311,1074.299,-296.000,1069.000C-287.355,1065.012,-278.688,1061.012,-270.000,1057.000C-269.079,1054.723,-268.413,1052.390,-268.000,1050.000C-261.552,1043.527,-254.052,1042.194,-245.500,1046.000C-243.279,1046.107,-241.446,1045.440,-240.000,1044.000C-231.525,1041.625,-223.525,1038.291,-216.000,1034.000C-219.209,1027.890,-218.209,1022.556,-213.000,1018.000C-210.766,1017.053,-208.432,1016.386,-206.000,1016.000C-200.595,1017.484,-195.095,1018.484,-189.500,1019.000C-186.540,1019.459,-184.374,1018.459,-183.000,1016.000C-179.876,1014.374,-177.209,1012.208,-175.000,1009.500C-176.036,1007.599,-177.202,1005.765,-178.500,1004.000C-180.974,996.120,-178.474,990.620,-171.000,987.500C-165.650,987.935,-160.317,987.768,-155.000,987.000C-153.362,984.196,-151.529,981.529,-149.500,979.000C-150.757,975.494,-151.924,971.828,-153.000,968.000C-153.133,962.133,-150.466,958.133,-145.000,956.000C-144.333,956.000,-143.667,956.000,-143.000,956.000C-140.112,956.510,-137.779,955.844,-136.000,954.000C-134.364,950.290,-133.698,946.290,-134.000,942.000C-134.000,941.667,-134.000,941.333,-134.000,941.000C-133.189,937.069,-132.189,933.069,-131.000,929.000C-128.535,926.663,-125.535,925.163,-122.000,924.500C-115.033,923.503,-108.033,923.003,-101.000,923.000L-101.000,923.000C-82.496,922.944,-64.163,924.611,-46.000,928.000C-30.227,931.193,-14.560,934.860,1.000,939.000C9.406,941.524,17.739,944.358,26.000,947.500C28.290,949.277,29.957,951.444,31.000,954.000C32.673,958.523,33.840,963.190,34.500,968.000C34.671,976.510,35.171,984.843,36.000,993.000C36.167,1003.672,36.000,1014.339,35.500,1025.000C33.542,1037.252,32.375,1049.585,32.000,1062.000C32.333,1077.015,31.999,1092.015,31.000,1107.000C29.435,1111.187,28.768,1115.520,29.000,1120.000C28.667,1120.000,28.333,1120.000,28.000,1120.000C25.962,1124.440,24.296,1129.107,23.000,1134.000C17.623,1143.467,13.623,1153.467,11.000,1164.000C4.730,1176.354,-0.270,1189.354,-4.000,1203.000C-8.185,1211.379,-11.851,1220.045,-15.000,1229.000C-15.333,1229.667,-15.667,1230.333,-16.000,1231.000C-17.424,1233.015,-18.090,1235.348,-18.000,1238.000C-18.000,1238.333,-18.000,1238.667,-18.000,1239.000C-19.574,1240.602,-20.241,1242.602,-20.000,1245.000C-20.000,1245.333,-20.000,1245.667,-20.000,1246.000C-21.295,1249.767,-21.961,1253.767,-22.000,1258.000C-22.000,1258.333,-22.000,1258.667,-22.000,1259.000C-23.333,1261.667,-23.333,1264.333,-22.000,1267.000C-21.123,1275.633,-20.789,1284.300,-21.000,1293.000C-20.866,1294.792,-21.199,1296.458,-22.000,1298.000C-23.371,1300.436,-24.371,1303.103,-25.000,1306.000C-26.667,1309.333,-28.333,1312.667,-30.000,1316.000C-35.797,1323.469,-42.797,1329.469,-51.000,1334.000C-62.852,1339.253,-75.186,1340.920,-88.000,1339.000C-108.592,1334.239,-122.926,1322.239,-131.000,1303.000C-130.910,1300.348,-131.576,1298.015,-133.000,1296.000C-133.945,1291.095,-134.279,1286.095,-134.000,1281.000C-134.000,1279.340,-134.000,1277.680,-134.000,1276.020C-134.000,1276.013,-134.000,1276.007,-134.000,1276.000C-134.164,1273.313,-133.997,1270.646,-133.500,1268.000C-133.224,1267.091,-132.730,1266.428,-132.000,1266.000ZC-132.011,1266.007,-132.006,1266.003,-132.000,1266.000ZC-132.002,1266.028,-132.004,1266.055,-132.000,1266.000ZM-133.987,1275.963C-133.992,1275.976,-133.996,1275.988,-133.987,1275.963Z"
                style="fill:#1c121f">
              </path>
            </g>
          </g>
          <g id="shape-1561576d-332c-80d0-8004-73e01ce16992" style="opacity:1">
            <g class="fills" id="fills-1561576d-332c-80d0-8004-73e01ce16992">
              <path
                d="M-431.000,845.000C-407.667,845.000,-384.333,845.000,-361.000,845.000C-312.839,906.274,-272.506,972.607,-240.000,1044.000C-241.446,1045.440,-243.279,1046.107,-245.500,1046.000C-254.052,1042.194,-261.552,1043.527,-268.000,1050.000C-313.850,980.116,-368.184,917.116,-431.000,861.000C-431.000,855.667,-431.000,850.333,-431.000,845.000ZZ"
                style="shape-rendering:geometricPrecision;text-rendering:geometricPrecision;image-rendering:optimizeQuality;fill-rule:evenodd;clip-rule:evenodd;fill:#fd8f37">
              </path>
            </g>
          </g>
          <g id="shape-1561576d-332c-80d0-8004-73e01ce29722" style="opacity:1">
            <g class="fills" id="fills-1561576d-332c-80d0-8004-73e01ce29722">
              <path
                d="M-278.000,845.000C-257.667,845.000,-237.333,845.000,-217.000,845.000C-215.667,851.333,-214.333,857.667,-213.000,864.000C-213.241,866.398,-212.574,868.398,-211.000,870.000C-210.333,873.000,-209.667,876.000,-209.000,879.000C-209.241,881.398,-208.574,883.398,-207.000,885.000C-205.643,892.426,-203.976,899.759,-202.000,907.000C-202.090,909.652,-201.424,911.986,-200.000,914.000C-196.622,930.224,-193.622,946.557,-191.000,963.000C-190.079,970.535,-188.746,977.869,-187.000,985.000C-187.056,990.231,-186.389,995.231,-185.000,1000.000C-183.972,1005.245,-183.305,1010.579,-183.000,1016.000C-184.374,1018.459,-186.540,1019.459,-189.500,1019.000C-195.095,1018.484,-200.595,1017.484,-206.000,1016.000C-208.432,1016.386,-210.766,1017.053,-213.000,1018.000C-214.793,1008.333,-217.460,998.999,-221.000,990.000C-224.558,976.329,-228.891,962.996,-234.000,950.000C-246.319,914.052,-260.985,879.052,-278.000,845.000ZZ"
                style="shape-rendering:geometricPrecision;text-rendering:geometricPrecision;image-rendering:optimizeQuality;fill-rule:evenodd;clip-rule:evenodd;fill:#fc8f36">
              </path>
            </g>
          </g>
          <g id="shape-1561576d-332c-80d0-8004-73e01ce4352b" style="opacity:1">
            <g class="fills" id="fills-1561576d-332c-80d0-8004-73e01ce4352b">
              <path
                d="M-27.000,845.000C-6.000,845.000,15.000,845.000,36.000,845.000C34.197,851.742,32.197,858.409,30.000,865.000C28.296,868.438,26.962,872.105,26.000,876.000C17.995,897.028,9.662,918.028,1.000,939.000C-14.560,934.860,-30.227,931.193,-46.000,928.000C-46.268,926.401,-45.934,925.068,-45.000,924.000C-43.426,922.398,-42.759,920.398,-43.000,918.000C-40.825,908.301,-38.492,898.634,-36.000,889.000C-34.576,886.986,-33.910,884.652,-34.000,882.000C-34.000,881.333,-34.000,880.667,-34.000,880.000C-32.576,877.986,-31.910,875.652,-32.000,873.000C-29.753,863.789,-28.086,854.456,-27.000,845.000ZZ"
                style="shape-rendering:geometricPrecision;text-rendering:geometricPrecision;image-rendering:optimizeQuality;fill-rule:evenodd;clip-rule:evenodd;fill:#fc8f36">
              </path>
            </g>
          </g>
          <g id="shape-1561576d-332c-80d0-8004-73e01ce4b8c4" style="opacity:1">
            <g class="fills" id="fills-1561576d-332c-80d0-8004-73e01ce4b8c4">
              <path
                d="M-96.000,845.000C-95.667,845.000,-95.333,845.000,-95.000,845.000C-94.930,861.928,-96.264,878.595,-99.000,895.000C-97.852,878.339,-96.852,861.672,-96.000,845.000ZZ"
                style="shape-rendering:geometricPrecision;text-rendering:geometricPrecision;image-rendering:optimizeQuality;fill-rule:evenodd;clip-rule:evenodd;fill:#ffddc2">
              </path>
            </g>
          </g>
          <g id="shape-1561576d-332c-80d0-8004-73e01ce4fe64" style="opacity:1">
            <g class="fills" id="fills-1561576d-332c-80d0-8004-73e01ce4fe64">
              <path
                d="M30.000,865.000C29.823,869.208,28.490,872.874,26.000,876.000C26.962,872.105,28.296,868.438,30.000,865.000ZZ"
                style="shape-rendering:geometricPrecision;text-rendering:geometricPrecision;image-rendering:optimizeQuality;fill-rule:evenodd;clip-rule:evenodd;fill:#ffcba2">
              </path>
            </g>
          </g>
          <g id="shape-1561576d-332c-80d0-8004-73e01ce4fe65" style="opacity:1">
            <g class="fills" id="fills-1561576d-332c-80d0-8004-73e01ce4fe65">
              <path
                d="M-213.000,864.000C-211.426,865.602,-210.759,867.602,-211.000,870.000C-212.574,868.398,-213.241,866.398,-213.000,864.000ZZ"
                style="shape-rendering:geometricPrecision;text-rendering:geometricPrecision;image-rendering:optimizeQuality;fill-rule:evenodd;clip-rule:evenodd;fill:#ffbf8c">
              </path>
            </g>
          </g>
          <g id="shape-1561576d-332c-80d0-8004-73e01ce5337b" style="opacity:1">
            <g class="fills" id="fills-1561576d-332c-80d0-8004-73e01ce5337b">
              <path
                d="M-32.000,873.000C-31.910,875.652,-32.576,877.986,-34.000,880.000C-34.090,877.348,-33.424,875.014,-32.000,873.000ZZ"
                style="shape-rendering:geometricPrecision;text-rendering:geometricPrecision;image-rendering:optimizeQuality;fill-rule:evenodd;clip-rule:evenodd;fill:#fec79c">
              </path>
            </g>
          </g>
          <g id="shape-1561576d-332c-80d0-8004-73e01ce57ede" style="opacity:1">
            <g class="fills" id="fills-1561576d-332c-80d0-8004-73e01ce57ede">
              <path
                d="M-209.000,879.000C-207.426,880.602,-206.759,882.602,-207.000,885.000C-208.574,883.398,-209.241,881.398,-209.000,879.000ZZ"
                style="shape-rendering:geometricPrecision;text-rendering:geometricPrecision;image-rendering:optimizeQuality;fill-rule:evenodd;clip-rule:evenodd;fill:#ffc190">
              </path>
            </g>
          </g>
          <g id="shape-1561576d-332c-80d0-8004-73e01ce58393" style="opacity:1">
            <g class="fills" id="fills-1561576d-332c-80d0-8004-73e01ce58393">
              <path
                d="M-34.000,882.000C-33.910,884.652,-34.576,886.986,-36.000,889.000C-36.090,886.348,-35.424,884.014,-34.000,882.000ZZ"
                style="shape-rendering:geometricPrecision;text-rendering:geometricPrecision;image-rendering:optimizeQuality;fill-rule:evenodd;clip-rule:evenodd;fill:#fec699">
              </path>
            </g>
          </g>
          <g id="shape-1561576d-332c-80d0-8004-73e01ce58394" style="opacity:1">
            <g class="fills" id="fills-1561576d-332c-80d0-8004-73e01ce58394">
              <path
                d="M-148.000,880.000C-147.186,882.131,-146.686,884.464,-146.500,887.000C-146.000,895.327,-145.834,903.660,-146.000,912.000C-146.885,901.499,-147.552,890.832,-148.000,880.000ZZ"
                style="shape-rendering:geometricPrecision;text-rendering:geometricPrecision;image-rendering:optimizeQuality;fill-rule:evenodd;clip-rule:evenodd;fill:#ffcca4">
              </path>
            </g>
          </g>
          <g id="shape-1561576d-332c-80d0-8004-73e01ce5c0c3" style="opacity:1">
            <g class="fills" id="fills-1561576d-332c-80d0-8004-73e01ce5c0c3">
              <path
                d="M-202.000,907.000C-200.576,909.014,-199.910,911.348,-200.000,914.000C-201.424,911.986,-202.090,909.652,-202.000,907.000ZZ"
                style="shape-rendering:geometricPrecision;text-rendering:geometricPrecision;image-rendering:optimizeQuality;fill-rule:evenodd;clip-rule:evenodd;fill:#fec79b">
              </path>
            </g>
          </g>
          <g id="shape-1561576d-332c-80d0-8004-73e01ce760ac" style="opacity:1">
            <g class="fills" id="fills-1561576d-332c-80d0-8004-73e01ce760ac">
              <path
                d="M-43.000,918.000C-42.759,920.398,-43.426,922.398,-45.000,924.000C-45.241,921.602,-44.574,919.602,-43.000,918.000ZZ"
                style="shape-rendering:geometricPrecision;text-rendering:geometricPrecision;image-rendering:optimizeQuality;fill-rule:evenodd;clip-rule:evenodd;fill:#fec08d">
              </path>
            </g>
          </g>
          <g id="shape-1561576d-332c-80d0-8004-73e01ce8c3a4" style="opacity:1">
            <g class="fills" id="fills-1561576d-332c-80d0-8004-73e01ce8c3a4">
              <path
                d="M31.000,966.000C28.948,966.553,28.615,967.553,30.000,969.000C31.306,977.937,31.973,987.104,32.000,996.500C32.435,1016.838,30.935,1037.005,27.500,1057.000C27.000,1065.994,26.834,1074.994,27.000,1084.000C26.333,1084.000,26.000,1084.333,26.000,1085.000C23.162,1090.004,19.162,1093.837,14.000,1096.500C-0.697,1103.008,-16.030,1107.342,-32.000,1109.500C-45.000,1111.167,-58.000,1112.833,-71.000,1114.500C-99.488,1121.022,-121.988,1136.188,-138.500,1160.000C-140.286,1163.236,-141.786,1166.570,-143.000,1170.000C-144.810,1172.645,-145.810,1175.645,-146.000,1179.000C-187.531,1187.877,-229.531,1190.044,-272.000,1185.500C-289.729,1183.129,-306.062,1177.129,-321.000,1167.500C-329.295,1160.402,-334.629,1151.568,-337.000,1141.000C-337.019,1132.649,-336.685,1124.316,-336.000,1116.000C-330.282,1098.857,-319.282,1086.524,-303.000,1079.000C-285.972,1097.355,-265.305,1109.855,-241.000,1116.500C-229.762,1117.824,-218.762,1116.824,-208.000,1113.500C-163.901,1093.867,-125.068,1066.700,-91.500,1032.000C-78.734,1018.066,-69.568,1002.066,-64.000,984.000C-61.176,979.870,-59.509,975.203,-59.000,970.000C-57.079,960.686,-54.412,951.686,-51.000,943.000C-50.188,944.493,-48.855,945.160,-47.000,945.000C-43.792,945.312,-42.792,944.145,-44.000,941.500C-46.310,941.003,-48.643,940.837,-51.000,941.000C-52.068,940.066,-53.401,939.732,-55.000,940.000C-57.107,939.032,-59.441,938.698,-62.000,939.000C-63.419,938.049,-65.085,937.716,-67.000,938.000C-69.238,936.963,-71.571,936.797,-74.000,937.500C-75.485,939.256,-75.152,940.423,-73.000,941.000C-74.201,948.134,-75.867,955.134,-78.000,962.000C-79.777,965.005,-80.777,968.338,-81.000,972.000C-85.850,988.080,-93.683,1002.747,-104.500,1016.000C-134.120,1046.627,-167.953,1071.460,-206.000,1090.500C-211.570,1092.785,-217.236,1094.785,-223.000,1096.500C-238.356,1097.383,-252.356,1093.383,-265.000,1084.500C-271.878,1079.566,-278.544,1074.400,-285.000,1069.000C-279.897,1065.700,-274.397,1063.033,-268.500,1061.000C-266.217,1064.615,-263.051,1067.115,-259.000,1068.500C-244.833,1071.000,-230.666,1073.500,-216.500,1076.000C-207.018,1074.403,-202.851,1068.736,-204.000,1059.000C-196.163,1055.491,-188.829,1051.158,-182.000,1046.000C-177.044,1046.924,-172.044,1047.591,-167.000,1048.000C-158.311,1048.642,-153.645,1044.642,-153.000,1036.000C-153.167,1034.333,-153.333,1032.667,-153.500,1031.000C-155.207,1029.463,-156.707,1027.796,-158.000,1026.000C-154.622,1022.624,-151.622,1018.957,-149.000,1015.000C-139.422,1017.883,-129.755,1018.383,-120.000,1016.500C-115.241,1012.009,-113.741,1006.509,-115.500,1000.000C-117.000,998.500,-118.500,997.000,-120.000,995.500C-123.884,994.636,-127.551,993.470,-131.000,992.000C-129.068,989.134,-127.401,986.134,-126.000,983.000C-117.541,984.493,-109.041,985.826,-100.500,987.000C-90.625,985.461,-86.625,979.794,-88.500,970.000C-90.587,966.198,-93.754,963.698,-98.000,962.500C-103.084,962.074,-108.084,961.240,-113.000,960.000C-110.520,953.220,-107.853,946.553,-105.000,940.000C-103.805,939.634,-103.139,938.801,-103.000,937.500C-105.069,934.953,-107.569,934.453,-110.500,936.000C-111.079,937.428,-110.912,938.762,-110.000,940.000C-111.814,946.496,-114.147,952.830,-117.000,959.000C-122.048,958.658,-127.048,957.992,-132.000,957.000C-130.316,951.824,-129.650,946.491,-130.000,941.000C-130.000,940.667,-130.000,940.333,-130.000,940.000C-129.000,940.000,-128.000,940.000,-127.000,940.000C-126.785,938.321,-127.452,937.321,-129.000,937.000C-129.396,934.456,-128.729,932.289,-127.000,930.500C-123.852,928.895,-120.519,927.895,-117.000,927.500C-95.898,926.405,-74.898,927.405,-54.000,930.500C-28.457,934.810,-3.457,941.144,21.000,949.500C27.745,952.868,31.078,958.368,31.000,966.000ZZ"
                style="shape-rendering:geometricPrecision;text-rendering:geometricPrecision;image-rendering:optimizeQuality;fill-rule:evenodd;clip-rule:evenodd;fill:#3d7e71">
              </path>
            </g>
          </g>
          <g id="shape-1561576d-332c-80d0-8004-73e01ce9c804" style="opacity:1">
            <g class="fills" id="fills-1561576d-332c-80d0-8004-73e01ce9c804">
              <path
                d="M-123.000,936.000C-120.643,935.837,-118.310,936.003,-116.000,936.500C-114.667,937.500,-114.667,938.500,-116.000,939.500C-118.333,940.167,-120.667,940.167,-123.000,939.500C-124.184,938.355,-124.184,937.188,-123.000,936.000ZZ"
                style="shape-rendering:geometricPrecision;text-rendering:geometricPrecision;image-rendering:optimizeQuality;fill-rule:evenodd;clip-rule:evenodd;fill:#da3248">
              </path>
            </g>
          </g>
          <g id="shape-1561576d-332c-80d0-8004-73e01cea2c14" style="opacity:1">
            <g class="fills" id="fills-1561576d-332c-80d0-8004-73e01cea2c14">
              <path
                d="M-105.000,940.000C-106.667,940.000,-108.333,940.000,-110.000,940.000C-110.912,938.762,-111.079,937.428,-110.500,936.000C-107.569,934.453,-105.069,934.953,-103.000,937.500C-103.139,938.801,-103.805,939.634,-105.000,940.000ZZ"
                style="shape-rendering:geometricPrecision;text-rendering:geometricPrecision;image-rendering:optimizeQuality;fill-rule:evenodd;clip-rule:evenodd;fill:#da3748">
              </path>
            </g>
          </g>
          <g id="shape-1561576d-332c-80d0-8004-73e01cea5929" style="opacity:1">
            <g class="fills" id="fills-1561576d-332c-80d0-8004-73e01cea5929">
              <path
                d="M-99.000,936.000C-96.643,935.837,-94.310,936.003,-92.000,936.500C-90.667,937.500,-90.667,938.500,-92.000,939.500C-94.000,940.167,-96.000,940.167,-98.000,939.500C-98.837,938.489,-99.170,937.322,-99.000,936.000ZZ"
                style="shape-rendering:geometricPrecision;text-rendering:geometricPrecision;image-rendering:optimizeQuality;fill-rule:evenodd;clip-rule:evenodd;fill:#e12b46">
              </path>
            </g>
          </g>
          <g id="shape-1561576d-332c-80d0-8004-73e01cea9c87" style="opacity:1">
            <g class="fills" id="fills-1561576d-332c-80d0-8004-73e01cea9c87">
              <path
                d="M-86.000,936.000C-83.909,935.818,-81.909,936.152,-80.000,937.000C-78.917,937.865,-78.751,938.865,-79.500,940.000C-81.564,941.091,-83.731,941.258,-86.000,940.500C-87.228,939.010,-87.228,937.510,-86.000,936.000ZZ"
                style="shape-rendering:geometricPrecision;text-rendering:geometricPrecision;image-rendering:optimizeQuality;fill-rule:evenodd;clip-rule:evenodd;fill:#d4354a">
              </path>
            </g>
          </g>
          <g id="shape-1561576d-332c-80d0-8004-73e01ceaf478" style="opacity:1">
            <g class="fills" id="fills-1561576d-332c-80d0-8004-73e01ceaf478">
              <path
                d="M-129.000,937.000C-127.452,937.321,-126.785,938.321,-127.000,940.000C-128.000,940.000,-129.000,940.000,-130.000,940.000C-130.237,938.709,-129.904,937.709,-129.000,937.000ZZ"
                style="shape-rendering:geometricPrecision;text-rendering:geometricPrecision;image-rendering:optimizeQuality;fill-rule:evenodd;clip-rule:evenodd;fill:#b53746">
              </path>
            </g>
          </g>
          <g id="shape-1561576d-332c-80d0-8004-73e01ceaf479" style="opacity:1">
            <g class="fills" id="fills-1561576d-332c-80d0-8004-73e01ceaf479">
              <path
                d="M-67.000,938.000C-67.384,941.944,-69.384,942.944,-73.000,941.000C-75.152,940.423,-75.485,939.256,-74.000,937.500C-71.571,936.797,-69.238,936.963,-67.000,938.000ZZ"
                style="shape-rendering:geometricPrecision;text-rendering:geometricPrecision;image-rendering:optimizeQuality;fill-rule:evenodd;clip-rule:evenodd;fill:#e43745">
              </path>
            </g>
          </g>
          <g id="shape-1561576d-332c-80d0-8004-73e01ceb6a0f" style="opacity:1">
            <g class="fills" id="fills-1561576d-332c-80d0-8004-73e01ceb6a0f">
              <path
                d="M-67.000,938.000C-65.085,937.716,-63.419,938.049,-62.000,939.000C-63.291,940.042,-63.291,941.208,-62.000,942.500C-59.690,942.997,-57.357,943.163,-55.000,943.000C-55.000,942.000,-55.000,941.000,-55.000,940.000C-53.401,939.732,-52.068,940.066,-51.000,941.000C-51.000,941.667,-51.000,942.333,-51.000,943.000C-54.412,951.686,-57.079,960.686,-59.000,970.000C-61.038,974.440,-62.704,979.107,-64.000,984.000C-69.568,1002.066,-78.734,1018.066,-91.500,1032.000C-125.068,1066.700,-163.901,1093.867,-208.000,1113.500C-218.762,1116.824,-229.762,1117.824,-241.000,1116.500C-265.305,1109.855,-285.972,1097.355,-303.000,1079.000C-297.653,1074.656,-291.653,1071.323,-285.000,1069.000C-278.544,1074.400,-271.878,1079.566,-265.000,1084.500C-252.356,1093.383,-238.356,1097.383,-223.000,1096.500C-217.236,1094.785,-211.570,1092.785,-206.000,1090.500C-167.953,1071.460,-134.120,1046.627,-104.500,1016.000C-93.683,1002.747,-85.850,988.080,-81.000,972.000C-79.223,968.995,-78.223,965.662,-78.000,962.000C-75.867,955.134,-74.201,948.134,-73.000,941.000C-69.384,942.944,-67.384,941.944,-67.000,938.000ZZ"
                style="shape-rendering:geometricPrecision;text-rendering:geometricPrecision;image-rendering:optimizeQuality;fill-rule:evenodd;clip-rule:evenodd;fill:#fa8e35">
              </path>
            </g>
          </g>
          <g id="shape-1561576d-332c-80d0-8004-73e01cebbd08" style="opacity:1">
            <g class="fills" id="fills-1561576d-332c-80d0-8004-73e01cebbd08">
              <path
                d="M-62.000,939.000C-59.441,938.698,-57.107,939.032,-55.000,940.000C-55.000,941.000,-55.000,942.000,-55.000,943.000C-57.357,943.163,-59.690,942.997,-62.000,942.500C-63.291,941.208,-63.291,940.042,-62.000,939.000ZZ"
                style="shape-rendering:geometricPrecision;text-rendering:geometricPrecision;image-rendering:optimizeQuality;fill-rule:evenodd;clip-rule:evenodd;fill:#f03041">
              </path>
            </g>
          </g>
          <g id="shape-1561576d-332c-80d0-8004-73e01cebdc7c" style="opacity:1">
            <g class="fills" id="fills-1561576d-332c-80d0-8004-73e01cebdc7c">
              <path
                d="M-110.000,940.000C-108.333,940.000,-106.667,940.000,-105.000,940.000C-107.853,946.553,-110.520,953.220,-113.000,960.000C-114.599,960.268,-115.932,959.934,-117.000,959.000C-114.147,952.830,-111.814,946.496,-110.000,940.000ZZ"
                style="shape-rendering:geometricPrecision;text-rendering:geometricPrecision;image-rendering:optimizeQuality;fill-rule:evenodd;clip-rule:evenodd;fill:#e78a3a">
              </path>
            </g>
          </g>
          <g id="shape-1561576d-332c-80d0-8004-73e01cec04df" style="opacity:1">
            <g class="fills" id="fills-1561576d-332c-80d0-8004-73e01cec04df">
              <path
                d="M-51.000,941.000C-48.643,940.837,-46.310,941.003,-44.000,941.500C-42.792,944.145,-43.792,945.312,-47.000,945.000C-48.855,945.160,-50.188,944.493,-51.000,943.000C-51.000,942.333,-51.000,941.667,-51.000,941.000ZZ"
                style="shape-rendering:geometricPrecision;text-rendering:geometricPrecision;image-rendering:optimizeQuality;fill-rule:evenodd;clip-rule:evenodd;fill:#de2d47">
              </path>
            </g>
          </g>
          <g id="shape-1561576d-332c-80d0-8004-73e01cec5d42" style="opacity:1">
            <g class="fills" id="fills-1561576d-332c-80d0-8004-73e01cec5d42">
              <path
                d="M72.000,939.000C72.000,967.000,72.000,995.000,72.000,1023.000C58.667,1036.000,45.333,1049.000,32.000,1062.000C32.375,1049.585,33.542,1037.252,35.500,1025.000C36.000,1014.339,36.167,1003.672,36.000,993.000C36.000,992.667,36.000,992.333,36.000,992.000C48.247,974.506,60.247,956.840,72.000,939.000ZZ"
                style="shape-rendering:geometricPrecision;text-rendering:geometricPrecision;image-rendering:optimizeQuality;fill-rule:evenodd;clip-rule:evenodd;fill:#fb8f37">
              </path>
            </g>
          </g>
          <g id="shape-1561576d-332c-80d0-8004-73e01cecab95" style="opacity:1">
            <g class="fills" id="fills-1561576d-332c-80d0-8004-73e01cecab95">
              <path
                d="M-38.000,942.000C-36.018,942.495,-34.018,942.995,-32.000,943.500C-31.163,944.511,-30.830,945.678,-31.000,947.000C-33.420,947.208,-35.753,946.874,-38.000,946.000C-39.126,944.692,-39.126,943.358,-38.000,942.000ZZ"
                style="shape-rendering:geometricPrecision;text-rendering:geometricPrecision;image-rendering:optimizeQuality;fill-rule:evenodd;clip-rule:evenodd;fill:#df2d47">
              </path>
            </g>
          </g>
          <g id="shape-1561576d-332c-80d0-8004-73e01cecab96" style="opacity:1">
            <g class="fills" id="fills-1561576d-332c-80d0-8004-73e01cecab96">
              <path
                d="M-27.000,945.000C-24.639,945.174,-22.306,945.507,-20.000,946.000C-20.000,947.333,-20.000,948.667,-20.000,950.000C-22.361,949.826,-24.694,949.493,-27.000,949.000C-27.000,947.667,-27.000,946.333,-27.000,945.000ZZ"
                style="shape-rendering:geometricPrecision;text-rendering:geometricPrecision;image-rendering:optimizeQuality;fill-rule:evenodd;clip-rule:evenodd;fill:#df2e47">
              </path>
            </g>
          </g>
          <g id="shape-1561576d-332c-80d0-8004-73e01ced0d07" style="opacity:1">
            <g class="fills" id="fills-1561576d-332c-80d0-8004-73e01ced0d07">
              <path
                d="M-16.000,948.000C-13.333,948.333,-10.667,948.667,-8.000,949.000C-7.647,951.135,-8.480,952.468,-10.500,953.000C-13.988,952.937,-15.821,951.270,-16.000,948.000ZZ"
                style="shape-rendering:geometricPrecision;text-rendering:geometricPrecision;image-rendering:optimizeQuality;fill-rule:evenodd;clip-rule:evenodd;fill:#dc3048">
              </path>
            </g>
          </g>
          <g id="shape-1561576d-332c-80d0-8004-73e01ced0d08" style="opacity:1">
            <g class="fills" id="fills-1561576d-332c-80d0-8004-73e01ced0d08">
              <path
                d="M-4.000,952.000C-1.294,952.075,1.373,952.408,4.000,953.000C3.212,957.297,0.879,958.130,-3.000,955.500C-3.837,954.489,-4.170,953.322,-4.000,952.000ZZ"
                style="shape-rendering:geometricPrecision;text-rendering:geometricPrecision;image-rendering:optimizeQuality;fill-rule:evenodd;clip-rule:evenodd;fill:#d83349">
              </path>
            </g>
          </g>
          <g id="shape-1561576d-332c-80d0-8004-73e01ced50cb" style="opacity:1">
            <g class="fills" id="fills-1561576d-332c-80d0-8004-73e01ced50cb">
              <path
                d="M-431.000,952.000C-382.751,986.892,-337.751,1025.892,-296.000,1069.000C-304.311,1074.299,-312.644,1079.633,-321.000,1085.000C-356.037,1058.312,-392.704,1033.978,-431.000,1012.000C-431.000,992.000,-431.000,972.000,-431.000,952.000ZZ"
                style="shape-rendering:geometricPrecision;text-rendering:geometricPrecision;image-rendering:optimizeQuality;fill-rule:evenodd;clip-rule:evenodd;fill:#fc8f36">
              </path>
            </g>
          </g>
          <g id="shape-1561576d-332c-80d0-8004-73e01ced82a5" style="opacity:1">
            <g class="fills" id="fills-1561576d-332c-80d0-8004-73e01ced82a5">
              <path
                d="M-234.000,950.000C-228.891,962.996,-224.558,976.329,-221.000,990.000C-226.109,977.004,-230.442,963.671,-234.000,950.000ZZ"
                style="shape-rendering:geometricPrecision;text-rendering:geometricPrecision;image-rendering:optimizeQuality;fill-rule:evenodd;clip-rule:evenodd;fill:#ffcca4">
              </path>
            </g>
          </g>
          <g id="shape-1561576d-332c-80d0-8004-73e280c40ccc">
            <g class="fills" id="fills-1561576d-332c-80d0-8004-73e280c40ccc">
              <path
                d="M-143.000,956.000C-143.667,956.000,-144.333,956.000,-145.000,956.000C-144.671,941.157,-145.004,926.490,-146.000,912.000C-145.834,903.660,-146.000,895.327,-146.500,887.000C-146.686,884.464,-147.186,882.131,-148.000,880.000C-148.088,868.295,-148.755,856.629,-150.000,845.000C-132.000,845.000,-114.000,845.000,-96.000,845.000C-96.852,861.672,-97.852,878.339,-99.000,895.000C-99.246,904.367,-99.912,913.701,-101.000,923.000C-108.033,923.003,-115.033,923.503,-122.000,924.500C-125.535,925.163,-128.535,926.663,-131.000,929.000C-132.466,929.847,-133.300,931.180,-133.500,933.000C-133.997,935.646,-134.164,938.313,-134.000,941.000C-134.000,941.312,-134.000,941.625,-134.000,941.938C-134.000,941.956,-134.000,941.974,-134.000,941.992C-134.000,941.995,-134.000,941.997,-134.000,942.000C-133.700,946.257,-134.354,950.228,-135.962,953.913C-135.974,953.942,-135.987,953.971,-136.000,953.999C-136.000,954.000,-136.000,954.000,-136.000,954.000C-137.765,955.830,-140.076,956.500,-143.000,956.000ZC-142.955,956.008,-142.977,956.004,-143.000,956.000ZM-134.013,942.044C-134.009,942.030,-134.004,942.015,-134.013,942.044ZM-136.065,954.015C-136.043,954.010,-136.022,954.005,-136.065,954.015Z"
                style="fill:#fd923c">
              </path>
            </g>
          </g>
          <g id="shape-1561576d-332c-80d0-8004-73e01cee2e8e" style="opacity:1">
            <g class="fills" id="fills-1561576d-332c-80d0-8004-73e01cee2e8e">
              <path
                d="M7.000,956.000C9.489,955.798,11.823,956.298,14.000,957.500C14.837,958.511,15.170,959.678,15.000,961.000C12.573,960.977,10.240,960.477,8.000,959.500C7.163,958.489,6.830,957.322,7.000,956.000ZZ"
                style="shape-rendering:geometricPrecision;text-rendering:geometricPrecision;image-rendering:optimizeQuality;fill-rule:evenodd;clip-rule:evenodd;fill:#dc3048">
              </path>
            </g>
          </g>
          <g id="shape-1561576d-332c-80d0-8004-73e01cee8753" style="opacity:1">
            <g class="fills" id="fills-1561576d-332c-80d0-8004-73e01cee8753">
              <path
                d="M-145.000,960.000C-128.502,961.374,-112.169,963.874,-96.000,967.500C-90.685,972.088,-90.685,976.755,-96.000,981.500C-97.699,982.458,-99.533,982.958,-101.500,983.000C-115.658,980.446,-129.824,977.946,-144.000,975.500C-148.655,972.603,-150.155,968.437,-148.500,963.000C-147.355,961.864,-146.188,960.864,-145.000,960.000ZZ"
                style="shape-rendering:geometricPrecision;text-rendering:geometricPrecision;image-rendering:optimizeQuality;fill-rule:evenodd;clip-rule:evenodd;fill:#eb1e41">
              </path>
            </g>
          </g>
          <g id="shape-1561576d-332c-80d0-8004-73e01cee8754" style="opacity:1">
            <g class="fills" id="fills-1561576d-332c-80d0-8004-73e01cee8754">
              <path
                d="M19.000,960.000C22.847,960.400,25.180,962.400,26.000,966.000C23.451,966.113,21.118,965.446,19.000,964.000C17.874,962.692,17.874,961.358,19.000,960.000ZZ"
                style="shape-rendering:geometricPrecision;text-rendering:geometricPrecision;image-rendering:optimizeQuality;fill-rule:evenodd;clip-rule:evenodd;fill:#d93349">
              </path>
            </g>
          </g>
          <g id="shape-1561576d-332c-80d0-8004-73e01ceeece2" style="opacity:1">
            <g class="fills" id="fills-1561576d-332c-80d0-8004-73e01ceeece2">
              <path
                d="M-78.000,962.000C-78.223,965.662,-79.223,968.995,-81.000,972.000C-80.777,968.338,-79.777,965.005,-78.000,962.000ZZ"
                style="shape-rendering:geometricPrecision;text-rendering:geometricPrecision;image-rendering:optimizeQuality;fill-rule:evenodd;clip-rule:evenodd;fill:#a68750">
              </path>
            </g>
          </g>
          <g id="shape-1561576d-332c-80d0-8004-73e01cef0d14" style="opacity:1">
            <g class="fills" id="fills-1561576d-332c-80d0-8004-73e01cef0d14">
              <path
                d="M-191.000,963.000C-190.278,963.418,-189.778,964.084,-189.500,965.000C-188.121,971.607,-187.287,978.273,-187.000,985.000C-188.746,977.869,-190.079,970.535,-191.000,963.000ZZ"
                style="shape-rendering:geometricPrecision;text-rendering:geometricPrecision;image-rendering:optimizeQuality;fill-rule:evenodd;clip-rule:evenodd;fill:#ffca9f">
              </path>
            </g>
          </g>
          <g id="shape-1561576d-332c-80d0-8004-73e01cef0d15" style="opacity:1">
            <g class="fills" id="fills-1561576d-332c-80d0-8004-73e01cef0d15">
              <path
                d="M31.000,966.000C31.237,967.291,30.904,968.291,30.000,969.000C28.615,967.553,28.948,966.553,31.000,966.000ZZ"
                style="shape-rendering:geometricPrecision;text-rendering:geometricPrecision;image-rendering:optimizeQuality;fill-rule:evenodd;clip-rule:evenodd;fill:#9e3949">
              </path>
            </g>
          </g>
          <g id="shape-1561576d-332c-80d0-8004-73e01cef0d16" style="opacity:1">
            <g class="fills" id="fills-1561576d-332c-80d0-8004-73e01cef0d16">
              <path
                d="M-59.000,970.000C-59.509,975.203,-61.176,979.870,-64.000,984.000C-62.704,979.107,-61.038,974.440,-59.000,970.000ZZ"
                style="shape-rendering:geometricPrecision;text-rendering:geometricPrecision;image-rendering:optimizeQuality;fill-rule:evenodd;clip-rule:evenodd;fill:#948656">
              </path>
            </g>
          </g>
          <g id="shape-1561576d-332c-80d0-8004-73e01cef45a9" style="opacity:1">
            <g class="fills" id="fills-1561576d-332c-80d0-8004-73e01cef45a9">
              <path
                d="M-130.000,982.000C-131.667,985.333,-133.333,988.667,-135.000,992.000C-140.508,991.860,-145.841,990.860,-151.000,989.000C-149.492,984.577,-146.659,981.577,-142.500,980.000C-138.312,980.615,-134.145,981.281,-130.000,982.000ZZ"
                style="shape-rendering:geometricPrecision;text-rendering:geometricPrecision;image-rendering:optimizeQuality;fill-rule:evenodd;clip-rule:evenodd;fill:#3d786c">
              </path>
            </g>
          </g>
          <g id="shape-1561576d-332c-80d0-8004-73e01cef45aa" style="opacity:1">
            <g class="fills" id="fills-1561576d-332c-80d0-8004-73e01cef45aa">
              <path
                d="M-130.000,982.000C-128.541,981.933,-127.208,982.266,-126.000,983.000C-127.401,986.134,-129.068,989.134,-131.000,992.000C-132.333,992.000,-133.667,992.000,-135.000,992.000C-133.333,988.667,-131.667,985.333,-130.000,982.000ZZ"
                style="shape-rendering:geometricPrecision;text-rendering:geometricPrecision;image-rendering:optimizeQuality;fill-rule:evenodd;clip-rule:evenodd;fill:#e98b39">
              </path>
            </g>
          </g>
          <g id="shape-1561576d-332c-80d0-8004-73e01cef9234" style="opacity:1">
            <g class="fills" id="fills-1561576d-332c-80d0-8004-73e01cef9234">
              <path
                d="M-2.000,992.000C-2.587,1003.324,-2.920,1014.657,-3.000,1026.000C-3.188,1033.817,-4.355,1041.484,-6.500,1049.000C-9.782,1051.318,-13.282,1051.651,-17.000,1050.000C-16.834,1059.672,-17.000,1069.339,-17.500,1079.000C-19.776,1081.564,-21.776,1081.230,-23.500,1078.000C-30.822,1060.694,-38.655,1043.694,-47.000,1027.000C-47.000,1025.000,-46.000,1024.000,-44.000,1024.000C-39.448,1025.486,-34.781,1026.152,-30.000,1026.000C-31.770,1014.586,-34.936,1003.586,-39.500,993.000C-40.167,990.333,-40.167,987.667,-39.500,985.000C-38.607,984.419,-37.607,984.085,-36.500,984.000C-25.990,985.779,-15.490,987.613,-5.000,989.500C-3.558,989.877,-2.558,990.710,-2.000,992.000ZZ"
                style="shape-rendering:geometricPrecision;text-rendering:geometricPrecision;image-rendering:optimizeQuality;fill-rule:evenodd;clip-rule:evenodd;fill:#241922">
              </path>
            </g>
          </g>
          <g id="shape-1561576d-332c-80d0-8004-73e01cf08e7a" style="opacity:1">
            <g class="fills" id="fills-1561576d-332c-80d0-8004-73e01cf08e7a">
              <path
                d="M-33.000,989.000C-33.876,988.869,-34.543,989.202,-35.000,990.000C-34.191,991.571,-33.857,993.238,-34.000,995.000C-35.424,992.985,-36.090,990.652,-36.000,988.000C-34.709,987.763,-33.709,988.096,-33.000,989.000ZZ"
                style="shape-rendering:geometricPrecision;text-rendering:geometricPrecision;image-rendering:optimizeQuality;fill-rule:evenodd;clip-rule:evenodd;fill:#9a572a">
              </path>
            </g>
          </g>
          <g id="shape-1561576d-332c-80d0-8004-73e01cf12d0f" style="opacity:1">
            <g class="fills" id="fills-1561576d-332c-80d0-8004-73e01cf12d0f">
              <path
                d="M-33.000,989.000C-24.000,990.333,-15.000,991.667,-6.000,993.000C-6.000,999.333,-6.000,1005.667,-6.000,1012.000C-6.802,1013.452,-7.302,1015.118,-7.500,1017.000C-7.999,1022.657,-8.166,1028.324,-8.000,1034.000C-7.835,1037.682,-8.001,1041.348,-8.500,1045.000C-12.541,1045.458,-16.374,1046.458,-20.000,1048.000C-20.347,1055.888,-21.347,1063.554,-23.000,1071.000C-24.106,1068.446,-24.939,1065.779,-25.500,1063.000C-31.677,1052.146,-37.177,1040.980,-42.000,1029.500C-37.383,1029.976,-32.717,1029.976,-28.000,1029.500C-27.456,1028.783,-26.789,1028.283,-26.000,1028.000C-24.731,1023.768,-25.397,1019.768,-28.000,1016.000C-27.910,1013.348,-28.576,1011.015,-30.000,1009.000C-29.910,1006.348,-30.576,1004.015,-32.000,1002.000C-31.910,999.348,-32.576,997.015,-34.000,995.000C-33.857,993.238,-34.191,991.571,-35.000,990.000C-34.543,989.202,-33.876,988.869,-33.000,989.000ZZ"
                style="shape-rendering:geometricPrecision;text-rendering:geometricPrecision;image-rendering:optimizeQuality;fill-rule:evenodd;clip-rule:evenodd;fill:#f88c34">
              </path>
            </g>
          </g>
          <g id="shape-1561576d-332c-80d0-8004-73e01cf142fb" style="opacity:1">
            <g class="fills" id="fills-1561576d-332c-80d0-8004-73e01cf142fb">
              <path
                d="M-187.000,985.000C-185.611,989.769,-184.944,994.769,-185.000,1000.000C-186.389,995.231,-187.056,990.231,-187.000,985.000ZZ"
                style="shape-rendering:geometricPrecision;text-rendering:geometricPrecision;image-rendering:optimizeQuality;fill-rule:evenodd;clip-rule:evenodd;fill:#febf8b">
              </path>
            </g>
          </g>
          <g id="shape-1561576d-332c-80d0-8004-73e01cf1af3b" style="opacity:1">
            <g class="fills" id="fills-1561576d-332c-80d0-8004-73e01cf1af3b">
              <path
                d="M-170.000,991.000C-154.678,993.387,-139.344,995.887,-124.000,998.500C-119.206,1000.367,-117.706,1003.867,-119.500,1009.000C-120.978,1012.980,-123.812,1014.646,-128.000,1014.000C-142.047,1012.159,-156.047,1009.992,-170.000,1007.500C-177.935,1001.917,-177.935,996.417,-170.000,991.000ZZ"
                style="shape-rendering:geometricPrecision;text-rendering:geometricPrecision;image-rendering:optimizeQuality;fill-rule:evenodd;clip-rule:evenodd;fill:#eb1e41">
              </path>
            </g>
          </g>
          <g id="shape-1561576d-332c-80d0-8004-73e01cf1e6f8" style="opacity:1">
            <g class="fills" id="fills-1561576d-332c-80d0-8004-73e01cf1e6f8">
              <path
                d="M-34.000,995.000C-32.576,997.015,-31.910,999.348,-32.000,1002.000C-33.424,999.985,-34.090,997.652,-34.000,995.000ZZ"
                style="shape-rendering:geometricPrecision;text-rendering:geometricPrecision;image-rendering:optimizeQuality;fill-rule:evenodd;clip-rule:evenodd;fill:#894e29">
              </path>
            </g>
          </g>
          <g id="shape-1561576d-332c-80d0-8004-73e01cf1e6f9" style="opacity:1">
            <g class="fills" id="fills-1561576d-332c-80d0-8004-73e01cf1e6f9">
              <path
                d="M-32.000,1002.000C-30.576,1004.015,-29.910,1006.348,-30.000,1009.000C-31.424,1006.985,-32.090,1004.652,-32.000,1002.000ZZ"
                style="shape-rendering:geometricPrecision;text-rendering:geometricPrecision;image-rendering:optimizeQuality;fill-rule:evenodd;clip-rule:evenodd;fill:#874d29">
              </path>
            </g>
          </g>
          <g id="shape-1561576d-332c-80d0-8004-73e01cf23793" style="opacity:1">
            <g class="fills" id="fills-1561576d-332c-80d0-8004-73e01cf23793">
              <path
                d="M-2.000,992.000C-0.927,1003.356,-1.260,1014.689,-3.000,1026.000C-2.920,1014.657,-2.587,1003.324,-2.000,992.000ZZ"
                style="shape-rendering:geometricPrecision;text-rendering:geometricPrecision;image-rendering:optimizeQuality;fill-rule:evenodd;clip-rule:evenodd;fill:#2d4c4b">
              </path>
            </g>
          </g>
          <g id="shape-1561576d-332c-80d0-8004-73e01cf23794" style="opacity:1">
            <g class="fills" id="fills-1561576d-332c-80d0-8004-73e01cf23794">
              <path
                d="M-153.000,1014.000C-156.019,1017.415,-159.019,1020.749,-162.000,1024.000C-168.476,1023.538,-174.810,1022.371,-181.000,1020.500C-177.667,1017.833,-174.333,1015.167,-171.000,1012.500C-165.000,1012.664,-159.000,1013.164,-153.000,1014.000ZZ"
                style="shape-rendering:geometricPrecision;text-rendering:geometricPrecision;image-rendering:optimizeQuality;fill-rule:evenodd;clip-rule:evenodd;fill:#3d7b6e">
              </path>
            </g>
          </g>
          <g id="shape-1561576d-332c-80d0-8004-73e01cf27476" style="opacity:1">
            <g class="fills" id="fills-1561576d-332c-80d0-8004-73e01cf27476">
              <path
                d="M-30.000,1009.000C-28.576,1011.015,-27.910,1013.348,-28.000,1016.000C-29.424,1013.985,-30.090,1011.652,-30.000,1009.000ZZ"
                style="shape-rendering:geometricPrecision;text-rendering:geometricPrecision;image-rendering:optimizeQuality;fill-rule:evenodd;clip-rule:evenodd;fill:#854c28">
              </path>
            </g>
          </g>
          <g id="shape-1561576d-332c-80d0-8004-73e01cf2a297" style="opacity:1">
            <g class="fills" id="fills-1561576d-332c-80d0-8004-73e01cf2a297">
              <path
                d="M-153.000,1014.000C-151.541,1013.933,-150.208,1014.266,-149.000,1015.000C-151.622,1018.957,-154.622,1022.624,-158.000,1026.000C-159.653,1025.840,-160.986,1025.174,-162.000,1024.000C-159.019,1020.749,-156.019,1017.415,-153.000,1014.000ZZ"
                style="shape-rendering:geometricPrecision;text-rendering:geometricPrecision;image-rendering:optimizeQuality;fill-rule:evenodd;clip-rule:evenodd;fill:#e48839">
              </path>
            </g>
          </g>
          <g id="shape-1561576d-332c-80d0-8004-73e01cf33371" style="opacity:1">
            <g class="fills" id="fills-1561576d-332c-80d0-8004-73e01cf33371">
              <path
                d="M-28.000,1016.000C-25.397,1019.768,-24.731,1023.768,-26.000,1028.000C-26.458,1023.962,-27.124,1019.962,-28.000,1016.000ZZ"
                style="shape-rendering:geometricPrecision;text-rendering:geometricPrecision;image-rendering:optimizeQuality;fill-rule:evenodd;clip-rule:evenodd;fill:#8e5029">
              </path>
            </g>
          </g>
          <g id="shape-1561576d-332c-80d0-8004-73e01cf368cb" style="opacity:1">
            <g class="fills" id="fills-1561576d-332c-80d0-8004-73e01cf368cb">
              <path
                d="M-209.000,1020.000C-193.213,1021.990,-177.547,1024.823,-162.000,1028.500C-155.847,1032.752,-155.514,1037.419,-161.000,1042.500C-162.866,1043.485,-164.866,1043.985,-167.000,1044.000C-180.756,1041.949,-194.422,1039.449,-208.000,1036.500C-215.662,1031.378,-215.995,1025.878,-209.000,1020.000ZZ"
                style="shape-rendering:geometricPrecision;text-rendering:geometricPrecision;image-rendering:optimizeQuality;fill-rule:evenodd;clip-rule:evenodd;fill:#ea1e41">
              </path>
            </g>
          </g>
          <g id="shape-1561576d-332c-80d0-8004-73e01cf368cc" style="opacity:1">
            <g class="fills" id="fills-1561576d-332c-80d0-8004-73e01cf368cc">
              <path
                d="M-6.000,1012.000C-6.217,1019.520,-6.884,1026.854,-8.000,1034.000C-8.166,1028.324,-7.999,1022.657,-7.500,1017.000C-7.302,1015.118,-6.802,1013.452,-6.000,1012.000ZZ"
                style="shape-rendering:geometricPrecision;text-rendering:geometricPrecision;image-rendering:optimizeQuality;fill-rule:evenodd;clip-rule:evenodd;fill:#8f512a">
              </path>
            </g>
          </g>
          <g id="shape-1561576d-332c-80d0-8004-73e01cf3d8d8" style="opacity:1">
            <g class="fills" id="fills-1561576d-332c-80d0-8004-73e01cf3d8d8">
              <path
                d="M-187.000,1045.000C-193.170,1048.919,-199.503,1052.586,-206.000,1056.000C-208.185,1053.738,-210.852,1052.238,-214.000,1051.500C-221.333,1050.167,-228.667,1048.833,-236.000,1047.500C-228.757,1044.377,-221.424,1041.543,-214.000,1039.000C-204.889,1041.007,-195.889,1043.007,-187.000,1045.000ZZ"
                style="shape-rendering:geometricPrecision;text-rendering:geometricPrecision;image-rendering:optimizeQuality;fill-rule:evenodd;clip-rule:evenodd;fill:#3d7b6e">
              </path>
            </g>
          </g>
          <g id="shape-1561576d-332c-80d0-8004-73e01cf3d8d9" style="opacity:1">
            <g class="fills" id="fills-1561576d-332c-80d0-8004-73e01cf3d8d9">
              <path
                d="M-187.000,1045.000C-185.085,1044.716,-183.419,1045.049,-182.000,1046.000C-188.829,1051.158,-196.163,1055.491,-204.000,1059.000C-204.901,1058.210,-205.568,1057.210,-206.000,1056.000C-199.503,1052.586,-193.170,1048.919,-187.000,1045.000ZZ"
                style="shape-rendering:geometricPrecision;text-rendering:geometricPrecision;image-rendering:optimizeQuality;fill-rule:evenodd;clip-rule:evenodd;fill:#ef8c37">
              </path>
            </g>
          </g>
          <g id="shape-1561576d-332c-80d0-8004-73e01cf40f69" style="opacity:1">
            <g class="fills" id="fills-1561576d-332c-80d0-8004-73e01cf40f69">
              <path
                d="M-259.000,1048.000C-244.039,1050.638,-229.039,1053.138,-214.000,1055.500C-206.792,1059.487,-206.126,1064.487,-212.000,1070.500C-213.778,1071.204,-215.612,1071.704,-217.500,1072.000C-231.333,1069.500,-245.167,1067.000,-259.000,1064.500C-262.738,1063.101,-264.404,1060.434,-264.000,1056.500C-264.192,1052.535,-262.525,1049.701,-259.000,1048.000ZZ"
                style="shape-rendering:geometricPrecision;text-rendering:geometricPrecision;image-rendering:optimizeQuality;fill-rule:evenodd;clip-rule:evenodd;fill:#e91e41">
              </path>
            </g>
          </g>
          <g id="shape-1561576d-332c-80d0-8004-73e01cf48b7b" style="opacity:1">
            <g class="fills" id="fills-1561576d-332c-80d0-8004-73e01cf48b7b">
              <path
                d="M72.000,1093.000C72.000,1108.333,72.000,1123.667,72.000,1139.000C52.008,1148.162,31.675,1156.496,11.000,1164.000C13.623,1153.467,17.623,1143.467,23.000,1134.000C25.824,1129.870,27.491,1125.203,28.000,1120.000C28.333,1120.000,28.667,1120.000,29.000,1120.000C43.193,1110.739,57.526,1101.739,72.000,1093.000ZZ"
                style="shape-rendering:geometricPrecision;text-rendering:geometricPrecision;image-rendering:optimizeQuality;fill-rule:evenodd;clip-rule:evenodd;fill:#fb8e36">
              </path>
            </g>
          </g>
          <g id="shape-1561576d-332c-80d0-8004-73e01cf5133b" style="opacity:1">
            <g class="fills" id="fills-1561576d-332c-80d0-8004-73e01cf5133b">
              <path
                d="M25.000,1115.000C22.256,1125.289,18.589,1135.289,14.000,1145.000C2.032,1144.593,-9.968,1145.093,-22.000,1146.500C-47.911,1151.803,-73.244,1159.137,-98.000,1168.500C-104.641,1170.328,-111.308,1171.828,-118.000,1173.000C-100.947,1150.486,-78.613,1135.653,-51.000,1128.500C-35.297,1126.800,-19.630,1124.800,-4.000,1122.500C5.906,1120.774,15.572,1118.274,25.000,1115.000ZZ"
                style="shape-rendering:geometricPrecision;text-rendering:geometricPrecision;image-rendering:optimizeQuality;fill-rule:evenodd;clip-rule:evenodd;fill:#ef2142">
              </path>
            </g>
          </g>
          <g id="shape-1561576d-332c-80d0-8004-73e01cf567af" style="opacity:1">
            <g class="fills" id="fills-1561576d-332c-80d0-8004-73e01cf567af">
              <path
                d="M28.000,1120.000C27.491,1125.203,25.824,1129.870,23.000,1134.000C24.296,1129.107,25.962,1124.440,28.000,1120.000ZZ"
                style="shape-rendering:geometricPrecision;text-rendering:geometricPrecision;image-rendering:optimizeQuality;fill-rule:evenodd;clip-rule:evenodd;fill:#884d29">
              </path>
            </g>
          </g>
          <g id="shape-1561576d-332c-80d0-8004-73e01cf5ce0c" style="opacity:1">
            <g class="fills" id="fills-1561576d-332c-80d0-8004-73e01cf5ce0c">
              <path
                d="M-316.000,1119.000C-312.706,1118.759,-309.706,1119.592,-307.000,1121.500C-295.737,1133.638,-282.070,1141.971,-266.000,1146.500C-261.287,1150.499,-260.787,1154.999,-264.500,1160.000C-265.671,1161.393,-267.171,1162.227,-269.000,1162.500C-292.877,1164.813,-310.710,1155.646,-322.500,1135.000C-324.893,1127.528,-322.727,1122.195,-316.000,1119.000ZZ"
                style="shape-rendering:geometricPrecision;text-rendering:geometricPrecision;image-rendering:optimizeQuality;fill-rule:evenodd;clip-rule:evenodd;fill:#241f29">
              </path>
            </g>
          </g>
          <g id="shape-1561576d-332c-80d0-8004-73e01cf6a6da" style="opacity:1">
            <g class="fills" id="fills-1561576d-332c-80d0-8004-73e01cf6a6da">
              <path
                d="M-318.000,1136.000C-319.243,1131.984,-319.243,1127.984,-318.000,1124.000C-314.687,1121.471,-311.353,1121.638,-308.000,1124.500C-304.316,1128.252,-300.650,1131.919,-297.000,1135.500C-287.064,1141.301,-276.731,1146.301,-266.000,1150.500C-264.056,1154.535,-265.056,1157.535,-269.000,1159.500C-290.461,1161.766,-306.795,1153.932,-318.000,1136.000ZZ"
                style="shape-rendering:geometricPrecision;text-rendering:geometricPrecision;image-rendering:optimizeQuality;fill-rule:evenodd;clip-rule:evenodd;fill:#f5efe5">
              </path>
            </g>
          </g>
          <g id="shape-1561576d-332c-80d0-8004-73e1e0ceae74">
            <g class="fills" id="fills-1561576d-332c-80d0-8004-73e1e0ceae74">
              <path
                d="M-332.000,1257.000C-333.307,1249.915,-333.310,1242.929,-332.008,1236.041C-332.005,1236.028,-332.003,1236.014,-332.000,1236.000C-331.973,1232.611,-330.988,1229.631,-329.046,1227.061C-329.031,1227.040,-329.015,1227.020,-329.000,1227.000C-329.001,1227.026,-329.003,1227.052,-329.005,1227.078C-321.765,1210.604,-309.431,1200.104,-292.000,1195.500C-265.201,1191.405,-245.201,1200.905,-232.000,1224.000C-231.475,1228.033,-230.142,1231.700,-228.000,1235.000C-223.701,1255.963,-229.368,1273.796,-245.000,1288.500C-268.324,1305.132,-291.657,1305.132,-315.000,1288.500C-321.403,1281.815,-326.396,1274.332,-329.978,1266.050C-329.986,1266.033,-329.993,1266.017,-330.000,1266.000C-331.605,1263.350,-332.274,1260.376,-332.000,1257.000ZC-332.004,1257.052,-332.002,1257.026,-332.000,1257.000ZC-331.991,1257.022,-331.982,1257.043,-332.000,1257.000ZM-331.989,1235.984C-331.993,1235.989,-331.996,1235.995,-331.989,1235.984ZM-330.001,1265.981C-330.001,1265.987,-330.000,1265.994,-330.001,1265.981Z"
                style="fill:#fd923c">
              </path>
            </g>
          </g>
          <g id="shape-1561576d-332c-80d0-8004-73e25fc10d9e">
            <g class="fills" id="fills-1561576d-332c-80d0-8004-73e25fc10d9e">
              <path
                d="M-343.000,1142.000C-372.023,1132.412,-401.356,1124.079,-431.000,1117.000C-431.000,1102.333,-431.000,1087.667,-431.000,1073.000C-399.873,1084.930,-369.539,1098.597,-340.000,1114.000C-340.000,1114.646,-340.000,1115.291,-340.000,1115.938C-340.000,1115.958,-340.000,1115.979,-340.000,1116.000C-340.718,1124.982,-341.052,1133.982,-341.000,1143.000C-341.990,1143.172,-342.656,1142.839,-343.000,1142.000ZC-342.999,1142.003,-342.999,1142.002,-343.000,1142.000ZC-342.999,1141.983,-342.998,1141.965,-343.000,1142.000ZM-340.009,1116.052C-340.006,1116.034,-340.003,1116.017,-340.009,1116.052Z"
                style="fill:#fd923c">
              </path>
            </g>
          </g>
          <g id="shape-1561576d-332c-80d0-8004-73e01cf80cc9" style="opacity:1">
            <g class="fills" id="fills-1561576d-332c-80d0-8004-73e01cf80cc9">
              <path
                d="M-7.000,1148.000C-0.632,1147.670,5.702,1148.004,12.000,1149.000C9.226,1155.016,6.393,1161.016,3.500,1167.000C-2.139,1181.319,-7.305,1195.819,-12.000,1210.500C-14.239,1214.028,-17.239,1214.861,-21.000,1213.000C-23.838,1211.154,-26.838,1209.488,-30.000,1208.000C-31.141,1206.079,-31.308,1204.079,-30.500,1202.000C-25.977,1195.631,-20.977,1189.631,-15.500,1184.000C-13.058,1181.462,-12.558,1178.628,-14.000,1175.500C-18.667,1173.833,-23.333,1172.167,-28.000,1170.500C-29.076,1168.774,-29.243,1166.941,-28.500,1165.000C-22.009,1158.327,-14.842,1152.660,-7.000,1148.000ZZ"
                style="shape-rendering:geometricPrecision;text-rendering:geometricPrecision;image-rendering:optimizeQuality;fill-rule:evenodd;clip-rule:evenodd;fill:#f98e37">
              </path>
            </g>
          </g>
          <g id="shape-1561576d-332c-80d0-8004-73e01cf90336" style="opacity:1">
            <g class="fills" id="fills-1561576d-332c-80d0-8004-73e01cf90336">
              <path
                d="M-7.000,1148.000C-14.842,1152.660,-22.009,1158.327,-28.500,1165.000C-29.243,1166.941,-29.076,1168.774,-28.000,1170.500C-23.333,1172.167,-18.667,1173.833,-14.000,1175.500C-12.558,1178.628,-13.058,1181.462,-15.500,1184.000C-20.977,1189.631,-25.977,1195.631,-30.500,1202.000C-31.308,1204.079,-31.141,1206.079,-30.000,1208.000C-26.838,1209.488,-23.838,1211.154,-21.000,1213.000C-38.549,1210.118,-55.882,1206.785,-73.000,1203.000C-68.780,1201.399,-65.114,1199.065,-62.000,1196.000C-62.510,1194.412,-63.510,1193.245,-65.000,1192.500C-70.844,1190.660,-76.344,1188.160,-81.500,1185.000C-82.130,1182.597,-81.297,1180.763,-79.000,1179.500C-73.909,1177.634,-69.575,1174.801,-66.000,1171.000C-68.737,1167.467,-72.404,1165.801,-77.000,1166.000C-54.427,1157.370,-31.093,1151.370,-7.000,1148.000ZZ"
                style="shape-rendering:geometricPrecision;text-rendering:geometricPrecision;image-rendering:optimizeQuality;fill-rule:evenodd;clip-rule:evenodd;fill:#f9f1e7">
              </path>
            </g>
          </g>
          <g id="shape-1561576d-332c-80d0-8004-73e01cf90337" style="opacity:1">
            <g class="fills" id="fills-1561576d-332c-80d0-8004-73e01cf90337">
              <path
                d="M-431.000,1164.000C-416.990,1164.982,-402.990,1166.149,-389.000,1167.500C-371.018,1170.183,-353.018,1172.683,-335.000,1175.000C-345.439,1178.990,-355.772,1183.490,-366.000,1188.500C-370.616,1190.593,-372.949,1194.093,-373.000,1199.000C-392.258,1200.065,-411.592,1200.732,-431.000,1201.000C-431.000,1188.667,-431.000,1176.333,-431.000,1164.000ZZ"
                style="shape-rendering:geometricPrecision;text-rendering:geometricPrecision;image-rendering:optimizeQuality;fill-rule:evenodd;clip-rule:evenodd;fill:#fc8f36">
              </path>
            </g>
          </g>
          <g id="shape-1561576d-332c-80d0-8004-73e01cf96d41" style="opacity:1">
            <g class="fills" id="fills-1561576d-332c-80d0-8004-73e01cf96d41">
              <path
                d="M-77.000,1166.000C-72.404,1165.801,-68.737,1167.467,-66.000,1171.000C-69.575,1174.801,-73.909,1177.634,-79.000,1179.500C-81.297,1180.763,-82.130,1182.597,-81.500,1185.000C-76.344,1188.160,-70.844,1190.660,-65.000,1192.500C-63.510,1193.245,-62.510,1194.412,-62.000,1196.000C-65.114,1199.065,-68.780,1201.399,-73.000,1203.000C-81.392,1202.039,-89.725,1200.706,-98.000,1199.000C-96.918,1190.010,-95.918,1181.010,-95.000,1172.000C-89.415,1169.027,-83.415,1167.027,-77.000,1166.000ZZ"
                style="shape-rendering:geometricPrecision;text-rendering:geometricPrecision;image-rendering:optimizeQuality;fill-rule:evenodd;clip-rule:evenodd;fill:#fa8e36">
              </path>
            </g>
          </g>
          <g id="shape-1561576d-332c-80d0-8004-73e236c48422">
            <g class="fills" id="fills-1561576d-332c-80d0-8004-73e236c48422">
              <path
                d="M-143.000,1170.000C-141.786,1166.570,-140.286,1163.236,-138.500,1160.000C-121.988,1136.188,-99.488,1121.022,-71.000,1114.500C-58.000,1112.833,-45.000,1111.167,-32.000,1109.500C-16.030,1107.342,-0.697,1103.008,14.000,1096.500C19.162,1093.837,23.162,1090.004,26.000,1085.000C27.289,1094.902,26.955,1104.902,25.000,1115.000C15.572,1118.274,5.906,1120.774,-4.000,1122.500C-19.630,1124.800,-35.297,1126.800,-51.000,1128.500C-78.613,1135.653,-100.947,1150.486,-118.000,1173.000C-126.625,1175.938,-135.589,1177.934,-144.891,1178.988C-144.909,1178.990,-144.927,1178.992,-144.945,1178.994C-144.964,1178.996,-144.982,1178.998,-145.000,1179.000C-145.333,1179.000,-145.667,1179.000,-146.000,1179.000C-145.813,1175.697,-144.841,1172.739,-143.084,1170.124C-143.070,1170.103,-143.056,1170.083,-143.000,1170.000ZC-143.028,1170.041,-143.014,1170.021,-143.000,1170.000ZC-143.002,1170.024,-143.004,1170.048,-143.000,1170.000ZM-144.987,1178.966C-144.992,1178.977,-144.996,1178.989,-144.987,1178.966Z"
                style="fill:#fd923c">
              </path>
            </g>
          </g>
          <g id="shape-1561576d-332c-80d0-8004-73e01cf9ada8" style="opacity:1">
            <g class="fills" id="fills-1561576d-332c-80d0-8004-73e01cf9ada8">
              <path
                d="M-102.000,1187.000C-110.297,1189.821,-118.297,1193.155,-126.000,1197.000C-131.537,1196.413,-136.870,1195.413,-142.000,1194.000C-132.711,1188.694,-123.711,1183.028,-115.000,1177.000C-110.126,1175.375,-105.126,1174.375,-100.000,1174.000C-100.124,1178.549,-100.791,1182.882,-102.000,1187.000ZZ"
                style="shape-rendering:geometricPrecision;text-rendering:geometricPrecision;image-rendering:optimizeQuality;fill-rule:evenodd;clip-rule:evenodd;fill:#f8f6f4">
              </path>
            </g>
          </g>
          <g id="shape-1561576d-332c-80d0-8004-73e01cf9d968" style="opacity:1">
            <g class="fills" id="fills-1561576d-332c-80d0-8004-73e01cf9d968">
              <path
                d="M-115.000,1177.000C-123.711,1183.028,-132.711,1188.694,-142.000,1194.000C-145.329,1194.285,-148.329,1193.618,-151.000,1192.000C-146.117,1189.391,-141.784,1186.057,-138.000,1182.000C-130.373,1180.177,-122.706,1178.510,-115.000,1177.000ZZ"
                style="shape-rendering:geometricPrecision;text-rendering:geometricPrecision;image-rendering:optimizeQuality;fill-rule:evenodd;clip-rule:evenodd;fill:#f68e3b">
              </path>
            </g>
          </g>
          <g id="shape-1561576d-332c-80d0-8004-73e01cfa705e" style="opacity:1">
            <g class="fills" id="fills-1561576d-332c-80d0-8004-73e01cfa705e">
              <path
                d="M-334.000,1180.000C-332.443,1183.812,-331.109,1187.812,-330.000,1192.000C-327.112,1196.903,-323.779,1201.570,-320.000,1206.000C-328.245,1214.165,-333.578,1223.831,-336.000,1235.000C-336.381,1238.619,-337.381,1241.952,-339.000,1245.000C-355.401,1234.026,-365.401,1218.859,-369.000,1199.500C-369.692,1195.968,-368.359,1193.635,-365.000,1192.500C-355.087,1187.207,-344.754,1183.041,-334.000,1180.000ZZ"
                style="shape-rendering:geometricPrecision;text-rendering:geometricPrecision;image-rendering:optimizeQuality;fill-rule:evenodd;clip-rule:evenodd;fill:#ed1e42">
              </path>
            </g>
          </g>
          <g id="shape-1561576d-332c-80d0-8004-73e01cfa705f" style="opacity:1">
            <g class="fills" id="fills-1561576d-332c-80d0-8004-73e01cfa705f">
              <path
                d="M-138.000,1182.000C-141.784,1186.057,-146.117,1189.391,-151.000,1192.000C-153.559,1192.302,-155.893,1191.968,-158.000,1191.000C-156.333,1189.000,-154.667,1187.000,-153.000,1185.000C-148.084,1183.617,-143.084,1182.617,-138.000,1182.000ZZ"
                style="shape-rendering:geometricPrecision;text-rendering:geometricPrecision;image-rendering:optimizeQuality;fill-rule:evenodd;clip-rule:evenodd;fill:#f3edea">
              </path>
            </g>
          </g>
          <g id="shape-1561576d-332c-80d0-8004-73e01cfa9c92" style="opacity:1">
            <g class="fills" id="fills-1561576d-332c-80d0-8004-73e01cfa9c92">
              <path
                d="M-153.000,1185.000C-154.667,1187.000,-156.333,1189.000,-158.000,1191.000C-159.915,1191.284,-161.581,1190.951,-163.000,1190.000C-161.900,1188.895,-161.233,1187.562,-161.000,1186.000C-158.446,1185.112,-155.779,1184.779,-153.000,1185.000ZZ"
                style="shape-rendering:geometricPrecision;text-rendering:geometricPrecision;image-rendering:optimizeQuality;fill-rule:evenodd;clip-rule:evenodd;fill:#f39042">
              </path>
            </g>
          </g>
          <g id="shape-1561576d-332c-80d0-8004-73e01cfafdc8" style="opacity:1">
            <g class="fills" id="fills-1561576d-332c-80d0-8004-73e01cfafdc8">
              <path
                d="M-168.000,1187.000C-168.000,1188.000,-168.000,1189.000,-168.000,1190.000C-177.333,1189.000,-177.333,1188.000,-168.000,1187.000ZZ"
                style="shape-rendering:geometricPrecision;text-rendering:geometricPrecision;image-rendering:optimizeQuality;fill-rule:evenodd;clip-rule:evenodd;fill:#bd7a4b">
              </path>
            </g>
          </g>
          <g id="shape-1561576d-332c-80d0-8004-73e01cfb3503" style="opacity:1">
            <g class="fills" id="fills-1561576d-332c-80d0-8004-73e01cfb3503">
              <path
                d="M-161.000,1186.000C-161.233,1187.562,-161.900,1188.895,-163.000,1190.000C-164.667,1190.000,-166.333,1190.000,-168.000,1190.000C-168.000,1189.000,-168.000,1188.000,-168.000,1187.000C-165.736,1186.281,-163.403,1185.948,-161.000,1186.000ZZ"
                style="shape-rendering:geometricPrecision;text-rendering:geometricPrecision;image-rendering:optimizeQuality;fill-rule:evenodd;clip-rule:evenodd;fill:#efeae8;fill-opacity:1">
              </path>
            </g>
          </g>
          <g id="shape-1561576d-332c-80d0-8004-73e01cfba17d" style="opacity:1">
            <g class="fills" id="fills-1561576d-332c-80d0-8004-73e01cfba17d">
              <path
                d="M-102.000,1187.000C-102.795,1191.285,-103.128,1195.619,-103.000,1200.000C-110.778,1199.759,-118.444,1198.759,-126.000,1197.000C-118.297,1193.155,-110.297,1189.821,-102.000,1187.000ZZ"
                style="shape-rendering:geometricPrecision;text-rendering:geometricPrecision;image-rendering:optimizeQuality;fill-rule:evenodd;clip-rule:evenodd;fill:#f38c38">
              </path>
            </g>
          </g>
          <g id="shape-1561576d-332c-80d0-8004-73e01cfbdb91" style="opacity:1">
            <g class="fills" id="fills-1561576d-332c-80d0-8004-73e01cfbdb91">
              <path
                d="M72.000,1188.000C72.000,1200.667,72.000,1213.333,72.000,1226.000C43.023,1227.555,14.023,1228.555,-15.000,1229.000C-11.851,1220.045,-8.185,1211.379,-4.000,1203.000C21.425,1198.515,46.759,1193.515,72.000,1188.000ZZ"
                style="shape-rendering:geometricPrecision;text-rendering:geometricPrecision;image-rendering:optimizeQuality;fill-rule:evenodd;clip-rule:evenodd;fill:#fb8f36">
              </path>
            </g>
          </g>
          <g id="shape-1561576d-332c-80d0-8004-73e01cfbdb92" style="opacity:1">
            <g class="fills" id="fills-1561576d-332c-80d0-8004-73e01cfbdb92">
              <path
                d="M-182.000,1192.000C-182.000,1192.333,-182.000,1192.667,-182.000,1193.000C-185.583,1191.982,-189.250,1191.149,-193.000,1190.500C-189.052,1189.755,-185.385,1190.255,-182.000,1192.000ZZ"
                style="shape-rendering:geometricPrecision;text-rendering:geometricPrecision;image-rendering:optimizeQuality;fill-rule:evenodd;clip-rule:evenodd;fill:#76172d">
              </path>
            </g>
          </g>
          <g id="shape-1561576d-332c-80d0-8004-73e01cfc34cf" style="opacity:1">
            <g class="fills" id="fills-1561576d-332c-80d0-8004-73e01cfc34cf">
              <path
                d="M-182.000,1192.000C-156.667,1196.000,-131.333,1200.000,-106.000,1204.000C-106.202,1206.489,-105.702,1208.823,-104.500,1211.000C-101.517,1214.313,-98.183,1217.313,-94.500,1220.000C-92.003,1223.851,-92.837,1226.684,-97.000,1228.500C-102.024,1229.419,-107.024,1230.419,-112.000,1231.500C-114.000,1232.833,-116.000,1234.167,-118.000,1235.500C-120.667,1236.167,-123.333,1236.167,-126.000,1235.500C-150.977,1231.059,-175.977,1226.726,-201.000,1222.500C-205.487,1221.200,-207.487,1218.200,-207.000,1213.500C-207.684,1209.514,-206.018,1207.181,-202.000,1206.500C-196.654,1205.970,-191.321,1206.137,-186.000,1207.000C-178.729,1207.735,-176.395,1204.735,-179.000,1198.000C-179.820,1196.181,-180.820,1194.514,-182.000,1193.000C-182.000,1192.667,-182.000,1192.333,-182.000,1192.000ZZ"
                style="shape-rendering:geometricPrecision;text-rendering:geometricPrecision;image-rendering:optimizeQuality;fill-rule:evenodd;clip-rule:evenodd;fill:#ed1e42">
              </path>
            </g>
          </g>
          <g id="shape-1561576d-332c-80d0-8004-73e01cfcccc9" style="opacity:1">
            <g class="fills" id="fills-1561576d-332c-80d0-8004-73e01cfcccc9">
              <path
                d="M-248.000,1236.000C-246.667,1244.000,-246.667,1252.000,-248.000,1260.000C-256.813,1277.239,-270.813,1284.073,-290.000,1280.500C-299.062,1277.263,-305.729,1271.430,-310.000,1263.000C-310.629,1260.103,-311.629,1257.436,-313.000,1255.000C-313.838,1246.327,-312.671,1237.993,-309.500,1230.000C-296.293,1212.784,-280.126,1209.284,-261.000,1219.500C-254.541,1223.444,-250.208,1228.944,-248.000,1236.000ZZ"
                style="shape-rendering:geometricPrecision;text-rendering:geometricPrecision;image-rendering:optimizeQuality;fill-rule:evenodd;clip-rule:evenodd;fill:#1d121e">
              </path>
            </g>
          </g>
          <g id="shape-1561576d-332c-80d0-8004-73e01cfd5cbf" style="opacity:1">
            <g class="fills" id="fills-1561576d-332c-80d0-8004-73e01cfd5cbf">
              <path
                d="M-202.000,1227.000C-203.399,1228.390,-205.066,1229.390,-207.000,1230.000C-207.279,1225.003,-205.613,1224.003,-202.000,1227.000ZZ"
                style="shape-rendering:geometricPrecision;text-rendering:geometricPrecision;image-rendering:optimizeQuality;fill-rule:evenodd;clip-rule:evenodd;fill:#ca763c">
              </path>
            </g>
          </g>
          <g id="shape-1561576d-332c-80d0-8004-73e01cfda584" style="opacity:1">
            <g class="fills" id="fills-1561576d-332c-80d0-8004-73e01cfda584">
              <path
                d="M-202.000,1227.000C-199.935,1227.017,-197.935,1227.350,-196.000,1228.000C-204.667,1235.667,-213.333,1243.333,-222.000,1251.000C-222.333,1251.000,-222.667,1251.000,-223.000,1251.000C-223.000,1247.000,-223.000,1243.000,-223.000,1239.000C-221.473,1239.073,-220.473,1238.406,-220.000,1237.000C-212.851,1239.595,-208.517,1237.262,-207.000,1230.000C-205.066,1229.390,-203.399,1228.390,-202.000,1227.000ZZ"
                style="shape-rendering:geometricPrecision;text-rendering:geometricPrecision;image-rendering:optimizeQuality;fill-rule:evenodd;clip-rule:evenodd;fill:#f4eeec">
              </path>
            </g>
          </g>
          <g id="shape-1561576d-332c-80d0-8004-73e01cfebf90" style="opacity:1">
            <g class="fills" id="fills-1561576d-332c-80d0-8004-73e01cfebf90">
              <path
                d="M-130.000,1290.000C-130.505,1280.038,-129.172,1270.371,-126.000,1261.000C-120.964,1249.129,-112.631,1240.296,-101.000,1234.500C-74.674,1224.365,-52.174,1229.865,-33.500,1251.000C-17.570,1278.996,-21.404,1303.829,-45.000,1325.500C-76.446,1343.885,-102.779,1338.385,-124.000,1309.000C-126.755,1302.882,-128.755,1296.549,-130.000,1290.000ZZ"
                style="shape-rendering:geometricPrecision;text-rendering:geometricPrecision;image-rendering:optimizeQuality;fill-rule:evenodd;clip-rule:evenodd;fill:#f78b34">
              </path>
            </g>
          </g>
          <g id="shape-1561576d-332c-80d0-8004-73e01cfef56c" style="opacity:1">
            <g class="fills" id="fills-1561576d-332c-80d0-8004-73e01cfef56c">
              <path
                d="M-360.000,1232.000C-354.888,1236.939,-349.554,1241.772,-344.000,1246.500C-340.646,1247.798,-338.312,1249.964,-337.000,1253.000C-369.082,1262.694,-400.415,1274.360,-431.000,1288.000C-431.000,1274.333,-431.000,1260.667,-431.000,1247.000C-407.460,1241.375,-383.793,1236.375,-360.000,1232.000ZZ"
                style="shape-rendering:geometricPrecision;text-rendering:geometricPrecision;image-rendering:optimizeQuality;fill-rule:evenodd;clip-rule:evenodd;fill:#fc8f36">
              </path>
            </g>
          </g>
          <g id="shape-1561576d-332c-80d0-8004-73e01cff6b3e" style="opacity:1">
            <g class="fills" id="fills-1561576d-332c-80d0-8004-73e01cff6b3e">
              <path
                d="M-293.000,1253.000C-294.226,1248.678,-294.226,1244.345,-293.000,1240.000C-288.820,1232.591,-282.486,1230.091,-274.000,1232.500C-264.142,1236.836,-261.308,1244.003,-265.500,1254.000C-270.345,1260.840,-276.845,1263.340,-285.000,1261.500C-288.548,1259.453,-291.215,1256.620,-293.000,1253.000ZZ"
                style="shape-rendering:geometricPrecision;text-rendering:geometricPrecision;image-rendering:optimizeQuality;fill-rule:evenodd;clip-rule:evenodd;fill:#eb1e42">
              </path>
            </g>
          </g>
          <g id="shape-1561576d-332c-80d0-8004-73e01d009ecb" style="opacity:1">
            <g class="fills" id="fills-1561576d-332c-80d0-8004-73e01d009ecb">
              <path
                d="M-172.000,1232.000C-170.541,1231.933,-169.208,1232.266,-168.000,1233.000C-157.637,1249.740,-146.304,1265.740,-134.000,1281.000C-134.279,1286.095,-133.945,1291.095,-133.000,1296.000C-133.090,1298.652,-132.424,1300.985,-131.000,1303.000C-122.926,1322.239,-108.592,1334.239,-88.000,1339.000C-85.285,1341.714,-82.951,1344.714,-81.000,1348.000C-90.667,1348.000,-100.333,1348.000,-110.000,1348.000C-132.801,1310.517,-153.468,1271.850,-172.000,1232.000ZL-172.000,1232.000Z"
                style="shape-rendering:geometricPrecision;text-rendering:geometricPrecision;image-rendering:optimizeQuality;fill-rule:evenodd;clip-rule:evenodd;fill:#f98f39">
              </path>
            </g>
          </g>
          <g id="shape-1561576d-332c-80d0-8004-73e01d01fea6" style="opacity:1">
            <g class="fills" id="fills-1561576d-332c-80d0-8004-73e01d01fea6">
              <path
                d="M-162.000,1234.000C-159.597,1233.948,-157.264,1234.281,-155.000,1235.000C-146.000,1241.667,-137.000,1248.333,-128.000,1255.000C-129.187,1258.112,-130.520,1261.112,-132.000,1264.000C-142.333,1254.333,-152.333,1244.333,-162.000,1234.000ZZ"
                style="shape-rendering:geometricPrecision;text-rendering:geometricPrecision;image-rendering:optimizeQuality;fill-rule:evenodd;clip-rule:evenodd;fill:#fb933f">
              </path>
            </g>
          </g>
          <g id="shape-1561576d-332c-80d0-8004-73e01d020818" style="opacity:1">
            <g class="fills" id="fills-1561576d-332c-80d0-8004-73e01d020818">
              <path
                d="M-16.000,1231.000C-15.910,1233.652,-16.576,1235.985,-18.000,1238.000C-18.090,1235.348,-17.424,1233.015,-16.000,1231.000ZZ"
                style="shape-rendering:geometricPrecision;text-rendering:geometricPrecision;image-rendering:optimizeQuality;fill-rule:evenodd;clip-rule:evenodd;fill:#8c878e">
              </path>
            </g>
          </g>
          <g id="shape-1561576d-332c-80d0-8004-73e01d032072" style="opacity:1">
            <g class="fills" id="fills-1561576d-332c-80d0-8004-73e01d032072">
              <path
                d="M-220.000,1237.000C-220.473,1238.406,-221.473,1239.073,-223.000,1239.000C-223.098,1236.252,-222.098,1235.586,-220.000,1237.000ZZ"
                style="shape-rendering:geometricPrecision;text-rendering:geometricPrecision;image-rendering:optimizeQuality;fill-rule:evenodd;clip-rule:evenodd;fill:#e68940">
              </path>
            </g>
          </g>
          <g id="shape-1561576d-332c-80d0-8004-73e01d032073" style="opacity:1">
            <g class="fills" id="fills-1561576d-332c-80d0-8004-73e01d032073">
              <path
                d="M-136.000,1238.000C-129.681,1239.164,-123.348,1240.331,-117.000,1241.500C-118.289,1243.302,-119.956,1244.469,-122.000,1245.000C-126.980,1243.177,-131.647,1240.843,-136.000,1238.000ZZ"
                style="shape-rendering:geometricPrecision;text-rendering:geometricPrecision;image-rendering:optimizeQuality;fill-rule:evenodd;clip-rule:evenodd;fill:#f48b3b">
              </path>
            </g>
          </g>
          <g id="shape-1561576d-332c-80d0-8004-73e01d03bde6" style="opacity:1">
            <g class="fills" id="fills-1561576d-332c-80d0-8004-73e01d03bde6">
              <path
                d="M-18.000,1239.000C-17.759,1241.398,-18.426,1243.398,-20.000,1245.000C-20.241,1242.602,-19.574,1240.602,-18.000,1239.000ZZ"
                style="shape-rendering:geometricPrecision;text-rendering:geometricPrecision;image-rendering:optimizeQuality;fill-rule:evenodd;clip-rule:evenodd;fill:#837e85">
              </path>
            </g>
          </g>
          <g id="shape-1561576d-332c-80d0-8004-73e01d04220f" style="opacity:1">
            <g class="fills" id="fills-1561576d-332c-80d0-8004-73e01d04220f">
              <path
                d="M-46.000,1269.000C-46.090,1271.652,-45.424,1273.985,-44.000,1276.000C-43.321,1304.821,-57.321,1317.988,-86.000,1315.500C-98.279,1311.389,-106.279,1303.222,-110.000,1291.000C-110.424,1283.185,-109.757,1275.518,-108.000,1268.000C-95.715,1247.968,-79.049,1243.468,-58.000,1254.500C-52.315,1258.012,-48.315,1262.845,-46.000,1269.000ZZ"
                style="shape-rendering:geometricPrecision;text-rendering:geometricPrecision;image-rendering:optimizeQuality;fill-rule:evenodd;clip-rule:evenodd;fill:#1d121e">
              </path>
            </g>
          </g>
          <g id="shape-1561576d-332c-80d0-8004-73e01d0479e5" style="opacity:1">
            <g class="fills" id="fills-1561576d-332c-80d0-8004-73e01d0479e5">
              <path
                d="M-20.000,1246.000C-19.698,1250.290,-20.364,1254.290,-22.000,1258.000C-21.961,1253.767,-21.295,1249.767,-20.000,1246.000ZZ"
                style="shape-rendering:geometricPrecision;text-rendering:geometricPrecision;image-rendering:optimizeQuality;fill-rule:evenodd;clip-rule:evenodd;fill:#a29da3">
              </path>
            </g>
          </g>
          <g id="shape-1561576d-332c-80d0-8004-73e34cb5e63c">
            <g class="fills" id="fills-1561576d-332c-80d0-8004-73e34cb5e63c">
              <path
                d="M-222.000,1251.000C-213.333,1243.333,-204.667,1235.667,-196.000,1228.000C-194.401,1227.732,-193.068,1228.066,-192.000,1229.000C-203.704,1241.369,-215.037,1254.035,-226.000,1267.000C-225.336,1264.676,-224.672,1262.351,-224.008,1260.027C-224.005,1260.018,-224.003,1260.009,-224.000,1260.000C-223.796,1256.982,-223.463,1253.982,-223.000,1251.000M-222.008,1251.000C-222.005,1251.000,-222.003,1251.000,-222.008,1251.000ZC-221.997,1251.026,-221.993,1251.052,-222.008,1251.000ZM-223.979,1259.969C-223.986,1259.980,-223.993,1259.990,-223.979,1259.969Z"
                style="fill:#fd923c">
              </path>
            </g>
          </g>
          <g id="shape-1561576d-332c-80d0-8004-73e01d04df35" style="opacity:1">
            <g class="fills" id="fills-1561576d-332c-80d0-8004-73e01d04df35">
              <path
                d="M-22.000,1259.000C9.132,1264.475,40.465,1268.475,72.000,1271.000C72.000,1284.333,72.000,1297.667,72.000,1311.000C40.911,1304.228,10.245,1295.894,-20.000,1286.000C-19.834,1280.656,-20.001,1275.323,-20.500,1270.000C-20.732,1268.763,-21.232,1267.763,-22.000,1267.000C-23.333,1264.333,-23.333,1261.667,-22.000,1259.000ZZ"
                style="shape-rendering:geometricPrecision;text-rendering:geometricPrecision;image-rendering:optimizeQuality;fill-rule:evenodd;clip-rule:evenodd;fill:#fc8f36">
              </path>
            </g>
          </g>
          <g id="shape-1561576d-332c-80d0-8004-73e01d055678" style="opacity:1">
            <g class="fills" id="fills-1561576d-332c-80d0-8004-73e01d055678">
              <path
                d="M-80.000,1266.000C-64.801,1266.686,-58.968,1274.353,-62.500,1289.000C-69.375,1297.629,-77.542,1299.129,-87.000,1293.500C-95.553,1281.340,-93.220,1272.173,-80.000,1266.000ZZ"
                style="shape-rendering:geometricPrecision;text-rendering:geometricPrecision;image-rendering:optimizeQuality;fill-rule:evenodd;clip-rule:evenodd;fill:#e91e41">
              </path>
            </g>
          </g>
          <g id="shape-1561576d-332c-80d0-8004-73e01d072e56" style="opacity:1">
            <g class="fills" id="fills-1561576d-332c-80d0-8004-73e01d072e56">
              <path
                d="M-46.000,1269.000C-44.576,1271.015,-43.910,1273.348,-44.000,1276.000C-45.424,1273.985,-46.090,1271.652,-46.000,1269.000ZZ"
                style="shape-rendering:geometricPrecision;text-rendering:geometricPrecision;image-rendering:optimizeQuality;fill-rule:evenodd;clip-rule:evenodd;fill:#6e3e26">
              </path>
            </g>
          </g>
          <g id="shape-1561576d-332c-80d0-8004-73e01d0796e8" style="opacity:1">
            <g class="fills" id="fills-1561576d-332c-80d0-8004-73e01d0796e8">
              <path
                d="M-22.000,1267.000C-21.232,1267.763,-20.732,1268.763,-20.500,1270.000C-20.001,1275.323,-19.834,1280.656,-20.000,1286.000C-19.698,1288.559,-20.032,1290.893,-21.000,1293.000C-20.789,1284.300,-21.123,1275.633,-22.000,1267.000ZZ"
                style="shape-rendering:geometricPrecision;text-rendering:geometricPrecision;image-rendering:optimizeQuality;fill-rule:evenodd;clip-rule:evenodd;fill:#6e4838">
              </path>
            </g>
          </g>
          <g id="shape-1561576d-332c-80d0-8004-73e01d07d0e2" style="opacity:1">
            <g class="fills" id="fills-1561576d-332c-80d0-8004-73e01d07d0e2">
              <path
                d="M-328.000,1280.000C-322.631,1286.370,-316.631,1292.037,-310.000,1297.000C-332.492,1312.486,-353.825,1329.486,-374.000,1348.000C-393.000,1348.000,-412.000,1348.000,-431.000,1348.000C-431.000,1346.333,-431.000,1344.667,-431.000,1343.000C-397.835,1320.243,-363.501,1299.243,-328.000,1280.000ZZ"
                style="shape-rendering:geometricPrecision;text-rendering:geometricPrecision;image-rendering:optimizeQuality;fill-rule:evenodd;clip-rule:evenodd;fill:#fc8f36">
              </path>
            </g>
          </g>
          <g id="shape-1561576d-332c-80d0-8004-73e2f59c418c">
            <g class="fills" id="fills-1561576d-332c-80d0-8004-73e2f59c418c">
              <path
                d="M-149.000,1320.000C-145.195,1329.083,-142.195,1338.416,-140.000,1348.000C-146.667,1348.000,-153.333,1348.000,-160.000,1348.000C-163.845,1331.106,-167.175,1314.123,-169.992,1297.051C-169.994,1297.034,-169.997,1297.017,-170.000,1297.000C-172.483,1286.280,-174.148,1275.303,-174.995,1264.068C-174.997,1264.045,-174.998,1264.023,-175.000,1264.000C-174.995,1264.022,-174.991,1264.043,-174.986,1264.065C-175.005,1259.974,-175.337,1255.982,-175.996,1252.024C-175.997,1252.016,-175.999,1252.008,-176.000,1252.000C-177.735,1245.236,-178.735,1238.236,-179.000,1231.000C-178.688,1231.000,-178.375,1231.000,-178.062,1231.000C-178.042,1231.000,-178.021,1231.000,-178.000,1231.000C-178.000,1231.000,-178.000,1231.000,-178.000,1231.000C-177.333,1231.000,-176.667,1231.000,-176.000,1231.000C-173.419,1241.405,-170.758,1251.719,-168.016,1261.939C-168.011,1261.959,-168.006,1261.979,-168.000,1262.000C-168.000,1262.000,-168.000,1262.000,-168.000,1262.000C-166.237,1264.982,-165.239,1268.286,-165.005,1271.914C-165.004,1271.943,-165.002,1271.971,-165.000,1272.000C-163.432,1276.138,-162.102,1280.453,-161.013,1284.947C-161.009,1284.965,-161.004,1284.982,-161.000,1285.000C-156.638,1296.420,-152.645,1308.063,-149.000,1320.000ZC-149.015,1319.952,-149.007,1319.976,-149.000,1320.000ZC-149.019,1319.997,-149.038,1319.993,-149.000,1320.000ZC-149.647,1319.868,-150.127,1319.540,-150.498,1319.003C-150.498,1319.002,-150.499,1319.001,-150.500,1319.000C-150.508,1318.978,-150.516,1318.955,-150.524,1318.933M-178.000,1231.000C-177.997,1231.027,-177.993,1231.054,-178.000,1231.000ZM-176.003,1251.958C-176.002,1251.972,-176.001,1251.986,-176.003,1251.958ZM-167.978,1262.320C-167.986,1262.221,-167.992,1262.122,-167.999,1262.022C-167.999,1262.015,-168.000,1262.007,-168.000,1262.000M-172.407,1277.874C-172.300,1278.537,-172.196,1279.200,-172.094,1279.865C-171.992,1280.530,-171.893,1281.197,-171.795,1281.864M-170.003,1296.966C-170.002,1296.978,-170.001,1296.989,-170.003,1296.966ZM-160.982,1285.069C-160.988,1285.046,-160.994,1285.023,-160.982,1285.069Z"
                style="fill:#f98f39">
              </path>
            </g>
          </g>
          <g id="shape-1561576d-332c-80d0-8004-73e2eb10739c">
            <g class="fills" id="fills-1561576d-332c-80d0-8004-73e2eb10739c">
              <path
                d="M-184.000,1271.000C-184.953,1296.645,-185.287,1322.312,-185.000,1348.000C-191.333,1348.000,-197.667,1348.000,-204.000,1348.000C-202.949,1332.541,-200.952,1317.223,-198.009,1302.046C-198.006,1302.030,-198.003,1302.015,-198.000,1302.000C-197.548,1298.337,-197.048,1294.670,-196.500,1291.000C-196.224,1290.091,-195.730,1289.428,-195.017,1289.010C-195.011,1289.007,-195.006,1289.003,-195.000,1289.000C-195.001,1289.018,-195.002,1289.036,-195.003,1289.054C-193.351,1274.442,-190.693,1260.137,-187.022,1246.084C-187.015,1246.056,-187.007,1246.028,-187.000,1246.000C-187.089,1243.369,-186.434,1241.051,-185.033,1239.047C-185.022,1239.031,-185.011,1239.016,-185.000,1239.000C-184.999,1239.021,-184.999,1239.041,-184.998,1239.062C-185.133,1237.222,-184.806,1235.568,-184.019,1234.036C-184.012,1234.024,-184.006,1234.012,-184.000,1234.000C-184.000,1232.667,-184.000,1231.333,-184.000,1230.000C-182.709,1229.763,-181.709,1230.096,-181.000,1231.000C-180.684,1235.497,-181.010,1239.798,-181.977,1243.903C-181.985,1243.935,-181.992,1243.967,-182.000,1243.998M-182.488,1231.101C-182.492,1231.067,-182.496,1231.034,-182.500,1231.000C-182.504,1231.019,-182.507,1231.038,-182.488,1231.101ZM-183.982,1233.982C-183.988,1233.988,-183.994,1233.994,-183.982,1233.982ZM-186.991,1245.988C-186.994,1245.992,-186.997,1245.996,-186.991,1245.988ZM-182.000,1244.000C-181.803,1253.194,-182.467,1262.176,-183.991,1270.947C-183.994,1270.965,-183.997,1270.982,-184.000,1271.000C-184.001,1270.982,-184.001,1270.963,-184.002,1270.945C-184.021,1270.261,-184.035,1269.578,-184.044,1268.897C-184.053,1268.215,-184.057,1267.535,-184.056,1266.856C-184.055,1266.177,-184.048,1265.499,-184.037,1264.822C-184.026,1264.146,-184.009,1263.470,-183.987,1262.796C-183.966,1262.122,-183.939,1261.449,-183.907,1260.777C-183.875,1260.104,-183.838,1259.432,-183.796,1258.762C-183.753,1258.092,-183.706,1257.424,-183.654,1256.757C-183.601,1256.090,-183.544,1255.424,-183.481,1254.759C-183.418,1254.095,-183.350,1253.431,-183.277,1252.769C-183.203,1252.089,-183.122,1251.410,-183.037,1250.732C-182.951,1250.054,-182.860,1249.378,-182.763,1248.703C-182.667,1248.029,-182.565,1247.356,-182.458,1246.684C-182.351,1246.011,-182.238,1245.340,-182.120,1244.670C-182.081,1244.446,-182.041,1244.223,-182.000,1244.000ZM-197.995,1301.988C-197.997,1301.992,-197.998,1301.996,-197.995,1301.988Z"
                style="fill:#f98f39">
              </path>
            </g>
          </g>
          <g id="shape-1561576d-332c-80d0-8004-73e01d08b453" style="opacity:1">
            <g class="fills" id="fills-1561576d-332c-80d0-8004-73e01d08b453">
              <path
                d="M-133.000,1296.000C-131.576,1298.015,-130.910,1300.348,-131.000,1303.000C-132.424,1300.985,-133.090,1298.652,-133.000,1296.000ZZ"
                style="shape-rendering:geometricPrecision;text-rendering:geometricPrecision;image-rendering:optimizeQuality;fill-rule:evenodd;clip-rule:evenodd;fill:#1c121f">
              </path>
            </g>
          </g>
          <g id="shape-1561576d-332c-80d0-8004-73e01d08f962" style="opacity:1">
            <g class="fills" id="fills-1561576d-332c-80d0-8004-73e01d08f962">
              <path
                d="M-248.000,1296.000C-261.826,1312.492,-274.493,1329.825,-286.000,1348.000C-297.333,1348.000,-308.667,1348.000,-320.000,1348.000C-307.369,1333.368,-294.369,1319.034,-281.000,1305.000C-269.123,1305.038,-258.123,1302.038,-248.000,1296.000ZZ"
                style="shape-rendering:geometricPrecision;text-rendering:geometricPrecision;image-rendering:optimizeQuality;fill-rule:evenodd;clip-rule:evenodd;fill:#fc9038">
              </path>
            </g>
          </g>
          <g id="shape-1561576d-332c-80d0-8004-73e01d0935ce" style="opacity:1">
            <g class="fills" id="fills-1561576d-332c-80d0-8004-73e01d0935ce">
              <path
                d="M-22.000,1298.000C-21.845,1301.216,-22.845,1303.883,-25.000,1306.000C-24.371,1303.103,-23.371,1300.436,-22.000,1298.000ZZ"
                style="shape-rendering:geometricPrecision;text-rendering:geometricPrecision;image-rendering:optimizeQuality;fill-rule:evenodd;clip-rule:evenodd;fill:#918c93">
              </path>
            </g>
          </g>
          <g id="shape-1561576d-332c-80d0-8004-73e01d097828" style="opacity:1">
            <g class="fills" id="fills-1561576d-332c-80d0-8004-73e01d097828">
              <path
                d="M-30.000,1316.000C-8.907,1327.213,12.427,1337.880,34.000,1348.000C12.000,1348.000,-10.000,1348.000,-32.000,1348.000C-38.310,1343.365,-44.643,1338.698,-51.000,1334.000C-42.797,1329.469,-35.797,1323.469,-30.000,1316.000ZZ"
                style="shape-rendering:geometricPrecision;text-rendering:geometricPrecision;image-rendering:optimizeQuality;fill-rule:evenodd;clip-rule:evenodd;fill:#fb8f36">
              </path>
            </g>
          </g>
          <g id="shape-1561576d-332c-80d0-8004-73e3302ef089">
            <g class="fills" id="fills-1561576d-332c-80d0-8004-73e3302ef089">
              <path
                d="M-192.000,1235.000C-191.525,1232.716,-190.525,1230.716,-189.000,1229.000C-187.709,1228.763,-186.709,1229.096,-186.000,1230.000C-187.785,1234.028,-189.759,1237.983,-191.923,1241.863C-191.940,1241.893,-191.957,1241.924,-191.974,1241.954C-200.453,1262.837,-208.445,1283.816,-215.977,1304.937C-215.985,1304.958,-215.992,1304.979,-216.000,1305.000C-218.885,1316.647,-222.542,1327.958,-226.973,1338.934C-226.982,1338.956,-226.991,1338.978,-227.000,1338.999C-227.000,1339.000,-227.000,1339.000,-227.000,1339.000C-227.256,1342.098,-227.922,1345.098,-229.000,1348.000C-229.330,1348.000,-229.662,1348.000,-229.992,1348.000C-229.995,1348.000,-229.997,1348.000,-230.000,1348.000C-229.997,1347.975,-229.993,1347.949,-229.990,1347.924C-237.667,1348.000,-245.333,1348.000,-253.000,1348.000C-244.707,1329.414,-235.874,1311.080,-226.500,1293.000C-215.740,1273.128,-204.252,1253.813,-192.000,1235.000ZC-192.024,1235.038,-192.012,1235.019,-192.000,1235.000ZC-191.981,1234.997,-191.962,1234.993,-192.000,1235.000ZC-191.357,1234.869,-190.879,1234.544,-190.509,1234.013C-190.506,1234.009,-190.503,1234.004,-190.500,1234.000C-190.500,1234.021,-190.499,1234.041,-190.499,1234.062M-191.950,1241.874C-191.967,1241.916,-191.983,1241.958,-192.000,1242.000M-225.441,1333.015C-225.263,1332.361,-225.081,1331.708,-224.898,1331.057C-224.714,1330.404,-224.528,1329.753,-224.339,1329.102M-216.007,1305.016C-216.004,1305.011,-216.002,1305.005,-216.007,1305.016ZM-227.037,1339.064C-227.024,1339.042,-227.012,1339.021,-227.037,1339.064Z"
                style="fill:#fd923c">
              </path>
            </g>
          </g>
        </g>
      </svg>