<svg width="719" xmlns="http://www.w3.org/2000/svg" height="auto" id="screenshot-4a823e8f-efa8-800a-8004-73ef4f0f628e" viewBox="118.5 89 719 555" style="-webkit-print-color-adjust::exact" xmlns:xlink="http://www.w3.org/1999/xlink" fill="none" version="1.1">
  <g id="shape-4a823e8f-efa8-800a-8004-73ef4f0f628e" style="fill:#000000" rx="0" ry="0">
    <g id="shape-4a823e8f-efa8-800a-8004-73ef4f147167" style="fill:#000000" rx="0" ry="0">
      <g id="shape-4a823e8f-efa8-800a-8004-73ef4f161006" style="opacity:1">
        <g class="fills" id="fills-4a823e8f-efa8-800a-8004-73ef4f161006">
          <path d="M118.500,89.000C127.833,89.000,137.167,89.000,146.500,89.000C146.500,274.000,146.500,459.000,146.500,644.000C137.167,644.000,127.833,644.000,118.500,644.000C118.500,459.000,118.500,274.000,118.500,89.000ZZZ" style="-webkit-print-color-adjust:exact;shape-rendering:geometricPrecision;text-rendering:geometricPrecision;image-rendering:optimizeQuality;fill-rule:evenodd;clip-rule:evenodd;fill:#3e8073" class="fills">
          </path>
        </g>
      </g>
    </g>
    <g id="shape-4a823e8f-efa8-800a-8004-73ef4f16e75d" style="fill:#000000" rx="0" ry="0">
      <g id="shape-4a823e8f-efa8-800a-8004-73ef4f17df36" style="opacity:1">
        <g class="fills" id="fills-4a823e8f-efa8-800a-8004-73ef4f17df36">
          <path d="M162.500,89.000C171.833,89.000,181.167,89.000,190.500,89.000C190.500,274.000,190.500,459.000,190.500,644.000C181.167,644.000,171.833,644.000,162.500,644.000C162.500,459.000,162.500,274.000,162.500,89.000ZZZ" style="-webkit-print-color-adjust:exact;shape-rendering:geometricPrecision;text-rendering:geometricPrecision;image-rendering:optimizeQuality;fill-rule:evenodd;clip-rule:evenodd;fill:#f32141" class="fills">
          </path>
        </g>
      </g>
    </g>
    <g id="shape-4a823e8f-efa8-800a-8004-73ef4f185b87" style="fill:#000000" rx="0" ry="0">
      <g id="shape-4a823e8f-efa8-800a-8004-73ef4f190267" style="opacity:1">
        <g class="fills" id="fills-4a823e8f-efa8-800a-8004-73ef4f190267">
          <path d="M207.500,89.000C216.833,89.000,226.167,89.000,235.500,89.000C235.500,274.000,235.500,459.000,235.500,644.000C226.167,644.000,216.833,644.000,207.500,644.000C207.500,459.000,207.500,274.000,207.500,89.000ZZZ" style="-webkit-print-color-adjust:exact;shape-rendering:geometricPrecision;text-rendering:geometricPrecision;image-rendering:optimizeQuality;fill-rule:evenodd;clip-rule:evenodd;fill:#d34c26" class="fills">
          </path>
        </g>
      </g>
    </g>
    <g id="shape-4a823e8f-efa8-800a-8004-73ef4f19849b" style="fill:#000000" rx="0" ry="0">
      <g id="shape-4a823e8f-efa8-800a-8004-73ef4f1a5900" style="opacity:1">
        <g class="fills" id="fills-4a823e8f-efa8-800a-8004-73ef4f1a5900">
          <path d="M251.500,89.000C260.833,89.000,270.167,89.000,279.500,89.000C279.500,274.000,279.500,459.000,279.500,644.000C270.167,644.000,260.833,644.000,251.500,644.000C251.500,459.000,251.500,274.000,251.500,89.000ZZZ" style="-webkit-print-color-adjust:exact;shape-rendering:geometricPrecision;text-rendering:geometricPrecision;image-rendering:optimizeQuality;fill-rule:evenodd;clip-rule:evenodd;fill:#ff9037" class="fills">
          </path>
        </g>
      </g>
    </g>
    <g id="shape-4a823e8f-efa8-800a-8004-73ef4f1afbfa" style="fill:#000000" rx="0" ry="0">
      <g id="shape-4a823e8f-efa8-800a-8004-73ef4f1ba6b1" style="opacity:1">
        <g class="fills" id="fills-4a823e8f-efa8-800a-8004-73ef4f1ba6b1">
          <path d="M663.500,289.000C661.517,289.343,660.183,288.676,659.500,287.000C660.183,285.324,661.517,284.657,663.500,285.000C663.500,286.333,663.500,287.667,663.500,289.000ZZZ" style="-webkit-print-color-adjust:exact;shape-rendering:geometricPrecision;text-rendering:geometricPrecision;image-rendering:optimizeQuality;fill-rule:evenodd;clip-rule:evenodd;fill:#f12144" class="fills">
          </path>
        </g>
      </g>
    </g>
    <g id="shape-4a823e8f-efa8-800a-8004-73ef4f1bfbc1" style="fill:#000000" rx="0" ry="0">
      <g id="shape-4a823e8f-efa8-800a-8004-73ef4f1cc58e" style="opacity:1">
        <g class="fills" id="fills-4a823e8f-efa8-800a-8004-73ef4f1cc58e">
          <path d="M303.500,291.000C304.833,291.000,306.167,291.000,307.500,291.000C307.500,292.333,307.500,293.667,307.500,295.000C306.167,295.000,304.833,295.000,303.500,295.000C303.500,293.667,303.500,292.333,303.500,291.000ZZZ" style="-webkit-print-color-adjust:exact;shape-rendering:geometricPrecision;text-rendering:geometricPrecision;image-rendering:optimizeQuality;fill-rule:evenodd;clip-rule:evenodd;fill:#f01f42" class="fills">
          </path>
        </g>
      </g>
    </g>
    <g id="shape-4a823e8f-efa8-800a-8004-73ef4f1d27da" style="fill:#000000" rx="0" ry="0">
      <g id="shape-4a823e8f-efa8-800a-8004-73ef4f1e3c31" style="opacity:1">
        <g class="fills" id="fills-4a823e8f-efa8-800a-8004-73ef4f1e3c31">
          <path d="M351.500,295.000C346.500,295.000,341.500,295.000,336.500,295.000C336.263,296.291,336.596,297.291,337.500,298.000C342.167,298.000,346.833,298.000,351.500,298.000C351.500,299.333,351.500,300.667,351.500,302.000C346.500,302.000,341.500,302.000,336.500,302.000C336.500,303.333,336.500,304.667,336.500,306.000C341.500,306.000,346.500,306.000,351.500,306.000C351.500,307.333,351.500,308.667,351.500,310.000C345.167,310.000,338.833,310.000,332.500,310.000C332.500,303.667,332.500,297.333,332.500,291.000C338.833,291.000,345.167,291.000,351.500,291.000C351.500,292.333,351.500,293.667,351.500,295.000ZZZ" style="-webkit-print-color-adjust:exact;shape-rendering:geometricPrecision;text-rendering:geometricPrecision;image-rendering:optimizeQuality;fill-rule:evenodd;clip-rule:evenodd;fill:#f12144" class="fills">
          </path>
        </g>
      </g>
    </g>
    <g id="shape-4a823e8f-efa8-800a-8004-73ef4f1e9066" style="fill:#000000" rx="0" ry="0">
      <g id="shape-4a823e8f-efa8-800a-8004-73ef4f1feaba" style="opacity:1">
        <g class="fills" id="fills-4a823e8f-efa8-800a-8004-73ef4f1feaba">
          <path d="M373.500,298.000C373.500,299.333,373.500,300.667,373.500,302.000C368.637,301.681,363.970,302.014,359.500,303.000C359.500,303.667,359.500,304.333,359.500,305.000C363.970,305.986,368.637,306.319,373.500,306.000C373.500,307.333,373.500,308.667,373.500,310.000C367.167,310.000,360.833,310.000,354.500,310.000C354.500,303.667,354.500,297.333,354.500,291.000C360.833,291.000,367.167,291.000,373.500,291.000C373.500,292.333,373.500,293.667,373.500,295.000C368.833,295.000,364.167,295.000,359.500,295.000C359.500,296.000,359.500,297.000,359.500,298.000C364.167,298.000,368.833,298.000,373.500,298.000ZZZ" style="-webkit-print-color-adjust:exact;shape-rendering:geometricPrecision;text-rendering:geometricPrecision;image-rendering:optimizeQuality;fill-rule:evenodd;clip-rule:evenodd;fill:#f12747" class="fills">
          </path>
        </g>
      </g>
    </g>
    <g id="shape-4a823e8f-efa8-800a-8004-73ef4f202af2" style="fill:#000000" rx="0" ry="0">
      <g id="shape-4a823e8f-efa8-800a-8004-73ef4f212506" style="opacity:1">
        <g class="fills" id="fills-4a823e8f-efa8-800a-8004-73ef4f212506">
          <path d="M377.500,291.000C383.500,291.000,389.500,291.000,395.500,291.000C395.500,292.333,395.500,293.667,395.500,295.000C390.833,295.000,386.167,295.000,381.500,295.000C381.500,296.000,381.500,297.000,381.500,298.000C386.167,298.000,390.833,298.000,395.500,298.000C395.500,302.000,395.500,306.000,395.500,310.000C389.167,310.000,382.833,310.000,376.500,310.000C376.500,308.333,376.500,306.667,376.500,305.000C381.944,305.608,386.944,304.942,391.500,303.000C387.030,302.014,382.363,301.681,377.500,302.000C377.500,298.333,377.500,294.667,377.500,291.000ZZZ" style="-webkit-print-color-adjust:exact;shape-rendering:geometricPrecision;text-rendering:geometricPrecision;image-rendering:optimizeQuality;fill-rule:evenodd;clip-rule:evenodd;fill:#f22c49" class="fills">
          </path>
        </g>
      </g>
    </g>
    <g id="shape-4a823e8f-efa8-800a-8004-73ef4f217bf0" style="fill:#000000" rx="0" ry="0">
      <g id="shape-4a823e8f-efa8-800a-8004-73ef4f22157f" style="opacity:1">
        <g class="fills" id="fills-4a823e8f-efa8-800a-8004-73ef4f22157f">
          <path d="M406.500,310.000C406.500,305.000,406.500,300.000,406.500,295.000C403.833,295.000,401.167,295.000,398.500,295.000C398.500,293.667,398.500,292.333,398.500,291.000C404.833,291.000,411.167,291.000,417.500,291.000C417.500,292.333,417.500,293.667,417.500,295.000C415.167,295.000,412.833,295.000,410.500,295.000C410.500,300.000,410.500,305.000,410.500,310.000C409.167,310.000,407.833,310.000,406.500,310.000ZZZ" style="-webkit-print-color-adjust:exact;shape-rendering:geometricPrecision;text-rendering:geometricPrecision;image-rendering:optimizeQuality;fill-rule:evenodd;clip-rule:evenodd;fill:#f12043" class="fills">
          </path>
        </g>
      </g>
    </g>
    <g id="shape-4a823e8f-efa8-800a-8004-73ef4f225978" style="fill:#000000" rx="0" ry="0">
      <g id="shape-4a823e8f-efa8-800a-8004-73ef4f236c70" style="opacity:1">
        <g class="fills" id="fills-4a823e8f-efa8-800a-8004-73ef4f236c70">
          <path d="M461.500,298.000C461.500,299.333,461.500,300.667,461.500,302.000C456.637,301.681,451.970,302.014,447.500,303.000C447.500,303.667,447.500,304.333,447.500,305.000C451.970,305.986,456.637,306.319,461.500,306.000C461.500,307.333,461.500,308.667,461.500,310.000C455.167,310.000,448.833,310.000,442.500,310.000C442.500,303.667,442.500,297.333,442.500,291.000C448.833,291.000,455.167,291.000,461.500,291.000C461.500,292.333,461.500,293.667,461.500,295.000C456.833,295.000,452.167,295.000,447.500,295.000C447.500,296.000,447.500,297.000,447.500,298.000C452.167,298.000,456.833,298.000,461.500,298.000ZZZ" style="-webkit-print-color-adjust:exact;shape-rendering:geometricPrecision;text-rendering:geometricPrecision;image-rendering:optimizeQuality;fill-rule:evenodd;clip-rule:evenodd;fill:#f12747" class="fills">
          </path>
        </g>
      </g>
    </g>
    <g id="shape-4a823e8f-efa8-800a-8004-73ef4f23a4c8" style="fill:#000000" rx="0" ry="0">
      <g id="shape-4a823e8f-efa8-800a-8004-73ef4f24dee2" style="opacity:1">
        <g class="fills" id="fills-4a823e8f-efa8-800a-8004-73ef4f24dee2">
          <path d="M464.500,291.000C466.167,291.000,467.833,291.000,469.500,291.000C469.351,292.052,469.517,293.052,470.000,294.000C473.000,296.333,476.000,298.667,479.000,301.000C479.498,297.683,479.665,294.350,479.500,291.000C481.167,291.000,482.833,291.000,484.500,291.000C484.500,297.333,484.500,303.667,484.500,310.000C482.833,310.000,481.167,310.000,479.500,310.000C479.762,308.522,479.429,307.189,478.500,306.000C475.528,304.194,472.695,302.194,470.000,300.000C469.502,303.317,469.335,306.650,469.500,310.000C467.833,310.000,466.167,310.000,464.500,310.000C464.500,303.667,464.500,297.333,464.500,291.000ZZZ" style="-webkit-print-color-adjust:exact;shape-rendering:geometricPrecision;text-rendering:geometricPrecision;image-rendering:optimizeQuality;fill-rule:evenodd;clip-rule:evenodd;fill:#f23851" class="fills">
          </path>
        </g>
      </g>
    </g>
    <g id="shape-4a823e8f-efa8-800a-8004-73ef4f25583e" style="fill:#000000" rx="0" ry="0">
      <g id="shape-4a823e8f-efa8-800a-8004-73ef4f267338" style="opacity:1">
        <g class="fills" id="fills-4a823e8f-efa8-800a-8004-73ef4f267338">
          <path d="M526.500,291.000C532.833,291.000,539.167,291.000,545.500,291.000C545.500,297.333,545.500,303.667,545.500,310.000C539.167,310.000,532.833,310.000,526.500,310.000C526.500,306.000,526.500,302.000,526.500,298.000C527.833,298.000,529.167,298.000,530.500,298.000C530.500,300.333,530.500,302.667,530.500,305.000C533.833,305.000,537.167,305.000,540.500,305.000C540.500,301.667,540.500,298.333,540.500,295.000C535.833,295.000,531.167,295.000,526.500,295.000C526.500,293.667,526.500,292.333,526.500,291.000ZZZ" style="-webkit-print-color-adjust:exact;shape-rendering:geometricPrecision;text-rendering:geometricPrecision;image-rendering:optimizeQuality;fill-rule:evenodd;clip-rule:evenodd;fill:#f22d4a" class="fills">
          </path>
        </g>
      </g>
    </g>
    <g id="shape-4a823e8f-efa8-800a-8004-73ef4f26dfcb" style="fill:#000000" rx="0" ry="0">
      <g id="shape-4a823e8f-efa8-800a-8004-73ef4f2761a6" style="opacity:1">
        <g class="fills" id="fills-4a823e8f-efa8-800a-8004-73ef4f2761a6">
          <path d="M548.500,291.000C549.833,291.000,551.167,291.000,552.500,291.000C552.500,297.333,552.500,303.667,552.500,310.000C551.167,310.000,549.833,310.000,548.500,310.000C548.500,303.667,548.500,297.333,548.500,291.000ZZZ" style="-webkit-print-color-adjust:exact;shape-rendering:geometricPrecision;text-rendering:geometricPrecision;image-rendering:optimizeQuality;fill-rule:evenodd;clip-rule:evenodd;fill:#f01f42" class="fills">
          </path>
        </g>
      </g>
    </g>
    <g id="shape-4a823e8f-efa8-800a-8004-73ef4f282500" style="fill:#000000" rx="0" ry="0">
      <g id="shape-4a823e8f-efa8-800a-8004-73ef4f29a4da" style="opacity:1">
        <g class="fills" id="fills-4a823e8f-efa8-800a-8004-73ef4f29a4da">
          <path d="M556.500,291.000C558.451,290.727,559.951,291.393,561.000,293.000C562.015,296.940,562.515,300.940,562.500,305.000C564.500,305.000,566.500,305.000,568.500,305.000C568.672,300.966,569.172,296.966,570.000,293.000C571.401,291.308,573.234,290.641,575.500,291.000C574.371,297.312,573.371,303.645,572.500,310.000C567.833,310.000,563.167,310.000,558.500,310.000C557.506,303.704,556.840,297.370,556.500,291.000ZZZ" style="-webkit-print-color-adjust:exact;shape-rendering:geometricPrecision;text-rendering:geometricPrecision;image-rendering:optimizeQuality;fill-rule:evenodd;clip-rule:evenodd;fill:#f2324c" class="fills">
          </path>
        </g>
      </g>
    </g>
    <g id="shape-4a823e8f-efa8-800a-8004-73ef4f2a1ec8" style="fill:#000000" rx="0" ry="0">
      <g id="shape-4a823e8f-efa8-800a-8004-73ef4f2b3908" style="opacity:1">
        <g class="fills" id="fills-4a823e8f-efa8-800a-8004-73ef4f2b3908">
          <path d="M597.500,295.000C592.500,295.000,587.500,295.000,582.500,295.000C582.263,296.291,582.596,297.291,583.500,298.000C588.167,298.000,592.833,298.000,597.500,298.000C597.500,299.333,597.500,300.667,597.500,302.000C592.500,302.000,587.500,302.000,582.500,302.000C582.500,303.333,582.500,304.667,582.500,306.000C587.500,306.000,592.500,306.000,597.500,306.000C597.500,307.333,597.500,308.667,597.500,310.000C591.167,310.000,584.833,310.000,578.500,310.000C578.500,303.667,578.500,297.333,578.500,291.000C584.833,291.000,591.167,291.000,597.500,291.000C597.500,292.333,597.500,293.667,597.500,295.000ZZZ" style="-webkit-print-color-adjust:exact;shape-rendering:geometricPrecision;text-rendering:geometricPrecision;image-rendering:optimizeQuality;fill-rule:evenodd;clip-rule:evenodd;fill:#f12144" class="fills">
          </path>
        </g>
      </g>
    </g>
    <g id="shape-4a823e8f-efa8-800a-8004-73ef4f2b6560" style="fill:#000000" rx="0" ry="0">
      <g id="shape-4a823e8f-efa8-800a-8004-73ef4f2c5244" style="opacity:1">
        <g class="fills" id="fills-4a823e8f-efa8-800a-8004-73ef4f2c5244">
          <path d="M641.500,295.000C636.500,295.000,631.500,295.000,626.500,295.000C626.263,296.291,626.596,297.291,627.500,298.000C632.167,298.000,636.833,298.000,641.500,298.000C641.500,302.000,641.500,306.000,641.500,310.000C635.167,310.000,628.833,310.000,622.500,310.000C622.500,308.667,622.500,307.333,622.500,306.000C627.500,306.000,632.500,306.000,637.500,306.000C637.500,304.667,637.500,303.333,637.500,302.000C632.500,302.000,627.500,302.000,622.500,302.000C622.500,298.333,622.500,294.667,622.500,291.000C628.833,291.000,635.167,291.000,641.500,291.000C641.500,292.333,641.500,293.667,641.500,295.000ZZZ" style="-webkit-print-color-adjust:exact;shape-rendering:geometricPrecision;text-rendering:geometricPrecision;image-rendering:optimizeQuality;fill-rule:evenodd;clip-rule:evenodd;fill:#f12144" class="fills">
          </path>
        </g>
      </g>
    </g>
    <g id="shape-4a823e8f-efa8-800a-8004-73ef4f2cd68b" style="fill:#000000" rx="0" ry="0">
      <g id="shape-4a823e8f-efa8-800a-8004-73ef4f2d5bdc" style="opacity:1">
        <g class="fills" id="fills-4a823e8f-efa8-800a-8004-73ef4f2d5bdc">
          <path d="M644.500,291.000C645.833,291.000,647.167,291.000,648.500,291.000C648.500,297.333,648.500,303.667,648.500,310.000C647.167,310.000,645.833,310.000,644.500,310.000C644.500,303.667,644.500,297.333,644.500,291.000ZZZ" style="-webkit-print-color-adjust:exact;shape-rendering:geometricPrecision;text-rendering:geometricPrecision;image-rendering:optimizeQuality;fill-rule:evenodd;clip-rule:evenodd;fill:#f01f42" class="fills">
          </path>
        </g>
      </g>
    </g>
    <g id="shape-4a823e8f-efa8-800a-8004-73ef4f2dda90" style="fill:#000000" rx="0" ry="0">
      <g id="shape-4a823e8f-efa8-800a-8004-73ef4f2ebf72" style="opacity:1">
        <g class="fills" id="fills-4a823e8f-efa8-800a-8004-73ef4f2ebf72">
          <path d="M673.500,291.000C675.167,291.000,676.833,291.000,678.500,291.000C678.351,292.052,678.517,293.052,679.000,294.000C682.000,296.333,685.000,298.667,688.000,301.000C688.498,297.683,688.665,294.350,688.500,291.000C690.167,291.000,691.833,291.000,693.500,291.000C693.500,297.333,693.500,303.667,693.500,310.000C691.833,310.000,690.167,310.000,688.500,310.000C688.762,308.522,688.429,307.189,687.500,306.000C684.528,304.194,681.695,302.194,679.000,300.000C678.502,303.317,678.335,306.650,678.500,310.000C676.833,310.000,675.167,310.000,673.500,310.000C673.500,303.667,673.500,297.333,673.500,291.000ZZZ" style="-webkit-print-color-adjust:exact;shape-rendering:geometricPrecision;text-rendering:geometricPrecision;image-rendering:optimizeQuality;fill-rule:evenodd;clip-rule:evenodd;fill:#f23851" class="fills">
          </path>
        </g>
      </g>
    </g>
    <g id="shape-4a823e8f-efa8-800a-8004-73ef4f2eda28" style="fill:#000000" rx="0" ry="0">
      <g id="shape-4a823e8f-efa8-800a-8004-73ef4f2f5f53" style="opacity:1">
        <g class="fills" id="fills-4a823e8f-efa8-800a-8004-73ef4f2f5f53">
          <path d="M696.500,291.000C697.833,291.000,699.167,291.000,700.500,291.000C700.500,294.667,700.500,298.333,700.500,302.000C699.167,302.000,697.833,302.000,696.500,302.000C696.500,298.333,696.500,294.667,696.500,291.000ZZZ" style="-webkit-print-color-adjust:exact;shape-rendering:geometricPrecision;text-rendering:geometricPrecision;image-rendering:optimizeQuality;fill-rule:evenodd;clip-rule:evenodd;fill:#f12144" class="fills">
          </path>
        </g>
      </g>
    </g>
    <g id="shape-4a823e8f-efa8-800a-8004-73ef4f30631a">
      <g class="fills" id="fills-4a823e8f-efa8-800a-8004-73ef4f30631a">
        <path d="M320.500,307.000C318.735,306.039,316.735,305.705,314.500,306.000C314.500,307.333,314.500,308.667,314.500,310.000C313.167,310.000,311.833,310.000,310.500,310.000C310.500,303.667,310.500,297.333,310.500,291.000C316.833,291.000,323.167,291.000,329.500,291.000C329.500,296.000,329.500,301.000,329.500,306.000C328.325,305.781,327.325,306.114,326.500,307.000C327.500,307.833,328.500,308.667,329.500,309.500C325.900,310.573,322.900,309.740,320.500,307.000ZZM324.500,302.000C324.500,300.000,324.500,298.000,324.500,296.000C321.500,296.000,318.500,296.000,315.500,296.000C315.500,298.000,315.500,300.000,315.500,302.000C318.500,302.000,321.500,302.000,324.500,302.000ZZ" style="-webkit-print-color-adjust:exact;fill:#f12144" class="fills">
        </path>
      </g>
    </g>
    <g id="shape-4a823e8f-efa8-800a-8004-73ef4f312faf">
      <g class="fills" id="fills-4a823e8f-efa8-800a-8004-73ef4f312faf">
        <path d="M431.500,307.000C429.393,306.032,427.059,305.698,424.500,306.000C424.500,307.333,424.500,308.667,424.500,310.000C423.167,310.000,421.833,310.000,420.500,310.000C420.500,303.667,420.500,297.333,420.500,291.000C426.833,291.000,433.167,291.000,439.500,291.000C439.500,296.000,439.500,301.000,439.500,306.000C436.030,306.210,436.030,307.377,439.500,309.500C436.073,310.666,433.407,309.832,431.500,307.000ZZM425.500,296.000C425.500,297.667,425.500,299.333,425.500,301.000C428.500,301.000,431.500,301.000,434.500,301.000C434.500,299.333,434.500,297.667,434.500,296.000C431.500,296.000,428.500,296.000,425.500,296.000ZZ" style="-webkit-print-color-adjust:exact;fill:#f12144" class="fills">
        </path>
      </g>
    </g>
    <g id="shape-4a823e8f-efa8-800a-8004-73ef4f31f5c2">
      <g class="fills" id="fills-4a823e8f-efa8-800a-8004-73ef4f31f5c2">
        <path d="M486.500,291.000C493.167,291.000,499.833,291.000,506.500,291.000C506.500,297.333,506.500,303.667,506.500,310.000C504.833,310.000,503.167,310.000,501.500,310.000C501.500,308.667,501.500,307.333,501.500,306.000C498.167,306.000,494.833,306.000,491.500,306.000C491.500,307.333,491.500,308.667,491.500,310.000C489.833,310.000,488.167,310.000,486.500,310.000C486.500,303.667,486.500,297.333,486.500,291.000ZZM491.500,295.000C491.500,297.333,491.500,299.667,491.500,302.000C494.833,302.000,498.167,302.000,501.500,302.000C501.500,299.667,501.500,297.333,501.500,295.000C498.167,295.000,494.833,295.000,491.500,295.000ZZ" style="-webkit-print-color-adjust:exact;fill:#f12144" class="fills">
        </path>
      </g>
    </g>
    <g id="shape-4a823e8f-efa8-800a-8004-73ef4f32a48f">
      <g class="fills" id="fills-4a823e8f-efa8-800a-8004-73ef4f32a48f">
        <path d="M610.500,307.000C608.735,306.039,606.735,305.705,604.500,306.000C604.500,307.333,604.500,308.667,604.500,310.000C603.167,310.000,601.833,310.000,600.500,310.000C600.500,303.667,600.500,297.333,600.500,291.000C606.833,291.000,613.167,291.000,619.500,291.000C619.500,296.000,619.500,301.000,619.500,306.000C618.325,305.781,617.325,306.114,616.500,307.000C617.500,307.833,618.500,308.667,619.500,309.500C615.900,310.573,612.900,309.740,610.500,307.000ZZM614.500,302.000C614.500,300.000,614.500,298.000,614.500,296.000C611.500,296.000,608.500,296.000,605.500,296.000C605.500,298.000,605.500,300.000,605.500,302.000C608.500,302.000,611.500,302.000,614.500,302.000ZZ" style="-webkit-print-color-adjust:exact;fill:#f12144" class="fills">
        </path>
      </g>
    </g>
    <g id="shape-4a823e8f-efa8-800a-8004-73ef4f32dfb6">
      <g class="fills" id="fills-4a823e8f-efa8-800a-8004-73ef4f32dfb6">
        <path d="M670.500,310.000C664.500,310.000,658.500,310.000,652.500,310.000C652.500,303.667,652.500,297.333,652.500,291.000C658.500,291.000,664.500,291.000,670.500,291.000C670.500,297.333,670.500,303.667,670.500,310.000ZZM656.500,295.000C656.500,298.333,656.500,301.667,656.500,305.000C659.833,305.000,663.167,305.000,666.500,305.000C666.500,301.667,666.500,298.333,666.500,295.000C663.167,295.000,659.833,295.000,656.500,295.000ZZ" style="-webkit-print-color-adjust:exact;fill:#f12144" class="fills">
        </path>
      </g>
    </g>
    <g id="shape-4a823e8f-efa8-800a-8004-73ef4f33253e" style="fill:#000000" rx="0" ry="0">
      <g id="shape-4a823e8f-efa8-800a-8004-73ef4f33964a" style="opacity:1">
        <g class="fills" id="fills-4a823e8f-efa8-800a-8004-73ef4f33964a">
          <path d="M303.500,298.000C304.833,298.000,306.167,298.000,307.500,298.000C307.500,302.000,307.500,306.000,307.500,310.000C306.167,310.000,304.833,310.000,303.500,310.000C303.500,306.000,303.500,302.000,303.500,298.000ZZZ" style="-webkit-print-color-adjust:exact;shape-rendering:geometricPrecision;text-rendering:geometricPrecision;image-rendering:optimizeQuality;fill-rule:evenodd;clip-rule:evenodd;fill:#f12244" class="fills">
          </path>
        </g>
      </g>
    </g>
    <g id="shape-4a823e8f-efa8-800a-8004-73ef4f33c9f5" style="fill:#000000" rx="0" ry="0">
      <g id="shape-4a823e8f-efa8-800a-8004-73ef4f346dd2" style="opacity:1">
        <g class="fills" id="fills-4a823e8f-efa8-800a-8004-73ef4f346dd2">
          <path d="M700.500,306.000C700.500,307.333,700.500,308.667,700.500,310.000C699.167,310.000,697.833,310.000,696.500,310.000C696.500,308.667,696.500,307.333,696.500,306.000C697.833,306.000,699.167,306.000,700.500,306.000ZZZ" style="-webkit-print-color-adjust:exact;shape-rendering:geometricPrecision;text-rendering:geometricPrecision;image-rendering:optimizeQuality;fill-rule:evenodd;clip-rule:evenodd;fill:#f12144" class="fills">
          </path>
        </g>
      </g>
    </g>
    <g id="shape-4a823e8f-efa8-800a-8004-73ef4f3492a4" style="fill:#000000" rx="0" ry="0">
      <g id="shape-4a823e8f-efa8-800a-8004-73ef4f35a95f" style="opacity:1">
        <g class="fills" id="fills-4a823e8f-efa8-800a-8004-73ef4f35a95f">
          <path d="M431.500,307.000C429.500,307.000,427.500,307.000,425.500,307.000C425.737,308.291,425.404,309.291,424.500,310.000C425.404,309.291,425.737,308.291,425.500,307.000C427.500,307.000,429.500,307.000,431.500,307.000ZZZ" style="-webkit-print-color-adjust:exact;shape-rendering:geometricPrecision;text-rendering:geometricPrecision;image-rendering:optimizeQuality;fill-rule:evenodd;clip-rule:evenodd;fill:#f87d8f" class="fills">
          </path>
        </g>
      </g>
    </g>
    <g id="shape-4a823e8f-efa8-800a-8004-73ef4f35fc59" style="fill:#000000" rx="0" ry="0">
      <g id="shape-4a823e8f-efa8-800a-8004-73ef4f36a2ea" style="opacity:1">
        <g class="fills" id="fills-4a823e8f-efa8-800a-8004-73ef4f36a2ea">
          <path d="M305.500,330.000C322.500,330.000,339.500,330.000,356.500,330.000C356.500,333.667,356.500,337.333,356.500,341.000C343.323,340.671,330.323,341.005,317.500,342.000C317.500,351.000,317.500,360.000,317.500,369.000C330.500,369.000,343.500,369.000,356.500,369.000C356.500,373.000,356.500,377.000,356.500,381.000C339.500,381.000,322.500,381.000,305.500,381.000C305.500,364.000,305.500,347.000,305.500,330.000ZZZ" style="-webkit-print-color-adjust:exact;shape-rendering:geometricPrecision;text-rendering:geometricPrecision;image-rendering:optimizeQuality;fill-rule:evenodd;clip-rule:evenodd;fill:#1b111e" class="fills">
          </path>
        </g>
      </g>
    </g>
    <g id="shape-4a823e8f-efa8-800a-8004-73ef4f36feb0" style="fill:#000000" rx="0" ry="0">
      <g id="shape-4a823e8f-efa8-800a-8004-73ef4f3860ce" style="opacity:1">
        <g class="fills" id="fills-4a823e8f-efa8-800a-8004-73ef4f3860ce">
          <path d="M494.500,330.000C494.500,347.000,494.500,364.000,494.500,381.000C490.500,381.000,486.500,381.000,482.500,381.000C482.500,368.000,482.500,355.000,482.500,342.000C476.833,342.000,471.167,342.000,465.500,342.000C465.500,355.000,465.500,368.000,465.500,381.000C461.500,381.000,457.500,381.000,453.500,381.000C453.500,368.000,453.500,355.000,453.500,342.000C447.690,341.010,441.690,340.677,435.500,341.000C435.500,354.333,435.500,367.667,435.500,381.000C431.833,381.000,428.167,381.000,424.500,381.000C424.500,364.000,424.500,347.000,424.500,330.000C447.833,330.000,471.167,330.000,494.500,330.000ZZZ" style="-webkit-print-color-adjust:exact;shape-rendering:geometricPrecision;text-rendering:geometricPrecision;image-rendering:optimizeQuality;fill-rule:evenodd;clip-rule:evenodd;fill:#1c131f" class="fills">
          </path>
        </g>
      </g>
    </g>
    <g id="shape-4a823e8f-efa8-800a-8004-73ef4f389045" style="fill:#000000" rx="0" ry="0">
      <g id="shape-4a823e8f-efa8-800a-8004-73ef4f397924" style="opacity:1">
        <g class="fills" id="fills-4a823e8f-efa8-800a-8004-73ef4f397924">
          <path d="M726.500,330.000C730.167,330.000,733.833,330.000,737.500,330.000C737.177,336.522,737.510,342.855,738.500,349.000C747.500,349.000,756.500,349.000,765.500,349.000C765.500,342.667,765.500,336.333,765.500,330.000C769.500,330.000,773.500,330.000,777.500,330.000C777.500,347.000,777.500,364.000,777.500,381.000C760.500,381.000,743.500,381.000,726.500,381.000C726.500,377.000,726.500,373.000,726.500,369.000C739.500,369.000,752.500,369.000,765.500,369.000C765.500,366.333,765.500,363.667,765.500,361.000C752.500,361.000,739.500,361.000,726.500,361.000C726.500,350.667,726.500,340.333,726.500,330.000ZZZ" style="-webkit-print-color-adjust:exact;shape-rendering:geometricPrecision;text-rendering:geometricPrecision;image-rendering:optimizeQuality;fill-rule:evenodd;clip-rule:evenodd;fill:#1b111e" class="fills">
          </path>
        </g>
      </g>
    </g>
    <g id="shape-4a823e8f-efa8-800a-8004-73ef4f39dcc1">
      <g class="fills" id="fills-4a823e8f-efa8-800a-8004-73ef4f39dcc1">
        <path d="M364.500,330.000C381.500,330.000,398.500,330.000,415.500,330.000C415.500,347.000,415.500,364.000,415.500,381.000C398.500,381.000,381.500,381.000,364.500,381.000C364.500,364.000,364.500,347.000,364.500,330.000ZZM377.500,342.000C377.500,350.667,377.500,359.333,377.500,368.000C386.167,368.000,394.833,368.000,403.500,368.000C403.500,359.333,403.500,350.667,403.500,342.000C394.833,342.000,386.167,342.000,377.500,342.000ZZ" style="-webkit-print-color-adjust:exact;fill:#1c121f" class="fills">
        </path>
      </g>
    </g>
    <g id="shape-4a823e8f-efa8-800a-8004-73ef4f3a9f48">
      <g class="fills" id="fills-4a823e8f-efa8-800a-8004-73ef4f3a9f48">
        <path d="M502.500,330.000C519.500,330.000,536.500,330.000,553.500,330.000C553.500,343.667,553.500,357.333,553.500,371.000C540.500,371.000,527.500,371.000,514.500,371.000C514.500,374.333,514.500,377.667,514.500,381.000C510.500,381.000,506.500,381.000,502.500,381.000C502.500,364.000,502.500,347.000,502.500,330.000ZZM514.500,342.000C514.500,347.667,514.500,353.333,514.500,359.000C523.500,359.000,532.500,359.000,541.500,359.000C541.500,353.333,541.500,347.667,541.500,342.000C532.500,342.000,523.500,342.000,514.500,342.000ZZ" style="-webkit-print-color-adjust:exact;fill:#1c121f" class="fills">
        </path>
      </g>
    </g>
    <g id="shape-4a823e8f-efa8-800a-8004-73ef4f3b7c00">
      <g class="fills" id="fills-4a823e8f-efa8-800a-8004-73ef4f3b7c00">
        <path d="M613.500,330.000C613.500,343.667,613.500,357.333,613.500,371.000C610.150,370.835,606.817,371.002,603.500,371.500C606.500,374.500,609.500,377.500,612.500,380.500C607.500,381.167,602.500,381.167,597.500,380.500C595.333,377.167,592.666,374.334,589.500,372.000C584.360,371.012,579.026,370.679,573.500,371.000C573.500,374.333,573.500,377.667,573.500,381.000C569.833,381.000,566.167,381.000,562.500,381.000C562.500,364.000,562.500,347.000,562.500,330.000C579.500,330.000,596.500,330.000,613.500,330.000ZZM600.500,359.000C600.500,353.333,600.500,347.667,600.500,342.000C591.833,342.000,583.167,342.000,574.500,342.000C574.500,347.667,574.500,353.333,574.500,359.000C583.167,359.000,591.833,359.000,600.500,359.000ZZ" style="-webkit-print-color-adjust:exact;fill:#1c121f" class="fills">
        </path>
      </g>
    </g>
    <g id="shape-4a823e8f-efa8-800a-8004-73ef4f3c107d">
      <g class="fills" id="fills-4a823e8f-efa8-800a-8004-73ef4f3c107d">
        <path d="M672.500,330.000C672.500,347.000,672.500,364.000,672.500,381.000C668.500,381.000,664.500,381.000,660.500,381.000C660.500,377.667,660.500,374.333,660.500,371.000C651.167,371.000,641.833,371.000,632.500,371.000C632.500,374.333,632.500,377.667,632.500,381.000C628.833,381.000,625.167,381.000,621.500,381.000C621.500,364.000,621.500,347.000,621.500,330.000C638.500,330.000,655.500,330.000,672.500,330.000ZZM659.500,359.000C659.500,353.333,659.500,347.667,659.500,342.000C650.833,342.000,642.167,342.000,633.500,342.000C633.500,347.667,633.500,353.333,633.500,359.000C642.167,359.000,650.833,359.000,659.500,359.000ZZ" style="-webkit-print-color-adjust:exact;fill:#1c121f" class="fills">
        </path>
      </g>
    </g>
    <g id="shape-4a823e8f-efa8-800a-8004-73ef4f3cc485" style="fill:#000000" rx="0" ry="0">
      <g id="shape-4a823e8f-efa8-800a-8004-73ef4f3d7bbe" style="opacity:1">
        <g class="fills" id="fills-4a823e8f-efa8-800a-8004-73ef4f3d7bbe">
          <path d="M318.500,405.000C321.387,417.733,323.387,430.733,324.500,444.000C329.500,444.000,334.500,444.000,339.500,444.000C341.175,430.949,343.175,417.949,345.500,405.000C349.833,405.000,354.167,405.000,358.500,405.000C355.725,421.982,353.059,438.982,350.500,456.000C338.167,456.000,325.833,456.000,313.500,456.000C311.707,440.243,309.374,424.576,306.500,409.000C306.500,407.667,306.500,406.333,306.500,405.000C310.500,405.000,314.500,405.000,318.500,405.000ZZZ" style="-webkit-print-color-adjust:exact;shape-rendering:geometricPrecision;text-rendering:geometricPrecision;image-rendering:optimizeQuality;fill-rule:evenodd;clip-rule:evenodd;fill:#1d1320" class="fills">
          </path>
        </g>
      </g>
    </g>
    <g id="shape-4a823e8f-efa8-800a-8004-73ef4f3d9620" style="fill:#000000" rx="0" ry="0">
      <g id="shape-4a823e8f-efa8-800a-8004-73ef4f3e4864" style="opacity:1">
        <g class="fills" id="fills-4a823e8f-efa8-800a-8004-73ef4f3e4864">
          <path d="M366.500,405.000C383.500,405.000,400.500,405.000,417.500,405.000C417.500,408.667,417.500,412.333,417.500,416.000C404.323,415.671,391.323,416.005,378.500,417.000C378.500,419.333,378.500,421.667,378.500,424.000C391.500,424.000,404.500,424.000,417.500,424.000C417.500,428.000,417.500,432.000,417.500,436.000C404.500,436.000,391.500,436.000,378.500,436.000C378.194,438.885,378.527,441.552,379.500,444.000C392.500,444.000,405.500,444.000,418.500,444.000C418.500,448.000,418.500,452.000,418.500,456.000C401.167,456.000,383.833,456.000,366.500,456.000C366.500,439.000,366.500,422.000,366.500,405.000ZZZ" style="-webkit-print-color-adjust:exact;shape-rendering:geometricPrecision;text-rendering:geometricPrecision;image-rendering:optimizeQuality;fill-rule:evenodd;clip-rule:evenodd;fill:#1c131f" class="fills">
          </path>
        </g>
      </g>
    </g>
    <g id="shape-4a823e8f-efa8-800a-8004-73ef4f3e85e6" style="fill:#000000" rx="0" ry="0">
      <g id="shape-4a823e8f-efa8-800a-8004-73ef4f3f4164" style="opacity:1">
        <g class="fills" id="fills-4a823e8f-efa8-800a-8004-73ef4f3f4164">
          <path d="M463.500,431.000C463.560,431.543,463.893,431.876,464.500,432.000C465.498,423.025,465.832,414.025,465.500,405.000C469.167,405.000,472.833,405.000,476.500,405.000C476.500,422.000,476.500,439.000,476.500,456.000C472.500,456.000,468.500,456.000,464.500,456.000C464.665,452.982,464.498,449.982,464.000,447.000C456.066,440.954,447.899,435.287,439.500,430.000C439.440,429.457,439.107,429.124,438.500,429.000C437.502,437.975,437.168,446.975,437.500,456.000C433.500,456.000,429.500,456.000,425.500,456.000C425.500,439.000,425.500,422.000,425.500,405.000C429.500,405.000,433.500,405.000,437.500,405.000C437.336,407.687,437.503,410.354,438.000,413.000C446.441,419.133,454.941,425.133,463.500,431.000ZZZ" style="-webkit-print-color-adjust:exact;shape-rendering:geometricPrecision;text-rendering:geometricPrecision;image-rendering:optimizeQuality;fill-rule:evenodd;clip-rule:evenodd;fill:#1c131f" class="fills">
          </path>
        </g>
      </g>
    </g>
    <g id="shape-4a823e8f-efa8-800a-8004-73ef4f3fa65b" style="fill:#000000" rx="0" ry="0">
      <g id="shape-4a823e8f-efa8-800a-8004-73ef4f40b4ec" style="opacity:1">
        <g class="fills" id="fills-4a823e8f-efa8-800a-8004-73ef4f40b4ec">
          <path d="M536.500,405.000C536.500,422.000,536.500,439.000,536.500,456.000C519.500,456.000,502.500,456.000,485.500,456.000C485.500,445.667,485.500,435.333,485.500,425.000C489.167,425.000,492.833,425.000,496.500,425.000C496.177,431.522,496.510,437.855,497.500,444.000C506.167,444.000,514.833,444.000,523.500,444.000C524.494,434.848,524.827,425.515,524.500,416.000C511.500,416.000,498.500,416.000,485.500,416.000C485.500,412.333,485.500,408.667,485.500,405.000C502.500,405.000,519.500,405.000,536.500,405.000ZZZ" style="-webkit-print-color-adjust:exact;shape-rendering:geometricPrecision;text-rendering:geometricPrecision;image-rendering:optimizeQuality;fill-rule:evenodd;clip-rule:evenodd;fill:#1b121f" class="fills">
          </path>
        </g>
      </g>
    </g>
    <g id="shape-4a823e8f-efa8-800a-8004-73ef4f40c843" style="fill:#000000" rx="0" ry="0">
      <g id="shape-4a823e8f-efa8-800a-8004-73ef4f41d91f" style="opacity:1">
        <g class="fills" id="fills-4a823e8f-efa8-800a-8004-73ef4f41d91f">
          <path d="M594.500,405.000C594.500,408.667,594.500,412.333,594.500,416.000C581.500,416.000,568.500,416.000,555.500,416.000C555.500,419.000,555.500,422.000,555.500,425.000C568.500,425.000,581.500,425.000,594.500,425.000C594.500,428.667,594.500,432.333,594.500,436.000C581.500,436.000,568.500,436.000,555.500,436.000C555.194,438.885,555.527,441.552,556.500,444.000C569.500,444.000,582.500,444.000,595.500,444.000C595.500,448.000,595.500,452.000,595.500,456.000C578.500,456.000,561.500,456.000,544.500,456.000C544.500,439.000,544.500,422.000,544.500,405.000C561.167,405.000,577.833,405.000,594.500,405.000ZZZ" style="-webkit-print-color-adjust:exact;shape-rendering:geometricPrecision;text-rendering:geometricPrecision;image-rendering:optimizeQuality;fill-rule:evenodd;clip-rule:evenodd;fill:#1b111e" class="fills">
          </path>
        </g>
      </g>
    </g>
    <g id="shape-4a823e8f-efa8-800a-8004-73ef4f42046a" style="fill:#000000" rx="0" ry="0">
      <g id="shape-4a823e8f-efa8-800a-8004-73ef4f428e36" style="opacity:1">
        <g class="fills" id="fills-4a823e8f-efa8-800a-8004-73ef4f428e36">
          <path d="M328.500,474.000C330.833,474.000,333.167,474.000,335.500,474.000C335.500,484.333,335.500,494.667,335.500,505.000C325.167,505.000,314.833,505.000,304.500,505.000C304.500,500.667,304.500,496.333,304.500,492.000C306.833,492.000,309.167,492.000,311.500,492.000C311.500,493.667,311.500,495.333,311.500,497.000C316.975,497.989,322.642,498.322,328.500,498.000C328.500,490.000,328.500,482.000,328.500,474.000ZZZ" style="-webkit-print-color-adjust:exact;shape-rendering:geometricPrecision;text-rendering:geometricPrecision;image-rendering:optimizeQuality;fill-rule:evenodd;clip-rule:evenodd;fill:#1a111d" class="fills">
          </path>
        </g>
      </g>
    </g>
    <g id="shape-4a823e8f-efa8-800a-8004-73ef4f42d801" style="fill:#000000" rx="0" ry="0">
      <g id="shape-4a823e8f-efa8-800a-8004-73ef4f43a5b4" style="opacity:1">
        <g class="fills" id="fills-4a823e8f-efa8-800a-8004-73ef4f43a5b4">
          <path d="M347.500,497.000C352.975,497.989,358.642,498.322,364.500,498.000C364.500,490.000,364.500,482.000,364.500,474.000C366.833,474.000,369.167,474.000,371.500,474.000C371.500,484.333,371.500,494.667,371.500,505.000C361.167,505.000,350.833,505.000,340.500,505.000C340.500,494.667,340.500,484.333,340.500,474.000C342.833,474.000,345.167,474.000,347.500,474.000C347.500,481.667,347.500,489.333,347.500,497.000ZZZ" style="-webkit-print-color-adjust:exact;shape-rendering:geometricPrecision;text-rendering:geometricPrecision;image-rendering:optimizeQuality;fill-rule:evenodd;clip-rule:evenodd;fill:#1a111d" class="fills">
          </path>
        </g>
      </g>
    </g>
    <g id="shape-4a823e8f-efa8-800a-8004-73ef4f43df2b" style="fill:#000000" rx="0" ry="0">
      <g id="shape-4a823e8f-efa8-800a-8004-73ef4f44f16c" style="opacity:1">
        <g class="fills" id="fills-4a823e8f-efa8-800a-8004-73ef4f44f16c">
          <path d="M383.500,497.000C388.975,497.989,394.642,498.322,400.500,498.000C400.784,496.085,400.451,494.419,399.500,493.000C397.833,493.000,396.167,493.000,394.500,493.000C394.500,490.667,394.500,488.333,394.500,486.000C398.833,486.000,403.167,486.000,407.500,486.000C407.500,492.333,407.500,498.667,407.500,505.000C397.167,505.000,386.833,505.000,376.500,505.000C376.500,494.667,376.500,484.333,376.500,474.000C386.833,474.000,397.167,474.000,407.500,474.000C407.500,476.333,407.500,478.667,407.500,481.000C399.500,481.000,391.500,481.000,383.500,481.000C383.500,486.333,383.500,491.667,383.500,497.000ZZZ" style="-webkit-print-color-adjust:exact;shape-rendering:geometricPrecision;text-rendering:geometricPrecision;image-rendering:optimizeQuality;fill-rule:evenodd;clip-rule:evenodd;fill:#1a111d" class="fills">
          </path>
        </g>
      </g>
    </g>
    <g id="shape-4a823e8f-efa8-800a-8004-73ef4f452eb3" style="fill:#000000" rx="0" ry="0">
      <g id="shape-4a823e8f-efa8-800a-8004-73ef4f45dee6" style="opacity:1">
        <g class="fills" id="fills-4a823e8f-efa8-800a-8004-73ef4f45dee6">
          <path d="M419.500,474.000C419.500,482.000,419.500,490.000,419.500,498.000C425.358,498.322,431.025,497.989,436.500,497.000C436.500,489.333,436.500,481.667,436.500,474.000C438.833,474.000,441.167,474.000,443.500,474.000C443.500,484.333,443.500,494.667,443.500,505.000C433.167,505.000,422.833,505.000,412.500,505.000C412.500,494.667,412.500,484.333,412.500,474.000C414.833,474.000,417.167,474.000,419.500,474.000ZZZ" style="-webkit-print-color-adjust:exact;shape-rendering:geometricPrecision;text-rendering:geometricPrecision;image-rendering:optimizeQuality;fill-rule:evenodd;clip-rule:evenodd;fill:#1a111d" class="fills">
          </path>
        </g>
      </g>
    </g>
    <g id="shape-4a823e8f-efa8-800a-8004-73ef4f45dee7" style="fill:#000000" rx="0" ry="0">
      <g id="shape-4a823e8f-efa8-800a-8004-73ef4f46b1ec" style="opacity:1">
        <g class="fills" id="fills-4a823e8f-efa8-800a-8004-73ef4f46b1ec">
          <path d="M456.500,481.000C455.549,482.419,455.216,484.085,455.500,486.000C463.500,486.000,471.500,486.000,479.500,486.000C479.500,488.333,479.500,490.667,479.500,493.000C471.833,493.000,464.167,493.000,456.500,493.000C455.549,494.419,455.216,496.085,455.500,498.000C463.500,498.000,471.500,498.000,479.500,498.000C479.500,500.333,479.500,502.667,479.500,505.000C469.167,505.000,458.833,505.000,448.500,505.000C448.500,494.667,448.500,484.333,448.500,474.000C458.833,474.000,469.167,474.000,479.500,474.000C479.500,476.333,479.500,478.667,479.500,481.000C471.833,481.000,464.167,481.000,456.500,481.000ZZZ" style="-webkit-print-color-adjust:exact;shape-rendering:geometricPrecision;text-rendering:geometricPrecision;image-rendering:optimizeQuality;fill-rule:evenodd;clip-rule:evenodd;fill:#1a111d" class="fills">
          </path>
        </g>
      </g>
    </g>
    <g id="shape-4a823e8f-efa8-800a-8004-73ef4f46e3e9" style="fill:#000000" rx="0" ry="0">
      <g id="shape-4a823e8f-efa8-800a-8004-73ef4f475d42" style="opacity:1">
        <g class="fills" id="fills-4a823e8f-efa8-800a-8004-73ef4f475d42">
          <path d="M484.500,474.000C494.833,474.000,505.167,474.000,515.500,474.000C515.500,476.333,515.500,478.667,515.500,481.000C511.500,481.000,507.500,481.000,503.500,481.000C503.500,489.000,503.500,497.000,503.500,505.000C501.167,505.000,498.833,505.000,496.500,505.000C496.500,497.000,496.500,489.000,496.500,481.000C492.500,481.000,488.500,481.000,484.500,481.000C484.500,478.667,484.500,476.333,484.500,474.000ZZZ" style="-webkit-print-color-adjust:exact;shape-rendering:geometricPrecision;text-rendering:geometricPrecision;image-rendering:optimizeQuality;fill-rule:evenodd;clip-rule:evenodd;fill:#1a111d" class="fills">
          </path>
        </g>
      </g>
    </g>
    <g id="shape-4a823e8f-efa8-800a-8004-73ef4f47b400" style="fill:#000000" rx="0" ry="0">
      <g id="shape-4a823e8f-efa8-800a-8004-73ef4f48203e" style="opacity:1">
        <g class="fills" id="fills-4a823e8f-efa8-800a-8004-73ef4f48203e">
          <path d="M528.500,481.000C527.549,482.419,527.216,484.085,527.500,486.000C535.500,486.000,543.500,486.000,551.500,486.000C551.500,488.333,551.500,490.667,551.500,493.000C543.833,493.000,536.167,493.000,528.500,493.000C527.549,494.419,527.216,496.085,527.500,498.000C535.500,498.000,543.500,498.000,551.500,498.000C551.500,500.333,551.500,502.667,551.500,505.000C541.167,505.000,530.833,505.000,520.500,505.000C520.500,494.667,520.500,484.333,520.500,474.000C530.833,474.000,541.167,474.000,551.500,474.000C551.500,476.333,551.500,478.667,551.500,481.000C543.833,481.000,536.167,481.000,528.500,481.000ZZZ" style="-webkit-print-color-adjust:exact;shape-rendering:geometricPrecision;text-rendering:geometricPrecision;image-rendering:optimizeQuality;fill-rule:evenodd;clip-rule:evenodd;fill:#1b121e" class="fills">
          </path>
        </g>
      </g>
    </g>
    <g id="shape-4a823e8f-efa8-800a-8004-73ef4f4865b2" style="fill:#000000" rx="0" ry="0">
      <g id="shape-4a823e8f-efa8-800a-8004-73ef4f4952a1" style="opacity:1">
        <g class="fills" id="fills-4a823e8f-efa8-800a-8004-73ef4f4952a1">
          <path d="M564.500,481.000C563.549,482.419,563.216,484.085,563.500,486.000C571.500,486.000,579.500,486.000,587.500,486.000C587.500,492.333,587.500,498.667,587.500,505.000C577.167,505.000,566.833,505.000,556.500,505.000C556.500,502.667,556.500,500.333,556.500,498.000C564.500,498.000,572.500,498.000,580.500,498.000C580.500,496.333,580.500,494.667,580.500,493.000C572.500,493.000,564.500,493.000,556.500,493.000C556.500,486.667,556.500,480.333,556.500,474.000C566.833,474.000,577.167,474.000,587.500,474.000C587.500,476.333,587.500,478.667,587.500,481.000C579.833,481.000,572.167,481.000,564.500,481.000ZZZ" style="-webkit-print-color-adjust:exact;shape-rendering:geometricPrecision;text-rendering:geometricPrecision;image-rendering:optimizeQuality;fill-rule:evenodd;clip-rule:evenodd;fill:#1b121e" class="fills">
          </path>
        </g>
      </g>
    </g>
    <g id="shape-4a823e8f-efa8-800a-8004-73ef4f4952a2" style="fill:#000000" rx="0" ry="0">
      <g id="shape-4a823e8f-efa8-800a-8004-73ef4f4a25b7" style="opacity:1">
        <g class="fills" id="fills-4a823e8f-efa8-800a-8004-73ef4f4a25b7">
          <path d="M311.500,543.000C316.975,543.989,322.642,544.322,328.500,544.000C328.822,538.142,328.489,532.475,327.500,527.000C319.833,527.000,312.167,527.000,304.500,527.000C304.500,524.667,304.500,522.333,304.500,520.000C314.833,520.000,325.167,520.000,335.500,520.000C335.500,530.333,335.500,540.667,335.500,551.000C325.167,551.000,314.833,551.000,304.500,551.000C304.500,544.667,304.500,538.333,304.500,532.000C306.833,532.000,309.167,532.000,311.500,532.000C311.500,535.667,311.500,539.333,311.500,543.000ZZZ" style="-webkit-print-color-adjust:exact;shape-rendering:geometricPrecision;text-rendering:geometricPrecision;image-rendering:optimizeQuality;fill-rule:evenodd;clip-rule:evenodd;fill:#1a111d" class="fills">
          </path>
        </g>
      </g>
    </g>
    <g id="shape-4a823e8f-efa8-800a-8004-73ef4f4a5bf4" style="fill:#000000" rx="0" ry="0">
      <g id="shape-4a823e8f-efa8-800a-8004-73ef4f4b4231" style="opacity:1">
        <g class="fills" id="fills-4a823e8f-efa8-800a-8004-73ef4f4b4231">
          <path d="M340.500,520.000C350.833,520.000,361.167,520.000,371.500,520.000C371.500,522.333,371.500,524.667,371.500,527.000C363.500,527.000,355.500,527.000,347.500,527.000C347.500,528.667,347.500,530.333,347.500,532.000C355.500,532.000,363.500,532.000,371.500,532.000C371.500,534.333,371.500,536.667,371.500,539.000C363.500,539.000,355.500,539.000,347.500,539.000C347.500,540.667,347.500,542.333,347.500,544.000C355.500,544.000,363.500,544.000,371.500,544.000C371.500,546.333,371.500,548.667,371.500,551.000C361.167,551.000,350.833,551.000,340.500,551.000C340.500,540.667,340.500,530.333,340.500,520.000ZZZ" style="-webkit-print-color-adjust:exact;shape-rendering:geometricPrecision;text-rendering:geometricPrecision;image-rendering:optimizeQuality;fill-rule:evenodd;clip-rule:evenodd;fill:#1a111d" class="fills">
          </path>
        </g>
      </g>
    </g>
    <g id="shape-4a823e8f-efa8-800a-8004-73ef4f4bd808" style="fill:#000000" rx="0" ry="0">
      <g id="shape-4a823e8f-efa8-800a-8004-73ef4f4c755d" style="opacity:1">
        <g class="fills" id="fills-4a823e8f-efa8-800a-8004-73ef4f4c755d">
          <path d="M412.500,527.000C411.549,528.419,411.216,530.085,411.500,532.000C419.500,532.000,427.500,532.000,435.500,532.000C435.500,538.333,435.500,544.667,435.500,551.000C425.167,551.000,414.833,551.000,404.500,551.000C404.500,548.667,404.500,546.333,404.500,544.000C412.500,544.000,420.500,544.000,428.500,544.000C428.500,542.333,428.500,540.667,428.500,539.000C420.500,539.000,412.500,539.000,404.500,539.000C404.500,532.667,404.500,526.333,404.500,520.000C414.833,520.000,425.167,520.000,435.500,520.000C435.500,522.333,435.500,524.667,435.500,527.000C427.833,527.000,420.167,527.000,412.500,527.000ZZZ" style="-webkit-print-color-adjust:exact;shape-rendering:geometricPrecision;text-rendering:geometricPrecision;image-rendering:optimizeQuality;fill-rule:evenodd;clip-rule:evenodd;fill:#1a111d" class="fills">
          </path>
        </g>
      </g>
    </g>
    <g id="shape-4a823e8f-efa8-800a-8004-73ef4f4cb1fc" style="fill:#000000" rx="0" ry="0">
      <g id="shape-4a823e8f-efa8-800a-8004-73ef4f4d4e6b" style="opacity:1">
        <g class="fills" id="fills-4a823e8f-efa8-800a-8004-73ef4f4d4e6b">
          <path d="M448.500,527.000C447.549,528.419,447.216,530.085,447.500,532.000C455.500,532.000,463.500,532.000,471.500,532.000C471.500,534.333,471.500,536.667,471.500,539.000C463.833,539.000,456.167,539.000,448.500,539.000C447.549,540.419,447.216,542.085,447.500,544.000C455.500,544.000,463.500,544.000,471.500,544.000C471.500,546.333,471.500,548.667,471.500,551.000C461.167,551.000,450.833,551.000,440.500,551.000C440.500,540.667,440.500,530.333,440.500,520.000C450.833,520.000,461.167,520.000,471.500,520.000C471.500,522.333,471.500,524.667,471.500,527.000C463.833,527.000,456.167,527.000,448.500,527.000ZZZ" style="-webkit-print-color-adjust:exact;shape-rendering:geometricPrecision;text-rendering:geometricPrecision;image-rendering:optimizeQuality;fill-rule:evenodd;clip-rule:evenodd;fill:#1a111d" class="fills">
          </path>
        </g>
      </g>
    </g>
    <g id="shape-4a823e8f-efa8-800a-8004-73ef4f4dc028" style="fill:#000000" rx="0" ry="0">
      <g id="shape-4a823e8f-efa8-800a-8004-73ef4f4e8ac7" style="opacity:1">
        <g class="fills" id="fills-4a823e8f-efa8-800a-8004-73ef4f4e8ac7">
          <path d="M484.500,527.000C483.511,532.475,483.178,538.142,483.500,544.000C489.358,544.322,495.025,543.989,500.500,543.000C500.500,541.667,500.500,540.333,500.500,539.000C498.500,539.000,496.500,539.000,494.500,539.000C494.500,536.667,494.500,534.333,494.500,532.000C498.833,532.000,503.167,532.000,507.500,532.000C507.500,538.333,507.500,544.667,507.500,551.000C497.167,551.000,486.833,551.000,476.500,551.000C476.500,540.667,476.500,530.333,476.500,520.000C486.833,520.000,497.167,520.000,507.500,520.000C507.500,522.333,507.500,524.667,507.500,527.000C499.833,527.000,492.167,527.000,484.500,527.000ZZZ" style="-webkit-print-color-adjust:exact;shape-rendering:geometricPrecision;text-rendering:geometricPrecision;image-rendering:optimizeQuality;fill-rule:evenodd;clip-rule:evenodd;fill:#1c121f" class="fills">
          </path>
        </g>
      </g>
    </g>
    <g id="shape-4a823e8f-efa8-800a-8004-73ef4f4eeebb" style="fill:#000000" rx="0" ry="0">
      <g id="shape-4a823e8f-efa8-800a-8004-73ef4f4f81fb" style="opacity:1">
        <g class="fills" id="fills-4a823e8f-efa8-800a-8004-73ef4f4f81fb">
          <path d="M519.500,520.000C519.500,528.000,519.500,536.000,519.500,544.000C525.358,544.322,531.025,543.989,536.500,543.000C536.500,535.333,536.500,527.667,536.500,520.000C538.833,520.000,541.167,520.000,543.500,520.000C543.500,530.333,543.500,540.667,543.500,551.000C533.167,551.000,522.833,551.000,512.500,551.000C512.500,540.667,512.500,530.333,512.500,520.000C514.833,520.000,517.167,520.000,519.500,520.000ZZZ" style="-webkit-print-color-adjust:exact;shape-rendering:geometricPrecision;text-rendering:geometricPrecision;image-rendering:optimizeQuality;fill-rule:evenodd;clip-rule:evenodd;fill:#1c131f" class="fills">
          </path>
        </g>
      </g>
    </g>
    <g id="shape-4a823e8f-efa8-800a-8004-73ef4f4fe6ad" style="fill:#000000" rx="0" ry="0">
      <g id="shape-4a823e8f-efa8-800a-8004-73ef4f50813a" style="opacity:1">
        <g class="fills" id="fills-4a823e8f-efa8-800a-8004-73ef4f50813a">
          <path d="M548.500,520.000C550.833,520.000,553.167,520.000,555.500,520.000C555.261,521.967,555.594,523.801,556.500,525.500C561.926,528.629,567.093,532.129,572.000,536.000C572.499,530.677,572.666,525.344,572.500,520.000C574.833,520.000,577.167,520.000,579.500,520.000C579.500,530.333,579.500,540.667,579.500,551.000C577.167,551.000,574.833,551.000,572.500,551.000C572.799,548.896,572.466,546.896,571.500,545.000C566.245,541.456,561.079,537.790,556.000,534.000C555.501,539.657,555.334,545.324,555.500,551.000C553.167,551.000,550.833,551.000,548.500,551.000C548.500,540.667,548.500,530.333,548.500,520.000ZZZ" style="-webkit-print-color-adjust:exact;shape-rendering:geometricPrecision;text-rendering:geometricPrecision;image-rendering:optimizeQuality;fill-rule:evenodd;clip-rule:evenodd;fill:#1e1421" class="fills">
          </path>
        </g>
      </g>
    </g>
    <g id="shape-4a823e8f-efa8-800a-8004-73ef4f50cc37" style="fill:#000000" rx="0" ry="0">
      <g id="shape-4a823e8f-efa8-800a-8004-73ef4f518e5b" style="opacity:1">
        <g class="fills" id="fills-4a823e8f-efa8-800a-8004-73ef4f518e5b">
          <path d="M616.500,520.000C616.500,530.333,616.500,540.667,616.500,551.000C606.167,551.000,595.833,551.000,585.500,551.000C585.500,544.667,585.500,538.333,585.500,532.000C587.500,532.000,589.500,532.000,591.500,532.000C591.500,536.000,591.500,540.000,591.500,544.000C597.500,544.000,603.500,544.000,609.500,544.000C609.822,538.142,609.489,532.475,608.500,527.000C600.833,527.000,593.167,527.000,585.500,527.000C585.500,524.667,585.500,522.333,585.500,520.000C595.833,520.000,606.167,520.000,616.500,520.000ZZZ" style="-webkit-print-color-adjust:exact;shape-rendering:geometricPrecision;text-rendering:geometricPrecision;image-rendering:optimizeQuality;fill-rule:evenodd;clip-rule:evenodd;fill:#1d1320" class="fills">
          </path>
        </g>
      </g>
    </g>
    <g id="shape-4a823e8f-efa8-800a-8004-73ef4f523b39" style="fill:#000000" rx="0" ry="0">
      <g id="shape-4a823e8f-efa8-800a-8004-73ef4f5280a2" style="opacity:1">
        <g class="fills" id="fills-4a823e8f-efa8-800a-8004-73ef4f5280a2">
          <path d="M685.500,520.000C699.833,520.000,714.167,520.000,728.500,520.000C728.500,530.333,728.500,540.667,728.500,551.000C726.167,551.000,723.833,551.000,721.500,551.000C721.500,543.000,721.500,535.000,721.500,527.000C717.833,527.000,714.167,527.000,710.500,527.000C710.500,535.000,710.500,543.000,710.500,551.000C708.167,551.000,705.833,551.000,703.500,551.000C703.500,543.000,703.500,535.000,703.500,527.000C699.833,527.000,696.167,527.000,692.500,527.000C692.500,535.000,692.500,543.000,692.500,551.000C690.167,551.000,687.833,551.000,685.500,551.000C685.500,540.667,685.500,530.333,685.500,520.000ZZZ" style="-webkit-print-color-adjust:exact;shape-rendering:geometricPrecision;text-rendering:geometricPrecision;image-rendering:optimizeQuality;fill-rule:evenodd;clip-rule:evenodd;fill:#1a111d" class="fills">
          </path>
        </g>
      </g>
    </g>
    <g id="shape-4a823e8f-efa8-800a-8004-73ef4f52c232" style="fill:#000000" rx="0" ry="0">
      <g id="shape-4a823e8f-efa8-800a-8004-73ef4f5382b0" style="opacity:1">
        <g class="fills" id="fills-4a823e8f-efa8-800a-8004-73ef4f5382b0">
          <path d="M769.500,520.000C771.833,520.000,774.167,520.000,776.500,520.000C776.340,521.699,776.506,523.366,777.000,525.000C782.079,528.790,787.245,532.456,792.500,536.000C793.495,530.708,793.828,525.375,793.500,520.000C795.833,520.000,798.167,520.000,800.500,520.000C800.500,530.333,800.500,540.667,800.500,551.000C798.167,551.000,795.833,551.000,793.500,551.000C793.660,549.301,793.494,547.634,793.000,546.000C787.667,542.000,782.333,538.000,777.000,534.000C776.501,539.657,776.334,545.324,776.500,551.000C774.167,551.000,771.833,551.000,769.500,551.000C769.500,540.667,769.500,530.333,769.500,520.000ZZZ" style="-webkit-print-color-adjust:exact;shape-rendering:geometricPrecision;text-rendering:geometricPrecision;image-rendering:optimizeQuality;fill-rule:evenodd;clip-rule:evenodd;fill:#1c121f" class="fills">
          </path>
        </g>
      </g>
    </g>
    <g id="shape-4a823e8f-efa8-800a-8004-73ef4f543b12">
      <g class="fills" id="fills-4a823e8f-efa8-800a-8004-73ef4f543b12">
        <path d="M651.500,551.000C649.167,551.000,646.833,551.000,644.500,551.000C644.500,549.000,644.500,547.000,644.500,545.000C639.167,545.000,633.833,545.000,628.500,545.000C628.500,547.000,628.500,549.000,628.500,551.000C626.167,551.000,623.833,551.000,621.500,551.000C621.500,540.667,621.500,530.333,621.500,520.000C631.500,520.000,641.500,520.000,651.500,520.000C651.500,530.333,651.500,540.667,651.500,551.000ZZM644.500,527.000C639.167,527.000,633.833,527.000,628.500,527.000C628.500,530.333,628.500,533.667,628.500,537.000C633.833,537.000,639.167,537.000,644.500,537.000C644.500,533.667,644.500,530.333,644.500,527.000ZZ" style="-webkit-print-color-adjust:exact;fill:#1c121f" class="fills">
        </path>
      </g>
    </g>
    <g id="shape-4a823e8f-efa8-800a-8004-73ef4f550912">
      <g class="fills" id="fills-4a823e8f-efa8-800a-8004-73ef4f550912">
        <path d="M733.500,520.000C743.833,520.000,754.167,520.000,764.500,520.000C764.500,530.333,764.500,540.667,764.500,551.000C762.167,551.000,759.833,551.000,757.500,551.000C757.500,549.000,757.500,547.000,757.500,545.000C751.833,545.000,746.167,545.000,740.500,545.000C740.500,547.000,740.500,549.000,740.500,551.000C738.167,551.000,735.833,551.000,733.500,551.000C733.500,540.667,733.500,530.333,733.500,520.000ZZM756.500,527.000C751.167,527.000,745.833,527.000,740.500,527.000C740.500,530.333,740.500,533.667,740.500,537.000C745.833,537.000,751.167,537.000,756.500,537.000C756.500,533.667,756.500,530.333,756.500,527.000ZZ" style="-webkit-print-color-adjust:exact;fill:#1c121f" class="fills">
        </path>
      </g>
    </g>
    <g id="shape-4a823e8f-efa8-800a-8004-73ef4f572951">
      <g class="fills" id="fills-4a823e8f-efa8-800a-8004-73ef4f572951">
        <path d="M806.500,520.000C816.833,520.000,827.167,520.000,837.500,520.000C837.500,530.333,837.500,540.667,837.500,551.000C827.167,551.000,816.833,551.000,806.500,551.000C806.500,540.667,806.500,530.333,806.500,520.000ZZM829.500,527.000C829.489,527.000,829.477,527.000,829.500,527.000ZZC828.769,527.000,828.072,527.000,827.375,527.000C826.667,527.000,825.958,527.000,825.250,527.000C824.575,527.000,823.900,527.000,823.225,527.000C823.192,527.000,823.158,527.000,823.125,527.000C822.417,527.000,821.708,527.000,821.000,527.000C820.314,527.000,819.627,527.000,818.941,527.000C818.919,527.000,818.897,527.000,818.875,527.000C818.205,527.000,817.536,527.000,816.866,527.000C816.827,527.000,816.789,527.000,816.750,527.000C816.042,527.000,815.333,527.000,814.625,527.000C813.917,527.000,813.208,527.000,812.500,527.000C812.500,532.666,812.500,538.334,812.500,544.000C818.166,544.000,823.834,544.000,829.500,544.000C829.500,543.625,829.500,543.250,829.500,542.876C829.500,542.501,829.500,542.126,829.500,541.751C829.500,541.043,829.500,540.334,829.500,539.626C829.500,539.585,829.500,539.544,829.500,539.503C829.500,538.794,829.500,538.085,829.500,537.377C829.500,537.336,829.500,537.295,829.500,537.254C829.500,536.711,829.500,536.168,829.500,535.625C829.500,535.396,829.500,535.166,829.500,534.937C829.500,534.375,829.500,533.813,829.500,533.250C829.500,533.063,829.500,532.876,829.500,532.688C829.500,532.167,829.500,531.646,829.500,531.125C829.500,530.896,829.500,530.668,829.500,530.439C829.500,530.334,829.500,530.229,829.500,530.123C829.500,529.479,829.500,528.835,829.500,528.191C829.500,527.918,829.500,527.646,829.500,527.374C829.500,527.271,829.500,527.169,829.500,527.000ZZC829.500,527.052,829.500,527.039,829.500,527.000ZZC829.500,527.017,829.500,527.008,829.500,527.000ZZM813.500,527.000C813.875,527.000,814.250,527.000,814.625,527.000C815.333,527.000,816.041,527.000,816.750,527.000C817.458,527.000,818.166,527.000,818.874,527.000C819.583,527.000,820.292,527.000,821.001,527.000C821.709,527.000,822.417,527.000,823.126,527.000C823.834,527.000,824.542,527.000,825.250,527.000C825.959,527.000,826.667,527.000,827.375,527.000C828.052,527.000,828.729,527.000,829.406,527.000C829.437,527.000,829.468,527.000,829.500,527.000C829.500,527.000,829.500,527.000,829.500,527.000C829.500,527.021,829.500,527.042,829.500,527.062C829.500,527.750,829.500,528.437,829.500,529.125C829.500,529.833,829.500,530.541,829.500,531.250C829.500,531.958,829.500,532.666,829.500,533.374C829.500,534.083,829.500,534.792,829.500,535.501C829.500,536.209,829.500,536.917,829.500,537.626C829.500,538.334,829.500,539.042,829.500,539.750C829.500,540.459,829.500,541.167,829.500,541.875C829.500,542.250,829.500,542.625,829.500,543.000C829.500,542.004,829.500,541.008,829.500,540.012C829.500,538.684,829.500,537.356,829.500,536.027C829.500,534.699,829.500,533.371,829.500,532.043C829.500,531.337,829.500,530.632,829.500,529.926C829.500,528.972,829.500,528.017,829.500,527.062C829.500,527.052,829.500,527.043,829.500,527.033C829.500,527.022,829.500,527.011,829.500,527.000C824.167,527.000,818.833,527.000,813.500,527.000ZZ" style="-webkit-print-color-adjust:exact;fill:#1c121f" class="fills">
        </path>
      </g>
    </g>
  </g>
</svg>