<svg width="500" xmlns="http://www.w3.org/2000/svg" height="500" id="screenshot-4795fd89-cbe8-8091-8004-77f29e70feb3" viewBox="-3317 -1155 512 512" style="-webkit-print-color-adjust::exact" xmlns:xlink="http://www.w3.org/1999/xlink" fill="none" version="1.1">
  <g id="shape-4795fd89-cbe8-8091-8004-77f29e70feb3" style="fill:#000000" version="1.0" width="682.667" height="682.667" rx="0" ry="0">
    <g id="shape-4795fd89-cbe8-8091-8004-77f29e721582" style="fill:#000000" rx="0" ry="0">
      <g id="shape-4795fd89-cbe8-8091-8004-77f29e753aea">
        <g class="fills" id="fills-4795fd89-cbe8-8091-8004-77f29e753aea">
          <path d="M-3067.500,-1145.600C-3071.200,-1143.900,-3074.500,-1140.400,-3075.900,-1136.700C-3076.500,-1135.100,-3077.000,-1126.400,-3077.000,-1116.500L-3077.000,-1099.200L-3084.000,-1098.800C-3091.400,-1098.400,-3094.500,-1096.900,-3098.400,-1091.600C-3100.300,-1089.100,-3100.500,-1087.200,-3100.800,-1070.000L-3101.100,-1051.200L-3140.800,-1050.700C-3176.000,-1050.300,-3181.600,-1050.000,-3190.200,-1048.200C-3219.800,-1041.900,-3244.400,-1028.600,-3265.500,-1007.500C-3286.700,-986.400,-3299.600,-962.300,-3306.300,-932.100C-3308.300,-922.700,-3308.400,-919.900,-3308.700,-814.400C-3309.100,-693.800,-3309.300,-698.100,-3302.300,-684.000C-3297.100,-673.700,-3286.300,-662.900,-3276.000,-657.700C-3262.700,-651.100,-3248.500,-649.400,-3234.800,-652.900C-3220.900,-656.500,-3209.000,-664.600,-3201.500,-675.500C-3199.000,-679.200,-3189.200,-700.700,-3175.600,-732.500C-3163.600,-760.600,-3152.400,-786.200,-3150.800,-789.500C-3139.100,-812.800,-3118.000,-828.800,-3092.100,-833.600C-3085.300,-834.900,-3078.500,-835.100,-3057.100,-834.700C-3033.600,-834.400,-3029.600,-834.000,-3023.300,-832.200C-2999.700,-825.200,-2982.300,-810.900,-2972.000,-790.200C-2970.500,-787.100,-2959.700,-762.500,-2948.000,-735.500C-2936.400,-708.600,-2925.400,-683.800,-2923.700,-680.500C-2921.900,-677.200,-2917.800,-671.700,-2914.400,-668.400C-2896.300,-650.300,-2869.600,-646.100,-2846.000,-657.700C-2835.900,-662.700,-2824.900,-673.600,-2819.700,-684.000C-2812.700,-698.100,-2812.900,-693.800,-2813.300,-814.400C-2813.600,-920.100,-2813.700,-922.700,-2815.700,-932.200C-2822.300,-962.200,-2835.400,-986.500,-2856.500,-1007.500C-2873.500,-1024.500,-2892.600,-1036.300,-2914.600,-1043.600C-2933.500,-1049.800,-2938.400,-1050.300,-2981.700,-1050.700L-3020.900,-1051.200L-3021.200,-1070.000C-3021.500,-1087.200,-3021.700,-1089.100,-3023.600,-1091.600C-3027.500,-1096.900,-3030.600,-1098.400,-3038.000,-1098.800L-3044.900,-1099.200L-3045.200,-1118.000C-3045.500,-1138.600,-3045.800,-1139.500,-3052.200,-1144.300C-3055.600,-1146.800,-3063.500,-1147.500,-3067.500,-1145.600ZZM-3053.000,-1059.000L-3053.000,-1051.000L-3061.000,-1051.000L-3069.000,-1051.000L-3069.000,-1059.000L-3069.000,-1067.000L-3061.000,-1067.000L-3053.000,-1067.000L-3053.000,-1059.000ZZM-2945.500,-1018.000C-2907.200,-1012.500,-2875.000,-989.700,-2857.600,-955.700C-2853.000,-946.700,-2848.900,-934.700,-2846.800,-924.000C-2845.800,-918.900,-2845.500,-894.100,-2845.500,-810.500L-2845.500,-703.500L-2847.700,-699.400C-2851.100,-693.100,-2854.300,-689.700,-2860.200,-686.500C-2864.700,-683.900,-2866.600,-683.500,-2873.000,-683.500C-2879.400,-683.500,-2881.300,-683.900,-2885.800,-686.400C-2888.600,-688.000,-2892.100,-690.800,-2893.500,-692.600C-2894.900,-694.500,-2906.300,-719.700,-2918.900,-748.700C-2944.400,-807.800,-2944.800,-808.700,-2951.900,-818.600C-2968.500,-842.200,-2991.700,-857.600,-3021.000,-864.600C-3029.900,-866.800,-3078.400,-867.700,-3091.900,-866.000C-3117.900,-862.700,-3139.300,-852.000,-3158.600,-832.600C-3164.900,-826.200,-3170.500,-819.400,-3173.800,-814.100C-3176.900,-809.000,-3187.800,-784.800,-3202.200,-751.300C-3227.100,-693.000,-3228.500,-690.400,-3237.400,-685.700C-3240.500,-684.100,-3243.200,-683.500,-3249.000,-683.500C-3255.500,-683.500,-3257.200,-683.900,-3261.800,-686.500C-3267.700,-689.700,-3270.900,-693.100,-3274.300,-699.400L-3276.500,-703.500L-3276.800,-806.500C-3277.000,-875.200,-3276.700,-912.200,-3276.000,-917.700C-3272.600,-943.600,-3261.300,-966.700,-3243.000,-985.000C-3224.300,-1003.700,-3203.000,-1014.000,-3174.000,-1018.400C-3168.000,-1019.300,-2952.000,-1018.900,-2945.500,-1018.000ZZ">
          </path>
        </g>
      </g>
      <g id="shape-4795fd89-cbe8-8091-8004-77f29e75f9bd">
        <g class="fills" id="fills-4795fd89-cbe8-8091-8004-77f29e75f9bd">
          <path d="M-3187.500,-993.600C-3191.200,-991.900,-3194.500,-988.400,-3195.900,-984.700C-3196.600,-983.000,-3197.000,-973.200,-3197.000,-960.500L-3197.000,-939.100L-3219.900,-938.800C-3245.100,-938.500,-3245.400,-938.400,-3250.400,-931.600C-3253.300,-927.700,-3253.300,-918.300,-3250.400,-914.400C-3245.400,-907.600,-3245.100,-907.500,-3220.000,-907.200L-3197.100,-906.900L-3196.800,-884.000C-3196.500,-858.900,-3196.400,-858.600,-3189.600,-853.600C-3185.700,-850.700,-3176.300,-850.700,-3172.400,-853.600C-3165.600,-858.600,-3165.500,-858.900,-3165.200,-884.000L-3164.900,-906.900L-3142.000,-907.200C-3116.900,-907.500,-3116.600,-907.600,-3111.600,-914.400C-3108.700,-918.300,-3108.700,-927.700,-3111.600,-931.600C-3116.600,-938.400,-3116.900,-938.500,-3142.000,-938.800L-3164.900,-939.100L-3165.200,-962.000C-3165.500,-987.000,-3165.600,-987.400,-3172.200,-992.300C-3175.600,-994.800,-3183.500,-995.500,-3187.500,-993.600ZZ">
          </path>
        </g>
      </g>
      <g id="shape-4795fd89-cbe8-8091-8004-77f29e769749">
        <g class="fills" id="fills-4795fd89-cbe8-8091-8004-77f29e769749">
          <path d="M-2955.620,-972.392C-2959.668,-971.382,-2963.814,-968.521,-2964.505,-966.277C-2964.900,-965.267,-2964.999,-960.611,-2964.801,-955.955C-2964.505,-946.698,-2964.011,-945.857,-2957.693,-943.220C-2953.843,-941.593,-2944.562,-941.593,-2940.712,-943.220C-2934.097,-945.969,-2933.900,-946.474,-2933.900,-957.469C-2933.900,-968.409,-2934.196,-968.970,-2940.515,-971.663C-2943.773,-973.065,-2951.671,-973.458,-2955.620,-972.392ZZ">
          </path>
        </g>
      </g>
      <g id="shape-4795fd89-cbe8-8091-8004-77f29e76de09">
        <g class="fills" id="fills-4795fd89-cbe8-8091-8004-77f29e76de09">
          <path d="M-2990.782,-938.865C-2996.209,-934.654,-2997.720,-922.118,-2993.803,-914.284C-2991.341,-909.387,-2989.271,-908.701,-2979.199,-909.093C-2969.630,-909.387,-2968.903,-909.876,-2966.217,-916.144C-2964.594,-919.964,-2964.594,-929.170,-2966.217,-932.989C-2968.903,-939.355,-2969.574,-939.747,-2979.758,-939.943C-2986.697,-940.139,-2989.550,-939.845,-2990.782,-938.865ZZ">
          </path>
        </g>
      </g>
      <g id="shape-4795fd89-cbe8-8091-8004-77f29e77246d">
        <g class="fills" id="fills-4795fd89-cbe8-8091-8004-77f29e77246d">
          <path d="M-2927.782,-937.865C-2933.209,-933.654,-2934.720,-921.118,-2930.803,-913.284C-2928.341,-908.387,-2926.271,-907.701,-2916.199,-908.093C-2906.630,-908.387,-2905.903,-908.876,-2903.217,-915.144C-2901.594,-918.964,-2901.594,-928.170,-2903.217,-931.989C-2905.903,-938.355,-2906.574,-938.747,-2916.758,-938.943C-2923.697,-939.139,-2926.550,-938.845,-2927.782,-937.865ZZ">
          </path>
        </g>
      </g>
      <g id="shape-4795fd89-cbe8-8091-8004-77f29e77acb8">
        <g class="fills" id="fills-4795fd89-cbe8-8091-8004-77f29e77acb8">
          <path d="M-2955.720,-906.392C-2959.768,-905.382,-2963.914,-902.521,-2964.605,-900.277C-2965.000,-899.267,-2965.099,-894.611,-2964.901,-889.955C-2964.605,-880.698,-2964.111,-879.857,-2957.793,-877.220C-2953.943,-875.593,-2944.662,-875.593,-2940.812,-877.220C-2934.197,-879.969,-2934.000,-880.474,-2934.000,-891.469C-2934.000,-902.409,-2934.296,-902.970,-2940.615,-905.663C-2943.873,-907.065,-2951.771,-907.458,-2955.720,-906.392ZZ">
          </path>
        </g>
      </g>
    </g>
  </g>
</svg>