<svg width="926" xmlns="http://www.w3.org/2000/svg" height="927" id="screenshot-d14e1524-69c7-80b3-8004-8755636ac264" viewBox="-2111 5103 926 927" style="-webkit-print-color-adjust::exact" xmlns:xlink="http://www.w3.org/1999/xlink" fill="none" version="1.1">
  <g id="shape-d14e1524-69c7-80b3-8004-8755636ac264">
    <g fill="none">
      <g class="fills" id="fills-d14e1524-69c7-80b3-8004-8755636ac264">
        <rect rx="0" ry="0" x="-2111" y="5103" width="925.9999999999998" height="927" transform="matrix(1.000000, 0.000000, 0.000000, 1.000000, 0.000000, 0.000000)" class="frame-background">
        </rect>
      </g>
      <g class="frame-children">
        <g id="shape-d14e1524-69c7-80b3-8004-8755636ac265" style="opacity:1">
          <g class="fills" id="fills-d14e1524-69c7-80b3-8004-8755636ac265">
            <ellipse cx="-1648" cy="5566.5" rx="462.9999999999999" ry="463.5" transform="matrix(1.000000, 0.000000, 0.000000, 1.000000, 0.000000, 0.000000)" style="fill:#140d0c;fill-opacity:1">
            </ellipse>
          </g>
        </g>
        <g id="shape-d14e1524-69c7-80b3-8004-8755636ac266" style="opacity:1">
          <g class="fills" id="fills-d14e1524-69c7-80b3-8004-8755636ac266">
            <ellipse cx="-1645.0873636457727" cy="5563.912636354227" rx="435.5" ry="435.5" transform="matrix(0.999948, -0.010184, 0.010184, 0.999948, -56.749345, -16.465361)" style="fill:#fd8f35;fill-opacity:1">
            </ellipse>
          </g>
        </g>
        <g id="shape-d14e1524-69c7-80b3-8004-8755636b059f" style="fill:#000000" width="512" height="512" rx="0" ry="0">
          <g id="shape-d14e1524-69c7-80b3-8004-8755636b05a0" style="opacity:0.99">
            <g class="fills" id="fills-d14e1524-69c7-80b3-8004-8755636b05a0">
              <path d="M-1445.564,5449.775C-1438.819,5449.317,-1433.476,5451.794,-1429.535,5457.206C-1423.876,5471.524,-1418.438,5485.933,-1413.220,5500.433C-1412.796,5500.939,-1412.371,5501.445,-1411.947,5501.951C-1397.346,5505.706,-1382.737,5509.463,-1368.118,5513.221C-1363.322,5515.708,-1360.312,5519.588,-1359.089,5524.863C-1358.069,5530.782,-1359.465,5536.019,-1363.277,5540.573C-1373.854,5549.819,-1384.566,5558.929,-1395.410,5567.906C-1397.208,5569.438,-1397.914,5571.385,-1397.529,5573.749C-1396.414,5588.317,-1395.344,5602.880,-1394.318,5617.438C-1396.846,5629.354,-1404.110,5634.278,-1416.108,5632.211C-1417.318,5631.818,-1418.480,5631.315,-1419.593,5630.700C-1431.494,5622.548,-1443.526,5614.596,-1455.689,5606.844C-1469.659,5612.686,-1483.577,5618.636,-1497.442,5624.693C-1510.529,5625.760,-1517.371,5619.736,-1517.967,5606.620C-1514.684,5593.364,-1511.315,5580.127,-1507.861,5566.910C-1507.219,5564.837,-1506.900,5562.721,-1506.904,5560.563C-1507.244,5559.863,-1507.585,5559.164,-1507.926,5558.464C-1517.168,5547.596,-1526.256,5536.619,-1535.189,5525.533C-1538.289,5519.928,-1538.587,5514.142,-1536.081,5508.172C-1533.934,5504.030,-1530.669,5501.167,-1526.287,5499.584C-1511.041,5498.297,-1495.796,5497.085,-1480.552,5495.949C-1479.094,5494.776,-1477.963,5493.334,-1477.159,5491.624C-1470.332,5479.713,-1463.400,5467.860,-1456.363,5456.065C-1453.487,5452.655,-1449.887,5450.558,-1445.564,5449.775ZZ" style="shape-rendering:geometricPrecision;text-rendering:geometricPrecision;image-rendering:optimizeQuality;fill-rule:evenodd;clip-rule:evenodd;fill:#d34a24">
              </path>
            </g>
            <g style="shape-rendering:geometricPrecision;text-rendering:geometricPrecision;image-rendering:optimizeQuality;fill-rule:evenodd;clip-rule:evenodd" id="strokes-d14e1524-69c7-80b3-8004-8755636b05a0" class="strokes">
              <g class="inner-stroke-shape">
                <defs>
                  <clipPath id="inner-stroke-render-6443-d14e1524-69c7-80b3-8004-8755636b05a0-0">
                    <use href="#stroke-shape-render-6443-d14e1524-69c7-80b3-8004-8755636b05a0-0">
                    </use>
                  </clipPath>
                  <path d="M-1445.564,5449.775C-1438.819,5449.317,-1433.476,5451.794,-1429.535,5457.206C-1423.876,5471.524,-1418.438,5485.933,-1413.220,5500.433C-1412.796,5500.939,-1412.371,5501.445,-1411.947,5501.951C-1397.346,5505.706,-1382.737,5509.463,-1368.118,5513.221C-1363.322,5515.708,-1360.312,5519.588,-1359.089,5524.863C-1358.069,5530.782,-1359.465,5536.019,-1363.277,5540.573C-1373.854,5549.819,-1384.566,5558.929,-1395.410,5567.906C-1397.208,5569.438,-1397.914,5571.385,-1397.529,5573.749C-1396.414,5588.317,-1395.344,5602.880,-1394.318,5617.438C-1396.846,5629.354,-1404.110,5634.278,-1416.108,5632.211C-1417.318,5631.818,-1418.480,5631.315,-1419.593,5630.700C-1431.494,5622.548,-1443.526,5614.596,-1455.689,5606.844C-1469.659,5612.686,-1483.577,5618.636,-1497.442,5624.693C-1510.529,5625.760,-1517.371,5619.736,-1517.967,5606.620C-1514.684,5593.364,-1511.315,5580.127,-1507.861,5566.910C-1507.219,5564.837,-1506.900,5562.721,-1506.904,5560.563C-1507.244,5559.863,-1507.585,5559.164,-1507.926,5558.464C-1517.168,5547.596,-1526.256,5536.619,-1535.189,5525.533C-1538.289,5519.928,-1538.587,5514.142,-1536.081,5508.172C-1533.934,5504.030,-1530.669,5501.167,-1526.287,5499.584C-1511.041,5498.297,-1495.796,5497.085,-1480.552,5495.949C-1479.094,5494.776,-1477.963,5493.334,-1477.159,5491.624C-1470.332,5479.713,-1463.400,5467.860,-1456.363,5456.065C-1453.487,5452.655,-1449.887,5450.558,-1445.564,5449.775ZZ" style="fill:none;fill-opacity:none;stroke-width:4;stroke:#000000;stroke-opacity:1" id="stroke-shape-render-6443-d14e1524-69c7-80b3-8004-8755636b05a0-0">
                  </path>
                </defs>
                <use href="#stroke-shape-render-6443-d14e1524-69c7-80b3-8004-8755636b05a0-0" clip-path="url(&#x27;#inner-stroke-render-6443-d14e1524-69c7-80b3-8004-8755636b05a0-0&#x27;)">
                </use>
              </g>
            </g>
          </g>
          <g id="shape-d14e1524-69c7-80b3-8004-8755636b05a1" style="opacity:1">
            <g class="fills" id="fills-d14e1524-69c7-80b3-8004-8755636b05a1">
              <path d="M-1444.288,5462.748C-1442.835,5462.757,-1441.607,5463.266,-1440.603,5464.276C-1435.400,5478.579,-1430.083,5492.844,-1424.653,5507.069C-1422.443,5510.876,-1419.257,5513.500,-1415.093,5514.939C-1401.028,5518.318,-1386.999,5521.823,-1373.007,5525.454C-1371.338,5527.517,-1371.319,5529.596,-1372.950,5531.689C-1383.672,5541.056,-1394.527,5550.288,-1405.517,5559.385C-1409.124,5563.039,-1410.849,5567.443,-1410.692,5572.598C-1409.595,5587.159,-1408.525,5601.721,-1407.480,5616.286C-1407.925,5619.065,-1409.498,5620.200,-1412.200,5619.692C-1424.044,5611.925,-1435.816,5604.062,-1447.514,5596.104C-1452.093,5593.322,-1456.879,5592.903,-1461.874,5594.848C-1474.777,5600.654,-1487.735,5606.353,-1500.748,5611.945C-1503.492,5611.982,-1504.844,5610.592,-1504.804,5607.772C-1501.371,5593.848,-1497.811,5579.958,-1494.125,5566.102C-1492.881,5560.779,-1493.791,5555.876,-1496.857,5551.394C-1505.945,5540.417,-1515.033,5529.440,-1524.120,5518.463C-1525.495,5515.666,-1524.838,5513.513,-1522.148,5512.004C-1508.131,5511.152,-1494.118,5510.235,-1480.108,5509.251C-1475.551,5508.752,-1471.824,5506.734,-1468.927,5503.196C-1461.110,5490.129,-1453.397,5477.005,-1445.788,5463.822C-1445.292,5463.409,-1444.792,5463.051,-1444.288,5462.748ZZ" style="shape-rendering:geometricPrecision;text-rendering:geometricPrecision;image-rendering:optimizeQuality;fill-rule:evenodd;clip-rule:evenodd;fill:#d34a24">
              </path>
            </g>
          </g>
        </g>
        <g id="shape-d14e1524-69c7-80b3-8004-8755636b61d3" style="fill:#000000" width="512" height="512" rx="0" ry="0">
          <g id="shape-d14e1524-69c7-80b3-8004-8755636b61d4" style="opacity:0.99">
            <g class="fills" id="fills-d14e1524-69c7-80b3-8004-8755636b61d4">
              <path d="M-1634.564,5249.775C-1627.819,5249.317,-1622.476,5251.794,-1618.535,5257.206C-1612.876,5271.524,-1607.438,5285.933,-1602.220,5300.433C-1601.796,5300.939,-1601.371,5301.445,-1600.947,5301.951C-1586.346,5305.706,-1571.737,5309.463,-1557.118,5313.221C-1552.322,5315.708,-1549.312,5319.588,-1548.089,5324.863C-1547.069,5330.782,-1548.465,5336.019,-1552.277,5340.573C-1562.854,5349.819,-1573.566,5358.929,-1584.410,5367.906C-1586.208,5369.438,-1586.914,5371.385,-1586.529,5373.749C-1585.414,5388.317,-1584.344,5402.880,-1583.318,5417.438C-1585.846,5429.354,-1593.110,5434.278,-1605.108,5432.211C-1606.318,5431.818,-1607.480,5431.315,-1608.593,5430.700C-1620.494,5422.548,-1632.526,5414.596,-1644.689,5406.844C-1658.659,5412.686,-1672.577,5418.636,-1686.442,5424.693C-1699.529,5425.760,-1706.371,5419.736,-1706.967,5406.620C-1703.684,5393.364,-1700.315,5380.127,-1696.861,5366.910C-1696.219,5364.837,-1695.900,5362.721,-1695.904,5360.563C-1696.244,5359.863,-1696.585,5359.164,-1696.926,5358.464C-1706.168,5347.596,-1715.256,5336.619,-1724.189,5325.533C-1727.289,5319.928,-1727.587,5314.142,-1725.081,5308.172C-1722.934,5304.030,-1719.669,5301.167,-1715.287,5299.584C-1700.041,5298.297,-1684.796,5297.085,-1669.552,5295.949C-1668.094,5294.776,-1666.963,5293.334,-1666.159,5291.624C-1659.332,5279.713,-1652.400,5267.860,-1645.363,5256.065C-1642.487,5252.655,-1638.887,5250.558,-1634.564,5249.775ZZ" style="shape-rendering:geometricPrecision;text-rendering:geometricPrecision;image-rendering:optimizeQuality;fill-rule:evenodd;clip-rule:evenodd;fill:#d34a24">
              </path>
            </g>
            <g style="shape-rendering:geometricPrecision;text-rendering:geometricPrecision;image-rendering:optimizeQuality;fill-rule:evenodd;clip-rule:evenodd" id="strokes-d14e1524-69c7-80b3-8004-8755636b61d4" class="strokes">
              <g class="inner-stroke-shape">
                <defs>
                  <clipPath id="inner-stroke-render-6446-d14e1524-69c7-80b3-8004-8755636b61d4-0">
                    <use href="#stroke-shape-render-6446-d14e1524-69c7-80b3-8004-8755636b61d4-0">
                    </use>
                  </clipPath>
                  <path d="M-1634.564,5249.775C-1627.819,5249.317,-1622.476,5251.794,-1618.535,5257.206C-1612.876,5271.524,-1607.438,5285.933,-1602.220,5300.433C-1601.796,5300.939,-1601.371,5301.445,-1600.947,5301.951C-1586.346,5305.706,-1571.737,5309.463,-1557.118,5313.221C-1552.322,5315.708,-1549.312,5319.588,-1548.089,5324.863C-1547.069,5330.782,-1548.465,5336.019,-1552.277,5340.573C-1562.854,5349.819,-1573.566,5358.929,-1584.410,5367.906C-1586.208,5369.438,-1586.914,5371.385,-1586.529,5373.749C-1585.414,5388.317,-1584.344,5402.880,-1583.318,5417.438C-1585.846,5429.354,-1593.110,5434.278,-1605.108,5432.211C-1606.318,5431.818,-1607.480,5431.315,-1608.593,5430.700C-1620.494,5422.548,-1632.526,5414.596,-1644.689,5406.844C-1658.659,5412.686,-1672.577,5418.636,-1686.442,5424.693C-1699.529,5425.760,-1706.371,5419.736,-1706.967,5406.620C-1703.684,5393.364,-1700.315,5380.127,-1696.861,5366.910C-1696.219,5364.837,-1695.900,5362.721,-1695.904,5360.563C-1696.244,5359.863,-1696.585,5359.164,-1696.926,5358.464C-1706.168,5347.596,-1715.256,5336.619,-1724.189,5325.533C-1727.289,5319.928,-1727.587,5314.142,-1725.081,5308.172C-1722.934,5304.030,-1719.669,5301.167,-1715.287,5299.584C-1700.041,5298.297,-1684.796,5297.085,-1669.552,5295.949C-1668.094,5294.776,-1666.963,5293.334,-1666.159,5291.624C-1659.332,5279.713,-1652.400,5267.860,-1645.363,5256.065C-1642.487,5252.655,-1638.887,5250.558,-1634.564,5249.775ZZ" style="fill:none;fill-opacity:none;stroke-width:4;stroke:#000000;stroke-opacity:1" id="stroke-shape-render-6446-d14e1524-69c7-80b3-8004-8755636b61d4-0">
                  </path>
                </defs>
                <use href="#stroke-shape-render-6446-d14e1524-69c7-80b3-8004-8755636b61d4-0" clip-path="url(&#x27;#inner-stroke-render-6446-d14e1524-69c7-80b3-8004-8755636b61d4-0&#x27;)">
                </use>
              </g>
            </g>
          </g>
          <g id="shape-d14e1524-69c7-80b3-8004-8755636b61d5" style="opacity:1">
            <g class="fills" id="fills-d14e1524-69c7-80b3-8004-8755636b61d5">
              <path d="M-1633.288,5262.748C-1631.835,5262.757,-1630.607,5263.266,-1629.603,5264.276C-1624.400,5278.579,-1619.083,5292.844,-1613.653,5307.069C-1611.443,5310.876,-1608.257,5313.500,-1604.093,5314.939C-1590.028,5318.318,-1575.999,5321.823,-1562.007,5325.454C-1560.338,5327.517,-1560.319,5329.596,-1561.950,5331.689C-1572.672,5341.056,-1583.527,5350.288,-1594.517,5359.385C-1598.124,5363.039,-1599.849,5367.443,-1599.692,5372.598C-1598.595,5387.159,-1597.525,5401.721,-1596.480,5416.286C-1596.925,5419.065,-1598.498,5420.200,-1601.200,5419.692C-1613.044,5411.925,-1624.816,5404.062,-1636.514,5396.104C-1641.093,5393.322,-1645.879,5392.903,-1650.874,5394.848C-1663.777,5400.654,-1676.735,5406.353,-1689.748,5411.945C-1692.492,5411.982,-1693.844,5410.592,-1693.804,5407.772C-1690.371,5393.848,-1686.811,5379.958,-1683.125,5366.102C-1681.881,5360.779,-1682.791,5355.876,-1685.857,5351.394C-1694.945,5340.417,-1704.033,5329.440,-1713.120,5318.463C-1714.495,5315.666,-1713.838,5313.513,-1711.148,5312.004C-1697.131,5311.152,-1683.118,5310.235,-1669.108,5309.251C-1664.551,5308.752,-1660.824,5306.734,-1657.927,5303.196C-1650.110,5290.129,-1642.397,5277.005,-1634.788,5263.822C-1634.292,5263.409,-1633.792,5263.051,-1633.288,5262.748ZZ" style="shape-rendering:geometricPrecision;text-rendering:geometricPrecision;image-rendering:optimizeQuality;fill-rule:evenodd;clip-rule:evenodd;fill:#d34a24">
              </path>
            </g>
          </g>
        </g>
        <g id="shape-d14e1524-69c7-80b3-8004-8755636c323c" style="fill:#000000" width="512" height="512" rx="0" ry="0">
          <g id="shape-d14e1524-69c7-80b3-8004-8755636c323d" style="opacity:0.99">
            <g class="fills" id="fills-d14e1524-69c7-80b3-8004-8755636c323d">
              <path d="M-1548.564,5686.775C-1541.819,5686.317,-1536.476,5688.794,-1532.535,5694.206C-1526.876,5708.524,-1521.438,5722.933,-1516.220,5737.433C-1515.796,5737.939,-1515.371,5738.445,-1514.947,5738.951C-1500.346,5742.706,-1485.737,5746.463,-1471.118,5750.221C-1466.322,5752.708,-1463.312,5756.588,-1462.089,5761.863C-1461.069,5767.782,-1462.465,5773.019,-1466.277,5777.573C-1476.854,5786.819,-1487.566,5795.929,-1498.410,5804.906C-1500.208,5806.438,-1500.914,5808.385,-1500.529,5810.749C-1499.414,5825.317,-1498.344,5839.880,-1497.318,5854.438C-1499.846,5866.354,-1507.110,5871.278,-1519.108,5869.211C-1520.318,5868.818,-1521.480,5868.315,-1522.593,5867.700C-1534.494,5859.548,-1546.526,5851.596,-1558.689,5843.844C-1572.659,5849.686,-1586.577,5855.636,-1600.442,5861.693C-1613.529,5862.760,-1620.371,5856.736,-1620.967,5843.620C-1617.684,5830.364,-1614.315,5817.127,-1610.861,5803.910C-1610.219,5801.837,-1609.900,5799.721,-1609.904,5797.563C-1610.244,5796.863,-1610.585,5796.164,-1610.926,5795.464C-1620.168,5784.596,-1629.256,5773.619,-1638.189,5762.533C-1641.289,5756.928,-1641.587,5751.142,-1639.081,5745.172C-1636.934,5741.030,-1633.669,5738.167,-1629.287,5736.584C-1614.041,5735.297,-1598.796,5734.085,-1583.552,5732.949C-1582.094,5731.776,-1580.963,5730.334,-1580.159,5728.624C-1573.332,5716.713,-1566.400,5704.860,-1559.363,5693.065C-1556.487,5689.655,-1552.887,5687.558,-1548.564,5686.775ZZ" style="shape-rendering:geometricPrecision;text-rendering:geometricPrecision;image-rendering:optimizeQuality;fill-rule:evenodd;clip-rule:evenodd;fill:#d34a24">
              </path>
            </g>
            <g style="shape-rendering:geometricPrecision;text-rendering:geometricPrecision;image-rendering:optimizeQuality;fill-rule:evenodd;clip-rule:evenodd" id="strokes-d14e1524-69c7-80b3-8004-8755636c323d" class="strokes">
              <g class="inner-stroke-shape">
                <defs>
                  <clipPath id="inner-stroke-render-6449-d14e1524-69c7-80b3-8004-8755636c323d-0">
                    <use href="#stroke-shape-render-6449-d14e1524-69c7-80b3-8004-8755636c323d-0">
                    </use>
                  </clipPath>
                  <path d="M-1548.564,5686.775C-1541.819,5686.317,-1536.476,5688.794,-1532.535,5694.206C-1526.876,5708.524,-1521.438,5722.933,-1516.220,5737.433C-1515.796,5737.939,-1515.371,5738.445,-1514.947,5738.951C-1500.346,5742.706,-1485.737,5746.463,-1471.118,5750.221C-1466.322,5752.708,-1463.312,5756.588,-1462.089,5761.863C-1461.069,5767.782,-1462.465,5773.019,-1466.277,5777.573C-1476.854,5786.819,-1487.566,5795.929,-1498.410,5804.906C-1500.208,5806.438,-1500.914,5808.385,-1500.529,5810.749C-1499.414,5825.317,-1498.344,5839.880,-1497.318,5854.438C-1499.846,5866.354,-1507.110,5871.278,-1519.108,5869.211C-1520.318,5868.818,-1521.480,5868.315,-1522.593,5867.700C-1534.494,5859.548,-1546.526,5851.596,-1558.689,5843.844C-1572.659,5849.686,-1586.577,5855.636,-1600.442,5861.693C-1613.529,5862.760,-1620.371,5856.736,-1620.967,5843.620C-1617.684,5830.364,-1614.315,5817.127,-1610.861,5803.910C-1610.219,5801.837,-1609.900,5799.721,-1609.904,5797.563C-1610.244,5796.863,-1610.585,5796.164,-1610.926,5795.464C-1620.168,5784.596,-1629.256,5773.619,-1638.189,5762.533C-1641.289,5756.928,-1641.587,5751.142,-1639.081,5745.172C-1636.934,5741.030,-1633.669,5738.167,-1629.287,5736.584C-1614.041,5735.297,-1598.796,5734.085,-1583.552,5732.949C-1582.094,5731.776,-1580.963,5730.334,-1580.159,5728.624C-1573.332,5716.713,-1566.400,5704.860,-1559.363,5693.065C-1556.487,5689.655,-1552.887,5687.558,-1548.564,5686.775ZZ" style="fill:none;fill-opacity:none;stroke-width:4;stroke:#000000;stroke-opacity:1" id="stroke-shape-render-6449-d14e1524-69c7-80b3-8004-8755636c323d-0">
                  </path>
                </defs>
                <use href="#stroke-shape-render-6449-d14e1524-69c7-80b3-8004-8755636c323d-0" clip-path="url(&#x27;#inner-stroke-render-6449-d14e1524-69c7-80b3-8004-8755636c323d-0&#x27;)">
                </use>
              </g>
            </g>
          </g>
          <g id="shape-d14e1524-69c7-80b3-8004-8755636c323e" style="opacity:1">
            <g class="fills" id="fills-d14e1524-69c7-80b3-8004-8755636c323e">
              <path d="M-1547.288,5699.748C-1545.835,5699.757,-1544.607,5700.266,-1543.603,5701.276C-1538.400,5715.579,-1533.083,5729.844,-1527.653,5744.069C-1525.443,5747.876,-1522.257,5750.500,-1518.093,5751.939C-1504.028,5755.318,-1489.999,5758.823,-1476.007,5762.454C-1474.338,5764.517,-1474.319,5766.596,-1475.950,5768.689C-1486.672,5778.056,-1497.527,5787.288,-1508.517,5796.385C-1512.124,5800.039,-1513.849,5804.443,-1513.692,5809.598C-1512.595,5824.159,-1511.525,5838.721,-1510.480,5853.286C-1510.925,5856.065,-1512.498,5857.200,-1515.200,5856.692C-1527.044,5848.925,-1538.816,5841.062,-1550.514,5833.104C-1555.093,5830.322,-1559.879,5829.903,-1564.874,5831.848C-1577.777,5837.654,-1590.735,5843.353,-1603.748,5848.945C-1606.492,5848.982,-1607.844,5847.592,-1607.804,5844.772C-1604.371,5830.848,-1600.811,5816.958,-1597.125,5803.102C-1595.881,5797.779,-1596.791,5792.876,-1599.857,5788.394C-1608.945,5777.417,-1618.033,5766.440,-1627.120,5755.463C-1628.495,5752.666,-1627.838,5750.513,-1625.148,5749.004C-1611.131,5748.152,-1597.118,5747.235,-1583.108,5746.251C-1578.551,5745.752,-1574.824,5743.734,-1571.927,5740.196C-1564.110,5727.129,-1556.397,5714.005,-1548.788,5700.822C-1548.292,5700.409,-1547.792,5700.051,-1547.288,5699.748ZZ" style="shape-rendering:geometricPrecision;text-rendering:geometricPrecision;image-rendering:optimizeQuality;fill-rule:evenodd;clip-rule:evenodd;fill:#d34a24">
              </path>
            </g>
          </g>
        </g>
        <g id="shape-d14e1524-69c7-80b3-8004-875597bdc3b6" style="fill:#000000" width="512" height="512" rx="0" ry="0">
          <g id="shape-d14e1524-69c7-80b3-8004-875597bdc3b7" style="opacity:0.99">
            <g class="fills" id="fills-d14e1524-69c7-80b3-8004-875597bdc3b7">
              <path d="M-1782.564,5666.775C-1775.819,5666.317,-1770.476,5668.794,-1766.535,5674.206C-1760.876,5688.524,-1755.438,5702.933,-1750.220,5717.433C-1749.796,5717.939,-1749.371,5718.445,-1748.947,5718.951C-1734.346,5722.706,-1719.737,5726.463,-1705.118,5730.221C-1700.322,5732.708,-1697.312,5736.588,-1696.089,5741.863C-1695.069,5747.782,-1696.465,5753.019,-1700.277,5757.573C-1710.854,5766.819,-1721.566,5775.929,-1732.410,5784.906C-1734.208,5786.438,-1734.914,5788.385,-1734.529,5790.749C-1733.414,5805.317,-1732.344,5819.880,-1731.318,5834.438C-1733.846,5846.354,-1741.110,5851.278,-1753.108,5849.211C-1754.318,5848.818,-1755.480,5848.315,-1756.593,5847.700C-1768.494,5839.548,-1780.526,5831.596,-1792.689,5823.844C-1806.659,5829.686,-1820.577,5835.636,-1834.442,5841.693C-1847.529,5842.760,-1854.371,5836.736,-1854.967,5823.620C-1851.684,5810.364,-1848.315,5797.127,-1844.861,5783.910C-1844.219,5781.837,-1843.900,5779.721,-1843.904,5777.563C-1844.244,5776.863,-1844.585,5776.164,-1844.926,5775.464C-1854.168,5764.596,-1863.256,5753.619,-1872.189,5742.533C-1875.289,5736.928,-1875.587,5731.142,-1873.081,5725.172C-1870.934,5721.030,-1867.669,5718.167,-1863.287,5716.584C-1848.041,5715.297,-1832.796,5714.085,-1817.552,5712.949C-1816.094,5711.776,-1814.963,5710.334,-1814.159,5708.624C-1807.332,5696.713,-1800.400,5684.860,-1793.363,5673.065C-1790.487,5669.655,-1786.887,5667.558,-1782.564,5666.775ZZ" style="shape-rendering:geometricPrecision;text-rendering:geometricPrecision;image-rendering:optimizeQuality;fill-rule:evenodd;clip-rule:evenodd;fill:#d34a24">
              </path>
            </g>
            <g style="shape-rendering:geometricPrecision;text-rendering:geometricPrecision;image-rendering:optimizeQuality;fill-rule:evenodd;clip-rule:evenodd" id="strokes-d14e1524-69c7-80b3-8004-875597bdc3b7" class="strokes">
              <g class="inner-stroke-shape">
                <defs>
                  <clipPath id="inner-stroke-render-6452-d14e1524-69c7-80b3-8004-875597bdc3b7-0">
                    <use href="#stroke-shape-render-6452-d14e1524-69c7-80b3-8004-875597bdc3b7-0">
                    </use>
                  </clipPath>
                  <path d="M-1782.564,5666.775C-1775.819,5666.317,-1770.476,5668.794,-1766.535,5674.206C-1760.876,5688.524,-1755.438,5702.933,-1750.220,5717.433C-1749.796,5717.939,-1749.371,5718.445,-1748.947,5718.951C-1734.346,5722.706,-1719.737,5726.463,-1705.118,5730.221C-1700.322,5732.708,-1697.312,5736.588,-1696.089,5741.863C-1695.069,5747.782,-1696.465,5753.019,-1700.277,5757.573C-1710.854,5766.819,-1721.566,5775.929,-1732.410,5784.906C-1734.208,5786.438,-1734.914,5788.385,-1734.529,5790.749C-1733.414,5805.317,-1732.344,5819.880,-1731.318,5834.438C-1733.846,5846.354,-1741.110,5851.278,-1753.108,5849.211C-1754.318,5848.818,-1755.480,5848.315,-1756.593,5847.700C-1768.494,5839.548,-1780.526,5831.596,-1792.689,5823.844C-1806.659,5829.686,-1820.577,5835.636,-1834.442,5841.693C-1847.529,5842.760,-1854.371,5836.736,-1854.967,5823.620C-1851.684,5810.364,-1848.315,5797.127,-1844.861,5783.910C-1844.219,5781.837,-1843.900,5779.721,-1843.904,5777.563C-1844.244,5776.863,-1844.585,5776.164,-1844.926,5775.464C-1854.168,5764.596,-1863.256,5753.619,-1872.189,5742.533C-1875.289,5736.928,-1875.587,5731.142,-1873.081,5725.172C-1870.934,5721.030,-1867.669,5718.167,-1863.287,5716.584C-1848.041,5715.297,-1832.796,5714.085,-1817.552,5712.949C-1816.094,5711.776,-1814.963,5710.334,-1814.159,5708.624C-1807.332,5696.713,-1800.400,5684.860,-1793.363,5673.065C-1790.487,5669.655,-1786.887,5667.558,-1782.564,5666.775ZZ" style="fill:none;fill-opacity:none;stroke-width:4;stroke:#000000;stroke-opacity:1" id="stroke-shape-render-6452-d14e1524-69c7-80b3-8004-875597bdc3b7-0">
                  </path>
                </defs>
                <use href="#stroke-shape-render-6452-d14e1524-69c7-80b3-8004-875597bdc3b7-0" clip-path="url(&#x27;#inner-stroke-render-6452-d14e1524-69c7-80b3-8004-875597bdc3b7-0&#x27;)">
                </use>
              </g>
            </g>
          </g>
          <g id="shape-d14e1524-69c7-80b3-8004-875597bdc3b8" style="opacity:1">
            <g class="fills" id="fills-d14e1524-69c7-80b3-8004-875597bdc3b8">
              <path d="M-1781.288,5679.748C-1779.835,5679.757,-1778.607,5680.266,-1777.603,5681.276C-1772.400,5695.579,-1767.083,5709.844,-1761.653,5724.069C-1759.443,5727.876,-1756.257,5730.500,-1752.093,5731.939C-1738.028,5735.318,-1723.999,5738.823,-1710.007,5742.454C-1708.338,5744.517,-1708.319,5746.596,-1709.950,5748.689C-1720.672,5758.056,-1731.527,5767.288,-1742.517,5776.385C-1746.124,5780.039,-1747.849,5784.443,-1747.692,5789.598C-1746.595,5804.159,-1745.525,5818.721,-1744.480,5833.286C-1744.925,5836.065,-1746.498,5837.200,-1749.200,5836.692C-1761.044,5828.925,-1772.816,5821.062,-1784.514,5813.104C-1789.093,5810.322,-1793.879,5809.903,-1798.874,5811.848C-1811.777,5817.654,-1824.735,5823.353,-1837.748,5828.945C-1840.492,5828.982,-1841.844,5827.592,-1841.804,5824.772C-1838.371,5810.848,-1834.811,5796.958,-1831.125,5783.102C-1829.881,5777.779,-1830.791,5772.876,-1833.857,5768.394C-1842.945,5757.417,-1852.033,5746.440,-1861.120,5735.463C-1862.495,5732.666,-1861.838,5730.513,-1859.148,5729.004C-1845.131,5728.152,-1831.118,5727.235,-1817.108,5726.251C-1812.551,5725.752,-1808.824,5723.734,-1805.927,5720.196C-1798.110,5707.129,-1790.397,5694.005,-1782.788,5680.822C-1782.292,5680.409,-1781.792,5680.051,-1781.288,5679.748ZZ" style="shape-rendering:geometricPrecision;text-rendering:geometricPrecision;image-rendering:optimizeQuality;fill-rule:evenodd;clip-rule:evenodd;fill:#d34a24">
              </path>
            </g>
          </g>
        </g>
        <g id="shape-d14e1524-69c7-80b3-8004-875866d67b85" style="fill:#000000" width="512" height="512" rx="0" ry="0">
          <g id="shape-d14e1524-69c7-80b3-8004-875866d67b86" style="opacity:0.99">
            <g class="fills" id="fills-d14e1524-69c7-80b3-8004-875866d67b86">
              <path d="M-1852.081,5436.257C-1845.336,5435.799,-1839.993,5438.276,-1836.051,5443.688C-1830.393,5458.006,-1824.955,5472.415,-1819.737,5486.915C-1819.312,5487.422,-1818.888,5487.927,-1818.463,5488.434C-1803.863,5492.188,-1789.253,5495.945,-1774.635,5499.704C-1769.838,5502.190,-1766.829,5506.071,-1765.606,5511.345C-1764.586,5517.264,-1765.982,5522.501,-1769.794,5527.056C-1780.371,5536.301,-1791.082,5545.412,-1801.927,5554.388C-1803.725,5555.920,-1804.431,5557.868,-1804.046,5560.232C-1802.931,5574.800,-1801.861,5589.363,-1800.835,5603.920C-1803.363,5615.836,-1810.626,5620.760,-1822.625,5618.693C-1823.835,5618.301,-1824.996,5617.797,-1826.110,5617.183C-1838.011,5609.031,-1850.043,5601.078,-1862.205,5593.326C-1876.176,5599.168,-1890.093,5605.118,-1903.959,5611.176C-1917.046,5612.243,-1923.887,5606.218,-1924.483,5593.102C-1921.200,5579.846,-1917.832,5566.609,-1914.378,5553.393C-1913.736,5551.319,-1913.417,5549.203,-1913.420,5547.046C-1913.761,5546.346,-1914.102,5545.646,-1914.442,5544.947C-1923.685,5534.079,-1932.773,5523.102,-1941.705,5512.015C-1944.806,5506.411,-1945.103,5500.624,-1942.598,5494.655C-1940.451,5490.512,-1937.186,5487.650,-1932.803,5486.067C-1917.558,5484.779,-1902.313,5483.567,-1887.068,5482.431C-1885.611,5481.258,-1884.480,5479.817,-1883.676,5478.106C-1876.848,5466.195,-1869.917,5454.342,-1862.880,5442.547C-1860.003,5439.137,-1856.404,5437.041,-1852.081,5436.257ZZ" style="shape-rendering:geometricPrecision;text-rendering:geometricPrecision;image-rendering:optimizeQuality;fill-rule:evenodd;clip-rule:evenodd;fill:#d34a24">
              </path>
            </g>
            <g style="shape-rendering:geometricPrecision;text-rendering:geometricPrecision;image-rendering:optimizeQuality;fill-rule:evenodd;clip-rule:evenodd" id="strokes-d14e1524-69c7-80b3-8004-875866d67b86" class="strokes">
              <g class="inner-stroke-shape">
                <defs>
                  <clipPath id="inner-stroke-render-6455-d14e1524-69c7-80b3-8004-875866d67b86-0">
                    <use href="#stroke-shape-render-6455-d14e1524-69c7-80b3-8004-875866d67b86-0">
                    </use>
                  </clipPath>
                  <path d="M-1852.081,5436.257C-1845.336,5435.799,-1839.993,5438.276,-1836.051,5443.688C-1830.393,5458.006,-1824.955,5472.415,-1819.737,5486.915C-1819.312,5487.422,-1818.888,5487.927,-1818.463,5488.434C-1803.863,5492.188,-1789.253,5495.945,-1774.635,5499.704C-1769.838,5502.190,-1766.829,5506.071,-1765.606,5511.345C-1764.586,5517.264,-1765.982,5522.501,-1769.794,5527.056C-1780.371,5536.301,-1791.082,5545.412,-1801.927,5554.388C-1803.725,5555.920,-1804.431,5557.868,-1804.046,5560.232C-1802.931,5574.800,-1801.861,5589.363,-1800.835,5603.920C-1803.363,5615.836,-1810.626,5620.760,-1822.625,5618.693C-1823.835,5618.301,-1824.996,5617.797,-1826.110,5617.183C-1838.011,5609.031,-1850.043,5601.078,-1862.205,5593.326C-1876.176,5599.168,-1890.093,5605.118,-1903.959,5611.176C-1917.046,5612.243,-1923.887,5606.218,-1924.483,5593.102C-1921.200,5579.846,-1917.832,5566.609,-1914.378,5553.393C-1913.736,5551.319,-1913.417,5549.203,-1913.420,5547.046C-1913.761,5546.346,-1914.102,5545.646,-1914.442,5544.947C-1923.685,5534.079,-1932.773,5523.102,-1941.705,5512.015C-1944.806,5506.411,-1945.103,5500.624,-1942.598,5494.655C-1940.451,5490.512,-1937.186,5487.650,-1932.803,5486.067C-1917.558,5484.779,-1902.313,5483.567,-1887.068,5482.431C-1885.611,5481.258,-1884.480,5479.817,-1883.676,5478.106C-1876.848,5466.195,-1869.917,5454.342,-1862.880,5442.547C-1860.003,5439.137,-1856.404,5437.041,-1852.081,5436.257ZZ" style="fill:none;fill-opacity:none;stroke-width:4;stroke:#000000;stroke-opacity:1" id="stroke-shape-render-6455-d14e1524-69c7-80b3-8004-875866d67b86-0">
                  </path>
                </defs>
                <use href="#stroke-shape-render-6455-d14e1524-69c7-80b3-8004-875866d67b86-0" clip-path="url(&#x27;#inner-stroke-render-6455-d14e1524-69c7-80b3-8004-875866d67b86-0&#x27;)">
                </use>
              </g>
            </g>
          </g>
          <g id="shape-d14e1524-69c7-80b3-8004-875866d67b87" style="opacity:1">
            <g class="fills" id="fills-d14e1524-69c7-80b3-8004-875866d67b87">
              <path d="M-1850.804,5449.230C-1849.352,5449.239,-1848.124,5449.748,-1847.120,5450.758C-1841.916,5465.062,-1836.599,5479.326,-1831.170,5493.552C-1828.960,5497.359,-1825.773,5499.982,-1821.609,5501.422C-1807.545,5504.800,-1793.516,5508.305,-1779.524,5511.936C-1777.855,5514.000,-1777.836,5516.078,-1779.466,5518.171C-1790.188,5527.538,-1801.044,5536.770,-1812.033,5545.868C-1815.640,5549.521,-1817.366,5553.925,-1817.209,5559.080C-1816.112,5573.641,-1815.042,5588.204,-1813.997,5602.769C-1814.442,5605.547,-1816.015,5606.682,-1818.716,5606.174C-1830.561,5598.407,-1842.332,5590.545,-1854.031,5582.586C-1858.610,5579.804,-1863.396,5579.385,-1868.390,5581.330C-1881.294,5587.136,-1894.252,5592.835,-1907.265,5598.427C-1910.009,5598.465,-1911.360,5597.074,-1911.321,5594.254C-1907.887,5580.330,-1904.328,5566.440,-1900.642,5552.585C-1899.397,5547.262,-1900.308,5542.359,-1903.374,5537.877C-1912.462,5526.900,-1921.549,5515.922,-1930.637,5504.945C-1932.012,5502.148,-1931.355,5499.995,-1928.665,5498.486C-1914.648,5497.635,-1900.635,5496.717,-1886.625,5495.734C-1882.068,5495.234,-1878.341,5493.216,-1875.444,5489.678C-1867.626,5476.612,-1859.913,5463.487,-1852.305,5450.305C-1851.809,5449.891,-1851.308,5449.533,-1850.804,5449.230ZZ" style="shape-rendering:geometricPrecision;text-rendering:geometricPrecision;image-rendering:optimizeQuality;fill-rule:evenodd;clip-rule:evenodd;fill:#d34a24">
              </path>
            </g>
          </g>
        </g>
        <g id="shape-d14e1524-69c7-80b3-8004-8755636c4de1" style="opacity:0.8">
          <g class="fills" id="fills-d14e1524-69c7-80b3-8004-8755636c4de1">
            <path d="M-1832.000,5356.000C-1860.409,5336.394,-1853.500,5294.000,-1853.500,5294.000C-1853.500,5294.000,-1855.095,5261.746,-1817.000,5225.000C-1779.761,5189.079,-1737.000,5185.000,-1737.000,5185.000C-1737.000,5185.000,-1699.129,5182.901,-1672.000,5209.000C-1646.462,5233.568,-1654.000,5263.000,-1654.000,5263.000C-1654.000,5263.000,-1656.364,5293.318,-1687.000,5328.000C-1727.030,5373.318,-1764.000,5373.500,-1764.000,5373.500C-1764.000,5373.500,-1796.500,5380.500,-1832.000,5356.000Z" style="fill:#ffffff;fill-opacity:1">
            </path>
          </g>
          <g id="strokes-d14e1524-69c7-80b3-8004-8755636c4de1" class="strokes">
            <g class="inner-stroke-shape">
              <defs>
                <clipPath id="inner-stroke-render-6457-d14e1524-69c7-80b3-8004-8755636c4de1-0">
                  <use href="#stroke-shape-render-6457-d14e1524-69c7-80b3-8004-8755636c4de1-0">
                  </use>
                </clipPath>
                <path d="M-1832.000,5356.000C-1860.409,5336.394,-1853.500,5294.000,-1853.500,5294.000C-1853.500,5294.000,-1855.095,5261.746,-1817.000,5225.000C-1779.761,5189.079,-1737.000,5185.000,-1737.000,5185.000C-1737.000,5185.000,-1699.129,5182.901,-1672.000,5209.000C-1646.462,5233.568,-1654.000,5263.000,-1654.000,5263.000C-1654.000,5263.000,-1656.364,5293.318,-1687.000,5328.000C-1727.030,5373.318,-1764.000,5373.500,-1764.000,5373.500C-1764.000,5373.500,-1796.500,5380.500,-1832.000,5356.000Z" style="fill:none;fill-opacity:none;stroke-width:4;stroke:#000000;stroke-opacity:1" id="stroke-shape-render-6457-d14e1524-69c7-80b3-8004-8755636c4de1-0">
                </path>
              </defs>
              <use href="#stroke-shape-render-6457-d14e1524-69c7-80b3-8004-8755636c4de1-0" clip-path="url(&#x27;#inner-stroke-render-6457-d14e1524-69c7-80b3-8004-8755636c4de1-0&#x27;)">
              </use>
            </g>
          </g>
        </g>
        <g id="shape-d14e1524-69c7-80b3-8004-8755636c4de2">
          <g class="fills" id="fills-d14e1524-69c7-80b3-8004-8755636c4de2">
            <path d="M-1916.000,5363.000C-1924.840,5356.281,-1924.000,5346.000,-1924.000,5346.000C-1924.000,5346.000,-1925.764,5334.554,-1916.000,5322.000C-1907.097,5310.554,-1896.000,5310.000,-1896.000,5310.000C-1896.000,5310.000,-1887.781,5307.808,-1881.000,5314.000C-1872.448,5321.808,-1873.000,5331.000,-1873.000,5331.000C-1873.000,5331.000,-1871.523,5340.914,-1880.000,5352.000C-1888.856,5363.581,-1899.000,5365.000,-1899.000,5365.000C-1899.000,5365.000,-1908.174,5368.948,-1916.000,5363.000Z" style="fill:#ffffff;fill-opacity:1">
            </path>
          </g>
          <g id="strokes-d14e1524-69c7-80b3-8004-8755636c4de2" class="strokes">
            <g class="inner-stroke-shape">
              <defs>
                <clipPath id="inner-stroke-render-6458-d14e1524-69c7-80b3-8004-8755636c4de2-0">
                  <use href="#stroke-shape-render-6458-d14e1524-69c7-80b3-8004-8755636c4de2-0">
                  </use>
                </clipPath>
                <path d="M-1916.000,5363.000C-1924.840,5356.281,-1924.000,5346.000,-1924.000,5346.000C-1924.000,5346.000,-1925.764,5334.554,-1916.000,5322.000C-1907.097,5310.554,-1896.000,5310.000,-1896.000,5310.000C-1896.000,5310.000,-1887.781,5307.808,-1881.000,5314.000C-1872.448,5321.808,-1873.000,5331.000,-1873.000,5331.000C-1873.000,5331.000,-1871.523,5340.914,-1880.000,5352.000C-1888.856,5363.581,-1899.000,5365.000,-1899.000,5365.000C-1899.000,5365.000,-1908.174,5368.948,-1916.000,5363.000Z" style="fill:none;fill-opacity:none;stroke-width:4;stroke:#000000;stroke-opacity:1" id="stroke-shape-render-6458-d14e1524-69c7-80b3-8004-8755636c4de2-0">
                </path>
              </defs>
              <use href="#stroke-shape-render-6458-d14e1524-69c7-80b3-8004-8755636c4de2-0" clip-path="url(&#x27;#inner-stroke-render-6458-d14e1524-69c7-80b3-8004-8755636c4de2-0&#x27;)">
              </use>
            </g>
          </g>
        </g>
      </g>
    </g>
  </g>
</svg>