<svg width="926" xmlns="http://www.w3.org/2000/svg" height="927" id="screenshot-8b8a9fce-5472-80ba-8004-874ec861184d" viewBox="-2085 899 926 927" style="-webkit-print-color-adjust::exact" xmlns:xlink="http://www.w3.org/1999/xlink" fill="none" version="1.1">
  <g id="shape-8b8a9fce-5472-80ba-8004-874ec861184d">
    <g fill="none">
      <g class="fills" id="fills-8b8a9fce-5472-80ba-8004-874ec861184d">
        <rect rx="0" ry="0" x="-2085" y="899" width="925.9999999999998" height="927" transform="matrix(1.000000, 0.000000, 0.000000, 1.000000, 0.000000, 0.000000)" class="frame-background">
        </rect>
      </g>
      <g class="frame-children">
        <g id="shape-ebf38975-abd1-803b-8004-874602041930" style="opacity:1">
          <g class="fills" id="fills-ebf38975-abd1-803b-8004-874602041930">
            <ellipse cx="-1622" cy="1362.5000000000002" rx="462.9999999999999" ry="463.50000000000017" transform="matrix(1.000000, 0.000000, 0.000000, 1.000000, 0.000000, 0.000000)" style="fill:#140d0c;fill-opacity:1">
            </ellipse>
          </g>
        </g>
        <g id="shape-fedeaf24-6722-8002-8004-874d8539e82a" style="opacity:1">
          <g class="fills" id="fills-fedeaf24-6722-8002-8004-874d8539e82a">
            <ellipse cx="-1619.0873636457727" cy="1359.9126363542273" rx="435.5" ry="435.5" transform="matrix(0.999948, -0.010184, 0.010184, 0.999948, -13.933596, -16.418593)" style="fill:#fd8f35;fill-opacity:1">
            </ellipse>
          </g>
        </g>
        <g id="shape-d14e1524-69c7-80b3-8004-8751db6acb0d" style="fill:#000000" width="512" height="512" rx="0" ry="0">
          <g id="shape-d14e1524-69c7-80b3-8004-8751db703456" style="opacity:0.99">
            <g class="fills" id="fills-d14e1524-69c7-80b3-8004-8751db703456">
              <path d="M-1444.521,1168.653C-1437.775,1168.194,-1432.432,1170.672,-1428.491,1176.084C-1422.832,1190.402,-1417.394,1204.811,-1412.177,1219.311C-1411.752,1219.817,-1411.328,1220.323,-1410.903,1220.829C-1396.303,1224.584,-1381.693,1228.341,-1367.075,1232.099C-1362.278,1234.586,-1359.268,1238.466,-1358.045,1243.741C-1357.025,1249.660,-1358.422,1254.896,-1362.233,1259.451C-1372.811,1268.696,-1383.522,1277.807,-1394.367,1286.784C-1396.165,1288.315,-1396.871,1290.263,-1396.486,1292.627C-1395.371,1307.195,-1394.300,1321.758,-1393.274,1336.316C-1395.803,1348.232,-1403.066,1353.156,-1415.065,1351.089C-1416.274,1350.696,-1417.436,1350.192,-1418.550,1349.578C-1430.450,1341.426,-1442.482,1333.474,-1454.645,1325.721C-1468.615,1331.563,-1482.533,1337.513,-1496.399,1343.571C-1509.486,1344.638,-1516.327,1338.613,-1516.923,1325.498C-1513.640,1312.241,-1510.271,1299.005,-1506.817,1285.788C-1506.176,1283.714,-1505.857,1281.599,-1505.860,1279.441C-1506.201,1278.741,-1506.541,1278.042,-1506.882,1277.342C-1516.125,1266.474,-1525.212,1255.497,-1534.145,1244.411C-1537.245,1238.806,-1537.543,1233.019,-1535.038,1227.050C-1532.890,1222.908,-1529.626,1220.045,-1525.243,1218.462C-1509.998,1217.175,-1494.753,1215.963,-1479.508,1214.827C-1478.051,1213.654,-1476.920,1212.212,-1476.115,1210.501C-1469.288,1198.591,-1462.356,1186.738,-1455.320,1174.942C-1452.443,1171.532,-1448.843,1169.436,-1444.521,1168.653ZZ" style="shape-rendering:geometricPrecision;text-rendering:geometricPrecision;image-rendering:optimizeQuality;fill-rule:evenodd;clip-rule:evenodd;fill:#d34a24">
              </path>
            </g>
            <g style="shape-rendering:geometricPrecision;text-rendering:geometricPrecision;image-rendering:optimizeQuality;fill-rule:evenodd;clip-rule:evenodd" id="strokes-d14e1524-69c7-80b3-8004-8751db703456" class="strokes">
              <g class="inner-stroke-shape">
                <defs>
                  <clipPath id="inner-stroke-render-4602-d14e1524-69c7-80b3-8004-8751db703456-0">
                    <use href="#stroke-shape-render-4602-d14e1524-69c7-80b3-8004-8751db703456-0">
                    </use>
                  </clipPath>
                  <path d="M-1444.521,1168.653C-1437.775,1168.194,-1432.432,1170.672,-1428.491,1176.084C-1422.832,1190.402,-1417.394,1204.811,-1412.177,1219.311C-1411.752,1219.817,-1411.328,1220.323,-1410.903,1220.829C-1396.303,1224.584,-1381.693,1228.341,-1367.075,1232.099C-1362.278,1234.586,-1359.268,1238.466,-1358.045,1243.741C-1357.025,1249.660,-1358.422,1254.896,-1362.233,1259.451C-1372.811,1268.696,-1383.522,1277.807,-1394.367,1286.784C-1396.165,1288.315,-1396.871,1290.263,-1396.486,1292.627C-1395.371,1307.195,-1394.300,1321.758,-1393.274,1336.316C-1395.803,1348.232,-1403.066,1353.156,-1415.065,1351.089C-1416.274,1350.696,-1417.436,1350.192,-1418.550,1349.578C-1430.450,1341.426,-1442.482,1333.474,-1454.645,1325.721C-1468.615,1331.563,-1482.533,1337.513,-1496.399,1343.571C-1509.486,1344.638,-1516.327,1338.613,-1516.923,1325.498C-1513.640,1312.241,-1510.271,1299.005,-1506.817,1285.788C-1506.176,1283.714,-1505.857,1281.599,-1505.860,1279.441C-1506.201,1278.741,-1506.541,1278.042,-1506.882,1277.342C-1516.125,1266.474,-1525.212,1255.497,-1534.145,1244.411C-1537.245,1238.806,-1537.543,1233.019,-1535.038,1227.050C-1532.890,1222.908,-1529.626,1220.045,-1525.243,1218.462C-1509.998,1217.175,-1494.753,1215.963,-1479.508,1214.827C-1478.051,1213.654,-1476.920,1212.212,-1476.115,1210.501C-1469.288,1198.591,-1462.356,1186.738,-1455.320,1174.942C-1452.443,1171.532,-1448.843,1169.436,-1444.521,1168.653ZZ" style="fill:none;fill-opacity:none;stroke-width:4;stroke:#000000;stroke-opacity:1" id="stroke-shape-render-4602-d14e1524-69c7-80b3-8004-8751db703456-0">
                  </path>
                </defs>
                <use href="#stroke-shape-render-4602-d14e1524-69c7-80b3-8004-8751db703456-0" clip-path="url(&#x27;#inner-stroke-render-4602-d14e1524-69c7-80b3-8004-8751db703456-0&#x27;)">
                </use>
              </g>
            </g>
          </g>
          <g id="shape-d14e1524-69c7-80b3-8004-8751db7262c3" style="opacity:1">
            <g class="fills" id="fills-d14e1524-69c7-80b3-8004-8751db7262c3">
              <path d="M-1443.244,1181.626C-1441.792,1181.634,-1440.563,1182.144,-1439.559,1183.154C-1434.356,1197.457,-1429.039,1211.721,-1423.609,1225.947C-1421.400,1229.754,-1418.213,1232.378,-1414.049,1233.817C-1399.984,1237.195,-1385.956,1240.700,-1371.963,1244.332C-1370.295,1246.395,-1370.276,1248.474,-1371.906,1250.566C-1382.628,1259.933,-1393.484,1269.165,-1404.473,1278.263C-1408.080,1281.917,-1409.805,1286.321,-1409.648,1291.476C-1408.552,1306.036,-1407.481,1320.599,-1406.437,1335.164C-1406.881,1337.943,-1408.454,1339.077,-1411.156,1338.569C-1423.000,1330.803,-1434.772,1322.940,-1446.471,1314.982C-1451.049,1312.199,-1455.836,1311.781,-1460.830,1313.725C-1473.733,1319.531,-1486.691,1325.230,-1499.704,1330.822C-1502.448,1330.860,-1503.800,1329.469,-1503.760,1326.649C-1500.327,1312.726,-1496.767,1298.836,-1493.081,1284.980C-1491.837,1279.657,-1492.748,1274.754,-1495.814,1270.272C-1504.901,1259.295,-1513.989,1248.318,-1523.077,1237.341C-1524.452,1234.544,-1523.795,1232.391,-1521.105,1230.882C-1507.088,1230.030,-1493.074,1229.113,-1479.064,1228.129C-1474.507,1227.630,-1470.780,1225.611,-1467.884,1222.073C-1460.066,1209.007,-1452.353,1195.883,-1444.745,1182.700C-1444.248,1182.287,-1443.748,1181.929,-1443.244,1181.626ZZ" style="shape-rendering:geometricPrecision;text-rendering:geometricPrecision;image-rendering:optimizeQuality;fill-rule:evenodd;clip-rule:evenodd;fill:#d34a24">
              </path>
            </g>
          </g>
        </g>
        <g id="shape-d14e1524-69c7-80b3-8004-8752275766d2" style="fill:#000000" width="512" height="512" rx="0" ry="0">
          <g id="shape-d14e1524-69c7-80b3-8004-8752275766d4" style="opacity:0.99">
            <g class="fills" id="fills-d14e1524-69c7-80b3-8004-8752275766d4">
              <path d="M-1728.912,1115.166C-1722.166,1114.708,-1716.823,1117.185,-1712.882,1122.597C-1707.223,1136.915,-1701.786,1151.324,-1696.568,1165.824C-1696.143,1166.331,-1695.719,1166.836,-1695.294,1167.343C-1680.694,1171.097,-1666.084,1174.854,-1651.466,1178.613C-1646.669,1181.099,-1643.659,1184.980,-1642.436,1190.254C-1641.417,1196.174,-1642.813,1201.410,-1646.624,1205.965C-1657.202,1215.210,-1667.913,1224.321,-1678.758,1233.298C-1680.556,1234.829,-1681.262,1236.777,-1680.877,1239.141C-1679.762,1253.709,-1678.691,1268.272,-1677.665,1282.829C-1680.194,1294.745,-1687.457,1299.670,-1699.456,1297.603C-1700.665,1297.210,-1701.827,1296.706,-1702.941,1296.092C-1714.841,1287.940,-1726.873,1279.988,-1739.036,1272.235C-1753.006,1278.077,-1766.924,1284.027,-1780.790,1290.085C-1793.877,1291.152,-1800.718,1285.127,-1801.314,1272.011C-1798.031,1258.755,-1794.662,1245.518,-1791.208,1232.302C-1790.567,1230.228,-1790.248,1228.112,-1790.251,1225.955C-1790.592,1225.255,-1790.932,1224.555,-1791.273,1223.856C-1800.516,1212.988,-1809.603,1202.011,-1818.536,1190.925C-1821.636,1185.320,-1821.934,1179.533,-1819.429,1173.564C-1817.282,1169.421,-1814.017,1166.559,-1809.634,1164.976C-1794.389,1163.689,-1779.144,1162.477,-1763.899,1161.340C-1762.442,1160.167,-1761.311,1158.726,-1760.506,1157.015C-1753.679,1145.104,-1746.747,1133.251,-1739.711,1121.456C-1736.834,1118.046,-1733.234,1115.950,-1728.912,1115.166ZZ" style="shape-rendering:geometricPrecision;text-rendering:geometricPrecision;image-rendering:optimizeQuality;fill-rule:evenodd;clip-rule:evenodd;fill:#d34a24">
              </path>
            </g>
            <g style="shape-rendering:geometricPrecision;text-rendering:geometricPrecision;image-rendering:optimizeQuality;fill-rule:evenodd;clip-rule:evenodd" id="strokes-d14e1524-69c7-80b3-8004-8752275766d4" class="strokes">
              <g class="inner-stroke-shape">
                <defs>
                  <clipPath id="inner-stroke-render-4605-d14e1524-69c7-80b3-8004-8752275766d4-0">
                    <use href="#stroke-shape-render-4605-d14e1524-69c7-80b3-8004-8752275766d4-0">
                    </use>
                  </clipPath>
                  <path d="M-1728.912,1115.166C-1722.166,1114.708,-1716.823,1117.185,-1712.882,1122.597C-1707.223,1136.915,-1701.786,1151.324,-1696.568,1165.824C-1696.143,1166.331,-1695.719,1166.836,-1695.294,1167.343C-1680.694,1171.097,-1666.084,1174.854,-1651.466,1178.613C-1646.669,1181.099,-1643.659,1184.980,-1642.436,1190.254C-1641.417,1196.174,-1642.813,1201.410,-1646.624,1205.965C-1657.202,1215.210,-1667.913,1224.321,-1678.758,1233.298C-1680.556,1234.829,-1681.262,1236.777,-1680.877,1239.141C-1679.762,1253.709,-1678.691,1268.272,-1677.665,1282.829C-1680.194,1294.745,-1687.457,1299.670,-1699.456,1297.603C-1700.665,1297.210,-1701.827,1296.706,-1702.941,1296.092C-1714.841,1287.940,-1726.873,1279.988,-1739.036,1272.235C-1753.006,1278.077,-1766.924,1284.027,-1780.790,1290.085C-1793.877,1291.152,-1800.718,1285.127,-1801.314,1272.011C-1798.031,1258.755,-1794.662,1245.518,-1791.208,1232.302C-1790.567,1230.228,-1790.248,1228.112,-1790.251,1225.955C-1790.592,1225.255,-1790.932,1224.555,-1791.273,1223.856C-1800.516,1212.988,-1809.603,1202.011,-1818.536,1190.925C-1821.636,1185.320,-1821.934,1179.533,-1819.429,1173.564C-1817.282,1169.421,-1814.017,1166.559,-1809.634,1164.976C-1794.389,1163.689,-1779.144,1162.477,-1763.899,1161.340C-1762.442,1160.167,-1761.311,1158.726,-1760.506,1157.015C-1753.679,1145.104,-1746.747,1133.251,-1739.711,1121.456C-1736.834,1118.046,-1733.234,1115.950,-1728.912,1115.166ZZ" style="fill:none;fill-opacity:none;stroke-width:4;stroke:#000000;stroke-opacity:1" id="stroke-shape-render-4605-d14e1524-69c7-80b3-8004-8752275766d4-0">
                  </path>
                </defs>
                <use href="#stroke-shape-render-4605-d14e1524-69c7-80b3-8004-8752275766d4-0" clip-path="url(&#x27;#inner-stroke-render-4605-d14e1524-69c7-80b3-8004-8752275766d4-0&#x27;)">
                </use>
              </g>
            </g>
          </g>
          <g id="shape-d14e1524-69c7-80b3-8004-8752275766d5" style="opacity:1">
            <g class="fills" id="fills-d14e1524-69c7-80b3-8004-8752275766d5">
              <path d="M-1727.635,1128.139C-1726.183,1128.148,-1724.955,1128.657,-1723.951,1129.667C-1718.747,1143.971,-1713.430,1158.235,-1708.000,1172.461C-1705.791,1176.268,-1702.604,1178.891,-1698.440,1180.331C-1684.375,1183.709,-1670.347,1187.214,-1656.354,1190.845C-1654.686,1192.909,-1654.667,1194.987,-1656.297,1197.080C-1667.019,1206.447,-1677.875,1215.679,-1688.864,1224.777C-1692.471,1228.430,-1694.196,1232.834,-1694.039,1237.989C-1692.943,1252.550,-1691.872,1267.113,-1690.828,1281.678C-1691.272,1284.456,-1692.846,1285.591,-1695.547,1285.083C-1707.391,1277.316,-1719.163,1269.454,-1730.862,1261.495C-1735.440,1258.713,-1740.227,1258.294,-1745.221,1260.239C-1758.124,1266.045,-1771.082,1271.744,-1784.095,1277.336C-1786.839,1277.374,-1788.191,1275.983,-1788.151,1273.163C-1784.718,1259.239,-1781.158,1245.349,-1777.472,1231.494C-1776.228,1226.171,-1777.139,1221.268,-1780.205,1216.786C-1789.292,1205.809,-1798.380,1194.831,-1807.468,1183.854C-1808.843,1181.057,-1808.186,1178.904,-1805.496,1177.395C-1791.479,1176.544,-1777.465,1175.626,-1763.455,1174.643C-1758.898,1174.143,-1755.171,1172.125,-1752.275,1168.587C-1744.457,1155.521,-1736.744,1142.396,-1729.136,1129.214C-1728.639,1128.801,-1728.139,1128.442,-1727.635,1128.139ZZ" style="shape-rendering:geometricPrecision;text-rendering:geometricPrecision;image-rendering:optimizeQuality;fill-rule:evenodd;clip-rule:evenodd;fill:#d34a24">
              </path>
            </g>
          </g>
        </g>
        <g id="shape-d14e1524-69c7-80b3-8004-875237c0db80" style="fill:#000000" width="512" height="512" rx="0" ry="0">
          <g id="shape-d14e1524-69c7-80b3-8004-875237c0db82" style="opacity:0.99">
            <g class="fills" id="fills-d14e1524-69c7-80b3-8004-875237c0db82">
              <path d="M-1782.945,1381.180C-1776.200,1380.722,-1770.857,1383.199,-1766.915,1388.611C-1761.257,1402.929,-1755.819,1417.338,-1750.601,1431.838C-1750.177,1432.344,-1749.752,1432.850,-1749.327,1433.356C-1734.727,1437.111,-1720.118,1440.868,-1705.499,1444.626C-1700.703,1447.113,-1697.693,1450.993,-1696.470,1456.268C-1695.450,1462.187,-1696.846,1467.424,-1700.658,1471.978C-1711.235,1481.223,-1721.947,1490.334,-1732.791,1499.311C-1734.589,1500.843,-1735.295,1502.790,-1734.910,1505.154C-1733.795,1519.722,-1732.725,1534.285,-1731.699,1548.843C-1734.227,1560.759,-1741.491,1565.683,-1753.489,1563.616C-1754.699,1563.223,-1755.860,1562.720,-1756.974,1562.105C-1768.875,1553.953,-1780.907,1546.001,-1793.069,1538.248C-1807.040,1544.090,-1820.957,1550.041,-1834.823,1556.098C-1847.910,1557.165,-1854.751,1551.141,-1855.347,1538.025C-1852.064,1524.769,-1848.696,1511.532,-1845.242,1498.315C-1844.600,1496.241,-1844.281,1494.126,-1844.284,1491.968C-1844.625,1491.268,-1844.966,1490.569,-1845.307,1489.869C-1854.549,1479.001,-1863.637,1468.024,-1872.569,1456.938C-1875.670,1451.333,-1875.967,1445.546,-1873.462,1439.577C-1871.315,1435.435,-1868.050,1432.572,-1863.668,1430.989C-1848.422,1429.702,-1833.177,1428.490,-1817.933,1427.354C-1816.475,1426.181,-1815.344,1424.739,-1814.540,1423.029C-1807.712,1411.118,-1800.781,1399.265,-1793.744,1387.469C-1790.868,1384.060,-1787.268,1381.963,-1782.945,1381.180ZZ" style="shape-rendering:geometricPrecision;text-rendering:geometricPrecision;image-rendering:optimizeQuality;fill-rule:evenodd;clip-rule:evenodd;fill:#d34a24">
              </path>
            </g>
            <g style="shape-rendering:geometricPrecision;text-rendering:geometricPrecision;image-rendering:optimizeQuality;fill-rule:evenodd;clip-rule:evenodd" id="strokes-d14e1524-69c7-80b3-8004-875237c0db82" class="strokes">
              <g class="inner-stroke-shape">
                <defs>
                  <clipPath id="inner-stroke-render-4608-d14e1524-69c7-80b3-8004-875237c0db82-0">
                    <use href="#stroke-shape-render-4608-d14e1524-69c7-80b3-8004-875237c0db82-0">
                    </use>
                  </clipPath>
                  <path d="M-1782.945,1381.180C-1776.200,1380.722,-1770.857,1383.199,-1766.915,1388.611C-1761.257,1402.929,-1755.819,1417.338,-1750.601,1431.838C-1750.177,1432.344,-1749.752,1432.850,-1749.327,1433.356C-1734.727,1437.111,-1720.118,1440.868,-1705.499,1444.626C-1700.703,1447.113,-1697.693,1450.993,-1696.470,1456.268C-1695.450,1462.187,-1696.846,1467.424,-1700.658,1471.978C-1711.235,1481.223,-1721.947,1490.334,-1732.791,1499.311C-1734.589,1500.843,-1735.295,1502.790,-1734.910,1505.154C-1733.795,1519.722,-1732.725,1534.285,-1731.699,1548.843C-1734.227,1560.759,-1741.491,1565.683,-1753.489,1563.616C-1754.699,1563.223,-1755.860,1562.720,-1756.974,1562.105C-1768.875,1553.953,-1780.907,1546.001,-1793.069,1538.248C-1807.040,1544.090,-1820.957,1550.041,-1834.823,1556.098C-1847.910,1557.165,-1854.751,1551.141,-1855.347,1538.025C-1852.064,1524.769,-1848.696,1511.532,-1845.242,1498.315C-1844.600,1496.241,-1844.281,1494.126,-1844.284,1491.968C-1844.625,1491.268,-1844.966,1490.569,-1845.307,1489.869C-1854.549,1479.001,-1863.637,1468.024,-1872.569,1456.938C-1875.670,1451.333,-1875.967,1445.546,-1873.462,1439.577C-1871.315,1435.435,-1868.050,1432.572,-1863.668,1430.989C-1848.422,1429.702,-1833.177,1428.490,-1817.933,1427.354C-1816.475,1426.181,-1815.344,1424.739,-1814.540,1423.029C-1807.712,1411.118,-1800.781,1399.265,-1793.744,1387.469C-1790.868,1384.060,-1787.268,1381.963,-1782.945,1381.180ZZ" style="fill:none;fill-opacity:none;stroke-width:4;stroke:#000000;stroke-opacity:1" id="stroke-shape-render-4608-d14e1524-69c7-80b3-8004-875237c0db82-0">
                  </path>
                </defs>
                <use href="#stroke-shape-render-4608-d14e1524-69c7-80b3-8004-875237c0db82-0" clip-path="url(&#x27;#inner-stroke-render-4608-d14e1524-69c7-80b3-8004-875237c0db82-0&#x27;)">
                </use>
              </g>
            </g>
          </g>
          <g id="shape-d14e1524-69c7-80b3-8004-875237c0db83" style="opacity:1">
            <g class="fills" id="fills-d14e1524-69c7-80b3-8004-875237c0db83">
              <path d="M-1781.668,1394.153C-1780.216,1394.161,-1778.988,1394.671,-1777.984,1395.681C-1772.780,1409.984,-1767.463,1424.249,-1762.034,1438.474C-1759.824,1442.281,-1756.637,1444.905,-1752.473,1446.344C-1738.409,1449.723,-1724.380,1453.228,-1710.388,1456.859C-1708.719,1458.922,-1708.700,1461.001,-1710.330,1463.094C-1721.052,1472.460,-1731.908,1481.692,-1742.898,1490.790C-1746.504,1494.444,-1748.230,1498.848,-1748.073,1504.003C-1746.976,1518.563,-1745.906,1533.126,-1744.861,1547.691C-1745.306,1550.470,-1746.879,1551.605,-1749.580,1551.096C-1761.425,1543.330,-1773.196,1535.467,-1784.895,1527.509C-1789.474,1524.727,-1794.260,1524.308,-1799.255,1526.253C-1812.158,1532.058,-1825.116,1537.757,-1838.129,1543.349C-1840.873,1543.387,-1842.225,1541.996,-1842.185,1539.176C-1838.751,1525.253,-1835.192,1511.363,-1831.506,1497.507C-1830.261,1492.184,-1831.172,1487.281,-1834.238,1482.799C-1843.326,1471.822,-1852.413,1460.845,-1861.501,1449.868C-1862.876,1447.071,-1862.219,1444.918,-1859.529,1443.409C-1845.512,1442.557,-1831.499,1441.640,-1817.489,1440.656C-1812.932,1440.157,-1809.205,1438.139,-1806.308,1434.601C-1798.491,1421.534,-1790.777,1408.410,-1783.169,1395.227C-1782.673,1394.814,-1782.172,1394.456,-1781.668,1394.153ZZ" style="shape-rendering:geometricPrecision;text-rendering:geometricPrecision;image-rendering:optimizeQuality;fill-rule:evenodd;clip-rule:evenodd;fill:#d34a24">
              </path>
            </g>
          </g>
        </g>
        <g id="shape-d14e1524-69c7-80b3-8004-875247ab98ca" style="fill:#000000" width="512" height="512" rx="0" ry="0">
          <g id="shape-d14e1524-69c7-80b3-8004-875247ab98cc" style="opacity:0.99">
            <g class="fills" id="fills-d14e1524-69c7-80b3-8004-875247ab98cc">
              <path d="M-1502.488,1442.636C-1495.743,1442.178,-1490.400,1444.655,-1486.459,1450.067C-1480.800,1464.385,-1475.362,1478.794,-1470.145,1493.294C-1469.720,1493.801,-1469.296,1494.306,-1468.871,1494.813C-1454.270,1498.567,-1439.661,1502.324,-1425.043,1506.083C-1420.246,1508.569,-1417.236,1512.450,-1416.013,1517.724C-1414.993,1523.643,-1416.390,1528.880,-1420.201,1533.435C-1430.779,1542.680,-1441.490,1551.791,-1452.335,1560.768C-1454.133,1562.299,-1454.839,1564.247,-1454.453,1566.611C-1453.339,1581.179,-1452.268,1595.742,-1451.242,1610.299C-1453.771,1622.215,-1461.034,1627.140,-1473.033,1625.073C-1474.242,1624.680,-1475.404,1624.176,-1476.518,1623.562C-1488.418,1615.410,-1500.450,1607.458,-1512.613,1599.705C-1526.583,1605.547,-1540.501,1611.497,-1554.367,1617.555C-1567.454,1618.622,-1574.295,1612.597,-1574.891,1599.481C-1571.608,1586.225,-1568.239,1572.988,-1564.785,1559.772C-1564.143,1557.698,-1563.825,1555.582,-1563.828,1553.425C-1564.169,1552.725,-1564.509,1552.025,-1564.850,1551.326C-1574.093,1540.458,-1583.180,1529.481,-1592.113,1518.394C-1595.213,1512.790,-1595.511,1507.003,-1593.006,1501.034C-1590.858,1496.891,-1587.593,1494.029,-1583.211,1492.446C-1567.965,1491.159,-1552.721,1489.947,-1537.476,1488.810C-1536.018,1487.637,-1534.888,1486.196,-1534.083,1484.485C-1527.256,1472.574,-1520.324,1460.721,-1513.288,1448.926C-1510.411,1445.516,-1506.811,1443.420,-1502.488,1442.636ZZ" style="shape-rendering:geometricPrecision;text-rendering:geometricPrecision;image-rendering:optimizeQuality;fill-rule:evenodd;clip-rule:evenodd;fill:#d34a24">
              </path>
            </g>
            <g style="shape-rendering:geometricPrecision;text-rendering:geometricPrecision;image-rendering:optimizeQuality;fill-rule:evenodd;clip-rule:evenodd" id="strokes-d14e1524-69c7-80b3-8004-875247ab98cc" class="strokes">
              <g class="inner-stroke-shape">
                <defs>
                  <clipPath id="inner-stroke-render-4611-d14e1524-69c7-80b3-8004-875247ab98cc-0">
                    <use href="#stroke-shape-render-4611-d14e1524-69c7-80b3-8004-875247ab98cc-0">
                    </use>
                  </clipPath>
                  <path d="M-1502.488,1442.636C-1495.743,1442.178,-1490.400,1444.655,-1486.459,1450.067C-1480.800,1464.385,-1475.362,1478.794,-1470.145,1493.294C-1469.720,1493.801,-1469.296,1494.306,-1468.871,1494.813C-1454.270,1498.567,-1439.661,1502.324,-1425.043,1506.083C-1420.246,1508.569,-1417.236,1512.450,-1416.013,1517.724C-1414.993,1523.643,-1416.390,1528.880,-1420.201,1533.435C-1430.779,1542.680,-1441.490,1551.791,-1452.335,1560.768C-1454.133,1562.299,-1454.839,1564.247,-1454.453,1566.611C-1453.339,1581.179,-1452.268,1595.742,-1451.242,1610.299C-1453.771,1622.215,-1461.034,1627.140,-1473.033,1625.073C-1474.242,1624.680,-1475.404,1624.176,-1476.518,1623.562C-1488.418,1615.410,-1500.450,1607.458,-1512.613,1599.705C-1526.583,1605.547,-1540.501,1611.497,-1554.367,1617.555C-1567.454,1618.622,-1574.295,1612.597,-1574.891,1599.481C-1571.608,1586.225,-1568.239,1572.988,-1564.785,1559.772C-1564.143,1557.698,-1563.825,1555.582,-1563.828,1553.425C-1564.169,1552.725,-1564.509,1552.025,-1564.850,1551.326C-1574.093,1540.458,-1583.180,1529.481,-1592.113,1518.394C-1595.213,1512.790,-1595.511,1507.003,-1593.006,1501.034C-1590.858,1496.891,-1587.593,1494.029,-1583.211,1492.446C-1567.965,1491.159,-1552.721,1489.947,-1537.476,1488.810C-1536.018,1487.637,-1534.888,1486.196,-1534.083,1484.485C-1527.256,1472.574,-1520.324,1460.721,-1513.288,1448.926C-1510.411,1445.516,-1506.811,1443.420,-1502.488,1442.636ZZ" style="fill:none;fill-opacity:none;stroke-width:4;stroke:#000000;stroke-opacity:1" id="stroke-shape-render-4611-d14e1524-69c7-80b3-8004-875247ab98cc-0">
                  </path>
                </defs>
                <use href="#stroke-shape-render-4611-d14e1524-69c7-80b3-8004-875247ab98cc-0" clip-path="url(&#x27;#inner-stroke-render-4611-d14e1524-69c7-80b3-8004-875247ab98cc-0&#x27;)">
                </use>
              </g>
            </g>
          </g>
          <g id="shape-d14e1524-69c7-80b3-8004-875247ab98cd" style="opacity:1">
            <g class="fills" id="fills-d14e1524-69c7-80b3-8004-875247ab98cd">
              <path d="M-1501.212,1455.609C-1499.760,1455.618,-1498.531,1456.127,-1497.527,1457.137C-1492.324,1471.441,-1487.007,1485.705,-1481.577,1499.931C-1479.368,1503.738,-1476.181,1506.361,-1472.017,1507.801C-1457.952,1511.179,-1443.923,1514.684,-1429.931,1518.315C-1428.263,1520.379,-1428.243,1522.457,-1429.874,1524.550C-1440.596,1533.917,-1451.452,1543.149,-1462.441,1552.247C-1466.048,1555.900,-1467.773,1560.304,-1467.616,1565.459C-1466.519,1580.020,-1465.449,1594.583,-1464.405,1609.148C-1464.849,1611.926,-1466.422,1613.061,-1469.124,1612.553C-1480.968,1604.786,-1492.740,1596.924,-1504.439,1588.965C-1509.017,1586.183,-1513.804,1585.764,-1518.798,1587.709C-1531.701,1593.515,-1544.659,1599.214,-1557.672,1604.806C-1560.416,1604.844,-1561.768,1603.453,-1561.728,1600.633C-1558.295,1586.709,-1554.735,1572.819,-1551.049,1558.964C-1549.805,1553.641,-1550.716,1548.738,-1553.782,1544.256C-1562.869,1533.279,-1571.957,1522.301,-1581.044,1511.324C-1582.420,1508.527,-1581.762,1506.374,-1579.073,1504.865C-1565.055,1504.014,-1551.042,1503.096,-1537.032,1502.113C-1532.475,1501.613,-1528.748,1499.595,-1525.851,1496.057C-1518.034,1482.991,-1510.321,1469.866,-1502.713,1456.684C-1502.216,1456.271,-1501.716,1455.912,-1501.212,1455.609ZZ" style="shape-rendering:geometricPrecision;text-rendering:geometricPrecision;image-rendering:optimizeQuality;fill-rule:evenodd;clip-rule:evenodd;fill:#d34a24">
              </path>
            </g>
          </g>
        </g>
        <g id="shape-fedeaf24-6722-8002-8004-874e0651236f" style="opacity:0.8">
          <g class="fills" id="fills-fedeaf24-6722-8002-8004-874e0651236f">
            <path d="M-1806.000,1152.000C-1834.409,1132.394,-1827.500,1090.000,-1827.500,1090.000C-1827.500,1090.000,-1829.095,1057.746,-1791.000,1021.000C-1753.761,985.079,-1711.000,981.000,-1711.000,981.000C-1711.000,981.000,-1673.129,978.901,-1646.000,1005.000C-1620.462,1029.568,-1628.000,1059.000,-1628.000,1059.000C-1628.000,1059.000,-1630.364,1089.318,-1661.000,1124.000C-1701.030,1169.318,-1738.000,1169.500,-1738.000,1169.500C-1738.000,1169.500,-1770.500,1176.500,-1806.000,1152.000Z" style="fill:#ffffff;fill-opacity:1">
            </path>
          </g>
          <g id="strokes-fedeaf24-6722-8002-8004-874e0651236f" class="strokes">
            <g class="inner-stroke-shape">
              <defs>
                <clipPath id="inner-stroke-render-4613-fedeaf24-6722-8002-8004-874e0651236f-0">
                  <use href="#stroke-shape-render-4613-fedeaf24-6722-8002-8004-874e0651236f-0">
                  </use>
                </clipPath>
                <path d="M-1806.000,1152.000C-1834.409,1132.394,-1827.500,1090.000,-1827.500,1090.000C-1827.500,1090.000,-1829.095,1057.746,-1791.000,1021.000C-1753.761,985.079,-1711.000,981.000,-1711.000,981.000C-1711.000,981.000,-1673.129,978.901,-1646.000,1005.000C-1620.462,1029.568,-1628.000,1059.000,-1628.000,1059.000C-1628.000,1059.000,-1630.364,1089.318,-1661.000,1124.000C-1701.030,1169.318,-1738.000,1169.500,-1738.000,1169.500C-1738.000,1169.500,-1770.500,1176.500,-1806.000,1152.000Z" style="fill:none;fill-opacity:none;stroke-width:4;stroke:#000000;stroke-opacity:1" id="stroke-shape-render-4613-fedeaf24-6722-8002-8004-874e0651236f-0">
                </path>
              </defs>
              <use href="#stroke-shape-render-4613-fedeaf24-6722-8002-8004-874e0651236f-0" clip-path="url(&#x27;#inner-stroke-render-4613-fedeaf24-6722-8002-8004-874e0651236f-0&#x27;)">
              </use>
            </g>
          </g>
        </g>
        <g id="shape-8b8a9fce-5472-80ba-8004-874e89dd8fc2">
          <g class="fills" id="fills-8b8a9fce-5472-80ba-8004-874e89dd8fc2">
            <path d="M-1890.000,1159.000C-1898.840,1152.281,-1898.000,1142.000,-1898.000,1142.000C-1898.000,1142.000,-1899.764,1130.554,-1890.000,1118.000C-1881.097,1106.554,-1870.000,1106.000,-1870.000,1106.000C-1870.000,1106.000,-1861.781,1103.808,-1855.000,1110.000C-1846.448,1117.808,-1847.000,1127.000,-1847.000,1127.000C-1847.000,1127.000,-1845.523,1136.914,-1854.000,1148.000C-1862.856,1159.581,-1873.000,1161.000,-1873.000,1161.000C-1873.000,1161.000,-1882.174,1164.948,-1890.000,1159.000Z" style="fill:#ffffff;fill-opacity:1">
            </path>
          </g>
          <g id="strokes-8b8a9fce-5472-80ba-8004-874e89dd8fc2" class="strokes">
            <g class="inner-stroke-shape">
              <defs>
                <clipPath id="inner-stroke-render-4614-8b8a9fce-5472-80ba-8004-874e89dd8fc2-0">
                  <use href="#stroke-shape-render-4614-8b8a9fce-5472-80ba-8004-874e89dd8fc2-0">
                  </use>
                </clipPath>
                <path d="M-1890.000,1159.000C-1898.840,1152.281,-1898.000,1142.000,-1898.000,1142.000C-1898.000,1142.000,-1899.764,1130.554,-1890.000,1118.000C-1881.097,1106.554,-1870.000,1106.000,-1870.000,1106.000C-1870.000,1106.000,-1861.781,1103.808,-1855.000,1110.000C-1846.448,1117.808,-1847.000,1127.000,-1847.000,1127.000C-1847.000,1127.000,-1845.523,1136.914,-1854.000,1148.000C-1862.856,1159.581,-1873.000,1161.000,-1873.000,1161.000C-1873.000,1161.000,-1882.174,1164.948,-1890.000,1159.000Z" style="fill:none;fill-opacity:none;stroke-width:4;stroke:#000000;stroke-opacity:1" id="stroke-shape-render-4614-8b8a9fce-5472-80ba-8004-874e89dd8fc2-0">
                </path>
              </defs>
              <use href="#stroke-shape-render-4614-8b8a9fce-5472-80ba-8004-874e89dd8fc2-0" clip-path="url(&#x27;#inner-stroke-render-4614-8b8a9fce-5472-80ba-8004-874e89dd8fc2-0&#x27;)">
              </use>
            </g>
          </g>
        </g>
      </g>
    </g>
  </g>
</svg>