<svg width="926" xmlns="http://www.w3.org/2000/svg" height="927" id="screenshot-d14e1524-69c7-80b3-8004-8753bd368922" viewBox="-2039 4012 926 927" style="-webkit-print-color-adjust::exact" xmlns:xlink="http://www.w3.org/1999/xlink" fill="none" version="1.1">
  <g id="shape-d14e1524-69c7-80b3-8004-8753bd368922">
    <g fill="none">
      <g class="fills" id="fills-d14e1524-69c7-80b3-8004-8753bd368922">
        <rect rx="0" ry="0" x="-2039" y="4012" width="925.9999999999998" height="927" transform="matrix(1.000000, 0.000000, 0.000000, 1.000000, 0.000000, 0.000000)" class="frame-background">
        </rect>
      </g>
      <g class="frame-children">
        <g id="shape-d14e1524-69c7-80b3-8004-8753bd368923" style="opacity:1">
          <g class="fills" id="fills-d14e1524-69c7-80b3-8004-8753bd368923">
            <ellipse cx="-1576" cy="4475.5" rx="462.9999999999999" ry="463.50000000000017" transform="matrix(1.000000, 0.000000, 0.000000, 1.000000, 0.000000, 0.000000)" style="fill:#140d0c;fill-opacity:1">
            </ellipse>
          </g>
        </g>
        <g id="shape-d14e1524-69c7-80b3-8004-8753bd368924" style="opacity:1">
          <g class="fills" id="fills-d14e1524-69c7-80b3-8004-8753bd368924">
            <ellipse cx="-1573.0873636457727" cy="4472.912636354227" rx="435.5" ry="435.5" transform="matrix(0.999948, -0.010184, 0.010184, 0.999948, -45.634643, -15.788678)" style="fill:#fd8f35;fill-opacity:1">
            </ellipse>
          </g>
        </g>
        <g id="shape-d14e1524-69c7-80b3-8004-8753bd368925" style="fill:#000000" width="512" height="512" rx="0" ry="0">
          <g id="shape-d14e1524-69c7-80b3-8004-8753bd36892b" style="opacity:0.99">
            <g class="fills" id="fills-d14e1524-69c7-80b3-8004-8753bd36892b">
              <path d="M-1554.564,4267.775C-1547.819,4267.317,-1542.476,4269.794,-1538.535,4275.206C-1532.876,4289.524,-1527.438,4303.933,-1522.220,4318.433C-1521.796,4318.939,-1521.371,4319.445,-1520.947,4319.951C-1506.346,4323.706,-1491.737,4327.463,-1477.118,4331.221C-1472.322,4333.708,-1469.312,4337.588,-1468.089,4342.863C-1467.069,4348.782,-1468.465,4354.019,-1472.277,4358.573C-1482.854,4367.819,-1493.566,4376.929,-1504.410,4385.906C-1506.208,4387.438,-1506.914,4389.385,-1506.529,4391.749C-1505.414,4406.317,-1504.344,4420.880,-1503.318,4435.438C-1505.846,4447.354,-1513.110,4452.278,-1525.108,4450.211C-1526.318,4449.818,-1527.480,4449.315,-1528.593,4448.700C-1540.494,4440.548,-1552.526,4432.596,-1564.689,4424.844C-1578.659,4430.686,-1592.577,4436.636,-1606.442,4442.693C-1619.529,4443.760,-1626.371,4437.736,-1626.967,4424.620C-1623.684,4411.364,-1620.315,4398.127,-1616.861,4384.910C-1616.219,4382.837,-1615.900,4380.721,-1615.904,4378.563C-1616.244,4377.863,-1616.585,4377.164,-1616.926,4376.464C-1626.168,4365.596,-1635.256,4354.619,-1644.189,4343.533C-1647.289,4337.928,-1647.587,4332.142,-1645.081,4326.172C-1642.934,4322.030,-1639.669,4319.167,-1635.287,4317.584C-1620.041,4316.297,-1604.796,4315.085,-1589.552,4313.949C-1588.094,4312.776,-1586.963,4311.334,-1586.159,4309.624C-1579.332,4297.713,-1572.400,4285.860,-1565.363,4274.065C-1562.487,4270.655,-1558.887,4268.558,-1554.564,4267.775ZZ" style="shape-rendering:geometricPrecision;text-rendering:geometricPrecision;image-rendering:optimizeQuality;fill-rule:evenodd;clip-rule:evenodd;fill:#d34a24">
              </path>
            </g>
            <g style="shape-rendering:geometricPrecision;text-rendering:geometricPrecision;image-rendering:optimizeQuality;fill-rule:evenodd;clip-rule:evenodd" id="strokes-d14e1524-69c7-80b3-8004-8753bd36892b" class="strokes">
              <g class="inner-stroke-shape">
                <defs>
                  <clipPath id="inner-stroke-render-6580-d14e1524-69c7-80b3-8004-8753bd36892b-0">
                    <use href="#stroke-shape-render-6580-d14e1524-69c7-80b3-8004-8753bd36892b-0">
                    </use>
                  </clipPath>
                  <path d="M-1554.564,4267.775C-1547.819,4267.317,-1542.476,4269.794,-1538.535,4275.206C-1532.876,4289.524,-1527.438,4303.933,-1522.220,4318.433C-1521.796,4318.939,-1521.371,4319.445,-1520.947,4319.951C-1506.346,4323.706,-1491.737,4327.463,-1477.118,4331.221C-1472.322,4333.708,-1469.312,4337.588,-1468.089,4342.863C-1467.069,4348.782,-1468.465,4354.019,-1472.277,4358.573C-1482.854,4367.819,-1493.566,4376.929,-1504.410,4385.906C-1506.208,4387.438,-1506.914,4389.385,-1506.529,4391.749C-1505.414,4406.317,-1504.344,4420.880,-1503.318,4435.438C-1505.846,4447.354,-1513.110,4452.278,-1525.108,4450.211C-1526.318,4449.818,-1527.480,4449.315,-1528.593,4448.700C-1540.494,4440.548,-1552.526,4432.596,-1564.689,4424.844C-1578.659,4430.686,-1592.577,4436.636,-1606.442,4442.693C-1619.529,4443.760,-1626.371,4437.736,-1626.967,4424.620C-1623.684,4411.364,-1620.315,4398.127,-1616.861,4384.910C-1616.219,4382.837,-1615.900,4380.721,-1615.904,4378.563C-1616.244,4377.863,-1616.585,4377.164,-1616.926,4376.464C-1626.168,4365.596,-1635.256,4354.619,-1644.189,4343.533C-1647.289,4337.928,-1647.587,4332.142,-1645.081,4326.172C-1642.934,4322.030,-1639.669,4319.167,-1635.287,4317.584C-1620.041,4316.297,-1604.796,4315.085,-1589.552,4313.949C-1588.094,4312.776,-1586.963,4311.334,-1586.159,4309.624C-1579.332,4297.713,-1572.400,4285.860,-1565.363,4274.065C-1562.487,4270.655,-1558.887,4268.558,-1554.564,4267.775ZZ" style="fill:none;fill-opacity:none;stroke-width:4;stroke:#000000;stroke-opacity:1" id="stroke-shape-render-6580-d14e1524-69c7-80b3-8004-8753bd36892b-0">
                  </path>
                </defs>
                <use href="#stroke-shape-render-6580-d14e1524-69c7-80b3-8004-8753bd36892b-0" clip-path="url(&#x27;#inner-stroke-render-6580-d14e1524-69c7-80b3-8004-8753bd36892b-0&#x27;)">
                </use>
              </g>
            </g>
          </g>
          <g id="shape-d14e1524-69c7-80b3-8004-8753bd36892c" style="opacity:1">
            <g class="fills" id="fills-d14e1524-69c7-80b3-8004-8753bd36892c">
              <path d="M-1553.288,4280.748C-1551.835,4280.757,-1550.607,4281.266,-1549.603,4282.276C-1544.400,4296.579,-1539.083,4310.844,-1533.653,4325.069C-1531.443,4328.876,-1528.257,4331.500,-1524.093,4332.939C-1510.028,4336.318,-1495.999,4339.823,-1482.007,4343.454C-1480.338,4345.517,-1480.319,4347.596,-1481.950,4349.689C-1492.672,4359.056,-1503.527,4368.288,-1514.517,4377.385C-1518.124,4381.039,-1519.849,4385.443,-1519.692,4390.598C-1518.595,4405.159,-1517.525,4419.721,-1516.480,4434.286C-1516.925,4437.065,-1518.498,4438.200,-1521.200,4437.692C-1533.044,4429.925,-1544.816,4422.062,-1556.514,4414.104C-1561.093,4411.322,-1565.879,4410.903,-1570.874,4412.848C-1583.777,4418.654,-1596.735,4424.353,-1609.748,4429.945C-1612.492,4429.982,-1613.844,4428.592,-1613.804,4425.772C-1610.371,4411.848,-1606.811,4397.958,-1603.125,4384.102C-1601.881,4378.779,-1602.791,4373.876,-1605.857,4369.394C-1614.945,4358.417,-1624.033,4347.440,-1633.120,4336.463C-1634.495,4333.666,-1633.838,4331.513,-1631.148,4330.004C-1617.131,4329.152,-1603.118,4328.235,-1589.108,4327.251C-1584.551,4326.752,-1580.824,4324.734,-1577.927,4321.196C-1570.110,4308.129,-1562.397,4295.005,-1554.788,4281.822C-1554.292,4281.409,-1553.792,4281.051,-1553.288,4280.748ZZ" style="shape-rendering:geometricPrecision;text-rendering:geometricPrecision;image-rendering:optimizeQuality;fill-rule:evenodd;clip-rule:evenodd;fill:#d34a24">
              </path>
            </g>
          </g>
        </g>
        <g id="shape-d14e1524-69c7-80b3-8004-8753bd368926" style="fill:#000000" width="512" height="512" rx="0" ry="0">
          <g id="shape-d14e1524-69c7-80b3-8004-8753bd36892d" style="opacity:0.99">
            <g class="fills" id="fills-d14e1524-69c7-80b3-8004-8753bd36892d">
              <path d="M-1710.912,4503.166C-1704.166,4502.708,-1698.823,4505.185,-1694.882,4510.597C-1689.223,4524.915,-1683.786,4539.324,-1678.568,4553.824C-1678.143,4554.331,-1677.719,4554.836,-1677.294,4555.343C-1662.694,4559.097,-1648.084,4562.854,-1633.466,4566.613C-1628.669,4569.099,-1625.659,4572.980,-1624.436,4578.254C-1623.417,4584.174,-1624.813,4589.410,-1628.624,4593.965C-1639.202,4603.210,-1649.913,4612.321,-1660.758,4621.298C-1662.556,4622.829,-1663.262,4624.777,-1662.877,4627.141C-1661.762,4641.709,-1660.691,4656.272,-1659.665,4670.829C-1662.194,4682.745,-1669.457,4687.670,-1681.456,4685.603C-1682.665,4685.210,-1683.827,4684.706,-1684.941,4684.092C-1696.841,4675.940,-1708.873,4667.988,-1721.036,4660.235C-1735.006,4666.077,-1748.924,4672.027,-1762.790,4678.085C-1775.877,4679.152,-1782.718,4673.127,-1783.314,4660.011C-1780.031,4646.755,-1776.662,4633.518,-1773.208,4620.302C-1772.567,4618.228,-1772.248,4616.112,-1772.251,4613.955C-1772.592,4613.255,-1772.932,4612.555,-1773.273,4611.856C-1782.516,4600.988,-1791.603,4590.011,-1800.536,4578.925C-1803.636,4573.320,-1803.934,4567.533,-1801.429,4561.564C-1799.282,4557.421,-1796.017,4554.559,-1791.634,4552.976C-1776.389,4551.689,-1761.144,4550.477,-1745.899,4549.340C-1744.442,4548.167,-1743.311,4546.726,-1742.506,4545.015C-1735.679,4533.104,-1728.747,4521.251,-1721.711,4509.456C-1718.834,4506.046,-1715.234,4503.950,-1710.912,4503.166ZZ" style="shape-rendering:geometricPrecision;text-rendering:geometricPrecision;image-rendering:optimizeQuality;fill-rule:evenodd;clip-rule:evenodd;fill:#d34a24">
              </path>
            </g>
            <g style="shape-rendering:geometricPrecision;text-rendering:geometricPrecision;image-rendering:optimizeQuality;fill-rule:evenodd;clip-rule:evenodd" id="strokes-d14e1524-69c7-80b3-8004-8753bd36892d" class="strokes">
              <g class="inner-stroke-shape">
                <defs>
                  <clipPath id="inner-stroke-render-6583-d14e1524-69c7-80b3-8004-8753bd36892d-0">
                    <use href="#stroke-shape-render-6583-d14e1524-69c7-80b3-8004-8753bd36892d-0">
                    </use>
                  </clipPath>
                  <path d="M-1710.912,4503.166C-1704.166,4502.708,-1698.823,4505.185,-1694.882,4510.597C-1689.223,4524.915,-1683.786,4539.324,-1678.568,4553.824C-1678.143,4554.331,-1677.719,4554.836,-1677.294,4555.343C-1662.694,4559.097,-1648.084,4562.854,-1633.466,4566.613C-1628.669,4569.099,-1625.659,4572.980,-1624.436,4578.254C-1623.417,4584.174,-1624.813,4589.410,-1628.624,4593.965C-1639.202,4603.210,-1649.913,4612.321,-1660.758,4621.298C-1662.556,4622.829,-1663.262,4624.777,-1662.877,4627.141C-1661.762,4641.709,-1660.691,4656.272,-1659.665,4670.829C-1662.194,4682.745,-1669.457,4687.670,-1681.456,4685.603C-1682.665,4685.210,-1683.827,4684.706,-1684.941,4684.092C-1696.841,4675.940,-1708.873,4667.988,-1721.036,4660.235C-1735.006,4666.077,-1748.924,4672.027,-1762.790,4678.085C-1775.877,4679.152,-1782.718,4673.127,-1783.314,4660.011C-1780.031,4646.755,-1776.662,4633.518,-1773.208,4620.302C-1772.567,4618.228,-1772.248,4616.112,-1772.251,4613.955C-1772.592,4613.255,-1772.932,4612.555,-1773.273,4611.856C-1782.516,4600.988,-1791.603,4590.011,-1800.536,4578.925C-1803.636,4573.320,-1803.934,4567.533,-1801.429,4561.564C-1799.282,4557.421,-1796.017,4554.559,-1791.634,4552.976C-1776.389,4551.689,-1761.144,4550.477,-1745.899,4549.340C-1744.442,4548.167,-1743.311,4546.726,-1742.506,4545.015C-1735.679,4533.104,-1728.747,4521.251,-1721.711,4509.456C-1718.834,4506.046,-1715.234,4503.950,-1710.912,4503.166ZZ" style="fill:none;fill-opacity:none;stroke-width:4;stroke:#000000;stroke-opacity:1" id="stroke-shape-render-6583-d14e1524-69c7-80b3-8004-8753bd36892d-0">
                  </path>
                </defs>
                <use href="#stroke-shape-render-6583-d14e1524-69c7-80b3-8004-8753bd36892d-0" clip-path="url(&#x27;#inner-stroke-render-6583-d14e1524-69c7-80b3-8004-8753bd36892d-0&#x27;)">
                </use>
              </g>
            </g>
          </g>
          <g id="shape-d14e1524-69c7-80b3-8004-8753bd36892e" style="opacity:1">
            <g class="fills" id="fills-d14e1524-69c7-80b3-8004-8753bd36892e">
              <path d="M-1709.635,4516.139C-1708.183,4516.148,-1706.955,4516.657,-1705.951,4517.667C-1700.747,4531.971,-1695.430,4546.235,-1690.000,4560.461C-1687.791,4564.268,-1684.604,4566.891,-1680.440,4568.331C-1666.375,4571.709,-1652.347,4575.214,-1638.354,4578.845C-1636.686,4580.909,-1636.667,4582.987,-1638.297,4585.080C-1649.019,4594.447,-1659.875,4603.679,-1670.864,4612.777C-1674.471,4616.430,-1676.196,4620.834,-1676.039,4625.989C-1674.943,4640.550,-1673.872,4655.113,-1672.828,4669.678C-1673.272,4672.456,-1674.846,4673.591,-1677.547,4673.083C-1689.391,4665.316,-1701.163,4657.454,-1712.862,4649.495C-1717.440,4646.713,-1722.227,4646.294,-1727.221,4648.239C-1740.124,4654.045,-1753.082,4659.744,-1766.095,4665.336C-1768.839,4665.374,-1770.191,4663.983,-1770.151,4661.163C-1766.718,4647.239,-1763.158,4633.349,-1759.472,4619.494C-1758.228,4614.171,-1759.139,4609.268,-1762.205,4604.786C-1771.292,4593.809,-1780.380,4582.831,-1789.468,4571.854C-1790.843,4569.057,-1790.186,4566.904,-1787.496,4565.395C-1773.479,4564.544,-1759.465,4563.626,-1745.455,4562.643C-1740.898,4562.143,-1737.171,4560.125,-1734.275,4556.587C-1726.457,4543.521,-1718.744,4530.396,-1711.136,4517.214C-1710.639,4516.801,-1710.139,4516.442,-1709.635,4516.139ZZ" style="shape-rendering:geometricPrecision;text-rendering:geometricPrecision;image-rendering:optimizeQuality;fill-rule:evenodd;clip-rule:evenodd;fill:#d34a24">
              </path>
            </g>
          </g>
        </g>
        <g id="shape-d14e1524-69c7-80b3-8004-8753bd368928" style="fill:#000000" width="512" height="512" rx="0" ry="0">
          <g id="shape-d14e1524-69c7-80b3-8004-8753bd368931" style="opacity:0.99">
            <g class="fills" id="fills-d14e1524-69c7-80b3-8004-8753bd368931">
              <path d="M-1415.304,4505.612C-1408.624,4504.568,-1403.085,4506.570,-1398.688,4511.618C-1391.802,4525.388,-1385.129,4539.269,-1378.668,4553.259C-1378.201,4553.726,-1377.734,4554.193,-1377.267,4554.660C-1362.394,4557.128,-1347.513,4559.597,-1332.623,4562.067C-1327.628,4564.127,-1324.291,4567.730,-1322.613,4572.878C-1321.081,4578.686,-1322.016,4584.024,-1325.416,4588.894C-1335.148,4599.025,-1345.024,4609.035,-1355.045,4618.923C-1356.703,4620.605,-1357.236,4622.607,-1356.646,4624.929C-1354.266,4639.344,-1351.931,4653.758,-1349.640,4668.171C-1351.120,4680.262,-1357.927,4685.800,-1370.060,4684.787C-1371.299,4684.501,-1372.500,4684.101,-1373.663,4683.586C-1386.229,4676.502,-1398.908,4669.629,-1411.700,4662.966C-1425.108,4670.003,-1438.454,4677.144,-1451.739,4684.387C-1464.683,4686.590,-1472.024,4681.185,-1473.761,4668.171C-1471.645,4654.679,-1469.443,4641.199,-1467.154,4627.731C-1466.696,4625.610,-1466.563,4623.474,-1466.754,4621.325C-1467.154,4620.658,-1467.555,4619.991,-1467.955,4619.323C-1478.110,4609.302,-1488.119,4599.159,-1497.984,4588.894C-1501.561,4583.580,-1502.362,4577.842,-1500.387,4571.677C-1498.609,4567.363,-1495.606,4564.227,-1491.378,4562.268C-1476.303,4559.657,-1461.221,4557.121,-1446.134,4554.660C-1444.784,4553.364,-1443.783,4551.830,-1443.131,4550.056C-1437.368,4537.595,-1431.496,4525.183,-1425.514,4512.819C-1422.945,4509.172,-1419.542,4506.769,-1415.304,4505.612ZZ" style="shape-rendering:geometricPrecision;text-rendering:geometricPrecision;image-rendering:optimizeQuality;fill-rule:evenodd;clip-rule:evenodd;fill:#d34a24">
              </path>
            </g>
            <g style="shape-rendering:geometricPrecision;text-rendering:geometricPrecision;image-rendering:optimizeQuality;fill-rule:evenodd;clip-rule:evenodd" id="strokes-d14e1524-69c7-80b3-8004-8753bd368931" class="strokes">
              <g class="inner-stroke-shape">
                <defs>
                  <clipPath id="inner-stroke-render-6586-d14e1524-69c7-80b3-8004-8753bd368931-0">
                    <use href="#stroke-shape-render-6586-d14e1524-69c7-80b3-8004-8753bd368931-0">
                    </use>
                  </clipPath>
                  <path d="M-1415.304,4505.612C-1408.624,4504.568,-1403.085,4506.570,-1398.688,4511.618C-1391.802,4525.388,-1385.129,4539.269,-1378.668,4553.259C-1378.201,4553.726,-1377.734,4554.193,-1377.267,4554.660C-1362.394,4557.128,-1347.513,4559.597,-1332.623,4562.067C-1327.628,4564.127,-1324.291,4567.730,-1322.613,4572.878C-1321.081,4578.686,-1322.016,4584.024,-1325.416,4588.894C-1335.148,4599.025,-1345.024,4609.035,-1355.045,4618.923C-1356.703,4620.605,-1357.236,4622.607,-1356.646,4624.929C-1354.266,4639.344,-1351.931,4653.758,-1349.640,4668.171C-1351.120,4680.262,-1357.927,4685.800,-1370.060,4684.787C-1371.299,4684.501,-1372.500,4684.101,-1373.663,4683.586C-1386.229,4676.502,-1398.908,4669.629,-1411.700,4662.966C-1425.108,4670.003,-1438.454,4677.144,-1451.739,4684.387C-1464.683,4686.590,-1472.024,4681.185,-1473.761,4668.171C-1471.645,4654.679,-1469.443,4641.199,-1467.154,4627.731C-1466.696,4625.610,-1466.563,4623.474,-1466.754,4621.325C-1467.154,4620.658,-1467.555,4619.991,-1467.955,4619.323C-1478.110,4609.302,-1488.119,4599.159,-1497.984,4588.894C-1501.561,4583.580,-1502.362,4577.842,-1500.387,4571.677C-1498.609,4567.363,-1495.606,4564.227,-1491.378,4562.268C-1476.303,4559.657,-1461.221,4557.121,-1446.134,4554.660C-1444.784,4553.364,-1443.783,4551.830,-1443.131,4550.056C-1437.368,4537.595,-1431.496,4525.183,-1425.514,4512.819C-1422.945,4509.172,-1419.542,4506.769,-1415.304,4505.612ZZ" style="fill:none;fill-opacity:none;stroke-width:4;stroke:#000000;stroke-opacity:1" id="stroke-shape-render-6586-d14e1524-69c7-80b3-8004-8753bd368931-0">
                  </path>
                </defs>
                <use href="#stroke-shape-render-6586-d14e1524-69c7-80b3-8004-8753bd368931-0" clip-path="url(&#x27;#inner-stroke-render-6586-d14e1524-69c7-80b3-8004-8753bd368931-0&#x27;)">
                </use>
              </g>
            </g>
          </g>
          <g id="shape-d14e1524-69c7-80b3-8004-8753bd368932" style="opacity:1">
            <g class="fills" id="fills-d14e1524-69c7-80b3-8004-8753bd368932">
              <path d="M-1412.901,4518.425C-1411.454,4518.307,-1410.186,4518.707,-1409.098,4519.626C-1402.667,4533.421,-1396.127,4547.168,-1389.479,4560.866C-1386.946,4564.466,-1383.542,4566.802,-1379.269,4567.873C-1364.963,4570.013,-1350.682,4572.282,-1336.427,4574.680C-1334.585,4576.590,-1334.384,4578.659,-1335.826,4580.886C-1345.691,4591.151,-1355.701,4601.294,-1365.855,4611.315C-1369.130,4615.269,-1370.465,4619.807,-1369.859,4624.929C-1367.498,4639.338,-1365.162,4653.752,-1362.853,4668.171C-1363.053,4670.978,-1364.521,4672.245,-1367.257,4671.975C-1379.733,4665.270,-1392.145,4658.463,-1404.493,4651.555C-1409.297,4649.182,-1414.101,4649.182,-1418.907,4651.555C-1431.255,4658.463,-1443.667,4665.270,-1456.144,4671.975C-1458.874,4672.251,-1460.342,4670.984,-1460.548,4668.171C-1458.341,4654.001,-1456.005,4639.854,-1453.541,4625.729C-1452.765,4620.318,-1454.100,4615.514,-1457.545,4611.315C-1467.555,4601.172,-1477.564,4591.029,-1487.574,4580.886C-1489.188,4578.219,-1488.721,4576.017,-1486.173,4574.279C-1472.283,4572.209,-1458.403,4570.074,-1444.532,4567.873C-1440.036,4566.979,-1436.499,4564.643,-1433.922,4560.866C-1427.273,4547.168,-1420.733,4533.421,-1414.303,4519.626C-1413.844,4519.171,-1413.377,4518.771,-1412.901,4518.425ZZ" style="shape-rendering:geometricPrecision;text-rendering:geometricPrecision;image-rendering:optimizeQuality;fill-rule:evenodd;clip-rule:evenodd;fill:#d34a24">
              </path>
            </g>
          </g>
        </g>
        <g id="shape-d14e1524-69c7-80b3-8004-8753bd368929" style="opacity:0.8">
          <g class="fills" id="fills-d14e1524-69c7-80b3-8004-8753bd368929">
            <path d="M-1760.000,4265.000C-1788.409,4245.394,-1781.500,4203.000,-1781.500,4203.000C-1781.500,4203.000,-1783.095,4170.746,-1745.000,4134.000C-1707.761,4098.079,-1665.000,4094.000,-1665.000,4094.000C-1665.000,4094.000,-1627.129,4091.901,-1600.000,4118.000C-1574.462,4142.568,-1582.000,4172.000,-1582.000,4172.000C-1582.000,4172.000,-1584.364,4202.318,-1615.000,4237.000C-1655.030,4282.318,-1692.000,4282.500,-1692.000,4282.500C-1692.000,4282.500,-1724.500,4289.500,-1760.000,4265.000Z" style="fill:#ffffff;fill-opacity:1">
            </path>
          </g>
          <g id="strokes-d14e1524-69c7-80b3-8004-8753bd368929" class="strokes">
            <g class="inner-stroke-shape">
              <defs>
                <clipPath id="inner-stroke-render-6588-d14e1524-69c7-80b3-8004-8753bd368929-0">
                  <use href="#stroke-shape-render-6588-d14e1524-69c7-80b3-8004-8753bd368929-0">
                  </use>
                </clipPath>
                <path d="M-1760.000,4265.000C-1788.409,4245.394,-1781.500,4203.000,-1781.500,4203.000C-1781.500,4203.000,-1783.095,4170.746,-1745.000,4134.000C-1707.761,4098.079,-1665.000,4094.000,-1665.000,4094.000C-1665.000,4094.000,-1627.129,4091.901,-1600.000,4118.000C-1574.462,4142.568,-1582.000,4172.000,-1582.000,4172.000C-1582.000,4172.000,-1584.364,4202.318,-1615.000,4237.000C-1655.030,4282.318,-1692.000,4282.500,-1692.000,4282.500C-1692.000,4282.500,-1724.500,4289.500,-1760.000,4265.000Z" style="fill:none;fill-opacity:none;stroke-width:4;stroke:#000000;stroke-opacity:1" id="stroke-shape-render-6588-d14e1524-69c7-80b3-8004-8753bd368929-0">
                </path>
              </defs>
              <use href="#stroke-shape-render-6588-d14e1524-69c7-80b3-8004-8753bd368929-0" clip-path="url(&#x27;#inner-stroke-render-6588-d14e1524-69c7-80b3-8004-8753bd368929-0&#x27;)">
              </use>
            </g>
          </g>
        </g>
        <g id="shape-d14e1524-69c7-80b3-8004-8753bd36892a">
          <g class="fills" id="fills-d14e1524-69c7-80b3-8004-8753bd36892a">
            <path d="M-1844.000,4272.000C-1852.840,4265.281,-1852.000,4255.000,-1852.000,4255.000C-1852.000,4255.000,-1853.764,4243.554,-1844.000,4231.000C-1835.097,4219.554,-1824.000,4219.000,-1824.000,4219.000C-1824.000,4219.000,-1815.781,4216.808,-1809.000,4223.000C-1800.448,4230.808,-1801.000,4240.000,-1801.000,4240.000C-1801.000,4240.000,-1799.523,4249.914,-1808.000,4261.000C-1816.856,4272.581,-1827.000,4274.000,-1827.000,4274.000C-1827.000,4274.000,-1836.174,4277.948,-1844.000,4272.000Z" style="fill:#ffffff;fill-opacity:1">
            </path>
          </g>
          <g id="strokes-d14e1524-69c7-80b3-8004-8753bd36892a" class="strokes">
            <g class="inner-stroke-shape">
              <defs>
                <clipPath id="inner-stroke-render-6589-d14e1524-69c7-80b3-8004-8753bd36892a-0">
                  <use href="#stroke-shape-render-6589-d14e1524-69c7-80b3-8004-8753bd36892a-0">
                  </use>
                </clipPath>
                <path d="M-1844.000,4272.000C-1852.840,4265.281,-1852.000,4255.000,-1852.000,4255.000C-1852.000,4255.000,-1853.764,4243.554,-1844.000,4231.000C-1835.097,4219.554,-1824.000,4219.000,-1824.000,4219.000C-1824.000,4219.000,-1815.781,4216.808,-1809.000,4223.000C-1800.448,4230.808,-1801.000,4240.000,-1801.000,4240.000C-1801.000,4240.000,-1799.523,4249.914,-1808.000,4261.000C-1816.856,4272.581,-1827.000,4274.000,-1827.000,4274.000C-1827.000,4274.000,-1836.174,4277.948,-1844.000,4272.000Z" style="fill:none;fill-opacity:none;stroke-width:4;stroke:#000000;stroke-opacity:1" id="stroke-shape-render-6589-d14e1524-69c7-80b3-8004-8753bd36892a-0">
                </path>
              </defs>
              <use href="#stroke-shape-render-6589-d14e1524-69c7-80b3-8004-8753bd36892a-0" clip-path="url(&#x27;#inner-stroke-render-6589-d14e1524-69c7-80b3-8004-8753bd36892a-0&#x27;)">
              </use>
            </g>
          </g>
        </g>
      </g>
    </g>
  </g>
</svg>