<svg width="926" xmlns="http://www.w3.org/2000/svg" height="927" id="screenshot-d14e1524-69c7-80b3-8004-8752fd5121e4" viewBox="-2085 1944 926 927" style="-webkit-print-color-adjust::exact" xmlns:xlink="http://www.w3.org/1999/xlink" fill="none" version="1.1">
  <g id="shape-d14e1524-69c7-80b3-8004-8752fd5121e4">
    <g fill="none">
      <g class="fills" id="fills-d14e1524-69c7-80b3-8004-8752fd5121e4">
        <rect rx="0" ry="0" x="-2085" y="1944" width="925.9999999999998" height="927" transform="matrix(1.000000, 0.000000, 0.000000, 1.000000, 0.000000, 0.000000)" class="frame-background">
        </rect>
      </g>
      <g class="frame-children">
        <g id="shape-d14e1524-69c7-80b3-8004-8752fd5121e5" style="opacity:1">
          <g class="fills" id="fills-d14e1524-69c7-80b3-8004-8752fd5121e5">
            <ellipse cx="-1622" cy="2407.5" rx="462.9999999999999" ry="463.50000000000017" transform="matrix(1.000000, 0.000000, 0.000000, 1.000000, 0.000000, 0.000000)" style="fill:#140d0c;fill-opacity:1">
            </ellipse>
          </g>
        </g>
        <g id="shape-d14e1524-69c7-80b3-8004-8752fd5121e6" style="opacity:1">
          <g class="fills" id="fills-d14e1524-69c7-80b3-8004-8752fd5121e6">
            <ellipse cx="-1619.0873636457727" cy="2404.9126363542273" rx="435.5" ry="435.5" transform="matrix(0.999948, -0.010184, 0.010184, 0.999948, -24.576091, -16.364399)" style="fill:#fd8f35;fill-opacity:1">
            </ellipse>
          </g>
        </g>
        <g id="shape-d14e1524-69c7-80b3-8004-8752fd51467a" style="fill:#000000" width="512" height="512" rx="0" ry="0">
          <g id="shape-d14e1524-69c7-80b3-8004-8752fd51467b" style="opacity:0.99">
            <g class="fills" id="fills-d14e1524-69c7-80b3-8004-8752fd51467b">
              <path d="M-1612.379,2323.751C-1605.700,2322.707,-1600.161,2324.709,-1595.763,2329.757C-1588.878,2343.527,-1582.205,2357.407,-1575.744,2371.397C-1575.276,2371.865,-1574.810,2372.331,-1574.342,2372.799C-1559.470,2375.267,-1544.589,2377.736,-1529.699,2380.206C-1524.704,2382.265,-1521.367,2385.869,-1519.689,2391.016C-1518.157,2396.824,-1519.092,2402.163,-1522.492,2407.032C-1532.223,2417.164,-1542.100,2427.174,-1552.121,2437.061C-1553.778,2438.744,-1554.312,2440.746,-1553.722,2443.067C-1551.342,2457.483,-1549.006,2471.897,-1546.715,2486.309C-1548.196,2498.400,-1555.002,2503.939,-1567.135,2502.926C-1568.375,2502.640,-1569.576,2502.239,-1570.739,2501.724C-1583.305,2494.641,-1595.984,2487.767,-1608.776,2481.104C-1622.184,2488.142,-1635.530,2495.282,-1648.815,2502.525C-1661.759,2504.729,-1669.100,2499.323,-1670.836,2486.309C-1668.721,2472.817,-1666.519,2459.338,-1664.230,2445.870C-1663.772,2443.748,-1663.638,2441.613,-1663.830,2439.464C-1664.230,2438.796,-1664.630,2438.129,-1665.031,2437.462C-1675.185,2427.441,-1685.195,2417.298,-1695.060,2407.032C-1698.637,2401.719,-1699.438,2395.980,-1697.462,2389.815C-1695.684,2385.501,-1692.682,2382.365,-1688.454,2380.406C-1673.378,2377.795,-1658.297,2375.259,-1643.210,2372.799C-1641.860,2371.503,-1640.859,2369.968,-1640.207,2368.194C-1634.443,2355.734,-1628.571,2343.322,-1622.589,2330.958C-1620.021,2327.310,-1616.618,2324.908,-1612.379,2323.751ZZ" style="shape-rendering:geometricPrecision;text-rendering:geometricPrecision;image-rendering:optimizeQuality;fill-rule:evenodd;clip-rule:evenodd;fill:#d34a24">
              </path>
            </g>
            <g style="shape-rendering:geometricPrecision;text-rendering:geometricPrecision;image-rendering:optimizeQuality;fill-rule:evenodd;clip-rule:evenodd" id="strokes-d14e1524-69c7-80b3-8004-8752fd51467b" class="strokes">
              <g class="inner-stroke-shape">
                <defs>
                  <clipPath id="inner-stroke-render-4445-d14e1524-69c7-80b3-8004-8752fd51467b-0">
                    <use href="#stroke-shape-render-4445-d14e1524-69c7-80b3-8004-8752fd51467b-0">
                    </use>
                  </clipPath>
                  <path d="M-1612.379,2323.751C-1605.700,2322.707,-1600.161,2324.709,-1595.763,2329.757C-1588.878,2343.527,-1582.205,2357.407,-1575.744,2371.397C-1575.276,2371.865,-1574.810,2372.331,-1574.342,2372.799C-1559.470,2375.267,-1544.589,2377.736,-1529.699,2380.206C-1524.704,2382.265,-1521.367,2385.869,-1519.689,2391.016C-1518.157,2396.824,-1519.092,2402.163,-1522.492,2407.032C-1532.223,2417.164,-1542.100,2427.174,-1552.121,2437.061C-1553.778,2438.744,-1554.312,2440.746,-1553.722,2443.067C-1551.342,2457.483,-1549.006,2471.897,-1546.715,2486.309C-1548.196,2498.400,-1555.002,2503.939,-1567.135,2502.926C-1568.375,2502.640,-1569.576,2502.239,-1570.739,2501.724C-1583.305,2494.641,-1595.984,2487.767,-1608.776,2481.104C-1622.184,2488.142,-1635.530,2495.282,-1648.815,2502.525C-1661.759,2504.729,-1669.100,2499.323,-1670.836,2486.309C-1668.721,2472.817,-1666.519,2459.338,-1664.230,2445.870C-1663.772,2443.748,-1663.638,2441.613,-1663.830,2439.464C-1664.230,2438.796,-1664.630,2438.129,-1665.031,2437.462C-1675.185,2427.441,-1685.195,2417.298,-1695.060,2407.032C-1698.637,2401.719,-1699.438,2395.980,-1697.462,2389.815C-1695.684,2385.501,-1692.682,2382.365,-1688.454,2380.406C-1673.378,2377.795,-1658.297,2375.259,-1643.210,2372.799C-1641.860,2371.503,-1640.859,2369.968,-1640.207,2368.194C-1634.443,2355.734,-1628.571,2343.322,-1622.589,2330.958C-1620.021,2327.310,-1616.618,2324.908,-1612.379,2323.751ZZ" style="fill:none;fill-opacity:none;stroke-width:4;stroke:#000000;stroke-opacity:1" id="stroke-shape-render-4445-d14e1524-69c7-80b3-8004-8752fd51467b-0">
                  </path>
                </defs>
                <use href="#stroke-shape-render-4445-d14e1524-69c7-80b3-8004-8752fd51467b-0" clip-path="url(&#x27;#inner-stroke-render-4445-d14e1524-69c7-80b3-8004-8752fd51467b-0&#x27;)">
                </use>
              </g>
            </g>
          </g>
          <g id="shape-d14e1524-69c7-80b3-8004-8752fd51b3fa" style="opacity:1">
            <g class="fills" id="fills-d14e1524-69c7-80b3-8004-8752fd51b3fa">
              <path d="M-1609.977,2336.563C-1608.530,2336.445,-1607.262,2336.846,-1606.173,2337.765C-1599.743,2351.560,-1593.203,2365.307,-1586.554,2379.005C-1584.021,2382.605,-1580.618,2384.941,-1576.344,2386.012C-1562.039,2388.151,-1547.758,2390.420,-1533.503,2392.818C-1531.660,2394.728,-1531.460,2396.797,-1532.902,2399.024C-1542.767,2409.290,-1552.777,2419.433,-1562.931,2429.454C-1566.206,2433.408,-1567.541,2437.945,-1566.935,2443.067C-1564.574,2457.477,-1562.238,2471.891,-1559.928,2486.309C-1560.129,2489.116,-1561.597,2490.384,-1564.333,2490.113C-1576.809,2483.408,-1589.221,2476.602,-1601.569,2469.693C-1606.372,2467.321,-1611.177,2467.321,-1615.983,2469.693C-1628.331,2476.602,-1640.743,2483.408,-1653.219,2490.113C-1655.950,2490.390,-1657.417,2489.122,-1657.624,2486.309C-1655.417,2472.140,-1653.081,2457.992,-1650.617,2443.868C-1649.841,2438.457,-1651.176,2433.652,-1654.621,2429.454C-1664.630,2419.311,-1674.640,2409.167,-1684.650,2399.024C-1686.264,2396.358,-1685.797,2394.156,-1683.249,2392.418C-1669.359,2390.348,-1655.479,2388.213,-1641.608,2386.012C-1637.112,2385.117,-1633.575,2382.782,-1630.998,2379.005C-1624.349,2365.307,-1617.809,2351.560,-1611.378,2337.765C-1610.920,2337.310,-1610.453,2336.909,-1609.977,2336.563ZZ" style="shape-rendering:geometricPrecision;text-rendering:geometricPrecision;image-rendering:optimizeQuality;fill-rule:evenodd;clip-rule:evenodd;fill:#d34a24">
              </path>
            </g>
          </g>
        </g>
        <g id="shape-d14e1524-69c7-80b3-8004-8752fd520e96" style="opacity:0.8">
          <g class="fills" id="fills-d14e1524-69c7-80b3-8004-8752fd520e96">
            <path d="M-1806.000,2197.000C-1834.409,2177.394,-1827.500,2135.000,-1827.500,2135.000C-1827.500,2135.000,-1829.095,2102.746,-1791.000,2066.000C-1753.761,2030.079,-1711.000,2026.000,-1711.000,2026.000C-1711.000,2026.000,-1673.129,2023.901,-1646.000,2050.000C-1620.462,2074.568,-1628.000,2104.000,-1628.000,2104.000C-1628.000,2104.000,-1630.364,2134.318,-1661.000,2169.000C-1701.030,2214.318,-1738.000,2214.500,-1738.000,2214.500C-1738.000,2214.500,-1770.500,2221.500,-1806.000,2197.000Z" style="fill:#ffffff;fill-opacity:1">
            </path>
          </g>
          <g id="strokes-d14e1524-69c7-80b3-8004-8752fd520e96" class="strokes">
            <g class="inner-stroke-shape">
              <defs>
                <clipPath id="inner-stroke-render-4447-d14e1524-69c7-80b3-8004-8752fd520e96-0">
                  <use href="#stroke-shape-render-4447-d14e1524-69c7-80b3-8004-8752fd520e96-0">
                  </use>
                </clipPath>
                <path d="M-1806.000,2197.000C-1834.409,2177.394,-1827.500,2135.000,-1827.500,2135.000C-1827.500,2135.000,-1829.095,2102.746,-1791.000,2066.000C-1753.761,2030.079,-1711.000,2026.000,-1711.000,2026.000C-1711.000,2026.000,-1673.129,2023.901,-1646.000,2050.000C-1620.462,2074.568,-1628.000,2104.000,-1628.000,2104.000C-1628.000,2104.000,-1630.364,2134.318,-1661.000,2169.000C-1701.030,2214.318,-1738.000,2214.500,-1738.000,2214.500C-1738.000,2214.500,-1770.500,2221.500,-1806.000,2197.000Z" style="fill:none;fill-opacity:none;stroke-width:4;stroke:#000000;stroke-opacity:1" id="stroke-shape-render-4447-d14e1524-69c7-80b3-8004-8752fd520e96-0">
                </path>
              </defs>
              <use href="#stroke-shape-render-4447-d14e1524-69c7-80b3-8004-8752fd520e96-0" clip-path="url(&#x27;#inner-stroke-render-4447-d14e1524-69c7-80b3-8004-8752fd520e96-0&#x27;)">
              </use>
            </g>
          </g>
        </g>
        <g id="shape-d14e1524-69c7-80b3-8004-8752fd520e97">
          <g class="fills" id="fills-d14e1524-69c7-80b3-8004-8752fd520e97">
            <path d="M-1890.000,2204.000C-1898.840,2197.281,-1898.000,2187.000,-1898.000,2187.000C-1898.000,2187.000,-1899.764,2175.554,-1890.000,2163.000C-1881.097,2151.554,-1870.000,2151.000,-1870.000,2151.000C-1870.000,2151.000,-1861.781,2148.808,-1855.000,2155.000C-1846.448,2162.808,-1847.000,2172.000,-1847.000,2172.000C-1847.000,2172.000,-1845.523,2181.914,-1854.000,2193.000C-1862.856,2204.581,-1873.000,2206.000,-1873.000,2206.000C-1873.000,2206.000,-1882.174,2209.948,-1890.000,2204.000Z" style="fill:#ffffff;fill-opacity:1">
            </path>
          </g>
          <g id="strokes-d14e1524-69c7-80b3-8004-8752fd520e97" class="strokes">
            <g class="inner-stroke-shape">
              <defs>
                <clipPath id="inner-stroke-render-4448-d14e1524-69c7-80b3-8004-8752fd520e97-0">
                  <use href="#stroke-shape-render-4448-d14e1524-69c7-80b3-8004-8752fd520e97-0">
                  </use>
                </clipPath>
                <path d="M-1890.000,2204.000C-1898.840,2197.281,-1898.000,2187.000,-1898.000,2187.000C-1898.000,2187.000,-1899.764,2175.554,-1890.000,2163.000C-1881.097,2151.554,-1870.000,2151.000,-1870.000,2151.000C-1870.000,2151.000,-1861.781,2148.808,-1855.000,2155.000C-1846.448,2162.808,-1847.000,2172.000,-1847.000,2172.000C-1847.000,2172.000,-1845.523,2181.914,-1854.000,2193.000C-1862.856,2204.581,-1873.000,2206.000,-1873.000,2206.000C-1873.000,2206.000,-1882.174,2209.948,-1890.000,2204.000Z" style="fill:none;fill-opacity:none;stroke-width:4;stroke:#000000;stroke-opacity:1" id="stroke-shape-render-4448-d14e1524-69c7-80b3-8004-8752fd520e97-0">
                </path>
              </defs>
              <use href="#stroke-shape-render-4448-d14e1524-69c7-80b3-8004-8752fd520e97-0" clip-path="url(&#x27;#inner-stroke-render-4448-d14e1524-69c7-80b3-8004-8752fd520e97-0&#x27;)">
              </use>
            </g>
          </g>
        </g>
      </g>
    </g>
  </g>
</svg>