<svg width="926" xmlns="http://www.w3.org/2000/svg" height="927" id="screenshot-d14e1524-69c7-80b3-8004-8753047a41f4" viewBox="-1999 2990 926 927" style="-webkit-print-color-adjust::exact" xmlns:xlink="http://www.w3.org/1999/xlink" fill="none" version="1.1">
  <g id="shape-d14e1524-69c7-80b3-8004-8753047a41f4">
    <g fill="none">
      <g class="fills" id="fills-d14e1524-69c7-80b3-8004-8753047a41f4">
        <rect rx="0" ry="0" x="-1999" y="2990" width="925.9999999999998" height="927" transform="matrix(1.000000, 0.000000, 0.000000, 1.000000, 0.000000, 0.000000)" class="frame-background">
        </rect>
      </g>
      <g class="frame-children">
        <g id="shape-d14e1524-69c7-80b3-8004-8753047a41f5" style="opacity:1">
          <g class="fills" id="fills-d14e1524-69c7-80b3-8004-8753047a41f5">
            <ellipse cx="-1536" cy="3453.5" rx="462.9999999999999" ry="463.50000000000017" transform="matrix(1.000000, 0.000000, 0.000000, 1.000000, 0.000000, 0.000000)" style="fill:#140d0c;fill-opacity:1">
            </ellipse>
          </g>
        </g>
        <g id="shape-d14e1524-69c7-80b3-8004-8753047a41f6" style="opacity:1">
          <g class="fills" id="fills-d14e1524-69c7-80b3-8004-8753047a41f6">
            <ellipse cx="-1533.0873636457727" cy="3450.9126363542273" rx="435.5" ry="435.5" transform="matrix(0.999948, -0.010184, 0.010184, 0.999948, -35.224310, -15.434311)" style="fill:#fd8f35;fill-opacity:1">
            </ellipse>
          </g>
        </g>
        <g id="shape-d14e1524-69c7-80b3-8004-8753047acaac" style="fill:#000000" width="512" height="512" rx="0" ry="0">
          <g id="shape-d14e1524-69c7-80b3-8004-8753047acaad" style="opacity:0.99">
            <g class="fills" id="fills-d14e1524-69c7-80b3-8004-8753047acaad">
              <path d="M-1654.912,3301.166C-1648.166,3300.708,-1642.823,3303.185,-1638.882,3308.597C-1633.223,3322.915,-1627.786,3337.324,-1622.568,3351.824C-1622.143,3352.331,-1621.719,3352.836,-1621.294,3353.343C-1606.694,3357.097,-1592.084,3360.854,-1577.466,3364.613C-1572.669,3367.099,-1569.659,3370.980,-1568.436,3376.254C-1567.417,3382.174,-1568.813,3387.410,-1572.624,3391.965C-1583.202,3401.210,-1593.913,3410.321,-1604.758,3419.298C-1606.556,3420.829,-1607.262,3422.777,-1606.877,3425.141C-1605.762,3439.709,-1604.691,3454.272,-1603.665,3468.829C-1606.194,3480.745,-1613.457,3485.670,-1625.456,3483.603C-1626.665,3483.210,-1627.827,3482.706,-1628.941,3482.092C-1640.841,3473.940,-1652.873,3465.988,-1665.036,3458.235C-1679.006,3464.077,-1692.924,3470.027,-1706.790,3476.085C-1719.877,3477.152,-1726.718,3471.127,-1727.314,3458.011C-1724.031,3444.755,-1720.662,3431.518,-1717.208,3418.302C-1716.567,3416.228,-1716.248,3414.112,-1716.251,3411.955C-1716.592,3411.255,-1716.932,3410.555,-1717.273,3409.856C-1726.516,3398.988,-1735.603,3388.011,-1744.536,3376.925C-1747.636,3371.320,-1747.934,3365.533,-1745.429,3359.564C-1743.282,3355.421,-1740.017,3352.559,-1735.634,3350.976C-1720.389,3349.689,-1705.144,3348.477,-1689.899,3347.340C-1688.442,3346.167,-1687.311,3344.726,-1686.506,3343.015C-1679.679,3331.104,-1672.747,3319.251,-1665.711,3307.456C-1662.834,3304.046,-1659.234,3301.950,-1654.912,3301.166ZZ" style="shape-rendering:geometricPrecision;text-rendering:geometricPrecision;image-rendering:optimizeQuality;fill-rule:evenodd;clip-rule:evenodd;fill:#d34a24">
              </path>
            </g>
            <g style="shape-rendering:geometricPrecision;text-rendering:geometricPrecision;image-rendering:optimizeQuality;fill-rule:evenodd;clip-rule:evenodd" id="strokes-d14e1524-69c7-80b3-8004-8753047acaad" class="strokes">
              <g class="inner-stroke-shape">
                <defs>
                  <clipPath id="inner-stroke-render-4480-d14e1524-69c7-80b3-8004-8753047acaad-0">
                    <use href="#stroke-shape-render-4480-d14e1524-69c7-80b3-8004-8753047acaad-0">
                    </use>
                  </clipPath>
                  <path d="M-1654.912,3301.166C-1648.166,3300.708,-1642.823,3303.185,-1638.882,3308.597C-1633.223,3322.915,-1627.786,3337.324,-1622.568,3351.824C-1622.143,3352.331,-1621.719,3352.836,-1621.294,3353.343C-1606.694,3357.097,-1592.084,3360.854,-1577.466,3364.613C-1572.669,3367.099,-1569.659,3370.980,-1568.436,3376.254C-1567.417,3382.174,-1568.813,3387.410,-1572.624,3391.965C-1583.202,3401.210,-1593.913,3410.321,-1604.758,3419.298C-1606.556,3420.829,-1607.262,3422.777,-1606.877,3425.141C-1605.762,3439.709,-1604.691,3454.272,-1603.665,3468.829C-1606.194,3480.745,-1613.457,3485.670,-1625.456,3483.603C-1626.665,3483.210,-1627.827,3482.706,-1628.941,3482.092C-1640.841,3473.940,-1652.873,3465.988,-1665.036,3458.235C-1679.006,3464.077,-1692.924,3470.027,-1706.790,3476.085C-1719.877,3477.152,-1726.718,3471.127,-1727.314,3458.011C-1724.031,3444.755,-1720.662,3431.518,-1717.208,3418.302C-1716.567,3416.228,-1716.248,3414.112,-1716.251,3411.955C-1716.592,3411.255,-1716.932,3410.555,-1717.273,3409.856C-1726.516,3398.988,-1735.603,3388.011,-1744.536,3376.925C-1747.636,3371.320,-1747.934,3365.533,-1745.429,3359.564C-1743.282,3355.421,-1740.017,3352.559,-1735.634,3350.976C-1720.389,3349.689,-1705.144,3348.477,-1689.899,3347.340C-1688.442,3346.167,-1687.311,3344.726,-1686.506,3343.015C-1679.679,3331.104,-1672.747,3319.251,-1665.711,3307.456C-1662.834,3304.046,-1659.234,3301.950,-1654.912,3301.166ZZ" style="fill:none;fill-opacity:none;stroke-width:4;stroke:#000000;stroke-opacity:1" id="stroke-shape-render-4480-d14e1524-69c7-80b3-8004-8753047acaad-0">
                  </path>
                </defs>
                <use href="#stroke-shape-render-4480-d14e1524-69c7-80b3-8004-8753047acaad-0" clip-path="url(&#x27;#inner-stroke-render-4480-d14e1524-69c7-80b3-8004-8753047acaad-0&#x27;)">
                </use>
              </g>
            </g>
          </g>
          <g id="shape-d14e1524-69c7-80b3-8004-8753047b2ad0" style="opacity:1">
            <g class="fills" id="fills-d14e1524-69c7-80b3-8004-8753047b2ad0">
              <path d="M-1653.635,3314.139C-1652.183,3314.148,-1650.955,3314.657,-1649.951,3315.667C-1644.747,3329.971,-1639.430,3344.235,-1634.000,3358.461C-1631.791,3362.268,-1628.604,3364.891,-1624.440,3366.331C-1610.375,3369.709,-1596.347,3373.214,-1582.354,3376.845C-1580.686,3378.909,-1580.667,3380.987,-1582.297,3383.080C-1593.019,3392.447,-1603.875,3401.679,-1614.864,3410.777C-1618.471,3414.430,-1620.196,3418.834,-1620.039,3423.989C-1618.943,3438.550,-1617.872,3453.113,-1616.828,3467.678C-1617.272,3470.456,-1618.846,3471.591,-1621.547,3471.083C-1633.391,3463.316,-1645.163,3455.454,-1656.862,3447.495C-1661.440,3444.713,-1666.227,3444.294,-1671.221,3446.239C-1684.124,3452.045,-1697.082,3457.744,-1710.095,3463.336C-1712.839,3463.374,-1714.191,3461.983,-1714.151,3459.163C-1710.718,3445.239,-1707.158,3431.349,-1703.472,3417.494C-1702.228,3412.171,-1703.139,3407.268,-1706.205,3402.786C-1715.292,3391.809,-1724.380,3380.831,-1733.468,3369.854C-1734.843,3367.057,-1734.186,3364.904,-1731.496,3363.395C-1717.479,3362.544,-1703.465,3361.626,-1689.455,3360.643C-1684.898,3360.143,-1681.171,3358.125,-1678.275,3354.587C-1670.457,3341.521,-1662.744,3328.396,-1655.136,3315.214C-1654.639,3314.801,-1654.139,3314.442,-1653.635,3314.139ZZ" style="shape-rendering:geometricPrecision;text-rendering:geometricPrecision;image-rendering:optimizeQuality;fill-rule:evenodd;clip-rule:evenodd;fill:#d34a24">
              </path>
            </g>
          </g>
        </g>
        <g id="shape-d14e1524-69c7-80b3-8004-8753047b868b" style="fill:#000000" width="512" height="512" rx="0" ry="0">
          <g id="shape-d14e1524-69c7-80b3-8004-8753047b868c" style="opacity:0.99">
            <g class="fills" id="fills-d14e1524-69c7-80b3-8004-8753047b868c">
              <path d="M-1410.304,3474.612C-1403.624,3473.568,-1398.085,3475.570,-1393.688,3480.618C-1386.802,3494.388,-1380.129,3508.269,-1373.668,3522.259C-1373.201,3522.726,-1372.734,3523.193,-1372.267,3523.660C-1357.394,3526.128,-1342.513,3528.597,-1327.623,3531.067C-1322.628,3533.127,-1319.291,3536.730,-1317.613,3541.878C-1316.081,3547.686,-1317.016,3553.024,-1320.416,3557.894C-1330.148,3568.025,-1340.024,3578.035,-1350.045,3587.923C-1351.703,3589.605,-1352.236,3591.607,-1351.646,3593.929C-1349.266,3608.344,-1346.931,3622.758,-1344.640,3637.171C-1346.120,3649.262,-1352.927,3654.800,-1365.060,3653.787C-1366.299,3653.501,-1367.500,3653.101,-1368.663,3652.586C-1381.229,3645.502,-1393.908,3638.629,-1406.700,3631.966C-1420.108,3639.003,-1433.454,3646.144,-1446.739,3653.387C-1459.683,3655.590,-1467.024,3650.185,-1468.761,3637.171C-1466.645,3623.679,-1464.443,3610.199,-1462.154,3596.731C-1461.696,3594.610,-1461.563,3592.474,-1461.754,3590.325C-1462.154,3589.658,-1462.555,3588.991,-1462.955,3588.323C-1473.110,3578.302,-1483.119,3568.159,-1492.984,3557.894C-1496.561,3552.580,-1497.362,3546.842,-1495.387,3540.677C-1493.609,3536.363,-1490.606,3533.227,-1486.378,3531.268C-1471.303,3528.657,-1456.221,3526.121,-1441.134,3523.660C-1439.784,3522.364,-1438.783,3520.830,-1438.131,3519.056C-1432.368,3506.595,-1426.496,3494.183,-1420.514,3481.819C-1417.945,3478.172,-1414.542,3475.769,-1410.304,3474.612ZZ" style="shape-rendering:geometricPrecision;text-rendering:geometricPrecision;image-rendering:optimizeQuality;fill-rule:evenodd;clip-rule:evenodd;fill:#d34a24">
              </path>
            </g>
            <g style="shape-rendering:geometricPrecision;text-rendering:geometricPrecision;image-rendering:optimizeQuality;fill-rule:evenodd;clip-rule:evenodd" id="strokes-d14e1524-69c7-80b3-8004-8753047b868c" class="strokes">
              <g class="inner-stroke-shape">
                <defs>
                  <clipPath id="inner-stroke-render-4483-d14e1524-69c7-80b3-8004-8753047b868c-0">
                    <use href="#stroke-shape-render-4483-d14e1524-69c7-80b3-8004-8753047b868c-0">
                    </use>
                  </clipPath>
                  <path d="M-1410.304,3474.612C-1403.624,3473.568,-1398.085,3475.570,-1393.688,3480.618C-1386.802,3494.388,-1380.129,3508.269,-1373.668,3522.259C-1373.201,3522.726,-1372.734,3523.193,-1372.267,3523.660C-1357.394,3526.128,-1342.513,3528.597,-1327.623,3531.067C-1322.628,3533.127,-1319.291,3536.730,-1317.613,3541.878C-1316.081,3547.686,-1317.016,3553.024,-1320.416,3557.894C-1330.148,3568.025,-1340.024,3578.035,-1350.045,3587.923C-1351.703,3589.605,-1352.236,3591.607,-1351.646,3593.929C-1349.266,3608.344,-1346.931,3622.758,-1344.640,3637.171C-1346.120,3649.262,-1352.927,3654.800,-1365.060,3653.787C-1366.299,3653.501,-1367.500,3653.101,-1368.663,3652.586C-1381.229,3645.502,-1393.908,3638.629,-1406.700,3631.966C-1420.108,3639.003,-1433.454,3646.144,-1446.739,3653.387C-1459.683,3655.590,-1467.024,3650.185,-1468.761,3637.171C-1466.645,3623.679,-1464.443,3610.199,-1462.154,3596.731C-1461.696,3594.610,-1461.563,3592.474,-1461.754,3590.325C-1462.154,3589.658,-1462.555,3588.991,-1462.955,3588.323C-1473.110,3578.302,-1483.119,3568.159,-1492.984,3557.894C-1496.561,3552.580,-1497.362,3546.842,-1495.387,3540.677C-1493.609,3536.363,-1490.606,3533.227,-1486.378,3531.268C-1471.303,3528.657,-1456.221,3526.121,-1441.134,3523.660C-1439.784,3522.364,-1438.783,3520.830,-1438.131,3519.056C-1432.368,3506.595,-1426.496,3494.183,-1420.514,3481.819C-1417.945,3478.172,-1414.542,3475.769,-1410.304,3474.612ZZ" style="fill:none;fill-opacity:none;stroke-width:4;stroke:#000000;stroke-opacity:1" id="stroke-shape-render-4483-d14e1524-69c7-80b3-8004-8753047b868c-0">
                  </path>
                </defs>
                <use href="#stroke-shape-render-4483-d14e1524-69c7-80b3-8004-8753047b868c-0" clip-path="url(&#x27;#inner-stroke-render-4483-d14e1524-69c7-80b3-8004-8753047b868c-0&#x27;)">
                </use>
              </g>
            </g>
          </g>
          <g id="shape-d14e1524-69c7-80b3-8004-8753047b868d" style="opacity:1">
            <g class="fills" id="fills-d14e1524-69c7-80b3-8004-8753047b868d">
              <path d="M-1407.901,3487.425C-1406.454,3487.307,-1405.186,3487.707,-1404.098,3488.626C-1397.667,3502.421,-1391.127,3516.168,-1384.479,3529.866C-1381.946,3533.466,-1378.542,3535.802,-1374.269,3536.873C-1359.963,3539.013,-1345.682,3541.282,-1331.427,3543.680C-1329.585,3545.590,-1329.384,3547.659,-1330.826,3549.886C-1340.691,3560.151,-1350.701,3570.294,-1360.855,3580.315C-1364.130,3584.269,-1365.465,3588.807,-1364.859,3593.929C-1362.498,3608.338,-1360.162,3622.752,-1357.853,3637.171C-1358.053,3639.978,-1359.521,3641.245,-1362.257,3640.975C-1374.733,3634.270,-1387.145,3627.463,-1399.493,3620.555C-1404.297,3618.182,-1409.101,3618.182,-1413.907,3620.555C-1426.255,3627.463,-1438.667,3634.270,-1451.144,3640.975C-1453.874,3641.251,-1455.342,3639.984,-1455.548,3637.171C-1453.341,3623.001,-1451.005,3608.854,-1448.541,3594.729C-1447.765,3589.318,-1449.100,3584.514,-1452.545,3580.315C-1462.555,3570.172,-1472.564,3560.029,-1482.574,3549.886C-1484.188,3547.219,-1483.721,3545.017,-1481.173,3543.279C-1467.283,3541.209,-1453.403,3539.074,-1439.532,3536.873C-1435.036,3535.979,-1431.499,3533.643,-1428.922,3529.866C-1422.273,3516.168,-1415.733,3502.421,-1409.303,3488.626C-1408.844,3488.171,-1408.377,3487.771,-1407.901,3487.425ZZ" style="shape-rendering:geometricPrecision;text-rendering:geometricPrecision;image-rendering:optimizeQuality;fill-rule:evenodd;clip-rule:evenodd;fill:#d34a24">
              </path>
            </g>
          </g>
        </g>
        <g id="shape-d14e1524-69c7-80b3-8004-8753047bea12" style="opacity:0.8">
          <g class="fills" id="fills-d14e1524-69c7-80b3-8004-8753047bea12">
            <path d="M-1720.000,3243.000C-1748.409,3223.394,-1741.500,3181.000,-1741.500,3181.000C-1741.500,3181.000,-1743.095,3148.746,-1705.000,3112.000C-1667.761,3076.079,-1625.000,3072.000,-1625.000,3072.000C-1625.000,3072.000,-1587.129,3069.901,-1560.000,3096.000C-1534.462,3120.568,-1542.000,3150.000,-1542.000,3150.000C-1542.000,3150.000,-1544.364,3180.318,-1575.000,3215.000C-1615.030,3260.318,-1652.000,3260.500,-1652.000,3260.500C-1652.000,3260.500,-1684.500,3267.500,-1720.000,3243.000Z" style="fill:#ffffff;fill-opacity:1">
            </path>
          </g>
          <g id="strokes-d14e1524-69c7-80b3-8004-8753047bea12" class="strokes">
            <g class="inner-stroke-shape">
              <defs>
                <clipPath id="inner-stroke-render-4485-d14e1524-69c7-80b3-8004-8753047bea12-0">
                  <use href="#stroke-shape-render-4485-d14e1524-69c7-80b3-8004-8753047bea12-0">
                  </use>
                </clipPath>
                <path d="M-1720.000,3243.000C-1748.409,3223.394,-1741.500,3181.000,-1741.500,3181.000C-1741.500,3181.000,-1743.095,3148.746,-1705.000,3112.000C-1667.761,3076.079,-1625.000,3072.000,-1625.000,3072.000C-1625.000,3072.000,-1587.129,3069.901,-1560.000,3096.000C-1534.462,3120.568,-1542.000,3150.000,-1542.000,3150.000C-1542.000,3150.000,-1544.364,3180.318,-1575.000,3215.000C-1615.030,3260.318,-1652.000,3260.500,-1652.000,3260.500C-1652.000,3260.500,-1684.500,3267.500,-1720.000,3243.000Z" style="fill:none;fill-opacity:none;stroke-width:4;stroke:#000000;stroke-opacity:1" id="stroke-shape-render-4485-d14e1524-69c7-80b3-8004-8753047bea12-0">
                </path>
              </defs>
              <use href="#stroke-shape-render-4485-d14e1524-69c7-80b3-8004-8753047bea12-0" clip-path="url(&#x27;#inner-stroke-render-4485-d14e1524-69c7-80b3-8004-8753047bea12-0&#x27;)">
              </use>
            </g>
          </g>
        </g>
        <g id="shape-d14e1524-69c7-80b3-8004-8753047bea13">
          <g class="fills" id="fills-d14e1524-69c7-80b3-8004-8753047bea13">
            <path d="M-1804.000,3250.000C-1812.840,3243.281,-1812.000,3233.000,-1812.000,3233.000C-1812.000,3233.000,-1813.764,3221.554,-1804.000,3209.000C-1795.097,3197.554,-1784.000,3197.000,-1784.000,3197.000C-1784.000,3197.000,-1775.781,3194.808,-1769.000,3201.000C-1760.448,3208.808,-1761.000,3218.000,-1761.000,3218.000C-1761.000,3218.000,-1759.523,3227.914,-1768.000,3239.000C-1776.856,3250.581,-1787.000,3252.000,-1787.000,3252.000C-1787.000,3252.000,-1796.174,3255.948,-1804.000,3250.000Z" style="fill:#ffffff;fill-opacity:1">
            </path>
          </g>
          <g id="strokes-d14e1524-69c7-80b3-8004-8753047bea13" class="strokes">
            <g class="inner-stroke-shape">
              <defs>
                <clipPath id="inner-stroke-render-4486-d14e1524-69c7-80b3-8004-8753047bea13-0">
                  <use href="#stroke-shape-render-4486-d14e1524-69c7-80b3-8004-8753047bea13-0">
                  </use>
                </clipPath>
                <path d="M-1804.000,3250.000C-1812.840,3243.281,-1812.000,3233.000,-1812.000,3233.000C-1812.000,3233.000,-1813.764,3221.554,-1804.000,3209.000C-1795.097,3197.554,-1784.000,3197.000,-1784.000,3197.000C-1784.000,3197.000,-1775.781,3194.808,-1769.000,3201.000C-1760.448,3208.808,-1761.000,3218.000,-1761.000,3218.000C-1761.000,3218.000,-1759.523,3227.914,-1768.000,3239.000C-1776.856,3250.581,-1787.000,3252.000,-1787.000,3252.000C-1787.000,3252.000,-1796.174,3255.948,-1804.000,3250.000Z" style="fill:none;fill-opacity:none;stroke-width:4;stroke:#000000;stroke-opacity:1" id="stroke-shape-render-4486-d14e1524-69c7-80b3-8004-8753047bea13-0">
                </path>
              </defs>
              <use href="#stroke-shape-render-4486-d14e1524-69c7-80b3-8004-8753047bea13-0" clip-path="url(&#x27;#inner-stroke-render-4486-d14e1524-69c7-80b3-8004-8753047bea13-0&#x27;)">
              </use>
            </g>
          </g>
        </g>
      </g>
    </g>
  </g>
</svg>