<svg width="926" xmlns="http://www.w3.org/2000/svg" height="927" id="screenshot-d14e1524-69c7-80b3-8004-8758c858517d" viewBox="-2147 6496 926 927" style="-webkit-print-color-adjust::exact" xmlns:xlink="http://www.w3.org/1999/xlink" fill="none" version="1.1">
  <g id="shape-d14e1524-69c7-80b3-8004-8758c858517d">
    <g fill="none">
      <g class="fills" id="fills-d14e1524-69c7-80b3-8004-8758c858517d">
        <rect rx="0" ry="0" x="-2147" y="6496" width="926" height="927" transform="matrix(1.000000, 0.000000, 0.000000, 1.000000, 0.000000, 0.000000)" class="frame-background">
        </rect>
      </g>
      <g class="frame-children">
        <g id="shape-d14e1524-69c7-80b3-8004-8758c858517e" style="opacity:1">
          <g class="fills" id="fills-d14e1524-69c7-80b3-8004-8758c858517e">
            <ellipse cx="-1684" cy="6959.5" rx="463" ry="463.5" transform="matrix(1.000000, 0.000000, 0.000000, 1.000000, 0.000000, 0.000000)" style="fill:#140d0c;fill-opacity:1">
            </ellipse>
          </g>
        </g>
        <g id="shape-d14e1524-69c7-80b3-8004-8758c858517f" style="opacity:1">
          <g class="fills" id="fills-d14e1524-69c7-80b3-8004-8758c858517f">
            <ellipse cx="-1681.0873636457727" cy="6956.912636354227" rx="435.5" ry="435.5" transform="matrix(0.999948, -0.010184, 0.010184, 0.999948, -70.937811, -16.759751)" style="fill:#fd8f35;fill-opacity:1">
            </ellipse>
          </g>
        </g>
        <g id="shape-d14e1524-69c7-80b3-8004-8758c8585180" style="fill:#000000" width="512" height="512" rx="0" ry="0">
          <g id="shape-d14e1524-69c7-80b3-8004-8758c8585187" style="opacity:0.99">
            <g class="fills" id="fills-d14e1524-69c7-80b3-8004-8758c8585187">
              <path d="M-1448.564,6842.775C-1441.819,6842.317,-1436.476,6844.794,-1432.535,6850.206C-1426.876,6864.524,-1421.438,6878.933,-1416.220,6893.433C-1415.796,6893.939,-1415.371,6894.445,-1414.947,6894.951C-1400.346,6898.706,-1385.737,6902.463,-1371.118,6906.221C-1366.322,6908.708,-1363.312,6912.588,-1362.089,6917.863C-1361.069,6923.782,-1362.465,6929.019,-1366.277,6933.573C-1376.854,6942.819,-1387.566,6951.929,-1398.410,6960.906C-1400.208,6962.438,-1400.914,6964.385,-1400.529,6966.749C-1399.414,6981.317,-1398.344,6995.880,-1397.318,7010.438C-1399.846,7022.354,-1407.110,7027.278,-1419.108,7025.211C-1420.318,7024.818,-1421.480,7024.315,-1422.593,7023.700C-1434.494,7015.548,-1446.526,7007.596,-1458.689,6999.844C-1472.659,7005.686,-1486.577,7011.636,-1500.442,7017.693C-1513.529,7018.760,-1520.371,7012.736,-1520.967,6999.620C-1517.684,6986.364,-1514.315,6973.127,-1510.861,6959.910C-1510.219,6957.837,-1509.900,6955.721,-1509.904,6953.563C-1510.244,6952.863,-1510.585,6952.164,-1510.926,6951.464C-1520.168,6940.596,-1529.256,6929.619,-1538.189,6918.533C-1541.289,6912.928,-1541.587,6907.142,-1539.081,6901.172C-1536.934,6897.030,-1533.669,6894.167,-1529.287,6892.584C-1514.041,6891.297,-1498.796,6890.085,-1483.552,6888.949C-1482.094,6887.776,-1480.963,6886.334,-1480.159,6884.624C-1473.332,6872.713,-1466.400,6860.860,-1459.363,6849.065C-1456.487,6845.655,-1452.887,6843.558,-1448.564,6842.775ZZ" style="shape-rendering:geometricPrecision;text-rendering:geometricPrecision;image-rendering:optimizeQuality;fill-rule:evenodd;clip-rule:evenodd;fill:#d34a24">
              </path>
            </g>
            <g style="shape-rendering:geometricPrecision;text-rendering:geometricPrecision;image-rendering:optimizeQuality;fill-rule:evenodd;clip-rule:evenodd" id="strokes-d14e1524-69c7-80b3-8004-8758c8585187" class="strokes">
              <g class="inner-stroke-shape">
                <defs>
                  <clipPath id="inner-stroke-render-6342-d14e1524-69c7-80b3-8004-8758c8585187-0">
                    <use href="#stroke-shape-render-6342-d14e1524-69c7-80b3-8004-8758c8585187-0">
                    </use>
                  </clipPath>
                  <path d="M-1448.564,6842.775C-1441.819,6842.317,-1436.476,6844.794,-1432.535,6850.206C-1426.876,6864.524,-1421.438,6878.933,-1416.220,6893.433C-1415.796,6893.939,-1415.371,6894.445,-1414.947,6894.951C-1400.346,6898.706,-1385.737,6902.463,-1371.118,6906.221C-1366.322,6908.708,-1363.312,6912.588,-1362.089,6917.863C-1361.069,6923.782,-1362.465,6929.019,-1366.277,6933.573C-1376.854,6942.819,-1387.566,6951.929,-1398.410,6960.906C-1400.208,6962.438,-1400.914,6964.385,-1400.529,6966.749C-1399.414,6981.317,-1398.344,6995.880,-1397.318,7010.438C-1399.846,7022.354,-1407.110,7027.278,-1419.108,7025.211C-1420.318,7024.818,-1421.480,7024.315,-1422.593,7023.700C-1434.494,7015.548,-1446.526,7007.596,-1458.689,6999.844C-1472.659,7005.686,-1486.577,7011.636,-1500.442,7017.693C-1513.529,7018.760,-1520.371,7012.736,-1520.967,6999.620C-1517.684,6986.364,-1514.315,6973.127,-1510.861,6959.910C-1510.219,6957.837,-1509.900,6955.721,-1509.904,6953.563C-1510.244,6952.863,-1510.585,6952.164,-1510.926,6951.464C-1520.168,6940.596,-1529.256,6929.619,-1538.189,6918.533C-1541.289,6912.928,-1541.587,6907.142,-1539.081,6901.172C-1536.934,6897.030,-1533.669,6894.167,-1529.287,6892.584C-1514.041,6891.297,-1498.796,6890.085,-1483.552,6888.949C-1482.094,6887.776,-1480.963,6886.334,-1480.159,6884.624C-1473.332,6872.713,-1466.400,6860.860,-1459.363,6849.065C-1456.487,6845.655,-1452.887,6843.558,-1448.564,6842.775ZZ" style="fill:none;fill-opacity:none;stroke-width:4;stroke:#000000;stroke-opacity:1" id="stroke-shape-render-6342-d14e1524-69c7-80b3-8004-8758c8585187-0">
                  </path>
                </defs>
                <use href="#stroke-shape-render-6342-d14e1524-69c7-80b3-8004-8758c8585187-0" clip-path="url(&#x27;#inner-stroke-render-6342-d14e1524-69c7-80b3-8004-8758c8585187-0&#x27;)">
                </use>
              </g>
            </g>
          </g>
          <g id="shape-d14e1524-69c7-80b3-8004-8758c8585188" style="opacity:1">
            <g class="fills" id="fills-d14e1524-69c7-80b3-8004-8758c8585188">
              <path d="M-1447.288,6855.748C-1445.835,6855.757,-1444.607,6856.266,-1443.603,6857.276C-1438.400,6871.579,-1433.083,6885.844,-1427.653,6900.069C-1425.443,6903.876,-1422.257,6906.500,-1418.093,6907.939C-1404.028,6911.318,-1389.999,6914.823,-1376.007,6918.454C-1374.338,6920.517,-1374.319,6922.596,-1375.950,6924.689C-1386.672,6934.056,-1397.527,6943.288,-1408.517,6952.385C-1412.124,6956.039,-1413.849,6960.443,-1413.692,6965.598C-1412.595,6980.159,-1411.525,6994.721,-1410.480,7009.286C-1410.925,7012.065,-1412.498,7013.200,-1415.200,7012.692C-1427.044,7004.925,-1438.816,6997.062,-1450.514,6989.104C-1455.093,6986.322,-1459.879,6985.903,-1464.874,6987.848C-1477.777,6993.654,-1490.735,6999.353,-1503.748,7004.945C-1506.492,7004.982,-1507.844,7003.592,-1507.804,7000.772C-1504.371,6986.848,-1500.811,6972.958,-1497.125,6959.102C-1495.881,6953.779,-1496.791,6948.876,-1499.857,6944.394C-1508.945,6933.417,-1518.033,6922.440,-1527.120,6911.463C-1528.495,6908.666,-1527.838,6906.513,-1525.148,6905.004C-1511.131,6904.152,-1497.118,6903.235,-1483.108,6902.251C-1478.551,6901.752,-1474.824,6899.734,-1471.927,6896.196C-1464.110,6883.129,-1456.397,6870.005,-1448.788,6856.822C-1448.292,6856.409,-1447.792,6856.051,-1447.288,6855.748ZZ" style="shape-rendering:geometricPrecision;text-rendering:geometricPrecision;image-rendering:optimizeQuality;fill-rule:evenodd;clip-rule:evenodd;fill:#d34a24">
              </path>
            </g>
          </g>
        </g>
        <g id="shape-d14e1524-69c7-80b3-8004-8758c8585181" style="fill:#000000" width="512" height="512" rx="0" ry="0">
          <g id="shape-d14e1524-69c7-80b3-8004-8758c8585189" style="opacity:0.99">
            <g class="fills" id="fills-d14e1524-69c7-80b3-8004-8758c8585189">
              <path d="M-1637.564,6642.775C-1630.819,6642.317,-1625.476,6644.794,-1621.535,6650.206C-1615.876,6664.524,-1610.438,6678.933,-1605.220,6693.433C-1604.796,6693.939,-1604.371,6694.445,-1603.947,6694.951C-1589.346,6698.706,-1574.737,6702.463,-1560.118,6706.221C-1555.322,6708.708,-1552.312,6712.588,-1551.089,6717.863C-1550.069,6723.782,-1551.465,6729.019,-1555.277,6733.573C-1565.854,6742.819,-1576.566,6751.929,-1587.410,6760.906C-1589.208,6762.438,-1589.914,6764.385,-1589.529,6766.749C-1588.414,6781.317,-1587.344,6795.880,-1586.318,6810.438C-1588.846,6822.354,-1596.110,6827.278,-1608.108,6825.211C-1609.318,6824.818,-1610.480,6824.315,-1611.593,6823.700C-1623.494,6815.548,-1635.526,6807.596,-1647.689,6799.844C-1661.659,6805.686,-1675.577,6811.636,-1689.442,6817.693C-1702.529,6818.760,-1709.371,6812.736,-1709.967,6799.620C-1706.684,6786.364,-1703.315,6773.127,-1699.861,6759.910C-1699.219,6757.837,-1698.900,6755.721,-1698.904,6753.563C-1699.244,6752.863,-1699.585,6752.164,-1699.926,6751.464C-1709.168,6740.596,-1718.256,6729.619,-1727.189,6718.533C-1730.289,6712.928,-1730.587,6707.142,-1728.081,6701.172C-1725.934,6697.030,-1722.669,6694.167,-1718.287,6692.584C-1703.041,6691.297,-1687.796,6690.085,-1672.552,6688.949C-1671.094,6687.776,-1669.963,6686.334,-1669.159,6684.624C-1662.332,6672.713,-1655.400,6660.860,-1648.363,6649.065C-1645.487,6645.655,-1641.887,6643.558,-1637.564,6642.775ZZ" style="shape-rendering:geometricPrecision;text-rendering:geometricPrecision;image-rendering:optimizeQuality;fill-rule:evenodd;clip-rule:evenodd;fill:#d34a24">
              </path>
            </g>
            <g style="shape-rendering:geometricPrecision;text-rendering:geometricPrecision;image-rendering:optimizeQuality;fill-rule:evenodd;clip-rule:evenodd" id="strokes-d14e1524-69c7-80b3-8004-8758c8585189" class="strokes">
              <g class="inner-stroke-shape">
                <defs>
                  <clipPath id="inner-stroke-render-6345-d14e1524-69c7-80b3-8004-8758c8585189-0">
                    <use href="#stroke-shape-render-6345-d14e1524-69c7-80b3-8004-8758c8585189-0">
                    </use>
                  </clipPath>
                  <path d="M-1637.564,6642.775C-1630.819,6642.317,-1625.476,6644.794,-1621.535,6650.206C-1615.876,6664.524,-1610.438,6678.933,-1605.220,6693.433C-1604.796,6693.939,-1604.371,6694.445,-1603.947,6694.951C-1589.346,6698.706,-1574.737,6702.463,-1560.118,6706.221C-1555.322,6708.708,-1552.312,6712.588,-1551.089,6717.863C-1550.069,6723.782,-1551.465,6729.019,-1555.277,6733.573C-1565.854,6742.819,-1576.566,6751.929,-1587.410,6760.906C-1589.208,6762.438,-1589.914,6764.385,-1589.529,6766.749C-1588.414,6781.317,-1587.344,6795.880,-1586.318,6810.438C-1588.846,6822.354,-1596.110,6827.278,-1608.108,6825.211C-1609.318,6824.818,-1610.480,6824.315,-1611.593,6823.700C-1623.494,6815.548,-1635.526,6807.596,-1647.689,6799.844C-1661.659,6805.686,-1675.577,6811.636,-1689.442,6817.693C-1702.529,6818.760,-1709.371,6812.736,-1709.967,6799.620C-1706.684,6786.364,-1703.315,6773.127,-1699.861,6759.910C-1699.219,6757.837,-1698.900,6755.721,-1698.904,6753.563C-1699.244,6752.863,-1699.585,6752.164,-1699.926,6751.464C-1709.168,6740.596,-1718.256,6729.619,-1727.189,6718.533C-1730.289,6712.928,-1730.587,6707.142,-1728.081,6701.172C-1725.934,6697.030,-1722.669,6694.167,-1718.287,6692.584C-1703.041,6691.297,-1687.796,6690.085,-1672.552,6688.949C-1671.094,6687.776,-1669.963,6686.334,-1669.159,6684.624C-1662.332,6672.713,-1655.400,6660.860,-1648.363,6649.065C-1645.487,6645.655,-1641.887,6643.558,-1637.564,6642.775ZZ" style="fill:none;fill-opacity:none;stroke-width:4;stroke:#000000;stroke-opacity:1" id="stroke-shape-render-6345-d14e1524-69c7-80b3-8004-8758c8585189-0">
                  </path>
                </defs>
                <use href="#stroke-shape-render-6345-d14e1524-69c7-80b3-8004-8758c8585189-0" clip-path="url(&#x27;#inner-stroke-render-6345-d14e1524-69c7-80b3-8004-8758c8585189-0&#x27;)">
                </use>
              </g>
            </g>
          </g>
          <g id="shape-d14e1524-69c7-80b3-8004-8758c858518a" style="opacity:1">
            <g class="fills" id="fills-d14e1524-69c7-80b3-8004-8758c858518a">
              <path d="M-1636.288,6655.748C-1634.835,6655.757,-1633.607,6656.266,-1632.603,6657.276C-1627.400,6671.579,-1622.083,6685.844,-1616.653,6700.069C-1614.443,6703.876,-1611.257,6706.500,-1607.093,6707.939C-1593.028,6711.318,-1578.999,6714.823,-1565.007,6718.454C-1563.338,6720.517,-1563.319,6722.596,-1564.950,6724.689C-1575.672,6734.056,-1586.527,6743.288,-1597.517,6752.385C-1601.124,6756.039,-1602.849,6760.443,-1602.692,6765.598C-1601.595,6780.159,-1600.525,6794.721,-1599.480,6809.286C-1599.925,6812.065,-1601.498,6813.200,-1604.200,6812.692C-1616.044,6804.925,-1627.816,6797.062,-1639.514,6789.104C-1644.093,6786.322,-1648.879,6785.903,-1653.874,6787.848C-1666.777,6793.654,-1679.735,6799.353,-1692.748,6804.945C-1695.492,6804.982,-1696.844,6803.592,-1696.804,6800.772C-1693.371,6786.848,-1689.811,6772.958,-1686.125,6759.102C-1684.881,6753.779,-1685.791,6748.876,-1688.857,6744.394C-1697.945,6733.417,-1707.033,6722.440,-1716.120,6711.463C-1717.495,6708.666,-1716.838,6706.513,-1714.148,6705.004C-1700.131,6704.152,-1686.118,6703.235,-1672.108,6702.251C-1667.551,6701.752,-1663.824,6699.734,-1660.927,6696.196C-1653.110,6683.129,-1645.397,6670.005,-1637.788,6656.822C-1637.292,6656.409,-1636.792,6656.051,-1636.288,6655.748ZZ" style="shape-rendering:geometricPrecision;text-rendering:geometricPrecision;image-rendering:optimizeQuality;fill-rule:evenodd;clip-rule:evenodd;fill:#d34a24">
              </path>
            </g>
          </g>
        </g>
        <g id="shape-d14e1524-69c7-80b3-8004-8758c8585182" style="fill:#000000" width="512" height="512" rx="0" ry="0">
          <g id="shape-d14e1524-69c7-80b3-8004-8758c858518b" style="opacity:0.99">
            <g class="fills" id="fills-d14e1524-69c7-80b3-8004-8758c858518b">
              <path d="M-1551.564,7079.775C-1544.819,7079.317,-1539.476,7081.794,-1535.535,7087.206C-1529.876,7101.524,-1524.438,7115.933,-1519.220,7130.433C-1518.796,7130.939,-1518.371,7131.445,-1517.947,7131.951C-1503.346,7135.706,-1488.737,7139.463,-1474.118,7143.221C-1469.322,7145.708,-1466.312,7149.588,-1465.089,7154.863C-1464.069,7160.782,-1465.465,7166.019,-1469.277,7170.573C-1479.854,7179.819,-1490.566,7188.929,-1501.410,7197.906C-1503.208,7199.438,-1503.914,7201.385,-1503.529,7203.749C-1502.414,7218.317,-1501.344,7232.880,-1500.318,7247.438C-1502.846,7259.354,-1510.110,7264.278,-1522.108,7262.211C-1523.318,7261.818,-1524.480,7261.315,-1525.593,7260.700C-1537.494,7252.548,-1549.526,7244.596,-1561.689,7236.844C-1575.659,7242.686,-1589.577,7248.636,-1603.442,7254.693C-1616.529,7255.760,-1623.371,7249.736,-1623.967,7236.620C-1620.684,7223.364,-1617.315,7210.127,-1613.861,7196.910C-1613.219,7194.837,-1612.900,7192.721,-1612.904,7190.563C-1613.244,7189.863,-1613.585,7189.164,-1613.926,7188.464C-1623.168,7177.596,-1632.256,7166.619,-1641.189,7155.533C-1644.289,7149.928,-1644.587,7144.142,-1642.081,7138.172C-1639.934,7134.030,-1636.669,7131.167,-1632.287,7129.584C-1617.041,7128.297,-1601.796,7127.085,-1586.552,7125.949C-1585.094,7124.776,-1583.963,7123.334,-1583.159,7121.624C-1576.332,7109.713,-1569.400,7097.860,-1562.363,7086.065C-1559.487,7082.655,-1555.887,7080.558,-1551.564,7079.775ZZ" style="shape-rendering:geometricPrecision;text-rendering:geometricPrecision;image-rendering:optimizeQuality;fill-rule:evenodd;clip-rule:evenodd;fill:#d34a24">
              </path>
            </g>
            <g style="shape-rendering:geometricPrecision;text-rendering:geometricPrecision;image-rendering:optimizeQuality;fill-rule:evenodd;clip-rule:evenodd" id="strokes-d14e1524-69c7-80b3-8004-8758c858518b" class="strokes">
              <g class="inner-stroke-shape">
                <defs>
                  <clipPath id="inner-stroke-render-6348-d14e1524-69c7-80b3-8004-8758c858518b-0">
                    <use href="#stroke-shape-render-6348-d14e1524-69c7-80b3-8004-8758c858518b-0">
                    </use>
                  </clipPath>
                  <path d="M-1551.564,7079.775C-1544.819,7079.317,-1539.476,7081.794,-1535.535,7087.206C-1529.876,7101.524,-1524.438,7115.933,-1519.220,7130.433C-1518.796,7130.939,-1518.371,7131.445,-1517.947,7131.951C-1503.346,7135.706,-1488.737,7139.463,-1474.118,7143.221C-1469.322,7145.708,-1466.312,7149.588,-1465.089,7154.863C-1464.069,7160.782,-1465.465,7166.019,-1469.277,7170.573C-1479.854,7179.819,-1490.566,7188.929,-1501.410,7197.906C-1503.208,7199.438,-1503.914,7201.385,-1503.529,7203.749C-1502.414,7218.317,-1501.344,7232.880,-1500.318,7247.438C-1502.846,7259.354,-1510.110,7264.278,-1522.108,7262.211C-1523.318,7261.818,-1524.480,7261.315,-1525.593,7260.700C-1537.494,7252.548,-1549.526,7244.596,-1561.689,7236.844C-1575.659,7242.686,-1589.577,7248.636,-1603.442,7254.693C-1616.529,7255.760,-1623.371,7249.736,-1623.967,7236.620C-1620.684,7223.364,-1617.315,7210.127,-1613.861,7196.910C-1613.219,7194.837,-1612.900,7192.721,-1612.904,7190.563C-1613.244,7189.863,-1613.585,7189.164,-1613.926,7188.464C-1623.168,7177.596,-1632.256,7166.619,-1641.189,7155.533C-1644.289,7149.928,-1644.587,7144.142,-1642.081,7138.172C-1639.934,7134.030,-1636.669,7131.167,-1632.287,7129.584C-1617.041,7128.297,-1601.796,7127.085,-1586.552,7125.949C-1585.094,7124.776,-1583.963,7123.334,-1583.159,7121.624C-1576.332,7109.713,-1569.400,7097.860,-1562.363,7086.065C-1559.487,7082.655,-1555.887,7080.558,-1551.564,7079.775ZZ" style="fill:none;fill-opacity:none;stroke-width:4;stroke:#000000;stroke-opacity:1" id="stroke-shape-render-6348-d14e1524-69c7-80b3-8004-8758c858518b-0">
                  </path>
                </defs>
                <use href="#stroke-shape-render-6348-d14e1524-69c7-80b3-8004-8758c858518b-0" clip-path="url(&#x27;#inner-stroke-render-6348-d14e1524-69c7-80b3-8004-8758c858518b-0&#x27;)">
                </use>
              </g>
            </g>
          </g>
          <g id="shape-d14e1524-69c7-80b3-8004-8758c858518c" style="opacity:1">
            <g class="fills" id="fills-d14e1524-69c7-80b3-8004-8758c858518c">
              <path d="M-1550.288,7092.748C-1548.835,7092.757,-1547.607,7093.266,-1546.603,7094.276C-1541.400,7108.579,-1536.083,7122.844,-1530.653,7137.069C-1528.443,7140.876,-1525.257,7143.500,-1521.093,7144.939C-1507.028,7148.318,-1492.999,7151.823,-1479.007,7155.454C-1477.338,7157.517,-1477.319,7159.596,-1478.950,7161.689C-1489.672,7171.056,-1500.527,7180.288,-1511.517,7189.385C-1515.124,7193.039,-1516.849,7197.443,-1516.692,7202.598C-1515.595,7217.159,-1514.525,7231.721,-1513.480,7246.286C-1513.925,7249.065,-1515.498,7250.200,-1518.200,7249.692C-1530.044,7241.925,-1541.816,7234.062,-1553.514,7226.104C-1558.093,7223.322,-1562.879,7222.903,-1567.874,7224.848C-1580.777,7230.654,-1593.735,7236.353,-1606.748,7241.945C-1609.492,7241.982,-1610.844,7240.592,-1610.804,7237.772C-1607.371,7223.848,-1603.811,7209.958,-1600.125,7196.102C-1598.881,7190.779,-1599.791,7185.876,-1602.857,7181.394C-1611.945,7170.417,-1621.033,7159.440,-1630.120,7148.463C-1631.495,7145.666,-1630.838,7143.513,-1628.148,7142.004C-1614.131,7141.152,-1600.118,7140.235,-1586.108,7139.251C-1581.551,7138.752,-1577.824,7136.734,-1574.927,7133.196C-1567.110,7120.129,-1559.397,7107.005,-1551.788,7093.822C-1551.292,7093.409,-1550.792,7093.051,-1550.288,7092.748ZZ" style="shape-rendering:geometricPrecision;text-rendering:geometricPrecision;image-rendering:optimizeQuality;fill-rule:evenodd;clip-rule:evenodd;fill:#d34a24">
              </path>
            </g>
          </g>
        </g>
        <g id="shape-d14e1524-69c7-80b3-8004-8758c8585183" style="fill:#000000" width="512" height="512" rx="0" ry="0">
          <g id="shape-d14e1524-69c7-80b3-8004-8758c858518d" style="opacity:0.99">
            <g class="fills" id="fills-d14e1524-69c7-80b3-8004-8758c858518d">
              <path d="M-1818.564,7059.775C-1811.819,7059.317,-1806.476,7061.794,-1802.535,7067.206C-1796.876,7081.524,-1791.438,7095.933,-1786.220,7110.433C-1785.796,7110.939,-1785.371,7111.445,-1784.947,7111.951C-1770.346,7115.706,-1755.737,7119.463,-1741.118,7123.221C-1736.322,7125.708,-1733.312,7129.588,-1732.089,7134.863C-1731.069,7140.782,-1732.465,7146.019,-1736.277,7150.573C-1746.854,7159.819,-1757.566,7168.929,-1768.410,7177.906C-1770.208,7179.438,-1770.914,7181.385,-1770.529,7183.749C-1769.414,7198.317,-1768.344,7212.880,-1767.318,7227.438C-1769.846,7239.354,-1777.110,7244.278,-1789.108,7242.211C-1790.318,7241.818,-1791.480,7241.315,-1792.593,7240.700C-1804.494,7232.548,-1816.526,7224.596,-1828.689,7216.844C-1842.659,7222.686,-1856.577,7228.636,-1870.442,7234.693C-1883.529,7235.760,-1890.371,7229.736,-1890.967,7216.620C-1887.684,7203.364,-1884.315,7190.127,-1880.861,7176.910C-1880.219,7174.837,-1879.900,7172.721,-1879.904,7170.563C-1880.244,7169.863,-1880.585,7169.164,-1880.926,7168.464C-1890.168,7157.596,-1899.256,7146.619,-1908.189,7135.533C-1911.289,7129.928,-1911.587,7124.142,-1909.081,7118.172C-1906.934,7114.030,-1903.669,7111.167,-1899.287,7109.584C-1884.041,7108.297,-1868.796,7107.085,-1853.552,7105.949C-1852.094,7104.776,-1850.963,7103.334,-1850.159,7101.624C-1843.332,7089.713,-1836.400,7077.860,-1829.363,7066.065C-1826.487,7062.655,-1822.887,7060.558,-1818.564,7059.775ZZ" style="shape-rendering:geometricPrecision;text-rendering:geometricPrecision;image-rendering:optimizeQuality;fill-rule:evenodd;clip-rule:evenodd;fill:#d34a24">
              </path>
            </g>
            <g style="shape-rendering:geometricPrecision;text-rendering:geometricPrecision;image-rendering:optimizeQuality;fill-rule:evenodd;clip-rule:evenodd" id="strokes-d14e1524-69c7-80b3-8004-8758c858518d" class="strokes">
              <g class="inner-stroke-shape">
                <defs>
                  <clipPath id="inner-stroke-render-6351-d14e1524-69c7-80b3-8004-8758c858518d-0">
                    <use href="#stroke-shape-render-6351-d14e1524-69c7-80b3-8004-8758c858518d-0">
                    </use>
                  </clipPath>
                  <path d="M-1818.564,7059.775C-1811.819,7059.317,-1806.476,7061.794,-1802.535,7067.206C-1796.876,7081.524,-1791.438,7095.933,-1786.220,7110.433C-1785.796,7110.939,-1785.371,7111.445,-1784.947,7111.951C-1770.346,7115.706,-1755.737,7119.463,-1741.118,7123.221C-1736.322,7125.708,-1733.312,7129.588,-1732.089,7134.863C-1731.069,7140.782,-1732.465,7146.019,-1736.277,7150.573C-1746.854,7159.819,-1757.566,7168.929,-1768.410,7177.906C-1770.208,7179.438,-1770.914,7181.385,-1770.529,7183.749C-1769.414,7198.317,-1768.344,7212.880,-1767.318,7227.438C-1769.846,7239.354,-1777.110,7244.278,-1789.108,7242.211C-1790.318,7241.818,-1791.480,7241.315,-1792.593,7240.700C-1804.494,7232.548,-1816.526,7224.596,-1828.689,7216.844C-1842.659,7222.686,-1856.577,7228.636,-1870.442,7234.693C-1883.529,7235.760,-1890.371,7229.736,-1890.967,7216.620C-1887.684,7203.364,-1884.315,7190.127,-1880.861,7176.910C-1880.219,7174.837,-1879.900,7172.721,-1879.904,7170.563C-1880.244,7169.863,-1880.585,7169.164,-1880.926,7168.464C-1890.168,7157.596,-1899.256,7146.619,-1908.189,7135.533C-1911.289,7129.928,-1911.587,7124.142,-1909.081,7118.172C-1906.934,7114.030,-1903.669,7111.167,-1899.287,7109.584C-1884.041,7108.297,-1868.796,7107.085,-1853.552,7105.949C-1852.094,7104.776,-1850.963,7103.334,-1850.159,7101.624C-1843.332,7089.713,-1836.400,7077.860,-1829.363,7066.065C-1826.487,7062.655,-1822.887,7060.558,-1818.564,7059.775ZZ" style="fill:none;fill-opacity:none;stroke-width:4;stroke:#000000;stroke-opacity:1" id="stroke-shape-render-6351-d14e1524-69c7-80b3-8004-8758c858518d-0">
                  </path>
                </defs>
                <use href="#stroke-shape-render-6351-d14e1524-69c7-80b3-8004-8758c858518d-0" clip-path="url(&#x27;#inner-stroke-render-6351-d14e1524-69c7-80b3-8004-8758c858518d-0&#x27;)">
                </use>
              </g>
            </g>
          </g>
          <g id="shape-d14e1524-69c7-80b3-8004-8758c858518e" style="opacity:1">
            <g class="fills" id="fills-d14e1524-69c7-80b3-8004-8758c858518e">
              <path d="M-1817.288,7072.748C-1815.835,7072.757,-1814.607,7073.266,-1813.603,7074.276C-1808.400,7088.579,-1803.083,7102.844,-1797.653,7117.069C-1795.443,7120.876,-1792.257,7123.500,-1788.093,7124.939C-1774.028,7128.318,-1759.999,7131.823,-1746.007,7135.454C-1744.338,7137.517,-1744.319,7139.596,-1745.950,7141.689C-1756.672,7151.056,-1767.527,7160.288,-1778.517,7169.385C-1782.124,7173.039,-1783.849,7177.443,-1783.692,7182.598C-1782.595,7197.159,-1781.525,7211.721,-1780.480,7226.286C-1780.925,7229.065,-1782.498,7230.200,-1785.200,7229.692C-1797.044,7221.925,-1808.816,7214.062,-1820.514,7206.104C-1825.093,7203.322,-1829.879,7202.903,-1834.874,7204.848C-1847.777,7210.654,-1860.735,7216.353,-1873.748,7221.945C-1876.492,7221.982,-1877.844,7220.592,-1877.804,7217.772C-1874.371,7203.848,-1870.811,7189.958,-1867.125,7176.102C-1865.881,7170.779,-1866.791,7165.876,-1869.857,7161.394C-1878.945,7150.417,-1888.033,7139.440,-1897.120,7128.463C-1898.495,7125.666,-1897.838,7123.513,-1895.148,7122.004C-1881.131,7121.152,-1867.118,7120.235,-1853.108,7119.251C-1848.551,7118.752,-1844.824,7116.734,-1841.927,7113.196C-1834.110,7100.129,-1826.397,7087.005,-1818.788,7073.822C-1818.292,7073.409,-1817.792,7073.051,-1817.288,7072.748ZZ" style="shape-rendering:geometricPrecision;text-rendering:geometricPrecision;image-rendering:optimizeQuality;fill-rule:evenodd;clip-rule:evenodd;fill:#d34a24">
              </path>
            </g>
          </g>
        </g>
        <g id="shape-d14e1524-69c7-80b3-8004-8758c8585184" style="fill:#000000" width="512" height="512" rx="0" ry="0">
          <g id="shape-d14e1524-69c7-80b3-8004-8758c858518f" style="opacity:0.99">
            <g class="fills" id="fills-d14e1524-69c7-80b3-8004-8758c858518f">
              <path d="M-1888.081,6812.257C-1881.336,6811.799,-1875.993,6814.276,-1872.051,6819.688C-1866.393,6834.006,-1860.955,6848.415,-1855.737,6862.915C-1855.312,6863.422,-1854.888,6863.927,-1854.463,6864.434C-1839.863,6868.188,-1825.253,6871.945,-1810.635,6875.704C-1805.838,6878.190,-1802.829,6882.071,-1801.606,6887.345C-1800.586,6893.264,-1801.982,6898.501,-1805.794,6903.056C-1816.371,6912.301,-1827.082,6921.412,-1837.927,6930.388C-1839.725,6931.920,-1840.431,6933.868,-1840.046,6936.232C-1838.931,6950.800,-1837.861,6965.363,-1836.835,6979.920C-1839.363,6991.836,-1846.626,6996.760,-1858.625,6994.693C-1859.835,6994.301,-1860.996,6993.797,-1862.110,6993.183C-1874.011,6985.031,-1886.043,6977.078,-1898.205,6969.326C-1912.176,6975.168,-1926.093,6981.118,-1939.959,6987.176C-1953.046,6988.243,-1959.887,6982.218,-1960.483,6969.102C-1957.200,6955.846,-1953.832,6942.609,-1950.378,6929.393C-1949.736,6927.319,-1949.417,6925.203,-1949.420,6923.046C-1949.761,6922.346,-1950.102,6921.646,-1950.442,6920.947C-1959.685,6910.079,-1968.773,6899.102,-1977.705,6888.015C-1980.806,6882.411,-1981.103,6876.624,-1978.598,6870.655C-1976.451,6866.512,-1973.186,6863.650,-1968.803,6862.067C-1953.558,6860.779,-1938.313,6859.567,-1923.068,6858.431C-1921.611,6857.258,-1920.480,6855.817,-1919.676,6854.106C-1912.848,6842.195,-1905.917,6830.342,-1898.880,6818.547C-1896.003,6815.137,-1892.404,6813.041,-1888.081,6812.257ZZ" style="shape-rendering:geometricPrecision;text-rendering:geometricPrecision;image-rendering:optimizeQuality;fill-rule:evenodd;clip-rule:evenodd;fill:#d34a24">
              </path>
            </g>
            <g style="shape-rendering:geometricPrecision;text-rendering:geometricPrecision;image-rendering:optimizeQuality;fill-rule:evenodd;clip-rule:evenodd" id="strokes-d14e1524-69c7-80b3-8004-8758c858518f" class="strokes">
              <g class="inner-stroke-shape">
                <defs>
                  <clipPath id="inner-stroke-render-6354-d14e1524-69c7-80b3-8004-8758c858518f-0">
                    <use href="#stroke-shape-render-6354-d14e1524-69c7-80b3-8004-8758c858518f-0">
                    </use>
                  </clipPath>
                  <path d="M-1888.081,6812.257C-1881.336,6811.799,-1875.993,6814.276,-1872.051,6819.688C-1866.393,6834.006,-1860.955,6848.415,-1855.737,6862.915C-1855.312,6863.422,-1854.888,6863.927,-1854.463,6864.434C-1839.863,6868.188,-1825.253,6871.945,-1810.635,6875.704C-1805.838,6878.190,-1802.829,6882.071,-1801.606,6887.345C-1800.586,6893.264,-1801.982,6898.501,-1805.794,6903.056C-1816.371,6912.301,-1827.082,6921.412,-1837.927,6930.388C-1839.725,6931.920,-1840.431,6933.868,-1840.046,6936.232C-1838.931,6950.800,-1837.861,6965.363,-1836.835,6979.920C-1839.363,6991.836,-1846.626,6996.760,-1858.625,6994.693C-1859.835,6994.301,-1860.996,6993.797,-1862.110,6993.183C-1874.011,6985.031,-1886.043,6977.078,-1898.205,6969.326C-1912.176,6975.168,-1926.093,6981.118,-1939.959,6987.176C-1953.046,6988.243,-1959.887,6982.218,-1960.483,6969.102C-1957.200,6955.846,-1953.832,6942.609,-1950.378,6929.393C-1949.736,6927.319,-1949.417,6925.203,-1949.420,6923.046C-1949.761,6922.346,-1950.102,6921.646,-1950.442,6920.947C-1959.685,6910.079,-1968.773,6899.102,-1977.705,6888.015C-1980.806,6882.411,-1981.103,6876.624,-1978.598,6870.655C-1976.451,6866.512,-1973.186,6863.650,-1968.803,6862.067C-1953.558,6860.779,-1938.313,6859.567,-1923.068,6858.431C-1921.611,6857.258,-1920.480,6855.817,-1919.676,6854.106C-1912.848,6842.195,-1905.917,6830.342,-1898.880,6818.547C-1896.003,6815.137,-1892.404,6813.041,-1888.081,6812.257ZZ" style="fill:none;fill-opacity:none;stroke-width:4;stroke:#000000;stroke-opacity:1" id="stroke-shape-render-6354-d14e1524-69c7-80b3-8004-8758c858518f-0">
                  </path>
                </defs>
                <use href="#stroke-shape-render-6354-d14e1524-69c7-80b3-8004-8758c858518f-0" clip-path="url(&#x27;#inner-stroke-render-6354-d14e1524-69c7-80b3-8004-8758c858518f-0&#x27;)">
                </use>
              </g>
            </g>
          </g>
          <g id="shape-d14e1524-69c7-80b3-8004-8758c8585190" style="opacity:1">
            <g class="fills" id="fills-d14e1524-69c7-80b3-8004-8758c8585190">
              <path d="M-1886.804,6825.230C-1885.352,6825.239,-1884.124,6825.748,-1883.120,6826.758C-1877.916,6841.062,-1872.599,6855.326,-1867.170,6869.552C-1864.960,6873.359,-1861.773,6875.982,-1857.609,6877.422C-1843.545,6880.800,-1829.516,6884.305,-1815.524,6887.936C-1813.855,6890.000,-1813.836,6892.078,-1815.466,6894.171C-1826.188,6903.538,-1837.044,6912.770,-1848.033,6921.868C-1851.640,6925.521,-1853.366,6929.925,-1853.209,6935.080C-1852.112,6949.641,-1851.042,6964.204,-1849.997,6978.769C-1850.442,6981.547,-1852.015,6982.682,-1854.716,6982.174C-1866.561,6974.407,-1878.332,6966.545,-1890.031,6958.586C-1894.610,6955.804,-1899.396,6955.385,-1904.390,6957.330C-1917.294,6963.136,-1930.252,6968.835,-1943.265,6974.427C-1946.009,6974.465,-1947.360,6973.074,-1947.321,6970.254C-1943.887,6956.330,-1940.328,6942.440,-1936.642,6928.585C-1935.397,6923.262,-1936.308,6918.359,-1939.374,6913.877C-1948.462,6902.900,-1957.549,6891.922,-1966.637,6880.945C-1968.012,6878.148,-1967.355,6875.995,-1964.665,6874.486C-1950.648,6873.635,-1936.635,6872.717,-1922.625,6871.734C-1918.068,6871.234,-1914.341,6869.216,-1911.444,6865.678C-1903.626,6852.612,-1895.913,6839.487,-1888.305,6826.305C-1887.809,6825.891,-1887.308,6825.533,-1886.804,6825.230ZZ" style="shape-rendering:geometricPrecision;text-rendering:geometricPrecision;image-rendering:optimizeQuality;fill-rule:evenodd;clip-rule:evenodd;fill:#d34a24">
              </path>
            </g>
          </g>
        </g>
        <g id="shape-d14e1524-69c7-80b3-8004-8758d6e21a82" style="fill:#000000" width="512" height="512" rx="0" ry="0">
          <g id="shape-d14e1524-69c7-80b3-8004-8758d6e21a83" style="opacity:0.99">
            <g class="fills" id="fills-d14e1524-69c7-80b3-8004-8758d6e21a83">
              <path d="M-1679.564,6863.775C-1672.819,6863.317,-1667.476,6865.794,-1663.535,6871.206C-1657.876,6885.524,-1652.438,6899.933,-1647.220,6914.433C-1646.796,6914.939,-1646.371,6915.445,-1645.947,6915.951C-1631.346,6919.706,-1616.737,6923.463,-1602.118,6927.221C-1597.322,6929.708,-1594.312,6933.588,-1593.089,6938.863C-1592.069,6944.782,-1593.465,6950.019,-1597.277,6954.573C-1607.854,6963.819,-1618.566,6972.929,-1629.410,6981.906C-1631.208,6983.438,-1631.914,6985.385,-1631.529,6987.749C-1630.414,7002.317,-1629.344,7016.880,-1628.318,7031.438C-1630.846,7043.354,-1638.110,7048.278,-1650.108,7046.211C-1651.318,7045.818,-1652.480,7045.315,-1653.593,7044.700C-1665.494,7036.548,-1677.526,7028.596,-1689.689,7020.844C-1703.659,7026.686,-1717.577,7032.636,-1731.442,7038.693C-1744.529,7039.760,-1751.371,7033.736,-1751.967,7020.620C-1748.684,7007.364,-1745.315,6994.127,-1741.861,6980.910C-1741.219,6978.837,-1740.900,6976.721,-1740.904,6974.563C-1741.244,6973.863,-1741.585,6973.164,-1741.926,6972.464C-1751.168,6961.596,-1760.256,6950.619,-1769.189,6939.533C-1772.289,6933.928,-1772.587,6928.142,-1770.081,6922.172C-1767.934,6918.030,-1764.669,6915.167,-1760.287,6913.584C-1745.041,6912.297,-1729.796,6911.085,-1714.552,6909.949C-1713.094,6908.776,-1711.963,6907.334,-1711.159,6905.624C-1704.332,6893.713,-1697.400,6881.860,-1690.363,6870.065C-1687.487,6866.655,-1683.887,6864.558,-1679.564,6863.775ZZ" style="shape-rendering:geometricPrecision;text-rendering:geometricPrecision;image-rendering:optimizeQuality;fill-rule:evenodd;clip-rule:evenodd;fill:#d34a24">
              </path>
            </g>
            <g style="shape-rendering:geometricPrecision;text-rendering:geometricPrecision;image-rendering:optimizeQuality;fill-rule:evenodd;clip-rule:evenodd" id="strokes-d14e1524-69c7-80b3-8004-8758d6e21a83" class="strokes">
              <g class="inner-stroke-shape">
                <defs>
                  <clipPath id="inner-stroke-render-6357-d14e1524-69c7-80b3-8004-8758d6e21a83-0">
                    <use href="#stroke-shape-render-6357-d14e1524-69c7-80b3-8004-8758d6e21a83-0">
                    </use>
                  </clipPath>
                  <path d="M-1679.564,6863.775C-1672.819,6863.317,-1667.476,6865.794,-1663.535,6871.206C-1657.876,6885.524,-1652.438,6899.933,-1647.220,6914.433C-1646.796,6914.939,-1646.371,6915.445,-1645.947,6915.951C-1631.346,6919.706,-1616.737,6923.463,-1602.118,6927.221C-1597.322,6929.708,-1594.312,6933.588,-1593.089,6938.863C-1592.069,6944.782,-1593.465,6950.019,-1597.277,6954.573C-1607.854,6963.819,-1618.566,6972.929,-1629.410,6981.906C-1631.208,6983.438,-1631.914,6985.385,-1631.529,6987.749C-1630.414,7002.317,-1629.344,7016.880,-1628.318,7031.438C-1630.846,7043.354,-1638.110,7048.278,-1650.108,7046.211C-1651.318,7045.818,-1652.480,7045.315,-1653.593,7044.700C-1665.494,7036.548,-1677.526,7028.596,-1689.689,7020.844C-1703.659,7026.686,-1717.577,7032.636,-1731.442,7038.693C-1744.529,7039.760,-1751.371,7033.736,-1751.967,7020.620C-1748.684,7007.364,-1745.315,6994.127,-1741.861,6980.910C-1741.219,6978.837,-1740.900,6976.721,-1740.904,6974.563C-1741.244,6973.863,-1741.585,6973.164,-1741.926,6972.464C-1751.168,6961.596,-1760.256,6950.619,-1769.189,6939.533C-1772.289,6933.928,-1772.587,6928.142,-1770.081,6922.172C-1767.934,6918.030,-1764.669,6915.167,-1760.287,6913.584C-1745.041,6912.297,-1729.796,6911.085,-1714.552,6909.949C-1713.094,6908.776,-1711.963,6907.334,-1711.159,6905.624C-1704.332,6893.713,-1697.400,6881.860,-1690.363,6870.065C-1687.487,6866.655,-1683.887,6864.558,-1679.564,6863.775ZZ" style="fill:none;fill-opacity:none;stroke-width:4;stroke:#000000;stroke-opacity:1" id="stroke-shape-render-6357-d14e1524-69c7-80b3-8004-8758d6e21a83-0">
                  </path>
                </defs>
                <use href="#stroke-shape-render-6357-d14e1524-69c7-80b3-8004-8758d6e21a83-0" clip-path="url(&#x27;#inner-stroke-render-6357-d14e1524-69c7-80b3-8004-8758d6e21a83-0&#x27;)">
                </use>
              </g>
            </g>
          </g>
          <g id="shape-d14e1524-69c7-80b3-8004-8758d6e21a84" style="opacity:1">
            <g class="fills" id="fills-d14e1524-69c7-80b3-8004-8758d6e21a84">
              <path d="M-1678.288,6876.748C-1676.835,6876.757,-1675.607,6877.266,-1674.603,6878.276C-1669.400,6892.579,-1664.083,6906.844,-1658.653,6921.069C-1656.443,6924.876,-1653.257,6927.500,-1649.093,6928.939C-1635.028,6932.318,-1620.999,6935.823,-1607.007,6939.454C-1605.338,6941.517,-1605.319,6943.596,-1606.950,6945.689C-1617.672,6955.056,-1628.527,6964.288,-1639.517,6973.385C-1643.124,6977.039,-1644.849,6981.443,-1644.692,6986.598C-1643.595,7001.159,-1642.525,7015.721,-1641.480,7030.286C-1641.925,7033.065,-1643.498,7034.200,-1646.200,7033.692C-1658.044,7025.925,-1669.816,7018.062,-1681.514,7010.104C-1686.093,7007.322,-1690.879,7006.903,-1695.874,7008.848C-1708.777,7014.654,-1721.735,7020.353,-1734.748,7025.945C-1737.492,7025.982,-1738.844,7024.592,-1738.804,7021.772C-1735.371,7007.848,-1731.811,6993.958,-1728.125,6980.102C-1726.881,6974.779,-1727.791,6969.876,-1730.857,6965.394C-1739.945,6954.417,-1749.033,6943.440,-1758.120,6932.463C-1759.495,6929.666,-1758.838,6927.513,-1756.148,6926.004C-1742.131,6925.152,-1728.118,6924.235,-1714.108,6923.251C-1709.551,6922.752,-1705.824,6920.734,-1702.927,6917.196C-1695.110,6904.129,-1687.397,6891.005,-1679.788,6877.822C-1679.292,6877.409,-1678.792,6877.051,-1678.288,6876.748ZZ" style="shape-rendering:geometricPrecision;text-rendering:geometricPrecision;image-rendering:optimizeQuality;fill-rule:evenodd;clip-rule:evenodd;fill:#d34a24">
              </path>
            </g>
          </g>
        </g>
        <g id="shape-d14e1524-69c7-80b3-8004-8758c8585185" style="opacity:0.8">
          <g class="fills" id="fills-d14e1524-69c7-80b3-8004-8758c8585185">
            <path d="M-1868.000,6749.000C-1896.409,6729.394,-1889.500,6687.000,-1889.500,6687.000C-1889.500,6687.000,-1891.095,6654.746,-1853.000,6618.000C-1815.761,6582.079,-1773.000,6578.000,-1773.000,6578.000C-1773.000,6578.000,-1735.129,6575.901,-1708.000,6602.000C-1682.462,6626.568,-1690.000,6656.000,-1690.000,6656.000C-1690.000,6656.000,-1692.364,6686.318,-1723.000,6721.000C-1763.030,6766.318,-1800.000,6766.500,-1800.000,6766.500C-1800.000,6766.500,-1832.500,6773.500,-1868.000,6749.000Z" style="fill:#ffffff;fill-opacity:1">
            </path>
          </g>
          <g id="strokes-d14e1524-69c7-80b3-8004-8758c8585185" class="strokes">
            <g class="inner-stroke-shape">
              <defs>
                <clipPath id="inner-stroke-render-6359-d14e1524-69c7-80b3-8004-8758c8585185-0">
                  <use href="#stroke-shape-render-6359-d14e1524-69c7-80b3-8004-8758c8585185-0">
                  </use>
                </clipPath>
                <path d="M-1868.000,6749.000C-1896.409,6729.394,-1889.500,6687.000,-1889.500,6687.000C-1889.500,6687.000,-1891.095,6654.746,-1853.000,6618.000C-1815.761,6582.079,-1773.000,6578.000,-1773.000,6578.000C-1773.000,6578.000,-1735.129,6575.901,-1708.000,6602.000C-1682.462,6626.568,-1690.000,6656.000,-1690.000,6656.000C-1690.000,6656.000,-1692.364,6686.318,-1723.000,6721.000C-1763.030,6766.318,-1800.000,6766.500,-1800.000,6766.500C-1800.000,6766.500,-1832.500,6773.500,-1868.000,6749.000Z" style="fill:none;fill-opacity:none;stroke-width:4;stroke:#000000;stroke-opacity:1" id="stroke-shape-render-6359-d14e1524-69c7-80b3-8004-8758c8585185-0">
                </path>
              </defs>
              <use href="#stroke-shape-render-6359-d14e1524-69c7-80b3-8004-8758c8585185-0" clip-path="url(&#x27;#inner-stroke-render-6359-d14e1524-69c7-80b3-8004-8758c8585185-0&#x27;)">
              </use>
            </g>
          </g>
        </g>
        <g id="shape-d14e1524-69c7-80b3-8004-8758c8585186">
          <g class="fills" id="fills-d14e1524-69c7-80b3-8004-8758c8585186">
            <path d="M-1952.000,6756.000C-1960.840,6749.281,-1960.000,6739.000,-1960.000,6739.000C-1960.000,6739.000,-1961.764,6727.554,-1952.000,6715.000C-1943.097,6703.554,-1932.000,6703.000,-1932.000,6703.000C-1932.000,6703.000,-1923.781,6700.808,-1917.000,6707.000C-1908.448,6714.808,-1909.000,6724.000,-1909.000,6724.000C-1909.000,6724.000,-1907.523,6733.914,-1916.000,6745.000C-1924.856,6756.581,-1935.000,6758.000,-1935.000,6758.000C-1935.000,6758.000,-1944.174,6761.948,-1952.000,6756.000Z" style="fill:#ffffff;fill-opacity:1">
            </path>
          </g>
          <g id="strokes-d14e1524-69c7-80b3-8004-8758c8585186" class="strokes">
            <g class="inner-stroke-shape">
              <defs>
                <clipPath id="inner-stroke-render-6360-d14e1524-69c7-80b3-8004-8758c8585186-0">
                  <use href="#stroke-shape-render-6360-d14e1524-69c7-80b3-8004-8758c8585186-0">
                  </use>
                </clipPath>
                <path d="M-1952.000,6756.000C-1960.840,6749.281,-1960.000,6739.000,-1960.000,6739.000C-1960.000,6739.000,-1961.764,6727.554,-1952.000,6715.000C-1943.097,6703.554,-1932.000,6703.000,-1932.000,6703.000C-1932.000,6703.000,-1923.781,6700.808,-1917.000,6707.000C-1908.448,6714.808,-1909.000,6724.000,-1909.000,6724.000C-1909.000,6724.000,-1907.523,6733.914,-1916.000,6745.000C-1924.856,6756.581,-1935.000,6758.000,-1935.000,6758.000C-1935.000,6758.000,-1944.174,6761.948,-1952.000,6756.000Z" style="fill:none;fill-opacity:none;stroke-width:4;stroke:#000000;stroke-opacity:1" id="stroke-shape-render-6360-d14e1524-69c7-80b3-8004-8758c8585186-0">
                </path>
              </defs>
              <use href="#stroke-shape-render-6360-d14e1524-69c7-80b3-8004-8758c8585186-0" clip-path="url(&#x27;#inner-stroke-render-6360-d14e1524-69c7-80b3-8004-8758c8585186-0&#x27;)">
              </use>
            </g>
          </g>
        </g>
      </g>
    </g>
  </g>
</svg>