<svg width="931" xmlns="http://www.w3.org/2000/svg" height="927" id="screenshot-d14e1524-69c7-80b3-8004-8758c858517d" viewBox="-2147 6496 931 927" style="-webkit-print-color-adjust::exact" xmlns:xlink="http://www.w3.org/1999/xlink" fill="none" version="1.1">
  <g id="shape-d14e1524-69c7-80b3-8004-8758c858517d">
    <g fill="none">
      <g class="fills" id="fills-d14e1524-69c7-80b3-8004-8758c858517d">
        <rect rx="0" ry="0" x="-2147" y="6496" width="926" height="927" transform="matrix(1.000000, 0.000000, 0.000000, 1.000000, 0.000000, 0.000000)" class="frame-background">
        </rect>
      </g>
      <g class="frame-children">
        <g id="shape-d14e1524-69c7-80b3-8004-8758c858517e" style="opacity:1">
          <g class="fills" id="fills-d14e1524-69c7-80b3-8004-8758c858517e">
            <ellipse cx="-1679" cy="6959.5" rx="463" ry="463.5" transform="matrix(1.000000, 0.000000, 0.000000, 1.000000, 0.000000, 0.000000)" style="fill:#140d0c;fill-opacity:1">
            </ellipse>
          </g>
        </g>
        <g id="shape-d14e1524-69c7-80b3-8004-8758c858517f" style="opacity:1">
          <g class="fills" id="fills-d14e1524-69c7-80b3-8004-8758c858517f">
            <ellipse cx="-1681.0873636457727" cy="6956.912636354227" rx="435.5" ry="435.5" transform="matrix(0.999948, -0.010184, 0.010184, 0.999948, -70.937811, -16.759751)" style="fill:#fd8f35;fill-opacity:1">
            </ellipse>
          </g>
        </g>
        <g id="shape-d14e1524-69c7-80b3-8004-8758c8585180" style="fill:#000000" width="512" height="512" rx="0" ry="0">
          <g id="shape-d14e1524-69c7-80b3-8004-8758c8585187" style="opacity:0.99">
            <g class="fills" id="fills-d14e1524-69c7-80b3-8004-8758c8585187">
              <path d="M-1425.564,6842.775C-1418.819,6842.317,-1413.476,6844.794,-1409.535,6850.206C-1403.876,6864.524,-1398.438,6878.933,-1393.220,6893.433C-1392.796,6893.939,-1392.371,6894.445,-1391.947,6894.951C-1377.346,6898.706,-1362.737,6902.463,-1348.118,6906.221C-1343.322,6908.708,-1340.312,6912.588,-1339.089,6917.863C-1338.069,6923.782,-1339.465,6929.019,-1343.277,6933.573C-1353.854,6942.819,-1364.566,6951.929,-1375.410,6960.906C-1377.208,6962.438,-1377.914,6964.385,-1377.529,6966.749C-1376.414,6981.317,-1375.344,6995.880,-1374.318,7010.438C-1376.846,7022.354,-1384.110,7027.278,-1396.108,7025.211C-1397.318,7024.818,-1398.480,7024.315,-1399.593,7023.700C-1411.494,7015.548,-1423.526,7007.596,-1435.689,6999.844C-1449.659,7005.686,-1463.577,7011.636,-1477.442,7017.693C-1490.529,7018.760,-1497.371,7012.736,-1497.967,6999.620C-1494.684,6986.364,-1491.315,6973.127,-1487.861,6959.910C-1487.219,6957.837,-1486.900,6955.721,-1486.904,6953.563C-1487.244,6952.863,-1487.585,6952.164,-1487.926,6951.464C-1497.168,6940.596,-1506.256,6929.619,-1515.189,6918.533C-1518.289,6912.928,-1518.587,6907.142,-1516.081,6901.172C-1513.934,6897.030,-1510.669,6894.167,-1506.287,6892.584C-1491.041,6891.297,-1475.796,6890.085,-1460.552,6888.949C-1459.094,6887.776,-1457.963,6886.334,-1457.159,6884.624C-1450.332,6872.713,-1443.400,6860.860,-1436.363,6849.065C-1433.487,6845.655,-1429.887,6843.558,-1425.564,6842.775ZZ" style="shape-rendering:geometricPrecision;text-rendering:geometricPrecision;image-rendering:optimizeQuality;fill-rule:evenodd;clip-rule:evenodd;fill:#d34a24">
              </path>
            </g>
            <g style="shape-rendering:geometricPrecision;text-rendering:geometricPrecision;image-rendering:optimizeQuality;fill-rule:evenodd;clip-rule:evenodd" id="strokes-d14e1524-69c7-80b3-8004-8758c8585187" class="strokes">
              <g class="inner-stroke-shape">
                <defs>
                  <clipPath id="inner-stroke-render-1082-d14e1524-69c7-80b3-8004-8758c8585187-0">
                    <use href="#stroke-shape-render-1082-d14e1524-69c7-80b3-8004-8758c8585187-0">
                    </use>
                  </clipPath>
                  <path d="M-1425.564,6842.775C-1418.819,6842.317,-1413.476,6844.794,-1409.535,6850.206C-1403.876,6864.524,-1398.438,6878.933,-1393.220,6893.433C-1392.796,6893.939,-1392.371,6894.445,-1391.947,6894.951C-1377.346,6898.706,-1362.737,6902.463,-1348.118,6906.221C-1343.322,6908.708,-1340.312,6912.588,-1339.089,6917.863C-1338.069,6923.782,-1339.465,6929.019,-1343.277,6933.573C-1353.854,6942.819,-1364.566,6951.929,-1375.410,6960.906C-1377.208,6962.438,-1377.914,6964.385,-1377.529,6966.749C-1376.414,6981.317,-1375.344,6995.880,-1374.318,7010.438C-1376.846,7022.354,-1384.110,7027.278,-1396.108,7025.211C-1397.318,7024.818,-1398.480,7024.315,-1399.593,7023.700C-1411.494,7015.548,-1423.526,7007.596,-1435.689,6999.844C-1449.659,7005.686,-1463.577,7011.636,-1477.442,7017.693C-1490.529,7018.760,-1497.371,7012.736,-1497.967,6999.620C-1494.684,6986.364,-1491.315,6973.127,-1487.861,6959.910C-1487.219,6957.837,-1486.900,6955.721,-1486.904,6953.563C-1487.244,6952.863,-1487.585,6952.164,-1487.926,6951.464C-1497.168,6940.596,-1506.256,6929.619,-1515.189,6918.533C-1518.289,6912.928,-1518.587,6907.142,-1516.081,6901.172C-1513.934,6897.030,-1510.669,6894.167,-1506.287,6892.584C-1491.041,6891.297,-1475.796,6890.085,-1460.552,6888.949C-1459.094,6887.776,-1457.963,6886.334,-1457.159,6884.624C-1450.332,6872.713,-1443.400,6860.860,-1436.363,6849.065C-1433.487,6845.655,-1429.887,6843.558,-1425.564,6842.775ZZ" style="fill:none;fill-opacity:none;stroke-width:4;stroke:#000000;stroke-opacity:1" id="stroke-shape-render-1082-d14e1524-69c7-80b3-8004-8758c8585187-0">
                  </path>
                </defs>
                <use href="#stroke-shape-render-1082-d14e1524-69c7-80b3-8004-8758c8585187-0" clip-path="url(&#x27;#inner-stroke-render-1082-d14e1524-69c7-80b3-8004-8758c8585187-0&#x27;)">
                </use>
              </g>
            </g>
          </g>
          <g id="shape-d14e1524-69c7-80b3-8004-8758c8585188" style="opacity:1">
            <g class="fills" id="fills-d14e1524-69c7-80b3-8004-8758c8585188">
              <path d="M-1424.288,6855.748C-1422.835,6855.757,-1421.607,6856.266,-1420.603,6857.276C-1415.400,6871.579,-1410.083,6885.844,-1404.653,6900.069C-1402.443,6903.876,-1399.257,6906.500,-1395.093,6907.939C-1381.028,6911.318,-1366.999,6914.823,-1353.007,6918.454C-1351.338,6920.517,-1351.319,6922.596,-1352.950,6924.689C-1363.672,6934.056,-1374.527,6943.288,-1385.517,6952.385C-1389.124,6956.039,-1390.849,6960.443,-1390.692,6965.598C-1389.595,6980.159,-1388.525,6994.721,-1387.480,7009.286C-1387.925,7012.065,-1389.498,7013.200,-1392.200,7012.692C-1404.044,7004.925,-1415.816,6997.062,-1427.514,6989.104C-1432.093,6986.322,-1436.879,6985.903,-1441.874,6987.848C-1454.777,6993.654,-1467.735,6999.353,-1480.748,7004.945C-1483.492,7004.982,-1484.844,7003.592,-1484.804,7000.772C-1481.371,6986.848,-1477.811,6972.958,-1474.125,6959.102C-1472.881,6953.779,-1473.791,6948.876,-1476.857,6944.394C-1485.945,6933.417,-1495.033,6922.440,-1504.120,6911.463C-1505.495,6908.666,-1504.838,6906.513,-1502.148,6905.004C-1488.131,6904.152,-1474.118,6903.235,-1460.108,6902.251C-1455.551,6901.752,-1451.824,6899.734,-1448.927,6896.196C-1441.110,6883.129,-1433.397,6870.005,-1425.788,6856.822C-1425.292,6856.409,-1424.792,6856.051,-1424.288,6855.748ZZ" style="shape-rendering:geometricPrecision;text-rendering:geometricPrecision;image-rendering:optimizeQuality;fill-rule:evenodd;clip-rule:evenodd;fill:#d34a24">
              </path>
            </g>
          </g>
        </g>
        <g id="shape-d14e1524-69c7-80b3-8004-8758c8585181" style="fill:#000000" width="512" height="512" rx="0" ry="0">
          <g id="shape-d14e1524-69c7-80b3-8004-8758c8585189" style="opacity:0.99">
            <g class="fills" id="fills-d14e1524-69c7-80b3-8004-8758c8585189">
              <path d="M-1754.564,6620.775C-1747.819,6620.317,-1742.476,6622.794,-1738.535,6628.206C-1732.876,6642.524,-1727.438,6656.933,-1722.220,6671.433C-1721.796,6671.939,-1721.371,6672.445,-1720.947,6672.951C-1706.346,6676.706,-1691.737,6680.463,-1677.118,6684.221C-1672.322,6686.708,-1669.312,6690.588,-1668.089,6695.863C-1667.069,6701.782,-1668.465,6707.019,-1672.277,6711.573C-1682.854,6720.819,-1693.566,6729.929,-1704.410,6738.906C-1706.208,6740.438,-1706.914,6742.385,-1706.529,6744.749C-1705.414,6759.317,-1704.344,6773.880,-1703.318,6788.438C-1705.846,6800.354,-1713.110,6805.278,-1725.108,6803.211C-1726.318,6802.818,-1727.480,6802.315,-1728.593,6801.700C-1740.494,6793.548,-1752.526,6785.596,-1764.689,6777.844C-1778.659,6783.686,-1792.577,6789.636,-1806.442,6795.693C-1819.529,6796.760,-1826.371,6790.736,-1826.967,6777.620C-1823.684,6764.364,-1820.315,6751.127,-1816.861,6737.910C-1816.219,6735.837,-1815.900,6733.721,-1815.904,6731.563C-1816.244,6730.863,-1816.585,6730.164,-1816.926,6729.464C-1826.168,6718.596,-1835.256,6707.619,-1844.189,6696.533C-1847.289,6690.928,-1847.587,6685.142,-1845.081,6679.172C-1842.934,6675.030,-1839.669,6672.167,-1835.287,6670.584C-1820.041,6669.297,-1804.796,6668.085,-1789.552,6666.949C-1788.094,6665.776,-1786.963,6664.334,-1786.159,6662.624C-1779.332,6650.713,-1772.400,6638.860,-1765.363,6627.065C-1762.487,6623.655,-1758.887,6621.558,-1754.564,6620.775ZZ" style="shape-rendering:geometricPrecision;text-rendering:geometricPrecision;image-rendering:optimizeQuality;fill-rule:evenodd;clip-rule:evenodd;fill:#d34a24">
              </path>
            </g>
            <g style="shape-rendering:geometricPrecision;text-rendering:geometricPrecision;image-rendering:optimizeQuality;fill-rule:evenodd;clip-rule:evenodd" id="strokes-d14e1524-69c7-80b3-8004-8758c8585189" class="strokes">
              <g class="inner-stroke-shape">
                <defs>
                  <clipPath id="inner-stroke-render-1085-d14e1524-69c7-80b3-8004-8758c8585189-0">
                    <use href="#stroke-shape-render-1085-d14e1524-69c7-80b3-8004-8758c8585189-0">
                    </use>
                  </clipPath>
                  <path d="M-1754.564,6620.775C-1747.819,6620.317,-1742.476,6622.794,-1738.535,6628.206C-1732.876,6642.524,-1727.438,6656.933,-1722.220,6671.433C-1721.796,6671.939,-1721.371,6672.445,-1720.947,6672.951C-1706.346,6676.706,-1691.737,6680.463,-1677.118,6684.221C-1672.322,6686.708,-1669.312,6690.588,-1668.089,6695.863C-1667.069,6701.782,-1668.465,6707.019,-1672.277,6711.573C-1682.854,6720.819,-1693.566,6729.929,-1704.410,6738.906C-1706.208,6740.438,-1706.914,6742.385,-1706.529,6744.749C-1705.414,6759.317,-1704.344,6773.880,-1703.318,6788.438C-1705.846,6800.354,-1713.110,6805.278,-1725.108,6803.211C-1726.318,6802.818,-1727.480,6802.315,-1728.593,6801.700C-1740.494,6793.548,-1752.526,6785.596,-1764.689,6777.844C-1778.659,6783.686,-1792.577,6789.636,-1806.442,6795.693C-1819.529,6796.760,-1826.371,6790.736,-1826.967,6777.620C-1823.684,6764.364,-1820.315,6751.127,-1816.861,6737.910C-1816.219,6735.837,-1815.900,6733.721,-1815.904,6731.563C-1816.244,6730.863,-1816.585,6730.164,-1816.926,6729.464C-1826.168,6718.596,-1835.256,6707.619,-1844.189,6696.533C-1847.289,6690.928,-1847.587,6685.142,-1845.081,6679.172C-1842.934,6675.030,-1839.669,6672.167,-1835.287,6670.584C-1820.041,6669.297,-1804.796,6668.085,-1789.552,6666.949C-1788.094,6665.776,-1786.963,6664.334,-1786.159,6662.624C-1779.332,6650.713,-1772.400,6638.860,-1765.363,6627.065C-1762.487,6623.655,-1758.887,6621.558,-1754.564,6620.775ZZ" style="fill:none;fill-opacity:none;stroke-width:4;stroke:#000000;stroke-opacity:1" id="stroke-shape-render-1085-d14e1524-69c7-80b3-8004-8758c8585189-0">
                  </path>
                </defs>
                <use href="#stroke-shape-render-1085-d14e1524-69c7-80b3-8004-8758c8585189-0" clip-path="url(&#x27;#inner-stroke-render-1085-d14e1524-69c7-80b3-8004-8758c8585189-0&#x27;)">
                </use>
              </g>
            </g>
          </g>
          <g id="shape-d14e1524-69c7-80b3-8004-8758c858518a" style="opacity:1">
            <g class="fills" id="fills-d14e1524-69c7-80b3-8004-8758c858518a">
              <path d="M-1753.288,6633.748C-1751.835,6633.757,-1750.607,6634.266,-1749.603,6635.276C-1744.400,6649.579,-1739.083,6663.844,-1733.653,6678.069C-1731.443,6681.876,-1728.257,6684.500,-1724.093,6685.939C-1710.028,6689.318,-1695.999,6692.823,-1682.007,6696.454C-1680.338,6698.517,-1680.319,6700.596,-1681.950,6702.689C-1692.672,6712.056,-1703.527,6721.288,-1714.517,6730.385C-1718.124,6734.039,-1719.849,6738.443,-1719.692,6743.598C-1718.595,6758.159,-1717.525,6772.721,-1716.480,6787.286C-1716.925,6790.065,-1718.498,6791.200,-1721.200,6790.692C-1733.044,6782.925,-1744.816,6775.062,-1756.514,6767.104C-1761.093,6764.322,-1765.879,6763.903,-1770.874,6765.848C-1783.777,6771.654,-1796.735,6777.353,-1809.748,6782.945C-1812.492,6782.982,-1813.844,6781.592,-1813.804,6778.772C-1810.371,6764.848,-1806.811,6750.958,-1803.125,6737.102C-1801.881,6731.779,-1802.791,6726.876,-1805.857,6722.394C-1814.945,6711.417,-1824.033,6700.440,-1833.120,6689.463C-1834.495,6686.666,-1833.838,6684.513,-1831.148,6683.004C-1817.131,6682.152,-1803.118,6681.235,-1789.108,6680.251C-1784.551,6679.752,-1780.824,6677.734,-1777.927,6674.196C-1770.110,6661.129,-1762.397,6648.005,-1754.788,6634.822C-1754.292,6634.409,-1753.792,6634.051,-1753.288,6633.748ZZ" style="shape-rendering:geometricPrecision;text-rendering:geometricPrecision;image-rendering:optimizeQuality;fill-rule:evenodd;clip-rule:evenodd;fill:#d34a24">
              </path>
            </g>
          </g>
        </g>
        <g id="shape-0f22011c-9e89-80d1-8004-8f130b306f34" style="fill:#000000" width="512" height="512" rx="0" ry="0">
          <g id="shape-0f22011c-9e89-80d1-8004-8f130b3087e2" style="opacity:0.99">
            <g class="fills" id="fills-0f22011c-9e89-80d1-8004-8f130b3087e2">
              <path d="M-1531.444,6655.975C-1524.686,6655.753,-1519.433,6658.415,-1515.683,6663.961C-1510.528,6678.468,-1505.596,6693.058,-1500.888,6707.731C-1500.481,6708.252,-1500.074,6708.772,-1499.667,6709.293C-1485.207,6713.555,-1470.737,6717.820,-1456.259,6722.086C-1451.552,6724.738,-1448.680,6728.722,-1447.642,6734.036C-1446.829,6739.987,-1448.407,6745.171,-1452.375,6749.590C-1463.269,6758.461,-1474.292,6767.192,-1485.443,6775.785C-1487.293,6777.253,-1488.067,6779.175,-1487.765,6781.551C-1487.159,6796.149,-1486.597,6810.740,-1486.080,6825.325C-1489.023,6837.145,-1496.454,6841.813,-1508.373,6839.328C-1509.568,6838.894,-1510.711,6838.350,-1511.803,6837.697C-1523.412,6829.135,-1535.159,6820.767,-1547.044,6812.595C-1561.209,6817.946,-1575.326,6823.407,-1589.395,6828.977C-1602.511,6829.586,-1609.138,6823.327,-1609.276,6810.198C-1605.532,6797.064,-1601.704,6783.953,-1597.790,6770.865C-1597.077,6768.815,-1596.684,6766.712,-1596.612,6764.555C-1596.928,6763.844,-1597.244,6763.133,-1597.560,6762.422C-1606.418,6751.238,-1615.117,6739.951,-1623.657,6728.560C-1626.560,6722.850,-1626.656,6717.056,-1623.944,6711.178C-1621.653,6707.113,-1618.290,6704.366,-1613.855,6702.937C-1598.574,6702.183,-1583.296,6701.504,-1568.021,6700.900C-1566.524,6699.779,-1565.343,6698.377,-1564.480,6696.696C-1557.241,6685.031,-1549.900,6673.427,-1542.456,6661.884C-1539.462,6658.577,-1535.791,6656.607,-1531.444,6655.975ZZ" style="shape-rendering:geometricPrecision;text-rendering:geometricPrecision;image-rendering:optimizeQuality;fill-rule:evenodd;clip-rule:evenodd;fill:#d34a24">
              </path>
            </g>
            <g style="shape-rendering:geometricPrecision;text-rendering:geometricPrecision;image-rendering:optimizeQuality;fill-rule:evenodd;clip-rule:evenodd" id="strokes-0f22011c-9e89-80d1-8004-8f130b3087e2" class="strokes">
              <g class="inner-stroke-shape">
                <defs>
                  <clipPath id="inner-stroke-render-1088-0f22011c-9e89-80d1-8004-8f130b3087e2-0">
                    <use href="#stroke-shape-render-1088-0f22011c-9e89-80d1-8004-8f130b3087e2-0">
                    </use>
                  </clipPath>
                  <path d="M-1531.444,6655.975C-1524.686,6655.753,-1519.433,6658.415,-1515.683,6663.961C-1510.528,6678.468,-1505.596,6693.058,-1500.888,6707.731C-1500.481,6708.252,-1500.074,6708.772,-1499.667,6709.293C-1485.207,6713.555,-1470.737,6717.820,-1456.259,6722.086C-1451.552,6724.738,-1448.680,6728.722,-1447.642,6734.036C-1446.829,6739.987,-1448.407,6745.171,-1452.375,6749.590C-1463.269,6758.461,-1474.292,6767.192,-1485.443,6775.785C-1487.293,6777.253,-1488.067,6779.175,-1487.765,6781.551C-1487.159,6796.149,-1486.597,6810.740,-1486.080,6825.325C-1489.023,6837.145,-1496.454,6841.813,-1508.373,6839.328C-1509.568,6838.894,-1510.711,6838.350,-1511.803,6837.697C-1523.412,6829.135,-1535.159,6820.767,-1547.044,6812.595C-1561.209,6817.946,-1575.326,6823.407,-1589.395,6828.977C-1602.511,6829.586,-1609.138,6823.327,-1609.276,6810.198C-1605.532,6797.064,-1601.704,6783.953,-1597.790,6770.865C-1597.077,6768.815,-1596.684,6766.712,-1596.612,6764.555C-1596.928,6763.844,-1597.244,6763.133,-1597.560,6762.422C-1606.418,6751.238,-1615.117,6739.951,-1623.657,6728.560C-1626.560,6722.850,-1626.656,6717.056,-1623.944,6711.178C-1621.653,6707.113,-1618.290,6704.366,-1613.855,6702.937C-1598.574,6702.183,-1583.296,6701.504,-1568.021,6700.900C-1566.524,6699.779,-1565.343,6698.377,-1564.480,6696.696C-1557.241,6685.031,-1549.900,6673.427,-1542.456,6661.884C-1539.462,6658.577,-1535.791,6656.607,-1531.444,6655.975ZZ" style="fill:none;fill-opacity:none;stroke-width:4;stroke:#000000;stroke-opacity:1" id="stroke-shape-render-1088-0f22011c-9e89-80d1-8004-8f130b3087e2-0">
                  </path>
                </defs>
                <use href="#stroke-shape-render-1088-0f22011c-9e89-80d1-8004-8f130b3087e2-0" clip-path="url(&#x27;#inner-stroke-render-1088-0f22011c-9e89-80d1-8004-8f130b3087e2-0&#x27;)">
                </use>
              </g>
            </g>
          </g>
          <g id="shape-0f22011c-9e89-80d1-8004-8f130b3087e3" style="opacity:1">
            <g class="fills" id="fills-0f22011c-9e89-80d1-8004-8f130b3087e3">
              <path d="M-1530.621,6668.985C-1529.170,6669.044,-1527.960,6669.596,-1526.992,6670.641C-1522.291,6685.117,-1517.475,6699.558,-1512.545,6713.965C-1510.469,6717.846,-1507.376,6720.580,-1503.265,6722.164C-1489.327,6726.031,-1475.429,6730.023,-1461.572,6734.141C-1459.976,6736.261,-1460.030,6738.339,-1461.732,6740.373C-1472.774,6749.360,-1483.946,6758.208,-1495.246,6766.917C-1498.978,6770.442,-1500.856,6774.783,-1500.879,6779.941C-1500.291,6794.531,-1499.730,6809.122,-1499.194,6823.714C-1499.735,6826.476,-1501.347,6827.555,-1504.029,6826.953C-1515.595,6818.778,-1527.085,6810.509,-1538.500,6802.147C-1542.978,6799.207,-1547.747,6798.621,-1552.806,6800.391C-1565.904,6805.743,-1579.053,6810.986,-1592.254,6816.120C-1594.997,6816.062,-1596.300,6814.625,-1596.161,6811.808C-1592.244,6798.013,-1588.202,6784.256,-1584.035,6770.537C-1582.605,6765.261,-1583.344,6760.329,-1586.252,6755.743C-1594.951,6744.455,-1603.650,6733.167,-1612.349,6721.880C-1613.626,6719.037,-1612.894,6716.908,-1610.153,6715.494C-1596.115,6715.132,-1582.078,6714.704,-1568.042,6714.210C-1563.470,6713.870,-1559.675,6711.983,-1556.657,6708.548C-1548.388,6695.763,-1540.222,6682.915,-1532.158,6670.006C-1531.647,6669.611,-1531.135,6669.270,-1530.621,6668.985ZZ" style="shape-rendering:geometricPrecision;text-rendering:geometricPrecision;image-rendering:optimizeQuality;fill-rule:evenodd;clip-rule:evenodd;fill:#d34a24">
              </path>
            </g>
          </g>
        </g>
        <g id="shape-d14e1524-69c7-80b3-8004-8758c8585182" style="fill:#000000" width="512" height="512" rx="0" ry="0">
          <g id="shape-d14e1524-69c7-80b3-8004-8758c858518b" style="opacity:0.99">
            <g class="fills" id="fills-d14e1524-69c7-80b3-8004-8758c858518b">
              <path d="M-1551.564,7079.775C-1544.819,7079.317,-1539.476,7081.794,-1535.535,7087.206C-1529.876,7101.524,-1524.438,7115.933,-1519.220,7130.433C-1518.796,7130.939,-1518.371,7131.445,-1517.947,7131.951C-1503.346,7135.706,-1488.737,7139.463,-1474.118,7143.221C-1469.322,7145.708,-1466.312,7149.588,-1465.089,7154.863C-1464.069,7160.782,-1465.465,7166.019,-1469.277,7170.573C-1479.854,7179.819,-1490.566,7188.929,-1501.410,7197.906C-1503.208,7199.438,-1503.914,7201.385,-1503.529,7203.749C-1502.414,7218.317,-1501.344,7232.880,-1500.318,7247.438C-1502.846,7259.354,-1510.110,7264.278,-1522.108,7262.211C-1523.318,7261.818,-1524.480,7261.315,-1525.593,7260.700C-1537.494,7252.548,-1549.526,7244.596,-1561.689,7236.844C-1575.659,7242.686,-1589.577,7248.636,-1603.442,7254.693C-1616.529,7255.760,-1623.371,7249.736,-1623.967,7236.620C-1620.684,7223.364,-1617.315,7210.127,-1613.861,7196.910C-1613.219,7194.837,-1612.900,7192.721,-1612.904,7190.563C-1613.244,7189.863,-1613.585,7189.164,-1613.926,7188.464C-1623.168,7177.596,-1632.256,7166.619,-1641.189,7155.533C-1644.289,7149.928,-1644.587,7144.142,-1642.081,7138.172C-1639.934,7134.030,-1636.669,7131.167,-1632.287,7129.584C-1617.041,7128.297,-1601.796,7127.085,-1586.552,7125.949C-1585.094,7124.776,-1583.963,7123.334,-1583.159,7121.624C-1576.332,7109.713,-1569.400,7097.860,-1562.363,7086.065C-1559.487,7082.655,-1555.887,7080.558,-1551.564,7079.775ZZ" style="shape-rendering:geometricPrecision;text-rendering:geometricPrecision;image-rendering:optimizeQuality;fill-rule:evenodd;clip-rule:evenodd;fill:#d34a24">
              </path>
            </g>
            <g style="shape-rendering:geometricPrecision;text-rendering:geometricPrecision;image-rendering:optimizeQuality;fill-rule:evenodd;clip-rule:evenodd" id="strokes-d14e1524-69c7-80b3-8004-8758c858518b" class="strokes">
              <g class="inner-stroke-shape">
                <defs>
                  <clipPath id="inner-stroke-render-1091-d14e1524-69c7-80b3-8004-8758c858518b-0">
                    <use href="#stroke-shape-render-1091-d14e1524-69c7-80b3-8004-8758c858518b-0">
                    </use>
                  </clipPath>
                  <path d="M-1551.564,7079.775C-1544.819,7079.317,-1539.476,7081.794,-1535.535,7087.206C-1529.876,7101.524,-1524.438,7115.933,-1519.220,7130.433C-1518.796,7130.939,-1518.371,7131.445,-1517.947,7131.951C-1503.346,7135.706,-1488.737,7139.463,-1474.118,7143.221C-1469.322,7145.708,-1466.312,7149.588,-1465.089,7154.863C-1464.069,7160.782,-1465.465,7166.019,-1469.277,7170.573C-1479.854,7179.819,-1490.566,7188.929,-1501.410,7197.906C-1503.208,7199.438,-1503.914,7201.385,-1503.529,7203.749C-1502.414,7218.317,-1501.344,7232.880,-1500.318,7247.438C-1502.846,7259.354,-1510.110,7264.278,-1522.108,7262.211C-1523.318,7261.818,-1524.480,7261.315,-1525.593,7260.700C-1537.494,7252.548,-1549.526,7244.596,-1561.689,7236.844C-1575.659,7242.686,-1589.577,7248.636,-1603.442,7254.693C-1616.529,7255.760,-1623.371,7249.736,-1623.967,7236.620C-1620.684,7223.364,-1617.315,7210.127,-1613.861,7196.910C-1613.219,7194.837,-1612.900,7192.721,-1612.904,7190.563C-1613.244,7189.863,-1613.585,7189.164,-1613.926,7188.464C-1623.168,7177.596,-1632.256,7166.619,-1641.189,7155.533C-1644.289,7149.928,-1644.587,7144.142,-1642.081,7138.172C-1639.934,7134.030,-1636.669,7131.167,-1632.287,7129.584C-1617.041,7128.297,-1601.796,7127.085,-1586.552,7125.949C-1585.094,7124.776,-1583.963,7123.334,-1583.159,7121.624C-1576.332,7109.713,-1569.400,7097.860,-1562.363,7086.065C-1559.487,7082.655,-1555.887,7080.558,-1551.564,7079.775ZZ" style="fill:none;fill-opacity:none;stroke-width:4;stroke:#000000;stroke-opacity:1" id="stroke-shape-render-1091-d14e1524-69c7-80b3-8004-8758c858518b-0">
                  </path>
                </defs>
                <use href="#stroke-shape-render-1091-d14e1524-69c7-80b3-8004-8758c858518b-0" clip-path="url(&#x27;#inner-stroke-render-1091-d14e1524-69c7-80b3-8004-8758c858518b-0&#x27;)">
                </use>
              </g>
            </g>
          </g>
          <g id="shape-d14e1524-69c7-80b3-8004-8758c858518c" style="opacity:1">
            <g class="fills" id="fills-d14e1524-69c7-80b3-8004-8758c858518c">
              <path d="M-1550.288,7092.748C-1548.835,7092.757,-1547.607,7093.266,-1546.603,7094.276C-1541.400,7108.579,-1536.083,7122.844,-1530.653,7137.069C-1528.443,7140.876,-1525.257,7143.500,-1521.093,7144.939C-1507.028,7148.318,-1492.999,7151.823,-1479.007,7155.454C-1477.338,7157.517,-1477.319,7159.596,-1478.950,7161.689C-1489.672,7171.056,-1500.527,7180.288,-1511.517,7189.385C-1515.124,7193.039,-1516.849,7197.443,-1516.692,7202.598C-1515.595,7217.159,-1514.525,7231.721,-1513.480,7246.286C-1513.925,7249.065,-1515.498,7250.200,-1518.200,7249.692C-1530.044,7241.925,-1541.816,7234.062,-1553.514,7226.104C-1558.093,7223.322,-1562.879,7222.903,-1567.874,7224.848C-1580.777,7230.654,-1593.735,7236.353,-1606.748,7241.945C-1609.492,7241.982,-1610.844,7240.592,-1610.804,7237.772C-1607.371,7223.848,-1603.811,7209.958,-1600.125,7196.102C-1598.881,7190.779,-1599.791,7185.876,-1602.857,7181.394C-1611.945,7170.417,-1621.033,7159.440,-1630.120,7148.463C-1631.495,7145.666,-1630.838,7143.513,-1628.148,7142.004C-1614.131,7141.152,-1600.118,7140.235,-1586.108,7139.251C-1581.551,7138.752,-1577.824,7136.734,-1574.927,7133.196C-1567.110,7120.129,-1559.397,7107.005,-1551.788,7093.822C-1551.292,7093.409,-1550.792,7093.051,-1550.288,7092.748ZZ" style="shape-rendering:geometricPrecision;text-rendering:geometricPrecision;image-rendering:optimizeQuality;fill-rule:evenodd;clip-rule:evenodd;fill:#d34a24">
              </path>
            </g>
          </g>
        </g>
        <g id="shape-d14e1524-69c7-80b3-8004-8758c8585183" style="fill:#000000" width="512" height="512" rx="0" ry="0">
          <g id="shape-d14e1524-69c7-80b3-8004-8758c858518d" style="opacity:0.99">
            <g class="fills" id="fills-d14e1524-69c7-80b3-8004-8758c858518d">
              <path d="M-1818.564,7059.775C-1811.819,7059.317,-1806.476,7061.794,-1802.535,7067.206C-1796.876,7081.524,-1791.438,7095.933,-1786.220,7110.433C-1785.796,7110.939,-1785.371,7111.445,-1784.947,7111.951C-1770.346,7115.706,-1755.737,7119.463,-1741.118,7123.221C-1736.322,7125.708,-1733.312,7129.588,-1732.089,7134.863C-1731.069,7140.782,-1732.465,7146.019,-1736.277,7150.573C-1746.854,7159.819,-1757.566,7168.929,-1768.410,7177.906C-1770.208,7179.438,-1770.914,7181.385,-1770.529,7183.749C-1769.414,7198.317,-1768.344,7212.880,-1767.318,7227.438C-1769.846,7239.354,-1777.110,7244.278,-1789.108,7242.211C-1790.318,7241.818,-1791.480,7241.315,-1792.593,7240.700C-1804.494,7232.548,-1816.526,7224.596,-1828.689,7216.844C-1842.659,7222.686,-1856.577,7228.636,-1870.442,7234.693C-1883.529,7235.760,-1890.371,7229.736,-1890.967,7216.620C-1887.684,7203.364,-1884.315,7190.127,-1880.861,7176.910C-1880.219,7174.837,-1879.900,7172.721,-1879.904,7170.563C-1880.244,7169.863,-1880.585,7169.164,-1880.926,7168.464C-1890.168,7157.596,-1899.256,7146.619,-1908.189,7135.533C-1911.289,7129.928,-1911.587,7124.142,-1909.081,7118.172C-1906.934,7114.030,-1903.669,7111.167,-1899.287,7109.584C-1884.041,7108.297,-1868.796,7107.085,-1853.552,7105.949C-1852.094,7104.776,-1850.963,7103.334,-1850.159,7101.624C-1843.332,7089.713,-1836.400,7077.860,-1829.363,7066.065C-1826.487,7062.655,-1822.887,7060.558,-1818.564,7059.775ZZ" style="shape-rendering:geometricPrecision;text-rendering:geometricPrecision;image-rendering:optimizeQuality;fill-rule:evenodd;clip-rule:evenodd;fill:#d34a24">
              </path>
            </g>
            <g style="shape-rendering:geometricPrecision;text-rendering:geometricPrecision;image-rendering:optimizeQuality;fill-rule:evenodd;clip-rule:evenodd" id="strokes-d14e1524-69c7-80b3-8004-8758c858518d" class="strokes">
              <g class="inner-stroke-shape">
                <defs>
                  <clipPath id="inner-stroke-render-1094-d14e1524-69c7-80b3-8004-8758c858518d-0">
                    <use href="#stroke-shape-render-1094-d14e1524-69c7-80b3-8004-8758c858518d-0">
                    </use>
                  </clipPath>
                  <path d="M-1818.564,7059.775C-1811.819,7059.317,-1806.476,7061.794,-1802.535,7067.206C-1796.876,7081.524,-1791.438,7095.933,-1786.220,7110.433C-1785.796,7110.939,-1785.371,7111.445,-1784.947,7111.951C-1770.346,7115.706,-1755.737,7119.463,-1741.118,7123.221C-1736.322,7125.708,-1733.312,7129.588,-1732.089,7134.863C-1731.069,7140.782,-1732.465,7146.019,-1736.277,7150.573C-1746.854,7159.819,-1757.566,7168.929,-1768.410,7177.906C-1770.208,7179.438,-1770.914,7181.385,-1770.529,7183.749C-1769.414,7198.317,-1768.344,7212.880,-1767.318,7227.438C-1769.846,7239.354,-1777.110,7244.278,-1789.108,7242.211C-1790.318,7241.818,-1791.480,7241.315,-1792.593,7240.700C-1804.494,7232.548,-1816.526,7224.596,-1828.689,7216.844C-1842.659,7222.686,-1856.577,7228.636,-1870.442,7234.693C-1883.529,7235.760,-1890.371,7229.736,-1890.967,7216.620C-1887.684,7203.364,-1884.315,7190.127,-1880.861,7176.910C-1880.219,7174.837,-1879.900,7172.721,-1879.904,7170.563C-1880.244,7169.863,-1880.585,7169.164,-1880.926,7168.464C-1890.168,7157.596,-1899.256,7146.619,-1908.189,7135.533C-1911.289,7129.928,-1911.587,7124.142,-1909.081,7118.172C-1906.934,7114.030,-1903.669,7111.167,-1899.287,7109.584C-1884.041,7108.297,-1868.796,7107.085,-1853.552,7105.949C-1852.094,7104.776,-1850.963,7103.334,-1850.159,7101.624C-1843.332,7089.713,-1836.400,7077.860,-1829.363,7066.065C-1826.487,7062.655,-1822.887,7060.558,-1818.564,7059.775ZZ" style="fill:none;fill-opacity:none;stroke-width:4;stroke:#000000;stroke-opacity:1" id="stroke-shape-render-1094-d14e1524-69c7-80b3-8004-8758c858518d-0">
                  </path>
                </defs>
                <use href="#stroke-shape-render-1094-d14e1524-69c7-80b3-8004-8758c858518d-0" clip-path="url(&#x27;#inner-stroke-render-1094-d14e1524-69c7-80b3-8004-8758c858518d-0&#x27;)">
                </use>
              </g>
            </g>
          </g>
          <g id="shape-d14e1524-69c7-80b3-8004-8758c858518e" style="opacity:1">
            <g class="fills" id="fills-d14e1524-69c7-80b3-8004-8758c858518e">
              <path d="M-1817.288,7072.748C-1815.835,7072.757,-1814.607,7073.266,-1813.603,7074.276C-1808.400,7088.579,-1803.083,7102.844,-1797.653,7117.069C-1795.443,7120.876,-1792.257,7123.500,-1788.093,7124.939C-1774.028,7128.318,-1759.999,7131.823,-1746.007,7135.454C-1744.338,7137.517,-1744.319,7139.596,-1745.950,7141.689C-1756.672,7151.056,-1767.527,7160.288,-1778.517,7169.385C-1782.124,7173.039,-1783.849,7177.443,-1783.692,7182.598C-1782.595,7197.159,-1781.525,7211.721,-1780.480,7226.286C-1780.925,7229.065,-1782.498,7230.200,-1785.200,7229.692C-1797.044,7221.925,-1808.816,7214.062,-1820.514,7206.104C-1825.093,7203.322,-1829.879,7202.903,-1834.874,7204.848C-1847.777,7210.654,-1860.735,7216.353,-1873.748,7221.945C-1876.492,7221.982,-1877.844,7220.592,-1877.804,7217.772C-1874.371,7203.848,-1870.811,7189.958,-1867.125,7176.102C-1865.881,7170.779,-1866.791,7165.876,-1869.857,7161.394C-1878.945,7150.417,-1888.033,7139.440,-1897.120,7128.463C-1898.495,7125.666,-1897.838,7123.513,-1895.148,7122.004C-1881.131,7121.152,-1867.118,7120.235,-1853.108,7119.251C-1848.551,7118.752,-1844.824,7116.734,-1841.927,7113.196C-1834.110,7100.129,-1826.397,7087.005,-1818.788,7073.822C-1818.292,7073.409,-1817.792,7073.051,-1817.288,7072.748ZZ" style="shape-rendering:geometricPrecision;text-rendering:geometricPrecision;image-rendering:optimizeQuality;fill-rule:evenodd;clip-rule:evenodd;fill:#d34a24">
              </path>
            </g>
          </g>
        </g>
        <g id="shape-d14e1524-69c7-80b3-8004-8758c8585184" style="fill:#000000" width="512" height="512" rx="0" ry="0">
          <g id="shape-d14e1524-69c7-80b3-8004-8758c858518f" style="opacity:0.99">
            <g class="fills" id="fills-d14e1524-69c7-80b3-8004-8758c858518f">
              <path d="M-1917.081,6812.257C-1910.336,6811.799,-1904.993,6814.276,-1901.051,6819.688C-1895.393,6834.006,-1889.955,6848.415,-1884.737,6862.915C-1884.312,6863.422,-1883.888,6863.927,-1883.463,6864.434C-1868.863,6868.188,-1854.253,6871.945,-1839.635,6875.704C-1834.838,6878.190,-1831.829,6882.071,-1830.606,6887.345C-1829.586,6893.264,-1830.982,6898.501,-1834.794,6903.056C-1845.371,6912.301,-1856.082,6921.412,-1866.927,6930.388C-1868.725,6931.920,-1869.431,6933.868,-1869.046,6936.232C-1867.931,6950.800,-1866.861,6965.363,-1865.835,6979.920C-1868.363,6991.836,-1875.626,6996.760,-1887.625,6994.693C-1888.835,6994.301,-1889.996,6993.797,-1891.110,6993.183C-1903.011,6985.031,-1915.043,6977.078,-1927.205,6969.326C-1941.176,6975.168,-1955.093,6981.118,-1968.959,6987.176C-1982.046,6988.243,-1988.887,6982.218,-1989.483,6969.102C-1986.200,6955.846,-1982.832,6942.609,-1979.378,6929.393C-1978.736,6927.319,-1978.417,6925.203,-1978.420,6923.046C-1978.761,6922.346,-1979.102,6921.646,-1979.442,6920.947C-1988.685,6910.079,-1997.773,6899.102,-2006.705,6888.015C-2009.806,6882.411,-2010.103,6876.624,-2007.598,6870.655C-2005.451,6866.512,-2002.186,6863.650,-1997.803,6862.067C-1982.558,6860.779,-1967.313,6859.567,-1952.068,6858.431C-1950.611,6857.258,-1949.480,6855.817,-1948.676,6854.106C-1941.848,6842.195,-1934.917,6830.342,-1927.880,6818.547C-1925.003,6815.137,-1921.404,6813.041,-1917.081,6812.257ZZ" style="shape-rendering:geometricPrecision;text-rendering:geometricPrecision;image-rendering:optimizeQuality;fill-rule:evenodd;clip-rule:evenodd;fill:#d34a24">
              </path>
            </g>
            <g style="shape-rendering:geometricPrecision;text-rendering:geometricPrecision;image-rendering:optimizeQuality;fill-rule:evenodd;clip-rule:evenodd" id="strokes-d14e1524-69c7-80b3-8004-8758c858518f" class="strokes">
              <g class="inner-stroke-shape">
                <defs>
                  <clipPath id="inner-stroke-render-1097-d14e1524-69c7-80b3-8004-8758c858518f-0">
                    <use href="#stroke-shape-render-1097-d14e1524-69c7-80b3-8004-8758c858518f-0">
                    </use>
                  </clipPath>
                  <path d="M-1917.081,6812.257C-1910.336,6811.799,-1904.993,6814.276,-1901.051,6819.688C-1895.393,6834.006,-1889.955,6848.415,-1884.737,6862.915C-1884.312,6863.422,-1883.888,6863.927,-1883.463,6864.434C-1868.863,6868.188,-1854.253,6871.945,-1839.635,6875.704C-1834.838,6878.190,-1831.829,6882.071,-1830.606,6887.345C-1829.586,6893.264,-1830.982,6898.501,-1834.794,6903.056C-1845.371,6912.301,-1856.082,6921.412,-1866.927,6930.388C-1868.725,6931.920,-1869.431,6933.868,-1869.046,6936.232C-1867.931,6950.800,-1866.861,6965.363,-1865.835,6979.920C-1868.363,6991.836,-1875.626,6996.760,-1887.625,6994.693C-1888.835,6994.301,-1889.996,6993.797,-1891.110,6993.183C-1903.011,6985.031,-1915.043,6977.078,-1927.205,6969.326C-1941.176,6975.168,-1955.093,6981.118,-1968.959,6987.176C-1982.046,6988.243,-1988.887,6982.218,-1989.483,6969.102C-1986.200,6955.846,-1982.832,6942.609,-1979.378,6929.393C-1978.736,6927.319,-1978.417,6925.203,-1978.420,6923.046C-1978.761,6922.346,-1979.102,6921.646,-1979.442,6920.947C-1988.685,6910.079,-1997.773,6899.102,-2006.705,6888.015C-2009.806,6882.411,-2010.103,6876.624,-2007.598,6870.655C-2005.451,6866.512,-2002.186,6863.650,-1997.803,6862.067C-1982.558,6860.779,-1967.313,6859.567,-1952.068,6858.431C-1950.611,6857.258,-1949.480,6855.817,-1948.676,6854.106C-1941.848,6842.195,-1934.917,6830.342,-1927.880,6818.547C-1925.003,6815.137,-1921.404,6813.041,-1917.081,6812.257ZZ" style="fill:none;fill-opacity:none;stroke-width:4;stroke:#000000;stroke-opacity:1" id="stroke-shape-render-1097-d14e1524-69c7-80b3-8004-8758c858518f-0">
                  </path>
                </defs>
                <use href="#stroke-shape-render-1097-d14e1524-69c7-80b3-8004-8758c858518f-0" clip-path="url(&#x27;#inner-stroke-render-1097-d14e1524-69c7-80b3-8004-8758c858518f-0&#x27;)">
                </use>
              </g>
            </g>
          </g>
          <g id="shape-d14e1524-69c7-80b3-8004-8758c8585190" style="opacity:1">
            <g class="fills" id="fills-d14e1524-69c7-80b3-8004-8758c8585190">
              <path d="M-1915.804,6825.230C-1914.352,6825.239,-1913.124,6825.748,-1912.120,6826.758C-1906.916,6841.062,-1901.599,6855.326,-1896.170,6869.552C-1893.960,6873.359,-1890.773,6875.982,-1886.609,6877.422C-1872.545,6880.800,-1858.516,6884.305,-1844.524,6887.936C-1842.855,6890.000,-1842.836,6892.078,-1844.466,6894.171C-1855.188,6903.538,-1866.044,6912.770,-1877.033,6921.868C-1880.640,6925.521,-1882.366,6929.925,-1882.209,6935.080C-1881.112,6949.641,-1880.042,6964.204,-1878.997,6978.769C-1879.442,6981.547,-1881.015,6982.682,-1883.716,6982.174C-1895.561,6974.407,-1907.332,6966.545,-1919.031,6958.586C-1923.610,6955.804,-1928.396,6955.385,-1933.390,6957.330C-1946.294,6963.136,-1959.252,6968.835,-1972.265,6974.427C-1975.009,6974.465,-1976.360,6973.074,-1976.321,6970.254C-1972.887,6956.330,-1969.328,6942.440,-1965.642,6928.585C-1964.397,6923.262,-1965.308,6918.359,-1968.374,6913.877C-1977.462,6902.900,-1986.549,6891.922,-1995.637,6880.945C-1997.012,6878.148,-1996.355,6875.995,-1993.665,6874.486C-1979.648,6873.635,-1965.635,6872.717,-1951.625,6871.734C-1947.068,6871.234,-1943.341,6869.216,-1940.444,6865.678C-1932.626,6852.612,-1924.913,6839.487,-1917.305,6826.305C-1916.809,6825.891,-1916.308,6825.533,-1915.804,6825.230ZZ" style="shape-rendering:geometricPrecision;text-rendering:geometricPrecision;image-rendering:optimizeQuality;fill-rule:evenodd;clip-rule:evenodd;fill:#d34a24">
              </path>
            </g>
          </g>
        </g>
        <g id="shape-d14e1524-69c7-80b3-8004-8758d6e21a82" style="fill:#000000" width="512" height="512" rx="0" ry="0">
          <g id="shape-d14e1524-69c7-80b3-8004-8758d6e21a83" style="opacity:0.99">
            <g class="fills" id="fills-d14e1524-69c7-80b3-8004-8758d6e21a83">
              <path d="M-1679.564,6863.775C-1672.819,6863.317,-1667.476,6865.794,-1663.535,6871.206C-1657.876,6885.524,-1652.438,6899.933,-1647.220,6914.433C-1646.796,6914.939,-1646.371,6915.445,-1645.947,6915.951C-1631.346,6919.706,-1616.737,6923.463,-1602.118,6927.221C-1597.322,6929.708,-1594.312,6933.588,-1593.089,6938.863C-1592.069,6944.782,-1593.465,6950.019,-1597.277,6954.573C-1607.854,6963.819,-1618.566,6972.929,-1629.410,6981.906C-1631.208,6983.438,-1631.914,6985.385,-1631.529,6987.749C-1630.414,7002.317,-1629.344,7016.880,-1628.318,7031.438C-1630.846,7043.354,-1638.110,7048.278,-1650.108,7046.211C-1651.318,7045.818,-1652.480,7045.315,-1653.593,7044.700C-1665.494,7036.548,-1677.526,7028.596,-1689.689,7020.844C-1703.659,7026.686,-1717.577,7032.636,-1731.442,7038.693C-1744.529,7039.760,-1751.371,7033.736,-1751.967,7020.620C-1748.684,7007.364,-1745.315,6994.127,-1741.861,6980.910C-1741.219,6978.837,-1740.900,6976.721,-1740.904,6974.563C-1741.244,6973.863,-1741.585,6973.164,-1741.926,6972.464C-1751.168,6961.596,-1760.256,6950.619,-1769.189,6939.533C-1772.289,6933.928,-1772.587,6928.142,-1770.081,6922.172C-1767.934,6918.030,-1764.669,6915.167,-1760.287,6913.584C-1745.041,6912.297,-1729.796,6911.085,-1714.552,6909.949C-1713.094,6908.776,-1711.963,6907.334,-1711.159,6905.624C-1704.332,6893.713,-1697.400,6881.860,-1690.363,6870.065C-1687.487,6866.655,-1683.887,6864.558,-1679.564,6863.775ZZ" style="shape-rendering:geometricPrecision;text-rendering:geometricPrecision;image-rendering:optimizeQuality;fill-rule:evenodd;clip-rule:evenodd;fill:#d34a24">
              </path>
            </g>
            <g style="shape-rendering:geometricPrecision;text-rendering:geometricPrecision;image-rendering:optimizeQuality;fill-rule:evenodd;clip-rule:evenodd" id="strokes-d14e1524-69c7-80b3-8004-8758d6e21a83" class="strokes">
              <g class="inner-stroke-shape">
                <defs>
                  <clipPath id="inner-stroke-render-1100-d14e1524-69c7-80b3-8004-8758d6e21a83-0">
                    <use href="#stroke-shape-render-1100-d14e1524-69c7-80b3-8004-8758d6e21a83-0">
                    </use>
                  </clipPath>
                  <path d="M-1679.564,6863.775C-1672.819,6863.317,-1667.476,6865.794,-1663.535,6871.206C-1657.876,6885.524,-1652.438,6899.933,-1647.220,6914.433C-1646.796,6914.939,-1646.371,6915.445,-1645.947,6915.951C-1631.346,6919.706,-1616.737,6923.463,-1602.118,6927.221C-1597.322,6929.708,-1594.312,6933.588,-1593.089,6938.863C-1592.069,6944.782,-1593.465,6950.019,-1597.277,6954.573C-1607.854,6963.819,-1618.566,6972.929,-1629.410,6981.906C-1631.208,6983.438,-1631.914,6985.385,-1631.529,6987.749C-1630.414,7002.317,-1629.344,7016.880,-1628.318,7031.438C-1630.846,7043.354,-1638.110,7048.278,-1650.108,7046.211C-1651.318,7045.818,-1652.480,7045.315,-1653.593,7044.700C-1665.494,7036.548,-1677.526,7028.596,-1689.689,7020.844C-1703.659,7026.686,-1717.577,7032.636,-1731.442,7038.693C-1744.529,7039.760,-1751.371,7033.736,-1751.967,7020.620C-1748.684,7007.364,-1745.315,6994.127,-1741.861,6980.910C-1741.219,6978.837,-1740.900,6976.721,-1740.904,6974.563C-1741.244,6973.863,-1741.585,6973.164,-1741.926,6972.464C-1751.168,6961.596,-1760.256,6950.619,-1769.189,6939.533C-1772.289,6933.928,-1772.587,6928.142,-1770.081,6922.172C-1767.934,6918.030,-1764.669,6915.167,-1760.287,6913.584C-1745.041,6912.297,-1729.796,6911.085,-1714.552,6909.949C-1713.094,6908.776,-1711.963,6907.334,-1711.159,6905.624C-1704.332,6893.713,-1697.400,6881.860,-1690.363,6870.065C-1687.487,6866.655,-1683.887,6864.558,-1679.564,6863.775ZZ" style="fill:none;fill-opacity:none;stroke-width:4;stroke:#000000;stroke-opacity:1" id="stroke-shape-render-1100-d14e1524-69c7-80b3-8004-8758d6e21a83-0">
                  </path>
                </defs>
                <use href="#stroke-shape-render-1100-d14e1524-69c7-80b3-8004-8758d6e21a83-0" clip-path="url(&#x27;#inner-stroke-render-1100-d14e1524-69c7-80b3-8004-8758d6e21a83-0&#x27;)">
                </use>
              </g>
            </g>
          </g>
          <g id="shape-d14e1524-69c7-80b3-8004-8758d6e21a84" style="opacity:1">
            <g class="fills" id="fills-d14e1524-69c7-80b3-8004-8758d6e21a84">
              <path d="M-1678.288,6876.748C-1676.835,6876.757,-1675.607,6877.266,-1674.603,6878.276C-1669.400,6892.579,-1664.083,6906.844,-1658.653,6921.069C-1656.443,6924.876,-1653.257,6927.500,-1649.093,6928.939C-1635.028,6932.318,-1620.999,6935.823,-1607.007,6939.454C-1605.338,6941.517,-1605.319,6943.596,-1606.950,6945.689C-1617.672,6955.056,-1628.527,6964.288,-1639.517,6973.385C-1643.124,6977.039,-1644.849,6981.443,-1644.692,6986.598C-1643.595,7001.159,-1642.525,7015.721,-1641.480,7030.286C-1641.925,7033.065,-1643.498,7034.200,-1646.200,7033.692C-1658.044,7025.925,-1669.816,7018.062,-1681.514,7010.104C-1686.093,7007.322,-1690.879,7006.903,-1695.874,7008.848C-1708.777,7014.654,-1721.735,7020.353,-1734.748,7025.945C-1737.492,7025.982,-1738.844,7024.592,-1738.804,7021.772C-1735.371,7007.848,-1731.811,6993.958,-1728.125,6980.102C-1726.881,6974.779,-1727.791,6969.876,-1730.857,6965.394C-1739.945,6954.417,-1749.033,6943.440,-1758.120,6932.463C-1759.495,6929.666,-1758.838,6927.513,-1756.148,6926.004C-1742.131,6925.152,-1728.118,6924.235,-1714.108,6923.251C-1709.551,6922.752,-1705.824,6920.734,-1702.927,6917.196C-1695.110,6904.129,-1687.397,6891.005,-1679.788,6877.822C-1679.292,6877.409,-1678.792,6877.051,-1678.288,6876.748ZZ" style="shape-rendering:geometricPrecision;text-rendering:geometricPrecision;image-rendering:optimizeQuality;fill-rule:evenodd;clip-rule:evenodd;fill:#d34a24">
              </path>
            </g>
          </g>
        </g>
        <g id="shape-d14e1524-69c7-80b3-8004-8758c8585185" style="opacity:0.8">
          <g class="fills" id="fills-d14e1524-69c7-80b3-8004-8758c8585185">
            <path d="M-1868.000,6749.000C-1896.409,6729.394,-1889.500,6687.000,-1889.500,6687.000C-1889.500,6687.000,-1891.095,6654.746,-1853.000,6618.000C-1815.761,6582.079,-1773.000,6578.000,-1773.000,6578.000C-1773.000,6578.000,-1735.129,6575.901,-1708.000,6602.000C-1682.462,6626.568,-1690.000,6656.000,-1690.000,6656.000C-1690.000,6656.000,-1692.364,6686.318,-1723.000,6721.000C-1763.030,6766.318,-1800.000,6766.500,-1800.000,6766.500C-1800.000,6766.500,-1832.500,6773.500,-1868.000,6749.000Z" style="fill:#ffffff;fill-opacity:1">
            </path>
          </g>
          <g id="strokes-d14e1524-69c7-80b3-8004-8758c8585185" class="strokes">
            <g class="inner-stroke-shape">
              <defs>
                <clipPath id="inner-stroke-render-1102-d14e1524-69c7-80b3-8004-8758c8585185-0">
                  <use href="#stroke-shape-render-1102-d14e1524-69c7-80b3-8004-8758c8585185-0">
                  </use>
                </clipPath>
                <path d="M-1868.000,6749.000C-1896.409,6729.394,-1889.500,6687.000,-1889.500,6687.000C-1889.500,6687.000,-1891.095,6654.746,-1853.000,6618.000C-1815.761,6582.079,-1773.000,6578.000,-1773.000,6578.000C-1773.000,6578.000,-1735.129,6575.901,-1708.000,6602.000C-1682.462,6626.568,-1690.000,6656.000,-1690.000,6656.000C-1690.000,6656.000,-1692.364,6686.318,-1723.000,6721.000C-1763.030,6766.318,-1800.000,6766.500,-1800.000,6766.500C-1800.000,6766.500,-1832.500,6773.500,-1868.000,6749.000Z" style="fill:none;fill-opacity:none;stroke-width:4;stroke:#000000;stroke-opacity:1" id="stroke-shape-render-1102-d14e1524-69c7-80b3-8004-8758c8585185-0">
                </path>
              </defs>
              <use href="#stroke-shape-render-1102-d14e1524-69c7-80b3-8004-8758c8585185-0" clip-path="url(&#x27;#inner-stroke-render-1102-d14e1524-69c7-80b3-8004-8758c8585185-0&#x27;)">
              </use>
            </g>
          </g>
        </g>
        <g id="shape-d14e1524-69c7-80b3-8004-8758c8585186">
          <g class="fills" id="fills-d14e1524-69c7-80b3-8004-8758c8585186">
            <path d="M-1952.000,6756.000C-1960.840,6749.281,-1960.000,6739.000,-1960.000,6739.000C-1960.000,6739.000,-1961.764,6727.554,-1952.000,6715.000C-1943.097,6703.554,-1932.000,6703.000,-1932.000,6703.000C-1932.000,6703.000,-1923.781,6700.808,-1917.000,6707.000C-1908.448,6714.808,-1909.000,6724.000,-1909.000,6724.000C-1909.000,6724.000,-1907.523,6733.914,-1916.000,6745.000C-1924.856,6756.581,-1935.000,6758.000,-1935.000,6758.000C-1935.000,6758.000,-1944.174,6761.948,-1952.000,6756.000Z" style="fill:#ffffff;fill-opacity:1">
            </path>
          </g>
          <g id="strokes-d14e1524-69c7-80b3-8004-8758c8585186" class="strokes">
            <g class="inner-stroke-shape">
              <defs>
                <clipPath id="inner-stroke-render-1103-d14e1524-69c7-80b3-8004-8758c8585186-0">
                  <use href="#stroke-shape-render-1103-d14e1524-69c7-80b3-8004-8758c8585186-0">
                  </use>
                </clipPath>
                <path d="M-1952.000,6756.000C-1960.840,6749.281,-1960.000,6739.000,-1960.000,6739.000C-1960.000,6739.000,-1961.764,6727.554,-1952.000,6715.000C-1943.097,6703.554,-1932.000,6703.000,-1932.000,6703.000C-1932.000,6703.000,-1923.781,6700.808,-1917.000,6707.000C-1908.448,6714.808,-1909.000,6724.000,-1909.000,6724.000C-1909.000,6724.000,-1907.523,6733.914,-1916.000,6745.000C-1924.856,6756.581,-1935.000,6758.000,-1935.000,6758.000C-1935.000,6758.000,-1944.174,6761.948,-1952.000,6756.000Z" style="fill:none;fill-opacity:none;stroke-width:4;stroke:#000000;stroke-opacity:1" id="stroke-shape-render-1103-d14e1524-69c7-80b3-8004-8758c8585186-0">
                </path>
              </defs>
              <use href="#stroke-shape-render-1103-d14e1524-69c7-80b3-8004-8758c8585186-0" clip-path="url(&#x27;#inner-stroke-render-1103-d14e1524-69c7-80b3-8004-8758c8585186-0&#x27;)">
              </use>
            </g>
          </g>
        </g>
      </g>
    </g>
  </g>
</svg>