<?xml version="1.0" encoding="UTF-8"?>
<!DOCTYPE svg PUBLIC "-//W3C//DTD SVG 1.1//EN" "http://www.w3.org/Graphics/SVG/1.1/DTD/svg11.dtd">
<svg xmlns="http://www.w3.org/2000/svg" version="1.1" width="229px" height="265px" style="shape-rendering:geometricPrecision; text-rendering:geometricPrecision; image-rendering:optimizeQuality; fill-rule:evenodd; clip-rule:evenodd" xmlns:xlink="http://www.w3.org/1999/xlink">
<g><path style="opacity:0.012" fill="#fbfcfb" d="M 111.5,3.5 C 111.369,2.76109 111.536,2.09442 112,1.5C 112.692,2.43677 112.525,3.10343 111.5,3.5 Z"/></g>
<g><path style="opacity:0.153" fill="#d0dad0" d="M 108.5,1.5 C 108.56,0.956913 108.893,0.62358 109.5,0.5C 110.386,1.32496 110.719,2.32496 110.5,3.5C 110.167,3.5 109.833,3.5 109.5,3.5C 109.672,2.50838 109.338,1.84171 108.5,1.5 Z"/></g>
<g><path style="opacity:0.01" fill="#fcfdfc" d="M 110.5,3.5 C 110.833,3.5 111.167,3.5 111.5,3.5C 111.167,6.16667 110.833,6.16667 110.5,3.5 Z"/></g>
<g><path style="opacity:0.011" fill="#fcfcfc" d="M 112.5,10.5 C 111.5,10.5 110.5,10.5 109.5,10.5C 109.343,9.12656 109.51,7.79323 110,6.5C 110.48,8.13302 111.313,9.46635 112.5,10.5 Z"/></g>
<g><path style="opacity:0.01" fill="#fbfcfb" d="M 103.5,6.5 C 104.404,7.20895 104.737,8.20895 104.5,9.5C 102.143,9.66331 99.8098,9.49665 97.5,9C 100.051,8.99775 102.051,8.16441 103.5,6.5 Z"/></g>
<g><path style="opacity:0.012" fill="#dde4dd" d="M 108.5,6.5 C 108.232,8.09903 108.566,9.43236 109.5,10.5C 109.5,10.8333 109.5,11.1667 109.5,11.5C 108.351,11.2089 107.684,10.3756 107.5,9C 107.528,7.93015 107.861,7.09682 108.5,6.5 Z"/></g>
<g><path style="opacity:0.439" fill="#97ab96" d="M 105.5,10.5 C 101.684,11.4824 97.6836,12.1491 93.5,12.5C 97.1829,10.7501 101.183,10.0834 105.5,10.5 Z"/></g>
<g><path style="opacity:0.014" fill="#fbfcfb" d="M 112.5,11.5 C 112.5,11.1667 112.5,10.8333 112.5,10.5C 115.167,10.8333 115.167,11.1667 112.5,11.5 Z"/></g>
<g><path style="opacity:0.016" fill="#fafcfa" d="M 115.5,11.5 C 116.833,12.1667 116.833,12.1667 115.5,11.5 Z"/></g>
<g><path style="opacity:0.01" fill="#fcfcfc" d="M 121.5,12.5 C 121.897,11.475 122.563,11.3083 123.5,12C 122.906,12.4643 122.239,12.631 121.5,12.5 Z"/></g>
<g><path style="opacity:0.01" fill="#fcfcfc" d="M 117.5,13.5 C 117.897,12.475 118.563,12.3083 119.5,13C 118.906,13.4643 118.239,13.631 117.5,13.5 Z"/></g>
<g><path style="opacity:1" fill="#3b7e71" d="M 114.5,17.5 C 112.608,18.7017 110.774,20.035 109,21.5C 109.409,23.2251 109.242,24.8918 108.5,26.5C 107.109,24.1097 105.109,22.4431 102.5,21.5C 97.8249,23.8358 93.4916,26.6691 89.5,30C 90.0585,30.7247 90.3918,31.5581 90.5,32.5C 89.7052,35.8074 89.0385,39.1408 88.5,42.5C 88.477,44.0666 88.977,45.3999 90,46.5C 91.0306,42.8302 92.1973,39.1636 93.5,35.5C 96.208,37.4357 99.208,37.9357 102.5,37C 106,34.1667 109.167,31 112,27.5C 112.383,28.056 112.883,28.3893 113.5,28.5C 112.741,30.4358 111.741,32.2691 110.5,34C 110.833,34.5 111.167,35 111.5,35.5C 113.277,34.099 114.944,32.599 116.5,31C 118.259,30.2025 119.926,30.3691 121.5,31.5C 120.752,33.3325 119.752,34.9991 118.5,36.5C 122.747,36.4423 125.08,38.4423 125.5,42.5C 122.687,42.4519 120.021,41.7853 117.5,40.5C 116.417,41.365 116.251,42.365 117,43.5C 120.394,44.4558 123.894,44.7892 127.5,44.5C 126.349,38.8635 125.016,33.1968 123.5,27.5C 123.833,26.5 124.5,25.8333 125.5,25.5C 130.9,28.4029 134.734,32.7363 137,38.5C 137.667,37.1667 138.333,37.1667 139,38.5C 140.609,41.4068 142.442,44.0734 144.5,46.5C 154.24,64.1352 156.907,82.8018 152.5,102.5C 150.795,103.088 149.128,103.421 147.5,103.5C 148.09,104.799 149.09,105.632 150.5,106C 148.556,109.61 146.223,112.943 143.5,116C 130.537,123.732 118.37,132.565 107,142.5C 103.409,148.276 101.909,154.609 102.5,161.5C 91.495,161.667 80.495,161.5 69.5,161C 66.9644,160.814 64.631,160.314 62.5,159.5C 62.1262,153.174 62.7929,147.007 64.5,141C 63.8262,133.687 65.9929,127.187 71,121.5C 76.5931,115.904 82.7598,111.07 89.5,107C 92.7096,105.024 96.043,104.358 99.5,105C 98.5494,104.282 98.3828,103.449 99,102.5C 109.518,97.1042 112.518,88.7709 108,77.5C 99.9699,65.635 92.1366,53.635 84.5,41.5C 87.2291,39.6329 86.8957,38.6329 83.5,38.5C 83.1046,34.815 82.9379,31.1483 83,27.5C 83.7724,26.1509 84.9391,25.3176 86.5,25C 85.1235,22.4598 85.7902,20.4598 88.5,19C 96.9591,13.6267 105.626,13.1267 114.5,17.5 Z"/></g>
<g><path style="opacity:0.999" fill="#0c0f0d" d="M 126.5,15.5 C 126.5,16.1667 126.5,16.8333 126.5,17.5C 126.721,20.2788 126.388,22.9455 125.5,25.5C 124.5,25.8333 123.833,26.5 123.5,27.5C 120.276,27.3155 116.942,27.6488 113.5,28.5C 112.883,28.3893 112.383,28.056 112,27.5C 109.167,31 106,34.1667 102.5,37C 99.208,37.9357 96.208,37.4357 93.5,35.5C 92.1973,39.1636 91.0306,42.8302 90,46.5C 88.977,45.3999 88.477,44.0666 88.5,42.5C 89.0385,39.1408 89.7052,35.8074 90.5,32.5C 90.3918,31.5581 90.0585,30.7247 89.5,30C 93.4916,26.6691 97.8249,23.8358 102.5,21.5C 105.109,22.4431 107.109,24.1097 108.5,26.5C 109.242,24.8918 109.409,23.2251 109,21.5C 110.774,20.035 112.608,18.7017 114.5,17.5C 115.833,16.8333 116.833,15.8333 117.5,14.5C 120.722,12.9089 123.722,13.2422 126.5,15.5 Z"/></g>
<g><path style="opacity:0.012" fill="#fbfcfb" d="M 127.5,15.5 C 126.833,14.1667 126.833,14.1667 127.5,15.5 Z"/></g>
<g><path style="opacity:0.008" fill="#fcfdfc" d="M 127.5,15.5 C 128.833,16.1667 128.833,16.1667 127.5,15.5 Z"/></g>
<g><path style="opacity:0.012" fill="#fbfbfb" d="M 128.5,21.5 C 128.451,16.4612 129.118,16.2945 130.5,21C 129.906,21.4643 129.239,21.631 128.5,21.5 Z"/></g>
<g><path style="opacity:1" fill="#302f5f" d="M 119.5,18.5 C 120.568,17.5655 121.901,17.2322 123.5,17.5C 123.663,19.8568 123.497,22.1902 123,24.5C 121.89,26.0368 120.39,26.7035 118.5,26.5C 119.163,24.1964 119.83,21.8631 120.5,19.5C 120.376,18.8933 120.043,18.56 119.5,18.5 Z"/></g>
<g><path style="opacity:0.004" fill="#fdfefd" d="M 70.5,20.5 C 71.2506,19.4265 72.2506,19.2599 73.5,20C 72.552,20.4828 71.552,20.6495 70.5,20.5 Z"/></g>
<g><path style="opacity:0.004" fill="#fdfefd" d="M 70.5,20.5 C 70.5,20.8333 70.5,21.1667 70.5,21.5C 69.8299,21.0187 69.8299,20.6853 70.5,20.5 Z"/></g>
<g><path style="opacity:1" fill="#9061c2" d="M 119.5,18.5 C 120.043,18.56 120.376,18.8933 120.5,19.5C 119.83,21.8631 119.163,24.1964 118.5,26.5C 117.5,26.5 116.5,26.5 115.5,26.5C 115.5,24.5 115.5,22.5 115.5,20.5C 116.833,19.8333 118.167,19.1667 119.5,18.5 Z"/></g>
<g><path style="opacity:0.01" fill="#fcfdfc" d="M 197.5,21.5 C 197.897,20.475 198.563,20.3083 199.5,21C 198.906,21.4643 198.239,21.631 197.5,21.5 Z"/></g>
<g><path style="opacity:0.008" fill="#fcfdfc" d="M 68.5,24.5 C 67.475,24.1034 67.3083,23.4368 68,22.5C 68.4643,23.0944 68.631,23.7611 68.5,24.5 Z"/></g>
<g><path style="opacity:1" fill="#323163" d="M 115.5,20.5 C 115.5,22.5 115.5,24.5 115.5,26.5C 110.402,24.1521 110.402,22.1521 115.5,20.5 Z"/></g>
<g><path style="opacity:0.009" fill="#fcfcfc" d="M 200.5,22.5 C 201.573,23.2506 201.74,24.2506 201,25.5C 200.517,24.552 200.351,23.552 200.5,22.5 Z"/></g>
<g><path style="opacity:0.929" fill="#7c9479" d="M 70.5,22.5 C 72.2608,23.3127 73.9275,24.3127 75.5,25.5C 74.5,25.5 73.5,25.5 72.5,25.5C 71.791,24.596 70.791,24.2627 69.5,24.5C 69.3284,23.5084 69.6618,22.8417 70.5,22.5 Z"/></g>
<g><path style="opacity:0.514" fill="#96ab95" d="M 196.5,23.5 C 197.209,22.596 198.209,22.2627 199.5,22.5C 199.737,23.791 199.404,24.791 198.5,25.5C 198.5,24.1667 197.833,23.5 196.5,23.5 Z"/></g>
<g><path style="opacity:0.004" fill="#fdfefd" d="M 68.5,24.5 C 68.8333,24.5 69.1667,24.5 69.5,24.5C 69.3147,25.1701 68.9813,25.1701 68.5,24.5 Z"/></g>
<g><path style="opacity:0.012" fill="#fbfdfb" d="M 72.5,25.5 C 72.1034,26.525 71.4368,26.6917 70.5,26C 71.0944,25.5357 71.7611,25.369 72.5,25.5 Z"/></g>
<g><path style="opacity:0.012" fill="#f4f6f4" d="M 78.5,26.5 C 77.8868,31.3032 78.2201,33.6365 79.5,33.5C 79.8333,33.5 80.1667,33.5 80.5,33.5C 80.5,34.8333 80.5,36.1667 80.5,37.5C 79.5,37.5 78.5,37.5 77.5,37.5C 77.5,34.1667 77.5,30.8333 77.5,27.5C 72.5,26.9969 72.8333,26.6636 78.5,26.5 Z"/></g>
<g><path style="opacity:1" fill="#363366" d="M 100.5,34.5 C 100.5,31.5 100.5,28.5 100.5,25.5C 104.829,24.6973 106.329,26.6973 105,31.5C 103.729,32.8825 102.229,33.8825 100.5,34.5 Z"/></g>
<g><path style="opacity:1" fill="#9563c7" d="M 100.5,25.5 C 100.5,28.5 100.5,31.5 100.5,34.5C 98.901,34.7678 97.5676,34.4345 96.5,33.5C 97.1495,31.5648 97.4828,29.5648 97.5,27.5C 98.5,26.8333 99.5,26.1667 100.5,25.5 Z"/></g>
<g><path style="opacity:0.125" fill="#dfe5df" d="M 198.5,25.5 C 198.782,26.7777 199.449,27.7777 200.5,28.5C 199.5,28.5 198.5,28.5 197.5,28.5C 197.263,27.209 197.596,26.209 198.5,25.5 Z"/></g>
<g><path style="opacity:0.58" fill="#869e86" d="M 78.5,26.5 C 78.5,26.1667 78.5,25.8333 78.5,25.5C 80.369,27.6353 81.0356,30.3019 80.5,33.5C 80.1667,33.5 79.8333,33.5 79.5,33.5C 79.8016,30.9407 79.4682,28.6074 78.5,26.5 Z"/></g>
<g><path style="opacity:1" fill="#313060" d="M 97.5,27.5 C 97.4828,29.5648 97.1495,31.5648 96.5,33.5C 91.1385,31.1005 91.4719,29.1005 97.5,27.5 Z"/></g>
<g><path style="opacity:0.016" fill="#fafcfa" d="M 208.5,29.5 C 209.833,30.1667 209.833,30.1667 208.5,29.5 Z"/></g>
<g><path style="opacity:0.004" fill="#fdfefd" d="M 211.5,31.5 C 210.833,30.1667 210.833,30.1667 211.5,31.5 Z"/></g>
<g><path style="opacity:1" fill="#3b7e71" d="M 164.5,61.5 C 163.07,61.4208 161.736,61.7542 160.5,62.5C 159.304,62.1543 159.304,61.6543 160.5,61C 158.19,60.5034 155.857,60.3367 153.5,60.5C 152.578,55.327 150.578,50.6603 147.5,46.5C 148.122,44.665 149.456,43.4983 151.5,43C 165.971,37.008 180.971,33.1747 196.5,31.5C 204.572,31.5902 210.238,35.2568 213.5,42.5C 210.526,48.1638 205.859,51.6638 199.5,53C 187.479,54.8991 175.812,57.7324 164.5,61.5 Z"/></g>
<g><path style="opacity:0.008" fill="#fcfdfc" d="M 211.5,31.5 C 212.167,31.5 212.5,31.8333 212.5,32.5C 212.167,32.1667 211.833,31.8333 211.5,31.5 Z"/></g>
<g><path style="opacity:0.008" fill="#fcfdfc" d="M 212.5,32.5 C 213.167,32.5 213.5,32.8333 213.5,33.5C 213.167,33.1667 212.833,32.8333 212.5,32.5 Z"/></g>
<g><path style="opacity:1" fill="#03380a" d="M 123.5,27.5 C 125.016,33.1968 126.349,38.8635 127.5,44.5C 123.894,44.7892 120.394,44.4558 117,43.5C 116.251,42.365 116.417,41.365 117.5,40.5C 120.021,41.7853 122.687,42.4519 125.5,42.5C 125.08,38.4423 122.747,36.4423 118.5,36.5C 119.752,34.9991 120.752,33.3325 121.5,31.5C 119.926,30.3691 118.259,30.2025 116.5,31C 114.944,32.599 113.277,34.099 111.5,35.5C 111.167,35 110.833,34.5 110.5,34C 111.741,32.2691 112.741,30.4358 113.5,28.5C 116.942,27.6488 120.276,27.3155 123.5,27.5 Z"/></g>
<g><path style="opacity:0.009" fill="#fcfdfc" d="M 213.5,33.5 C 224.004,34.805 224.004,35.4716 213.5,35.5C 213.5,34.8333 213.5,34.1667 213.5,33.5 Z"/></g>
<g><path style="opacity:0.649" fill="#8ea58e" d="M 215.5,37.5 C 217.265,36.5386 219.265,36.2053 221.5,36.5C 221.737,37.791 221.404,38.791 220.5,39.5C 219.448,37.744 217.781,37.0773 215.5,37.5 Z"/></g>
<g><path style="opacity:0.008" fill="#fcfdfc" d="M 222.5,36.5 C 223.525,36.8966 223.692,37.5632 223,38.5C 222.536,37.9056 222.369,37.2389 222.5,36.5 Z"/></g>
<g><path style="opacity:0.01" fill="#fcfcfc" d="M 74.5,38.5 C 74.8966,37.475 75.5632,37.3083 76.5,38C 75.9056,38.4643 75.2389,38.631 74.5,38.5 Z"/></g>
<g><path style="opacity:0.612" fill="#819a80" d="M 80.5,37.5 C 81.0431,37.56 81.3764,37.8933 81.5,38.5C 80.3112,39.4287 78.9778,39.762 77.5,39.5C 78.5,38.8333 79.5,38.1667 80.5,37.5 Z"/></g>
<g><path style="opacity:0.375" fill="#a8b9a8" d="M 218.5,39.5 C 217.833,40.1667 217.167,40.8333 216.5,41.5C 215.957,41.44 215.624,41.1067 215.5,40.5C 216.325,39.6143 217.325,39.281 218.5,39.5 Z"/></g>
<g><path style="opacity:0.553" fill="#748f73" d="M 77.5,39.5 C 78.8333,40.1667 80.1667,40.8333 81.5,41.5C 79.5853,41.2155 77.9187,41.5489 76.5,42.5C 75.0222,42.762 73.6888,42.4287 72.5,41.5C 73.8498,40.0499 75.5165,39.3832 77.5,39.5 Z"/></g>
<g><path style="opacity:0.016" fill="#fafcfa" d="M 219.5,40.5 C 220.833,41.1667 220.833,41.1667 219.5,40.5 Z"/></g>
<g><path style="opacity:0.027" fill="#f7f9f7" d="M 217.5,41.5 C 218.833,42.1667 218.833,42.1667 217.5,41.5 Z"/></g>
<g><path style="opacity:0.012" fill="#fafbfa" d="M 76.5,43.5 C 76.5,43.1667 76.5,42.8333 76.5,42.5C 81.8333,42.8333 81.8333,43.1667 76.5,43.5 Z"/></g>
<g><path style="opacity:0.011" fill="#fcfcfc" d="M 76.5,43.5 C 75.3991,44.5983 74.0657,44.765 72.5,44C 73.7932,43.51 75.1266,43.3433 76.5,43.5 Z"/></g>
<g><path style="opacity:0.996" fill="#1f491f" d="M 108.5,1.5 C 109.338,1.84171 109.672,2.50838 109.5,3.5C 109.443,4.60895 109.11,5.60895 108.5,6.5C 107.861,7.09682 107.528,7.93015 107.5,9C 107.684,10.3756 108.351,11.2089 109.5,11.5C 110.5,11.5 111.5,11.5 112.5,11.5C 113.209,12.404 114.209,12.7373 115.5,12.5C 115.833,13.5 116.5,14.1667 117.5,14.5C 116.833,15.8333 115.833,16.8333 114.5,17.5C 105.626,13.1267 96.9591,13.6267 88.5,19C 85.7902,20.4598 85.1235,22.4598 86.5,25C 84.9391,25.3176 83.7724,26.1509 83,27.5C 82.9379,31.1483 83.1046,34.815 83.5,38.5C 86.8957,38.6329 87.2291,39.6329 84.5,41.5C 92.1366,53.635 99.9699,65.635 108,77.5C 112.518,88.7709 109.518,97.1042 99,102.5C 98.3828,103.449 98.5494,104.282 99.5,105C 96.043,104.358 92.7096,105.024 89.5,107C 82.7598,111.07 76.5931,115.904 71,121.5C 65.9929,127.187 63.8262,133.687 64.5,141C 62.7929,147.007 62.1262,153.174 62.5,159.5C 61.5,159.5 60.5,159.5 59.5,159.5C 59.5,155.5 59.5,151.5 59.5,147.5C 59.5,146.167 59.5,144.833 59.5,143.5C 59.9258,142.472 59.9258,141.139 59.5,139.5C 58.7095,138.599 57.7095,137.932 56.5,137.5C 56.5,136.833 56.5,136.167 56.5,135.5C 57.1667,135.5 57.8333,135.5 58.5,135.5C 58.56,136.043 58.8933,136.376 59.5,136.5C 61.9151,129.322 65.5818,122.989 70.5,117.5C 73.7642,115.906 76.4309,113.573 78.5,110.5C 81.3577,106.99 85.0243,104.657 89.5,103.5C 91.3542,102.759 93.0209,101.759 94.5,100.5C 107.668,94.8628 110.001,86.1961 101.5,74.5C 101.265,73.9033 100.765,73.5699 100,73.5C 97.9701,73.9537 96.1368,74.6204 94.5,75.5C 92.901,75.2322 91.5676,75.5655 90.5,76.5C 87.2186,76.4203 84.2186,77.087 81.5,78.5C 79.901,78.2322 78.5676,78.5655 77.5,79.5C 75.5853,79.2155 73.9187,79.5489 72.5,80.5C 70.2646,80.2053 68.2646,80.5386 66.5,81.5C 64.2646,81.2053 62.2646,81.5386 60.5,82.5C 56.6286,82.185 52.9619,82.5184 49.5,83.5C 48.5,84.1667 47.5,84.8333 46.5,85.5C 45.7659,84.2921 45.4326,82.9587 45.5,81.5C 40.6511,81.8959 37.3177,79.8959 35.5,75.5C 34.0095,74.7564 32.5095,74.0897 31,73.5C 30.5357,72.9056 30.369,72.2389 30.5,71.5C 31.8333,71.1667 33.1667,70.8333 34.5,70.5C 36.0481,70.1788 36.7148,69.1788 36.5,67.5C 39.372,62.9569 43.372,59.9569 48.5,58.5C 48.3284,57.5084 48.6618,56.8417 49.5,56.5C 58.6796,56.9133 67.6796,55.9133 76.5,53.5C 79.1667,53.5 81.8333,53.5 84.5,53.5C 85.675,53.719 86.675,53.3857 87.5,52.5C 87.3764,51.8933 87.0431,51.56 86.5,51.5C 85.8333,51.1667 85.1667,50.8333 84.5,50.5C 84.6716,49.5084 84.3382,48.8417 83.5,48.5C 82.5448,46.2543 81.8782,43.921 81.5,41.5C 80.1667,40.8333 78.8333,40.1667 77.5,39.5C 78.9778,39.762 80.3112,39.4287 81.5,38.5C 81.3764,37.8933 81.0431,37.56 80.5,37.5C 80.5,36.1667 80.5,34.8333 80.5,33.5C 81.0356,30.3019 80.369,27.6353 78.5,25.5C 77.5,25.5 76.5,25.5 75.5,25.5C 73.9275,24.3127 72.2608,23.3127 70.5,22.5C 70.5,22.1667 70.5,21.8333 70.5,21.5C 74.1947,22.4603 77.8614,22.4603 81.5,21.5C 84.3828,16.943 88.3828,13.943 93.5,12.5C 97.6836,12.1491 101.684,11.4824 105.5,10.5C 105.528,7.08358 106.528,4.08358 108.5,1.5 Z"/></g>
<g><path style="opacity:0.004" fill="#fdfefd" d="M 218.5,43.5 C 219.833,44.1667 219.833,44.1667 218.5,43.5 Z"/></g>
<g><path style="opacity:0.01" fill="#fcfcfc" d="M 217.5,44.5 C 217.833,44.5 218.167,44.5 218.5,44.5C 218.737,45.791 218.404,46.791 217.5,47.5C 217.5,46.5 217.5,45.5 217.5,44.5 Z"/></g>
<g><path style="opacity:0.008" fill="#fcfdfc" d="M 216.5,47.5 C 216.833,47.5 217.167,47.5 217.5,47.5C 217.315,48.1701 216.981,48.1701 216.5,47.5 Z"/></g>
<g><path style="opacity:0.016" fill="#fafcfa" d="M 83.5,48.5 C 82.8333,49.1667 82.8333,49.1667 83.5,48.5 Z"/></g>
<g><path style="opacity:0.997" fill="#254e24" d="M 126.5,17.5 C 127.167,18.8333 127.833,20.1667 128.5,21.5C 131.796,25.2976 135.296,28.9643 139,32.5C 141.242,29.5261 143.408,29.1928 145.5,31.5C 142.179,32.0981 141.179,33.7647 142.5,36.5C 142.5,37.1667 142.833,37.5 143.5,37.5C 143.685,39.1958 144.519,40.5291 146,41.5C 160.715,34.5262 175.881,30.1928 191.5,28.5C 193.179,28.7148 194.179,28.0481 194.5,26.5C 194.427,24.9731 195.094,23.9731 196.5,23.5C 197.833,23.5 198.5,24.1667 198.5,25.5C 197.596,26.209 197.263,27.209 197.5,28.5C 198.5,28.5 199.5,28.5 200.5,28.5C 203.327,28.5838 205.994,29.2504 208.5,30.5C 209.833,32.5 211.5,34.1667 213.5,35.5C 213.833,36.5 214.5,37.1667 215.5,37.5C 217.781,37.0773 219.448,37.744 220.5,39.5C 219.833,39.5 219.167,39.5 218.5,39.5C 217.325,39.281 216.325,39.6143 215.5,40.5C 215.624,41.1067 215.957,41.44 216.5,41.5C 216.5,42.1667 216.833,42.5 217.5,42.5C 217.5,43.1667 217.5,43.8333 217.5,44.5C 216.596,45.209 216.263,46.209 216.5,47.5C 215.833,47.5 215.5,47.8333 215.5,48.5C 214.833,48.5 214.5,48.8333 214.5,49.5C 213.833,49.5 213.5,49.8333 213.5,50.5C 212.508,50.3284 211.842,50.6618 211.5,51.5C 210.167,51.8333 210.167,52.1667 211.5,52.5C 211.5,52.8333 211.5,53.1667 211.5,53.5C 210.081,54.4511 208.415,54.7845 206.5,54.5C 205.833,54.5 205.5,54.8333 205.5,55.5C 204.508,55.3284 203.842,55.6618 203.5,56.5C 202.209,56.2627 201.209,56.596 200.5,57.5C 198.585,57.2155 196.919,57.5489 195.5,58.5C 188.891,59.0872 182.558,60.4205 176.5,62.5C 174.901,62.2322 173.568,62.5655 172.5,63.5C 170.901,63.2322 169.568,63.5655 168.5,64.5C 167.167,64.5 165.833,64.5 164.5,64.5C 165.398,63.8423 166.398,63.1757 167.5,62.5C 166.675,61.6143 165.675,61.281 164.5,61.5C 175.812,57.7324 187.479,54.8991 199.5,53C 205.859,51.6638 210.526,48.1638 213.5,42.5C 210.238,35.2568 204.572,31.5902 196.5,31.5C 180.971,33.1747 165.971,37.008 151.5,43C 149.456,43.4983 148.122,44.665 147.5,46.5C 146.528,43.9017 145.528,43.9017 144.5,46.5C 142.442,44.0734 140.609,41.4068 139,38.5C 138.333,37.1667 137.667,37.1667 137,38.5C 134.734,32.7363 130.9,28.4029 125.5,25.5C 126.388,22.9455 126.721,20.2788 126.5,17.5 Z M 145.5,31.5 C 144.075,32.922 143.075,34.5887 142.5,36.5C 141.179,33.7647 142.179,32.0981 145.5,31.5 Z"/></g>
<g><path style="opacity:0.008" fill="#fcfdfc" d="M 144.5,37.5 C 145.833,38.1667 145.833,38.1667 144.5,37.5 Z"/></g>
<g><path style="opacity:0.02" fill="#f9fbf9" d="M 144.5,37.5 C 143.833,36.1667 143.833,36.1667 144.5,37.5 Z"/></g>
<g><path style="opacity:0.01" fill="#fcfcfc" d="M 171.5,30.5 C 172.251,29.4265 173.251,29.2599 174.5,30C 173.552,30.4828 172.552,30.6495 171.5,30.5 Z"/></g>
<g><path style="opacity:0.008" fill="#fcfdfc" d="M 146.5,29.5 C 147.833,30.1667 147.833,30.1667 146.5,29.5 Z"/></g>
<g><path style="opacity:0.239" fill="#dbe2db" d="M 193.5,26.5 C 193.833,26.5 194.167,26.5 194.5,26.5C 194.179,28.0481 193.179,28.7148 191.5,28.5C 191.5,28.1667 191.5,27.8333 191.5,27.5C 192.492,27.6716 193.158,27.3382 193.5,26.5 Z"/></g>
<g><path style="opacity:0.008" fill="#fcfdfc" d="M 142.5,27.5 C 143.833,28.1667 143.833,28.1667 142.5,27.5 Z"/></g>
<g><path style="opacity:0.012" fill="#fcfcfb" d="M 191.5,27.5 C 189.473,27.6621 187.473,27.4955 185.5,27C 187.712,26.2109 189.712,26.3775 191.5,27.5 Z"/></g>
<g><path style="opacity:0.024" fill="#f8faf8" d="M 193.5,26.5 C 192.833,25.1667 192.833,25.1667 193.5,26.5 Z"/></g>
<g><path style="opacity:0.016" fill="#fafcfa" d="M 215.5,48.5 C 215.833,48.5 216.167,48.5 216.5,48.5C 216.315,49.1701 215.981,49.1701 215.5,48.5 Z"/></g>
<g><path style="opacity:0.016" fill="#fafcfa" d="M 214.5,49.5 C 214.833,49.5 215.167,49.5 215.5,49.5C 215.315,50.1701 214.981,50.1701 214.5,49.5 Z"/></g>
<g><path style="opacity:0.009" fill="#fcfdfc" d="M 84.5,50.5 C 84.5,51.1667 84.5,51.8333 84.5,52.5C 75.3337,52.4656 75.3337,51.7989 84.5,50.5 Z"/></g>
<g><path style="opacity:0.012" fill="#fbfdfb" d="M 213.5,50.5 C 213.833,50.5 214.167,50.5 214.5,50.5C 214.315,51.1701 213.981,51.1701 213.5,50.5 Z"/></g>
<g><path style="opacity:0.014" fill="#fbfbfb" d="M 211.5,52.5 C 211.5,52.1667 211.5,51.8333 211.5,51.5C 212.167,51.5 212.833,51.5 213.5,51.5C 213.158,52.3382 212.492,52.6716 211.5,52.5 Z"/></g>
<g><path style="opacity:0.013" fill="#fbfcfb" d="M 76.5,53.5 C 74.8008,53.6602 73.1341,53.4935 71.5,53C 73.3869,52.2204 75.0536,52.3871 76.5,53.5 Z"/></g>
<g><path style="opacity:0.294" fill="#abbcaa" d="M 86.5,51.5 C 87.0431,51.56 87.3764,51.8933 87.5,52.5C 86.675,53.3857 85.675,53.719 84.5,53.5C 84.5,53.1667 84.5,52.8333 84.5,52.5C 85.4916,52.6716 86.1583,52.3382 86.5,51.5 Z"/></g>
<g><path style="opacity:0.004" fill="#fdfefd" d="M 47.5,54.5 C 47.8966,53.475 48.5632,53.3083 49.5,54C 48.9056,54.4643 48.2389,54.631 47.5,54.5 Z"/></g>
<g><path style="opacity:0.004" fill="#fdfefd" d="M 51.5,55.5 C 50.8333,54.1667 50.8333,54.1667 51.5,55.5 Z"/></g>
<g><path style="opacity:0.788" fill="#7c967b" d="M 211.5,53.5 C 212.376,53.3691 213.043,53.7025 213.5,54.5C 211.257,55.4742 208.924,55.8076 206.5,55.5C 206.5,55.1667 206.5,54.8333 206.5,54.5C 208.415,54.7845 210.081,54.4511 211.5,53.5 Z"/></g>
<g><path style="opacity:0.004" fill="#fdfefd" d="M 214.5,54.5 C 215.833,55.1667 215.833,55.1667 214.5,54.5 Z"/></g>
<g><path style="opacity:0.009" fill="#fcfcfc" d="M 51.5,55.5 C 52.8734,55.3433 54.2068,55.51 55.5,56C 53.9343,56.765 52.6009,56.5983 51.5,55.5 Z"/></g>
<g><path style="opacity:0.016" fill="#fafcfa" d="M 205.5,55.5 C 205.833,55.5 206.167,55.5 206.5,55.5C 206.315,56.1701 205.981,56.1701 205.5,55.5 Z"/></g>
<g><path style="opacity:1" fill="#3c7f71" d="M 87.5,56.5 C 89.3904,56.2965 90.8904,56.9632 92,58.5C 94.3773,62.088 96.8773,65.588 99.5,69C 88.5543,71.8704 77.5543,74.537 66.5,77C 58.8333,77.6667 51.1667,77.6667 43.5,77C 42.3333,76.5 41.5,75.6667 41,74.5C 39.3567,69.5724 40.8567,66.0724 45.5,64C 59.5093,60.7891 73.5093,58.2891 87.5,56.5 Z"/></g>
<g><path style="opacity:0.01" fill="#fcfdfc" d="M 203.5,57.5 C 203.5,57.1667 203.5,56.8333 203.5,56.5C 204.167,56.5 204.833,56.5 205.5,56.5C 205.158,57.3382 204.492,57.6716 203.5,57.5 Z"/></g>
<g><path style="opacity:0.011" fill="#fcfcfc" d="M 207.5,57.5 C 208.946,56.3871 210.613,56.2204 212.5,57C 210.866,57.4935 209.199,57.6602 207.5,57.5 Z"/></g>
<g><path style="opacity:0.027" fill="#fafbfa" d="M 45.5,55.5 C 46.7759,56.3864 46.7759,57.3864 45.5,58.5C 44.913,57.7666 44.913,56.7666 45.5,55.5 Z"/></g>
<g><path style="opacity:0.38" fill="#a4b6a4" d="M 49.5,56.5 C 48.6618,56.8417 48.3284,57.5084 48.5,58.5C 47.2241,57.6136 47.2241,56.6136 48.5,55.5C 49.1067,55.6236 49.44,55.9569 49.5,56.5 Z"/></g>
<g><path style="opacity:0.008" fill="#fcfdfc" d="M 200.5,57.5 C 201.5,57.5 202.5,57.5 203.5,57.5C 202.5,58.8333 201.5,58.8333 200.5,57.5 Z"/></g>
<g><path style="opacity:0.012" fill="#fcfcfb" d="M 195.5,58.5 C 196.873,58.3433 198.207,58.51 199.5,59C 197.934,59.765 196.601,59.5983 195.5,58.5 Z"/></g>
<g><path style="opacity:0.012" fill="#fbfcfb" d="M 191.5,60.5 C 192.251,59.4265 193.251,59.2599 194.5,60C 193.552,60.4828 192.552,60.6495 191.5,60.5 Z"/></g>
<g><path style="opacity:0.998" fill="#1f491f" d="M 147.5,46.5 C 150.578,50.6603 152.578,55.327 153.5,60.5C 155.857,60.3367 158.19,60.5034 160.5,61C 159.304,61.6543 159.304,62.1543 160.5,62.5C 161.736,61.7542 163.07,61.4208 164.5,61.5C 165.675,61.281 166.675,61.6143 167.5,62.5C 166.398,63.1757 165.398,63.8423 164.5,64.5C 164.5,64.8333 164.5,65.1667 164.5,65.5C 162.901,65.2322 161.568,65.5655 160.5,66.5C 159.167,66.5 157.833,66.5 156.5,66.5C 157.824,74.4396 158.491,82.4396 158.5,90.5C 157.523,93.2869 157.19,96.2869 157.5,99.5C 157.167,99.5 156.833,99.5 156.5,99.5C 155.199,100.64 154.032,101.973 153,103.5C 152.601,103.272 152.435,102.938 152.5,102.5C 156.907,82.8018 154.24,64.1352 144.5,46.5C 145.528,43.9017 146.528,43.9017 147.5,46.5 Z"/></g>
<g><path style="opacity:0.01" fill="#fcfdfc" d="M 186.5,61.5 C 187.251,60.4265 188.251,60.2599 189.5,61C 188.552,61.4828 187.552,61.6495 186.5,61.5 Z"/></g>
<g><path style="opacity:0.01" fill="#fcfcfc" d="M 182.5,62.5 C 183.251,61.4265 184.251,61.2599 185.5,62C 184.552,62.4828 183.552,62.6495 182.5,62.5 Z"/></g>
<g><path style="opacity:0.009" fill="#fcfdfc" d="M 176.5,63.5 C 176.5,63.1667 176.5,62.8333 176.5,62.5C 181.833,62.8333 181.833,63.1667 176.5,63.5 Z"/></g>
<g><path style="opacity:0.009" fill="#fcfcfc" d="M 172.5,63.5 C 173.833,63.5 175.167,63.5 176.5,63.5C 175.167,64.8333 173.833,64.8333 172.5,63.5 Z"/></g>
<g><path style="opacity:0.004" fill="#fdfefd" d="M 35.5,64.5 C 36.8333,65.1667 36.8333,65.1667 35.5,64.5 Z"/></g>
<g><path style="opacity:0.012" fill="#fbfcfb" d="M 168.5,65.5 C 168.5,65.1667 168.5,64.8333 168.5,64.5C 172.5,64.8333 172.5,65.1667 168.5,65.5 Z"/></g>
<g><path style="opacity:0.009" fill="#fcfcfc" d="M 164.5,65.5 C 165.833,65.5 167.167,65.5 168.5,65.5C 167.167,66.8333 165.833,66.8333 164.5,65.5 Z"/></g>
<g><path style="opacity:0.009" fill="#e0e6e0" d="M 36.5,67.5 C 36.7148,69.1788 36.0481,70.1788 34.5,70.5C 35.1888,69.2928 35.3554,67.9594 35,66.5C 35.3826,67.056 35.8826,67.3893 36.5,67.5 Z"/></g>
<g><path style="opacity:0.01" fill="#fcfdfc" d="M 160.5,66.5 C 161.552,66.3505 162.552,66.5172 163.5,67C 162.251,67.7401 161.251,67.5735 160.5,66.5 Z"/></g>
<g><path style="opacity:0.016" fill="#fafbfa" d="M 157.5,67.5 C 159.646,67.6964 159.812,68.6964 158,70.5C 157.517,69.552 157.351,68.552 157.5,67.5 Z"/></g>
<g><path style="opacity:0.004" fill="#fdfefd" d="M 30.5,71.5 C 29.8333,70.1667 29.8333,70.1667 30.5,71.5 Z"/></g>
<g><path style="opacity:0.004" fill="#fdfefd" d="M 28.5,72.5 C 29.8333,73.1667 29.8333,73.1667 28.5,72.5 Z"/></g>
<g><path style="opacity:0.027" fill="#fafbfa" d="M 101.5,74.5 C 101.489,77.0009 100.822,77.1676 99.5,75C 100.094,74.5357 100.761,74.369 101.5,74.5 Z"/></g>
<g><path style="opacity:0.01" fill="#fcfdfc" d="M 94.5,76.5 C 94.5,76.1667 94.5,75.8333 94.5,75.5C 99.8333,75.8333 99.8333,76.1667 94.5,76.5 Z"/></g>
<g><path style="opacity:0.01" fill="#fcfcfc" d="M 90.5,76.5 C 91.8333,76.5 93.1667,76.5 94.5,76.5C 93.1667,77.8333 91.8333,77.8333 90.5,76.5 Z"/></g>
<g><path style="opacity:1" fill="#023a0e" d="M 142.5,65.5 C 144.41,66.9746 145.576,68.9746 146,71.5C 147.338,82.0923 146.338,92.4257 143,102.5C 140.067,107.601 136.234,111.935 131.5,115.5C 143.254,101.105 146.921,84.4379 142.5,65.5 Z"/></g>
<g><path style="opacity:0.013" fill="#fbfcfb" d="M 86.5,78.5 C 87.2506,77.4265 88.2506,77.2599 89.5,78C 88.552,78.4828 87.552,78.6495 86.5,78.5 Z"/></g>
<g><path style="opacity:0.009" fill="#fcfdfc" d="M 81.5,78.5 C 82.8734,78.3433 84.2068,78.51 85.5,79C 83.9343,79.765 82.6009,79.5983 81.5,78.5 Z"/></g>
<g><path style="opacity:0.007" fill="#fdfdfd" d="M 159.5,90.5 C 159.334,86.4862 159.501,82.4862 160,78.5C 160.812,82.6888 160.645,86.6888 159.5,90.5 Z"/></g>
<g><path style="opacity:0.013" fill="#fbfcfb" d="M 77.5,79.5 C 78.552,79.3505 79.552,79.5172 80.5,80C 79.2506,80.7401 78.2506,80.5735 77.5,79.5 Z"/></g>
<g><path style="opacity:0.009" fill="#fcfdfc" d="M 72.5,81.5 C 72.5,81.1667 72.5,80.8333 72.5,80.5C 77.8333,80.8333 77.8333,81.1667 72.5,81.5 Z"/></g>
<g><path style="opacity:0.01" fill="#fcfdfc" d="M 66.5,82.5 C 66.5,82.1667 66.5,81.8333 66.5,81.5C 68.5,81.5 70.5,81.5 72.5,81.5C 70.7354,82.4614 68.7354,82.7947 66.5,82.5 Z"/></g>
<g><path style="opacity:0.008" fill="#fcfcfc" d="M 41.5,83.5 C 42.3864,82.2241 43.3864,82.2241 44.5,83.5C 43.7666,84.087 42.7666,84.087 41.5,83.5 Z"/></g>
<g><path style="opacity:0.007" fill="#fdfdfd" d="M 60.5,83.5 C 60.5,83.1667 60.5,82.8333 60.5,82.5C 62.5,82.5 64.5,82.5 66.5,82.5C 64.7354,83.4614 62.7354,83.7947 60.5,83.5 Z"/></g>
<g><path style="opacity:0.012" fill="#fbfcfb" d="M 49.5,83.5 C 53.1667,83.5 56.8333,83.5 60.5,83.5C 56.9394,84.2302 53.2728,84.8969 49.5,85.5C 49.5,84.8333 49.5,84.1667 49.5,83.5 Z"/></g>
<g><path style="opacity:0.008" fill="#fcfdfc" d="M 46.5,85.5 C 45.8333,86.1667 45.8333,86.1667 46.5,85.5 Z"/></g>
<g><path style="opacity:0.004" fill="#fdfefd" d="M 49.5,85.5 C 48.8333,86.1667 48.8333,86.1667 49.5,85.5 Z"/></g>
<g><path style="opacity:0.01" fill="#fcfcfc" d="M 158.5,90.5 C 158.833,90.5 159.167,90.5 159.5,90.5C 159.167,99.8333 158.833,99.8333 158.5,90.5 Z"/></g>
<g><path style="opacity:0.012" fill="#fbfdfb" d="M 102.5,92.5 C 103.833,93.1667 103.833,93.1667 102.5,92.5 Z"/></g>
<g><path style="opacity:0.006" fill="#fdfdfd" d="M 87.5,97.5 C 88.525,97.8966 88.6917,98.5632 88,99.5C 87.5357,98.9056 87.369,98.2389 87.5,97.5 Z"/></g>
<g><path style="opacity:0.012" fill="#fbfdfb" d="M 93.5,97.5 C 94.8333,98.1667 94.8333,98.1667 93.5,97.5 Z"/></g>
<g><path style="opacity:1" fill="#728c6f" d="M 93.5,98.5 C 93.8333,99.1667 94.1667,99.8333 94.5,100.5C 93.0209,101.759 91.3542,102.759 89.5,103.5C 89.9528,102.542 90.6195,101.708 91.5,101C 89.2157,99.6371 89.049,98.1371 91,96.5C 91.7083,97.3805 92.5416,98.0472 93.5,98.5 Z"/></g>
<g><path style="opacity:0.009" fill="#fcfcfc" d="M 157.5,99.5 C 158.573,100.251 158.74,101.251 158,102.5C 157.517,101.552 157.351,100.552 157.5,99.5 Z"/></g>
<g><path style="opacity:0.016" fill="#fafcfa" d="M 87.5,101.5 C 88.8333,102.167 88.8333,102.167 87.5,101.5 Z"/></g>
<g><path style="opacity:0.016" fill="#fafcfa" d="M 159.5,104.5 C 160.833,105.167 160.833,105.167 159.5,104.5 Z"/></g>
<g><path style="opacity:0.004" fill="#fdfefd" d="M 162.5,106.5 C 163.833,107.167 163.833,107.167 162.5,106.5 Z"/></g>
<g><path style="opacity:0.8" fill="#8ea58d" d="M 159.5,106.5 C 160.609,106.557 161.609,106.89 162.5,107.5C 162.5,108.833 161.833,109.5 160.5,109.5C 159.167,108.833 157.833,108.167 156.5,107.5C 157.791,107.737 158.791,107.404 159.5,106.5 Z"/></g>
<g><path style="opacity:0.013" fill="#fbfcfb" d="M 160.5,109.5 C 160.5,109.833 160.5,110.167 160.5,110.5C 156.5,110.167 156.5,109.833 160.5,109.5 Z"/></g>
<g><path style="opacity:0.004" fill="#fdfefd" d="M 160.5,110.5 C 161.833,111.167 161.833,111.167 160.5,110.5 Z"/></g>
<g><path style="opacity:1" fill="#043b10" d="M 107.5,107.5 C 108.043,107.56 108.376,107.893 108.5,108.5C 97.2604,112.249 87.4271,118.249 79,126.5C 78.6848,125.092 79.0181,123.759 80,122.5C 87.7335,114.719 96.9002,109.719 107.5,107.5 Z"/></g>
<g><path style="opacity:0.012" fill="#fbfdfb" d="M 152.5,111.5 C 153.833,112.167 153.833,112.167 152.5,111.5 Z"/></g>
<g><path style="opacity:0.78" fill="#789376" d="M 78.5,110.5 C 76.4309,113.573 73.7642,115.906 70.5,117.5C 72.5691,114.427 75.2358,112.094 78.5,110.5 Z"/></g>
<g><path style="opacity:0.02" fill="#f9fbf9" d="M 148.5,116.5 C 149.833,117.167 149.833,117.167 148.5,116.5 Z"/></g>
<g><path style="opacity:0.02" fill="#f9fbf9" d="M 147.5,117.5 C 147.833,117.5 148.167,117.5 148.5,117.5C 148.315,118.17 147.981,118.17 147.5,117.5 Z"/></g>
<g><path style="opacity:0.016" fill="#fafcfa" d="M 146.5,118.5 C 146.833,118.5 147.167,118.5 147.5,118.5C 147.315,119.17 146.981,119.17 146.5,118.5 Z"/></g>
<g><path style="opacity:0.016" fill="#fafcfa" d="M 146.5,119.5 C 145.833,120.167 145.833,120.167 146.5,119.5 Z"/></g>
<g><path style="opacity:0.004" fill="#fdfefd" d="M 145.5,120.5 C 144.833,121.167 144.833,121.167 145.5,120.5 Z"/></g>
<g><path style="opacity:0.016" fill="#fafcfa" d="M 142.5,121.5 C 143.833,122.167 143.833,122.167 142.5,121.5 Z"/></g>
<g><path style="opacity:0.016" fill="#fafcfa" d="M 141.5,122.5 C 141.833,122.5 142.167,122.5 142.5,122.5C 142.315,123.17 141.981,123.17 141.5,122.5 Z"/></g>
<g><path style="opacity:0.996" fill="#224921" d="M 156.5,99.5 C 154.381,103.05 155.381,105.05 159.5,105.5C 159.5,105.833 159.5,106.167 159.5,106.5C 158.791,107.404 157.791,107.737 156.5,107.5C 153.858,107.488 152.525,108.821 152.5,111.5C 150.457,112.579 149.124,114.246 148.5,116.5C 147.833,116.5 147.5,116.833 147.5,117.5C 146.833,117.5 146.5,117.833 146.5,118.5C 144.596,118.738 143.262,119.738 142.5,121.5C 141.833,121.5 141.5,121.833 141.5,122.5C 140.508,122.328 139.842,122.662 139.5,123.5C 138.833,123.5 138.5,123.833 138.5,124.5C 137.508,124.328 136.842,124.662 136.5,125.5C 134.973,125.427 133.973,126.094 133.5,127.5C 132.833,127.5 132.5,127.833 132.5,128.5C 131.508,128.328 130.842,128.662 130.5,129.5C 128.973,129.427 127.973,130.094 127.5,131.5C 126.833,131.5 126.5,131.833 126.5,132.5C 125.508,132.328 124.842,132.662 124.5,133.5C 122.973,133.427 121.973,134.094 121.5,135.5C 120.833,135.5 120.5,135.833 120.5,136.5C 119.833,136.5 119.5,136.833 119.5,137.5C 118.508,137.328 117.842,137.662 117.5,138.5C 116.167,139.167 116.167,139.833 117.5,140.5C 117.973,141.906 118.973,142.573 120.5,142.5C 120.5,142.833 120.5,143.167 120.5,143.5C 120.062,143.435 119.728,143.601 119.5,144C 121.041,145.371 122.375,146.871 123.5,148.5C 124.028,149.721 124.695,150.887 125.5,152C 124.906,152.464 124.239,152.631 123.5,152.5C 123.5,151.833 123.167,151.5 122.5,151.5C 120.833,149.5 119.167,147.5 117.5,145.5C 115.206,141.435 112.873,141.101 110.5,144.5C 108.75,145.659 107.75,147.326 107.5,149.5C 106.596,150.209 106.263,151.209 106.5,152.5C 105.597,155.391 105.264,158.391 105.5,161.5C 104.5,161.5 103.5,161.5 102.5,161.5C 101.909,154.609 103.409,148.276 107,142.5C 118.37,132.565 130.537,123.732 143.5,116C 146.223,112.943 148.556,109.61 150.5,106C 149.09,105.632 148.09,104.799 147.5,103.5C 149.128,103.421 150.795,103.088 152.5,102.5C 152.435,102.938 152.601,103.272 153,103.5C 154.032,101.973 155.199,100.64 156.5,99.5 Z"/></g>
<g><path style="opacity:0.008" fill="#fcfdfc" d="M 139.5,124.5 C 139.5,124.167 139.5,123.833 139.5,123.5C 140.167,123.5 140.833,123.5 141.5,123.5C 141.158,124.338 140.492,124.672 139.5,124.5 Z"/></g>
<g><path style="opacity:0.016" fill="#fafcfa" d="M 138.5,124.5 C 138.833,124.5 139.167,124.5 139.5,124.5C 139.315,125.17 138.981,125.17 138.5,124.5 Z"/></g>
<g><path style="opacity:0.008" fill="#fcfdfc" d="M 136.5,126.5 C 136.5,126.167 136.5,125.833 136.5,125.5C 137.167,125.5 137.833,125.5 138.5,125.5C 138.158,126.338 137.492,126.672 136.5,126.5 Z"/></g>
<g><path style="opacity:0.012" fill="#fbfdfb" d="M 61.5,126.5 C 62.8333,127.167 62.8333,127.167 61.5,126.5 Z"/></g>
<g><path style="opacity:0.012" fill="#fbfdfb" d="M 136.5,126.5 C 135.833,127.167 135.833,127.167 136.5,126.5 Z"/></g>
<g><path style="opacity:0.02" fill="#f9fbf9" d="M 133.5,127.5 C 134.833,128.167 134.833,128.167 133.5,127.5 Z"/></g>
<g><path style="opacity:0.012" fill="#fbfdfb" d="M 132.5,128.5 C 132.833,128.5 133.167,128.5 133.5,128.5C 133.315,129.17 132.981,129.17 132.5,128.5 Z"/></g>
<g><path style="opacity:0.01" fill="#fcfcfc" d="M 130.5,130.5 C 130.5,130.167 130.5,129.833 130.5,129.5C 131.167,129.5 131.833,129.5 132.5,129.5C 132.158,130.338 131.492,130.672 130.5,130.5 Z"/></g>
<g><path style="opacity:0.012" fill="#fbfdfb" d="M 130.5,130.5 C 129.833,131.167 129.833,131.167 130.5,130.5 Z"/></g>
<g><path style="opacity:0.02" fill="#f9fbf9" d="M 127.5,131.5 C 128.833,132.167 128.833,132.167 127.5,131.5 Z"/></g>
<g><path style="opacity:0.016" fill="#fafcfa" d="M 126.5,132.5 C 126.833,132.5 127.167,132.5 127.5,132.5C 127.315,133.17 126.981,133.17 126.5,132.5 Z"/></g>
<g><path style="opacity:0.007" fill="#fbfcfb" d="M 58.5,135.5 C 58.0825,134.778 57.4158,134.278 56.5,134C 57.635,133.251 58.635,133.417 59.5,134.5C 59.3764,135.107 59.0431,135.44 58.5,135.5 Z"/></g>
<g><path style="opacity:0.008" fill="#fcfdfc" d="M 124.5,134.5 C 124.5,134.167 124.5,133.833 124.5,133.5C 125.167,133.5 125.833,133.5 126.5,133.5C 126.158,134.338 125.492,134.672 124.5,134.5 Z"/></g>
<g><path style="opacity:0.008" fill="#fdfdfd" d="M 55.5,135.5 C 51.4862,135.666 47.4862,135.499 43.5,135C 47.6888,134.188 51.6888,134.355 55.5,135.5 Z"/></g>
<g><path style="opacity:0.012" fill="#fbfdfb" d="M 124.5,134.5 C 123.833,135.167 123.833,135.167 124.5,134.5 Z"/></g>
<g><path style="opacity:0.011" fill="#fdfcfc" d="M 42.5,136.5 C 39.8127,136.664 37.146,136.497 34.5,136C 37.367,135.199 40.0336,135.366 42.5,136.5 Z"/></g>
<g><path style="opacity:0.02" fill="#f9fbf9" d="M 121.5,135.5 C 122.833,136.167 122.833,136.167 121.5,135.5 Z"/></g>
<g><path style="opacity:0.149" fill="#dcd6d5" d="M 55.5,135.5 C 55.8333,135.5 56.1667,135.5 56.5,135.5C 56.5,136.167 56.5,136.833 56.5,137.5C 51.8333,137.5 47.1667,137.5 42.5,137.5C 42.5,137.167 42.5,136.833 42.5,136.5C 47.0323,136.818 51.3656,136.485 55.5,135.5 Z"/></g>
<g><path style="opacity:0.016" fill="#fafcfa" d="M 120.5,136.5 C 120.833,136.5 121.167,136.5 121.5,136.5C 121.315,137.17 120.981,137.17 120.5,136.5 Z"/></g>
<g><path style="opacity:0.016" fill="#fafcfa" d="M 119.5,137.5 C 119.833,137.5 120.167,137.5 120.5,137.5C 120.315,138.17 119.981,138.17 119.5,137.5 Z"/></g>
<g><path style="opacity:0.01" fill="#fcfcfc" d="M 117.5,138.5 C 118.167,138.5 118.833,138.5 119.5,138.5C 119.167,139.5 118.5,140.167 117.5,140.5C 117.5,139.833 117.5,139.167 117.5,138.5 Z"/></g>
<g><path style="opacity:1" fill="#d24a24" d="M 59.5,139.5 C 59.9258,141.139 59.9258,142.472 59.5,143.5C 51.1289,143.813 42.7956,145.646 34.5,149C 32.6508,150.093 30.9842,151.426 29.5,153C 32.9419,156.054 36.9419,158.054 41.5,159C 69.3656,166.746 97.3656,167.413 125.5,161C 127.303,160.363 128.636,159.197 129.5,157.5C 127.838,155.348 125.838,153.682 123.5,152.5C 124.239,152.631 124.906,152.464 125.5,152C 124.695,150.887 124.028,149.721 123.5,148.5C 150.286,154.477 150.953,161.977 125.5,171C 90.4033,178.612 56.4033,174.278 23.5,158C 19.6316,155.838 18.1316,152.672 19,148.5C 21.6696,145.75 24.8363,143.917 28.5,143C 31.1494,142.548 33.6494,141.714 36,140.5C 36.5613,141.022 37.228,141.355 38,141.5C 45.096,140.143 52.2627,139.476 59.5,139.5 Z"/></g>
<g><path style="opacity:0.004" fill="#fdfefd" d="M 16.5,141.5 C 17.8333,142.167 17.8333,142.167 16.5,141.5 Z"/></g>
<g><path style="opacity:0.009" fill="#fdfcfc" d="M 120.5,142.5 C 121.251,141.427 122.251,141.26 123.5,142C 122.552,142.483 121.552,142.649 120.5,142.5 Z"/></g>
<g><path style="opacity:0.004" fill="#fdfefd" d="M 16.5,142.5 C 15.8333,143.167 15.8333,143.167 16.5,142.5 Z"/></g>
<g><path style="opacity:0.998" fill="#380a0c" d="M 117.5,145.5 C 115.097,145.552 112.764,145.219 110.5,144.5C 112.873,141.101 115.206,141.435 117.5,145.5 Z"/></g>
<g><path style="opacity:0.012" fill="#fcfbfb" d="M 124.5,143.5 C 125.251,142.427 126.251,142.26 127.5,143C 126.552,143.483 125.552,143.649 124.5,143.5 Z"/></g>
<g><path style="opacity:0.012" fill="#fcfbfb" d="M 12.5,146.5 C 13.525,146.897 13.6917,147.563 13,148.5C 12.5357,147.906 12.369,147.239 12.5,146.5 Z"/></g>
<g><path style="opacity:0.012" fill="#fcfcfb" d="M 138.5,147.5 C 139.833,148.167 139.833,148.167 138.5,147.5 Z"/></g>
<g><path style="opacity:0.012" fill="#fcfcfb" d="M 140.5,148.5 C 141.833,149.167 141.833,149.167 140.5,148.5 Z"/></g>
<g><path style="opacity:0.012" fill="#fcfcfb" d="M 146.5,153.5 C 145.833,152.167 145.833,152.167 146.5,153.5 Z"/></g>
<g><path style="opacity:0.843" fill="#9a7f7e" d="M 13.5,150.5 C 13.7406,152.898 13.0739,154.898 11.5,156.5C 11.595,154.214 12.2616,152.214 13.5,150.5 Z"/></g>
<g><path style="opacity:0.008" fill="#fcfdfc" d="M 146.5,153.5 C 147.833,154.167 147.833,154.167 146.5,153.5 Z"/></g>
<g><path style="opacity:0.007" fill="#fdfdfd" d="M 9.5,154.5 C 10.5735,155.251 10.7401,156.251 10,157.5C 9.51722,156.552 9.35055,155.552 9.5,154.5 Z"/></g>
<g><path style="opacity:0.012" fill="#fcfcfb" d="M 147.5,155.5 C 148.833,156.167 148.833,156.167 147.5,155.5 Z"/></g>
<g><path style="opacity:0.996" fill="#441418" d="M 42.5,137.5 C 47.1667,137.5 51.8333,137.5 56.5,137.5C 57.7095,137.932 58.7095,138.599 59.5,139.5C 52.2627,139.476 45.096,140.143 38,141.5C 37.228,141.355 36.5613,141.022 36,140.5C 33.6494,141.714 31.1494,142.548 28.5,143C 24.8363,143.917 21.6696,145.75 19,148.5C 18.1316,152.672 19.6316,155.838 23.5,158C 56.4033,174.278 90.4033,178.612 125.5,171C 150.953,161.977 150.286,154.477 123.5,148.5C 122.375,146.871 121.041,145.371 119.5,144C 119.728,143.601 120.062,143.435 120.5,143.5C 121.833,143.5 123.167,143.5 124.5,143.5C 129.081,145.14 133.748,146.807 138.5,148.5C 140.531,150.522 142.865,152.189 145.5,153.5C 146.926,156.55 148.259,159.55 149.5,162.5C 150.288,169.895 150.288,176.895 149.5,183.5C 148.596,184.209 148.263,185.209 148.5,186.5C 147.833,186.5 147.5,186.833 147.5,187.5C 146.833,187.5 146.5,187.833 146.5,188.5C 145.833,188.5 145.5,188.833 145.5,189.5C 144.833,189.5 144.5,189.833 144.5,190.5C 143.833,190.5 143.5,190.833 143.5,191.5C 142.508,191.328 141.842,191.662 141.5,192.5C 139.973,192.427 138.973,193.094 138.5,194.5C 136.883,195.038 135.216,195.371 133.5,195.5C 133.425,198.206 133.092,200.873 132.5,203.5C 131.596,204.209 131.263,205.209 131.5,206.5C 130.596,207.209 130.263,208.209 130.5,209.5C 128.517,212.799 127.517,216.466 127.5,220.5C 126.549,221.919 126.216,223.585 126.5,225.5C 125.596,226.209 125.263,227.209 125.5,228.5C 124.549,229.919 124.216,231.585 124.5,233.5C 123.655,234.671 122.989,236.005 122.5,237.5C 121.35,240.725 120.184,244.058 119,247.5C 95.4587,260.69 71.2921,261.856 46.5,251C 39.1497,249.155 34.8164,244.655 33.5,237.5C 33.6716,236.508 33.3382,235.842 32.5,235.5C 32.3755,230.951 31.7089,226.618 30.5,222.5C 30.2605,217.231 29.2605,212.231 27.5,207.5C 26.9933,203.14 26.3266,198.807 25.5,194.5C 25.9746,191.918 25.3079,189.918 23.5,188.5C 17.9689,186.291 13.3022,182.958 9.5,178.5C 9.4096,170.899 10.0763,163.565 11.5,156.5C 13.0739,154.898 13.7406,152.898 13.5,150.5C 17.0246,142.385 23.3579,138.218 32.5,138C 35.8168,137.502 39.1501,137.335 42.5,137.5 Z"/></g>
<g><path style="opacity:1" fill="#d24a24" d="M 15.5,156.5 C 45.9509,175.09 78.9509,181.59 114.5,176C 125.504,175.167 135.504,171.667 144.5,165.5C 145.632,167.694 146.299,170.027 146.5,172.5C 145.731,176.845 144.898,181.179 144,185.5C 134.193,192.103 123.36,195.936 111.5,197C 85.242,199.704 59.5753,197.038 34.5,189C 26.3144,186.993 19.4811,182.827 14,176.5C 13.837,169.798 14.337,163.132 15.5,156.5 Z"/></g>
<g><path style="opacity:1" fill="#d24a23" d="M 59.5,147.5 C 59.5,151.5 59.5,155.5 59.5,159.5C 51.3482,157.962 43.3482,155.795 35.5,153C 43.0013,149.224 51.0013,147.391 59.5,147.5 Z"/></g>
<g><path style="opacity:1" fill="#d24a24" d="M 110.5,144.5 C 112.764,145.219 115.097,145.552 117.5,145.5C 119.167,147.5 120.833,149.5 122.5,151.5C 122.565,151.938 122.399,152.272 122,152.5C 117.365,150.634 112.532,149.634 107.5,149.5C 107.75,147.326 108.75,145.659 110.5,144.5 Z"/></g>
<g><path style="opacity:0.01" fill="#fdfcfc" d="M 150.5,162.5 C 150.167,162.5 149.833,162.5 149.5,162.5C 149.833,157.167 150.167,157.167 150.5,162.5 Z"/></g>
<g><path style="opacity:1" fill="#380b0c" d="M 59.5,143.5 C 59.5,144.833 59.5,146.167 59.5,147.5C 51.0013,147.391 43.0013,149.224 35.5,153C 43.3482,155.795 51.3482,157.962 59.5,159.5C 60.5,159.5 61.5,159.5 62.5,159.5C 64.631,160.314 66.9644,160.814 69.5,161C 80.495,161.5 91.495,161.667 102.5,161.5C 103.5,161.5 104.5,161.5 105.5,161.5C 112.061,160.776 118.395,159.276 124.5,157C 118.734,154.559 112.734,153.059 106.5,152.5C 106.263,151.209 106.596,150.209 107.5,149.5C 112.532,149.634 117.365,150.634 122,152.5C 122.399,152.272 122.565,151.938 122.5,151.5C 123.167,151.5 123.5,151.833 123.5,152.5C 125.838,153.682 127.838,155.348 129.5,157.5C 128.636,159.197 127.303,160.363 125.5,161C 97.3656,167.413 69.3656,166.746 41.5,159C 36.9419,158.054 32.9419,156.054 29.5,153C 30.9842,151.426 32.6508,150.093 34.5,149C 42.7956,145.646 51.1289,143.813 59.5,143.5 Z"/></g>
<g><path style="opacity:1" fill="#d24a23" d="M 106.5,152.5 C 112.734,153.059 118.734,154.559 124.5,157C 118.395,159.276 112.061,160.776 105.5,161.5C 105.264,158.391 105.597,155.391 106.5,152.5 Z"/></g>
<g><path style="opacity:0.011" fill="#fcfcfc" d="M 150.5,162.5 C 151.641,165.64 151.808,168.973 151,172.5C 150.502,169.183 150.335,165.85 150.5,162.5 Z"/></g>
<g><path style="opacity:0.008" fill="#fdfcfc" d="M 7.5,166.5 C 8.59832,167.601 8.76498,168.934 8,170.5C 7.50999,169.207 7.34332,167.873 7.5,166.5 Z"/></g>
<g><path style="opacity:0.008" fill="#fdfcfc" d="M 8.5,178.5 C 7.47498,178.103 7.30831,177.437 8,176.5C 8.46434,177.094 8.63101,177.761 8.5,178.5 Z"/></g>
<g><path style="opacity:0.01" fill="#fcfcfc" d="M 150.5,183.5 C 150.338,181.473 150.505,179.473 151,177.5C 151.789,179.712 151.622,181.712 150.5,183.5 Z"/></g>
<g><path style="opacity:0.016" fill="#fbfbfa" d="M 8.5,178.5 C 8.83333,178.5 9.16667,178.5 9.5,178.5C 9.31468,179.17 8.98135,179.17 8.5,178.5 Z"/></g>
<g><path style="opacity:0.008" fill="#fcfdfc" d="M 9.5,180.5 C 10.8333,181.167 10.8333,181.167 9.5,180.5 Z"/></g>
<g><path style="opacity:0.008" fill="#fdfcfc" d="M 149.5,183.5 C 149.833,183.5 150.167,183.5 150.5,183.5C 150.737,184.791 150.404,185.791 149.5,186.5C 149.5,185.5 149.5,184.5 149.5,183.5 Z"/></g>
<g><path style="opacity:0.016" fill="#fbfbfa" d="M 148.5,186.5 C 148.833,186.5 149.167,186.5 149.5,186.5C 149.315,187.17 148.981,187.17 148.5,186.5 Z"/></g>
<g><path style="opacity:0.016" fill="#fbfbfa" d="M 147.5,187.5 C 147.833,187.5 148.167,187.5 148.5,187.5C 148.315,188.17 147.981,188.17 147.5,187.5 Z"/></g>
<g><path style="opacity:0.008" fill="#fcfdfc" d="M 146.5,188.5 C 146.833,188.5 147.167,188.5 147.5,188.5C 147.315,189.17 146.981,189.17 146.5,188.5 Z"/></g>
<g><path style="opacity:0.016" fill="#fbfbfa" d="M 145.5,189.5 C 145.833,189.5 146.167,189.5 146.5,189.5C 146.315,190.17 145.981,190.17 145.5,189.5 Z"/></g>
<g><path style="opacity:0.009" fill="#fcfbfb" d="M 23.5,189.5 C 23.5474,195.853 22.8808,196.02 21.5,190C 22.0944,189.536 22.7611,189.369 23.5,189.5 Z"/></g>
<g><path style="opacity:1" fill="#643232" d="M 121.5,223.5 C 121.243,217.709 119.91,212.209 117.5,207C 93.6472,210.764 69.9805,209.598 46.5,203.5C 44.626,203.39 43.126,204.056 42,205.5C 38.6075,211.737 36.7742,218.403 36.5,225.5C 34.0241,213.919 31.3574,202.252 28.5,190.5C 61.5491,201.56 95.2158,204.06 129.5,198C 126.904,206.616 124.237,215.116 121.5,223.5 Z"/></g>
<g><path style="opacity:0.02" fill="#fafaf9" d="M 144.5,190.5 C 144.833,190.5 145.167,190.5 145.5,190.5C 145.315,191.17 144.981,191.17 144.5,190.5 Z"/></g>
<g><path style="opacity:0.353" fill="#b09a99" d="M 23.5,189.5 C 23.5,189.167 23.5,188.833 23.5,188.5C 25.3079,189.918 25.9746,191.918 25.5,194.5C 24.8333,192.833 24.1667,191.167 23.5,189.5 Z"/></g>
<g><path style="opacity:0.012" fill="#fcfcfb" d="M 143.5,191.5 C 143.833,191.5 144.167,191.5 144.5,191.5C 144.315,192.17 143.981,192.17 143.5,191.5 Z"/></g>
<g><path style="opacity:0.008" fill="#fdfcfc" d="M 141.5,193.5 C 141.5,193.167 141.5,192.833 141.5,192.5C 142.167,192.5 142.833,192.5 143.5,192.5C 143.158,193.338 142.492,193.672 141.5,193.5 Z"/></g>
<g><path style="opacity:0.012" fill="#fcfcfb" d="M 141.5,193.5 C 140.833,194.167 140.833,194.167 141.5,193.5 Z"/></g>
<g><path style="opacity:0.012" fill="#fcfcfb" d="M 138.5,194.5 C 139.833,195.167 139.833,195.167 138.5,194.5 Z"/></g>
<g><path style="opacity:0.009" fill="#fcfcfc" d="M 134.5,196.5 C 135.239,196.369 135.906,196.536 136.5,197C 135.118,201.705 134.451,201.539 134.5,196.5 Z"/></g>
<g><path style="opacity:1" fill="#d24a24" d="M 121.5,223.5 C 120.524,231.282 118.524,238.782 115.5,246C 100.129,254.097 83.7957,256.763 66.5,254C 56.4158,252.203 47.2491,248.37 39,242.5C 38.0254,236.844 37.192,231.177 36.5,225.5C 36.7742,218.403 38.6075,211.737 42,205.5C 43.126,204.056 44.626,203.39 46.5,203.5C 69.9805,209.598 93.6472,210.764 117.5,207C 119.91,212.209 121.243,217.709 121.5,223.5 Z"/></g>
<g><path style="opacity:0.01" fill="#fdfcfc" d="M 132.5,203.5 C 133.833,204.5 133.833,205.5 132.5,206.5C 132.5,205.5 132.5,204.5 132.5,203.5 Z"/></g>
<g><path style="opacity:0.008" fill="#fdfcfc" d="M 131.5,206.5 C 131.833,206.5 132.167,206.5 132.5,206.5C 132.737,207.791 132.404,208.791 131.5,209.5C 131.5,208.5 131.5,207.5 131.5,206.5 Z"/></g>
<g><path style="opacity:0.013" fill="#fcfbfb" d="M 27.5,207.5 C 27.6567,208.873 27.49,210.207 27,211.5C 26.235,209.934 26.4017,208.601 27.5,207.5 Z"/></g>
<g><path style="opacity:0.01" fill="#fdfcfc" d="M 130.5,209.5 C 130.833,209.5 131.167,209.5 131.5,209.5C 131.167,213.5 130.833,213.5 130.5,209.5 Z"/></g>
<g><path style="opacity:0.012" fill="#fcfbfb" d="M 129.5,213.5 C 130.525,213.897 130.692,214.563 130,215.5C 129.536,214.906 129.369,214.239 129.5,213.5 Z"/></g>
<g><path style="opacity:0.012" fill="#fcfbfb" d="M 128.5,216.5 C 129.525,216.897 129.692,217.563 129,218.5C 128.536,217.906 128.369,217.239 128.5,216.5 Z"/></g>
<g><path style="opacity:0.013" fill="#fcfbfb" d="M 127.5,220.5 C 128.833,222.167 128.833,223.833 127.5,225.5C 127.5,223.833 127.5,222.167 127.5,220.5 Z"/></g>
<g><path style="opacity:0.008" fill="#fdfcfc" d="M 30.5,222.5 C 30.6567,223.873 30.49,225.207 30,226.5C 29.235,224.934 29.4017,223.601 30.5,222.5 Z"/></g>
<g><path style="opacity:0.012" fill="#fcfbfb" d="M 126.5,225.5 C 126.833,225.5 127.167,225.5 127.5,225.5C 127.167,228.167 126.833,228.167 126.5,225.5 Z"/></g>
<g><path style="opacity:0.012" fill="#fcfbfb" d="M 125.5,228.5 C 126.833,230.167 126.833,231.833 125.5,233.5C 125.5,231.833 125.5,230.167 125.5,228.5 Z"/></g>
<g><path style="opacity:0.009" fill="#fdfcfc" d="M 124.5,233.5 C 124.833,233.5 125.167,233.5 125.5,233.5C 125.167,237.5 124.833,237.5 124.5,233.5 Z"/></g>
<g><path style="opacity:0.008" fill="#fcfcfc" d="M 32.5,235.5 C 32.5,236.5 32.5,237.5 32.5,238.5C 31.448,238.649 30.448,238.483 29.5,238C 30.6906,237.302 31.6906,236.469 32.5,235.5 Z"/></g>
<g><path style="opacity:0.004" fill="#fcfcfc" d="M 123.5,238.5 C 123.897,237.475 124.563,237.308 125.5,238C 124.906,238.464 124.239,238.631 123.5,238.5 Z"/></g>
<g><path style="opacity:0.014" fill="#fcfcfd" d="M 126.5,239.5 C 126.897,238.475 127.563,238.308 128.5,239C 127.906,239.464 127.239,239.631 126.5,239.5 Z"/></g>
<g><path style="opacity:0.01" fill="#fcfcfd" d="M 23.5,240.5 C 23.8966,239.475 24.5632,239.308 25.5,240C 24.9056,240.464 24.2389,240.631 23.5,240.5 Z"/></g>
<g><path style="opacity:0.997" fill="#474473" d="M 33.5,237.5 C 34.8164,244.655 39.1497,249.155 46.5,251C 71.2921,261.856 95.4587,260.69 119,247.5C 120.184,244.058 121.35,240.725 122.5,237.5C 122.47,238.497 122.97,239.164 124,239.5C 127.267,240.273 130.434,241.273 133.5,242.5C 134.5,244.167 135.833,245.5 137.5,246.5C 137.5,247.167 137.5,247.833 137.5,248.5C 136.662,248.842 136.328,249.508 136.5,250.5C 135.833,250.5 135.5,250.833 135.5,251.5C 133.973,251.427 132.973,252.094 132.5,253.5C 131.508,253.328 130.842,253.662 130.5,254.5C 129.209,254.263 128.209,254.596 127.5,255.5C 124.572,255.565 121.905,256.232 119.5,257.5C 115.267,257.539 111.267,258.205 107.5,259.5C 103.298,259.183 99.2984,259.517 95.5,260.5C 79.4877,260.611 63.4877,260.277 47.5,259.5C 45.2854,258.732 42.9521,258.065 40.5,257.5C 37.7814,256.087 34.7814,255.42 31.5,255.5C 29.4855,254.076 27.1522,253.41 24.5,253.5C 21.0647,252.639 18.7313,250.639 17.5,247.5C 18.6253,245.871 19.9586,244.371 21.5,243C 25.9219,241.605 29.9219,239.771 33.5,237.5 Z"/></g>
<g><path style="opacity:0.016" fill="#fbfcfc" d="M 133.5,241.5 C 134.833,242.167 134.833,242.167 133.5,241.5 Z"/></g>
<g><path style="opacity:0.004" fill="#fdfefd" d="M 136.5,243.5 C 135.833,242.167 135.833,242.167 136.5,243.5 Z"/></g>
<g><path style="opacity:0.004" fill="#fdfefd" d="M 17.5,243.5 C 18.8333,244.167 18.8333,244.167 17.5,243.5 Z"/></g>
<g><path style="opacity:0.008" fill="#fcfdfd" d="M 136.5,243.5 C 137.167,243.5 137.5,243.833 137.5,244.5C 137.167,244.167 136.833,243.833 136.5,243.5 Z"/></g>
<g><path style="opacity:0.006" fill="#fdfdfe" d="M 137.5,244.5 C 138.338,244.842 138.672,245.508 138.5,246.5C 138.167,246.5 137.833,246.5 137.5,246.5C 137.5,245.833 137.5,245.167 137.5,244.5 Z"/></g>
<g><path style="opacity:0.008" fill="#fcfdfd" d="M 138.5,246.5 C 139.833,247.167 139.833,247.167 138.5,246.5 Z"/></g>
<g><path style="opacity:0.008" fill="#fdfdfd" d="M 17.5,247.5 C 17.631,248.239 17.4643,248.906 17,249.5C 16.3083,248.563 16.475,247.897 17.5,247.5 Z"/></g>
<g><path style="opacity:0.008" fill="#fdfdfd" d="M 137.5,248.5 C 138.833,249.167 138.833,249.833 137.5,250.5C 137.5,249.833 137.5,249.167 137.5,248.5 Z"/></g>
<g><path style="opacity:0.008" fill="#fcfdfd" d="M 136.5,250.5 C 136.833,250.5 137.167,250.5 137.5,250.5C 137.315,251.17 136.981,251.17 136.5,250.5 Z"/></g>
<g><path style="opacity:0.012" fill="#fcfdfc" d="M 135.5,251.5 C 135.833,251.5 136.167,251.5 136.5,251.5C 136.315,252.17 135.981,252.17 135.5,251.5 Z"/></g>
<g><path style="opacity:0.012" fill="#fcfdfc" d="M 135.5,252.5 C 134.833,253.167 134.833,253.167 135.5,252.5 Z"/></g>
<g><path style="opacity:0.914" fill="#8b8aa7" d="M 24.5,254.5 C 24.5,254.167 24.5,253.833 24.5,253.5C 27.1522,253.41 29.4855,254.076 31.5,255.5C 30.1667,255.5 28.8333,255.5 27.5,255.5C 26.791,254.596 25.791,254.263 24.5,254.5 Z"/></g>
<g><path style="opacity:0.012" fill="#fcfdfc" d="M 132.5,253.5 C 133.833,254.167 133.833,254.167 132.5,253.5 Z"/></g>
<g><path style="opacity:0.012" fill="#fcfcfc" d="M 24.5,254.5 C 24.1034,255.525 23.4368,255.692 22.5,255C 23.0944,254.536 23.7611,254.369 24.5,254.5 Z"/></g>
<g><path style="opacity:0.014" fill="#fbfbfc" d="M 130.5,255.5 C 130.5,255.167 130.5,254.833 130.5,254.5C 131.167,254.5 131.833,254.5 132.5,254.5C 132.158,255.338 131.492,255.672 130.5,255.5 Z"/></g>
<g><path style="opacity:0.012" fill="#fcfdfc" d="M 27.5,255.5 C 27.5,255.833 27.5,256.167 27.5,256.5C 24.8333,256.167 24.8333,255.833 27.5,255.5 Z"/></g>
<g><path style="opacity:0.682" fill="#9f9fb7" d="M 31.5,255.5 C 34.7814,255.42 37.7814,256.087 40.5,257.5C 38.8333,257.5 37.1667,257.5 35.5,257.5C 34.1667,256.833 32.8333,256.167 31.5,255.5 Z"/></g>
<g><path style="opacity:0.009" fill="#fdfdfd" d="M 127.5,256.5 C 127.5,256.167 127.5,255.833 127.5,255.5C 128.5,255.5 129.5,255.5 130.5,255.5C 129.791,256.404 128.791,256.737 127.5,256.5 Z"/></g>
<g><path style="opacity:0.01" fill="#fcfcfd" d="M 27.5,256.5 C 28.552,256.351 29.552,256.517 30.5,257C 29.2506,257.74 28.2506,257.573 27.5,256.5 Z"/></g>
<g><path style="opacity:0.01" fill="#fcfcfd" d="M 127.5,256.5 C 126.749,257.573 125.749,257.74 124.5,257C 125.448,256.517 126.448,256.351 127.5,256.5 Z"/></g>
<g><path style="opacity:0.011" fill="#fcfcfd" d="M 35.5,257.5 C 34.3991,258.598 33.0657,258.765 31.5,258C 32.7932,257.51 34.1266,257.343 35.5,257.5 Z"/></g>
<g><path style="opacity:0.011" fill="#fcfcfd" d="M 119.5,257.5 C 120.873,257.343 122.207,257.51 123.5,258C 121.934,258.765 120.601,258.598 119.5,257.5 Z"/></g>
<g><path style="opacity:0.01" fill="#fcfcfd" d="M 36.5,259.5 C 37.6009,258.402 38.9343,258.235 40.5,259C 39.2068,259.49 37.8734,259.657 36.5,259.5 Z"/></g>
<g><path style="opacity:0.01" fill="#fcfcfd" d="M 114.5,259.5 C 115.601,258.402 116.934,258.235 118.5,259C 117.207,259.49 115.873,259.657 114.5,259.5 Z"/></g>
<g><path style="opacity:0.013" fill="#fcfcfd" d="M 47.5,259.5 C 46.0536,260.613 44.3869,260.78 42.5,260C 44.1341,259.506 45.8008,259.34 47.5,259.5 Z"/></g>
<g><path style="opacity:0.013" fill="#fcfcfd" d="M 107.5,260.5 C 107.5,260.167 107.5,259.833 107.5,259.5C 114.167,259.833 114.167,260.167 107.5,260.5 Z"/></g>
<g><path style="opacity:0.01" fill="#fcfcfd" d="M 48.5,261.5 C 50.6282,260.371 52.9615,260.204 55.5,261C 53.1902,261.497 50.8568,261.663 48.5,261.5 Z"/></g>
<g><path style="opacity:0.004" fill="#fdfefd" d="M 95.5,260.5 C 96.8333,261.167 96.8333,261.167 95.5,260.5 Z"/></g>
<g><path style="opacity:0.009" fill="#fcfcfd" d="M 107.5,260.5 C 105.034,261.634 102.367,261.801 99.5,261C 102.146,260.503 104.813,260.336 107.5,260.5 Z"/></g>
<g><path style="opacity:0.008" fill="#fdfdfd" d="M 95.5,261.5 C 83.6738,262.66 71.6738,262.826 59.5,262C 71.4954,261.5 83.4954,261.333 95.5,261.5 Z"/></g>
</svg>
