<?xml version="1.0" encoding="UTF-8"?>
<!DOCTYPE svg PUBLIC "-//W3C//DTD SVG 1.1//EN" "http://www.w3.org/Graphics/SVG/1.1/DTD/svg11.dtd">
<svg xmlns="http://www.w3.org/2000/svg" version="1.1" width="500px" height="500px" style="shape-rendering:geometricPrecision; text-rendering:geometricPrecision; image-rendering:optimizeQuality; fill-rule:evenodd; clip-rule:evenodd" xmlns:xlink="http://www.w3.org/1999/xlink">
<g><path style="opacity:1" fill="#4a4342" d="M 102.5,12.5 C 101.167,12.1667 99.8333,11.8333 98.5,11.5C 96.8333,11.5 95.1667,11.5 93.5,11.5C 91.1016,11.2594 89.1016,11.9261 87.5,13.5C 86.1667,13.5 84.8333,13.5 83.5,13.5C 81.1944,13.9926 78.861,14.3259 76.5,14.5C 84.2915,10.3163 92.6248,9.14966 101.5,11C 102.056,11.3826 102.389,11.8826 102.5,12.5 Z"/></g>
<g><path style="opacity:1" fill="#3d3432" d="M 83.5,13.5 C 83.4058,18.1208 84.4058,22.4541 86.5,26.5C 86.357,29.3852 85.357,31.7185 83.5,33.5C 83.7317,27.3776 83.0651,21.3776 81.5,15.5C 79.079,15.8782 76.7457,16.5448 74.5,17.5C 73.596,18.209 73.2627,19.209 73.5,20.5C 71.7867,18.1496 69.4534,17.1496 66.5,17.5C 66.9143,20.7431 67.9143,23.7431 69.5,26.5C 68.6561,30.0991 68.3227,33.7657 68.5,37.5C 67.5,37.5 66.5,37.5 65.5,37.5C 65.6134,44.2736 68.9468,48.2736 75.5,49.5C 75.5,47.8333 75.5,46.1667 75.5,44.5C 76.1667,44.5 76.8333,44.5 77.5,44.5C 78.5122,51.2603 75.8455,53.2603 69.5,50.5C 68.5032,68.6591 68.1698,86.9924 68.5,105.5C 68.6716,106.492 68.3382,107.158 67.5,107.5C 67.6666,88.4971 67.4999,69.4971 67,50.5C 64.7995,46.9294 62.9662,43.0961 61.5,39C 62.3333,36.8333 63.8333,35.3333 66,34.5C 66.3084,28.4281 65.975,22.4281 65,16.5C 65.7387,15.4258 66.7387,14.7591 68,14.5C 70.8426,15.7631 73.6759,15.7631 76.5,14.5C 78.861,14.3259 81.1944,13.9926 83.5,13.5 Z"/></g>
<g><path style="opacity:1" fill="#a29c99" d="M 73.5,20.5 C 75.8711,22.9966 76.8711,25.9966 76.5,29.5C 73.5466,29.8504 71.2133,28.8504 69.5,26.5C 67.9143,23.7431 66.9143,20.7431 66.5,17.5C 69.4534,17.1496 71.7867,18.1496 73.5,20.5 Z"/></g>
<g><path style="opacity:1" fill="#a09a95" d="M 83.5,13.5 C 84.8333,13.5 86.1667,13.5 87.5,13.5C 89.9592,17.8134 90.9592,22.4801 90.5,27.5C 89.0413,27.5674 87.7079,27.2341 86.5,26.5C 84.4058,22.4541 83.4058,18.1208 83.5,13.5 Z"/></g>
<g><path style="opacity:1" fill="#965321" d="M 93.5,11.5 C 95.1667,11.5 96.8333,11.5 98.5,11.5C 98.9817,12.4163 99.315,13.4163 99.5,14.5C 98.5737,18.1303 97.9071,21.797 97.5,25.5C 96.7784,25.9175 96.2784,26.5842 96,27.5C 95.4951,36.8705 94.6617,46.2038 93.5,55.5C 92.1667,55.5 90.8333,55.5 89.5,55.5C 89.2747,50.9516 89.9413,46.6183 91.5,42.5C 90.0867,38.0172 88.42,33.6838 86.5,29.5C 88.4672,29.7394 90.3005,29.4061 92,28.5C 93.0889,23.4391 92.2556,18.7724 89.5,14.5C 90.6243,13.1408 91.9577,12.1408 93.5,11.5 Z"/></g>
<g><path style="opacity:1" fill="#452815" d="M 74.5,17.5 C 74.6079,19.7834 75.4412,21.7834 77,23.5C 77.4974,26.146 77.6641,28.8127 77.5,31.5C 74.7938,31.4249 72.1272,31.0916 69.5,30.5C 69.3379,32.5273 69.5045,34.5273 70,36.5C 73.0719,38.7351 75.5719,41.4018 77.5,44.5C 76.8333,44.5 76.1667,44.5 75.5,44.5C 73.4032,41.9473 71.0698,39.614 68.5,37.5C 68.3227,33.7657 68.6561,30.0991 69.5,26.5C 71.2133,28.8504 73.5466,29.8504 76.5,29.5C 76.8711,25.9966 75.8711,22.9966 73.5,20.5C 73.2627,19.209 73.596,18.209 74.5,17.5 Z"/></g>
<g><path style="opacity:0.608" fill="#807a7a" d="M 109.5,33.5 C 108.5,35.1667 107.167,36.5 105.5,37.5C 104.192,34.6996 104.526,32.0329 106.5,29.5C 107.859,30.6243 108.859,31.9577 109.5,33.5 Z"/></g>
<g><path style="opacity:1" fill="#89491c" d="M 83.5,33.5 C 82.3509,33.7911 81.6842,34.6244 81.5,36C 81.8025,38.7242 82.6359,41.2242 84,43.5C 84.8151,48.3522 84.6484,53.0189 83.5,57.5C 82.1667,57.5 80.8333,57.5 79.5,57.5C 79.0242,53.0065 78.3576,48.6732 77.5,44.5C 75.5719,41.4018 73.0719,38.7351 70,36.5C 69.5045,34.5273 69.3379,32.5273 69.5,30.5C 72.1272,31.0916 74.7938,31.4249 77.5,31.5C 77.6641,28.8127 77.4974,26.146 77,23.5C 75.4412,21.7834 74.6079,19.7834 74.5,17.5C 76.7457,16.5448 79.079,15.8782 81.5,15.5C 83.0651,21.3776 83.7317,27.3776 83.5,33.5 Z"/></g>
<g><path style="opacity:1" fill="#935423" d="M 99.5,51.5 C 99.0826,54.1589 98.0826,56.4922 96.5,58.5C 95.8294,48.4935 96.496,38.4935 98.5,28.5C 99.6826,24.5772 100.683,20.5772 101.5,16.5C 102.086,16.7093 102.586,17.0426 103,17.5C 103.167,19.8333 103.333,22.1667 103.5,24.5C 102.167,33.4973 100.834,42.4973 99.5,51.5 Z"/></g>
<g><path style="opacity:1" fill="#a49c97" d="M 68.5,37.5 C 71.0698,39.614 73.4032,41.9473 75.5,44.5C 75.5,46.1667 75.5,47.8333 75.5,49.5C 68.9468,48.2736 65.6134,44.2736 65.5,37.5C 66.5,37.5 67.5,37.5 68.5,37.5 Z"/></g>
<g><path style="opacity:1" fill="#33231c" d="M 98.5,11.5 C 99.8333,11.8333 101.167,12.1667 102.5,12.5C 103.117,12.6107 103.617,12.944 104,13.5C 105.012,19.2993 107.012,24.6326 110,29.5C 110.579,30.9285 110.412,32.2618 109.5,33.5C 108.859,31.9577 107.859,30.6243 106.5,29.5C 104.526,32.0329 104.192,34.6996 105.5,37.5C 106.609,39.5544 107.609,41.7211 108.5,44C 107.513,48.5282 105.013,51.6949 101,53.5C 100.517,54.448 100.351,55.448 100.5,56.5C 100.167,56.5 99.8333,56.5 99.5,56.5C 99.5,54.8333 99.5,53.1667 99.5,51.5C 100.834,42.4973 102.167,33.4973 103.5,24.5C 103.333,22.1667 103.167,19.8333 103,17.5C 102.586,17.0426 102.086,16.7093 101.5,16.5C 100.683,20.5772 99.6826,24.5772 98.5,28.5C 97.596,27.791 97.2627,26.791 97.5,25.5C 97.9071,21.797 98.5737,18.1303 99.5,14.5C 99.315,13.4163 98.9817,12.4163 98.5,11.5 Z"/></g>
<g><path style="opacity:1" fill="#948983" d="M 102.5,41.5 C 103.5,41.5 104.5,41.5 105.5,41.5C 105.662,43.5273 105.495,45.5273 105,47.5C 104.586,47.9574 104.086,48.2907 103.5,48.5C 102.526,46.2573 102.192,43.924 102.5,41.5 Z"/></g>
<g><path style="opacity:0.855" fill="#676464" d="M 292.5,46.5 C 281.714,45.0731 271.048,45.7398 260.5,48.5C 267.107,45.7847 274.107,44.4513 281.5,44.5C 285.469,44.2942 289.135,44.9608 292.5,46.5 Z"/></g>
<g><path style="opacity:1" fill="#4a79b1" d="M 267.5,50.5 C 273.251,52.8099 278.085,56.4765 282,61.5C 283.559,63.2166 284.392,65.2166 284.5,67.5C 283.064,71.9566 280.73,75.9566 277.5,79.5C 278.418,69.3535 276.918,69.0202 273,78.5C 270.907,87.4826 268.907,96.4826 267,105.5C 264.873,109.589 262.373,113.423 259.5,117C 254.5,117.333 249.5,117.667 244.5,118C 235.026,123.573 225.359,128.906 215.5,134C 208.611,138.62 202.277,143.953 196.5,150C 195.552,150.483 194.552,150.649 193.5,150.5C 193.768,152.099 193.434,153.432 192.5,154.5C 192.118,151.354 192.118,148.354 192.5,145.5C 192.262,126.193 196.429,107.86 205,90.5C 216.559,74.6124 231.392,62.779 249.5,55C 255.295,52.5662 261.295,51.0662 267.5,50.5 Z"/></g>
<g><path style="opacity:1" fill="#6b3a19" d="M 77.5,44.5 C 78.3576,48.6732 79.0242,53.0065 79.5,57.5C 80.8333,57.5 82.1667,57.5 83.5,57.5C 80.3733,58.5808 77.0399,59.2474 73.5,59.5C 73.5,64.8333 73.5,70.1667 73.5,75.5C 72.1667,75.5 70.8333,75.5 69.5,75.5C 69.5,67.1667 69.5,58.8333 69.5,50.5C 75.8455,53.2603 78.5122,51.2603 77.5,44.5 Z"/></g>
<g><path style="opacity:1" fill="#824922" d="M 73.5,99.5 C 73.5,100.167 73.1667,100.5 72.5,100.5C 71.5,100.5 70.5,100.5 69.5,100.5C 70.5359,92.7973 70.5359,85.1306 69.5,77.5C 70.8333,77.5 72.1667,77.5 73.5,77.5C 73.5,84.8333 73.5,92.1667 73.5,99.5 Z"/></g>
<g><path style="opacity:1" fill="#1b2129" d="M 292.5,46.5 C 294.752,46.9156 296.252,48.249 297,50.5C 297.667,52.8333 297.667,55.1667 297,57.5C 289.178,67.1448 281.845,77.1448 275,87.5C 273.823,98.8958 269.656,108.896 262.5,117.5C 261.957,117.56 261.624,117.893 261.5,118.5C 265.107,119.489 268.774,119.823 272.5,119.5C 279.465,119.281 286.465,120.281 293.5,122.5C 294.506,123.396 294.506,124.062 293.5,124.5C 285.543,123.171 277.543,122.671 269.5,123C 268.929,124.205 268.262,125.372 267.5,126.5C 265.327,123.984 262.66,122.317 259.5,121.5C 257.081,121.195 254.414,121.195 251.5,121.5C 248.813,121.336 246.146,121.503 243.5,122C 229.549,127.06 217.049,134.56 206,144.5C 203.312,147.727 201.478,151.394 200.5,155.5C 199.662,155.158 199.328,154.492 199.5,153.5C 199.631,152.761 199.464,152.094 199,151.5C 192.167,157.181 187.334,164.181 184.5,172.5C 185.26,174.437 186.26,176.27 187.5,178C 192.489,180.747 197.822,182.247 203.5,182.5C 203.5,182.833 203.5,183.167 203.5,183.5C 201.5,183.5 199.5,183.5 197.5,183.5C 194.455,183.658 191.621,182.991 189,181.5C 188.698,186.71 190.531,191.043 194.5,194.5C 193.833,194.5 193.5,194.833 193.5,195.5C 192.288,194.77 191.288,193.77 190.5,192.5C 189.833,192.833 189.167,193.167 188.5,193.5C 187.285,196.809 186.285,200.142 185.5,203.5C 187.5,203.5 189.5,203.5 191.5,203.5C 192.167,201.167 192.833,198.833 193.5,196.5C 194.581,199.993 193.581,202.993 190.5,205.5C 188.208,205.244 186.041,205.577 184,206.5C 181.584,218.71 180.918,231.044 182,243.5C 185.504,245.09 189.004,246.757 192.5,248.5C 193.292,247.3 193.292,245.967 192.5,244.5C 193.492,244.328 194.158,244.662 194.5,245.5C 195.086,247.84 196.086,250.007 197.5,252C 201.22,253.86 204.886,255.693 208.5,257.5C 209.167,257.833 209.833,258.167 210.5,258.5C 210.833,258.5 211.167,258.5 211.5,258.5C 211.328,259.492 211.662,260.158 212.5,260.5C 215.24,262.56 218.24,264.226 221.5,265.5C 222.167,266.167 222.833,266.833 223.5,267.5C 225.118,269.316 227.118,270.649 229.5,271.5C 230.926,272.341 232.26,273.341 233.5,274.5C 236.655,277.939 240.322,279.272 244.5,278.5C 245.167,278.833 245.833,279.167 246.5,279.5C 247.568,280.434 248.901,280.768 250.5,280.5C 256.383,281.945 262.383,283.279 268.5,284.5C 270.302,285.458 272.302,286.125 274.5,286.5C 275.625,287.652 275.625,288.652 274.5,289.5C 268.531,287.233 262.364,285.233 256,283.5C 251.816,282.393 247.649,282.227 243.5,283C 227.334,272.749 211,262.749 194.5,253C 189.42,251.196 184.42,249.196 179.5,247C 168.049,245.924 156.716,245.09 145.5,244.5C 149.182,244.665 152.848,244.499 156.5,244C 154.618,243.802 152.952,243.302 151.5,242.5C 160.866,242.279 170.199,242.613 179.5,243.5C 179.719,242.325 179.386,241.325 178.5,240.5C 172.562,236.551 167.562,231.717 163.5,226C 162.175,226.148 161.008,225.982 160,225.5C 157.092,220.554 155.092,215.221 154,209.5C 150.538,201.21 145.371,194.21 138.5,188.5C 137.824,189.602 137.158,190.602 136.5,191.5C 136.5,187.167 136.5,182.833 136.5,178.5C 137.302,179.952 137.802,181.618 138,183.5C 148.939,193.053 156.606,204.72 161,218.5C 166.305,224.474 171.638,230.474 177,236.5C 177.186,219.564 180.686,203.398 187.5,188C 187.079,185.815 186.579,183.649 186,181.5C 180.537,175.907 180.204,169.907 185,163.5C 187.042,160.06 189.542,157.06 192.5,154.5C 193.434,153.432 193.768,152.099 193.5,150.5C 194.552,150.649 195.552,150.483 196.5,150C 202.277,143.953 208.611,138.62 215.5,134C 225.359,128.906 235.026,123.573 244.5,118C 249.5,117.667 254.5,117.333 259.5,117C 262.373,113.423 264.873,109.589 267,105.5C 268.907,96.4826 270.907,87.4826 273,78.5C 276.918,69.0202 278.418,69.3535 277.5,79.5C 280.73,75.9566 283.064,71.9566 284.5,67.5C 284.833,67.5 285.167,67.5 285.5,67.5C 287.931,64.9759 290.431,62.3093 293,59.5C 295.47,55.1702 294.97,51.3368 291.5,48C 286.177,47.5006 280.844,47.334 275.5,47.5C 272.169,47.0181 269.503,48.0181 267.5,50.5C 261.295,51.0662 255.295,52.5662 249.5,55C 231.392,62.779 216.559,74.6124 205,90.5C 196.429,107.86 192.262,126.193 192.5,145.5C 188.42,94.5586 211.087,62.2253 260.5,48.5C 271.048,45.7398 281.714,45.0731 292.5,46.5 Z"/></g>
<g><path style="opacity:1" fill="#072140" d="M 275.5,47.5 C 274.859,48.4822 274.193,49.4822 273.5,50.5C 277.452,53.7415 280.952,57.4082 284,61.5C 285.128,63.3453 285.628,65.3453 285.5,67.5C 285.167,67.5 284.833,67.5 284.5,67.5C 284.392,65.2166 283.559,63.2166 282,61.5C 278.085,56.4765 273.251,52.8099 267.5,50.5C 269.503,48.0181 272.169,47.0181 275.5,47.5 Z"/></g>
<g><path style="opacity:1" fill="#09407a" d="M 275.5,47.5 C 280.844,47.334 286.177,47.5006 291.5,48C 294.97,51.3368 295.47,55.1702 293,59.5C 290.431,62.3093 287.931,64.9759 285.5,67.5C 285.628,65.3453 285.128,63.3453 284,61.5C 280.952,57.4082 277.452,53.7415 273.5,50.5C 274.193,49.4822 274.859,48.4822 275.5,47.5 Z"/></g>
<g><path style="opacity:1" fill="#391a0a" d="M 93.5,11.5 C 91.9577,12.1408 90.6243,13.1408 89.5,14.5C 92.2556,18.7724 93.0889,23.4391 92,28.5C 90.3005,29.4061 88.4672,29.7394 86.5,29.5C 88.42,33.6838 90.0867,38.0172 91.5,42.5C 89.9413,46.6183 89.2747,50.9516 89.5,55.5C 90.8333,55.5 92.1667,55.5 93.5,55.5C 94.6617,46.2038 95.4951,36.8705 96,27.5C 96.2784,26.5842 96.7784,25.9175 97.5,25.5C 97.2627,26.791 97.596,27.791 98.5,28.5C 96.496,38.4935 95.8294,48.4935 96.5,58.5C 96.8822,70.8761 96.5488,79.8761 95.5,85.5C 93.8561,85.2865 92.3561,85.6198 91,86.5C 90.5017,89.8168 90.335,93.1501 90.5,96.5C 89.8333,96.5 89.1667,96.5 88.5,96.5C 88.5,93.5 88.5,90.5 88.5,87.5C 83.421,87.2175 83.2543,86.2175 88,84.5C 88.4983,81.1832 88.665,77.8499 88.5,74.5C 83.8498,75.2596 79.1831,75.9262 74.5,76.5C 74.5679,81.8469 74.9012,87.1802 75.5,92.5C 75.5391,94.9522 76.2057,96.9522 77.5,98.5C 76.4324,99.4345 75.099,99.7678 73.5,99.5C 73.5,92.1667 73.5,84.8333 73.5,77.5C 72.1667,77.5 70.8333,77.5 69.5,77.5C 70.5359,85.1306 70.5359,92.7973 69.5,100.5C 70.5,100.5 71.5,100.5 72.5,100.5C 73.3007,102.042 73.634,103.708 73.5,105.5C 71.8333,105.5 70.1667,105.5 68.5,105.5C 68.1698,86.9924 68.5032,68.6591 69.5,50.5C 69.5,58.8333 69.5,67.1667 69.5,75.5C 70.8333,75.5 72.1667,75.5 73.5,75.5C 73.5,70.1667 73.5,64.8333 73.5,59.5C 77.0399,59.2474 80.3733,58.5808 83.5,57.5C 84.6484,53.0189 84.8151,48.3522 84,43.5C 82.6359,41.2242 81.8025,38.7242 81.5,36C 81.6842,34.6244 82.3509,33.7911 83.5,33.5C 85.357,31.7185 86.357,29.3852 86.5,26.5C 87.7079,27.2341 89.0413,27.5674 90.5,27.5C 90.9592,22.4801 89.9592,17.8134 87.5,13.5C 89.1016,11.9261 91.1016,11.2594 93.5,11.5 Z"/></g>
<g><path style="opacity:1" fill="#8a4c21" d="M 89.5,73.5 C 91.5,73.5 93.5,73.5 95.5,73.5C 95.8204,76.8984 95.487,80.2317 94.5,83.5C 92.9579,84.7468 91.4579,84.7468 90,83.5C 89.5017,80.1832 89.335,76.8499 89.5,73.5 Z"/></g>
<g><path style="opacity:1" fill="#814c25" d="M 74.5,61.5 C 75.5,61.5 76.5,61.5 77.5,61.5C 77.5,65.8333 77.5,70.1667 77.5,74.5C 76.5,74.5 75.5,74.5 74.5,74.5C 74.5,70.1667 74.5,65.8333 74.5,61.5 Z"/></g>
<g><path style="opacity:1" fill="#995323" d="M 89.5,57.5 C 91.1667,57.5 92.8333,57.5 94.5,57.5C 94.5,62.1667 94.5,66.8333 94.5,71.5C 92.8333,71.5 91.1667,71.5 89.5,71.5C 89.5,66.8333 89.5,62.1667 89.5,57.5 Z"/></g>
<g><path style="opacity:1" fill="#a1571f" d="M 79.5,60.5 C 80.8333,60.5 82.1667,60.5 83.5,60.5C 83.5,64.5 83.5,68.5 83.5,72.5C 82.1667,72.5 80.8333,72.5 79.5,72.5C 79.5,68.5 79.5,64.5 79.5,60.5 Z"/></g>
<g><path style="opacity:1" fill="#9c948f" d="M 83.5,34.5 C 88.0936,36.6791 90.4269,40.3457 90.5,45.5C 84.942,44.0789 82.6087,40.4123 83.5,34.5 Z"/></g>
<g><path style="opacity:1" fill="#6c3b19" d="M 88.5,96.5 C 89.038,98.1172 89.3713,99.7839 89.5,101.5C 86.1667,101.833 82.8333,102.167 79.5,102.5C 79.8432,100.517 79.1765,99.1834 77.5,98.5C 76.2057,96.9522 75.5391,94.9522 75.5,92.5C 74.9012,87.1802 74.5679,81.8469 74.5,76.5C 79.1831,75.9262 83.8498,75.2596 88.5,74.5C 88.665,77.8499 88.4983,81.1832 88,84.5C 83.2543,86.2175 83.421,87.2175 88.5,87.5C 88.5,90.5 88.5,93.5 88.5,96.5 Z"/></g>
<g><path style="opacity:1" fill="#935423" d="M 100.5,95.5 C 101.413,106.332 102.079,117.332 102.5,128.5C 101.167,128.5 99.8333,128.5 98.5,128.5C 98.3438,119.825 98.0105,111.158 97.5,102.5C 97.3336,94.8261 97.5003,87.1594 98,79.5C 98.1499,85.081 98.9832,90.4144 100.5,95.5 Z"/></g>
<g><path style="opacity:1" fill="#6c3c1a" d="M 99.5,51.5 C 99.5,53.1667 99.5,54.8333 99.5,56.5C 99.3132,69.52 99.6465,82.52 100.5,95.5C 98.9832,90.4144 98.1499,85.081 98,79.5C 97.5003,87.1594 97.3336,94.8261 97.5,102.5C 96.5655,103.568 96.2322,104.901 96.5,106.5C 91.6305,104.951 89.6305,101.617 90.5,96.5C 90.335,93.1501 90.5017,89.8168 91,86.5C 92.3561,85.6198 93.8561,85.2865 95.5,85.5C 96.5488,79.8761 96.8822,70.8761 96.5,58.5C 98.0826,56.4922 99.0826,54.1589 99.5,51.5 Z"/></g>
<g><path style="opacity:1" fill="#554238" d="M 99.5,56.5 C 99.8333,56.5 100.167,56.5 100.5,56.5C 101.46,78.8582 102.793,101.192 104.5,123.5C 103.549,124.919 103.216,126.585 103.5,128.5C 103.167,128.5 102.833,128.5 102.5,128.5C 102.079,117.332 101.413,106.332 100.5,95.5C 99.6465,82.52 99.3132,69.52 99.5,56.5 Z"/></g>
<g><path style="opacity:1" fill="#4a74a3" d="M 78.5,103.5 C 77.9084,106.127 77.5751,108.794 77.5,111.5C 79.5,111.5 81.5,111.5 83.5,111.5C 83.838,114.157 83.1713,116.49 81.5,118.5C 76.1825,118.562 70.8491,118.729 65.5,119C 64.4464,117.612 64.2797,116.112 65,114.5C 68.0379,111.631 70.8712,108.631 73.5,105.5C 75.0495,104.559 76.7162,103.893 78.5,103.5 Z"/></g>
<g><path style="opacity:1" fill="#3f1e0e" d="M 97.5,102.5 C 98.0105,111.158 98.3438,119.825 98.5,128.5C 99.8333,128.5 101.167,128.5 102.5,128.5C 100.285,129.268 97.9521,129.935 95.5,130.5C 95.5,124.167 95.5,117.833 95.5,111.5C 94.1667,111.5 92.8333,111.5 91.5,111.5C 94.1336,110.867 95.8002,109.2 96.5,106.5C 96.2322,104.901 96.5655,103.568 97.5,102.5 Z"/></g>
<g><path style="opacity:0.102" fill="#939188" d="M 262.5,117.5 C 265.833,118.167 269.167,118.833 272.5,119.5C 268.774,119.823 265.107,119.489 261.5,118.5C 261.624,117.893 261.957,117.56 262.5,117.5 Z"/></g>
<g><path style="opacity:1" fill="#884d20" d="M 91.5,111.5 C 92.8333,111.5 94.1667,111.5 95.5,111.5C 95.5,117.833 95.5,124.167 95.5,130.5C 94.0813,131.451 92.4147,131.784 90.5,131.5C 90.4793,124.537 90.8126,117.871 91.5,111.5 Z"/></g>
<g><path style="opacity:1" fill="#724522" d="M 83.5,119.5 C 84.7647,120.514 85.4313,122.014 85.5,124C 85.1667,125.5 84.8333,127 84.5,128.5C 83.8302,126.709 83.1635,125.042 82.5,123.5C 81.1472,121.872 81.4805,120.538 83.5,119.5 Z"/></g>
<g><path style="opacity:1" fill="#190e0b" d="M 88.5,96.5 C 89.1667,96.5 89.8333,96.5 90.5,96.5C 89.6305,101.617 91.6305,104.951 96.5,106.5C 95.8002,109.2 94.1336,110.867 91.5,111.5C 90.8126,117.871 90.4793,124.537 90.5,131.5C 92.4147,131.784 94.0813,131.451 95.5,130.5C 97.9521,129.935 100.285,129.268 102.5,128.5C 102.833,128.5 103.167,128.5 103.5,128.5C 103.5,129.5 103.5,130.5 103.5,131.5C 100.396,130.971 98.0625,131.971 96.5,134.5C 98.1727,136.086 100.173,136.753 102.5,136.5C 102.232,138.099 102.566,139.432 103.5,140.5C 103.833,141.167 104.167,141.833 104.5,142.5C 104.5,142.833 104.5,143.167 104.5,143.5C 102.661,142.492 101.328,140.992 100.5,139C 99.5632,138.308 98.8966,138.475 98.5,139.5C 98.1667,139.5 97.8333,139.5 97.5,139.5C 95.9192,137.858 95.2525,135.858 95.5,133.5C 94.1667,133.5 92.8333,133.5 91.5,133.5C 91.5,135.833 91.5,138.167 91.5,140.5C 91.1667,140.5 90.8333,140.5 90.5,140.5C 89.0695,140.421 87.7362,140.754 86.5,141.5C 85.6376,140.234 84.9709,138.901 84.5,137.5C 83.4863,136.326 82.153,135.66 80.5,135.5C 82.1828,131.742 82.8495,127.742 82.5,123.5C 83.1635,125.042 83.8302,126.709 84.5,128.5C 84.8333,127 85.1667,125.5 85.5,124C 85.4313,122.014 84.7647,120.514 83.5,119.5C 83.9195,117.906 84.5862,116.406 85.5,115C 84.8132,113.838 84.6466,112.672 85,111.5C 87.7848,110.105 90.6181,108.772 93.5,107.5C 92.6872,106.186 91.6872,105.019 90.5,104C 86.4616,104.444 82.4616,104.277 78.5,103.5C 76.7162,103.893 75.0495,104.559 73.5,105.5C 73.634,103.708 73.3007,102.042 72.5,100.5C 73.1667,100.5 73.5,100.167 73.5,99.5C 75.099,99.7678 76.4324,99.4345 77.5,98.5C 79.1765,99.1834 79.8432,100.517 79.5,102.5C 82.8333,102.167 86.1667,101.833 89.5,101.5C 89.3713,99.7839 89.038,98.1172 88.5,96.5 Z"/></g>
<g><path style="opacity:1" fill="#7f4a23" d="M 86.5,117.5 C 87.5,117.5 88.5,117.5 89.5,117.5C 89.5,121.833 89.5,126.167 89.5,130.5C 88.5,130.5 87.5,130.5 86.5,130.5C 86.5,126.167 86.5,121.833 86.5,117.5 Z"/></g>
<g><path style="opacity:1" fill="#4b71a2" d="M 104.5,142.5 C 104.167,141.833 103.833,141.167 103.5,140.5C 105.768,139.135 107.435,137.135 108.5,134.5C 107.714,132.429 106.381,130.762 104.5,129.5C 107.874,126.696 111.04,127.029 114,130.5C 116.547,138.566 113.381,142.566 104.5,142.5 Z"/></g>
<g><path style="opacity:1" fill="#1c2125" d="M 104.5,123.5 C 114.569,123.727 119.069,128.727 118,138.5C 115.512,140.743 112.846,142.743 110,144.5C 109.517,145.448 109.351,146.448 109.5,147.5C 109.157,149.225 108.157,149.725 106.5,149C 107.916,147.085 107.582,145.585 105.5,144.5C 104.833,144.5 104.5,144.167 104.5,143.5C 104.5,143.167 104.5,142.833 104.5,142.5C 113.381,142.566 116.547,138.566 114,130.5C 111.04,127.029 107.874,126.696 104.5,129.5C 106.381,130.762 107.714,132.429 108.5,134.5C 107.435,137.135 105.768,139.135 103.5,140.5C 102.566,139.432 102.232,138.099 102.5,136.5C 100.173,136.753 98.1727,136.086 96.5,134.5C 98.0625,131.971 100.396,130.971 103.5,131.5C 103.5,130.5 103.5,129.5 103.5,128.5C 103.216,126.585 103.549,124.919 104.5,123.5 Z"/></g>
<g><path style="opacity:1" fill="#4a77ad" d="M 259.5,121.5 C 262.66,122.317 265.327,123.984 267.5,126.5C 268.262,125.372 268.929,124.205 269.5,123C 277.543,122.671 285.543,123.171 293.5,124.5C 307.962,128.98 320.462,136.647 331,147.5C 331.63,145.097 330.797,143.263 328.5,142C 334.214,142.019 338.047,144.853 340,150.5C 340.202,148.744 340.702,147.078 341.5,145.5C 343.645,147.732 345.145,150.399 346,153.5C 347.011,154.337 348.178,154.67 349.5,154.5C 349.5,157.167 349.5,159.833 349.5,162.5C 346.307,161.989 343.141,161.322 340,160.5C 338.833,160.833 337.667,161.167 336.5,161.5C 340.843,162.013 344.843,163.347 348.5,165.5C 349.141,166.482 349.807,167.482 350.5,168.5C 350.167,168.833 349.833,169.167 349.5,169.5C 345.093,167.464 340.426,166.964 335.5,168C 334.058,168.377 333.058,169.21 332.5,170.5C 325.493,176.002 318.326,181.335 311,186.5C 314.261,178.642 314.261,170.642 311,162.5C 297.712,143.935 280.212,138.102 258.5,145C 255.042,149.154 253.542,148.988 254,144.5C 256.112,140.71 257.778,136.71 259,132.5C 259.288,128.596 259.454,124.929 259.5,121.5 Z"/></g>
<g><path style="opacity:1" fill="#191e26" d="M 78.5,103.5 C 82.4616,104.277 86.4616,104.444 90.5,104C 91.6872,105.019 92.6872,106.186 93.5,107.5C 90.6181,108.772 87.7848,110.105 85,111.5C 84.6466,112.672 84.8132,113.838 85.5,115C 84.5862,116.406 83.9195,117.906 83.5,119.5C 81.4805,120.538 81.1472,121.872 82.5,123.5C 82.8495,127.742 82.1828,131.742 80.5,135.5C 80.5,136.167 80.1667,136.5 79.5,136.5C 75.8333,136.5 72.1667,136.5 68.5,136.5C 68.7166,141.23 68.3833,145.897 67.5,150.5C 66.7109,150.217 66.0442,149.717 65.5,149C 61.0492,148.87 56.7159,148.204 52.5,147C 49.7396,141.397 46.7396,135.897 43.5,130.5C 45.863,123.036 48.863,122.703 52.5,129.5C 55.1062,130.652 57.7728,130.818 60.5,130C 61.0792,126.843 62.0792,123.843 63.5,121C 62.9706,119.441 62.304,117.941 61.5,116.5C 63.1583,113.193 65.1583,110.193 67.5,107.5C 68.3382,107.158 68.6716,106.492 68.5,105.5C 70.1667,105.5 71.8333,105.5 73.5,105.5C 70.8712,108.631 68.0379,111.631 65,114.5C 64.2797,116.112 64.4464,117.612 65.5,119C 70.8491,118.729 76.1825,118.562 81.5,118.5C 83.1713,116.49 83.838,114.157 83.5,111.5C 81.5,111.5 79.5,111.5 77.5,111.5C 77.5751,108.794 77.9084,106.127 78.5,103.5 Z"/></g>
<g><path style="opacity:1" fill="#4a78ad" d="M 66.5,121.5 C 70.1817,121.335 73.8484,121.501 77.5,122C 81.2916,124.053 82.4582,127.219 81,131.5C 78.9473,135.292 75.7806,136.458 71.5,135C 64.553,134.788 62.053,131.288 64,124.5C 65.045,123.627 65.8783,122.627 66.5,121.5 Z"/></g>
<g><path style="opacity:0.965" fill="#2f394a" d="M 293.5,122.5 C 304.905,125.536 315.239,130.703 324.5,138C 329.952,137.894 334.618,139.728 338.5,143.5C 339.768,142.572 341.101,142.405 342.5,143C 344.549,145.596 346.215,148.429 347.5,151.5C 349.071,150.691 350.738,150.357 352.5,150.5C 351.8,154.798 351.467,159.131 351.5,163.5C 349.821,163.285 348.821,163.952 348.5,165.5C 344.843,163.347 340.843,162.013 336.5,161.5C 337.667,161.167 338.833,160.833 340,160.5C 343.141,161.322 346.307,161.989 349.5,162.5C 349.5,159.833 349.5,157.167 349.5,154.5C 348.178,154.67 347.011,154.337 346,153.5C 345.145,150.399 343.645,147.732 341.5,145.5C 340.702,147.078 340.202,148.744 340,150.5C 338.047,144.853 334.214,142.019 328.5,142C 330.797,143.263 331.63,145.097 331,147.5C 320.462,136.647 307.962,128.98 293.5,124.5C 294.506,124.062 294.506,123.396 293.5,122.5 Z"/></g>
<g><path style="opacity:1" fill="#81491e" d="M 97.5,139.5 C 97.5,141.5 97.5,143.5 97.5,145.5C 95.5,145.5 93.5,145.5 91.5,145.5C 91.5,143.833 91.5,142.167 91.5,140.5C 91.5,138.167 91.5,135.833 91.5,133.5C 92.8333,133.5 94.1667,133.5 95.5,133.5C 95.2525,135.858 95.9192,137.858 97.5,139.5 Z"/></g>
<g><path style="opacity:1" fill="#975523" d="M 74.5,138.5 C 74.5,142.167 74.5,145.833 74.5,149.5C 73.1667,149.5 71.8333,149.5 70.5,149.5C 70.5,145.833 70.5,142.167 70.5,138.5C 71.8333,138.5 73.1667,138.5 74.5,138.5 Z"/></g>
<g><path style="opacity:1" fill="#4d75a5" d="M 56.5,133.5 C 66.7246,132.741 70.3913,137.408 67.5,147.5C 62.8333,146.833 58.1667,146.167 53.5,145.5C 53.2746,143.284 54.1079,141.617 56,140.5C 56.4966,138.19 56.6633,135.857 56.5,133.5 Z"/></g>
<g><path style="opacity:1" fill="#8f5024" d="M 104.5,143.5 C 104.5,144.167 104.833,144.5 105.5,144.5C 104.969,147.779 102.969,149.113 99.5,148.5C 98.8413,145.545 98.5079,142.545 98.5,139.5C 98.8966,138.475 99.5632,138.308 100.5,139C 101.328,140.992 102.661,142.492 104.5,143.5 Z"/></g>
<g><path style="opacity:1" fill="#0a1a2b" d="M 259.5,121.5 C 259.454,124.929 259.288,128.596 259,132.5C 257.778,136.71 256.112,140.71 254,144.5C 253.542,148.988 255.042,149.154 258.5,145C 280.212,138.102 297.712,143.935 311,162.5C 314.261,170.642 314.261,178.642 311,186.5C 318.326,181.335 325.493,176.002 332.5,170.5C 332.5,171.167 332.833,171.5 333.5,171.5C 324.72,178.73 315.72,185.73 306.5,192.5C 302.833,191.5 302.5,189.833 305.5,187.5C 311.589,181.672 313.089,174.672 310,166.5C 308.318,162.148 305.818,158.314 302.5,155C 300.655,153.872 298.655,153.372 296.5,153.5C 296.67,152.178 296.337,151.011 295.5,150C 285.228,145.287 274.562,143.621 263.5,145C 260.558,146.925 257.558,148.759 254.5,150.5C 253.62,153.613 252.62,156.613 251.5,159.5C 252.833,159.5 254.167,159.5 255.5,159.5C 255.5,166.5 255.5,173.5 255.5,180.5C 254.509,174.021 254.176,167.354 254.5,160.5C 253.5,160.5 252.5,160.5 251.5,160.5C 251.5,161.5 251.5,162.5 251.5,163.5C 249.114,163.259 247.114,163.925 245.5,165.5C 249.406,153.284 253.406,141.117 257.5,129C 257.333,127.833 257.167,126.667 257,125.5C 255.188,124.023 253.355,122.69 251.5,121.5C 254.414,121.195 257.081,121.195 259.5,121.5 Z"/></g>
<g><path style="opacity:1" fill="#284566" d="M 300.5,140.5 C 302.861,141.435 305.028,142.768 307,144.5C 307.127,145.777 306.627,146.943 305.5,148C 306.27,149.775 307.437,151.275 309,152.5C 309.667,153.5 309.667,154.5 309,155.5C 305.397,149.896 300.563,145.729 294.5,143C 297.051,142.998 299.051,142.164 300.5,140.5 Z"/></g>
<g><path style="opacity:1" fill="#044180" d="M 305.5,187.5 C 303.976,185.592 302.643,183.425 301.5,181C 298.167,180.333 294.833,180.333 291.5,181C 290.748,181.671 290.414,182.504 290.5,183.5C 288.359,186.472 285.692,188.972 282.5,191C 277.82,193.147 273.153,194.98 268.5,196.5C 262.636,194.406 257.636,191.072 253.5,186.5C 255.308,185.082 255.975,183.082 255.5,180.5C 255.5,173.5 255.5,166.5 255.5,159.5C 254.167,159.5 252.833,159.5 251.5,159.5C 252.62,156.613 253.62,153.613 254.5,150.5C 257.558,148.759 260.558,146.925 263.5,145C 274.562,143.621 285.228,145.287 295.5,150C 296.337,151.011 296.67,152.178 296.5,153.5C 298.655,153.372 300.655,153.872 302.5,155C 305.818,158.314 308.318,162.148 310,166.5C 313.089,174.672 311.589,181.672 305.5,187.5 Z"/></g>
<g><path style="opacity:1" fill="#79431b" d="M 84.5,137.5 C 84.9709,138.901 85.6376,140.234 86.5,141.5C 87.7362,140.754 89.0695,140.421 90.5,140.5C 90.0552,146.087 89.8885,151.754 90,157.5C 86.7747,158.995 83.6081,159.328 80.5,158.5C 81.536,151.536 81.536,144.536 80.5,137.5C 81.8333,137.5 83.1667,137.5 84.5,137.5 Z"/></g>
<g><path style="opacity:1" fill="#582b11" d="M 80.5,135.5 C 82.153,135.66 83.4863,136.326 84.5,137.5C 83.1667,137.5 81.8333,137.5 80.5,137.5C 81.536,144.536 81.536,151.536 80.5,158.5C 79.5178,159.141 78.5178,159.807 77.5,160.5C 76.5832,159.873 75.5832,159.539 74.5,159.5C 74.5,156.833 74.5,154.167 74.5,151.5C 73.5,151.5 72.5,151.5 71.5,151.5C 71.1667,150.833 70.8333,150.167 70.5,149.5C 71.8333,149.5 73.1667,149.5 74.5,149.5C 74.5,145.833 74.5,142.167 74.5,138.5C 76.3057,137.976 77.9724,137.309 79.5,136.5C 80.1667,136.5 80.5,136.167 80.5,135.5 Z"/></g>
<g><path style="opacity:1" fill="#55d0f3" d="M 251.5,121.5 C 253.355,122.69 255.188,124.023 257,125.5C 257.167,126.667 257.333,127.833 257.5,129C 253.406,141.117 249.406,153.284 245.5,165.5C 241.429,174.728 234.095,179.228 223.5,179C 218.167,179.667 212.833,179.667 207.5,179C 202.6,178.339 200.1,175.506 200,170.5C 199.274,165.448 199.441,160.448 200.5,155.5C 201.478,151.394 203.312,147.727 206,144.5C 217.049,134.56 229.549,127.06 243.5,122C 246.146,121.503 248.813,121.336 251.5,121.5 Z"/></g>
<g><path style="opacity:1" fill="#06090d" d="M 231.5,132.5 C 240.858,129.738 245.858,133.072 246.5,142.5C 245.618,152.319 242.285,161.153 236.5,169C 214.118,170.74 208.618,161.907 220,142.5C 224.026,139.302 227.859,135.968 231.5,132.5 Z"/></g>
<g><path style="opacity:1" fill="#e8e7e4" d="M 239.5,138.5 C 244.66,139.68 245.827,142.68 243,147.5C 239.474,148.832 237.641,147.499 237.5,143.5C 237.437,141.486 238.103,139.819 239.5,138.5 Z"/></g>
<g><path style="opacity:1" fill="#020509" d="M 255.5,180.5 C 255.975,183.082 255.308,185.082 253.5,186.5C 250.031,181.793 247.698,176.46 246.5,170.5C 245.699,168.958 245.366,167.292 245.5,165.5C 247.114,163.925 249.114,163.259 251.5,163.5C 251.5,162.5 251.5,161.5 251.5,160.5C 252.5,160.5 253.5,160.5 254.5,160.5C 254.176,167.354 254.509,174.021 255.5,180.5 Z"/></g>
<g><path style="opacity:1" fill="#4b75a6" d="M 199.5,153.5 C 197.588,159.581 197.088,165.914 198,172.5C 200.961,179.072 206.128,182.239 213.5,182C 210.183,182.498 206.85,182.665 203.5,182.5C 197.822,182.247 192.489,180.747 187.5,178C 186.26,176.27 185.26,174.437 184.5,172.5C 187.334,164.181 192.167,157.181 199,151.5C 199.464,152.094 199.631,152.761 199.5,153.5 Z"/></g>
<g><path style="opacity:1" fill="#a2551c" d="M 68.5,157.5 C 68.3354,160.518 68.502,163.518 69,166.5C 70.6995,167.406 72.5328,167.739 74.5,167.5C 74.5,172.167 74.5,176.833 74.5,181.5C 72.264,182.389 70.264,183.722 68.5,185.5C 66.4958,189.996 65.6625,194.662 66,199.5C 69.0683,203.391 72.235,207.058 75.5,210.5C 75.5,218.833 75.5,227.167 75.5,235.5C 71.447,236.013 67.447,236.846 63.5,238C 62.3166,240.155 62.6499,242.155 64.5,244C 67.7405,246.091 71.0738,247.924 74.5,249.5C 78.2984,250.483 82.2984,250.817 86.5,250.5C 86.627,253.816 87.627,256.816 89.5,259.5C 93.4075,261.143 97.4075,262.476 101.5,263.5C 105.926,266.205 110.593,268.538 115.5,270.5C 113.539,272.113 111.206,273.113 108.5,273.5C 107.451,275.216 106.118,276.549 104.5,277.5C 99.4889,277.334 94.4889,277.501 89.5,278C 88.8333,280 88.1667,282 87.5,284C 77.8044,284.648 68.1378,284.314 58.5,283C 53.5708,281.533 48.9041,279.533 44.5,277C 36.2768,267.275 33.4434,256.108 36,243.5C 38.8536,234.794 42.5203,226.461 47,218.5C 50.7293,209.187 50.0626,200.187 45,191.5C 44.3333,185.833 44.3333,180.167 45,174.5C 49.9766,164.664 57.81,158.998 68.5,157.5 Z"/></g>
<g><path style="opacity:1" fill="#183952" d="M 199.5,153.5 C 199.328,154.492 199.662,155.158 200.5,155.5C 199.441,160.448 199.274,165.448 200,170.5C 200.1,175.506 202.6,178.339 207.5,179C 212.833,179.667 218.167,179.667 223.5,179C 234.095,179.228 241.429,174.728 245.5,165.5C 245.366,167.292 245.699,168.958 246.5,170.5C 242.888,173.978 238.888,176.978 234.5,179.5C 235.246,180.736 235.579,182.07 235.5,183.5C 230.747,183.804 226.913,183.137 224,181.5C 220.588,181.614 217.421,182.281 214.5,183.5C 210.833,183.5 207.167,183.5 203.5,183.5C 203.5,183.167 203.5,182.833 203.5,182.5C 206.85,182.665 210.183,182.498 213.5,182C 206.128,182.239 200.961,179.072 198,172.5C 197.088,165.914 197.588,159.581 199.5,153.5 Z"/></g>
<g><path style="opacity:1" fill="#2d170c" d="M 79.5,136.5 C 77.9724,137.309 76.3057,137.976 74.5,138.5C 73.1667,138.5 71.8333,138.5 70.5,138.5C 70.5,142.167 70.5,145.833 70.5,149.5C 70.8333,150.167 71.1667,150.833 71.5,151.5C 70.5206,154.625 70.1872,157.958 70.5,161.5C 72.4832,161.843 73.8166,161.176 74.5,159.5C 75.5832,159.539 76.5832,159.873 77.5,160.5C 78.5178,159.807 79.5178,159.141 80.5,158.5C 83.6081,159.328 86.7747,158.995 90,157.5C 89.8885,151.754 90.0552,146.087 90.5,140.5C 90.8333,140.5 91.1667,140.5 91.5,140.5C 91.5,142.167 91.5,143.833 91.5,145.5C 93.5,145.5 95.5,145.5 97.5,145.5C 97.5,143.5 97.5,141.5 97.5,139.5C 97.8333,139.5 98.1667,139.5 98.5,139.5C 98.5079,142.545 98.8413,145.545 99.5,148.5C 102.969,149.113 104.969,147.779 105.5,144.5C 107.582,145.585 107.916,147.085 106.5,149C 108.157,149.725 109.157,149.225 109.5,147.5C 124.563,152.562 133.563,162.895 136.5,178.5C 135.732,177.737 135.232,176.737 135,175.5C 134.601,175.728 134.435,176.062 134.5,176.5C 132.034,170.905 129.034,165.572 125.5,160.5C 125.167,160.833 124.833,161.167 124.5,161.5C 125.614,166.446 125.781,171.446 125,176.5C 123.193,182.088 121.693,187.755 120.5,193.5C 121.179,197.369 122.346,201.036 124,204.5C 127.614,208.733 130.447,213.4 132.5,218.5C 132.167,218.5 131.833,218.5 131.5,218.5C 128.555,213.555 125.221,208.888 121.5,204.5C 120.366,201.101 119.033,197.768 117.5,194.5C 118.88,188.635 120.713,182.968 123,177.5C 127.183,157.817 119.35,148.817 99.5,150.5C 99.6653,154.182 99.4986,157.848 99,161.5C 96.7635,162.056 94.7635,163.056 93,164.5C 92.3333,168.5 92.3333,172.5 93,176.5C 103.424,180.697 106.424,188.03 102,198.5C 99.9327,201.07 97.4327,203.07 94.5,204.5C 93.502,213.141 93.1686,221.808 93.5,230.5C 98.1928,230.564 102.859,230.231 107.5,229.5C 109.333,229.585 110.666,230.252 111.5,231.5C 106.32,231.847 101.32,232.513 96.5,233.5C 92.038,233.423 87.7047,234.09 83.5,235.5C 82.1266,235.657 80.7932,235.49 79.5,235C 80.8271,227.402 80.8271,219.902 79.5,212.5C 79.5,211.167 79.5,209.833 79.5,208.5C 78.791,207.596 77.791,207.263 76.5,207.5C 76.7373,208.791 76.404,209.791 75.5,210.5C 75.7135,208.856 75.3802,207.356 74.5,206C 76.1075,206.019 77.7741,206.185 79.5,206.5C 79.5,200.167 79.5,193.833 79.5,187.5C 78.5,187.5 77.5,187.5 76.5,187.5C 76.6621,189.527 76.4955,191.527 76,193.5C 75.7508,192.376 75.2508,191.376 74.5,190.5C 72.5414,191.748 71.0414,193.415 70,195.5C 70.6496,190.16 73.6496,186.493 79,184.5C 79.4828,183.552 79.6495,182.552 79.5,181.5C 77.5082,181.328 75.8415,181.995 74.5,183.5C 73.537,183.03 73.537,182.363 74.5,181.5C 74.5,176.833 74.5,172.167 74.5,167.5C 72.5328,167.739 70.6995,167.406 69,166.5C 68.502,163.518 68.3354,160.518 68.5,157.5C 67.7375,156.732 66.7375,156.232 65.5,156C 66.756,155.583 67.4226,154.75 67.5,153.5C 67.5,152.5 67.5,151.5 67.5,150.5C 68.3833,145.897 68.7166,141.23 68.5,136.5C 72.1667,136.5 75.8333,136.5 79.5,136.5 Z"/></g>
<g><path style="opacity:1" fill="#78441e" d="M 76.5,165.5 C 77.5,165.5 78.5,165.5 79.5,165.5C 79.6657,169.846 79.499,174.179 79,178.5C 78.586,178.957 78.086,179.291 77.5,179.5C 76.5067,174.88 76.1734,170.214 76.5,165.5 Z"/></g>
<g><path style="opacity:1" fill="#854e27" d="M 87.5,164.5 C 88.5,164.5 89.5,164.5 90.5,164.5C 90.5,168.5 90.5,172.5 90.5,176.5C 89.5,176.5 88.5,176.5 87.5,176.5C 87.5,172.5 87.5,168.5 87.5,164.5 Z"/></g>
<g><path style="opacity:1" fill="#8b5127" d="M 81.5,165.5 C 82.8333,165.5 84.1667,165.5 85.5,165.5C 85.5,169.167 85.5,172.833 85.5,176.5C 83.8333,176.5 82.1667,176.5 80.5,176.5C 80.3227,172.766 80.6561,169.099 81.5,165.5 Z"/></g>
<g><path style="opacity:1" fill="#905326" d="M 71.5,151.5 C 72.5,151.5 73.5,151.5 74.5,151.5C 74.5,154.167 74.5,156.833 74.5,159.5C 73.8166,161.176 72.4832,161.843 70.5,161.5C 70.1872,157.958 70.5206,154.625 71.5,151.5 Z"/></g>
<g><path style="opacity:1" fill="#9b5322" d="M 92.5,147.5 C 94.1667,147.5 95.8333,147.5 97.5,147.5C 97.6646,150.518 97.498,153.518 97,156.5C 95.6439,157.38 94.1439,157.714 92.5,157.5C 92.5,154.167 92.5,150.833 92.5,147.5 Z"/></g>
<g><path style="opacity:1" fill="#ab83ab" d="M 423.5,289.5 C 404.638,290.003 387.305,285.336 371.5,275.5C 381.302,272.931 390.302,268.764 398.5,263C 412.323,248.825 424.323,233.325 434.5,216.5C 444.584,200.191 456.25,185.025 469.5,171C 474.617,168.471 478.117,169.971 480,175.5C 484.313,189.851 485.647,204.518 484,219.5C 483.293,221.081 482.46,222.581 481.5,224C 474.933,225.65 468.267,226.65 461.5,227C 459.158,229.419 459.491,231.753 462.5,234C 466.975,237.571 471.975,240.071 477.5,241.5C 470.437,269.901 452.437,285.901 423.5,289.5 Z"/></g>
<g><path style="opacity:1" fill="#9b531f" d="M 134.5,176.5 C 136.131,183.45 135.298,190.117 132,196.5C 131.333,200.833 131.333,205.167 132,209.5C 137.494,216.487 142.494,223.82 147,231.5C 148.043,234.757 148.543,238.09 148.5,241.5C 146.61,241.703 145.11,241.037 144,239.5C 144.707,233.385 142.373,229.052 137,226.5C 136.512,223.145 135.012,220.478 132.5,218.5C 130.447,213.4 127.614,208.733 124,204.5C 122.346,201.036 121.179,197.369 120.5,193.5C 121.693,187.755 123.193,182.088 125,176.5C 125.781,171.446 125.614,166.446 124.5,161.5C 124.833,161.167 125.167,160.833 125.5,160.5C 129.034,165.572 132.034,170.905 134.5,176.5 Z"/></g>
<g><path style="opacity:1" fill="#03050d" d="M 302.5,193.5 C 292.693,198.162 282.36,199.662 271.5,198C 270.263,197.768 269.263,197.268 268.5,196.5C 273.153,194.98 277.82,193.147 282.5,191C 285.692,188.972 288.359,186.472 290.5,183.5C 293.564,181.657 296.897,181.157 300.5,182C 301.738,184.618 301.738,187.285 300.5,190C 301.429,191.077 302.096,192.244 302.5,193.5 Z"/></g>
<g><path style="opacity:1" fill="#eddfc2" d="M 197.5,183.5 C 197.34,186.884 197.673,190.217 198.5,193.5C 198.253,194.713 197.586,195.38 196.5,195.5C 195.833,195.167 195.167,194.833 194.5,194.5C 190.531,191.043 188.698,186.71 189,181.5C 191.621,182.991 194.455,183.658 197.5,183.5 Z"/></g>
<g><path style="opacity:1" fill="#6f6552" d="M 212.5,185.5 C 215.059,185.198 217.393,185.532 219.5,186.5C 217.833,186.5 216.167,186.5 214.5,186.5C 214.5,190.167 214.5,193.833 214.5,197.5C 213.833,198.5 213.167,199.5 212.5,200.5C 212.5,195.5 212.5,190.5 212.5,185.5 Z"/></g>
<g><path style="opacity:1" fill="#232427" d="M 203.5,184.5 C 203.5,184.167 203.5,183.833 203.5,183.5C 207.167,183.5 210.833,183.5 214.5,183.5C 228.481,184.284 241.481,187.95 253.5,194.5C 253.737,195.791 253.404,196.791 252.5,197.5C 252.719,196.325 252.386,195.325 251.5,194.5C 248.316,193.578 245.149,192.578 242,191.5C 239.966,192.944 239.132,194.944 239.5,197.5C 238.833,197.167 238.167,196.833 237.5,196.5C 238.369,194.283 238.702,191.95 238.5,189.5C 232.079,188.964 225.746,187.964 219.5,186.5C 217.393,185.532 215.059,185.198 212.5,185.5C 209.518,185.037 206.518,184.704 203.5,184.5 Z"/></g>
<g><path style="opacity:1" fill="#f7eac3" d="M 219.5,186.5 C 225.746,187.964 232.079,188.964 238.5,189.5C 238.702,191.95 238.369,194.283 237.5,196.5C 232.862,199.504 228.528,203.004 224.5,207C 221.901,207.769 219.401,207.602 217,206.5C 215.85,203.582 215.017,200.582 214.5,197.5C 214.5,193.833 214.5,190.167 214.5,186.5C 216.167,186.5 217.833,186.5 219.5,186.5 Z"/></g>
<g><path style="opacity:1" fill="#55cef1" d="M 362.5,213.5 C 359.104,220.637 355.937,227.971 353,235.5C 350.6,239.402 347.434,242.402 343.5,244.5C 341.597,244.796 339.93,245.463 338.5,246.5C 330.751,248.042 323.418,246.875 316.5,243C 306.79,233.235 300.457,221.568 297.5,208C 297.542,206.033 298.042,204.199 299,202.5C 301.752,199.316 304.252,195.982 306.5,192.5C 315.72,185.73 324.72,178.73 333.5,171.5C 342.794,168.542 350.294,171.209 356,179.5C 362.216,190.081 364.383,201.415 362.5,213.5 Z"/></g>
<g><path style="opacity:1" fill="#06080b" d="M 329.5,186.5 C 342.976,186.308 349.976,192.975 350.5,206.5C 349.401,223.102 340.735,231.602 324.5,232C 312.91,227.067 305.577,218.4 302.5,206C 309.461,196.519 318.461,190.019 329.5,186.5 Z"/></g>
<g><path style="opacity:1" fill="#643717" d="M 93.5,184.5 C 101.934,186.364 104.1,191.03 100,198.5C 98.2658,200.451 96.0991,201.451 93.5,201.5C 93.5,195.833 93.5,190.167 93.5,184.5 Z"/></g>
<g><path style="opacity:1" fill="#583014" d="M 85.5,207.5 C 86.5,208.833 87.5,208.833 88.5,207.5C 88.5,215.5 88.5,223.5 88.5,231.5C 89.5,231.5 90.5,231.5 91.5,231.5C 88.4557,233.011 85.1224,233.678 81.5,233.5C 81.4905,217.482 81.3238,201.482 81,185.5C 84.4002,184.46 87.9002,183.794 91.5,183.5C 91.5,190.5 91.5,197.5 91.5,204.5C 89.8762,204.64 88.7096,203.973 88,202.5C 87.6667,198.5 87.3333,194.5 87,190.5C 86.788,196.248 86.288,201.915 85.5,207.5 Z"/></g>
<g><path style="opacity:1" fill="#706253" d="M 197.5,183.5 C 199.5,183.5 201.5,183.5 203.5,183.5C 203.5,183.833 203.5,184.167 203.5,184.5C 201.833,184.5 200.167,184.5 198.5,184.5C 199.192,188.6 200.192,192.6 201.5,196.5C 199.585,196.784 197.919,196.451 196.5,195.5C 197.586,195.38 198.253,194.713 198.5,193.5C 197.673,190.217 197.34,186.884 197.5,183.5 Z"/></g>
<g><path style="opacity:1" fill="#f0e3c1" d="M 252.5,197.5 C 250.207,200.623 247.374,203.289 244,205.5C 241.299,203.616 239.799,200.949 239.5,197.5C 239.132,194.944 239.966,192.944 242,191.5C 245.149,192.578 248.316,193.578 251.5,194.5C 252.386,195.325 252.719,196.325 252.5,197.5 Z"/></g>
<g><path style="opacity:1" fill="#edecea" d="M 325.5,189.5 C 330.993,188.178 333.493,190.178 333,195.5C 329.825,199.488 325.825,200.488 321,198.5C 320.192,196.421 320.359,194.421 321.5,192.5C 322.901,191.479 324.235,190.479 325.5,189.5 Z"/></g>
<g><path style="opacity:1" fill="#090706" d="M 194.5,194.5 C 195.167,194.833 195.833,195.167 196.5,195.5C 197.919,196.451 199.585,196.784 201.5,196.5C 201.859,198.371 202.859,199.871 204.5,201C 207.367,201.801 210.034,201.634 212.5,200.5C 213.167,199.5 213.833,198.5 214.5,197.5C 215.017,200.582 215.85,203.582 217,206.5C 219.401,207.602 221.901,207.769 224.5,207C 228.528,203.004 232.862,199.504 237.5,196.5C 238.167,196.833 238.833,197.167 239.5,197.5C 239.799,200.949 241.299,203.616 244,205.5C 247.374,203.289 250.207,200.623 252.5,197.5C 253.404,196.791 253.737,195.791 253.5,194.5C 265.94,200.611 276.606,208.945 285.5,219.5C 285.167,220.167 284.833,220.833 284.5,221.5C 283.249,226.25 281.582,230.917 279.5,235.5C 278.833,236.833 278.167,238.167 277.5,239.5C 267.94,238.176 258.273,238.509 248.5,240.5C 245.057,240.279 244.724,239.279 247.5,237.5C 242.783,232.454 237.45,228.121 231.5,224.5C 227.119,220.742 221.952,219.076 216,219.5C 211.072,218.753 206.905,220.087 203.5,223.5C 203.88,221.302 203.213,219.635 201.5,218.5C 200.4,217.395 199.733,216.062 199.5,214.5C 199.5,212.5 199.5,210.5 199.5,208.5C 196.941,208.198 194.607,208.532 192.5,209.5C 191.833,208.167 191.167,206.833 190.5,205.5C 193.581,202.993 194.581,199.993 193.5,196.5C 193.5,196.167 193.5,195.833 193.5,195.5C 193.5,194.833 193.833,194.5 194.5,194.5 Z"/></g>
<g><path style="opacity:1" fill="#f4e8c4" d="M 203.5,184.5 C 206.518,184.704 209.518,185.037 212.5,185.5C 212.5,190.5 212.5,195.5 212.5,200.5C 210.034,201.634 207.367,201.801 204.5,201C 202.859,199.871 201.859,198.371 201.5,196.5C 200.192,192.6 199.192,188.6 198.5,184.5C 200.167,184.5 201.833,184.5 203.5,184.5 Z"/></g>
<g><path style="opacity:1" fill="#a2541c" d="M 121.5,204.5 C 121.433,206.401 121.767,208.234 122.5,210C 129.452,215.093 128.785,217.759 120.5,218C 118.709,219.79 118.375,221.623 119.5,223.5C 121.72,226.287 124.386,228.62 127.5,230.5C 124.522,234.068 125.022,237.068 129,239.5C 130.234,246.684 127.234,251.018 120,252.5C 117.292,251.891 114.792,250.891 112.5,249.5C 111.551,248.848 110.385,248.514 109,248.5C 106.154,249.644 103.154,250.311 100,250.5C 97.7191,250.437 95.8858,249.603 94.5,248C 101.353,243.646 107.02,238.146 111.5,231.5C 110.666,230.252 109.333,229.585 107.5,229.5C 102.859,230.231 98.1928,230.564 93.5,230.5C 93.1686,221.808 93.502,213.141 94.5,204.5C 97.4327,203.07 99.9327,201.07 102,198.5C 106.424,188.03 103.424,180.697 93,176.5C 92.3333,172.5 92.3333,168.5 93,164.5C 94.7635,163.056 96.7635,162.056 99,161.5C 99.4986,157.848 99.6653,154.182 99.5,150.5C 119.35,148.817 127.183,157.817 123,177.5C 120.713,182.968 118.88,188.635 117.5,194.5C 119.033,197.768 120.366,201.101 121.5,204.5 Z"/></g>
<g><path style="opacity:1" fill="#486f99" d="M 193.5,195.5 C 193.5,195.833 193.5,196.167 193.5,196.5C 192.833,198.833 192.167,201.167 191.5,203.5C 189.5,203.5 187.5,203.5 185.5,203.5C 186.285,200.142 187.285,196.809 188.5,193.5C 189.167,193.167 189.833,192.833 190.5,192.5C 191.288,193.77 192.288,194.77 193.5,195.5 Z"/></g>
<g><path style="opacity:1" fill="#4a2813" d="M 74.5,181.5 C 73.537,182.363 73.537,183.03 74.5,183.5C 75.8415,181.995 77.5082,181.328 79.5,181.5C 79.6495,182.552 79.4828,183.552 79,184.5C 73.6496,186.493 70.6496,190.16 70,195.5C 71.0414,193.415 72.5414,191.748 74.5,190.5C 75.2508,191.376 75.7508,192.376 76,193.5C 76.4955,191.527 76.6621,189.527 76.5,187.5C 77.5,187.5 78.5,187.5 79.5,187.5C 79.5,193.833 79.5,200.167 79.5,206.5C 77.7741,206.185 76.1075,206.019 74.5,206C 75.3802,207.356 75.7135,208.856 75.5,210.5C 72.235,207.058 69.0683,203.391 66,199.5C 65.6625,194.662 66.4958,189.996 68.5,185.5C 70.264,183.722 72.264,182.389 74.5,181.5 Z"/></g>
<g><path style="opacity:1" fill="#a05722" d="M 85.5,207.5 C 85.5,215.833 85.5,224.167 85.5,232.5C 84.5,232.5 83.5,232.5 82.5,232.5C 82.5,224.167 82.5,215.833 82.5,207.5C 83.5,207.5 84.5,207.5 85.5,207.5 Z"/></g>
<g><path style="opacity:1" fill="#58cbec" d="M 190.5,205.5 C 189.448,212.316 188.448,219.149 187.5,226C 188.409,231.879 189.576,237.712 191,243.5C 191.383,244.056 191.883,244.389 192.5,244.5C 193.292,245.967 193.292,247.3 192.5,248.5C 189.004,246.757 185.504,245.09 182,243.5C 180.918,231.044 181.584,218.71 184,206.5C 186.041,205.577 188.208,205.244 190.5,205.5 Z"/></g>
<g><path style="opacity:1" fill="#dbd1b4" d="M 199.5,214.5 C 192.279,218.586 189.946,216.919 192.5,209.5C 194.607,208.532 196.941,208.198 199.5,208.5C 199.5,210.5 199.5,212.5 199.5,214.5 Z"/></g>
<g><path style="opacity:1" fill="#eadec3" d="M 269.5,208.5 C 273.67,209.991 277.003,212.658 279.5,216.5C 276.9,219.219 273.9,219.886 270.5,218.5C 269.583,215.242 269.249,211.909 269.5,208.5 Z"/></g>
<g><path style="opacity:0.753" fill="#535152" d="M 365.5,197.5 C 367.776,206.857 367.776,216.19 365.5,225.5C 365.5,216.167 365.5,206.833 365.5,197.5 Z"/></g>
<g><path style="opacity:1" fill="#864d24" d="M 121.5,204.5 C 125.221,208.888 128.555,213.555 131.5,218.5C 131.53,219.497 131.03,220.164 130,220.5C 126.826,219.29 123.659,219.29 120.5,220.5C 119.873,221.417 119.539,222.417 119.5,223.5C 118.375,221.623 118.709,219.79 120.5,218C 128.785,217.759 129.452,215.093 122.5,210C 121.767,208.234 121.433,206.401 121.5,204.5 Z"/></g>
<g><path style="opacity:1" fill="#955525" d="M 91.5,231.5 C 90.5,231.5 89.5,231.5 88.5,231.5C 88.5,223.5 88.5,215.5 88.5,207.5C 89.9097,206.172 91.0764,206.505 92,208.5C 92.8223,216.345 92.6557,224.011 91.5,231.5 Z"/></g>
<g><path style="opacity:1" fill="#f1e4c0" d="M 201.5,218.5 C 203.213,219.635 203.88,221.302 203.5,223.5C 199.457,225.324 195.123,226.324 190.5,226.5C 190.5,223.833 190.5,221.167 190.5,218.5C 194.134,217.242 197.8,217.242 201.5,218.5 Z"/></g>
<g><path style="opacity:1" fill="#0d3049" d="M 362.5,213.5 C 362.5,214.833 362.5,216.167 362.5,217.5C 359.715,227.905 354.715,237.072 347.5,245C 345.956,246.187 344.289,246.52 342.5,246C 343.056,245.617 343.389,245.117 343.5,244.5C 347.434,242.402 350.6,239.402 353,235.5C 355.937,227.971 359.104,220.637 362.5,213.5 Z"/></g>
<g><path style="opacity:1" fill="#f79f9f" d="M 231.5,224.5 C 231.414,225.496 231.748,226.329 232.5,227C 237.134,229.64 241.134,232.973 244.5,237C 240.67,237.407 240.003,238.74 242.5,241C 254.097,240.134 265.764,239.634 277.5,239.5C 278.444,243.611 280.944,246.278 285,247.5C 285.151,250.119 285.985,252.453 287.5,254.5C 291.437,256.697 295.437,258.697 299.5,260.5C 300.71,260.932 301.71,261.599 302.5,262.5C 301.833,263.5 301.167,264.5 300.5,265.5C 297.351,265.947 294.684,267.28 292.5,269.5C 289.447,266.976 286.113,264.976 282.5,263.5C 279.013,264.474 276.179,266.474 274,269.5C 267.902,259.251 261.235,258.918 254,268.5C 251.785,271.596 250.119,274.929 249,278.5C 248.329,279.252 247.496,279.586 246.5,279.5C 246.701,276.492 247.034,273.492 247.5,270.5C 247.519,267.794 246.852,265.294 245.5,263C 243.833,262.333 242.167,262.333 240.5,263C 237.479,266.877 233.812,269.711 229.5,271.5C 227.118,270.649 225.118,269.316 223.5,267.5C 224.058,263.989 224.724,260.489 225.5,257C 225.441,255.564 225.108,254.231 224.5,253C 218.53,251.11 214.196,252.943 211.5,258.5C 211.167,258.5 210.833,258.5 210.5,258.5C 211.553,253.911 213.386,249.578 216,245.5C 217.284,239.766 214.95,236.433 209,235.5C 209.35,231.494 207.85,228.494 204.5,226.5C 203.614,225.675 203.281,224.675 203.5,223.5C 206.905,220.087 211.072,218.753 216,219.5C 221.952,219.076 227.119,220.742 231.5,224.5 Z"/></g>
<g><path style="opacity:1" fill="#2c3c42" d="M 190.5,205.5 C 191.167,206.833 191.833,208.167 192.5,209.5C 189.946,216.919 192.279,218.586 199.5,214.5C 199.733,216.062 200.4,217.395 201.5,218.5C 197.8,217.242 194.134,217.242 190.5,218.5C 189.35,223.316 189.184,228.316 190,233.5C 190.278,234.416 190.778,235.082 191.5,235.5C 192.265,238.096 192.599,240.763 192.5,243.5C 192.5,243.833 192.5,244.167 192.5,244.5C 191.883,244.389 191.383,244.056 191,243.5C 189.576,237.712 188.409,231.879 187.5,226C 188.448,219.149 189.448,212.316 190.5,205.5 Z"/></g>
<g><path style="opacity:1" fill="#131113" d="M 136.5,178.5 C 136.5,182.833 136.5,187.167 136.5,191.5C 133.956,196.893 133.122,202.56 134,208.5C 137.422,213.678 141.089,218.678 145,223.5C 147.876,229.627 150.042,235.961 151.5,242.5C 152.952,243.302 154.618,243.802 156.5,244C 152.848,244.499 149.182,244.665 145.5,244.5C 142.157,240.902 140.657,236.569 141,231.5C 135.638,228.294 131.138,229.294 127.5,234.5C 131.777,239.267 132.444,244.434 129.5,250C 126.107,252.363 122.44,254.196 118.5,255.5C 114.937,251.998 110.603,250.664 105.5,251.5C 105.611,250.883 105.944,250.383 106.5,250C 108.473,249.505 110.473,249.338 112.5,249.5C 114.792,250.891 117.292,251.891 120,252.5C 127.234,251.018 130.234,246.684 129,239.5C 125.022,237.068 124.522,234.068 127.5,230.5C 124.386,228.62 121.72,226.287 119.5,223.5C 119.539,222.417 119.873,221.417 120.5,220.5C 123.659,219.29 126.826,219.29 130,220.5C 131.03,220.164 131.53,219.497 131.5,218.5C 131.833,218.5 132.167,218.5 132.5,218.5C 135.012,220.478 136.512,223.145 137,226.5C 142.373,229.052 144.707,233.385 144,239.5C 145.11,241.037 146.61,241.703 148.5,241.5C 148.543,238.09 148.043,234.757 147,231.5C 142.494,223.82 137.494,216.487 132,209.5C 131.333,205.167 131.333,200.833 132,196.5C 135.298,190.117 136.131,183.45 134.5,176.5C 134.435,176.062 134.601,175.728 135,175.5C 135.232,176.737 135.732,177.737 136.5,178.5 Z"/></g>
<g><path style="opacity:1" fill="#30211b" d="M 67.5,153.5 C 67.4226,154.75 66.756,155.583 65.5,156C 66.7375,156.232 67.7375,156.732 68.5,157.5C 57.81,158.998 49.9766,164.664 45,174.5C 44.3333,180.167 44.3333,185.833 45,191.5C 50.0626,200.187 50.7293,209.187 47,218.5C 42.5203,226.461 38.8536,234.794 36,243.5C 33.4434,256.108 36.2768,267.275 44.5,277C 48.9041,279.533 53.5708,281.533 58.5,283C 68.1378,284.314 77.8044,284.648 87.5,284C 88.1667,282 88.8333,280 89.5,278C 94.4889,277.501 99.4889,277.334 104.5,277.5C 100.018,278.326 95.3514,278.826 90.5,279C 89.0909,281.464 89.4243,283.631 91.5,285.5C 89.7085,285.366 88.0418,285.699 86.5,286.5C 75.6541,287.143 64.9875,286.143 54.5,283.5C 53.8333,283.833 53.1667,284.167 52.5,284.5C 55.9343,287.281 59.6009,289.614 63.5,291.5C 65.0414,292.667 66.3748,294 67.5,295.5C 64.9837,295.245 62.6504,294.411 60.5,293C 52.1141,287.621 44.6141,281.121 38,273.5C 31.8486,261.112 31.1819,248.446 36,235.5C 40.1977,227.769 43.8644,219.769 47,211.5C 47.6667,208.833 47.6667,206.167 47,203.5C 35.3612,179.124 42.1945,162.457 67.5,153.5 Z"/></g>
<g><path style="opacity:1" fill="#4a78ae" d="M 151.5,242.5 C 150.042,235.961 147.876,229.627 145,223.5C 141.089,218.678 137.422,213.678 134,208.5C 133.122,202.56 133.956,196.893 136.5,191.5C 137.158,190.602 137.824,189.602 138.5,188.5C 145.371,194.21 150.538,201.21 154,209.5C 155.092,215.221 157.092,220.554 160,225.5C 161.008,225.982 162.175,226.148 163.5,226C 167.562,231.717 172.562,236.551 178.5,240.5C 179.386,241.325 179.719,242.325 179.5,243.5C 170.199,242.613 160.866,242.279 151.5,242.5 Z"/></g>
<g><path style="opacity:1" fill="#95572c" d="M 79.5,208.5 C 79.5,209.833 79.5,211.167 79.5,212.5C 79.8303,219.532 79.497,226.532 78.5,233.5C 78.1667,229.333 77.8333,225.167 77.5,221C 77.5085,216.443 78.1752,212.276 79.5,208.5 Z"/></g>
<g><path style="opacity:1" fill="#f9ebc4" d="M 284.5,221.5 C 291.167,226.833 297.167,232.833 302.5,239.5C 302.631,240.376 302.298,241.043 301.5,241.5C 296.517,244.443 291.184,245.609 285.5,245C 280.464,243.79 278.464,240.624 279.5,235.5C 281.582,230.917 283.249,226.25 284.5,221.5 Z"/></g>
<g><path style="opacity:1" fill="#f7eac6" d="M 192.5,243.5 C 192.599,240.763 192.265,238.096 191.5,235.5C 191.042,232.606 191.709,230.106 193.5,228C 196.833,227.333 200.167,227.333 203.5,228C 206.423,230.103 207.09,232.769 205.5,236C 203.833,236.333 202.167,236.667 200.5,237C 198.229,239.782 195.563,241.949 192.5,243.5 Z"/></g>
<g><path style="opacity:1" fill="#0e2f48" d="M 305.5,187.5 C 302.5,189.833 302.833,191.5 306.5,192.5C 304.252,195.982 301.752,199.316 299,202.5C 298.042,204.199 297.542,206.033 297.5,208C 300.457,221.568 306.79,233.235 316.5,243C 323.418,246.875 330.751,248.042 338.5,246.5C 339.552,246.351 340.552,246.517 341.5,247C 332.901,250.613 324.567,249.946 316.5,245C 305.856,234.71 298.856,222.377 295.5,208C 296.454,202.374 299.12,197.707 303.5,194C 303.272,193.601 302.938,193.435 302.5,193.5C 302.096,192.244 301.429,191.077 300.5,190C 301.738,187.285 301.738,184.618 300.5,182C 296.897,181.157 293.564,181.657 290.5,183.5C 290.414,182.504 290.748,181.671 291.5,181C 294.833,180.333 298.167,180.333 301.5,181C 302.643,183.425 303.976,185.592 305.5,187.5 Z"/></g>
<g><path style="opacity:1" fill="#9d551f" d="M 96.5,233.5 C 103.596,232.823 104.596,234.323 99.5,238C 93.1957,241.539 86.529,243.706 79.5,244.5C 75.8183,244.665 72.1516,244.499 68.5,244C 62.98,241.225 63.3133,239.225 69.5,238C 74.3617,237.477 79.0284,236.644 83.5,235.5C 87.7047,234.09 92.038,233.423 96.5,233.5 Z"/></g>
<g><path style="opacity:1" fill="#695749" d="M 190.5,218.5 C 190.5,221.167 190.5,223.833 190.5,226.5C 195.123,226.324 199.457,225.324 203.5,223.5C 203.281,224.675 203.614,225.675 204.5,226.5C 207.85,228.494 209.35,231.494 209,235.5C 214.95,236.433 217.284,239.766 216,245.5C 213.386,249.578 211.553,253.911 210.5,258.5C 209.833,258.167 209.167,257.833 208.5,257.5C 210.048,253.402 211.881,249.402 214,245.5C 214.896,242.975 214.396,240.808 212.5,239C 204.785,236.355 198.785,238.522 194.5,245.5C 194.158,244.662 193.492,244.328 192.5,244.5C 192.5,244.167 192.5,243.833 192.5,243.5C 195.563,241.949 198.229,239.782 200.5,237C 202.167,236.667 203.833,236.333 205.5,236C 207.09,232.769 206.423,230.103 203.5,228C 200.167,227.333 196.833,227.333 193.5,228C 191.709,230.106 191.042,232.606 191.5,235.5C 190.778,235.082 190.278,234.416 190,233.5C 189.184,228.316 189.35,223.316 190.5,218.5 Z"/></g>
<g><path style="opacity:1" fill="#c78c8c" d="M 231.5,224.5 C 237.45,228.121 242.783,232.454 247.5,237.5C 244.724,239.279 245.057,240.279 248.5,240.5C 258.273,238.509 267.94,238.176 277.5,239.5C 265.764,239.634 254.097,240.134 242.5,241C 240.003,238.74 240.67,237.407 244.5,237C 241.134,232.973 237.134,229.64 232.5,227C 231.748,226.329 231.414,225.496 231.5,224.5 Z"/></g>
<g><path style="opacity:1" fill="#715c4f" d="M 279.5,235.5 C 278.464,240.624 280.464,243.79 285.5,245C 291.184,245.609 296.517,244.443 301.5,241.5C 302.298,241.043 302.631,240.376 302.5,239.5C 303.5,239.833 304.167,240.5 304.5,241.5C 299.693,244.731 294.359,246.564 288.5,247C 287.424,248.726 287.257,250.559 288,252.5C 294.77,257.765 302.27,258.931 310.5,256C 312.751,255.252 314.084,253.752 314.5,251.5C 315.5,252.5 316.5,253.5 317.5,254.5C 311.71,257.44 305.71,259.44 299.5,260.5C 295.437,258.697 291.437,256.697 287.5,254.5C 285.985,252.453 285.151,250.119 285,247.5C 280.944,246.278 278.444,243.611 277.5,239.5C 278.167,238.167 278.833,236.833 279.5,235.5 Z"/></g>
<g><path style="opacity:1" fill="#421f0b" d="M 79.5,208.5 C 78.1752,212.276 77.5085,216.443 77.5,221C 77.8333,225.167 78.1667,229.333 78.5,233.5C 79.497,226.532 79.8303,219.532 79.5,212.5C 80.8271,219.902 80.8271,227.402 79.5,235C 80.7932,235.49 82.1266,235.657 83.5,235.5C 79.0284,236.644 74.3617,237.477 69.5,238C 63.3133,239.225 62.98,241.225 68.5,244C 72.1516,244.499 75.8183,244.665 79.5,244.5C 80.2389,244.369 80.9056,244.536 81.5,245C 79.2852,245.17 77.2852,245.837 75.5,247C 79.5,247.333 83.5,247.667 87.5,248C 83.2695,249.29 78.9362,249.79 74.5,249.5C 71.0738,247.924 67.7405,246.091 64.5,244C 62.6499,242.155 62.3166,240.155 63.5,238C 67.447,236.846 71.447,236.013 75.5,235.5C 75.5,227.167 75.5,218.833 75.5,210.5C 76.404,209.791 76.7373,208.791 76.5,207.5C 77.791,207.263 78.791,207.596 79.5,208.5 Z"/></g>
<g><path style="opacity:1" fill="#643517" d="M 111.5,231.5 C 107.02,238.146 101.353,243.646 94.5,248C 95.8858,249.603 97.7191,250.437 100,250.5C 103.154,250.311 106.154,249.644 109,248.5C 110.385,248.514 111.551,248.848 112.5,249.5C 110.473,249.338 108.473,249.505 106.5,250C 105.944,250.383 105.611,250.883 105.5,251.5C 100.48,253.164 95.813,252.497 91.5,249.5C 88.0557,250.952 87.5557,253.286 90,256.5C 92.619,259.889 96.119,261.389 100.5,261C 101.252,261.671 101.586,262.504 101.5,263.5C 97.4075,262.476 93.4075,261.143 89.5,259.5C 87.627,256.816 86.627,253.816 86.5,250.5C 82.2984,250.817 78.2984,250.483 74.5,249.5C 78.9362,249.79 83.2695,249.29 87.5,248C 83.5,247.667 79.5,247.333 75.5,247C 77.2852,245.837 79.2852,245.17 81.5,245C 80.9056,244.536 80.2389,244.369 79.5,244.5C 86.529,243.706 93.1957,241.539 99.5,238C 104.596,234.323 103.596,232.823 96.5,233.5C 101.32,232.513 106.32,231.847 111.5,231.5 Z"/></g>
<g><path style="opacity:1" fill="#f7e9c3" d="M 304.5,241.5 C 308.167,244.5 311.5,247.833 314.5,251.5C 314.084,253.752 312.751,255.252 310.5,256C 302.27,258.931 294.77,257.765 288,252.5C 287.257,250.559 287.424,248.726 288.5,247C 294.359,246.564 299.693,244.731 304.5,241.5 Z"/></g>
<g><path style="opacity:1" fill="#252d37" d="M 285.5,219.5 C 298.933,232.321 311.933,245.654 324.5,259.5C 323.833,259.833 323.167,260.167 322.5,260.5C 321.581,257.911 319.914,255.911 317.5,254.5C 316.5,253.5 315.5,252.5 314.5,251.5C 311.5,247.833 308.167,244.5 304.5,241.5C 304.167,240.5 303.5,239.833 302.5,239.5C 297.167,232.833 291.167,226.833 284.5,221.5C 284.833,220.833 285.167,220.167 285.5,219.5 Z"/></g>
<g><path style="opacity:1" fill="#4a79b2" d="M 145.5,244.5 C 156.716,245.09 168.049,245.924 179.5,247C 184.42,249.196 189.42,251.196 194.5,253C 211,262.749 227.334,272.749 243.5,283C 247.649,282.227 251.816,282.393 256,283.5C 262.364,285.233 268.531,287.233 274.5,289.5C 274.842,290.338 275.508,290.672 276.5,290.5C 280.679,293.027 284.179,296.36 287,300.5C 289.341,310.498 285.841,317.665 276.5,322C 263.469,324.664 251.135,322.997 239.5,317C 242.377,315.873 245.377,315.206 248.5,315C 239.959,312.837 231.626,313.504 223.5,317C 206.678,318.287 190.012,317.287 173.5,314C 166.331,311.454 159.331,308.454 152.5,305C 146.698,300.2 141.198,295.033 136,289.5C 134.957,294.223 132.124,296.056 127.5,295C 121.85,291.369 122.184,288.369 128.5,286C 124.594,285.031 121.261,285.864 118.5,288.5C 113.867,289.542 110.701,287.875 109,283.5C 108.333,281.167 108.333,278.833 109,276.5C 113.082,274.648 117.249,272.982 121.5,271.5C 121.023,270.522 120.357,269.689 119.5,269C 114.125,267.226 108.959,265.06 104,262.5C 101.689,258.374 102.189,254.707 105.5,251.5C 110.603,250.664 114.937,251.998 118.5,255.5C 122.44,254.196 126.107,252.363 129.5,250C 132.444,244.434 131.777,239.267 127.5,234.5C 131.138,229.294 135.638,228.294 141,231.5C 140.657,236.569 142.157,240.902 145.5,244.5 Z"/></g>
<g><path style="opacity:1" fill="#f6e8c3" d="M 208.5,257.5 C 204.886,255.693 201.22,253.86 197.5,252C 196.086,250.007 195.086,247.84 194.5,245.5C 198.785,238.522 204.785,236.355 212.5,239C 214.396,240.808 214.896,242.975 214,245.5C 211.881,249.402 210.048,253.402 208.5,257.5 Z"/></g>
<g><path style="opacity:1" fill="#785a4e" d="M 223.5,267.5 C 222.833,266.833 222.167,266.167 221.5,265.5C 223.092,262.034 223.758,258.367 223.5,254.5C 217.883,253.146 214.216,255.146 212.5,260.5C 211.662,260.158 211.328,259.492 211.5,258.5C 214.196,252.943 218.53,251.11 224.5,253C 225.108,254.231 225.441,255.564 225.5,257C 224.724,260.489 224.058,263.989 223.5,267.5 Z"/></g>
<g><path style="opacity:1" fill="#f0e2c2" d="M 221.5,265.5 C 218.24,264.226 215.24,262.56 212.5,260.5C 214.216,255.146 217.883,253.146 223.5,254.5C 223.758,258.367 223.092,262.034 221.5,265.5 Z"/></g>
<g><path style="opacity:1" fill="#f0e3c3" d="M 317.5,254.5 C 319.914,255.911 321.581,257.911 322.5,260.5C 317.092,264.085 311.092,265.251 304.5,264C 303.584,263.722 302.918,263.222 302.5,262.5C 301.71,261.599 300.71,260.932 299.5,260.5C 305.71,259.44 311.71,257.44 317.5,254.5 Z"/></g>
<g><path style="opacity:1" fill="#0d0d0e" d="M 324.5,259.5 C 327.348,260.708 330.014,262.208 332.5,264C 330.649,265.683 328.983,267.516 327.5,269.5C 326.1,270.1 325.1,271.1 324.5,272.5C 321.095,273.038 318.095,274.371 315.5,276.5C 315.5,276.167 315.5,275.833 315.5,275.5C 314.26,270.082 310.927,267.582 305.5,268C 304.119,269.534 302.786,269.368 301.5,267.5C 301.167,266.833 300.833,266.167 300.5,265.5C 301.167,264.5 301.833,263.5 302.5,262.5C 302.918,263.222 303.584,263.722 304.5,264C 311.092,265.251 317.092,264.085 322.5,260.5C 323.167,260.167 323.833,259.833 324.5,259.5 Z"/></g>
<g><path style="opacity:1" fill="#64483d" d="M 246.5,279.5 C 245.833,279.167 245.167,278.833 244.5,278.5C 245.748,273.968 245.748,269.468 244.5,265C 243.167,264.333 241.833,264.333 240.5,265C 237.152,267.501 234.818,270.668 233.5,274.5C 232.26,273.341 230.926,272.341 229.5,271.5C 233.812,269.711 237.479,266.877 240.5,263C 242.167,262.333 243.833,262.333 245.5,263C 246.852,265.294 247.519,267.794 247.5,270.5C 247.034,273.492 246.701,276.492 246.5,279.5 Z"/></g>
<g><path style="opacity:0.971" fill="#352d31" d="M 428.5,292.5 C 428.804,291.85 429.137,291.183 429.5,290.5C 427.604,289.534 425.604,289.201 423.5,289.5C 452.437,285.901 470.437,269.901 477.5,241.5C 471.975,240.071 466.975,237.571 462.5,234C 459.491,231.753 459.158,229.419 461.5,227C 468.267,226.65 474.933,225.65 481.5,224C 482.46,222.581 483.293,221.081 484,219.5C 485.647,204.518 484.313,189.851 480,175.5C 478.117,169.971 474.617,168.471 469.5,171C 456.25,185.025 444.584,200.191 434.5,216.5C 434.631,215.761 434.464,215.094 434,214.5C 432.556,216.155 430.722,216.822 428.5,216.5C 430.355,215.31 432.188,213.977 434,212.5C 443.3,197.195 454.133,183.028 466.5,170C 474.237,165.29 479.737,167.123 483,175.5C 487.203,189.199 488.536,203.199 487,217.5C 486.79,220.234 485.956,222.734 484.5,225C 477.054,227.287 469.721,228.787 462.5,229.5C 467.312,234.411 472.978,238.078 479.5,240.5C 479.833,241.333 480.167,242.167 480.5,243C 473.133,269.846 455.8,286.346 428.5,292.5 Z"/></g>
<g><path style="opacity:1" fill="#f2e6c3" d="M 244.5,278.5 C 240.322,279.272 236.655,277.939 233.5,274.5C 234.818,270.668 237.152,267.501 240.5,265C 241.833,264.333 243.167,264.333 244.5,265C 245.748,269.468 245.748,273.968 244.5,278.5 Z"/></g>
<g><path style="opacity:1" fill="#f3e5c2" d="M 268.5,284.5 C 262.383,283.279 256.383,281.945 250.5,280.5C 251.895,273.584 255.562,268.084 261.5,264C 266.97,262.779 270.47,264.946 272,270.5C 272.648,275.204 272.481,279.871 271.5,284.5C 270.5,284.5 269.5,284.5 268.5,284.5 Z"/></g>
<g><path style="opacity:1" fill="#eee1c0" d="M 301.5,267.5 C 302.786,269.368 304.119,269.534 305.5,268C 310.927,267.582 314.26,270.082 315.5,275.5C 312.607,277.114 309.607,278.447 306.5,279.5C 306.662,277.473 306.495,275.473 306,273.5C 305.818,276.226 305.318,278.893 304.5,281.5C 300.064,283.522 295.731,285.522 291.5,287.5C 290.957,287.44 290.624,287.107 290.5,286.5C 291.531,285.3 292.365,283.966 293,282.5C 293.333,278.833 293.667,275.167 294,271.5C 295.715,268.603 298.215,267.269 301.5,267.5 Z"/></g>
<g><path style="opacity:1" fill="#5b483c" d="M 300.5,265.5 C 300.833,266.167 301.167,266.833 301.5,267.5C 298.215,267.269 295.715,268.603 294,271.5C 293.667,275.167 293.333,278.833 293,282.5C 292.365,283.966 291.531,285.3 290.5,286.5C 290.624,287.107 290.957,287.44 291.5,287.5C 286.893,289.56 281.893,290.56 276.5,290.5C 275.508,290.672 274.842,290.338 274.5,289.5C 275.625,288.652 275.625,287.652 274.5,286.5C 272.302,286.125 270.302,285.458 268.5,284.5C 269.5,284.5 270.5,284.5 271.5,284.5C 272.481,279.871 272.648,275.204 272,270.5C 270.47,264.946 266.97,262.779 261.5,264C 255.562,268.084 251.895,273.584 250.5,280.5C 248.901,280.768 247.568,280.434 246.5,279.5C 247.496,279.586 248.329,279.252 249,278.5C 250.119,274.929 251.785,271.596 254,268.5C 261.235,258.918 267.902,259.251 274,269.5C 276.179,266.474 279.013,264.474 282.5,263.5C 286.113,264.976 289.447,266.976 292.5,269.5C 294.684,267.28 297.351,265.947 300.5,265.5 Z"/></g>
<g><path style="opacity:1" fill="#f7eac6" d="M 274.5,286.5 C 273.734,281.563 273.9,276.563 275,271.5C 280.145,263.564 285.479,263.564 291,271.5C 293.569,280.717 290.402,286.717 281.5,289.5C 279.261,288.212 276.928,287.212 274.5,286.5 Z"/></g>
<g><path style="opacity:1" fill="#161214" d="M 105.5,251.5 C 102.189,254.707 101.689,258.374 104,262.5C 108.959,265.06 114.125,267.226 119.5,269C 120.357,269.689 121.023,270.522 121.5,271.5C 117.249,272.982 113.082,274.648 109,276.5C 108.333,278.833 108.333,281.167 109,283.5C 110.701,287.875 113.867,289.542 118.5,288.5C 119.833,288.5 121.167,288.5 122.5,288.5C 122.708,290.92 122.374,293.253 121.5,295.5C 118.215,296.324 114.882,296.824 111.5,297C 112.728,298.49 112.728,299.99 111.5,301.5C 102.569,301.425 93.5685,301.258 84.5,301C 78.3743,300.226 72.7077,298.393 67.5,295.5C 75.842,297.606 84.342,298.94 93,299.5C 101.099,299.646 108.599,297.813 115.5,294C 117.473,293.505 119.473,293.338 121.5,293.5C 121.5,292.5 121.5,291.5 121.5,290.5C 118.482,290.665 115.482,290.498 112.5,290C 111.182,288.092 109.348,287.258 107,287.5C 101.359,289.4 96.192,288.733 91.5,285.5C 89.4243,283.631 89.0909,281.464 90.5,279C 95.3514,278.826 100.018,278.326 104.5,277.5C 106.118,276.549 107.451,275.216 108.5,273.5C 111.206,273.113 113.539,272.113 115.5,270.5C 110.593,268.538 105.926,266.205 101.5,263.5C 101.586,262.504 101.252,261.671 100.5,261C 96.119,261.389 92.619,259.889 90,256.5C 87.5557,253.286 88.0557,250.952 91.5,249.5C 95.813,252.497 100.48,253.164 105.5,251.5 Z"/></g>
<g><path style="opacity:1" fill="#57d0f3" d="M 324.5,272.5 C 325.458,273.962 326.624,275.295 328,276.5C 328.944,279.347 328.444,281.847 326.5,284C 320.674,286.217 315.008,288.717 309.5,291.5C 302.61,294.08 295.61,295.914 288.5,297C 287.624,295.414 286.624,293.914 285.5,292.5C 285.833,292.167 286.167,291.833 286.5,291.5C 291.444,289.514 296.444,287.681 301.5,286C 306.406,283.058 311.072,279.891 315.5,276.5C 318.095,274.371 321.095,273.038 324.5,272.5 Z"/></g>
<g><path style="opacity:1" fill="#794725" d="M 86.5,286.5 C 78.3237,287.167 69.9904,287.833 61.5,288.5C 62.6119,289.265 63.2786,290.265 63.5,291.5C 59.6009,289.614 55.9343,287.281 52.5,284.5C 53.1667,284.167 53.8333,283.833 54.5,283.5C 64.9875,286.143 75.6541,287.143 86.5,286.5 Z"/></g>
<g><path style="opacity:1" fill="#4a77ab" d="M 246.5,170.5 C 247.698,176.46 250.031,181.793 253.5,186.5C 257.636,191.072 262.636,194.406 268.5,196.5C 269.263,197.268 270.263,197.768 271.5,198C 282.36,199.662 292.693,198.162 302.5,193.5C 302.938,193.435 303.272,193.601 303.5,194C 299.12,197.707 296.454,202.374 295.5,208C 298.856,222.377 305.856,234.71 316.5,245C 324.567,249.946 332.901,250.613 341.5,247C 340.552,246.517 339.552,246.351 338.5,246.5C 339.93,245.463 341.597,244.796 343.5,244.5C 343.389,245.117 343.056,245.617 342.5,246C 344.289,246.52 345.956,246.187 347.5,245C 354.715,237.072 359.715,227.905 362.5,217.5C 363.147,218.274 363.48,219.274 363.5,220.5C 362.953,223.826 362.453,227.16 362,230.5C 358.342,239.975 355.175,249.641 352.5,259.5C 355.425,259.54 358.091,258.707 360.5,257C 371.146,250.365 381.813,243.698 392.5,237C 404.58,230.125 416.913,224.125 429.5,219C 420.767,235.067 409.767,249.4 396.5,262C 384.633,270.476 371.299,274.976 356.5,275.5C 361.132,276.328 365.798,276.828 370.5,277C 376.04,280.27 381.707,283.27 387.5,286C 394.555,287.775 401.555,289.609 408.5,291.5C 388.397,292.706 368.731,290.206 349.5,284C 346.213,282.696 343.213,281.03 340.5,279C 341.608,276.888 343.108,275.054 345,273.5C 345.688,272.668 345.521,272.002 344.5,271.5C 340.689,275.24 336.356,278.24 331.5,280.5C 330.392,277.164 328.726,274.164 326.5,271.5C 326.863,270.817 327.196,270.15 327.5,269.5C 328.983,267.516 330.649,265.683 332.5,264C 330.014,262.208 327.348,260.708 324.5,259.5C 311.933,245.654 298.933,232.321 285.5,219.5C 276.606,208.945 265.94,200.611 253.5,194.5C 241.481,187.95 228.481,184.284 214.5,183.5C 217.421,182.281 220.588,181.614 224,181.5C 226.913,183.137 230.747,183.804 235.5,183.5C 235.579,182.07 235.246,180.736 234.5,179.5C 238.888,176.978 242.888,173.978 246.5,170.5 Z"/></g>
<g><path style="opacity:1" fill="#9e541e" d="M 91.5,285.5 C 96.192,288.733 101.359,289.4 107,287.5C 109.348,287.258 111.182,288.092 112.5,290C 115.482,290.498 118.482,290.665 121.5,290.5C 121.5,291.5 121.5,292.5 121.5,293.5C 119.473,293.338 117.473,293.505 115.5,294C 108.599,297.813 101.099,299.646 93,299.5C 84.342,298.94 75.842,297.606 67.5,295.5C 66.3748,294 65.0414,292.667 63.5,291.5C 63.2786,290.265 62.6119,289.265 61.5,288.5C 69.9904,287.833 78.3237,287.167 86.5,286.5C 88.0418,285.699 89.7085,285.366 91.5,285.5 Z"/></g>
<g><path style="opacity:1" fill="#52d6fb" d="M 154.5,310.5 C 161.092,311.975 167.426,314.142 173.5,317C 176.478,317.696 179.478,318.196 182.5,318.5C 193.728,321.361 205.061,322.028 216.5,320.5C 217.5,320.5 218.5,320.5 219.5,320.5C 220.978,320.238 222.311,320.571 223.5,321.5C 220.484,330.067 219.151,338.9 219.5,348C 220.626,362.082 222.292,376.082 224.5,390C 225.237,400.669 222.57,410.335 216.5,419C 198.478,431.333 179.145,433.666 158.5,426C 146.34,420.34 137.34,411.506 131.5,399.5C 131.204,397.597 130.537,395.93 129.5,394.5C 125.19,379.392 125.69,364.392 131,349.5C 138.689,336.334 146.522,323.334 154.5,310.5 Z"/></g>
<g><path style="opacity:1" fill="#204b5b" d="M 182.5,318.5 C 193.778,319.971 205.112,320.637 216.5,320.5C 205.061,322.028 193.728,321.361 182.5,318.5 Z"/></g>
<g><path style="opacity:1" fill="#0e2f47" d="M 219.5,320.5 C 221.834,319.785 224.167,319.452 226.5,319.5C 224.516,325.327 223.016,331.327 222,337.5C 221.833,341.5 221.667,345.5 221.5,349.5C 223.111,364 224.777,378.5 226.5,393C 227.137,404.974 223.137,414.974 214.5,423C 207.256,426.915 199.589,429.749 191.5,431.5C 163.327,435.082 142.661,424.415 129.5,399.5C 129.97,398.537 130.637,398.537 131.5,399.5C 137.34,411.506 146.34,420.34 158.5,426C 179.145,433.666 198.478,431.333 216.5,419C 222.57,410.335 225.237,400.669 224.5,390C 222.292,376.082 220.626,362.082 219.5,348C 219.151,338.9 220.484,330.067 223.5,321.5C 222.311,320.571 220.978,320.238 219.5,320.5 Z"/></g>
<g><path style="opacity:1" fill="#4a79b2" d="M 238.5,469.5 C 238.069,466.467 236.902,463.467 235,460.5C 232.841,458.044 232.008,458.71 232.5,462.5C 231.167,462.5 229.833,462.5 228.5,462.5C 228.703,460.61 228.037,459.11 226.5,458C 224.5,457.667 222.5,457.333 220.5,457C 212.476,452.018 203.81,448.352 194.5,446C 192.349,444.226 190.016,442.726 187.5,441.5C 188.665,440.416 189.998,439.583 191.5,439C 187.957,438.193 184.623,436.86 181.5,435C 185.324,434.567 188.657,433.401 191.5,431.5C 199.589,429.749 207.256,426.915 214.5,423C 223.137,414.974 227.137,404.974 226.5,393C 224.777,378.5 223.111,364 221.5,349.5C 221.667,345.5 221.833,341.5 222,337.5C 223.016,331.327 224.516,325.327 226.5,319.5C 229.519,317.663 232.852,317.163 236.5,318C 242.201,320.342 247.867,322.675 253.5,325C 254.516,325.519 255.182,326.353 255.5,327.5C 253.473,330.365 251.64,333.365 250,336.5C 249.39,340.236 249.723,343.903 251,347.5C 260.465,360.432 267.798,374.432 273,389.5C 274.355,395.785 274.689,402.118 274,408.5C 272.907,406.651 271.574,404.984 270,403.5C 269.333,404.833 269.333,406.167 270,407.5C 279.189,420.008 287.522,433.008 295,446.5C 296.986,452.317 297.986,458.317 298,464.5C 298.689,463.643 299.522,462.977 300.5,462.5C 301.167,464.5 301.833,466.5 302.5,468.5C 303.863,467.121 304.863,467.287 305.5,469C 303.085,472.758 301.918,476.925 302,481.5C 299.2,474.925 298.367,475.258 299.5,482.5C 297.24,481.861 295.24,480.694 293.5,479C 291.833,478.333 290.167,478.333 288.5,479C 290.345,480.128 292.345,480.628 294.5,480.5C 294.5,481.5 294.5,482.5 294.5,483.5C 290.818,483.335 287.152,483.501 283.5,484C 280.437,485.066 278.937,487.233 279,490.5C 277.667,491.833 276.333,491.833 275,490.5C 276.116,484.022 274.95,483.355 271.5,488.5C 267.619,489.986 263.952,489.652 260.5,487.5C 259.5,488.167 258.5,488.833 257.5,489.5C 254.5,487.333 251.5,485.167 248.5,483C 245.808,482.57 243.141,482.737 240.5,483.5C 238.343,479.834 236.676,475.834 235.5,471.5C 237.226,471.815 238.893,471.981 240.5,472C 239.619,471.292 238.953,470.458 238.5,469.5 Z"/></g>
<g><path style="opacity:1" fill="#05263f" d="M 153.5,310.5 C 153.833,310.5 154.167,310.5 154.5,310.5C 146.522,323.334 138.689,336.334 131,349.5C 125.69,364.392 125.19,379.392 129.5,394.5C 129.587,397.598 129.087,397.932 128,395.5C 122.333,376.505 124,358.171 133,340.5C 140.508,330.849 147.341,320.849 153.5,310.5 Z"/></g>
<g><path style="opacity:1" fill="#4a78af" d="M 145.5,302.5 C 146.404,303.209 146.737,304.209 146.5,305.5C 148.783,305.608 150.783,306.441 152.5,308C 153.252,308.671 153.586,309.504 153.5,310.5C 147.341,320.849 140.508,330.849 133,340.5C 124,358.171 122.333,376.505 128,395.5C 129.087,397.932 129.587,397.598 129.5,394.5C 130.537,395.93 131.204,397.597 131.5,399.5C 130.637,398.537 129.97,398.537 129.5,399.5C 142.661,424.415 163.327,435.082 191.5,431.5C 188.657,433.401 185.324,434.567 181.5,435C 184.623,436.86 187.957,438.193 191.5,439C 189.998,439.583 188.665,440.416 187.5,441.5C 190.016,442.726 192.349,444.226 194.5,446C 203.81,448.352 212.476,452.018 220.5,457C 222.5,457.333 224.5,457.667 226.5,458C 228.037,459.11 228.703,460.61 228.5,462.5C 229.833,462.5 231.167,462.5 232.5,462.5C 232.008,458.71 232.841,458.044 235,460.5C 236.902,463.467 238.069,466.467 238.5,469.5C 223.252,459.349 206.919,451.183 189.5,445C 177.303,442.344 164.97,440.51 152.5,439.5C 147.035,439.322 141.701,439.989 136.5,441.5C 142.319,442.167 147.986,442.833 153.5,443.5C 153.762,444.978 153.429,446.311 152.5,447.5C 148.86,449.474 145.86,452.141 143.5,455.5C 143.752,457.073 144.418,458.406 145.5,459.5C 143.316,461.585 140.649,462.585 137.5,462.5C 137.157,464.483 137.824,465.817 139.5,466.5C 138.974,468.23 137.974,469.564 136.5,470.5C 134.55,464.742 130.55,462.576 124.5,464C 122.963,465.11 122.297,466.61 122.5,468.5C 121.5,468.5 120.5,468.5 119.5,468.5C 119.719,467.325 119.386,466.325 118.5,465.5C 116.326,468.081 114.16,468.081 112,465.5C 111.261,466.574 110.261,467.241 109,467.5C 107.294,465.273 105.46,463.106 103.5,461C 101.1,460.814 98.7662,460.314 96.5,459.5C 97.4279,458.232 97.5946,456.899 97,455.5C 95.8867,457.329 94.3867,458.163 92.5,458C 91.5495,454.943 91.2161,451.777 91.5,448.5C 96.8192,451.44 102.486,453.273 108.5,454C 100.451,450.553 93.2844,445.719 87,439.5C 84.7298,435.07 84.0631,430.403 85,425.5C 86.6413,420.214 89.308,415.547 93,411.5C 101.751,404.751 109.084,396.751 115,387.5C 115.667,388.167 116.333,388.833 117,389.5C 118.121,373.986 120.454,358.653 124,343.5C 127.962,329.404 135.129,317.238 145.5,307C 144.906,306.536 144.239,306.369 143.5,306.5C 144.6,305.395 145.267,304.062 145.5,302.5 Z"/></g>
<g><path style="opacity:1" fill="#1c2129" d="M 143.5,306.5 C 144.239,306.369 144.906,306.536 145.5,307C 135.129,317.238 127.962,329.404 124,343.5C 120.454,358.653 118.121,373.986 117,389.5C 116.333,388.833 115.667,388.167 115,387.5C 109.084,396.751 101.751,404.751 93,411.5C 89.308,415.547 86.6413,420.214 85,425.5C 84.0631,430.403 84.7298,435.07 87,439.5C 93.2844,445.719 100.451,450.553 108.5,454C 102.486,453.273 96.8192,451.44 91.5,448.5C 91.2161,451.777 91.5495,454.943 92.5,458C 94.3867,458.163 95.8867,457.329 97,455.5C 97.5946,456.899 97.4279,458.232 96.5,459.5C 98.7662,460.314 101.1,460.814 103.5,461C 105.46,463.106 107.294,465.273 109,467.5C 110.261,467.241 111.261,466.574 112,465.5C 114.16,468.081 116.326,468.081 118.5,465.5C 119.386,466.325 119.719,467.325 119.5,468.5C 120.5,468.5 121.5,468.5 122.5,468.5C 122.297,466.61 122.963,465.11 124.5,464C 130.55,462.576 134.55,464.742 136.5,470.5C 131.196,476.908 125.53,477.075 119.5,471C 113.846,470.096 108.346,470.596 103,472.5C 97.3211,472.154 94.3211,469.154 94,463.5C 88.8556,462.356 85.689,459.189 84.5,454C 85,452.5 85.5,451 86,449.5C 87.4866,448.845 88.6533,447.845 89.5,446.5C 79.796,436.584 78.9627,425.917 87,414.5C 94.3062,405.86 102.306,397.86 111,390.5C 112.333,387.833 113.667,385.167 115,382.5C 116.54,365.465 119.874,348.798 125,332.5C 128.979,322.183 135.146,313.516 143.5,306.5 Z"/></g>
<g><path style="opacity:1" fill="#1c2128" d="M 351.5,163.5 C 355.177,169.356 358.677,175.356 362,181.5C 364.313,186.6 365.48,191.933 365.5,197.5C 365.5,206.833 365.5,216.167 365.5,225.5C 364.679,235.653 361.679,245.153 356.5,254C 356.833,254.5 357.167,255 357.5,255.5C 366.841,250.165 375.841,244.332 384.5,238C 398.821,230.006 413.487,222.839 428.5,216.5C 430.722,216.822 432.556,216.155 434,214.5C 434.464,215.094 434.631,215.761 434.5,216.5C 424.323,233.325 412.323,248.825 398.5,263C 390.302,268.764 381.302,272.931 371.5,275.5C 387.305,285.336 404.638,290.003 423.5,289.5C 425.604,289.201 427.604,289.534 429.5,290.5C 429.137,291.183 428.804,291.85 428.5,292.5C 396.999,298.643 366.832,294.643 338,280.5C 324.007,289.576 308.84,296.076 292.5,300C 290.839,301.704 290.505,303.871 291.5,306.5C 290.573,315.53 285.906,321.697 277.5,325C 272.231,326.106 266.897,326.773 261.5,327C 258.72,328.812 256.22,330.979 254,333.5C 252.517,336.702 252.183,340.036 253,343.5C 257.416,351.333 262.082,359 267,366.5C 275.882,381.023 279.215,396.69 277,413.5C 282.333,420.833 287.667,428.167 293,435.5C 296.667,442.836 299.334,450.503 301,458.5C 304.091,462.381 307.425,466.047 311,469.5C 311.966,473.118 311.466,476.451 309.5,479.5C 305.448,482.791 301.114,485.624 296.5,488C 293.143,493.259 288.309,495.426 282,494.5C 275.298,494.163 268.631,493.496 262,492.5C 256.646,495.222 251.146,495.722 245.5,494C 240.923,490.039 237.423,485.206 235,479.5C 233.964,476.247 233.297,472.914 233,469.5C 211.367,454.679 187.534,446.346 161.5,444.5C 160.302,449.866 157.635,454.366 153.5,458C 148.972,461.096 144.305,463.929 139.5,466.5C 137.824,465.817 137.157,464.483 137.5,462.5C 140.649,462.585 143.316,461.585 145.5,459.5C 152.857,456.795 156.857,451.462 157.5,443.5C 156.167,443.5 154.833,443.5 153.5,443.5C 147.986,442.833 142.319,442.167 136.5,441.5C 141.701,439.989 147.035,439.322 152.5,439.5C 164.97,440.51 177.303,442.344 189.5,445C 206.919,451.183 223.252,459.349 238.5,469.5C 238.953,470.458 239.619,471.292 240.5,472C 238.893,471.981 237.226,471.815 235.5,471.5C 236.676,475.834 238.343,479.834 240.5,483.5C 243.141,482.737 245.808,482.57 248.5,483C 251.5,485.167 254.5,487.333 257.5,489.5C 258.5,488.833 259.5,488.167 260.5,487.5C 263.952,489.652 267.619,489.986 271.5,488.5C 274.95,483.355 276.116,484.022 275,490.5C 276.333,491.833 277.667,491.833 279,490.5C 278.937,487.233 280.437,485.066 283.5,484C 287.152,483.501 290.818,483.335 294.5,483.5C 294.5,482.5 294.5,481.5 294.5,480.5C 292.345,480.628 290.345,480.128 288.5,479C 290.167,478.333 291.833,478.333 293.5,479C 295.24,480.694 297.24,481.861 299.5,482.5C 298.367,475.258 299.2,474.925 302,481.5C 301.918,476.925 303.085,472.758 305.5,469C 304.863,467.287 303.863,467.121 302.5,468.5C 301.833,466.5 301.167,464.5 300.5,462.5C 299.522,462.977 298.689,463.643 298,464.5C 297.986,458.317 296.986,452.317 295,446.5C 287.522,433.008 279.189,420.008 270,407.5C 269.333,406.167 269.333,404.833 270,403.5C 271.574,404.984 272.907,406.651 274,408.5C 274.689,402.118 274.355,395.785 273,389.5C 267.798,374.432 260.465,360.432 251,347.5C 249.723,343.903 249.39,340.236 250,336.5C 251.64,333.365 253.473,330.365 255.5,327.5C 255.182,326.353 254.516,325.519 253.5,325C 247.867,322.675 242.201,320.342 236.5,318C 232.852,317.163 229.519,317.663 226.5,319.5C 224.167,319.452 221.834,319.785 219.5,320.5C 218.5,320.5 217.5,320.5 216.5,320.5C 205.112,320.637 193.778,319.971 182.5,318.5C 179.478,318.196 176.478,317.696 173.5,317C 167.426,314.142 161.092,311.975 154.5,310.5C 154.167,310.5 153.833,310.5 153.5,310.5C 153.586,309.504 153.252,308.671 152.5,308C 150.783,306.441 148.783,305.608 146.5,305.5C 146.737,304.209 146.404,303.209 145.5,302.5C 143.188,299.521 140.521,296.854 137.5,294.5C 132.446,296.346 127.78,298.846 123.5,302C 119.218,303.74 115.218,303.573 111.5,301.5C 112.728,299.99 112.728,298.49 111.5,297C 114.882,296.824 118.215,296.324 121.5,295.5C 122.374,293.253 122.708,290.92 122.5,288.5C 121.167,288.5 119.833,288.5 118.5,288.5C 121.261,285.864 124.594,285.031 128.5,286C 122.184,288.369 121.85,291.369 127.5,295C 132.124,296.056 134.957,294.223 136,289.5C 141.198,295.033 146.698,300.2 152.5,305C 159.331,308.454 166.331,311.454 173.5,314C 190.012,317.287 206.678,318.287 223.5,317C 231.626,313.504 239.959,312.837 248.5,315C 245.377,315.206 242.377,315.873 239.5,317C 251.135,322.997 263.469,324.664 276.5,322C 285.841,317.665 289.341,310.498 287,300.5C 284.179,296.36 280.679,293.027 276.5,290.5C 281.893,290.56 286.893,289.56 291.5,287.5C 295.731,285.522 300.064,283.522 304.5,281.5C 305.318,278.893 305.818,276.226 306,273.5C 306.495,275.473 306.662,277.473 306.5,279.5C 309.607,278.447 312.607,277.114 315.5,275.5C 315.5,275.833 315.5,276.167 315.5,276.5C 311.072,279.891 306.406,283.058 301.5,286C 296.444,287.681 291.444,289.514 286.5,291.5C 286.167,291.833 285.833,292.167 285.5,292.5C 286.624,293.914 287.624,295.414 288.5,297C 295.61,295.914 302.61,294.08 309.5,291.5C 315.008,288.717 320.674,286.217 326.5,284C 328.444,281.847 328.944,279.347 328,276.5C 326.624,275.295 325.458,273.962 324.5,272.5C 325.1,271.1 326.1,270.1 327.5,269.5C 327.196,270.15 326.863,270.817 326.5,271.5C 328.726,274.164 330.392,277.164 331.5,280.5C 336.356,278.24 340.689,275.24 344.5,271.5C 345.521,272.002 345.688,272.668 345,273.5C 343.108,275.054 341.608,276.888 340.5,279C 343.213,281.03 346.213,282.696 349.5,284C 368.731,290.206 388.397,292.706 408.5,291.5C 401.555,289.609 394.555,287.775 387.5,286C 381.707,283.27 376.04,280.27 370.5,277C 365.798,276.828 361.132,276.328 356.5,275.5C 371.299,274.976 384.633,270.476 396.5,262C 409.767,249.4 420.767,235.067 429.5,219C 416.913,224.125 404.58,230.125 392.5,237C 381.813,243.698 371.146,250.365 360.5,257C 358.091,258.707 355.425,259.54 352.5,259.5C 355.175,249.641 358.342,239.975 362,230.5C 362.453,227.16 362.953,223.826 363.5,220.5C 363.48,219.274 363.147,218.274 362.5,217.5C 362.5,216.167 362.5,214.833 362.5,213.5C 364.383,201.415 362.216,190.081 356,179.5C 350.294,171.209 342.794,168.542 333.5,171.5C 332.833,171.5 332.5,171.167 332.5,170.5C 333.058,169.21 334.058,168.377 335.5,168C 340.426,166.964 345.093,167.464 349.5,169.5C 349.833,169.167 350.167,168.833 350.5,168.5C 349.807,167.482 349.141,166.482 348.5,165.5C 348.821,163.952 349.821,163.285 351.5,163.5 Z"/></g>
<g><path style="opacity:1" fill="#37577a" d="M 153.5,443.5 C 154.833,443.5 156.167,443.5 157.5,443.5C 156.857,451.462 152.857,456.795 145.5,459.5C 144.418,458.406 143.752,457.073 143.5,455.5C 145.86,452.141 148.86,449.474 152.5,447.5C 153.429,446.311 153.762,444.978 153.5,443.5 Z"/></g>
</svg>
