<?xml version="1.0" encoding="UTF-8"?>
<!DOCTYPE svg PUBLIC "-//W3C//DTD SVG 1.1//EN" "http://www.w3.org/Graphics/SVG/1.1/DTD/svg11.dtd">
<svg version="1.2" width="17.2mm" height="17.2mm" viewBox="0 0 1720 1720" preserveAspectRatio="xMidYMid" fill-rule="evenodd" stroke-width="28.222" stroke-linejoin="round" xmlns="http://www.w3.org/2000/svg" xmlns:ooo="http://xml.openoffice.org/svg/export" xmlns:xlink="http://www.w3.org/1999/xlink" xmlns:presentation="http://sun.com/xmlns/staroffice/presentation" xmlns:smil="http://www.w3.org/2001/SMIL20/" xmlns:anim="urn:oasis:names:tc:opendocument:xmlns:animation:1.0" xmlns:svg="urn:oasis:names:tc:opendocument:xmlns:svg-compatible:1.0" xml:space="preserve">
 <defs class="ClipPathGroup">
  <clipPath id="presentation_clip_path" clipPathUnits="userSpaceOnUse">
   <rect x="0" y="0" width="1720" height="1720"/>
  </clipPath>
  <clipPath id="presentation_clip_path_shrink" clipPathUnits="userSpaceOnUse">
   <rect x="1" y="1" width="1717" height="1717"/>
  </clipPath>
 </defs>
 <defs class="TextShapeIndex">
  <g ooo:slide="id1" ooo:id-list="id3"/>
 </defs>
 <defs class="EmbeddedBulletChars">
  <g id="bullet-char-template-57356" transform="scale(0.00048828125,-0.00048828125)">
   <path d="M 580,1141 L 1163,571 580,0 -4,571 580,1141 Z"/>
  </g>
  <g id="bullet-char-template-57354" transform="scale(0.00048828125,-0.00048828125)">
   <path d="M 8,1128 L 1137,1128 1137,0 8,0 8,1128 Z"/>
  </g>
  <g id="bullet-char-template-10146" transform="scale(0.00048828125,-0.00048828125)">
   <path d="M 174,0 L 602,739 174,1481 1456,739 174,0 Z M 1358,739 L 309,1346 659,739 1358,739 Z"/>
  </g>
  <g id="bullet-char-template-10132" transform="scale(0.00048828125,-0.00048828125)">
   <path d="M 2015,739 L 1276,0 717,0 1260,543 174,543 174,936 1260,936 717,1481 1274,1481 2015,739 Z"/>
  </g>
  <g id="bullet-char-template-10007" transform="scale(0.00048828125,-0.00048828125)">
   <path d="M 0,-2 C -7,14 -16,27 -25,37 L 356,567 C 262,823 215,952 215,954 215,979 228,992 255,992 264,992 276,990 289,987 310,991 331,999 354,1012 L 381,999 492,748 772,1049 836,1024 860,1049 C 881,1039 901,1025 922,1006 886,937 835,863 770,784 769,783 710,716 594,584 L 774,223 C 774,196 753,168 711,139 L 727,119 C 717,90 699,76 672,76 641,76 570,178 457,381 L 164,-76 C 142,-110 111,-127 72,-127 30,-127 9,-110 8,-76 1,-67 -2,-52 -2,-32 -2,-23 -1,-13 0,-2 Z"/>
  </g>
  <g id="bullet-char-template-10004" transform="scale(0.00048828125,-0.00048828125)">
   <path d="M 285,-33 C 182,-33 111,30 74,156 52,228 41,333 41,471 41,549 55,616 82,672 116,743 169,778 240,778 293,778 328,747 346,684 L 369,508 C 377,444 397,411 428,410 L 1163,1116 C 1174,1127 1196,1133 1229,1133 1271,1133 1292,1118 1292,1087 L 1292,965 C 1292,929 1282,901 1262,881 L 442,47 C 390,-6 338,-33 285,-33 Z"/>
  </g>
  <g id="bullet-char-template-9679" transform="scale(0.00048828125,-0.00048828125)">
   <path d="M 813,0 C 632,0 489,54 383,161 276,268 223,411 223,592 223,773 276,916 383,1023 489,1130 632,1184 813,1184 992,1184 1136,1130 1245,1023 1353,916 1407,772 1407,592 1407,412 1353,268 1245,161 1136,54 992,0 813,0 Z"/>
  </g>
  <g id="bullet-char-template-8226" transform="scale(0.00048828125,-0.00048828125)">
   <path d="M 346,457 C 273,457 209,483 155,535 101,586 74,649 74,723 74,796 101,859 155,911 209,963 273,989 346,989 419,989 480,963 531,910 582,859 608,796 608,723 608,648 583,586 532,535 482,483 420,457 346,457 Z"/>
  </g>
  <g id="bullet-char-template-8211" transform="scale(0.00048828125,-0.00048828125)">
   <path d="M -4,459 L 1135,459 1135,606 -4,606 -4,459 Z"/>
  </g>
  <g id="bullet-char-template-61548" transform="scale(0.00048828125,-0.00048828125)">
   <path d="M 173,740 C 173,903 231,1043 346,1159 462,1274 601,1332 765,1332 928,1332 1067,1274 1183,1159 1299,1043 1357,903 1357,740 1357,577 1299,437 1183,322 1067,206 928,148 765,148 601,148 462,206 346,322 231,437 173,577 173,740 Z"/>
  </g>
 </defs>
 <g>
  <g id="id2" class="Master_Slide">
   <g id="bg-id2" class="Background"/>
   <g id="bo-id2" class="BackgroundObjects"/>
  </g>
 </g>
 <g class="SlideGroup">
  <g>
   <g id="container-id1">
    <g id="id1" class="Slide" clip-path="url(#presentation_clip_path)">
     <g class="Page">
      <g class="com.sun.star.drawing.ClosedBezierShape">
       <g id="id3">
        <rect class="BoundingBox" stroke="none" fill="none" x="69" y="69" width="1584" height="1562"/>
        <path fill="rgb(255,255,255)" stroke="none" d="M 858,291 C 532,291 268,555 268,881 268,1206 532,1470 858,1470 1183,1470 1447,1206 1447,881 1447,857 1446,834 1443,810 1423,824 1399,832 1373,832 1320,832 1276,798 1258,751 1228,771 1191,783 1152,783 1043,783 955,695 955,586 955,550 966,516 983,487 L 980,487 C 912,487 858,433 858,365 858,337 866,312 881,292 873,291 865,291 858,291 Z M 1226,291 C 1185,291 1152,324 1152,365 1152,405 1185,438 1226,438 1267,438 1300,405 1300,365 1300,324 1267,291 1226,291 Z M 762,398 C 772,462 809,516 859,550 858,562 858,574 858,586 858,749 989,881 1152,881 1177,881 1201,878 1224,872 1258,902 1300,922 1347,928 1323,1177 1112,1372 858,1372 587,1372 366,1151 366,881 366,643 537,443 762,398 Z M 1152,537 C 1125,537 1103,559 1103,586 1103,613 1125,635 1152,635 1179,635 1201,613 1201,586 1201,559 1179,537 1152,537 Z M 760,586 C 733,586 710,608 710,635 710,662 733,684 760,684 787,684 809,662 809,635 809,608 787,586 760,586 Z M 1398,586 C 1371,586 1349,608 1349,635 1349,662 1371,684 1398,684 1425,684 1447,662 1447,635 1447,608 1425,586 1398,586 Z M 612,733 C 558,733 514,777 514,832 514,886 558,929 612,929 666,929 710,886 710,832 710,777 666,733 612,733 Z M 858,832 C 831,832 809,854 809,881 809,907 831,929 858,929 884,929 906,907 906,881 906,854 884,832 858,832 Z M 686,1028 C 645,1028 612,1061 612,1101 612,1142 645,1175 686,1175 727,1175 760,1142 760,1101 760,1061 727,1028 686,1028 Z M 1029,1077 C 988,1077 955,1111 955,1151 955,1192 988,1224 1029,1224 1070,1224 1103,1192 1103,1151 1103,1111 1070,1077 1029,1077 Z M 1545,1239 C 1476,1358 1376,1456 1256,1525 1136,1593 999,1629 861,1629 722,1629 585,1593 465,1525 345,1456 245,1358 176,1239 107,1121 70,986 70,850 70,713 107,578 176,460 245,341 345,243 465,174 585,106 722,70 860,70 999,70 1136,106 1256,174 1376,243 1476,341 1545,460 1614,578 1651,713 1651,849 1651,986 1614,1121 1545,1239 Z"/>
        <path fill="none" stroke="rgb(255,255,255)" d="M 858,291 C 532,291 268,555 268,881 268,1206 532,1470 858,1470 1183,1470 1447,1206 1447,881 1447,857 1446,834 1443,810 1423,824 1399,832 1373,832 1320,832 1276,798 1258,751 1228,771 1191,783 1152,783 1043,783 955,695 955,586 955,550 966,516 983,487 L 980,487 C 912,487 858,433 858,365 858,337 866,312 881,292 873,291 865,291 858,291 Z"/>
        <path fill="none" stroke="rgb(255,255,255)" d="M 1226,291 C 1185,291 1152,324 1152,365 1152,405 1185,438 1226,438 1267,438 1300,405 1300,365 1300,324 1267,291 1226,291 Z"/>
        <path fill="none" stroke="rgb(255,255,255)" d="M 762,398 C 772,462 809,516 859,550 858,562 858,574 858,586 858,749 989,881 1152,881 1177,881 1201,878 1224,872 1258,902 1300,922 1347,928 1323,1177 1112,1372 858,1372 587,1372 366,1151 366,881 366,643 537,443 762,398 Z"/>
        <path fill="none" stroke="rgb(255,255,255)" d="M 1152,537 C 1125,537 1103,559 1103,586 1103,613 1125,635 1152,635 1179,635 1201,613 1201,586 1201,559 1179,537 1152,537 Z"/>
        <path fill="none" stroke="rgb(255,255,255)" d="M 760,586 C 733,586 710,608 710,635 710,662 733,684 760,684 787,684 809,662 809,635 809,608 787,586 760,586 Z"/>
        <path fill="none" stroke="rgb(255,255,255)" d="M 1398,586 C 1371,586 1349,608 1349,635 1349,662 1371,684 1398,684 1425,684 1447,662 1447,635 1447,608 1425,586 1398,586 Z"/>
        <path fill="none" stroke="rgb(255,255,255)" d="M 612,733 C 558,733 514,777 514,832 514,886 558,929 612,929 666,929 710,886 710,832 710,777 666,733 612,733 Z"/>
        <path fill="none" stroke="rgb(255,255,255)" d="M 858,832 C 831,832 809,854 809,881 809,907 831,929 858,929 884,929 906,907 906,881 906,854 884,832 858,832 Z"/>
        <path fill="none" stroke="rgb(255,255,255)" d="M 686,1028 C 645,1028 612,1061 612,1101 612,1142 645,1175 686,1175 727,1175 760,1142 760,1101 760,1061 727,1028 686,1028 Z"/>
        <path fill="none" stroke="rgb(255,255,255)" d="M 1029,1077 C 988,1077 955,1111 955,1151 955,1192 988,1224 1029,1224 1070,1224 1103,1192 1103,1151 1103,1111 1070,1077 1029,1077 Z"/>
        <path fill="none" stroke="rgb(255,255,255)" d="M 1545,1239 C 1476,1358 1376,1456 1256,1525 1136,1593 999,1629 861,1629 722,1629 585,1593 465,1525 345,1456 245,1358 176,1239 107,1121 70,986 70,850 70,713 107,578 176,460 245,341 345,243 465,174 585,106 722,70 860,70 999,70 1136,106 1256,174 1376,243 1476,341 1545,460 1614,578 1651,713 1651,849 1651,986 1614,1121 1545,1239 Z"/>
       </g>
      </g>
     </g>
    </g>
   </g>
  </g>
 </g>
</svg>