<?xml version="1.0" encoding="UTF-8"?>
<!DOCTYPE svg PUBLIC "-//W3C//DTD SVG 1.1//EN" "http://www.w3.org/Graphics/SVG/1.1/DTD/svg11.dtd">
<svg version="1.2" width="5.56mm" height="5.56mm" viewBox="0 0 556 556" preserveAspectRatio="xMidYMid" fill-rule="evenodd" stroke-width="28.222" stroke-linejoin="round" xmlns="http://www.w3.org/2000/svg" xmlns:ooo="http://xml.openoffice.org/svg/export" xmlns:xlink="http://www.w3.org/1999/xlink" xmlns:presentation="http://sun.com/xmlns/staroffice/presentation" xmlns:smil="http://www.w3.org/2001/SMIL20/" xmlns:anim="urn:oasis:names:tc:opendocument:xmlns:animation:1.0" xmlns:svg="urn:oasis:names:tc:opendocument:xmlns:svg-compatible:1.0" xml:space="preserve">
 <defs class="ClipPathGroup">
  <clipPath id="presentation_clip_path" clipPathUnits="userSpaceOnUse">
   <rect x="0" y="0" width="556" height="556"/>
  </clipPath>
  <clipPath id="presentation_clip_path_shrink" clipPathUnits="userSpaceOnUse">
   <rect x="0" y="0" width="555" height="555"/>
  </clipPath>
 </defs>
 <defs class="TextShapeIndex">
  <g ooo:slide="id1" ooo:id-list="id3"/>
 </defs>
 <defs class="EmbeddedBulletChars">
  <g id="bullet-char-template-57356" transform="scale(0.00048828125,-0.00048828125)">
   <path d="M 580,1141 L 1163,571 580,0 -4,571 580,1141 Z"/>
  </g>
  <g id="bullet-char-template-57354" transform="scale(0.00048828125,-0.00048828125)">
   <path d="M 8,1128 L 1137,1128 1137,0 8,0 8,1128 Z"/>
  </g>
  <g id="bullet-char-template-10146" transform="scale(0.00048828125,-0.00048828125)">
   <path d="M 174,0 L 602,739 174,1481 1456,739 174,0 Z M 1358,739 L 309,1346 659,739 1358,739 Z"/>
  </g>
  <g id="bullet-char-template-10132" transform="scale(0.00048828125,-0.00048828125)">
   <path d="M 2015,739 L 1276,0 717,0 1260,543 174,543 174,936 1260,936 717,1481 1274,1481 2015,739 Z"/>
  </g>
  <g id="bullet-char-template-10007" transform="scale(0.00048828125,-0.00048828125)">
   <path d="M 0,-2 C -7,14 -16,27 -25,37 L 356,567 C 262,823 215,952 215,954 215,979 228,992 255,992 264,992 276,990 289,987 310,991 331,999 354,1012 L 381,999 492,748 772,1049 836,1024 860,1049 C 881,1039 901,1025 922,1006 886,937 835,863 770,784 769,783 710,716 594,584 L 774,223 C 774,196 753,168 711,139 L 727,119 C 717,90 699,76 672,76 641,76 570,178 457,381 L 164,-76 C 142,-110 111,-127 72,-127 30,-127 9,-110 8,-76 1,-67 -2,-52 -2,-32 -2,-23 -1,-13 0,-2 Z"/>
  </g>
  <g id="bullet-char-template-10004" transform="scale(0.00048828125,-0.00048828125)">
   <path d="M 285,-33 C 182,-33 111,30 74,156 52,228 41,333 41,471 41,549 55,616 82,672 116,743 169,778 240,778 293,778 328,747 346,684 L 369,508 C 377,444 397,411 428,410 L 1163,1116 C 1174,1127 1196,1133 1229,1133 1271,1133 1292,1118 1292,1087 L 1292,965 C 1292,929 1282,901 1262,881 L 442,47 C 390,-6 338,-33 285,-33 Z"/>
  </g>
  <g id="bullet-char-template-9679" transform="scale(0.00048828125,-0.00048828125)">
   <path d="M 813,0 C 632,0 489,54 383,161 276,268 223,411 223,592 223,773 276,916 383,1023 489,1130 632,1184 813,1184 992,1184 1136,1130 1245,1023 1353,916 1407,772 1407,592 1407,412 1353,268 1245,161 1136,54 992,0 813,0 Z"/>
  </g>
  <g id="bullet-char-template-8226" transform="scale(0.00048828125,-0.00048828125)">
   <path d="M 346,457 C 273,457 209,483 155,535 101,586 74,649 74,723 74,796 101,859 155,911 209,963 273,989 346,989 419,989 480,963 531,910 582,859 608,796 608,723 608,648 583,586 532,535 482,483 420,457 346,457 Z"/>
  </g>
  <g id="bullet-char-template-8211" transform="scale(0.00048828125,-0.00048828125)">
   <path d="M -4,459 L 1135,459 1135,606 -4,606 -4,459 Z"/>
  </g>
  <g id="bullet-char-template-61548" transform="scale(0.00048828125,-0.00048828125)">
   <path d="M 173,740 C 173,903 231,1043 346,1159 462,1274 601,1332 765,1332 928,1332 1067,1274 1183,1159 1299,1043 1357,903 1357,740 1357,577 1299,437 1183,322 1067,206 928,148 765,148 601,148 462,206 346,322 231,437 173,577 173,740 Z"/>
  </g>
 </defs>
 <g>
  <g id="id2" class="Master_Slide">
   <g id="bg-id2" class="Background"/>
   <g id="bo-id2" class="BackgroundObjects"/>
  </g>
 </g>
 <g class="SlideGroup">
  <g>
   <g id="container-id1">
    <g id="id1" class="Slide" clip-path="url(#presentation_clip_path)">
     <g class="Page">
      <g class="Graphic">
       <g id="id3">
        <rect class="BoundingBox" stroke="none" fill="none" x="0" y="0" width="556" height="556"/>
        <path fill="#ffffff" stroke="none" d="M 13,489 C 13,498 16,507 20,515 25,523 32,530 40,535 48,539 57,542 66,542 L 489,542 C 498,542 507,539 515,535 523,530 530,523 535,515 539,507 542,498 542,489 L 542,225 13,225 13,489 Z M 383,291 C 383,288 384,286 385,284 386,282 388,280 390,279 392,278 394,278 396,278 L 423,278 C 425,278 427,278 429,279 431,280 433,282 434,284 435,286 436,288 436,291 L 436,317 C 436,319 435,322 434,324 433,326 431,327 429,329 427,330 425,330 423,330 L 396,330 C 394,330 392,330 390,329 388,327 386,326 385,324 384,322 383,319 383,317 L 383,291 Z M 383,396 C 383,394 384,392 385,390 386,388 388,386 390,385 392,384 394,383 396,383 L 423,383 C 425,383 427,384 429,385 431,386 433,388 434,390 435,392 436,394 436,396 L 436,423 C 436,425 435,427 434,429 433,431 431,433 429,434 427,435 425,436 423,436 L 396,436 C 394,436 392,435 390,434 388,433 386,431 385,429 384,427 383,425 383,423 L 383,396 Z M 251,291 C 251,288 252,286 253,284 254,282 256,280 258,279 260,278 262,278 264,278 L 291,278 C 293,278 295,278 297,279 299,280 301,282 302,284 303,286 304,288 304,291 L 304,317 C 304,319 303,322 302,324 301,326 299,327 297,329 295,330 293,330 291,330 L 264,330 C 262,330 260,330 258,329 256,327 254,326 253,324 252,322 251,319 251,317 L 251,291 Z M 251,396 C 251,394 252,392 253,390 254,388 256,386 258,385 260,384 262,383 264,383 L 291,383 C 293,383 295,384 297,385 299,386 301,388 302,390 303,392 304,394 304,396 L 304,423 C 304,425 303,427 302,429 301,431 299,433 297,434 295,435 293,436 291,436 L 264,436 C 262,436 260,435 258,434 256,433 254,431 253,429 252,427 251,425 251,423 L 251,396 Z M 119,291 C 119,288 120,286 121,284 122,282 124,280 126,279 128,278 130,278 132,278 L 159,278 C 161,278 163,278 165,279 167,280 169,282 170,284 171,286 172,288 172,291 L 172,317 C 172,319 171,322 170,324 169,326 167,327 165,329 163,330 161,330 159,330 L 132,330 C 130,330 128,330 126,329 124,327 122,326 121,324 120,322 119,319 119,317 L 119,291 Z M 119,396 C 119,394 120,392 121,390 122,388 124,386 126,385 128,384 130,383 132,383 L 159,383 C 161,383 163,384 165,385 167,386 169,388 170,390 171,392 172,394 172,396 L 172,423 C 172,425 171,427 170,429 169,431 167,433 165,434 163,435 161,436 159,436 L 132,436 C 130,436 128,435 126,434 124,433 122,431 121,429 120,427 119,425 119,423 L 119,396 Z M 542,119 C 542,110 539,101 535,92 530,84 523,78 515,73 507,69 498,66 489,66 L 436,66 436,40 C 436,35 435,30 433,26 430,22 427,19 423,17 419,14 414,13 410,13 405,13 400,14 396,17 392,19 389,22 387,26 384,30 383,35 383,40 L 383,66 304,66 304,40 C 304,35 303,30 300,26 298,22 295,19 291,17 287,14 282,13 278,13 273,13 268,14 264,17 260,19 257,22 255,26 252,30 251,35 251,40 L 251,66 172,66 172,40 C 172,35 171,30 168,26 166,22 163,19 159,17 155,14 150,13 145,13 141,13 136,14 132,17 128,19 125,22 122,26 120,30 119,35 119,40 L 119,66 66,66 C 57,66 48,69 40,73 32,78 25,84 20,93 16,101 13,110 13,119 L 13,172 542,172 542,119 Z"/>
       </g>
      </g>
     </g>
    </g>
   </g>
  </g>
 </g>
</svg>