<?xml version="1.0" standalone="no"?>
<!DOCTYPE svg PUBLIC "-//W3C//DTD SVG 1.1//EN" "http://www.w3.org/Graphics/SVG/1.1/DTD/svg11.dtd">
<svg xmlns="http://www.w3.org/2000/svg" xmlns:svg="http://www.w3.org/2000/svg" width="234" height="234" version="1.1" viewBox="0 0 234 234">
 <g class="layer">
  <title>Layer 1</title>
  <g fill="#246eb0" id="svg_79">
   <path d="m232.82,117.5a115.31,115.31 0 0 1 -115.31,115.31a115.31,115.31 0 0 1 -115.31,-115.31a115.31,115.31 0 0 1 115.31,-115.31a115.31,115.31 0 0 1 115.31,115.31zm-94,-79.49q-11.08,2.2 -21.18,10.41q-9.83,-7.54 -19.33,-10.23q-3.98,-1.13 -11.1,-0.62c-33.58,-3.72 -58.41,30.46 -48.89,61.55q2.94,9.61 9.43,17.41a1.54,1.54 0 0 1 -0.01,1.99c-20.98,24.74 -12.08,62.8 17.58,76.08c16.89,7.55 36.89,4.43 51.06,-7.4a1.64,1.63 -44.2 0 1 2.12,0.02c20.25,17.81 54.78,14.52 70.29,-8.55q2.62,-3.07 4.56,-6.45q0.39,-0.68 0.81,-2.6q0.32,-1.49 1.43,-2.65q0.34,-0.37 0.46,-0.86c1.09,-4.87 3.14,-9.77 3.32,-14.62q0.12,-3.31 -0.04,-6.62q-0.07,-1.61 -0.96,-4.3q-0.53,-1.65 -1.21,-4.3q-2.07,-8.06 -8.57,-15.31c-0.83,-0.93 -1.58,-1.13 -2.64,-1.75q-0.45,-0.27 -0.29,-0.77l0.38,-1.25q4.88,-6.16 7.77,-12.96q6.47,-14.21 3.59,-28.1q-1.09,-5.2 -3.34,-9.93q-2.16,-4.57 -4.32,-8.18q-2.37,-3.98 -5.71,-7.35q-18.54,-18.65 -45.19,-12.68l-0.02,0.02z" id="svg_80"/>
   <path d="m154.08,192.87q-3.95,-0.45 -7.87,-0.61q-4.96,-0.21 -7.78,-1.06q-10.2,-3.1 -19.08,-11.43q-1.8,-1.69 -3.72,0.09q-11.05,10.68 -25.31,12.79c-5.53,0.01 -11,0.09 -16.17,-1.45q-19,-5.63 -27.72,-23.5q-1.47,-3 -2.38,-6.93c-1.49,-6.33 -2.79,-11.97 -1.16,-18.49q1.36,-5.48 2.85,-11q3.41,-6.08 8.14,-11.18c2.87,-1.46 2.7,-3.64 0.59,-5.75q-7.2,-7.16 -9.72,-15.22q-0.64,-2.04 -1.98,-8.33q-0.98,-4.59 -0.53,-8.44q1.12,-9.52 5.21,-18.8c14.73,-23.72 46.48,-28.27 67.26,-9.25q1.41,1.28 2.63,1.7a1.04,1.03 31.9 0 0 1.08,-0.24q7.23,-7.12 16.38,-10.55q8.88,-3.32 18.43,-2.62q15.75,1.16 27.28,12.97c16.32,16.7 15.64,43.02 -0.28,59.74q-1.19,1.26 -1.32,2.69a1.23,1.21 -65.6 0 0 0.36,0.99c23.85,23.54 14.14,60.22 -16.37,71.95q-3.25,1.25 -8.82,1.95l0,-0.02zm-91.08,-82.37q0.83,-0.28 0.69,-2q-0.03,-0.51 -0.38,-0.88q-8.43,-9.01 -9.55,-21.36q-0.09,-0.97 0.26,-2.47c0.49,-2.15 0.15,-4.08 0.72,-6.14q0.8,-2.85 1.15,-5.81q9.25,-16.22 26.59,-17.68c9.69,-0.81 18.18,2.47 24.97,9.26q13.89,13.93 27.83,27.79c2.46,2.46 4.46,5.49 7.95,2.36q0.49,-2.84 -1.1,-4.41q-23.36,-23.09 -30.01,-29.85c-6.14,-6.24 -14.32,-11.06 -23.18,-10.33c-28.1,-3.96 -49,24.1 -38.5,50.26c0.92,2.27 9.5,18.66 12.55,11.26l0.01,0zm118.13,-6.04q1.17,-1.91 2.28,-3.88q1.03,-1.86 1.61,-4.14c1.53,-6.17 3.49,-11.64 1.87,-17.95q-1.34,-5.24 -4.52,-11.4c-1.27,-2.46 -3.22,-4.12 -4.92,-6.33q-2.63,-3.41 -3.93,-4.59q-8.71,-7.89 -20.37,-7.36q-14.56,-1.67 -26.28,7.04c-2.24,1.66 -6.36,4.4 -3.16,7.39a2.48,2.48 0 0 0 3.39,0c11.57,-10.85 28.49,-12.45 41.33,-3.16c12.34,8.91 15.98,25.64 9.15,39.34q-2.14,4.29 -8.49,10.72q-14.18,14.38 -28.39,28.73c-2.27,2.29 1.28,6.45 3.74,3.98q14.76,-14.78 29.58,-29.47c2.83,-2.81 4.94,-5.73 7.12,-8.92l-0.01,0zm-37.26,-44.27c-3.19,0.78 -16.12,5.65 -12.53,10.82a2.35,2.34 -32.9 0 0 3.15,0.67c1.93,-1.17 3.85,-2.9 5.66,-3.83c9.71,-5.05 22.63,-1.71 27.34,8.2q4.15,8.74 0.76,16.55q-1.71,3.92 -9.74,11.95q-12.63,12.64 -25.2,25.33c-3.55,3.58 0.59,7.67 4.15,4.02q15.1,-15.47 30.5,-30.62q1.8,-1.76 3.75,-5.88q3.11,-3.93 3.49,-5.25q1.76,-6.16 -0.14,-13.54q-0.86,-3.34 -3.25,-6.96c-6.54,-9.9 -16.32,-14 -27.95,-11.46l0.01,0zm-65.57,0.24q-16.44,5.03 -18.82,21.05q-0.9,6.03 0.85,11.33c0.86,2.57 6.53,15.42 10.96,10.32l0.5,-2.53a1.01,1.01 0 0 0 -0.28,-0.92q-8.05,-7.97 -6.2,-19.58q0.22,-1.41 2.25,-5.45c8.03,-10.45 21.7,-12.71 31.53,-3.17q15.69,15.22 31.09,30.68q2.56,2.58 4.66,-0.63q0.48,-1.37 -0.32,-3.18q-0.48,-1.12 -1.83,-2.46q-13.4,-13.31 -26.64,-26.81q-4.85,-4.95 -8.53,-6.73q-8.85,-4.26 -19.23,-1.92l0.01,0zm84.98,18.96q-0.38,-1.31 -1.31,-2.36q-8.63,-9.82 -20.45,-3.66c-1.66,0.86 -3.5,3.2 -2.49,5.2c1.76,3.47 6.03,-0.52 8.01,-1.29c6.14,-2.37 12.78,3.86 10.87,9.88q-0.76,2.36 -4.55,6.24q-13.83,14.16 -27.98,27.99c-3.27,3.19 -0.43,8.55 3.55,4.6q15.29,-15.23 30.36,-30.53q6.74,-6.85 3.99,-16.05l0,-0.02zm-85.85,-6.22q-9.37,6.03 -5.62,17.26c1.1,3.29 3.41,6.77 7.25,5.48q1.99,-3.49 -2.03,-8.17a1.32,1.32 0 0 1 -0.31,-0.96l0.51,-6.26c8.31,-7.81 12.78,-2.32 19.4,4.27q12.43,12.38 24.8,24.82c1.91,1.92 3.64,2.25 5.48,0.07q0.62,-0.78 0.5,-1.79q-0.07,-0.7 -0.81,-1.5q-14.84,-16.1 -30.77,-31.07q-3.1,-2.93 -5.9,-3.69q-6.22,-1.72 -12.5,1.53l0,0.01zm12.33,19.3q-13.52,13.56 -27.34,27.23q-6.86,6.78 -9.53,11.41c-18.68,32.38 16.29,69.13 49.57,51.82c2.13,-1.12 4.29,-3.09 6.69,-4.36q1.28,-0.69 1.87,-1.63q0.7,-1.11 1.22,-2.4q0.21,-0.52 -0.02,-1.03c-1.28,-2.67 -4.01,-2.3 -6.03,-0.53q-6.9,6.08 -15.82,8.22c-3.55,-0.16 -7.01,0.26 -10.28,-0.36q-17.98,-3.35 -24.33,-20.45q-3.75,-10.08 -0.9,-21.12q2.29,-5.63 4.9,-8.45q10.04,-10.85 33.25,-33.59q1.47,-0.84 1.9,-2.12q0.45,-1.33 -0.57,-2.4q-1.57,-1.63 -4.57,-0.23l-0.01,-0.01zm8.52,7.77q-13.84,13.8 -27.96,27.66q-6.05,5.94 -8.19,10.04c-8.21,15.8 1.67,35.21 19.43,37.61q12.09,1.64 21.01,-6.85c1.81,-1.72 1.74,-3.64 -0.52,-4.85a1.98,1.96 44.1 0 0 -1.92,0.02c-6.17,3.57 -9.85,6.64 -18.23,6.56q-1.58,-0.82 -3.37,-1.5q-2.1,-0.79 -3.29,-1.62q-13.36,-9.29 -8.8,-26.65l34.44,-35.06q1.82,-1.22 2.51,-2.94q0.2,-0.51 -0.07,-0.98q-1.46,-2.49 -5.04,-1.45l0,0.01zm-12.64,58.58q-8.56,-0.67 -9.5,-12.12q16.27,-16.46 32.67,-32.83q1.81,-1.81 1,-4.59q-0.14,-0.49 -0.61,-0.67q-2.33,-0.93 -4.21,0.94q-14.46,14.37 -28.99,28.68q-3.25,3.19 -4.27,5.72c-2.37,5.84 -1.01,11.92 3.51,16.37c5.61,5.5 17.33,5.92 21.03,-2.95q0.21,-0.51 -0.2,-0.87c-3.03,-2.63 -7.35,0.88 -10.44,2.32l0.01,0zm69.11,22.33q-9.11,1.22 -17.02,-2.33q-4.34,-1.96 -10.93,-8.17q-12.83,-12.07 -18.08,-17.49q-8.08,-8.35 -12.95,-12.83q-0.43,-0.39 -0.99,-0.36q-0.77,0.03 -1.39,0.55q-1.32,0.22 -2.15,2a1.11,1.1 -48.3 0 0 0.05,1.01q0.79,1.33 2.47,3.03q12.76,12.88 25.6,25.67q7.69,7.65 12.15,10.21c17.16,9.82 37.95,4.33 48.71,-11.95q1.93,-2.24 3.06,-4.88c3.3,-7.71 4.35,-13.99 3.57,-23.2q-0.16,-1.91 -1.05,-4.12q-0.81,-2.01 -1.38,-4.09q-0.36,-1.3 -1.17,-2.62c-2.19,-3.6 -3.95,-6.3 -8.27,-8.52q-2.12,-0.13 -3.24,1.17a2.26,2.26 0 0 0 0.02,2.98q13.4,15.16 7.62,32.42c-3.83,11.47 -12.85,19.09 -24.61,21.49l-0.02,0.03zm5.72,-21.94q6.47,-6.92 2.27,-16.47c-1.1,-2.48 -3.08,-3.46 -5.64,-3.4c-2.71,0.15 -2.17,2.94 -1.09,4.59q5.49,8.28 -2.52,13.61c-1.81,1.2 -3.57,1.04 -5.71,1.08q-9.81,-7.79 -13.53,-12.09q-2.57,-2.95 -4.72,-4.89c-5.92,-5.32 -11.17,-11.42 -16.81,-16.4q-0.61,-0.53 -1.54,-0.5c-2.9,-1.99 -4.94,2.02 -2.48,4.5q14.37,14.44 28.78,28.85q4.12,4.11 7.05,5.21c5.56,2.08 12.1,0.8 15.95,-4.09l-0.01,0zm4.19,-27.96c-1.69,0.89 -2.12,2.34 -1,4.01c1.6,2.38 3.63,4.84 4.6,7.38c4.96,12.99 -3.9,25.53 -17.3,27.54q-7.8,0.55 -13.32,-4.7q-7.27,-6.93 -33.02,-32.43q-1.68,-1.67 -3.03,-0.32q-1.37,-0.17 -2.1,1.36q-0.76,1.59 0.75,3.07q14.16,14.04 28.26,28.14q6,6 9.99,7.9c12.12,5.73 25.9,1.95 32.75,-9.98q8.63,-11.5 1.16,-26.34c-1.28,-2.53 -4.61,-6.53 -7.72,-5.64l-0.02,0.01z" id="svg_81"/>
  </g>
 </g>
</svg>