<svg width="447.017" xmlns="http://www.w3.org/2000/svg" height="369.869" id="screenshot-8a35823d-0e2a-80a5-8004-886742f806dd" viewBox="-5575.997 810.131 447.017 369.869" style="-webkit-print-color-adjust::exact" xmlns:xlink="http://www.w3.org/1999/xlink" fill="none" version="1.1">
  <g id="shape-8a35823d-0e2a-80a5-8004-886742f806dd" style="fill:#000000" width="900.5" height="452.5" rx="0" ry="0">
    <g id="shape-8a35823d-0e2a-80a5-8004-886742f89f30" style="fill:#000000" rx="0" ry="0">
      <g id="shape-8a35823d-0e2a-80a5-8004-886742fe16e7" style="fill:#000000" rx="0" ry="0">
        <g id="shape-8a35823d-0e2a-80a5-8004-886742fe9ed6" style="opacity:1">
          <g class="fills" id="fills-8a35823d-0e2a-80a5-8004-886742fe9ed6">
            <path d="M-5330.000,821.000C-5330.904,820.291,-5331.237,819.291,-5331.000,818.000C-5343.144,820.799,-5355.477,821.632,-5368.000,820.500C-5370.747,819.949,-5373.428,819.111,-5376.000,818.000C-5376.262,816.522,-5375.929,815.189,-5375.000,814.000C-5360.867,808.841,-5346.701,808.841,-5332.500,814.000C-5330.366,815.787,-5329.533,818.120,-5330.000,821.000ZZ" style="shape-rendering:geometricprecision;text-rendering:geometricprecision;fill-rule:evenodd;clip-rule:evenodd;fill:#3c7f72" class="fills">
            </path>
          </g>
        </g>
      </g>
      <g id="shape-8a35823d-0e2a-80a5-8004-886742fec0af" style="fill:#000000" rx="0" ry="0">
        <g id="shape-8a35823d-0e2a-80a5-8004-88674300480e" style="opacity:1">
          <g class="fills" id="fills-8a35823d-0e2a-80a5-8004-88674300480e">
            <path d="M-5376.000,818.000C-5373.428,819.111,-5370.747,819.949,-5368.000,820.500C-5355.477,821.632,-5343.144,820.799,-5331.000,818.000C-5331.237,819.291,-5330.904,820.291,-5330.000,821.000L-5330.000,822.000C-5329.707,825.937,-5330.040,829.770,-5331.000,833.500C-5338.413,837.573,-5346.413,839.406,-5355.000,839.000C-5362.485,839.422,-5369.485,837.922,-5376.000,834.500C-5376.964,830.434,-5377.297,826.267,-5377.000,822.000C-5377.268,820.401,-5376.934,819.068,-5376.000,818.000ZZ" style="shape-rendering:geometricprecision;text-rendering:geometricprecision;fill-rule:evenodd;clip-rule:evenodd;fill:#245c51" class="fills">
            </path>
          </g>
        </g>
      </g>
      <g id="shape-8a35823d-0e2a-80a5-8004-8867430086a4" style="fill:#000000" rx="0" ry="0">
        <g id="shape-8a35823d-0e2a-80a5-8004-886743031432" style="opacity:1">
          <g class="fills" id="fills-8a35823d-0e2a-80a5-8004-886743031432">
            <path d="M-5377.000,822.000C-5377.297,826.267,-5376.964,830.434,-5376.000,834.500C-5369.485,837.922,-5362.485,839.422,-5355.000,839.000C-5346.413,839.406,-5338.413,837.573,-5331.000,833.500C-5330.040,829.770,-5329.707,825.937,-5330.000,822.000C-5323.454,823.924,-5317.095,826.434,-5311.000,829.500C-5303.156,829.453,-5295.367,830.808,-5288.000,833.500C-5285.355,834.786,-5284.355,836.953,-5285.000,840.000C-5275.535,844.470,-5265.856,848.475,-5256.000,852.000C-5256.334,868.673,-5256.000,885.353,-5255.000,902.000C-5254.679,911.179,-5255.013,920.369,-5256.000,929.500C-5275.809,935.202,-5295.481,941.370,-5315.000,948.000C-5317.198,947.620,-5318.865,948.287,-5320.000,950.000C-5337.333,955.334,-5354.666,960.668,-5372.000,966.000C-5372.992,965.828,-5373.658,966.162,-5374.000,967.000C-5384.831,969.783,-5395.512,973.120,-5406.000,977.000C-5420.380,981.177,-5434.714,985.511,-5449.000,990.000C-5460.634,993.231,-5472.143,996.900,-5483.500,1001.000C-5483.899,1000.772,-5484.065,1000.438,-5484.000,1000.000C-5483.833,973.331,-5484.000,946.665,-5484.500,920.000C-5514.945,908.008,-5545.120,895.338,-5575.000,882.000C-5565.927,879.585,-5556.924,876.918,-5548.000,874.000C-5548.323,877.367,-5547.984,880.764,-5547.000,884.000C-5540.793,887.431,-5534.126,888.764,-5527.000,888.000C-5518.433,888.887,-5510.433,887.220,-5503.000,883.000C-5501.838,877.406,-5501.669,871.652,-5502.500,866.000C-5504.106,867.370,-5505.979,868.391,-5508.000,869.000C-5519.297,870.165,-5530.674,870.333,-5542.000,869.500C-5543.874,868.392,-5545.894,867.550,-5548.000,867.000C-5548.203,865.110,-5547.537,863.610,-5546.000,862.500C-5533.552,859.351,-5521.052,859.185,-5508.500,862.000C-5502.711,860.183,-5496.875,858.516,-5491.000,857.000C-5493.177,864.608,-5490.511,869.108,-5483.000,870.500C-5470.668,873.186,-5458.668,872.186,-5447.000,867.500L-5445.500,866.000C-5444.833,860.688,-5444.833,855.312,-5445.500,850.000C-5453.304,853.217,-5461.470,854.550,-5470.000,854.000C-5477.465,854.740,-5484.465,853.407,-5491.000,850.000C-5490.989,848.483,-5490.323,847.316,-5489.000,846.500C-5477.137,842.678,-5465.137,842.178,-5453.000,845.000C-5446.772,842.957,-5440.427,841.287,-5434.000,840.000C-5434.325,843.697,-5433.987,847.422,-5433.000,851.000C-5417.937,857.879,-5403.104,857.546,-5388.500,850.000C-5387.669,844.682,-5387.839,839.256,-5389.000,834.000C-5390.542,834.943,-5392.233,835.620,-5394.000,836.000C-5405.298,837.267,-5416.702,837.267,-5428.000,836.000L-5434.000,834.000C-5434.170,832.678,-5433.837,831.511,-5433.000,830.500C-5421.745,826.928,-5410.245,826.095,-5398.500,828.000C-5391.219,826.434,-5384.040,824.430,-5377.000,822.000ZZ" style="shape-rendering:geometricprecision;text-rendering:geometricprecision;fill-rule:evenodd;clip-rule:evenodd;fill:#3c7f72" class="fills">
            </path>
          </g>
        </g>
      </g>
      <g id="shape-8a35823d-0e2a-80a5-8004-88674303c3f5" style="fill:#000000" rx="0" ry="0">
        <g id="shape-8a35823d-0e2a-80a5-8004-886743044101" style="opacity:1">
          <g class="fills" id="fills-8a35823d-0e2a-80a5-8004-886743044101">
            <path d="M-5434.000,834.000L-5428.000,836.000C-5426.891,836.790,-5425.558,837.290,-5424.000,837.500L-5411.500,838.000C-5405.417,838.201,-5399.584,837.534,-5394.000,836.000C-5392.233,835.620,-5390.542,834.943,-5389.000,834.000C-5387.839,839.256,-5387.669,844.682,-5388.500,850.000C-5403.104,857.546,-5417.937,857.879,-5433.000,851.000C-5433.987,847.422,-5434.325,843.697,-5434.000,840.000L-5434.000,834.000ZZ" style="shape-rendering:geometricprecision;text-rendering:geometricprecision;fill-rule:evenodd;clip-rule:evenodd;fill:#245c51" class="fills">
            </path>
          </g>
        </g>
      </g>
      <g id="shape-8a35823d-0e2a-80a5-8004-88674304a4f9" style="fill:#000000" rx="0" ry="0">
        <g id="shape-8a35823d-0e2a-80a5-8004-88674304c0f5" style="opacity:1">
          <g class="fills" id="fills-8a35823d-0e2a-80a5-8004-88674304c0f5">
            <path d="M-5428.000,836.000C-5416.702,837.267,-5405.298,837.267,-5394.000,836.000C-5399.584,837.534,-5405.417,838.201,-5411.500,838.000L-5424.000,837.500C-5425.558,837.290,-5426.891,836.790,-5428.000,836.000ZZ" style="shape-rendering:geometricprecision;text-rendering:geometricprecision;fill-rule:evenodd;clip-rule:evenodd;fill:#3c7f72" class="fills">
            </path>
          </g>
        </g>
      </g>
      <g id="shape-8a35823d-0e2a-80a5-8004-886743051264" style="fill:#000000" rx="0" ry="0">
        <g id="shape-8a35823d-0e2a-80a5-8004-88674305838a" style="opacity:1">
          <g class="fills" id="fills-8a35823d-0e2a-80a5-8004-88674305838a">
            <path d="M-5285.000,840.000C-5284.834,844.340,-5285.001,848.686,-5285.500,853.000C-5294.901,858.525,-5305.068,860.359,-5316.000,858.500C-5321.636,858.832,-5326.636,857.332,-5331.000,854.000C-5332.333,848.333,-5332.333,842.667,-5331.000,837.000C-5327.673,839.222,-5324.006,840.388,-5320.000,840.500C-5312.000,841.167,-5304.000,841.167,-5296.000,840.500C-5293.041,840.178,-5290.162,839.332,-5287.500,838.000C-5286.489,838.556,-5285.656,839.222,-5285.000,840.000ZZ" style="shape-rendering:geometricprecision;text-rendering:geometricprecision;fill-rule:evenodd;clip-rule:evenodd;fill:#245c51" class="fills">
            </path>
          </g>
        </g>
      </g>
      <g id="shape-8a35823d-0e2a-80a5-8004-88674305f0a8" style="fill:#000000" rx="0" ry="0">
        <g id="shape-8a35823d-0e2a-80a5-8004-886743066844" style="opacity:1">
          <g class="fills" id="fills-8a35823d-0e2a-80a5-8004-886743066844">
            <path d="M-5491.000,850.000C-5484.465,853.407,-5477.465,854.740,-5470.000,854.000C-5461.470,854.550,-5453.304,853.217,-5445.500,850.000C-5444.833,855.312,-5444.833,860.688,-5445.500,866.000L-5447.000,867.500C-5458.668,872.186,-5470.668,873.186,-5483.000,870.500C-5490.511,869.108,-5493.177,864.608,-5491.000,857.000L-5491.000,850.000ZZ" style="shape-rendering:geometricprecision;text-rendering:geometricprecision;fill-rule:evenodd;clip-rule:evenodd;fill:#245c51" class="fills">
            </path>
          </g>
        </g>
      </g>
      <g id="shape-8a35823d-0e2a-80a5-8004-88674306f89c" style="fill:#000000" rx="0" ry="0">
        <g id="shape-8a35823d-0e2a-80a5-8004-8867430706b2" style="opacity:1">
          <g class="fills" id="fills-8a35823d-0e2a-80a5-8004-8867430706b2">
            <path d="M-5386.000,854.000C-5371.025,859.301,-5356.025,859.301,-5341.000,854.000C-5339.667,859.333,-5339.667,864.667,-5341.000,870.000C-5355.544,877.436,-5370.211,877.770,-5385.000,871.000C-5385.994,865.392,-5386.330,859.686,-5386.000,854.000ZZ" style="shape-rendering:geometricprecision;text-rendering:geometricprecision;fill-rule:evenodd;clip-rule:evenodd;fill:#245c51" class="fills">
            </path>
          </g>
        </g>
      </g>
      <g id="shape-8a35823d-0e2a-80a5-8004-8867430757b7" style="fill:#000000" rx="0" ry="0">
        <g id="shape-8a35823d-0e2a-80a5-8004-886743082b73" style="opacity:1">
          <g class="fills" id="fills-8a35823d-0e2a-80a5-8004-886743082b73">
            <path d="M-5548.000,874.000L-5548.000,867.000C-5545.894,867.550,-5543.874,868.392,-5542.000,869.500C-5530.652,870.332,-5519.319,870.166,-5508.000,869.000C-5505.979,868.391,-5504.106,867.370,-5502.500,866.000C-5501.669,871.652,-5501.838,877.406,-5503.000,883.000C-5510.433,887.220,-5518.433,888.887,-5527.000,888.000C-5534.126,888.764,-5540.793,887.431,-5547.000,884.000C-5547.984,880.764,-5548.323,877.367,-5548.000,874.000ZZ" style="shape-rendering:geometricprecision;text-rendering:geometricprecision;fill-rule:evenodd;clip-rule:evenodd;fill:#245c51" class="fills">
            </path>
          </g>
        </g>
      </g>
      <g id="shape-8a35823d-0e2a-80a5-8004-886743084414" style="fill:#000000" rx="0" ry="0">
        <g id="shape-8a35823d-0e2a-80a5-8004-88674308f34a" style="opacity:1">
          <g class="fills" id="fills-8a35823d-0e2a-80a5-8004-88674308f34a">
            <path d="M-5443.000,870.000C-5440.826,871.461,-5438.473,872.637,-5436.000,873.500C-5425.333,874.167,-5414.667,874.167,-5404.000,873.500C-5401.530,872.630,-5399.178,871.454,-5397.000,870.000C-5395.839,875.256,-5395.669,880.682,-5396.500,886.000C-5400.558,888.800,-5405.058,890.634,-5410.000,891.500C-5420.153,892.625,-5430.153,891.958,-5440.000,889.500L-5442.500,887.000C-5442.999,881.348,-5443.166,875.672,-5443.000,870.000ZZ" style="shape-rendering:geometricprecision;text-rendering:geometricprecision;fill-rule:evenodd;clip-rule:evenodd;fill:#245c51" class="fills">
            </path>
          </g>
        </g>
      </g>
      <g id="shape-8a35823d-0e2a-80a5-8004-8867430912bd" style="fill:#000000" rx="0" ry="0">
        <g id="shape-8a35823d-0e2a-80a5-8004-886743099ccd" style="opacity:1">
          <g class="fills" id="fills-8a35823d-0e2a-80a5-8004-886743099ccd">
            <path d="M-5575.000,882.000C-5545.120,895.338,-5514.945,908.008,-5484.500,920.000C-5484.000,946.665,-5483.833,973.331,-5484.000,1000.000C-5514.645,988.449,-5544.989,976.111,-5575.000,963.000C-5576.329,936.016,-5576.329,908.984,-5575.000,882.000ZZ" style="shape-rendering:geometricprecision;text-rendering:geometricprecision;fill-rule:evenodd;clip-rule:evenodd;fill:#245c51" class="fills">
            </path>
          </g>
        </g>
      </g>
      <g id="shape-8a35823d-0e2a-80a5-8004-8867430a5a32" style="fill:#000000" rx="0" ry="0">
        <g id="shape-8a35823d-0e2a-80a5-8004-8867430b0818" style="opacity:1">
          <g class="fills" id="fills-8a35823d-0e2a-80a5-8004-8867430b0818">
            <path d="M-5455.000,886.000C-5453.848,891.485,-5453.682,897.151,-5454.500,903.000C-5460.918,907.455,-5468.085,909.455,-5476.000,909.000C-5484.296,909.107,-5492.296,907.774,-5500.000,905.000C-5500.955,899.387,-5501.290,893.686,-5501.000,888.000C-5487.569,892.634,-5473.903,893.134,-5460.000,889.500C-5457.916,888.803,-5456.249,887.636,-5455.000,886.000ZZ" style="shape-rendering:geometricprecision;text-rendering:geometricprecision;fill-rule:evenodd;clip-rule:evenodd;fill:#245c51" class="fills">
            </path>
          </g>
        </g>
      </g>
      <g id="shape-8a35823d-0e2a-80a5-8004-8867430ba534" style="fill:#000000" rx="0" ry="0">
        <g id="shape-8a35823d-0e2a-80a5-8004-8867430c004f" style="opacity:1">
          <g class="fills" id="fills-8a35823d-0e2a-80a5-8004-8867430c004f">
            <path d="M-5204.000,896.000C-5219.357,901.230,-5234.690,901.230,-5250.000,896.000C-5250.153,894.972,-5249.978,893.922,-5249.500,893.000C-5243.876,890.141,-5237.876,888.808,-5231.500,889.000C-5224.663,889.449,-5217.830,889.949,-5211.000,890.500C-5207.362,890.952,-5205.028,892.786,-5204.000,896.000ZZ" style="shape-rendering:geometricprecision;text-rendering:geometricprecision;fill-rule:evenodd;clip-rule:evenodd;fill:#d34a24" class="fills">
            </path>
          </g>
        </g>
      </g>
      <g id="shape-8a35823d-0e2a-80a5-8004-8867430c7f39" style="fill:#000000" rx="0" ry="0">
        <g id="shape-8a35823d-0e2a-80a5-8004-8867430cc8bc" style="opacity:1">
          <g class="fills" id="fills-8a35823d-0e2a-80a5-8004-8867430cc8bc">
            <path d="M-5250.000,896.000C-5234.690,901.230,-5219.357,901.230,-5204.000,896.000L-5204.000,900.000C-5203.674,904.028,-5204.011,908.082,-5205.000,912.000C-5219.407,919.389,-5234.074,919.889,-5249.000,913.500L-5250.500,912.000C-5250.998,908.356,-5251.166,904.674,-5251.000,901.000C-5250.199,899.458,-5249.866,897.792,-5250.000,896.000ZZ" style="shape-rendering:geometricprecision;text-rendering:geometricprecision;fill-rule:evenodd;clip-rule:evenodd;fill:#c10104" class="fills">
            </path>
          </g>
        </g>
      </g>
      <g id="shape-8a35823d-0e2a-80a5-8004-8867430d30e9" style="fill:#000000" rx="0" ry="0">
        <g id="shape-8a35823d-0e2a-80a5-8004-8867430e900d" style="opacity:1">
          <g class="fills" id="fills-8a35823d-0e2a-80a5-8004-8867430e900d">
            <path d="M-5204.000,900.000C-5196.885,902.541,-5189.879,905.377,-5183.000,908.500C-5176.649,908.986,-5170.313,909.653,-5164.000,910.500C-5160.793,911.072,-5159.126,912.905,-5159.000,916.000C-5174.333,921.333,-5189.667,921.333,-5205.000,916.000C-5205.166,921.344,-5204.999,926.677,-5204.500,932.000C-5200.907,934.981,-5196.740,936.815,-5192.000,937.500C-5180.713,939.408,-5170.046,937.742,-5160.000,932.500C-5159.033,928.099,-5158.700,923.599,-5159.000,919.000C-5153.595,920.805,-5148.259,922.806,-5143.000,925.000C-5138.550,927.112,-5134.049,929.112,-5129.500,931.000C-5128.667,956.340,-5128.834,981.673,-5130.000,1007.000C-5141.066,1010.466,-5152.068,1014.134,-5163.000,1018.000C-5176.267,1021.487,-5189.294,1025.830,-5202.000,1031.000C-5210.665,1032.911,-5218.998,1035.577,-5227.000,1039.000C-5270.425,1052.035,-5313.759,1065.369,-5357.000,1079.000L-5357.000,998.000C-5374.091,992.275,-5390.424,985.275,-5406.000,977.000C-5395.512,973.120,-5384.831,969.783,-5374.000,967.000C-5374.329,972.354,-5373.994,977.729,-5373.000,983.000C-5371.856,983.643,-5370.839,984.491,-5370.000,985.500C-5358.658,987.474,-5347.325,987.474,-5336.000,985.500L-5329.000,982.000C-5327.667,976.667,-5327.667,971.333,-5329.000,966.000C-5336.456,969.362,-5344.290,970.695,-5352.500,970.000L-5365.000,969.500C-5367.674,968.830,-5370.007,967.663,-5372.000,966.000C-5354.666,960.668,-5337.333,955.334,-5320.000,950.000C-5318.924,949.963,-5317.883,949.616,-5317.000,949.000C-5316.170,954.638,-5315.670,960.304,-5315.500,966.000C-5300.440,972.889,-5285.440,972.556,-5270.500,965.000C-5269.669,959.682,-5269.839,954.256,-5271.000,949.000C-5283.738,953.298,-5296.738,954.131,-5310.000,951.500C-5312.260,950.951,-5313.926,949.784,-5315.000,948.000C-5295.481,941.370,-5275.809,935.202,-5256.000,929.500C-5255.013,920.369,-5254.679,911.179,-5255.000,902.000C-5253.541,902.067,-5252.208,901.734,-5251.000,901.000C-5251.166,904.674,-5250.998,908.356,-5250.500,912.000L-5249.000,913.500C-5234.074,919.889,-5219.407,919.389,-5205.000,912.000C-5204.011,908.082,-5203.674,904.028,-5204.000,900.000ZZ" style="shape-rendering:geometricprecision;text-rendering:geometricprecision;fill-rule:evenodd;clip-rule:evenodd;fill:#d34a24" class="fills">
            </path>
          </g>
        </g>
      </g>
      <g id="shape-8a35823d-0e2a-80a5-8004-88674310458d" style="fill:#000000" rx="0" ry="0">
        <g id="shape-8a35823d-0e2a-80a5-8004-8867431136bc" style="opacity:1">
          <g class="fills" id="fills-8a35823d-0e2a-80a5-8004-8867431136bc">
            <path d="M-5159.000,916.000L-5159.000,919.000C-5158.700,923.599,-5159.033,928.099,-5160.000,932.500C-5170.046,937.742,-5180.713,939.408,-5192.000,937.500C-5196.740,936.815,-5200.907,934.981,-5204.500,932.000C-5204.999,926.682,-5205.166,921.339,-5205.000,916.000C-5189.667,921.333,-5174.333,921.333,-5159.000,916.000ZZ" style="shape-rendering:geometricprecision;text-rendering:geometricprecision;fill-rule:evenodd;clip-rule:evenodd;fill:#c20105" class="fills">
            </path>
          </g>
        </g>
      </g>
      <g id="shape-8a35823d-0e2a-80a5-8004-88674311589f" style="fill:#000000" rx="0" ry="0">
        <g id="shape-8a35823d-0e2a-80a5-8004-88674311f176" style="opacity:1">
          <g class="fills" id="fills-8a35823d-0e2a-80a5-8004-88674311f176">
            <path d="M-5260.000,932.000C-5252.599,935.367,-5244.765,936.700,-5236.500,936.000C-5228.558,936.725,-5221.058,935.392,-5214.000,932.000C-5212.667,937.333,-5212.667,942.667,-5214.000,948.000C-5229.062,955.328,-5244.228,955.662,-5259.500,949.000C-5259.999,943.348,-5260.166,937.672,-5260.000,932.000ZZ" style="shape-rendering:geometricprecision;text-rendering:geometricprecision;fill-rule:evenodd;clip-rule:evenodd;fill:#c10104" class="fills">
            </path>
          </g>
        </g>
      </g>
      <g id="shape-8a35823d-0e2a-80a5-8004-886743121999" style="fill:#000000" rx="0" ry="0">
        <g id="shape-8a35823d-0e2a-80a5-8004-88674312b502" style="opacity:1">
          <g class="fills" id="fills-8a35823d-0e2a-80a5-8004-88674312b502">
            <path d="M-5315.000,948.000C-5313.926,949.784,-5312.260,950.951,-5310.000,951.500C-5296.738,954.131,-5283.738,953.298,-5271.000,949.000C-5269.839,954.256,-5269.669,959.682,-5270.500,965.000C-5285.440,972.556,-5300.440,972.889,-5315.500,966.000C-5315.670,960.304,-5316.170,954.638,-5317.000,949.000C-5317.883,949.616,-5318.924,949.963,-5320.000,950.000C-5318.865,948.287,-5317.198,947.620,-5315.000,948.000ZZ" style="shape-rendering:geometricprecision;text-rendering:geometricprecision;fill-rule:evenodd;clip-rule:evenodd;fill:#c10305" class="fills">
            </path>
          </g>
        </g>
      </g>
      <g id="shape-8a35823d-0e2a-80a5-8004-886743131065" style="fill:#000000" rx="0" ry="0">
        <g id="shape-8a35823d-0e2a-80a5-8004-886743140cde" style="opacity:1">
          <g class="fills" id="fills-8a35823d-0e2a-80a5-8004-886743140cde">
            <path d="M-5372.000,966.000C-5370.007,967.663,-5367.674,968.830,-5365.000,969.500L-5352.500,970.000C-5344.290,970.695,-5336.456,969.362,-5329.000,966.000C-5327.667,971.333,-5327.667,976.667,-5329.000,982.000L-5336.000,985.500C-5347.325,987.474,-5358.658,987.474,-5370.000,985.500C-5370.839,984.491,-5371.856,983.643,-5373.000,983.000C-5373.994,977.729,-5374.329,972.354,-5374.000,967.000C-5373.658,966.162,-5372.992,965.828,-5372.000,966.000ZZ" style="shape-rendering:geometricprecision;text-rendering:geometricprecision;fill-rule:evenodd;clip-rule:evenodd;fill:#c00104" class="fills">
            </path>
          </g>
        </g>
      </g>
      <g id="shape-8a35823d-0e2a-80a5-8004-88674314512b" style="fill:#000000" rx="0" ry="0">
        <g id="shape-8a35823d-0e2a-80a5-8004-88674314c9e1" style="opacity:1">
          <g class="fills" id="fills-8a35823d-0e2a-80a5-8004-88674314c9e1">
            <path d="M-5406.000,977.000C-5390.424,985.275,-5374.091,992.275,-5357.000,998.000L-5357.000,1079.000C-5387.885,1067.216,-5418.556,1054.881,-5449.000,1042.000L-5449.000,990.000C-5434.714,985.511,-5420.380,981.177,-5406.000,977.000ZZ" style="shape-rendering:geometricprecision;text-rendering:geometricprecision;fill-rule:evenodd;clip-rule:evenodd;fill:#c00505" class="fills">
            </path>
          </g>
        </g>
      </g>
      <g id="shape-8a35823d-0e2a-80a5-8004-88674316f5a0" style="fill:#000000" rx="0" ry="0">
        <g id="shape-8a35823d-0e2a-80a5-8004-8867431824e0" style="opacity:1">
          <g class="fills" id="fills-8a35823d-0e2a-80a5-8004-8867431824e0">
            <path d="M-5199.000,1032.000L-5199.000,1108.000C-5275.189,1131.397,-5351.191,1155.398,-5427.000,1180.000C-5427.607,1179.876,-5427.940,1179.543,-5428.000,1179.000C-5427.667,1151.992,-5428.000,1124.992,-5429.000,1098.000C-5456.050,1087.136,-5483.050,1076.303,-5510.000,1065.500C-5512.891,1064.226,-5515.558,1062.726,-5518.000,1061.000C-5509.420,1058.355,-5500.748,1056.020,-5492.000,1054.000C-5493.366,1061.810,-5490.033,1065.976,-5482.000,1066.500C-5474.333,1067.167,-5466.667,1067.167,-5459.000,1066.500C-5454.829,1065.747,-5450.788,1064.400,-5447.000,1062.500C-5445.694,1057.054,-5445.694,1051.554,-5447.000,1046.000C-5453.906,1049.426,-5461.239,1050.759,-5469.000,1050.000C-5477.083,1050.735,-5484.750,1049.401,-5492.000,1046.000C-5492.170,1044.678,-5491.837,1043.511,-5491.000,1042.500C-5477.057,1038.026,-5463.057,1037.860,-5449.000,1042.000C-5418.556,1054.881,-5387.885,1067.216,-5357.000,1079.000C-5313.759,1065.369,-5270.425,1052.035,-5227.000,1039.000C-5224.375,1039.825,-5221.875,1039.159,-5219.500,1037.000C-5218.944,1037.519,-5218.249,1037.867,-5217.500,1038.000C-5211.506,1035.502,-5205.319,1033.495,-5199.000,1032.000ZZ" style="shape-rendering:geometricprecision;text-rendering:geometricprecision;fill-rule:evenodd;clip-rule:evenodd;fill:#fd8f35" class="fills">
            </path>
          </g>
        </g>
      </g>
      <g id="shape-8a35823d-0e2a-80a5-8004-88674318ac9c" style="fill:#000000" rx="0" ry="0">
        <g id="shape-8a35823d-0e2a-80a5-8004-8867431912aa" style="opacity:1">
          <g class="fills" id="fills-8a35823d-0e2a-80a5-8004-8867431912aa">
            <path d="M-5202.000,1031.000C-5200.709,1030.763,-5199.709,1031.096,-5199.000,1032.000C-5205.319,1033.495,-5211.506,1035.502,-5217.500,1038.000C-5218.249,1037.867,-5218.944,1037.519,-5219.500,1037.000C-5221.875,1039.159,-5224.375,1039.825,-5227.000,1039.000C-5218.998,1035.577,-5210.665,1032.911,-5202.000,1031.000ZZ" style="shape-rendering:geometricprecision;text-rendering:geometricprecision;fill-rule:evenodd;clip-rule:evenodd;fill:#fd8f35" class="fills">
            </path>
          </g>
        </g>
      </g>
      <g id="shape-8a35823d-0e2a-80a5-8004-8867431967f7" style="fill:#000000" rx="0" ry="0">
        <g id="shape-8a35823d-0e2a-80a5-8004-88674319b97b" style="opacity:1">
          <g class="fills" id="fills-8a35823d-0e2a-80a5-8004-88674319b97b">
            <path d="M-5492.000,1046.000C-5484.750,1049.401,-5477.083,1050.735,-5469.000,1050.000C-5461.239,1050.759,-5453.906,1049.426,-5447.000,1046.000C-5445.694,1051.554,-5445.694,1057.054,-5447.000,1062.500C-5450.788,1064.400,-5454.829,1065.747,-5459.000,1066.500C-5466.667,1067.167,-5474.333,1067.167,-5482.000,1066.500C-5490.033,1065.976,-5493.366,1061.810,-5492.000,1054.000L-5492.000,1046.000ZZ" style="shape-rendering:geometricprecision;text-rendering:geometricprecision;fill-rule:evenodd;clip-rule:evenodd;fill:#d34a24" class="fills">
            </path>
          </g>
        </g>
      </g>
      <g id="shape-8a35823d-0e2a-80a5-8004-88674319b97c" style="fill:#000000" rx="0" ry="0">
        <g id="shape-8a35823d-0e2a-80a5-8004-88674319edad" style="opacity:1">
          <g class="fills" id="fills-8a35823d-0e2a-80a5-8004-88674319edad">
            <path d="M-5518.000,1061.000C-5515.558,1062.726,-5512.891,1064.226,-5510.000,1065.500C-5483.050,1076.303,-5456.050,1087.136,-5429.000,1098.000C-5428.000,1124.992,-5427.667,1151.992,-5428.000,1179.000C-5432.771,1177.641,-5437.448,1175.971,-5442.000,1174.000C-5467.558,1163.398,-5493.226,1153.064,-5519.000,1143.000C-5519.333,1115.663,-5519.000,1088.321,-5518.000,1061.000ZZ" style="shape-rendering:geometricprecision;text-rendering:geometricprecision;fill-rule:evenodd;clip-rule:evenodd;fill:#d34a24" class="fills">
            </path>
          </g>
        </g>
      </g>
      <g id="shape-8a35823d-0e2a-80a5-8004-88674319edae" style="fill:#000000" rx="0" ry="0">
        <g id="shape-8a35823d-0e2a-80a5-8004-8867431a40fd" style="opacity:1">
          <g class="fills" id="fills-8a35823d-0e2a-80a5-8004-8867431a40fd">
            <path d="M-5445.000,1066.000C-5437.424,1069.378,-5429.424,1070.712,-5421.000,1070.000C-5413.073,1070.747,-5405.573,1069.414,-5398.500,1066.000C-5397.833,1071.312,-5397.833,1076.688,-5398.500,1082.000C-5403.091,1085.375,-5408.257,1087.208,-5414.000,1087.500C-5422.010,1088.166,-5430.073,1087.830,-5438.000,1086.500C-5440.236,1085.466,-5442.406,1084.298,-5444.500,1083.000C-5444.999,1077.348,-5445.166,1071.672,-5445.000,1066.000ZZ" style="shape-rendering:geometricprecision;text-rendering:geometricprecision;fill-rule:evenodd;clip-rule:evenodd;fill:#d34a24" class="fills">
            </path>
          </g>
        </g>
      </g>
    </g>
  </g>
</svg>