<?xml version="1.0" standalone="no"?>
<!DOCTYPE svg PUBLIC "-//W3C//DTD SVG 20010904//EN"
 "http://www.w3.org/TR/2001/REC-SVG-20010904/DTD/svg10.dtd">
<svg version="1.0" xmlns="http://www.w3.org/2000/svg"
 width="1226.000000pt" height="153.000000pt" viewBox="0 0 1226.000000 153.000000"
 preserveAspectRatio="xMidYMid meet">

<g transform="translate(0.000000,153.000000) scale(0.100000,-0.100000)"
fill="#246EB0" stroke="none">
<path d="M380 1226 c-77 -17 -131 -48 -177 -100 -76 -87 -83 -199 -15 -260 30
-26 101 -32 140 -12 39 20 52 44 52 92 0 29 -7 43 -34 68 -50 47 -60 71 -44
103 23 46 62 67 128 68 111 0 151 -57 158 -225 l4 -106 -108 -39 c-281 -98
-387 -195 -387 -355 0 -126 65 -205 191 -231 100 -20 219 10 278 72 l27 29 23
-34 c33 -49 85 -71 170 -71 60 0 76 4 111 27 55 36 85 100 91 194 5 74 4 74
-21 74 -23 0 -25 -5 -32 -57 -14 -112 -54 -168 -94 -129 -14 15 -17 59 -21
349 l-5 332 -27 51 c-45 85 -119 135 -237 160 -78 16 -98 16 -171 0z m210
-636 l0 -199 -31 -36 c-61 -69 -138 -68 -185 3 -57 84 -31 297 44 365 21 19
127 65 155 66 16 1 17 -15 17 -199z"/>
<path d="M2905 1231 c-74 -19 -142 -78 -187 -163 l-23 -43 -3 93 -3 92 -175 0
-175 0 3 -22 c3 -20 11 -24 53 -28 l50 -5 3 -427 2 -427 -52 -3 c-46 -3 -53
-6 -56 -25 l-3 -23 226 0 226 0 -3 23 c-3 19 -10 22 -51 25 l-49 3 5 297 c3
236 7 307 20 343 59 174 143 258 219 218 45 -24 48 -54 48 -468 l0 -390 -47
-3 c-41 -3 -48 -6 -51 -25 l-3 -23 226 0 226 0 -3 23 c-3 19 -10 22 -55 25
l-52 3 -3 367 -3 367 -28 57 c-29 60 -71 102 -123 124 -41 17 -122 25 -159 15z"/>
<path d="M4995 1226 c-153 -39 -244 -144 -233 -268 5 -44 11 -57 42 -85 79
-72 196 -26 196 78 0 23 -11 42 -46 76 -41 39 -46 48 -40 76 7 39 35 63 89 78
81 22 152 -10 180 -80 23 -56 34 -233 16 -247 -8 -6 -56 -25 -107 -43 -133
-45 -189 -72 -257 -123 -126 -93 -161 -251 -83 -369 14 -21 46 -45 83 -64 51
-26 71 -30 140 -30 68 0 89 4 137 28 32 16 67 40 79 55 13 16 23 22 26 15 9
-25 46 -64 73 -78 16 -8 53 -18 84 -21 138 -16 236 87 236 248 0 48 -1 49 -27
46 -26 -3 -28 -7 -34 -63 -7 -67 -15 -92 -37 -117 -22 -26 -51 -22 -62 8 -6
14 -10 154 -10 323 0 323 -4 358 -56 432 -69 100 -255 160 -389 125z m213
-632 c2 -184 2 -192 -20 -225 -29 -43 -88 -73 -127 -64 -74 16 -107 92 -98
222 7 90 30 155 69 190 28 26 136 74 158 70 13 -2 15 -33 18 -193z"/>
<path d="M7315 1227 c-155 -40 -274 -168 -320 -344 -19 -74 -19 -232 0 -308
54 -210 224 -355 417 -355 151 0 280 121 316 295 11 53 5 69 -24 63 -13 -2
-21 -20 -31 -64 -18 -80 -67 -161 -121 -198 -79 -55 -194 -34 -252 46 -44 61
-60 151 -60 345 0 250 25 370 89 434 43 43 75 54 128 44 54 -10 93 -54 93
-105 0 -34 -7 -48 -44 -88 -67 -73 -78 -104 -55 -156 16 -34 73 -60 115 -53
143 23 179 229 64 360 -69 78 -201 113 -315 84z"/>
<path d="M9496 1229 c-64 -15 -155 -69 -200 -120 -91 -102 -136 -226 -136
-381 0 -161 49 -289 149 -388 95 -95 211 -134 324 -111 82 17 130 43 198 108
71 68 124 169 144 276 19 100 19 139 -1 235 -39 192 -160 335 -319 377 -65 17
-101 18 -159 4z m156 -78 c37 -42 57 -115 69 -261 18 -207 -2 -463 -41 -539
-29 -58 -56 -76 -110 -76 -121 0 -156 120 -148 507 5 229 15 294 55 355 40 61
127 68 175 14z"/>
<path d="M11637 1229 c-132 -31 -206 -126 -207 -264 0 -85 27 -149 90 -213 53
-55 112 -92 268 -171 140 -72 187 -111 197 -162 17 -90 -62 -157 -170 -146
-112 11 -187 76 -285 247 -44 78 -68 110 -81 110 -18 0 -19 -11 -19 -205 0
-170 2 -205 14 -205 8 0 23 17 33 37 10 21 30 44 45 52 25 14 32 13 130 -34
97 -47 107 -50 183 -50 87 1 144 20 200 67 70 60 101 186 72 289 -30 100 -97
157 -324 273 -113 58 -186 116 -203 162 -19 49 -12 109 15 136 44 44 107 49
182 14 69 -33 133 -102 183 -198 35 -66 45 -79 63 -76 22 3 22 6 22 163 0 141
-2 160 -17 163 -11 2 -20 -8 -28 -32 -6 -19 -18 -37 -26 -40 -8 -3 -50 12 -92
34 -110 56 -167 67 -245 49z"/>
</g>
</svg>
