<?xml version="1.0" encoding="UTF-8"?>
<!DOCTYPE svg PUBLIC "-//W3C//DTD SVG 1.1//EN" "http://www.w3.org/Graphics/SVG/1.1/DTD/svg11.dtd">
<svg version="1.2" width="156mm" height="19.7mm" viewBox="0 0 15600 1970" preserveAspectRatio="xMidYMid" fill-rule="evenodd" stroke-width="28.222" stroke-linejoin="round" xmlns="http://www.w3.org/2000/svg" xmlns:ooo="http://xml.openoffice.org/svg/export" xmlns:xlink="http://www.w3.org/1999/xlink" xmlns:presentation="http://sun.com/xmlns/staroffice/presentation" xmlns:smil="http://www.w3.org/2001/SMIL20/" xmlns:anim="urn:oasis:names:tc:opendocument:xmlns:animation:1.0" xmlns:svg="urn:oasis:names:tc:opendocument:xmlns:svg-compatible:1.0" xml:space="preserve">
 <defs class="ClipPathGroup">
  <clipPath id="presentation_clip_path" clipPathUnits="userSpaceOnUse">
   <rect x="0" y="0" width="15600" height="1970"/>
  </clipPath>
  <clipPath id="presentation_clip_path_shrink" clipPathUnits="userSpaceOnUse">
   <rect x="15" y="1" width="15569" height="1967"/>
  </clipPath>
 </defs>
 <defs class="TextShapeIndex">
  <g ooo:slide="id1" ooo:id-list="id3"/>
 </defs>
 <defs class="EmbeddedBulletChars">
  <g id="bullet-char-template-57356" transform="scale(0.00048828125,-0.00048828125)">
   <path d="M 580,1141 L 1163,571 580,0 -4,571 580,1141 Z"/>
  </g>
  <g id="bullet-char-template-57354" transform="scale(0.00048828125,-0.00048828125)">
   <path d="M 8,1128 L 1137,1128 1137,0 8,0 8,1128 Z"/>
  </g>
  <g id="bullet-char-template-10146" transform="scale(0.00048828125,-0.00048828125)">
   <path d="M 174,0 L 602,739 174,1481 1456,739 174,0 Z M 1358,739 L 309,1346 659,739 1358,739 Z"/>
  </g>
  <g id="bullet-char-template-10132" transform="scale(0.00048828125,-0.00048828125)">
   <path d="M 2015,739 L 1276,0 717,0 1260,543 174,543 174,936 1260,936 717,1481 1274,1481 2015,739 Z"/>
  </g>
  <g id="bullet-char-template-10007" transform="scale(0.00048828125,-0.00048828125)">
   <path d="M 0,-2 C -7,14 -16,27 -25,37 L 356,567 C 262,823 215,952 215,954 215,979 228,992 255,992 264,992 276,990 289,987 310,991 331,999 354,1012 L 381,999 492,748 772,1049 836,1024 860,1049 C 881,1039 901,1025 922,1006 886,937 835,863 770,784 769,783 710,716 594,584 L 774,223 C 774,196 753,168 711,139 L 727,119 C 717,90 699,76 672,76 641,76 570,178 457,381 L 164,-76 C 142,-110 111,-127 72,-127 30,-127 9,-110 8,-76 1,-67 -2,-52 -2,-32 -2,-23 -1,-13 0,-2 Z"/>
  </g>
  <g id="bullet-char-template-10004" transform="scale(0.00048828125,-0.00048828125)">
   <path d="M 285,-33 C 182,-33 111,30 74,156 52,228 41,333 41,471 41,549 55,616 82,672 116,743 169,778 240,778 293,778 328,747 346,684 L 369,508 C 377,444 397,411 428,410 L 1163,1116 C 1174,1127 1196,1133 1229,1133 1271,1133 1292,1118 1292,1087 L 1292,965 C 1292,929 1282,901 1262,881 L 442,47 C 390,-6 338,-33 285,-33 Z"/>
  </g>
  <g id="bullet-char-template-9679" transform="scale(0.00048828125,-0.00048828125)">
   <path d="M 813,0 C 632,0 489,54 383,161 276,268 223,411 223,592 223,773 276,916 383,1023 489,1130 632,1184 813,1184 992,1184 1136,1130 1245,1023 1353,916 1407,772 1407,592 1407,412 1353,268 1245,161 1136,54 992,0 813,0 Z"/>
  </g>
  <g id="bullet-char-template-8226" transform="scale(0.00048828125,-0.00048828125)">
   <path d="M 346,457 C 273,457 209,483 155,535 101,586 74,649 74,723 74,796 101,859 155,911 209,963 273,989 346,989 419,989 480,963 531,910 582,859 608,796 608,723 608,648 583,586 532,535 482,483 420,457 346,457 Z"/>
  </g>
  <g id="bullet-char-template-8211" transform="scale(0.00048828125,-0.00048828125)">
   <path d="M -4,459 L 1135,459 1135,606 -4,606 -4,459 Z"/>
  </g>
  <g id="bullet-char-template-61548" transform="scale(0.00048828125,-0.00048828125)">
   <path d="M 173,740 C 173,903 231,1043 346,1159 462,1274 601,1332 765,1332 928,1332 1067,1274 1183,1159 1299,1043 1357,903 1357,740 1357,577 1299,437 1183,322 1067,206 928,148 765,148 601,148 462,206 346,322 231,437 173,577 173,740 Z"/>
  </g>
 </defs>
 <g>
  <g id="id2" class="Master_Slide">
   <g id="bg-id2" class="Background"/>
   <g id="bo-id2" class="BackgroundObjects"/>
  </g>
 </g>
 <g class="SlideGroup">
  <g>
   <g id="container-id1">
    <g id="id1" class="Slide" clip-path="url(#presentation_clip_path)">
     <g class="Page">
      <g class="Graphic">
       <g id="id3">
        <rect class="BoundingBox" stroke="none" fill="none" x="0" y="0" width="15688" height="1968"/>
        <defs>
         <clipPath id="clip_path_1" clipPathUnits="userSpaceOnUse">
          <path d="M 0,0 L 15687,0 15687,1967 0,1967 0,0 Z"/>
         </clipPath>
        </defs>
        <g clip-path="url(#clip_path_1)">
         <path fill="#246EB0" stroke="none" d="M -1941,1167 C -1941,1851 -1912,2259 -1870,2259 -1828,2259 -1799,1851 -1799,1167 -1799,484 -1828,75 -1870,75 -1912,75 -1941,484 -1941,1167 L -1941,1167 Z"/>
         <path fill="#246EB0" stroke="none" d="M 325,223 C -127,646 -21,1569 508,1773 663,1830 734,1815 903,1696 1101,1548 1108,1548 1200,1675 1291,1787 1298,1759 1306,1400 1306,1153 1341,991 1397,970 1440,949 1291,935 1059,935 826,935 706,956 797,970 924,998 953,1047 953,1259 953,1597 868,1717 663,1682 501,1660 494,1632 473,1062 445,308 487,146 692,146 917,146 1002,223 1164,540 L 1298,815 1306,434 C 1306,139 1284,75 1214,131 1157,181 1087,181 1023,146 840,26 494,68 325,223 L 325,223 Z"/>
         <path fill="#246EB0" stroke="none" d="M 5737,117 C 5794,146 5822,378 5822,921 5822,1590 5808,1689 5702,1717 5631,1738 5737,1752 5928,1759 6125,1759 6245,1738 6196,1710 6139,1675 6104,1393 6090,885 L 6069,110 5857,96 C 5744,89 5688,96 5737,117 L 5737,117 Z"/>
         <path fill="#246EB0" stroke="none" d="M 7918,174 C 7861,315 8059,477 8165,371 8264,272 8186,75 8052,75 8002,75 7939,117 7918,174 L 7918,174 Z"/>
         <path fill="#246EB0" stroke="none" d="M 12547,188 C 12526,244 12540,329 12589,378 12688,477 12921,272 12850,153 12780,40 12596,61 12547,188 L 12547,188 Z"/>
         <path fill="#246EB0" stroke="none" d="M -17430,752 C -17564,892 -17536,1019 -17360,1047 -17254,1069 -17240,1040 -17282,892 -17317,744 -17303,709 -17190,709 -17049,709 -16894,998 -17014,1040 -17049,1054 -17183,1125 -17310,1202 -17501,1315 -17543,1386 -17522,1541 -17501,1724 -17487,1731 -17042,1731 -16640,1731 -16583,1717 -16569,1590 -16562,1477 -16562,1477 -16590,1576 -16668,1822 -16760,1611 -16760,1202 -16760,864 -16788,773 -16894,709 -17091,604 -17296,625 -17430,752 L -17430,752 Z M -16986,1393 C -17000,1583 -17042,1667 -17127,1682 -17226,1703 -17254,1660 -17254,1505 -17254,1308 -17148,1132 -17021,1132 -16993,1132 -16971,1252 -16986,1393 L -16986,1393 Z"/>
         <path fill="#246EB0" stroke="none" d="M -14939,688 C -14883,709 -14854,885 -14854,1202 -14854,1520 -14883,1696 -14939,1717 -14989,1738 -14918,1759 -14784,1759 L -14537,1766 -14551,1294 C -14558,1026 -14565,773 -14565,723 -14572,674 -14664,639 -14798,646 -14925,646 -14989,667 -14939,688 L -14939,688 Z"/>
         <path fill="#246EB0" stroke="none" d="M -14459,702 C -14480,737 -14445,759 -14375,752 -14276,744 -14255,815 -14233,1195 -14219,1512 -14241,1667 -14304,1703 -14360,1745 -14304,1766 -14149,1766 L -13895,1766 -13937,1287 C -13965,1019 -14008,766 -14036,723 -14092,625 -14403,611 -14459,702 L -14459,702 Z"/>
         <path fill="#246EB0" stroke="none" d="M -12088,723 C -12201,836 -12194,1062 -12081,1062 -11933,1062 -11884,977 -11968,878 -12032,808 -12018,773 -11940,737 -11785,681 -11679,759 -11679,928 -11679,1019 -11749,1097 -11891,1146 -12138,1231 -12272,1428 -12208,1625 -12173,1738 -12102,1759 -11728,1752 -11326,1745 -11192,1689 -11185,1527 -11185,1484 -11234,1520 -11291,1597 -11383,1717 -11390,1696 -11397,1301 -11397,977 -11425,843 -11524,759 -11679,618 -11968,604 -12088,723 L -12088,723 Z M -11735,1639 C -11778,1682 -11841,1689 -11884,1667 -12004,1590 -11975,1372 -11834,1231 -11721,1111 -11714,1118 -11693,1336 -11679,1470 -11700,1604 -11735,1639 L -11735,1639 Z"/>
         <path fill="#246EB0" stroke="none" d="M -9484,822 C -9788,1202 -9576,1766 -9138,1766 -8948,1766 -8715,1534 -8807,1435 -8828,1421 -8863,1470 -8891,1548 -8941,1710 -9131,1745 -9265,1611 -9371,1505 -9378,1033 -9280,843 -9237,773 -9153,709 -9096,709 -9011,709 -8997,759 -9033,921 -9068,1083 -9054,1132 -8976,1132 -8920,1132 -8849,1083 -8828,1019 -8772,871 -8772,878 -8899,752 -9061,582 -9322,618 -9484,822 L -9484,822 Z"/>
         <path fill="#246EB0" stroke="none" d="M -6951,780 C -7120,949 -7141,1386 -6979,1611 -6838,1815 -6506,1815 -6316,1611 -5885,1146 -6499,329 -6951,780 L -6951,780 Z M -6499,822 C -6436,984 -6450,1505 -6520,1618 -6556,1675 -6633,1696 -6697,1675 -6782,1639 -6810,1534 -6810,1217 -6810,991 -6789,780 -6760,759 -6683,674 -6542,709 -6499,822 L -6499,822 Z"/>
         <path fill="#246EB0" stroke="none" d="M -4396,723 C -4566,892 -4495,1125 -4206,1301 -3867,1520 -3797,1618 -3924,1710 -4008,1766 -4008,1773 -3924,1752 -3775,1710 -3677,1520 -3726,1393 -3747,1329 -3895,1195 -4058,1097 -4347,914 -4432,709 -4220,709 -4156,709 -4029,780 -3938,864 L -3775,1012 -3775,843 C -3775,695 -3811,674 -4043,653 -4192,646 -4347,674 -4396,723 L -4396,723 Z"/>
         <path fill="#246EB0" stroke="none" d="M 3225,723 C 3112,836 3119,1062 3232,1062 3380,1062 3430,977 3345,878 3281,808 3296,773 3373,737 3528,681 3634,759 3634,928 3634,1019 3564,1097 3423,1146 3176,1231 3042,1428 3105,1625 3140,1738 3211,1759 3585,1752 3987,1745 4121,1689 4128,1527 4128,1484 4079,1520 4022,1597 3931,1717 3924,1696 3917,1301 3917,977 3888,843 3790,759 3634,618 3345,604 3225,723 L 3225,723 Z M 3578,1639 C 3535,1682 3472,1689 3430,1667 3310,1590 3338,1372 3479,1231 3592,1111 3599,1118 3620,1336 3634,1470 3613,1604 3578,1639 L 3578,1639 Z"/>
         <path fill="#246EB0" stroke="none" d="M 7854,688 C 7911,709 7939,885 7939,1202 7939,1520 7911,1696 7854,1717 7805,1738 7875,1759 8009,1759 L 8256,1766 8235,1202 8207,639 7988,646 C 7861,646 7805,667 7854,688 L 7854,688 Z"/>
         <path fill="#246EB0" stroke="none" d="M 10063,822 C 9978,928 9915,1097 9915,1202 9915,1477 10162,1766 10402,1766 10599,1766 10762,1653 10762,1527 10762,1484 10726,1505 10684,1569 10571,1766 10345,1724 10261,1498 10155,1231 10261,752 10437,723 10543,702 10557,730 10515,921 10472,1111 10486,1139 10592,1118 10663,1104 10733,1040 10747,970 10818,625 10303,512 10063,822 L 10063,822 Z"/>
         <path fill="#246EB0" stroke="none" d="M 12491,1202 L 12491,1766 12737,1759 C 12872,1759 12942,1738 12900,1717 12836,1696 12808,1512 12808,1160 12808,667 12801,639 12653,639 12498,639 12491,667 12491,1202 L 12491,1202 Z"/>
         <path fill="#246EB0" stroke="none" d="M 14678,752 C 14544,892 14572,1019 14749,1047 14855,1069 14869,1040 14826,892 14791,744 14805,709 14918,709 15059,709 15214,998 15094,1040 15059,1054 14925,1125 14798,1202 14608,1315 14565,1386 14586,1541 14608,1724 14622,1731 15066,1731 15468,1731 15525,1717 15539,1590 15546,1477 15546,1477 15518,1576 15440,1822 15349,1611 15349,1202 15349,864 15320,773 15214,709 15017,604 14812,625 14678,752 L 14678,752 Z M 15123,1393 C 15109,1583 15066,1667 14982,1682 14883,1703 14855,1660 14855,1505 14855,1308 14960,1132 15087,1132 15116,1132 15137,1252 15123,1393 L 15123,1393 Z"/>
         <path fill="#246EB0" stroke="none" d="M -4481,1520 C -4481,1710 -4453,1731 -4255,1745 -4036,1759 -4036,1759 -4185,1653 -4269,1597 -4368,1498 -4403,1428 -4467,1329 -4474,1343 -4481,1520 L -4481,1520 Z"/>
        </g>
       </g>
      </g>
     </g>
    </g>
   </g>
  </g>
 </g>
</svg>