<?xml version="1.0" encoding="UTF-8"?>
<!DOCTYPE svg PUBLIC "-//W3C//DTD SVG 1.1//EN" "http://www.w3.org/Graphics/SVG/1.1/DTD/svg11.dtd">
<svg xmlns="http://www.w3.org/2000/svg" version="1.1" width="512px" height="512px" style="shape-rendering:geometricPrecision; text-rendering:geometricPrecision; image-rendering:optimizeQuality; fill-rule:evenodd; clip-rule:evenodd" xmlns:xlink="http://www.w3.org/1999/xlink">
<g><path fill="rgb(26, 17, 32, 0.20)" d="M 182.5,-0.5 C 195.833,-0.5 209.167,-0.5 222.5,-0.5C 291.911,8.77471 344.411,43.4414 380,103.5C 414.963,172.233 413.629,240.233 376,307.5C 371.201,314.932 366.034,322.098 360.5,329C 409,377.5 457.5,426 506,474.5C 507.872,477.596 509.705,480.596 511.5,483.5C 511.5,487.833 511.5,492.167 511.5,496.5C 508.833,503.833 503.833,508.833 496.5,511.5C 492.167,511.5 487.833,511.5 483.5,511.5C 480.596,509.705 477.596,507.872 474.5,506C 426,457.5 377.5,409 329,360.5C 280.721,398.164 226.221,411.997 165.5,402C 88.439,384.933 36.2723,339.433 9,265.5C 4.5964,251.302 1.42973,236.968 -0.5,222.5C -0.5,209.167 -0.5,195.833 -0.5,182.5C 10.3229,104.51 51.3229,48.6766 122.5,15C 141.987,7.29609 161.987,2.12943 182.5,-0.5 Z M 195.5,42.5 C 260.166,42.8996 309,70.5662 342,125.5C 372.494,187.855 367.161,246.855 326,302.5C 278.273,356.063 219.773,372.896 150.5,353C 82.6594,325.718 46.6594,275.385 42.5,202C 46.109,133.43 78.7756,84.4299 140.5,55C 158.361,48.115 176.694,43.9484 195.5,42.5 Z"/></g>
</svg>
