<svg width="846" xmlns="http://www.w3.org/2000/svg" height="1314" id="screenshot-ebf38975-abd1-803b-8004-87431c9e4d8e" viewBox="1834 312 846 1314" style="-webkit-print-color-adjust::exact" xmlns:xlink="http://www.w3.org/1999/xlink" fill="none" version="1.1">
  <g id="shape-ebf38975-abd1-803b-8004-87431c9e4d8e" style="fill:#000000" width="198" height="255" rx="0" ry="0">
    <g id="shape-ebf38975-abd1-803b-8004-87431c9e4d90" style="opacity:1">
      <g class="fills" id="fills-ebf38975-abd1-803b-8004-87431c9e4d90">
        <path d="M2485.661,966.355C2484.302,963.636,2482.939,960.918,2481.580,958.200C2485.771,942.110,2486.452,925.800,2483.620,909.270C2479.556,900.461,2473.435,893.665,2465.257,888.883C2459.749,878.257,2453.628,878.257,2446.894,888.883C2446.193,860.969,2444.152,833.786,2440.773,807.334C2437.142,784.230,2430.339,762.484,2420.370,742.095C2408.324,707.150,2386.562,679.968,2355.079,660.546C2301.842,632.187,2255.595,640.341,2216.336,685.010C2212.890,689.787,2210.169,695.223,2208.175,701.320C2116.827,682.671,2093.703,715.291,2138.804,799.179C2141.967,807.790,2141.967,815.945,2138.804,823.644C2134.080,829.555,2136.120,833.633,2144.925,835.876C2149.163,832.843,2151.203,828.766,2151.046,823.644C2155.092,822.944,2157.813,824.303,2159.207,827.721C2154.872,832.106,2154.872,836.184,2159.207,839.954C2165.966,831.961,2172.767,823.806,2179.610,815.489C2200.758,805.853,2211.640,812.649,2212.256,835.876C2209.013,851.036,2204.933,865.987,2200.014,880.728C2199.062,886.566,2196.341,888.604,2191.852,886.844C2172.869,850.828,2144.305,838.595,2106.158,850.147C2077.767,881.549,2079.127,911.450,2110.239,939.851C2138.727,949.737,2165.932,947.698,2191.852,933.735C2197.255,941.149,2204.736,945.227,2214.296,945.967C2225.949,944.454,2237.511,942.415,2248.982,939.851C2260.331,937.724,2269.853,932.966,2277.546,925.580C2281.610,925.230,2285.011,926.590,2287.748,929.658C2294.960,956.423,2284.758,970.694,2257.143,972.471C2243.689,989.285,2237.568,1008.993,2238.780,1031.594C2222.484,1060.801,2202.081,1063.520,2177.570,1039.749C2169.978,1030.012,2164.537,1019.140,2161.247,1007.129C2157.564,1002.230,2152.804,998.832,2146.965,996.935C2153.766,995.576,2160.567,994.217,2167.368,992.858C2164.648,990.140,2161.928,987.422,2159.207,984.703C2150.663,989.165,2141.141,990.525,2130.642,988.781C2118.085,979.443,2106.523,969.249,2095.957,958.200C2094.958,974.277,2099.039,989.228,2108.199,1003.052C2133.096,1026.513,2156.900,1050.297,2179.610,1074.407C2207.574,1083.296,2234.779,1081.257,2261.224,1068.291C2259.028,1074.884,2257.668,1081.681,2257.143,1088.678C2252.297,1097.738,2248.216,1107.251,2244.901,1117.220C2215.575,1115.895,2187.010,1117.257,2159.207,1121.298C2151.952,1130.794,2147.871,1141.669,2146.965,1153.917C2143.014,1145.326,2141.654,1135.809,2142.884,1125.375C2158.043,1108.743,2161.444,1089.714,2153.086,1068.291C2143.396,1076.605,2135.235,1086.118,2128.602,1096.833C2125.232,1107.891,2127.272,1117.404,2134.723,1125.375C2132.982,1135.610,2130.262,1145.122,2126.562,1153.917C2127.231,1142.961,2126.551,1132.087,2124.521,1121.298C2101.660,1116.939,2091.459,1127.133,2093.916,1151.879C2094.247,1159.724,2095.607,1167.198,2097.997,1174.305C2092.800,1177.114,2092.800,1180.515,2097.997,1184.498C2104.798,1187.218,2111.599,1187.218,2118.400,1184.498C2126.299,1176.193,2133.100,1167.361,2138.804,1157.995C2143.423,1168.148,2142.063,1177.665,2134.723,1186.537C2125.669,1195.124,2114.787,1199.202,2102.078,1198.769C2101.115,1211.446,2102.475,1223.679,2106.158,1235.467C2108.180,1243.548,2110.220,1251.703,2112.279,1259.931C2115.017,1262.998,2118.417,1264.359,2122.481,1264.009C2137.655,1274.423,2149.217,1288.013,2157.167,1304.783C2166.358,1327.291,2174.519,1350.394,2181.651,1374.100C2188.322,1386.871,2195.803,1399.103,2204.094,1410.797C2217.510,1415.152,2224.311,1409.717,2224.498,1394.487C2227.156,1392.077,2229.877,1389.362,2232.659,1386.332C2234.591,1393.456,2235.951,1400.253,2236.740,1406.720C2236.170,1421.443,2229.369,1432.314,2216.336,1439.339C2212.936,1447.494,2209.535,1455.649,2206.135,1463.804C2186.772,1478.572,2167.049,1492.844,2146.965,1506.617C2103.293,1515.041,2067.247,1502.132,2038.827,1467.881C2034.224,1460.358,2032.184,1452.204,2032.706,1443.417C1967.590,1422.100,1942.426,1377.248,1957.214,1308.861C1982.230,1249.807,2026.437,1226.700,2089.836,1239.544C2090.854,1210.639,2088.133,1182.097,2081.674,1153.917C2084.584,1133.171,2094.786,1116.862,2112.279,1104.988C2115.000,1099.553,2115.000,1094.113,2112.279,1088.678C2077.550,1038.338,2046.945,985.329,2020.464,929.658C1993.186,924.817,1980.264,908.507,1981.698,880.728C1936.468,854.185,1918.785,814.770,1928.649,762.482C1959.514,689.643,2013.243,661.780,2089.836,678.894C2099.874,684.838,2108.715,692.313,2116.360,701.320C2121.314,695.005,2127.435,690.248,2134.723,687.049C2157.957,685.482,2181.081,685.482,2204.094,687.049C2245.803,631.662,2298.852,618.070,2363.241,646.274C2416.461,686.670,2447.066,740.356,2455.056,807.334C2456.415,827.721,2457.778,848.108,2459.136,868.496C2498.515,893.872,2507.358,926.492,2485.661,966.355ZZ" style="shape-rendering:geometricPrecision;text-rendering:geometricPrecision;image-rendering:optimizeQuality;fill-rule:evenodd;clip-rule:evenodd;fill:#140d0c">
        </path>
      </g>
    </g>
    <g id="shape-ebf38975-abd1-803b-8004-87431c9e4d91" style="opacity:1">
      <g class="fills" id="fills-ebf38975-abd1-803b-8004-87431c9e4d91">
        <path d="M2028.625,680.933C2059.320,676.424,2084.485,685.939,2104.118,709.475C2106.144,718.893,2106.825,728.407,2106.158,738.017C2098.862,739.180,2092.061,737.821,2085.755,733.940C2079.447,715.985,2067.205,707.151,2049.029,707.436C2062.064,714.346,2071.586,724.540,2077.594,738.017C2071.698,744.389,2064.896,749.825,2057.190,754.327C2050.389,746.172,2043.588,738.017,2036.787,729.862C2028.088,723.267,2018.567,721.229,2008.222,723.746C2045.962,738.695,2057.524,765.198,2042.908,803.256C2038.781,806.668,2034.020,808.027,2028.625,807.334C2029.055,781.289,2018.173,761.582,1995.980,748.211C1975.049,746.064,1975.049,748.782,1995.980,756.366C2016.936,774.609,2021.017,795.676,2008.222,819.566C1991.792,827.010,1978.870,822.933,1969.456,807.334C1969.500,824.354,1978.341,832.509,1995.980,831.799C2014.226,824.013,2033.269,817.217,2053.109,811.411C2067.016,817.097,2080.618,816.418,2093.916,809.373C2097.795,806.447,2098.475,803.049,2095.957,799.179C2061.234,813.417,2050.353,802.544,2063.311,766.559C2074.574,751.443,2088.857,747.366,2106.158,754.327C2110.905,771.983,2118.386,788.293,2128.602,803.256C2131.405,813.125,2129.365,821.960,2122.481,829.760C2109.602,833.581,2098.040,839.697,2087.795,848.108C2078.505,866.068,2071.024,884.417,2065.351,903.154C2046.966,911.154,2027.923,913.873,2008.222,911.309C1998.350,905.157,1994.269,896.322,1995.980,884.806C2006.946,885.475,2017.828,884.795,2028.625,882.767C1965.678,871.535,1936.434,834.158,1940.891,770.637C1955.235,725.835,1984.479,695.934,2028.625,680.933ZZ" style="shape-rendering:geometricPrecision;text-rendering:geometricPrecision;image-rendering:optimizeQuality;fill-rule:evenodd;clip-rule:evenodd;fill:#f4f4f4">
        </path>
      </g>
    </g>
    <g id="shape-ebf38975-abd1-803b-8004-87431c9e4d92" style="opacity:1">
      <g class="fills" id="fills-ebf38975-abd1-803b-8004-87431c9e4d92">
        <path d="M2355.079,660.546C2342.274,655.587,2332.750,660.344,2326.515,674.817C2330.930,680.238,2333.652,686.355,2334.676,693.165C2318.051,671.954,2296.287,663.120,2269.385,666.662C2261.960,667.479,2256.519,670.877,2253.062,676.855C2241.289,681.116,2232.448,689.271,2226.538,701.320C2219.577,698.026,2216.177,692.589,2216.336,685.010C2255.595,640.341,2301.842,632.187,2355.079,660.546ZZ" style="shape-rendering:geometricPrecision;text-rendering:geometricPrecision;image-rendering:optimizeQuality;fill-rule:evenodd;clip-rule:evenodd;fill:#f11f43">
        </path>
      </g>
    </g>
    <g id="shape-ebf38975-abd1-803b-8004-87431c9e4d93" style="opacity:1">
      <g class="fills" id="fills-ebf38975-abd1-803b-8004-87431c9e4d93">
        <path d="M2355.079,660.546C2386.562,679.968,2408.324,707.150,2420.370,742.095C2424.002,765.198,2430.804,786.945,2440.773,807.334C2440.773,837.235,2440.773,867.137,2440.773,897.038C2448.935,894.319,2457.096,891.601,2465.257,888.883C2473.435,893.665,2479.556,900.461,2483.620,909.270C2486.452,925.800,2485.771,942.110,2481.580,958.200C2472.888,964.834,2464.727,972.309,2457.096,980.626C2453.228,982.594,2449.147,983.274,2444.854,982.664C2443.430,966.231,2435.269,953.999,2420.370,945.967C2411.658,938.347,2400.775,935.629,2387.725,937.812C2385.905,915.991,2383.183,894.244,2379.563,872.573C2377.090,860.994,2371.651,851.480,2363.241,844.031C2357.030,834.978,2352.949,824.785,2350.999,813.450C2341.915,802.370,2333.754,790.817,2326.515,778.792C2327.380,771.109,2331.460,765.673,2338.757,762.482C2343.502,740.862,2344.180,719.115,2340.797,697.243C2339.234,694.976,2337.194,693.617,2334.676,693.165C2333.652,686.355,2330.930,680.238,2326.515,674.817C2332.750,660.344,2342.274,655.587,2355.079,660.546ZZ" style="shape-rendering:geometricPrecision;text-rendering:geometricPrecision;image-rendering:optimizeQuality;fill-rule:evenodd;clip-rule:evenodd;fill:#f11f43">
        </path>
      </g>
    </g>
    <g id="shape-ebf38975-abd1-803b-8004-87431c9e4d94" style="opacity:1">
      <g class="fills" id="fills-ebf38975-abd1-803b-8004-87431c9e4d94">
        <path d="M2208.175,701.320C2248.081,723.451,2283.446,751.993,2314.273,786.947C2307.072,790.867,2298.910,792.226,2289.789,791.024C2274.371,770.160,2255.328,753.850,2232.659,742.095C2232.125,745.107,2232.805,747.826,2234.699,750.250C2301.263,801.237,2296.502,810.751,2220.417,778.792C2204.252,752.439,2187.930,752.439,2171.449,778.792C2174.880,790.011,2170.800,798.845,2159.207,805.295C2151.065,807.794,2144.264,805.755,2138.804,799.179C2093.703,715.291,2116.827,682.671,2208.175,701.320ZZ" style="shape-rendering:geometricPrecision;text-rendering:geometricPrecision;image-rendering:optimizeQuality;fill-rule:evenodd;clip-rule:evenodd;fill:#f11f43">
        </path>
      </g>
    </g>
    <g id="shape-ebf38975-abd1-803b-8004-87431c9e4d95" style="opacity:1">
      <g class="fills" id="fills-ebf38975-abd1-803b-8004-87431c9e4d95">
        <path d="M2232.659,742.095C2211.000,734.802,2190.597,724.608,2171.449,711.514C2195.777,713.289,2216.180,723.483,2232.659,742.095ZZ" style="shape-rendering:geometricPrecision;text-rendering:geometricPrecision;image-rendering:optimizeQuality;fill-rule:evenodd;clip-rule:evenodd;fill:#140d0c;fill-opacity:1">
        </path>
      </g>
    </g>
    <g id="shape-ebf38975-abd1-803b-8004-87431c9e4d96" style="opacity:1">
      <g class="fills" id="fills-ebf38975-abd1-803b-8004-87431c9e4d96">
        <path d="M2420.370,742.095C2430.339,762.484,2437.142,784.230,2440.773,807.334C2430.804,786.945,2424.002,765.198,2420.370,742.095ZZ" style="shape-rendering:geometricPrecision;text-rendering:geometricPrecision;image-rendering:optimizeQuality;fill-rule:evenodd;clip-rule:evenodd;fill:#f11f43">
        </path>
      </g>
    </g>
    <g id="shape-ebf38975-abd1-803b-8004-87431c9e4d97" style="opacity:1">
      <g class="fills" id="fills-ebf38975-abd1-803b-8004-87431c9e4d97">
        <path d="M2334.676,693.165C2337.194,693.617,2339.234,694.976,2340.797,697.243C2344.180,719.115,2343.502,740.862,2338.757,762.482C2331.460,765.673,2327.380,771.109,2326.515,778.792C2322.136,775.731,2321.455,771.654,2324.474,766.559C2330.126,762.276,2334.207,756.839,2336.716,750.250C2339.361,731.069,2338.679,712.041,2334.676,693.165ZZ" style="shape-rendering:geometricPrecision;text-rendering:geometricPrecision;image-rendering:optimizeQuality;fill-rule:evenodd;clip-rule:evenodd;fill:#f11f43">
        </path>
      </g>
    </g>
    <g id="shape-ebf38975-abd1-803b-8004-87431c9e4d98" style="opacity:1">
      <g class="fills" id="fills-ebf38975-abd1-803b-8004-87431c9e4d98">
        <path d="M2310.192,1056.059C2293.402,1060.177,2277.079,1064.254,2261.224,1068.291C2234.779,1081.257,2207.574,1083.296,2179.610,1074.407C2156.900,1050.297,2133.096,1026.513,2108.199,1003.052C2099.039,989.228,2094.958,974.277,2095.957,958.200C2106.523,969.249,2118.085,979.443,2130.642,988.781C2141.141,990.525,2150.663,989.165,2159.207,984.703C2161.928,987.422,2164.648,990.140,2167.368,992.858C2160.567,994.217,2153.766,995.576,2146.965,996.935C2152.804,998.832,2157.564,1002.230,2161.247,1007.129C2164.537,1019.140,2169.978,1030.012,2177.570,1039.749C2202.081,1063.520,2222.484,1060.801,2238.780,1031.594C2237.568,1008.993,2243.689,989.285,2257.143,972.471C2284.758,970.694,2294.960,956.423,2287.748,929.658C2285.011,926.590,2281.610,925.230,2277.546,925.580C2269.853,932.966,2260.331,937.724,2248.982,939.851C2237.511,942.415,2225.949,944.454,2214.296,945.967C2204.736,945.227,2197.255,941.149,2191.852,933.735C2165.932,947.698,2138.727,949.737,2110.239,939.851C2079.127,911.450,2077.767,881.549,2106.158,850.147C2144.305,838.595,2172.869,850.828,2191.852,886.844C2196.341,888.604,2199.062,886.566,2200.014,880.728C2204.933,865.987,2209.013,851.036,2212.256,835.876C2211.640,812.649,2200.758,805.853,2179.610,815.489C2172.767,823.806,2165.966,831.961,2159.207,839.954C2154.872,836.184,2154.872,832.106,2159.207,827.721C2165.229,818.471,2171.350,808.957,2177.570,799.179C2191.078,781.498,2201.959,782.857,2210.215,803.256C2211.575,808.693,2212.936,814.130,2214.296,819.566C2219.811,811.029,2221.851,801.515,2220.417,791.024C2238.402,791.884,2254.725,797.321,2269.385,807.334C2262.696,813.108,2259.296,819.903,2259.183,827.721C2272.985,820.320,2287.267,818.961,2302.031,823.644C2309.510,838.595,2316.994,853.545,2324.474,868.496C2336.582,880.325,2350.864,888.480,2367.321,892.960C2370.753,904.180,2366.672,913.014,2355.079,919.464C2341.340,922.724,2328.416,927.481,2316.313,933.735C2315.280,947.526,2311.881,960.438,2306.111,972.471C2306.580,980.198,2309.302,986.994,2314.273,992.858C2336.508,993.968,2352.831,984.454,2363.241,964.316C2408.222,938.868,2430.666,951.780,2430.572,1003.052C2410.564,1043.953,2378.596,1057.547,2334.676,1043.826C2325.143,1045.869,2316.982,1049.946,2310.192,1056.059ZZ" style="shape-rendering:geometricPrecision;text-rendering:geometricPrecision;image-rendering:optimizeQuality;fill-rule:evenodd;clip-rule:evenodd;fill:#f4ceb1">
        </path>
      </g>
    </g>
    <g id="shape-ebf38975-abd1-803b-8004-87431c9e4d99" style="opacity:1">
      <g class="fills" id="fills-ebf38975-abd1-803b-8004-87431c9e4d99">
        <path d="M2138.804,823.644C2142.884,823.644,2146.965,823.644,2151.046,823.644C2151.203,828.766,2149.163,832.843,2144.925,835.876C2136.120,833.633,2134.080,829.555,2138.804,823.644ZZ" style="shape-rendering:geometricPrecision;text-rendering:geometricPrecision;image-rendering:optimizeQuality;fill-rule:evenodd;clip-rule:evenodd;fill:#ccd5cf">
        </path>
      </g>
    </g>
    <g id="shape-ebf38975-abd1-803b-8004-87431c9e4d9a" style="opacity:1">
      <g class="fills" id="fills-ebf38975-abd1-803b-8004-87431c9e4d9a">
        <path d="M2195.933,827.721C2204.853,827.764,2208.253,831.842,2206.135,839.954C2203.207,836.077,2199.806,835.398,2195.933,837.915C2190.679,843.662,2185.918,849.778,2181.651,856.263C2180.515,852.529,2178.474,849.811,2175.530,848.108C2178.343,837.143,2185.144,830.347,2195.933,827.721ZZ" style="shape-rendering:geometricPrecision;text-rendering:geometricPrecision;image-rendering:optimizeQuality;fill-rule:evenodd;clip-rule:evenodd;fill:#3c7f72">
        </path>
      </g>
    </g>
    <g id="shape-ebf38975-abd1-803b-8004-87431c9e4d9b" style="opacity:1">
      <g class="fills" id="fills-ebf38975-abd1-803b-8004-87431c9e4d9b">
        <path d="M2195.933,827.721C2185.144,830.347,2178.343,837.143,2175.530,848.108C2171.953,848.642,2169.233,847.283,2167.368,844.031C2172.553,830.822,2181.394,821.308,2193.893,815.489C2206.287,818.831,2206.967,822.909,2195.933,827.721ZZ" style="shape-rendering:geometricPrecision;text-rendering:geometricPrecision;image-rendering:optimizeQuality;fill-rule:evenodd;clip-rule:evenodd;fill:#e6ecf1">
        </path>
      </g>
    </g>
    <g id="shape-ebf38975-abd1-803b-8004-87431c9e4d9c" style="opacity:1">
      <g class="fills" id="fills-ebf38975-abd1-803b-8004-87431c9e4d9c">
        <path d="M2195.933,848.108C2201.140,851.723,2201.140,855.800,2195.933,860.341C2191.598,856.571,2191.598,852.493,2195.933,848.108ZZ" style="shape-rendering:geometricPrecision;text-rendering:geometricPrecision;image-rendering:optimizeQuality;fill-rule:evenodd;clip-rule:evenodd;fill:#e4eceb">
        </path>
      </g>
    </g>
    <g id="shape-ebf38975-abd1-803b-8004-87431c9e4d9d" style="opacity:1">
      <g class="fills" id="fills-ebf38975-abd1-803b-8004-87431c9e4d9d">
        <path d="M2363.241,844.031C2371.651,851.480,2377.090,860.994,2379.563,872.573C2383.183,894.244,2385.905,915.991,2387.725,937.812C2400.775,935.629,2411.658,938.347,2420.370,945.967C2408.312,943.282,2396.070,941.922,2383.644,941.890C2381.514,907.935,2374.715,875.316,2363.241,844.031ZZ" style="shape-rendering:geometricPrecision;text-rendering:geometricPrecision;image-rendering:optimizeQuality;fill-rule:evenodd;clip-rule:evenodd;fill:#f11f43">
        </path>
      </g>
    </g>
    <g id="shape-ebf38975-abd1-803b-8004-87431c9e4d9e" style="opacity:1">
      <g class="fills" id="fills-ebf38975-abd1-803b-8004-87431c9e4d9e">
        <path d="M2440.773,807.334C2444.152,833.786,2446.193,860.969,2446.894,888.883C2453.628,878.257,2459.749,878.257,2465.257,888.883C2457.096,891.601,2448.935,894.319,2440.773,897.038C2440.773,867.137,2440.773,837.235,2440.773,807.334ZZ" style="shape-rendering:geometricPrecision;text-rendering:geometricPrecision;image-rendering:optimizeQuality;fill-rule:evenodd;clip-rule:evenodd;fill:#f11f43">
        </path>
      </g>
    </g>
    <g id="shape-ebf38975-abd1-803b-8004-87431c9e4d9f" style="opacity:1">
      <g class="fills" id="fills-ebf38975-abd1-803b-8004-87431c9e4d9f">
        <path d="M2277.546,925.580C2250.845,931.338,2235.883,921.144,2232.659,894.999C2234.146,877.452,2240.267,861.822,2251.022,848.108C2294.977,825.342,2312.661,838.933,2304.071,888.883C2297.236,903.093,2288.395,915.326,2277.546,925.580ZZ" style="shape-rendering:geometricPrecision;text-rendering:geometricPrecision;image-rendering:optimizeQuality;fill-rule:evenodd;clip-rule:evenodd;fill:#121011">
        </path>
      </g>
    </g>
    <g id="shape-ebf38975-abd1-803b-8004-87431c9e4da0" style="opacity:1">
      <g class="fills" id="fills-ebf38975-abd1-803b-8004-87431c9e4da0">
        <path d="M2293.869,848.108C2297.089,849.262,2299.810,851.300,2302.031,854.225C2300.810,859.608,2300.130,865.725,2299.990,872.573C2289.248,861.595,2279.726,862.954,2271.425,876.651C2267.636,890.005,2269.676,902.237,2277.546,913.348C2274.050,917.120,2269.969,919.839,2265.304,921.503C2247.820,897.557,2250.541,875.131,2273.466,854.225C2279.688,850.112,2286.490,848.073,2293.869,848.108ZZ" style="shape-rendering:geometricPrecision;text-rendering:geometricPrecision;image-rendering:optimizeQuality;fill-rule:evenodd;clip-rule:evenodd;fill:#3c7f72">
        </path>
      </g>
    </g>
    <g id="shape-ebf38975-abd1-803b-8004-87431c9e4da1" style="opacity:1">
      <g class="fills" id="fills-ebf38975-abd1-803b-8004-87431c9e4da1">
        <path d="M2293.869,848.108C2286.490,848.073,2279.688,850.112,2273.466,854.225C2250.541,875.131,2247.820,897.557,2265.304,921.503C2255.498,921.939,2248.017,917.861,2242.861,909.270C2235.378,880.097,2244.220,857.671,2269.385,841.992C2279.544,838.155,2287.705,840.194,2293.869,848.108ZZ" style="shape-rendering:geometricPrecision;text-rendering:geometricPrecision;image-rendering:optimizeQuality;fill-rule:evenodd;clip-rule:evenodd;fill:#ececf0">
        </path>
      </g>
    </g>
    <g id="shape-ebf38975-abd1-803b-8004-87431c9e4da2" style="opacity:1">
      <g class="fills" id="fills-ebf38975-abd1-803b-8004-87431c9e4da2">
        <path d="M2281.627,876.651C2296.550,878.583,2297.230,884.020,2283.667,892.960C2281.668,887.687,2280.988,882.251,2281.627,876.651ZZ" style="shape-rendering:geometricPrecision;text-rendering:geometricPrecision;image-rendering:optimizeQuality;fill-rule:evenodd;clip-rule:evenodd;fill:#d4d0d7">
        </path>
      </g>
    </g>
    <g id="shape-ebf38975-abd1-803b-8004-87431c9e4da3" style="opacity:1">
      <g class="fills" id="fills-ebf38975-abd1-803b-8004-87431c9e4da3">
        <path d="M2334.676,693.165C2338.679,712.041,2339.361,731.069,2336.716,750.250C2334.207,756.839,2330.126,762.276,2324.474,766.559C2321.455,771.654,2322.136,775.731,2326.515,778.792C2333.754,790.817,2341.915,802.370,2350.999,813.450C2352.949,824.785,2357.030,834.978,2363.241,844.031C2374.715,875.316,2381.514,907.935,2383.644,941.890C2396.070,941.922,2408.312,943.282,2420.370,945.967C2435.269,953.999,2443.430,966.231,2444.854,982.664C2449.147,983.274,2453.228,982.594,2457.096,980.626C2464.727,972.309,2472.888,964.834,2481.580,958.200C2482.939,960.918,2484.302,963.636,2485.661,966.355C2476.581,980.171,2464.339,990.365,2448.935,996.935C2445.866,999.671,2444.503,1003.068,2444.854,1007.129C2440.190,1008.793,2436.109,1011.512,2432.612,1015.284C2428.327,1019.071,2428.327,1021.788,2432.612,1023.439C2430.123,1027.072,2428.764,1031.149,2428.531,1035.671C2398.298,1058.949,2364.289,1066.428,2326.515,1058.097C2321.287,1063.842,2317.207,1069.959,2314.273,1076.446C2315.431,1068.638,2314.073,1061.844,2310.192,1056.059C2316.982,1049.946,2325.143,1045.869,2334.676,1043.826C2378.596,1057.547,2410.564,1043.953,2430.572,1003.052C2430.666,951.780,2408.222,938.868,2363.241,964.316C2352.831,984.454,2336.508,993.968,2314.273,992.858C2309.302,986.994,2306.580,980.198,2306.111,972.471C2311.881,960.438,2315.280,947.526,2316.313,933.735C2328.416,927.481,2341.340,922.724,2355.079,919.464C2366.672,913.014,2370.753,904.180,2367.321,892.960C2350.864,888.480,2336.582,880.325,2324.474,868.496C2316.994,853.545,2309.510,838.595,2302.031,823.644C2287.267,818.961,2272.985,820.320,2259.183,827.721C2259.296,819.903,2262.696,813.108,2269.385,807.334C2254.725,797.321,2238.402,791.884,2220.417,791.024C2221.851,801.515,2219.811,811.029,2214.296,819.566C2212.936,814.130,2211.575,808.693,2210.215,803.256C2201.959,782.857,2191.078,781.498,2177.570,799.179C2171.350,808.957,2165.229,818.471,2159.207,827.721C2157.813,824.303,2155.092,822.944,2151.046,823.644C2146.965,823.644,2142.884,823.644,2138.804,823.644C2141.967,815.945,2141.967,807.790,2138.804,799.179C2144.264,805.755,2151.065,807.794,2159.207,805.295C2170.800,798.845,2174.880,790.011,2171.449,778.792C2187.930,752.439,2204.252,752.439,2220.417,778.792C2296.502,810.751,2301.263,801.237,2234.699,750.250C2232.805,747.826,2232.125,745.107,2232.659,742.095C2255.328,753.850,2274.371,770.160,2289.789,791.024C2298.757,793.737,2308.278,796.455,2318.353,799.179C2324.825,805.999,2327.547,814.154,2326.515,823.644C2322.434,823.644,2318.353,823.644,2314.273,823.644C2313.305,828.908,2314.664,832.985,2318.353,835.876C2322.471,848.866,2329.273,860.419,2338.757,870.534C2345.424,872.547,2352.227,873.226,2359.160,872.573C2356.022,847.343,2346.502,825.596,2330.595,807.334C2328.228,798.165,2322.789,791.369,2314.273,786.947C2283.446,751.993,2248.081,723.451,2208.175,701.320C2210.169,695.223,2212.890,689.787,2216.336,685.010C2216.177,692.589,2219.577,698.026,2226.538,701.320C2232.448,689.271,2241.289,681.116,2253.062,676.855C2256.519,670.877,2261.960,667.479,2269.385,666.662C2296.287,663.120,2318.051,671.954,2334.676,693.165ZZ" style="shape-rendering:geometricPrecision;text-rendering:geometricPrecision;image-rendering:optimizeQuality;fill-rule:evenodd;clip-rule:evenodd;fill:#1c0c08">
        </path>
      </g>
    </g>
    <g id="shape-ebf38975-abd1-803b-8004-87431c9e4da4" style="opacity:1">
      <g class="fills" id="fills-ebf38975-abd1-803b-8004-87431c9e4da4">
        <path d="M2330.595,807.334C2346.502,825.596,2356.022,847.343,2359.160,872.573C2352.227,873.226,2345.424,872.547,2338.757,870.534C2329.273,860.419,2322.471,848.866,2318.353,835.876C2319.475,826.327,2322.875,826.327,2328.555,835.876C2330.583,826.458,2331.260,816.944,2330.595,807.334ZZ" style="shape-rendering:geometricPrecision;text-rendering:geometricPrecision;image-rendering:optimizeQuality;fill-rule:evenodd;clip-rule:evenodd;fill:#f11f43">
        </path>
      </g>
    </g>
    <g id="shape-ebf38975-abd1-803b-8004-87431c9e4da5" style="opacity:1">
      <g class="fills" id="fills-ebf38975-abd1-803b-8004-87431c9e4da5">
        <path d="M2314.273,786.947C2322.789,791.369,2328.228,798.165,2330.595,807.334C2331.260,816.944,2330.583,826.458,2328.555,835.876C2322.875,826.327,2319.475,826.327,2318.353,835.876C2314.664,832.985,2313.305,828.908,2314.273,823.644C2318.353,823.644,2322.434,823.644,2326.515,823.644C2327.547,814.154,2324.825,805.999,2318.353,799.179C2308.278,796.455,2298.757,793.737,2289.789,791.024C2298.910,792.226,2307.072,790.867,2314.273,786.947ZZ" style="shape-rendering:geometricPrecision;text-rendering:geometricPrecision;image-rendering:optimizeQuality;fill-rule:evenodd;clip-rule:evenodd;fill:#f11f43">
        </path>
      </g>
    </g>
    <g id="shape-ebf38975-abd1-803b-8004-87431c9e4da6" style="opacity:1">
      <g class="fills" id="fills-ebf38975-abd1-803b-8004-87431c9e4da6">
        <path d="M2297.950,750.250C2283.070,740.802,2269.468,729.928,2257.143,717.630C2265.138,697.188,2271.940,697.188,2277.546,717.630C2282.987,714.911,2288.428,712.193,2293.869,709.475C2297.897,722.801,2299.257,736.393,2297.950,750.250ZZ" style="shape-rendering:geometricPrecision;text-rendering:geometricPrecision;image-rendering:optimizeQuality;fill-rule:evenodd;clip-rule:evenodd;fill:#f4ebe8">
        </path>
      </g>
    </g>
    <g id="shape-ebf38975-abd1-803b-8004-87431c9e4da7" style="opacity:1">
      <g class="fills" id="fills-ebf38975-abd1-803b-8004-87431c9e4da7">
        <path d="M2306.111,758.404C2302.031,757.045,2299.310,754.327,2297.950,750.250C2299.257,736.393,2297.897,722.801,2293.869,709.475C2288.428,712.193,2282.987,714.911,2277.546,717.630C2271.940,697.188,2265.138,697.188,2257.143,717.630C2250.912,717.928,2246.832,715.209,2244.901,709.475C2255.190,700.501,2265.392,690.987,2275.506,680.933C2279.505,687.289,2282.906,694.085,2285.708,701.320C2292.560,696.093,2300.042,692.015,2308.152,689.088C2310.245,711.094,2313.648,732.840,2318.353,754.327C2313.085,753.359,2309.004,754.718,2306.111,758.404ZZ" style="shape-rendering:geometricPrecision;text-rendering:geometricPrecision;image-rendering:optimizeQuality;fill-rule:evenodd;clip-rule:evenodd;fill:#f11f43">
        </path>
      </g>
    </g>
    <g id="shape-ebf38975-abd1-803b-8004-87431c9e4da8" style="opacity:1">
      <g class="fills" id="fills-ebf38975-abd1-803b-8004-87431c9e4da8">
        <path d="M2306.111,758.404C2309.004,754.718,2313.085,753.359,2318.353,754.327C2313.648,732.840,2310.245,711.094,2308.152,689.088C2300.042,692.015,2292.560,696.093,2285.708,701.320C2282.906,694.085,2279.505,687.289,2275.506,680.933C2265.392,690.987,2255.190,700.501,2244.901,709.475C2239.775,709.632,2235.694,707.594,2232.659,703.359C2238.777,693.867,2245.578,685.032,2253.062,676.855C2307.198,665.463,2333.721,687.209,2332.636,742.095C2331.224,751.667,2326.462,759.143,2318.353,764.521C2312.240,766.905,2308.160,764.866,2306.111,758.404ZZ" style="shape-rendering:geometricPrecision;text-rendering:geometricPrecision;image-rendering:optimizeQuality;fill-rule:evenodd;clip-rule:evenodd;fill:#f3ece9">
        </path>
      </g>
    </g>
    <g id="shape-ebf38975-abd1-803b-8004-87431c9e4da9" style="opacity:1">
      <g class="fills" id="fills-ebf38975-abd1-803b-8004-87431c9e4da9">
        <path d="M2367.321,917.425C2374.773,925.397,2376.813,934.911,2373.442,945.967C2361.882,957.520,2350.317,969.073,2338.757,980.626C2332.089,982.638,2325.286,983.318,2318.353,982.664C2318.614,967.497,2320.655,952.546,2324.474,937.812C2339.915,932.925,2354.198,926.129,2367.321,917.425ZZ" style="shape-rendering:geometricPrecision;text-rendering:geometricPrecision;image-rendering:optimizeQuality;fill-rule:evenodd;clip-rule:evenodd;fill:#140d0c;fill-opacity:1">
        </path>
      </g>
    </g>
    <g id="shape-ebf38975-abd1-803b-8004-87431c9e4daa" style="opacity:1">
      <g class="fills" id="fills-ebf38975-abd1-803b-8004-87431c9e4daa">
        <path d="M2383.644,974.509C2415.555,978.520,2415.555,981.919,2383.644,984.703C2382.285,986.062,2380.922,987.422,2379.563,988.781C2384.346,990.487,2388.427,993.206,2391.805,996.935C2373.344,994.364,2361.784,1001.839,2357.120,1019.361C2356.361,998.990,2365.203,984.039,2383.644,974.509ZZ" style="shape-rendering:geometricPrecision;text-rendering:geometricPrecision;image-rendering:optimizeQuality;fill-rule:evenodd;clip-rule:evenodd;fill:#211712">
        </path>
      </g>
    </g>
    <g id="shape-ebf38975-abd1-803b-8004-87431c9e4dab" style="opacity:1">
      <g class="fills" id="fills-ebf38975-abd1-803b-8004-87431c9e4dab">
        <path d="M2224.498,1003.052C2211.713,1006.171,2198.791,1008.889,2185.731,1011.207C2178.680,1011.395,2172.559,1009.357,2167.368,1005.090C2190.095,997.487,2213.218,993.410,2236.740,992.858C2232.371,996.331,2228.290,999.729,2224.498,1003.052ZZ" style="shape-rendering:geometricPrecision;text-rendering:geometricPrecision;image-rendering:optimizeQuality;fill-rule:evenodd;clip-rule:evenodd;fill:#d6d6d4">
        </path>
      </g>
    </g>
    <g id="shape-ebf38975-abd1-803b-8004-87431c9e4dac" style="opacity:1">
      <g class="fills" id="fills-ebf38975-abd1-803b-8004-87431c9e4dac">
        <path d="M2432.612,1023.439C2446.213,1023.439,2459.818,1023.439,2473.419,1023.439C2474.386,1028.703,2473.027,1032.780,2469.338,1035.671C2456.476,1025.310,2442.875,1025.310,2428.531,1035.671C2428.764,1031.149,2430.123,1027.072,2432.612,1023.439ZZ" style="shape-rendering:geometricPrecision;text-rendering:geometricPrecision;image-rendering:optimizeQuality;fill-rule:evenodd;clip-rule:evenodd;fill:#f11f43">
        </path>
      </g>
    </g>
    <g id="shape-ebf38975-abd1-803b-8004-87431c9e4dad" style="opacity:1">
      <g class="fills" id="fills-ebf38975-abd1-803b-8004-87431c9e4dad">
        <path d="M2065.351,913.348C2069.432,913.348,2073.513,913.348,2077.594,913.348C2074.102,970.175,2095.185,1015.027,2140.844,1047.904C2145.840,1063.031,2141.079,1073.906,2126.562,1080.523C2093.287,1035.843,2064.042,988.272,2038.827,937.812C2036.828,932.539,2036.147,927.103,2036.787,921.503C2047.920,922.846,2057.441,920.128,2065.351,913.348ZZ" style="shape-rendering:geometricPrecision;text-rendering:geometricPrecision;image-rendering:optimizeQuality;fill-rule:evenodd;clip-rule:evenodd;fill:#f11f43">
        </path>
      </g>
    </g>
    <g id="shape-ebf38975-abd1-803b-8004-87431c9e4dae">
      <g class="fills" id="fills-ebf38975-abd1-803b-8004-87431c9e4dae">
        <path d="M2228.515,1003.052C2228.536,1003.052,2228.557,1003.052,2228.515,1003.052ZC2228.578,1003.052,2228.578,1003.052,2228.515,1003.052ZC2228.581,1003.078,2228.583,1003.104,2228.586,1003.131C2240.560,1025.498,2233.759,1041.808,2208.175,1051.981C2182.873,1041.963,2181.512,1029.050,2204.094,1013.245C2210.793,1010.787,2217.541,1008.761,2224.337,1007.167C2224.364,1007.160,2224.391,1007.154,2224.418,1007.148C2224.444,1007.142,2224.471,1007.135,2224.498,1007.129C2224.498,1005.770,2224.498,1004.411,2224.498,1003.052M2220.437,1039.715C2220.430,1039.726,2220.424,1039.737,2220.437,1039.715ZC2220.395,1039.762,2220.373,1039.776,2220.352,1039.789M2195.949,1033.665C2195.944,1033.654,2195.938,1033.643,2195.949,1033.665ZC2195.947,1033.607,2195.960,1033.582,2195.974,1033.557M2224.355,1007.188C2224.372,1007.181,2224.389,1007.174,2224.355,1007.188ZC2224.436,1007.155,2224.467,1007.142,2224.498,1007.129" style="fill:#f11f43">
        </path>
      </g>
    </g>
    <g id="shape-ebf38975-abd1-803b-8004-87431c9e4daf" style="opacity:1">
      <g class="fills" id="fills-ebf38975-abd1-803b-8004-87431c9e4daf">
        <path d="M2469.338,1035.671C2459.165,1060.426,2455.084,1086.252,2457.096,1113.143C2426.601,1110.321,2398.037,1115.757,2371.402,1129.453C2367.786,1132.817,2366.428,1136.894,2367.321,1141.685C2372.589,1140.719,2376.670,1142.077,2379.563,1145.763C2379.939,1160.323,2373.140,1165.082,2359.160,1160.034C2344.878,1148.482,2330.595,1136.927,2316.313,1125.375C2314.277,1109.123,2313.595,1092.813,2314.273,1076.446C2317.207,1069.959,2321.287,1063.842,2326.515,1058.097C2364.289,1066.428,2398.298,1058.949,2428.531,1035.671C2442.875,1025.310,2456.476,1025.310,2469.338,1035.671ZZ" style="shape-rendering:geometricPrecision;text-rendering:geometricPrecision;image-rendering:optimizeQuality;fill-rule:evenodd;clip-rule:evenodd;fill:#f11f43">
        </path>
      </g>
    </g>
    <g id="shape-ebf38975-abd1-803b-8004-87431c9e4db0" style="opacity:1">
      <g class="fills" id="fills-ebf38975-abd1-803b-8004-87431c9e4db0">
        <path d="M2244.901,1117.220C2248.216,1107.251,2252.297,1097.738,2257.143,1088.678C2265.484,1086.513,2272.285,1081.755,2277.546,1074.407C2288.225,1071.055,2299.107,1069.017,2310.192,1068.291C2307.453,1100.821,2306.773,1133.440,2308.152,1166.150C2301.698,1186.827,2287.416,1197.701,2265.304,1198.769C2244.231,1190.570,2233.350,1174.937,2232.659,1151.879C2235.647,1140.017,2239.728,1128.462,2244.901,1117.220ZZ" style="shape-rendering:geometricPrecision;text-rendering:geometricPrecision;image-rendering:optimizeQuality;fill-rule:evenodd;clip-rule:evenodd;fill:#3c7f72">
        </path>
      </g>
    </g>
    <g id="shape-ebf38975-abd1-803b-8004-87431c9e4db1" style="opacity:1">
      <g class="fills" id="fills-ebf38975-abd1-803b-8004-87431c9e4db1">
        <path d="M2142.884,1125.375C2140.164,1125.375,2137.444,1125.375,2134.723,1125.375C2127.272,1117.404,2125.232,1107.891,2128.602,1096.833C2135.235,1086.118,2143.396,1076.605,2153.086,1068.291C2161.444,1089.714,2158.043,1108.743,2142.884,1125.375ZZ" style="shape-rendering:geometricPrecision;text-rendering:geometricPrecision;image-rendering:optimizeQuality;fill-rule:evenodd;clip-rule:evenodd;fill:#3c7f72">
        </path>
      </g>
    </g>
    <g id="shape-ebf38975-abd1-803b-8004-87431c9e4db2" style="opacity:1">
      <g class="fills" id="fills-ebf38975-abd1-803b-8004-87431c9e4db2">
        <path d="M2171.449,1084.601C2195.918,1095.471,2220.402,1095.471,2244.901,1084.601C2249.660,1092.205,2248.300,1099.002,2240.820,1104.988C2215.118,1109.049,2189.274,1110.411,2163.288,1109.065C2163.710,1100.083,2166.431,1091.928,2171.449,1084.601ZZ" style="shape-rendering:geometricPrecision;text-rendering:geometricPrecision;image-rendering:optimizeQuality;fill-rule:evenodd;clip-rule:evenodd;fill:#f11f43">
        </path>
      </g>
    </g>
    <g id="shape-ebf38975-abd1-803b-8004-87431c9e4db3" style="opacity:1">
      <g class="fills" id="fills-ebf38975-abd1-803b-8004-87431c9e4db3">
        <path d="M2126.562,1153.917C2120.448,1165.461,2110.926,1172.258,2097.997,1174.305C2095.607,1167.198,2094.247,1159.724,2093.916,1151.879C2091.459,1127.133,2101.660,1116.939,2124.521,1121.298C2126.551,1132.087,2127.231,1142.961,2126.562,1153.917ZZ" style="shape-rendering:geometricPrecision;text-rendering:geometricPrecision;image-rendering:optimizeQuality;fill-rule:evenodd;clip-rule:evenodd;fill:#fd8f35">
        </path>
      </g>
    </g>
    <g id="shape-ebf38975-abd1-803b-8004-87431c9e4db4" style="opacity:1">
      <g class="fills" id="fills-ebf38975-abd1-803b-8004-87431c9e4db4">
        <path d="M2159.207,1121.298C2183.729,1120.621,2208.213,1121.302,2232.659,1123.337C2219.538,1149.930,2222.258,1174.394,2240.820,1196.731C2216.862,1191.589,2192.378,1190.231,2167.368,1192.653C2146.170,1200.229,2129.847,1213.823,2118.400,1233.428C2114.532,1235.397,2110.451,1236.074,2106.158,1235.467C2102.475,1223.679,2101.115,1211.446,2102.078,1198.769C2114.787,1199.202,2125.669,1195.124,2134.723,1186.537C2139.823,1186.223,2143.223,1183.503,2144.925,1178.382C2146.947,1170.337,2147.626,1162.182,2146.965,1153.917C2147.871,1141.669,2151.952,1130.794,2159.207,1121.298ZZ" style="shape-rendering:geometricPrecision;text-rendering:geometricPrecision;image-rendering:optimizeQuality;fill-rule:evenodd;clip-rule:evenodd;fill:#3c7f72">
        </path>
      </g>
    </g>
    <g id="shape-ebf38975-abd1-803b-8004-87431c9e4db5" style="opacity:1">
      <g class="fills" id="fills-ebf38975-abd1-803b-8004-87431c9e4db5">
        <path d="M2134.723,1125.375C2137.444,1125.375,2140.164,1125.375,2142.884,1125.375C2141.654,1135.809,2143.014,1145.326,2146.965,1153.917C2147.626,1162.182,2146.947,1170.337,2144.925,1178.382C2143.223,1183.503,2139.823,1186.223,2134.723,1186.537C2142.063,1177.665,2143.423,1168.148,2138.804,1157.995C2133.100,1167.361,2126.299,1176.193,2118.400,1184.498C2111.599,1187.218,2104.798,1187.218,2097.997,1184.498C2092.800,1180.515,2092.800,1177.114,2097.997,1174.305C2110.926,1172.258,2120.448,1165.461,2126.562,1153.917C2130.262,1145.122,2132.982,1135.610,2134.723,1125.375ZZ" style="shape-rendering:geometricPrecision;text-rendering:geometricPrecision;image-rendering:optimizeQuality;fill-rule:evenodd;clip-rule:evenodd;fill:#3c7f72">
        </path>
      </g>
    </g>
    <g id="shape-ebf38975-abd1-803b-8004-87431c9e4db6" style="opacity:1">
      <g class="fills" id="fills-ebf38975-abd1-803b-8004-87431c9e4db6">
        <path d="M2395.886,1170.227C2390.446,1162.072,2385.003,1153.917,2379.563,1145.763C2376.670,1142.077,2372.589,1140.719,2367.321,1141.685C2366.428,1136.894,2367.786,1132.817,2371.402,1129.453C2398.037,1115.757,2426.601,1110.321,2457.096,1113.143C2455.084,1086.252,2459.165,1060.426,2469.338,1035.671C2473.027,1032.780,2474.386,1028.703,2473.419,1023.439C2459.818,1023.439,2446.213,1023.439,2432.612,1023.439C2428.327,1021.788,2428.327,1019.071,2432.612,1015.284C2436.109,1011.512,2440.190,1008.793,2444.854,1007.129C2452.216,1009.828,2460.377,1011.188,2469.338,1011.207C2510.100,1005.322,2550.907,999.885,2591.758,994.897C2640.788,990.476,2670.030,1012.223,2679.493,1060.136C2680.848,1084.674,2679.489,1109.139,2675.412,1133.530C2663.395,1146.974,2653.870,1161.922,2646.847,1178.382C2637.894,1189.314,2626.334,1195.430,2612.162,1196.731C2590.273,1196.005,2568.507,1196.686,2546.871,1198.769C2515.229,1194.349,2494.826,1176.682,2485.661,1145.763C2475.769,1141.999,2467.608,1135.883,2461.177,1127.414C2440.553,1124.230,2420.150,1124.910,2399.967,1129.453C2395.939,1142.778,2394.580,1156.372,2395.886,1170.227ZZ" style="shape-rendering:geometricPrecision;text-rendering:geometricPrecision;image-rendering:optimizeQuality;fill-rule:evenodd;clip-rule:evenodd;fill:#141211">
        </path>
      </g>
    </g>
    <g id="shape-ebf38975-abd1-803b-8004-87431c9e4db7" style="opacity:1">
      <g class="fills" id="fills-ebf38975-abd1-803b-8004-87431c9e4db7">
        <path d="M2571.355,1003.052C2637.894,994.854,2670.540,1023.394,2669.291,1088.678C2663.803,1085.225,2659.722,1080.470,2657.049,1074.407C2654.327,1071.687,2651.610,1071.687,2648.888,1074.407C2668.381,1096.164,2669.740,1118.590,2652.968,1141.685C2648.206,1134.888,2643.448,1128.095,2638.686,1121.298C2648.484,1169.285,2628.762,1191.030,2579.516,1186.537C2578.876,1180.939,2579.557,1175.499,2581.557,1170.227C2588.461,1169.510,2594.582,1167.471,2599.920,1164.111C2587.833,1153.069,2574.228,1148.311,2559.113,1149.840C2573.465,1157.522,2574.828,1167.035,2563.194,1178.382C2545.451,1189.603,2529.128,1187.565,2514.226,1172.266C2496.838,1148.829,2489.358,1122.325,2491.782,1092.756C2481.233,1140.927,2473.749,1139.569,2469.338,1088.678C2469.097,1057.225,2481.339,1032.079,2506.064,1013.245C2524.896,1007.887,2528.977,1011.964,2518.306,1025.478C2519.665,1026.159,2521.028,1026.835,2522.387,1027.516C2537.991,1017.002,2554.314,1008.847,2571.355,1003.052ZZ" style="shape-rendering:geometricPrecision;text-rendering:geometricPrecision;image-rendering:optimizeQuality;fill-rule:evenodd;clip-rule:evenodd;fill:#f6f6f6">
        </path>
      </g>
    </g>
    <g id="shape-ebf38975-abd1-803b-8004-87431c9e4db8" style="opacity:1">
      <g class="fills" id="fills-ebf38975-abd1-803b-8004-87431c9e4db8">
        <path d="M2555.032,1072.368C2568.894,1073.335,2576.374,1080.132,2577.476,1092.756C2573.195,1096.902,2568.433,1097.583,2563.194,1094.794C2559.260,1087.761,2556.538,1080.283,2555.032,1072.368ZZ" style="shape-rendering:geometricPrecision;text-rendering:geometricPrecision;image-rendering:optimizeQuality;fill-rule:evenodd;clip-rule:evenodd;fill:#0c0c0c">
        </path>
      </g>
    </g>
    <g id="shape-ebf38975-abd1-803b-8004-87431c9e4db9" style="opacity:1">
      <g class="fills" id="fills-ebf38975-abd1-803b-8004-87431c9e4db9">
        <path d="M2563.194,1051.981C2573.183,1048.014,2584.066,1046.656,2595.839,1047.904C2595.839,1051.981,2595.839,1056.059,2595.839,1060.136C2583.919,1061.021,2573.040,1058.305,2563.194,1051.981ZZ" style="shape-rendering:geometricPrecision;text-rendering:geometricPrecision;image-rendering:optimizeQuality;fill-rule:evenodd;clip-rule:evenodd;fill:#0d0d0d">
        </path>
      </g>
    </g>
    <g id="shape-ebf38975-abd1-803b-8004-87431c9e4dba" style="opacity:1">
      <g class="fills" id="fills-ebf38975-abd1-803b-8004-87431c9e4dba">
        <path d="M2579.516,1015.284C2584.956,1015.284,2590.399,1015.284,2595.839,1015.284C2595.839,1019.361,2595.839,1023.439,2595.839,1027.516C2587.567,1028.177,2579.406,1027.496,2571.355,1025.478C2574.950,1022.591,2577.668,1019.192,2579.516,1015.284ZZ" style="shape-rendering:geometricPrecision;text-rendering:geometricPrecision;image-rendering:optimizeQuality;fill-rule:evenodd;clip-rule:evenodd;fill:#111111">
        </path>
      </g>
    </g>
    <g id="shape-ebf38975-abd1-803b-8004-87431c9e4dbb" style="opacity:1">
      <g class="fills" id="fills-ebf38975-abd1-803b-8004-87431c9e4dbb">
        <path d="M2224.498,1394.487C2224.311,1409.717,2217.510,1415.152,2204.094,1410.797C2195.803,1399.103,2188.322,1386.871,2181.651,1374.100C2174.519,1350.394,2166.358,1327.291,2157.167,1304.783C2149.217,1288.013,2137.655,1274.423,2122.481,1264.009C2119.866,1260.005,2117.145,1255.927,2114.320,1251.776C2122.168,1248.482,2130.329,1246.443,2138.804,1245.660C2134.653,1241.383,2133.973,1236.625,2136.763,1231.389C2156.823,1204.335,2183.347,1195.499,2216.336,1204.886C2235.157,1211.569,2252.840,1220.404,2269.385,1231.389C2273.803,1227.862,2274.484,1223.785,2271.425,1219.157C2266.305,1216.258,2261.545,1212.861,2257.143,1208.963C2302.017,1210.814,2322.422,1189.746,2318.353,1145.763C2333.652,1152.829,2347.253,1163.022,2359.160,1176.343C2367.962,1176.661,2376.123,1177.342,2383.644,1178.382C2420.860,1295.960,2378.690,1354.406,2257.143,1353.713C2256.561,1346.528,2257.921,1339.731,2261.224,1333.325C2256.373,1329.537,2250.932,1328.180,2244.901,1329.248C2241.573,1344.118,2235.452,1357.709,2226.538,1370.023C2224.516,1378.067,2223.836,1386.222,2224.498,1394.487ZZ" style="shape-rendering:geometricPrecision;text-rendering:geometricPrecision;image-rendering:optimizeQuality;fill-rule:evenodd;clip-rule:evenodd;fill:#3c7f72">
        </path>
      </g>
    </g>
    <g id="shape-ebf38975-abd1-803b-8004-87431c9e4dbc">
      <g class="fills" id="fills-ebf38975-abd1-803b-8004-87431c9e4dbc">
        <path d="M1983.738,1288.473C2006.307,1255.784,2037.591,1244.233,2077.594,1253.815C2103.096,1262.920,2124.180,1278.549,2140.844,1300.706C2158.340,1342.316,2177.383,1383.091,2197.973,1423.029C2204.755,1446.161,2197.274,1462.471,2175.530,1471.959C2171.359,1459.967,2167.958,1447.735,2165.328,1435.262C2160.149,1423.520,2154.031,1412.651,2146.976,1402.657C2146.972,1402.652,2146.968,1402.647,2146.965,1402.642C2129.842,1381.488,2112.159,1360.420,2093.916,1339.442C2065.769,1314.479,2033.124,1306.325,1995.980,1314.977C1986.313,1317.162,1978.152,1321.921,1971.496,1329.248C1970.136,1327.890,1968.775,1326.528,1967.415,1325.171C1970.228,1317.244,1972.268,1309.089,1973.536,1300.706C1975.068,1294.849,1978.448,1290.780,1983.738,1288.473ZC1983.697,1288.491,1983.717,1288.482,1983.738,1288.473ZC1983.741,1288.500,1983.745,1288.526,1983.738,1288.473ZM1979.668,1306.805C1979.665,1306.811,1979.661,1306.816,1979.668,1306.805ZC1979.678,1306.825,1979.698,1306.827,1979.668,1306.805ZM2040.837,1304.789C2040.847,1304.787,2040.857,1304.785,2040.837,1304.789ZC2040.886,1304.788,2040.904,1304.793,2040.837,1304.789ZC2041.567,1304.964,2042.211,1305.133,2042.854,1305.304C2043.518,1305.481,2044.180,1305.660,2044.841,1305.842C2045.501,1306.024,2046.159,1306.208,2046.817,1306.395C2047.475,1306.582,2048.132,1306.772,2048.787,1306.964C2049.445,1307.157,2050.102,1307.352,2050.758,1307.550C2051.412,1307.748,2052.065,1307.948,2052.717,1308.151C2053.369,1308.355,2054.020,1308.560,2054.671,1308.769C2055.323,1308.978,2055.974,1309.189,2056.624,1309.404C2057.273,1309.617,2057.920,1309.834,2058.567,1310.053C2059.214,1310.272,2059.859,1310.494,2060.504,1310.718C2061.151,1310.943,2061.797,1311.171,2062.441,1311.402C2063.084,1311.631,2063.726,1311.864,2064.367,1312.099C2065.009,1312.334,2065.649,1312.572,2066.288,1312.813C2066.929,1313.054,2067.569,1313.298,2068.208,1313.544C2068.846,1313.790,2069.482,1314.039,2070.118,1314.290C2070.754,1314.541,2071.388,1314.795,2072.022,1315.052C2072.658,1315.309,2073.292,1315.569,2073.926,1315.832M2093.865,1325.144C2093.882,1325.153,2093.899,1325.162,2093.865,1325.144ZC2093.910,1325.189,2093.903,1325.208,2093.865,1325.144ZM2089.847,1331.277C2089.843,1331.280,2089.839,1331.283,2089.847,1331.277ZM2110.929,1349.460C2111.414,1349.950,2111.896,1350.441,2112.375,1350.936M2146.965,1402.641C2146.965,1402.642,2146.965,1402.642,2146.965,1402.641Z" style="fill:#d34a24">
        </path>
      </g>
    </g>
    <g id="shape-ebf38975-abd1-803b-8004-87431c9e4dbd" style="opacity:1">
      <g class="fills" id="fills-ebf38975-abd1-803b-8004-87431c9e4dbd">
        <path d="M2000.061,1317.016C2042.709,1313.517,2077.395,1328.469,2104.118,1361.868C2132.510,1392.771,2153.594,1428.110,2167.368,1467.881C2166.129,1475.796,2162.729,1482.589,2157.167,1488.269C2149.502,1471.168,2144.062,1453.500,2140.844,1435.262C2115.208,1409.150,2090.044,1382.646,2065.351,1355.751C2031.255,1334.777,1999.290,1336.816,1969.456,1361.868C1966.866,1353.162,1968.226,1345.007,1973.536,1337.403C1981.555,1329.044,1990.397,1322.247,2000.061,1317.016ZZ" style="shape-rendering:geometricPrecision;text-rendering:geometricPrecision;image-rendering:optimizeQuality;fill-rule:evenodd;clip-rule:evenodd;fill:#e8b074">
        </path>
      </g>
    </g>
    <g id="shape-ebf38975-abd1-803b-8004-87431c9e4dbe" style="opacity:1">
      <g class="fills" id="fills-ebf38975-abd1-803b-8004-87431c9e4dbe">
        <path d="M2310.192,1056.059C2314.073,1061.844,2315.431,1068.638,2314.273,1076.446C2313.595,1092.813,2314.277,1109.123,2316.313,1125.375C2330.595,1136.927,2344.878,1148.482,2359.160,1160.034C2373.140,1165.082,2379.939,1160.323,2379.563,1145.763C2385.003,1153.917,2390.446,1162.072,2395.886,1170.227C2418.868,1221.330,2417.505,1271.617,2391.805,1321.093C2401.534,1343.013,2416.497,1359.323,2436.693,1370.023C2438.052,1378.177,2439.415,1386.332,2440.773,1394.487C2444.785,1409.973,2446.148,1426.283,2444.854,1443.417C2439.753,1482.487,2417.987,1505.594,2379.563,1512.733C2365.697,1511.429,2352.092,1512.786,2338.757,1516.811C2344.800,1522.699,2343.441,1525.418,2334.676,1524.966C2328.522,1506.474,2323.079,1487.445,2318.353,1467.881C2292.475,1442.018,2267.991,1414.838,2244.901,1386.332C2242.168,1393.635,2239.447,1400.432,2236.740,1406.720C2235.951,1400.253,2234.591,1393.456,2232.659,1386.332C2229.877,1389.362,2227.156,1392.077,2224.498,1394.487C2223.836,1386.222,2224.516,1378.067,2226.538,1370.023C2235.452,1357.709,2241.573,1344.118,2244.901,1329.248C2250.932,1328.180,2256.373,1329.537,2261.224,1333.325C2257.921,1339.731,2256.561,1346.528,2257.143,1353.713C2378.690,1354.406,2420.860,1295.960,2383.644,1178.382C2376.123,1177.342,2367.962,1176.661,2359.160,1176.343C2347.253,1163.022,2333.652,1152.829,2318.353,1145.763C2322.422,1189.746,2302.017,1210.814,2257.143,1208.963C2261.545,1212.861,2266.305,1216.258,2271.425,1219.157C2274.484,1223.785,2273.803,1227.862,2269.385,1231.389C2252.840,1220.404,2235.157,1211.569,2216.336,1204.886C2183.347,1195.499,2156.823,1204.335,2136.763,1231.389C2133.973,1236.625,2134.653,1241.383,2138.804,1245.660C2130.329,1246.443,2122.168,1248.482,2114.320,1251.776C2117.145,1255.927,2119.866,1260.005,2122.481,1264.009C2118.417,1264.359,2115.017,1262.998,2112.279,1259.931C2110.220,1251.703,2108.180,1243.548,2106.158,1235.467C2110.451,1236.074,2114.532,1235.397,2118.400,1233.428C2129.847,1213.823,2146.170,1200.229,2167.368,1192.653C2192.378,1190.231,2216.862,1191.589,2240.820,1196.731C2222.258,1174.394,2219.538,1149.930,2232.659,1123.337C2208.213,1121.302,2183.729,1120.621,2159.207,1121.298C2187.010,1117.257,2215.575,1115.895,2244.901,1117.220C2239.728,1128.462,2235.647,1140.017,2232.659,1151.879C2233.350,1174.937,2244.231,1190.570,2265.304,1198.769C2287.416,1197.701,2301.698,1186.827,2308.152,1166.150C2306.773,1133.440,2307.453,1100.821,2310.192,1068.291C2299.107,1069.017,2288.225,1071.055,2277.546,1074.407C2272.285,1081.755,2265.484,1086.513,2257.143,1088.678C2257.668,1081.681,2259.028,1074.884,2261.224,1068.291C2277.079,1064.254,2293.402,1060.177,2310.192,1056.059ZZ" style="shape-rendering:geometricPrecision;text-rendering:geometricPrecision;image-rendering:optimizeQuality;fill-rule:evenodd;clip-rule:evenodd;fill:#0e0b16">
        </path>
      </g>
    </g>
    <g id="shape-ebf38975-abd1-803b-8004-87431c9e4dbf" style="opacity:1">
      <g class="fills" id="fills-ebf38975-abd1-803b-8004-87431c9e4dbf">
        <path d="M2440.773,1394.487C2442.316,1425.578,2434.832,1454.120,2418.330,1480.114C2399.159,1497.374,2376.715,1504.848,2350.999,1502.540C2338.867,1492.558,2332.746,1479.649,2332.636,1463.804C2302.619,1437.680,2277.455,1407.776,2257.143,1374.100C2302.262,1372.860,2343.747,1360.628,2381.604,1337.403C2391.969,1345.696,2401.489,1355.213,2410.168,1365.945C2412.139,1369.810,2412.817,1373.888,2412.209,1378.177C2425.826,1376.901,2435.350,1382.336,2440.773,1394.487ZZ" style="shape-rendering:geometricPrecision;text-rendering:geometricPrecision;image-rendering:optimizeQuality;fill-rule:evenodd;clip-rule:evenodd;fill:#3c7f72">
        </path>
      </g>
    </g>
    <g id="shape-ebf38975-abd1-803b-8004-87431c9e4dc0" style="opacity:1">
      <g class="fills" id="fills-ebf38975-abd1-803b-8004-87431c9e4dc0">
        <path d="M2297.950,1166.150C2293.869,1167.508,2291.149,1170.227,2289.789,1174.305C2255.825,1185.526,2242.902,1173.294,2251.022,1137.608C2265.985,1121.298,2280.947,1121.298,2295.910,1137.608C2297.936,1147.027,2298.616,1156.539,2297.950,1166.150ZZ" style="shape-rendering:geometricPrecision;text-rendering:geometricPrecision;image-rendering:optimizeQuality;fill-rule:evenodd;clip-rule:evenodd;fill:#fd8f35">
        </path>
      </g>
    </g>
    <g id="shape-ebf38975-abd1-803b-8004-87431c9e4dc1" style="opacity:1">
      <g class="fills" id="fills-ebf38975-abd1-803b-8004-87431c9e4dc1">
        <path d="M2297.950,1166.150C2298.616,1156.539,2297.936,1147.027,2295.910,1137.608C2280.947,1121.298,2265.985,1121.298,2251.022,1137.608C2242.902,1173.294,2255.825,1185.526,2289.789,1174.305C2279.203,1189.012,2266.281,1190.370,2251.022,1178.382C2233.490,1148.254,2240.971,1127.867,2273.466,1117.220C2294.285,1117.991,2303.807,1128.862,2302.031,1149.840C2301.986,1156.140,2300.626,1161.575,2297.950,1166.150ZZ" style="shape-rendering:geometricPrecision;text-rendering:geometricPrecision;image-rendering:optimizeQuality;fill-rule:evenodd;clip-rule:evenodd;fill:#171811">
        </path>
      </g>
    </g>
    <g id="shape-ebf38975-abd1-803b-8004-87431c9e4dc2">
      <g class="fills" id="fills-ebf38975-abd1-803b-8004-87431c9e4dc2">
        <path d="M2028.625,1435.262C1999.229,1425.374,1980.186,1405.664,1971.496,1376.139C1973.711,1364.392,1980.512,1356.237,1991.899,1351.674C2015.952,1347.446,2039.076,1350.161,2061.271,1359.829C2084.263,1386.887,2108.747,1412.709,2134.723,1437.300C2100.082,1440.648,2066.159,1439.983,2032.956,1435.297C2032.889,1435.288,2032.823,1435.278,2032.756,1435.269C2032.738,1435.264,2032.771,1435.266,2032.803,1435.268C2032.872,1435.272,2032.940,1435.277,2033.009,1435.281M2032.706,1435.262C2032.705,1435.262,2032.703,1435.262,2032.706,1435.262ZM2028.641,1435.262C2028.636,1435.262,2028.631,1435.262,2028.641,1435.262ZC2028.625,1435.230,2028.625,1435.198,2028.641,1435.262ZM2028.625,1427.146C2028.625,1426.478,2028.625,1425.810,2028.625,1425.142C2028.625,1424.474,2028.625,1423.805,2028.625,1423.137C2028.625,1423.105,2028.625,1423.073,2028.625,1423.042C2028.625,1423.038,2028.625,1423.033,2028.625,1423.029C2028.601,1423.024,2028.577,1423.018,2028.552,1423.013M1979.670,1378.214C1979.666,1378.202,1979.661,1378.190,1979.670,1378.214ZC1979.660,1378.149,1979.663,1378.121,1979.666,1378.093M2000.024,1365.927C2000.036,1365.933,2000.049,1365.939,2000.024,1365.927ZC2000.079,1365.917,2000.097,1365.889,2000.116,1365.861M2032.668,1361.834C2032.681,1361.845,2032.694,1361.856,2032.668,1361.834ZC2032.728,1361.849,2032.750,1361.831,2032.772,1361.813M2048.968,1361.813C2048.988,1361.831,2049.008,1361.849,2048.968,1361.813ZC2049.016,1361.882,2049.003,1361.896,2048.968,1361.813ZM2036.816,1365.950C2036.806,1365.949,2036.796,1365.947,2036.816,1365.950ZC2036.782,1365.977,2036.778,1366.009,2036.773,1366.042M2026.599,1365.993C2026.594,1365.977,2026.590,1365.961,2026.599,1365.993ZC2026.555,1365.955,2026.525,1365.964,2026.495,1365.974M2020.431,1388.340C2020.442,1388.351,2020.453,1388.361,2020.431,1388.340ZC2020.460,1388.391,2020.456,1388.411,2020.431,1388.340ZM2012.354,1400.568C2012.337,1400.580,2012.320,1400.592,2012.354,1400.568ZC2012.323,1400.608,2012.343,1400.613,2012.354,1400.568ZM2026.534,1406.687C2026.551,1406.698,2026.568,1406.709,2026.534,1406.687ZC2026.593,1406.703,2026.602,1406.687,2026.534,1406.687ZM2036.773,1398.569C2036.777,1398.567,2036.782,1398.566,2036.773,1398.569ZC2036.806,1398.568,2036.824,1398.572,2036.773,1398.569ZM2093.859,1402.645C2093.878,1402.644,2093.897,1402.643,2093.859,1402.645ZC2093.924,1402.662,2093.931,1402.681,2093.859,1402.645ZM2093.927,1431.156C2093.924,1431.166,2093.920,1431.175,2093.927,1431.156ZM2065.416,1435.103C2064.739,1435.154,2064.062,1435.202,2063.385,1435.247C2062.707,1435.292,2062.030,1435.334,2061.352,1435.373C2060.635,1435.414,2059.918,1435.452,2059.201,1435.487" style="fill:#fab267">
        </path>
      </g>
    </g>
    <g id="shape-ebf38975-abd1-803b-8004-87431c9e4dc3" style="opacity:1">
      <g class="fills" id="fills-ebf38975-abd1-803b-8004-87431c9e4dc3">
        <path d="M2044.948,1459.726C2074.145,1455.017,2104.070,1454.336,2134.723,1457.688C2145.717,1468.505,2149.117,1481.419,2144.925,1496.424C2128.510,1506.540,2111.507,1507.221,2093.916,1498.462C2074.921,1488.371,2058.598,1475.457,2044.948,1459.726ZZ" style="shape-rendering:geometricPrecision;text-rendering:geometricPrecision;image-rendering:optimizeQuality;fill-rule:evenodd;clip-rule:evenodd;fill:#e7ab6e">
        </path>
      </g>
    </g>
    <g id="shape-ebf38975-abd1-803b-8004-87431c9e4dc4" style="opacity:1">
      <g class="fills" id="fills-ebf38975-abd1-803b-8004-87431c9e4dc4">
        <path d="M2379.563,1512.733C2417.987,1505.594,2439.753,1482.487,2444.854,1443.417C2448.217,1427.873,2450.257,1411.564,2450.975,1394.487C2461.858,1399.922,2470.020,1408.077,2475.459,1418.952C2474.337,1465.076,2474.337,1511.286,2475.459,1557.585C2468.755,1594.849,2446.311,1613.879,2408.128,1614.670C2359.715,1602.295,2339.989,1571.033,2348.958,1520.888C2359.597,1518.348,2369.798,1515.628,2379.563,1512.733ZZ" style="shape-rendering:geometricPrecision;text-rendering:geometricPrecision;image-rendering:optimizeQuality;fill-rule:evenodd;clip-rule:evenodd;fill:#d34a24">
        </path>
      </g>
    </g>
    <g id="shape-ebf38975-abd1-803b-8004-87431c9e4dc5" style="opacity:1">
      <g class="fills" id="fills-ebf38975-abd1-803b-8004-87431c9e4dc5">
        <path d="M2436.693,1370.023C2454.260,1381.533,2471.942,1393.085,2489.741,1404.681C2497.405,1410.972,2503.526,1418.446,2508.105,1427.107C2510.826,1447.494,2510.826,1467.881,2508.105,1488.269C2506.064,1490.307,2504.024,1492.346,2501.984,1494.385C2514.148,1529.822,2512.108,1564.480,2495.862,1598.360C2477.251,1609.320,2457.529,1618.156,2436.693,1624.863C2363.657,1632.765,2329.649,1599.465,2334.676,1524.966C2343.441,1525.418,2344.800,1522.699,2338.757,1516.811C2352.092,1512.786,2365.697,1511.429,2379.563,1512.733C2369.798,1515.628,2359.597,1518.348,2348.958,1520.888C2339.989,1571.033,2359.715,1602.295,2408.128,1614.670C2446.311,1613.879,2468.755,1594.849,2475.459,1557.585C2474.337,1511.286,2474.337,1465.076,2475.459,1418.952C2470.020,1408.077,2461.858,1399.922,2450.975,1394.487C2450.257,1411.564,2448.217,1427.873,2444.854,1443.417C2446.148,1426.283,2444.785,1409.973,2440.773,1394.487C2439.415,1386.332,2438.052,1378.177,2436.693,1370.023ZZ" style="shape-rendering:geometricPrecision;text-rendering:geometricPrecision;image-rendering:optimizeQuality;fill-rule:evenodd;clip-rule:evenodd;fill:#130705">
        </path>
      </g>
    </g>
    <g id="shape-ebf38975-abd1-803b-8004-87431c9e4dc6">
      <g class="fills" id="fills-ebf38975-abd1-803b-8004-87431c9e4dc6">
        <path d="M2493.822,1480.114C2493.822,1485.548,2493.822,1490.986,2493.822,1496.420C2493.822,1496.421,2493.822,1496.422,2493.822,1496.424C2498.527,1520.150,2499.205,1544.615,2495.862,1569.818C2492.259,1580.427,2486.138,1589.263,2477.499,1596.321C2474.104,1599.126,2471.387,1598.446,2469.338,1594.282C2473.864,1586.596,2477.267,1578.442,2479.540,1569.818C2480.899,1518.169,2482.262,1466.524,2483.620,1414.874C2500.514,1431.853,2505.958,1452.240,2499.943,1476.036C2498.392,1478.286,2496.372,1479.640,2493.822,1480.114ZC2493.865,1480.106,2493.849,1480.109,2493.822,1480.114ZM2493.822,1480.114C2493.825,1480.083,2493.827,1480.053,2493.822,1480.114ZM2489.789,1435.434C2489.773,1435.376,2489.757,1435.319,2489.741,1435.262C2489.740,1435.283,2489.739,1435.304,2489.737,1435.325M2489.606,1437.360C2489.562,1438.038,2489.519,1438.716,2489.475,1439.394C2489.431,1440.075,2489.387,1440.755,2489.343,1441.436M2486.582,1484.194C2486.538,1484.872,2486.494,1485.551,2486.450,1486.229C2486.406,1486.909,2486.362,1487.589,2486.319,1488.270C2486.275,1488.948,2486.231,1489.626,2486.187,1490.304C2486.143,1490.983,2486.100,1491.661,2486.056,1492.339C2486.012,1493.017,2485.968,1493.696,2485.925,1494.374C2485.881,1495.054,2485.837,1495.735,2485.793,1496.415C2485.749,1497.093,2485.705,1497.771,2485.662,1498.450C2485.661,1498.454,2485.661,1498.458,2485.661,1498.462C2485.661,1498.477,2485.662,1498.491,2485.662,1498.505M2493.755,1498.694C2493.775,1498.002,2493.796,1497.305,2493.817,1496.602C2493.818,1496.559,2493.819,1496.517,2493.821,1496.474C2493.821,1496.458,2493.822,1496.441,2493.822,1496.424M2493.832,1480.112C2493.829,1480.113,2493.826,1480.113,2493.832,1480.112Z" style="fill:#e8b074">
        </path>
      </g>
    </g>
    <g id="shape-ebf38975-abd1-803b-8004-8743631d934f" style="fill:#000000" width="345" height="341" rx="0" ry="0">
      <g id="shape-ebf38975-abd1-803b-8004-8743631d9350">
        <g class="fills" id="fills-ebf38975-abd1-803b-8004-8743631d9350">
          <path d="M2026.870,611.695C2025.713,611.695,2024.555,611.695,2023.398,611.695C2023.396,611.695,2023.394,611.695,2023.391,611.695C2020.077,612.412,2016.598,612.847,2012.957,613.000C1999.043,613.580,1985.130,613.580,1971.217,613.000C1966.422,612.358,1961.818,611.355,1957.408,609.987C1957.391,609.982,1957.374,609.977,1957.356,609.971C1939.120,606.529,1924.917,597.249,1914.696,582.116C1914.696,581.827,1914.696,581.536,1914.696,581.246C1908.608,569.216,1906.434,556.456,1908.174,542.968C1924.735,528.239,1943.988,518.964,1965.934,515.141C1965.956,515.138,1965.978,515.134,1966.000,515.130C2001.264,507.992,2034.808,512.880,2066.630,529.792C2066.694,529.826,2066.758,529.860,2066.822,529.894C2066.825,529.895,2066.828,529.897,2066.831,529.898C2066.844,529.905,2066.857,529.912,2066.870,529.919C2066.839,529.916,2066.808,529.912,2066.777,529.908C2072.777,532.372,2077.978,535.835,2082.469,540.306C2082.487,540.323,2082.504,540.341,2082.522,540.358C2082.522,540.358,2082.522,540.359,2082.522,540.359C2083.944,541.445,2084.959,542.895,2085.565,544.708C2086.315,553.193,2085.880,561.602,2084.261,569.937C2078.470,587.476,2066.877,599.510,2049.478,606.040C2042.153,608.726,2034.647,610.606,2026.870,611.695ZC2026.930,611.686,2026.900,611.691,2026.870,611.695ZC2026.886,611.684,2026.903,611.674,2026.870,611.695ZM2055.607,526.461C2055.593,526.454,2055.579,526.447,2055.607,526.461ZC2055.549,526.451,2055.533,526.463,2055.607,526.461ZM2052.948,524.762C2052.951,524.742,2052.954,524.721,2052.948,524.762ZC2052.929,524.699,2052.901,524.699,2052.948,524.762ZM2047.779,523.843C2047.766,523.838,2047.752,523.834,2047.779,523.843ZC2047.717,523.840,2047.695,523.850,2047.673,523.861M2044.282,526.843C2044.275,526.853,2044.268,526.864,2044.282,526.843ZC2044.235,526.878,2044.209,526.881,2044.183,526.885M2039.549,528.149C2039.525,528.159,2039.502,528.169,2039.549,528.149ZC2039.460,528.165,2039.441,528.151,2039.423,528.136C2038.873,527.704,2038.467,527.165,2038.206,526.520C2038.197,526.499,2038.189,526.477,2038.180,526.456C2038.178,526.450,2038.176,526.445,2038.174,526.439C2038.186,526.423,2038.198,526.407,2038.209,526.392M2044.143,522.128C2044.151,522.126,2044.158,522.123,2044.143,522.128ZC2044.198,522.110,2044.229,522.100,2044.261,522.090C2044.234,522.084,2044.207,522.078,2044.143,522.128ZC2043.511,521.923,2042.840,521.781,2042.168,521.647C2041.510,521.515,2040.851,521.390,2040.191,521.272M2033.908,520.359C2033.881,520.356,2033.853,520.353,2033.908,520.359ZC2033.826,520.322,2033.826,520.295,2033.826,520.268M2033.826,517.745C2033.826,517.743,2033.826,517.742,2033.826,517.745ZC2033.801,517.735,2033.776,517.730,2033.826,517.745ZM1995.604,512.523C1995.591,512.522,1995.578,512.521,1995.604,512.523ZC1995.545,512.521,1995.525,512.522,1995.604,512.523ZM1966.029,515.126C1966.020,515.127,1966.010,515.129,1966.029,515.126ZM1957.304,609.955C1957.336,609.957,1957.368,609.958,1957.304,609.955ZM1975.361,611.162C1976.026,611.215,1976.690,611.269,1977.355,611.324C1978.020,611.380,1978.685,611.436,1979.351,611.493C1980.015,611.550,1980.679,611.608,1981.344,611.667C1981.438,611.676,1981.533,611.684,1981.628,611.693C1981.636,611.693,1981.644,611.694,1981.652,611.695C1981.680,611.694,1981.708,611.693,1981.735,611.693M2023.308,611.693C2023.336,611.693,2023.363,611.694,2023.308,611.693ZM1957.356,609.971C1957.339,609.966,1957.322,609.960,1957.356,609.971ZM2033.797,607.795C2033.806,607.790,2033.816,607.785,2033.797,607.795ZC2033.856,607.777,2033.885,607.774,2033.915,607.771M2045.087,606.049C2045.101,606.046,2045.116,606.043,2045.087,606.049ZC2045.139,606.022,2045.149,606.004,2045.087,606.049ZM2047.726,603.437C2047.730,603.435,2047.735,603.433,2047.726,603.437ZC2047.766,603.429,2047.793,603.428,2047.726,603.437ZM2064.236,594.764C2064.244,594.753,2064.253,594.742,2064.236,594.764ZC2064.285,594.723,2064.309,594.714,2064.333,594.706M2071.199,588.676C2071.205,588.664,2071.211,588.653,2071.199,588.676ZC2071.239,588.639,2071.261,588.636,2071.199,588.676ZM2075.133,583.890C2075.132,583.879,2075.131,583.868,2075.133,583.890ZC2075.157,583.841,2075.183,583.826,2075.208,583.811C2075.830,583.451,2076.380,583.056,2076.858,582.628C2077.386,582.155,2077.827,581.641,2078.180,581.086C2078.547,580.510,2078.820,579.889,2078.999,579.224C2079.168,578.595,2079.254,577.927,2079.255,577.219C2079.256,576.593,2079.191,575.936,2079.061,575.247C2079.055,575.217,2079.049,575.187,2079.043,575.157C2079.071,575.157,2079.098,575.157,2079.125,575.157M2081.642,575.157C2081.645,575.157,2081.649,575.157,2081.642,575.157ZC2081.657,575.131,2081.661,575.105,2081.642,575.157ZM2085.123,555.188C2085.126,555.175,2085.128,555.161,2085.123,555.188ZC2085.129,555.128,2085.128,555.109,2085.123,555.188ZM2082.530,540.387C2082.527,540.378,2082.524,540.368,2082.530,540.387Z" style="fill:#f5cd90">
          </path>
        </g>
      </g>
      <g id="shape-ebf38975-abd1-803b-8004-8743631d9351">
        <g class="fills" id="fills-ebf38975-abd1-803b-8004-8743631d9351">
          <path d="M1904.696,559.933C1904.696,559.933,1879.297,556.427,1862.087,528.614C1841.616,495.530,1848.174,468.587,1848.174,468.587C1848.174,468.587,1847.912,439.165,1873.391,395.511C1894.288,359.709,1917.739,349.404,1917.739,349.404C1917.739,349.404,1950.237,318.722,2009.043,324.175C2069.078,329.742,2096.000,365.933,2096.000,365.933C2096.000,365.933,2122.310,387.656,2140.348,442.489C2152.455,479.291,2141.217,503.386,2141.217,503.386C2141.217,503.386,2143.407,515.798,2123.826,537.314C2108.044,554.655,2088.174,561.672,2088.174,561.672L2086.435,540.794C2086.435,540.794,2057.159,509.475,1998.609,509.475C1937.159,509.475,1906.435,540.794,1906.435,540.794L1904.696,559.933ZM1862.087,528.614" style="fill:#fd8f35;fill-opacity:1">
          </path>
        </g>
      </g>
      <g id="shape-ebf38975-abd1-803b-8004-8743631d9353" style="opacity:1">
        <g class="fills" id="fills-ebf38975-abd1-803b-8004-8743631d9353">
          <path d="M2113.826,391.596C2114.116,391.596,2114.406,391.596,2114.696,391.596C2137.636,425.406,2145.751,462.524,2139.043,502.951C2134.435,499.790,2130.377,496.020,2126.870,491.641C2121.350,482.345,2117.293,472.485,2114.696,462.063C2110.453,438.620,2110.163,415.131,2113.826,391.596ZZ" style="shape-rendering:geometricPrecision;text-rendering:geometricPrecision;image-rendering:optimizeQuality;fill-rule:evenodd;clip-rule:evenodd;fill:#f11f43;fill-opacity:1">
          </path>
        </g>
      </g>
      <g id="shape-ebf38975-abd1-803b-8004-8743631d9354" style="opacity:1">
        <g class="fills" id="fills-ebf38975-abd1-803b-8004-8743631d9354">
          <path d="M1877.304,394.206C1881.987,409.188,1884.016,424.557,1883.391,440.314C1881.278,452.236,1877.800,463.835,1872.957,475.112C1871.300,477.551,1869.851,480.161,1868.609,482.942C1864.223,489.960,1859.006,496.341,1852.957,502.081C1846.003,462.639,1854.118,426.681,1877.304,394.206ZZ" style="shape-rendering:geometricPrecision;text-rendering:geometricPrecision;image-rendering:optimizeQuality;fill-rule:evenodd;clip-rule:evenodd;fill:#f11f43;fill-opacity:1">
          </path>
        </g>
      </g>
      <g id="shape-ebf38975-abd1-803b-8004-8743631d9355">
        <g class="fills" id="fills-ebf38975-abd1-803b-8004-8743631d9355">
          <path d="M1958.609,529.931C1958.609,529.931,1961.113,525.134,1966.217,525.134C1971.257,525.134,1973.826,529.931,1973.826,529.931L1973.826,571.045C1973.826,571.045,1971.267,575.157,1966.217,575.157C1961.122,575.157,1958.609,571.045,1958.609,571.045L1958.609,529.931ZM1966.217,551.859" style="fill:#140d0c;fill-opacity:1">
          </path>
        </g>
      </g>
      <g id="shape-ebf38975-abd1-803b-8004-8743631d9356">
        <g class="fills" id="fills-ebf38975-abd1-803b-8004-8743631d9356">
          <path d="M1959.913,531.319C1959.913,531.319,1961.988,527.309,1966.217,527.309C1970.393,527.309,1972.522,531.319,1972.522,531.319L1972.522,546.448C1972.522,546.448,1970.401,548.623,1966.217,548.623C1961.996,548.623,1959.913,546.448,1959.913,546.448L1959.913,531.319ZM1966.217,539.709" style="fill:#ffffff;fill-opacity:1">
          </path>
        </g>
      </g>
      <g id="shape-ebf38975-abd1-803b-8004-8743631d9357">
        <g class="fills" id="fills-ebf38975-abd1-803b-8004-8743631d9357">
          <path d="M2019.913,530.366C2019.913,530.366,2022.417,525.569,2027.522,525.569C2032.562,525.569,2035.130,530.366,2035.130,530.366L2035.130,571.480C2035.130,571.480,2032.571,575.592,2027.522,575.592C2022.426,575.592,2019.913,571.480,2019.913,571.480L2019.913,530.366ZM2027.522,552.294" style="fill:#140d0c;fill-opacity:1">
          </path>
        </g>
      </g>
      <g id="shape-ebf38975-abd1-803b-8004-8743631d9358">
        <g class="fills" id="fills-ebf38975-abd1-803b-8004-8743631d9358">
          <path d="M2021.217,531.754C2021.217,531.754,2023.292,527.744,2027.522,527.744C2031.698,527.744,2033.826,531.754,2033.826,531.754L2033.826,546.883C2033.826,546.883,2031.706,549.058,2027.522,549.058C2023.300,549.058,2021.217,546.883,2021.217,546.883L2021.217,531.754ZM2027.522,540.144" style="fill:#ffffff;fill-opacity:1">
          </path>
        </g>
      </g>
      <g id="shape-ebf38975-abd1-803b-8004-8743631d9359">
        <g class="fills" id="fills-ebf38975-abd1-803b-8004-8743631d9359">
          <ellipse cx="1999.0434782608697" cy="409.86540760269276" rx="70.86956521739125" ry="71.77124878437786" transform="matrix(1.000000, 0.000000, 0.000000, 1.000000, 0.000000, 0.000000)" style="fill:#f11f43;fill-opacity:1">
          </ellipse>
        </g>
      </g>
      <g id="shape-ebf38975-abd1-803b-8004-8743631d9352">
        <g class="fills" id="fills-ebf38975-abd1-803b-8004-8743631d9352">
          <path d="M2141.658,503.020C2141.656,502.997,2141.654,502.974,2141.658,503.020ZC2141.462,502.951,2141.272,502.951,2141.081,502.951C2140.405,502.951,2139.728,502.951,2139.051,502.951C2139.049,502.951,2139.046,502.951,2139.043,502.951C2145.748,462.544,2137.644,425.443,2114.730,391.647C2114.719,391.630,2114.707,391.613,2114.696,391.596C2114.696,391.596,2113.310,389.398,2112.087,388.986C2112.150,387.658,2111.570,386.788,2110.348,386.377C2107.232,381.228,2103.464,376.588,2099.043,372.457C2098.325,370.922,2097.166,369.763,2095.565,368.978C2091.637,364.612,2087.578,360.408,2083.391,356.363C2079.645,354.586,2076.167,352.411,2072.957,349.839C2072.667,349.839,2072.377,349.839,2072.087,349.839C2069.932,347.835,2067.613,345.951,2065.130,344.184C2061.427,342.507,2052.189,338.751,2046.931,335.952C2046.911,335.941,2046.891,335.931,2046.871,335.920C2046.870,335.920,2046.870,335.919,2046.870,335.919C2046.580,335.919,2046.290,335.919,2046.000,335.919C2044.084,335.829,2042.345,335.249,2040.783,334.179C2022.766,327.658,2003.965,325.046,1984.379,326.342C1984.359,326.343,1984.339,326.345,1984.320,326.346C1984.300,326.347,1984.280,326.348,1984.261,326.350C1984.278,326.345,1984.295,326.340,1984.313,326.334C1983.395,326.350,1982.529,326.350,1981.662,326.350C1981.659,326.350,1981.656,326.350,1981.652,326.350C1978.140,327.059,1974.662,327.929,1971.217,328.960C1963.174,330.099,1955.638,332.418,1948.609,335.919C1946.869,335.934,1945.182,336.206,1943.549,336.737C1943.523,336.746,1943.496,336.754,1943.470,336.763C1943.444,336.772,1943.418,336.780,1943.391,336.789C1939.719,338.496,1936.241,340.526,1932.957,342.879C1927.217,345.461,1921.710,348.506,1916.435,352.013C1914.229,353.792,1912.215,355.662,1910.391,357.622C1910.377,357.637,1910.363,357.652,1910.348,357.667C1910.348,357.668,1910.348,357.668,1910.348,357.668C1908.357,358.530,1906.908,359.980,1906.000,362.018C1900.743,365.086,1896.396,369.146,1892.957,374.197C1891.507,375.067,1890.348,376.227,1889.478,377.677C1886.717,381.456,1883.557,384.911,1879.997,388.043C1879.983,388.055,1879.969,388.067,1879.955,388.080C1879.941,388.092,1879.927,388.104,1879.913,388.117C1878.337,389.822,1877.468,391.852,1877.304,394.206C1854.118,426.681,1846.003,462.639,1852.957,502.081C1852.724,503.472,1853.013,504.631,1853.826,505.560C1853.826,506.123,1853.826,506.684,1853.826,507.246C1853.826,507.264,1853.826,507.282,1853.826,507.300C1853.826,507.300,1853.826,507.300,1853.826,507.300C1857.875,521.209,1865.411,532.808,1876.435,542.098C1879.411,546.050,1883.180,548.949,1887.739,550.798C1890.201,552.466,1892.810,553.915,1895.565,555.148C1897.596,557.466,1900.205,558.626,1903.391,558.628C1903.134,552.461,1903.424,546.372,1904.261,540.359C1908.105,537.566,1911.583,534.376,1914.696,530.789C1923.986,525.128,1933.551,520.198,1943.391,516.000C1952.611,513.115,1961.886,510.360,1971.217,508.605C1974.237,507.742,1974.689,507.735,1978.093,507.310C1986.685,506.351,1995.059,506.348,2003.295,507.289C2003.327,507.293,2003.359,507.297,2003.391,507.300C2008.906,507.823,2014.414,508.403,2019.913,509.040C2027.943,510.756,2036.060,512.496,2044.261,514.260C2050.800,518.150,2057.757,521.340,2065.130,523.829C2069.464,526.578,2074.103,528.898,2079.043,530.789C2082.450,533.963,2085.928,537.153,2089.478,540.359C2090.115,546.427,2090.404,552.517,2090.348,558.628C2093.323,558.612,2095.642,557.452,2097.304,555.148C2100.633,553.339,2104.111,551.745,2107.739,550.363C2114.257,544.712,2120.490,538.767,2126.435,532.529C2129.695,527.437,2132.717,522.259,2135.500,516.994C2135.511,516.973,2135.522,516.953,2135.532,516.932C2135.543,516.911,2135.554,516.891,2135.565,516.870C2137.230,512.381,2138.387,507.760,2139.036,503.006C2139.038,502.988,2139.041,502.969,2139.043,502.951M1964.261,326.350C1972.335,324.135,1980.450,322.685,1988.609,322.000L1988.609,322.000C1994.116,322.000,1999.623,322.000,2005.130,322.000C2049.055,325.998,2084.405,345.410,2111.177,380.235C2111.189,380.250,2111.201,380.265,2111.213,380.281C2111.214,380.283,2111.216,380.285,2111.217,380.287C2132.055,407.152,2143.649,437.600,2146.000,471.632C2146.000,477.142,2146.000,482.652,2146.000,488.161C2145.087,494.783,2143.783,501.452,2142.087,508.170C2140.832,513.544,2138.682,518.439,2135.637,522.855C2135.625,522.873,2135.613,522.890,2135.601,522.907C2135.589,522.925,2135.577,522.942,2135.565,522.959C2128.381,537.671,2117.397,548.676,2102.611,555.974C2102.581,555.989,2102.552,556.003,2102.522,556.018C2102.522,556.018,2102.522,556.018,2102.522,556.018C2098.518,558.314,2094.460,560.634,2090.348,562.977C2086.403,585.339,2073.938,600.853,2052.957,609.520C2033.949,616.074,2014.383,618.829,1994.261,617.785C1980.579,618.512,1967.101,617.207,1953.826,613.870C1950.084,613.089,1946.631,611.798,1943.466,609.998C1943.441,609.983,1943.416,609.969,1943.391,609.955C1925.167,603.877,1913.005,591.735,1906.906,573.526C1906.900,573.508,1906.894,573.490,1906.888,573.472C1906.882,573.453,1906.876,573.435,1906.870,573.417C1906.882,573.440,1906.895,573.463,1906.908,573.486C1905.362,569.629,1904.203,566.004,1903.391,562.542C1880.569,554.051,1864.057,538.848,1853.857,516.936C1853.846,516.914,1853.836,516.892,1853.826,516.870C1849.561,507.131,1846.952,496.982,1846.000,486.421C1846.000,480.912,1846.000,475.402,1846.000,469.892C1848.983,435.794,1861.425,405.372,1883.326,378.627C1883.336,378.614,1883.347,378.601,1883.358,378.587C1883.369,378.574,1883.380,378.560,1883.391,378.547C1883.384,378.572,1883.377,378.598,1883.370,378.623C1883.391,377.976,1883.672,377.686,1884.234,377.677C1884.243,377.677,1884.252,377.677,1884.261,377.677C1884.287,377.675,1884.313,377.673,1884.339,377.671C1905.008,352.081,1931.353,334.980,1963.295,326.376C1963.326,326.367,1963.357,326.359,1963.388,326.351C1963.389,326.350,1963.390,326.350,1963.391,326.350M2084.261,569.937C2085.880,561.602,2086.315,553.193,2085.565,544.708C2084.959,542.895,2083.944,541.445,2082.522,540.359C2078.018,535.862,2072.801,532.382,2066.870,529.919C2034.976,512.905,2001.352,507.975,1966.000,515.130C1944.027,518.946,1924.751,528.224,1908.174,542.968C1906.437,556.429,1908.599,569.165,1914.659,581.174C1914.671,581.198,1914.683,581.222,1914.696,581.246C1914.696,581.527,1914.696,581.809,1914.696,582.089C1914.696,582.098,1914.696,582.107,1914.696,582.116C1924.917,597.249,1939.120,606.529,1957.304,609.955C1961.746,611.339,1966.384,612.353,1971.217,613.000C1985.130,613.580,1999.043,613.580,2012.957,613.000C2016.598,612.847,2020.077,612.412,2023.391,611.695C2024.550,611.695,2025.710,611.695,2026.870,611.695C2034.588,610.620,2042.124,608.736,2049.478,606.040C2066.859,599.517,2078.447,587.500,2084.261,569.937ZC2084.249,569.972,2084.255,569.955,2084.261,569.937ZM1998.159,324.609C1998.164,324.610,1998.169,324.610,1998.159,324.609ZM2042.436,332.413C2042.464,332.422,2042.493,332.431,2042.436,332.413ZC2042.548,332.454,2042.575,332.469,2042.601,332.483M2046.828,335.871C2046.837,335.882,2046.846,335.892,2046.828,335.871ZC2046.860,335.908,2046.865,335.914,2046.828,335.871ZM1886.380,378.487C1886.398,378.507,1886.417,378.527,1886.380,378.487ZC1886.439,378.529,1886.444,378.511,1886.380,378.487ZM1887.298,375.094C1887.300,375.085,1887.302,375.076,1887.298,375.094ZC1887.318,375.058,1887.333,375.048,1887.298,375.094ZM1892.911,371.613C1892.926,371.604,1892.941,371.596,1892.911,371.613ZC1892.967,371.571,1892.978,371.554,1892.988,371.538M1894.259,368.122C1894.259,368.117,1894.260,368.112,1894.259,368.122ZC1894.274,368.095,1894.287,368.082,1894.259,368.122ZM1905.516,360.301C1905.532,360.293,1905.549,360.286,1905.516,360.301ZC1905.582,360.253,1905.598,360.227,1905.613,360.202C1906.062,359.458,1905.949,358.798,1905.276,358.220C1905.242,358.191,1905.206,358.161,1905.169,358.132C1905.156,358.123,1905.143,358.113,1905.130,358.103C1905.157,358.096,1905.184,358.090,1905.210,358.083M1910.307,357.665C1910.320,357.666,1910.334,357.667,1910.307,357.665ZM2135.565,516.870C2135.579,516.846,2135.594,516.822,2135.565,516.870ZM2141.195,507.339C2141.202,507.326,2141.210,507.313,2141.195,507.339ZC2141.224,507.278,2141.231,507.257,2141.237,507.235M2111.273,380.469C2111.255,380.410,2111.237,380.351,2111.219,380.293C2111.219,380.291,2111.218,380.289,2111.217,380.287M1879.946,388.044C1879.935,388.068,1879.924,388.092,1879.946,388.044ZM1978.093,507.310C1978.120,507.307,1978.147,507.304,1978.093,507.310ZM2003.293,507.305C2003.325,507.303,2003.357,507.302,2003.293,507.305ZC2003.390,507.300,2003.391,507.300,2003.293,507.305ZM2135.565,516.870C2135.565,516.885,2135.565,516.901,2135.565,516.870ZM2135.565,520.944C2135.565,521.585,2135.565,522.225,2135.565,522.865C2135.565,522.896,2135.565,522.928,2135.565,522.959M1853.826,516.870C1853.826,516.845,1853.826,516.820,1853.826,516.870ZM1853.826,507.375C1853.826,507.350,1853.826,507.325,1853.826,507.375ZM1912.423,581.984C1912.439,582.006,1912.455,582.028,1912.423,581.984ZC1912.488,582.072,1912.505,582.094,1912.522,582.116C1912.540,582.096,1912.558,582.076,1912.576,582.057M1914.655,581.243C1914.669,581.244,1914.682,581.245,1914.655,581.243ZM1933.773,603.723C1933.124,603.246,1932.544,602.812,1932.092,602.466M1943.391,609.955C1943.419,609.959,1943.448,609.963,1943.391,609.955ZM1945.961,609.539C1945.974,609.533,1945.987,609.527,1945.961,609.539ZC1945.973,609.514,1945.945,609.508,1945.961,609.539ZM1931.701,602.164C1931.685,602.151,1931.668,602.138,1931.701,602.164ZM1930.790,602.989C1930.787,602.991,1930.785,602.993,1930.790,602.989ZC1930.771,602.978,1930.760,602.961,1930.790,602.989ZM1925.184,597.806C1925.166,597.796,1925.148,597.786,1925.184,597.806ZC1925.136,597.760,1925.142,597.744,1925.184,597.806ZC1925.327,597.247,1925.605,596.833,1925.981,596.488C1925.988,596.482,1925.994,596.476,1926.000,596.471C1925.985,596.463,1925.970,596.456,1925.954,596.448M1919.962,594.307C1919.946,594.303,1919.929,594.299,1919.962,594.307ZC1919.911,594.268,1919.908,594.241,1919.905,594.213M1918.642,589.155C1918.631,589.129,1918.620,589.102,1918.642,589.155ZC1918.591,589.094,1918.573,589.112,1918.642,589.155ZC1918.285,589.400,1918.016,589.670,1917.746,589.939C1917.744,589.941,1917.741,589.944,1917.739,589.946C1917.728,589.929,1917.717,589.913,1917.706,589.896M1912.998,583.901C1912.984,583.886,1912.970,583.871,1912.998,583.901ZC1912.966,583.829,1912.976,583.803,1912.985,583.776M1914.617,582.143C1914.643,582.134,1914.669,582.125,1914.617,582.143ZM2084.261,569.937C2084.273,569.952,2084.285,569.966,2084.261,569.937ZM2086.419,569.959C2086.424,569.952,2086.430,569.944,2086.419,569.959ZC2086.441,569.916,2086.448,569.896,2086.419,569.959ZM2086.017,566.052C2086.011,566.042,2086.006,566.032,2086.017,566.052ZC2086.015,565.998,2086.031,565.975,2086.046,565.951M2088.600,561.257C2088.603,561.250,2088.606,561.244,2088.600,561.257ZC2088.627,561.231,2088.645,561.224,2088.600,561.257ZM2102.508,556.023C2102.513,556.021,2102.517,556.019,2102.508,556.023ZM1964.257,326.350C1964.259,326.350,1964.260,326.350,1964.257,326.350ZC1964.282,326.352,1964.304,326.354,1964.257,326.350ZM1981.581,326.356C1981.605,326.354,1981.628,326.352,1981.581,326.356ZM1943.391,336.789C1943.410,336.777,1943.429,336.764,1943.391,336.789ZM1951.185,332.455C1951.196,332.450,1951.207,332.445,1951.185,332.455ZC1951.248,332.426,1951.278,332.413,1951.308,332.401C1951.944,332.130,1952.588,331.919,1953.241,331.767C1953.893,331.615,1954.554,331.522,1955.223,331.488C1955.892,331.454,1956.569,331.479,1957.255,331.563C1957.271,331.565,1957.288,331.567,1957.304,331.569C1957.304,331.543,1957.304,331.516,1957.304,331.489M1957.304,329.000C1957.304,328.987,1957.304,328.973,1957.304,329.000ZC1957.327,328.962,1957.350,328.964,1957.304,329.000ZM1961.619,328.535C1961.630,328.531,1961.641,328.528,1961.619,328.535ZC1961.669,328.519,1961.686,328.513,1961.619,328.535ZM1963.390,326.375C1963.390,326.367,1963.391,326.358,1963.390,326.375Z" style="fill:#140d0c;fill-opacity:1">
          </path>
        </g>
        <g id="strokes-ebf38975-abd1-803b-8004-8743631d9352" class="strokes">
          <g class="stroke-shape">
            <path d="M2141.658,503.020C2141.656,502.997,2141.654,502.974,2141.658,503.020ZC2141.462,502.951,2141.272,502.951,2141.081,502.951C2140.405,502.951,2139.728,502.951,2139.051,502.951C2139.049,502.951,2139.046,502.951,2139.043,502.951C2145.748,462.544,2137.644,425.443,2114.730,391.647C2114.719,391.630,2114.707,391.613,2114.696,391.596C2114.696,391.596,2113.310,389.398,2112.087,388.986C2112.150,387.658,2111.570,386.788,2110.348,386.377C2107.232,381.228,2103.464,376.588,2099.043,372.457C2098.325,370.922,2097.166,369.763,2095.565,368.978C2091.637,364.612,2087.578,360.408,2083.391,356.363C2079.645,354.586,2076.167,352.411,2072.957,349.839C2072.667,349.839,2072.377,349.839,2072.087,349.839C2069.932,347.835,2067.613,345.951,2065.130,344.184C2061.427,342.507,2052.189,338.751,2046.931,335.952C2046.911,335.941,2046.891,335.931,2046.871,335.920C2046.870,335.920,2046.870,335.919,2046.870,335.919C2046.580,335.919,2046.290,335.919,2046.000,335.919C2044.084,335.829,2042.345,335.249,2040.783,334.179C2022.766,327.658,2003.965,325.046,1984.379,326.342C1984.359,326.343,1984.339,326.345,1984.320,326.346C1984.300,326.347,1984.280,326.348,1984.261,326.350C1984.278,326.345,1984.295,326.340,1984.313,326.334C1983.395,326.350,1982.529,326.350,1981.662,326.350C1981.659,326.350,1981.656,326.350,1981.652,326.350C1978.140,327.059,1974.662,327.929,1971.217,328.960C1963.174,330.099,1955.638,332.418,1948.609,335.919C1946.869,335.934,1945.182,336.206,1943.549,336.737C1943.523,336.746,1943.496,336.754,1943.470,336.763C1943.444,336.772,1943.418,336.780,1943.391,336.789C1939.719,338.496,1936.241,340.526,1932.957,342.879C1927.217,345.461,1921.710,348.506,1916.435,352.013C1914.229,353.792,1912.215,355.662,1910.391,357.622C1910.377,357.637,1910.363,357.652,1910.348,357.667C1910.348,357.668,1910.348,357.668,1910.348,357.668C1908.357,358.530,1906.908,359.980,1906.000,362.018C1900.743,365.086,1896.396,369.146,1892.957,374.197C1891.507,375.067,1890.348,376.227,1889.478,377.677C1886.717,381.456,1883.557,384.911,1879.997,388.043C1879.983,388.055,1879.969,388.067,1879.955,388.080C1879.941,388.092,1879.927,388.104,1879.913,388.117C1878.337,389.822,1877.468,391.852,1877.304,394.206C1854.118,426.681,1846.003,462.639,1852.957,502.081C1852.724,503.472,1853.013,504.631,1853.826,505.560C1853.826,506.123,1853.826,506.684,1853.826,507.246C1853.826,507.264,1853.826,507.282,1853.826,507.300C1853.826,507.300,1853.826,507.300,1853.826,507.300C1857.875,521.209,1865.411,532.808,1876.435,542.098C1879.411,546.050,1883.180,548.949,1887.739,550.798C1890.201,552.466,1892.810,553.915,1895.565,555.148C1897.596,557.466,1900.205,558.626,1903.391,558.628C1903.134,552.461,1903.424,546.372,1904.261,540.359C1908.105,537.566,1911.583,534.376,1914.696,530.789C1923.986,525.128,1933.551,520.198,1943.391,516.000C1952.611,513.115,1961.886,510.360,1971.217,508.605C1974.237,507.742,1974.689,507.735,1978.093,507.310C1986.685,506.351,1995.059,506.348,2003.295,507.289C2003.327,507.293,2003.359,507.297,2003.391,507.300C2008.906,507.823,2014.414,508.403,2019.913,509.040C2027.943,510.756,2036.060,512.496,2044.261,514.260C2050.800,518.150,2057.757,521.340,2065.130,523.829C2069.464,526.578,2074.103,528.898,2079.043,530.789C2082.450,533.963,2085.928,537.153,2089.478,540.359C2090.115,546.427,2090.404,552.517,2090.348,558.628C2093.323,558.612,2095.642,557.452,2097.304,555.148C2100.633,553.339,2104.111,551.745,2107.739,550.363C2114.257,544.712,2120.490,538.767,2126.435,532.529C2129.695,527.437,2132.717,522.259,2135.500,516.994C2135.511,516.973,2135.522,516.953,2135.532,516.932C2135.543,516.911,2135.554,516.891,2135.565,516.870C2137.230,512.381,2138.387,507.760,2139.036,503.006C2139.038,502.988,2139.041,502.969,2139.043,502.951M1964.261,326.350C1972.335,324.135,1980.450,322.685,1988.609,322.000L1988.609,322.000C1994.116,322.000,1999.623,322.000,2005.130,322.000C2049.055,325.998,2084.405,345.410,2111.177,380.235C2111.189,380.250,2111.201,380.265,2111.213,380.281C2111.214,380.283,2111.216,380.285,2111.217,380.287C2132.055,407.152,2143.649,437.600,2146.000,471.632C2146.000,477.142,2146.000,482.652,2146.000,488.161C2145.087,494.783,2143.783,501.452,2142.087,508.170C2140.832,513.544,2138.682,518.439,2135.637,522.855C2135.625,522.873,2135.613,522.890,2135.601,522.907C2135.589,522.925,2135.577,522.942,2135.565,522.959C2128.381,537.671,2117.397,548.676,2102.611,555.974C2102.581,555.989,2102.552,556.003,2102.522,556.018C2102.522,556.018,2102.522,556.018,2102.522,556.018C2098.518,558.314,2094.460,560.634,2090.348,562.977C2086.403,585.339,2073.938,600.853,2052.957,609.520C2033.949,616.074,2014.383,618.829,1994.261,617.785C1980.579,618.512,1967.101,617.207,1953.826,613.870C1950.084,613.089,1946.631,611.798,1943.466,609.998C1943.441,609.983,1943.416,609.969,1943.391,609.955C1925.167,603.877,1913.005,591.735,1906.906,573.526C1906.900,573.508,1906.894,573.490,1906.888,573.472C1906.882,573.453,1906.876,573.435,1906.870,573.417C1906.882,573.440,1906.895,573.463,1906.908,573.486C1905.362,569.629,1904.203,566.004,1903.391,562.542C1880.569,554.051,1864.057,538.848,1853.857,516.936C1853.846,516.914,1853.836,516.892,1853.826,516.870C1849.561,507.131,1846.952,496.982,1846.000,486.421C1846.000,480.912,1846.000,475.402,1846.000,469.892C1848.983,435.794,1861.425,405.372,1883.326,378.627C1883.336,378.614,1883.347,378.601,1883.358,378.587C1883.369,378.574,1883.380,378.560,1883.391,378.547C1883.384,378.572,1883.377,378.598,1883.370,378.623C1883.391,377.976,1883.672,377.686,1884.234,377.677C1884.243,377.677,1884.252,377.677,1884.261,377.677C1884.287,377.675,1884.313,377.673,1884.339,377.671C1905.008,352.081,1931.353,334.980,1963.295,326.376C1963.326,326.367,1963.357,326.359,1963.388,326.351C1963.389,326.350,1963.390,326.350,1963.391,326.350M2084.261,569.937C2085.880,561.602,2086.315,553.193,2085.565,544.708C2084.959,542.895,2083.944,541.445,2082.522,540.359C2078.018,535.862,2072.801,532.382,2066.870,529.919C2034.976,512.905,2001.352,507.975,1966.000,515.130C1944.027,518.946,1924.751,528.224,1908.174,542.968C1906.437,556.429,1908.599,569.165,1914.659,581.174C1914.671,581.198,1914.683,581.222,1914.696,581.246C1914.696,581.527,1914.696,581.809,1914.696,582.089C1914.696,582.098,1914.696,582.107,1914.696,582.116C1924.917,597.249,1939.120,606.529,1957.304,609.955C1961.746,611.339,1966.384,612.353,1971.217,613.000C1985.130,613.580,1999.043,613.580,2012.957,613.000C2016.598,612.847,2020.077,612.412,2023.391,611.695C2024.550,611.695,2025.710,611.695,2026.870,611.695C2034.588,610.620,2042.124,608.736,2049.478,606.040C2066.859,599.517,2078.447,587.500,2084.261,569.937ZC2084.249,569.972,2084.255,569.955,2084.261,569.937ZM1998.159,324.609C1998.164,324.610,1998.169,324.610,1998.159,324.609ZM2042.436,332.413C2042.464,332.422,2042.493,332.431,2042.436,332.413ZC2042.548,332.454,2042.575,332.469,2042.601,332.483M2046.828,335.871C2046.837,335.882,2046.846,335.892,2046.828,335.871ZC2046.860,335.908,2046.865,335.914,2046.828,335.871ZM1886.380,378.487C1886.398,378.507,1886.417,378.527,1886.380,378.487ZC1886.439,378.529,1886.444,378.511,1886.380,378.487ZM1887.298,375.094C1887.300,375.085,1887.302,375.076,1887.298,375.094ZC1887.318,375.058,1887.333,375.048,1887.298,375.094ZM1892.911,371.613C1892.926,371.604,1892.941,371.596,1892.911,371.613ZC1892.967,371.571,1892.978,371.554,1892.988,371.538M1894.259,368.122C1894.259,368.117,1894.260,368.112,1894.259,368.122ZC1894.274,368.095,1894.287,368.082,1894.259,368.122ZM1905.516,360.301C1905.532,360.293,1905.549,360.286,1905.516,360.301ZC1905.582,360.253,1905.598,360.227,1905.613,360.202C1906.062,359.458,1905.949,358.798,1905.276,358.220C1905.242,358.191,1905.206,358.161,1905.169,358.132C1905.156,358.123,1905.143,358.113,1905.130,358.103C1905.157,358.096,1905.184,358.090,1905.210,358.083M1910.307,357.665C1910.320,357.666,1910.334,357.667,1910.307,357.665ZM2135.565,516.870C2135.579,516.846,2135.594,516.822,2135.565,516.870ZM2141.195,507.339C2141.202,507.326,2141.210,507.313,2141.195,507.339ZC2141.224,507.278,2141.231,507.257,2141.237,507.235M2111.273,380.469C2111.255,380.410,2111.237,380.351,2111.219,380.293C2111.219,380.291,2111.218,380.289,2111.217,380.287M1879.946,388.044C1879.935,388.068,1879.924,388.092,1879.946,388.044ZM1978.093,507.310C1978.120,507.307,1978.147,507.304,1978.093,507.310ZM2003.293,507.305C2003.325,507.303,2003.357,507.302,2003.293,507.305ZC2003.390,507.300,2003.391,507.300,2003.293,507.305ZM2135.565,516.870C2135.565,516.885,2135.565,516.901,2135.565,516.870ZM2135.565,520.944C2135.565,521.585,2135.565,522.225,2135.565,522.865C2135.565,522.896,2135.565,522.928,2135.565,522.959M1853.826,516.870C1853.826,516.845,1853.826,516.820,1853.826,516.870ZM1853.826,507.375C1853.826,507.350,1853.826,507.325,1853.826,507.375ZM1912.423,581.984C1912.439,582.006,1912.455,582.028,1912.423,581.984ZC1912.488,582.072,1912.505,582.094,1912.522,582.116C1912.540,582.096,1912.558,582.076,1912.576,582.057M1914.655,581.243C1914.669,581.244,1914.682,581.245,1914.655,581.243ZM1933.773,603.723C1933.124,603.246,1932.544,602.812,1932.092,602.466M1943.391,609.955C1943.419,609.959,1943.448,609.963,1943.391,609.955ZM1945.961,609.539C1945.974,609.533,1945.987,609.527,1945.961,609.539ZC1945.973,609.514,1945.945,609.508,1945.961,609.539ZM1931.701,602.164C1931.685,602.151,1931.668,602.138,1931.701,602.164ZM1930.790,602.989C1930.787,602.991,1930.785,602.993,1930.790,602.989ZC1930.771,602.978,1930.760,602.961,1930.790,602.989ZM1925.184,597.806C1925.166,597.796,1925.148,597.786,1925.184,597.806ZC1925.136,597.760,1925.142,597.744,1925.184,597.806ZC1925.327,597.247,1925.605,596.833,1925.981,596.488C1925.988,596.482,1925.994,596.476,1926.000,596.471C1925.985,596.463,1925.970,596.456,1925.954,596.448M1919.962,594.307C1919.946,594.303,1919.929,594.299,1919.962,594.307ZC1919.911,594.268,1919.908,594.241,1919.905,594.213M1918.642,589.155C1918.631,589.129,1918.620,589.102,1918.642,589.155ZC1918.591,589.094,1918.573,589.112,1918.642,589.155ZC1918.285,589.400,1918.016,589.670,1917.746,589.939C1917.744,589.941,1917.741,589.944,1917.739,589.946C1917.728,589.929,1917.717,589.913,1917.706,589.896M1912.998,583.901C1912.984,583.886,1912.970,583.871,1912.998,583.901ZC1912.966,583.829,1912.976,583.803,1912.985,583.776M1914.617,582.143C1914.643,582.134,1914.669,582.125,1914.617,582.143ZM2084.261,569.937C2084.273,569.952,2084.285,569.966,2084.261,569.937ZM2086.419,569.959C2086.424,569.952,2086.430,569.944,2086.419,569.959ZC2086.441,569.916,2086.448,569.896,2086.419,569.959ZM2086.017,566.052C2086.011,566.042,2086.006,566.032,2086.017,566.052ZC2086.015,565.998,2086.031,565.975,2086.046,565.951M2088.600,561.257C2088.603,561.250,2088.606,561.244,2088.600,561.257ZC2088.627,561.231,2088.645,561.224,2088.600,561.257ZM2102.508,556.023C2102.513,556.021,2102.517,556.019,2102.508,556.023ZM1964.257,326.350C1964.259,326.350,1964.260,326.350,1964.257,326.350ZC1964.282,326.352,1964.304,326.354,1964.257,326.350ZM1981.581,326.356C1981.605,326.354,1981.628,326.352,1981.581,326.356ZM1943.391,336.789C1943.410,336.777,1943.429,336.764,1943.391,336.789ZM1951.185,332.455C1951.196,332.450,1951.207,332.445,1951.185,332.455ZC1951.248,332.426,1951.278,332.413,1951.308,332.401C1951.944,332.130,1952.588,331.919,1953.241,331.767C1953.893,331.615,1954.554,331.522,1955.223,331.488C1955.892,331.454,1956.569,331.479,1957.255,331.563C1957.271,331.565,1957.288,331.567,1957.304,331.569C1957.304,331.543,1957.304,331.516,1957.304,331.489M1957.304,329.000C1957.304,328.987,1957.304,328.973,1957.304,329.000ZC1957.327,328.962,1957.350,328.964,1957.304,329.000ZM1961.619,328.535C1961.630,328.531,1961.641,328.528,1961.619,328.535ZC1961.669,328.519,1961.686,328.513,1961.619,328.535ZM1963.390,326.375C1963.390,326.367,1963.391,326.358,1963.390,326.375Z" style="fill:none;fill-opacity:none;stroke-width:3;stroke:#000000;stroke-opacity:1">
            </path>
          </g>
        </g>
      </g>
    </g>
  </g>
</svg>