<svg width="573.33" xmlns="http://www.w3.org/2000/svg" height="287.348" id="screenshot-5f04bd0b-a159-8046-8004-86821c7516cb" viewBox="3490 105 573.33 287.348" style="-webkit-print-color-adjust::exact" xmlns:xlink="http://www.w3.org/1999/xlink" fill="none" version="1.1">
  <g id="shape-5f04bd0b-a159-8046-8004-86821c7516cb">
    <g fill="none">
      <g class="fills" id="fills-5f04bd0b-a159-8046-8004-86821c7516cb">
        <rect rx="0" ry="0" x="3490" y="105" width="573.3297546012273" height="287.3481012658228" transform="matrix(1.000000, 0.000000, 0.000000, 1.000000, 0.000000, 0.000000)" class="frame-background">
        </rect>
      </g>
      <g class="frame-children">
        <g id="shape-d39ca38a-ad3c-8047-8004-7ed4cbe6149e" style="fill:#000000" width="500" height="512" rx="0" ry="0">
          <g id="shape-d39ca38a-ad3c-8047-8004-7ed4cbe6149f">
            <g class="fills" id="fills-d39ca38a-ad3c-8047-8004-7ed4cbe6149f">
              <path d="M3606.377,111.587C3606.377,111.391,3606.377,111.196,3606.377,111.000L3606.377,111.000C3608.134,111.000,3609.892,111.000,3611.649,111.000C3639.387,115.248,3694.836,123.908,3694.836,123.908L3710.067,143.857L3752.832,200.769L3765.720,308.726C3765.720,308.726,3765.945,331.025,3765.427,375.612C3765.134,375.319,3765.134,375.319,3764.949,375.158C3764.780,375.012,3764.548,375.026,3764.548,375.026C3764.548,375.026,3758.341,367.949,3745.216,354.490C3733.737,342.720,3727.642,337.182,3727.642,337.182C3727.642,337.182,3726.044,337.898,3723.541,340.116C3720.966,342.396,3720.026,343.929,3720.026,343.929L3681.655,379.133L3680.776,378.253C3680.776,378.253,3647.200,354.896,3630.395,343.343C3613.997,357.127,3597.692,371.012,3581.479,385.000C3568.428,375.485,3555.442,365.901,3542.522,356.251C3527.742,360.340,3513.096,364.643,3498.586,369.158C3498.391,369.158,3498.195,369.158,3498.000,369.158C3498.000,361.726,3498.000,354.295,3498.000,346.863C3499.139,314.104,3500.115,281.248,3500.929,248.293C3501.304,247.176,3501.499,246.021,3501.514,244.830C3501.515,244.811,3501.515,244.792,3501.515,244.773C3515.033,209.634,3528.897,174.626,3543.108,139.749C3563.997,130.067,3585.004,120.715,3606.129,111.693C3606.191,111.666,3606.253,111.640,3606.377,111.587ZC3606.335,111.604,3606.356,111.596,3606.377,111.587ZC3606.362,111.600,3606.347,111.613,3606.377,111.587ZM3526.119,206.049C3525.707,209.656,3524.926,213.177,3523.776,216.610C3526.999,229.712,3530.513,242.718,3534.321,255.627C3542.917,259.493,3551.607,263.111,3560.390,266.482C3569.071,263.681,3577.761,260.943,3586.459,258.268C3589.776,248.007,3593.389,237.837,3597.297,227.758C3597.687,215.045,3597.687,202.334,3597.297,189.621C3593.019,182.800,3588.527,176.150,3583.823,169.672C3578.223,167.797,3572.658,165.841,3567.127,163.805C3561.283,164.782,3555.447,165.756,3549.621,166.727C3549.598,166.731,3549.575,166.735,3549.552,166.739C3548.745,167.170,3547.866,167.561,3546.916,167.912C3541.839,174.171,3536.762,180.429,3531.685,186.687C3529.727,193.174,3527.873,199.621,3526.119,206.049ZC3526.123,206.036,3526.121,206.043,3526.119,206.049ZM3567.931,144.042C3567.412,144.464,3566.892,144.886,3566.373,145.308M3561.315,149.393C3561.299,149.406,3561.284,149.418,3561.315,149.393ZC3561.251,149.451,3561.233,149.472,3561.215,149.493M3549.590,166.666C3549.578,166.690,3549.565,166.715,3549.590,166.666ZM3526.119,206.049C3526.104,206.073,3526.088,206.098,3526.119,206.049ZM3503.609,242.938C3503.594,242.963,3503.580,242.988,3503.609,242.938ZC3503.552,243.041,3503.538,243.069,3503.524,243.097M3501.558,244.761C3501.544,244.765,3501.529,244.769,3501.558,244.761Z" style="fill:#3c7f72">
              </path>
            </g>
            <g id="strokes-d39ca38a-ad3c-8047-8004-7ed4cbe6149f" class="strokes">
              <g class="outer-stroke-shape">
                <defs>
                  <mask id="outer-stroke-render-3361-d39ca38a-ad3c-8047-8004-7ed4cbe6149f-0" x="3493.7573593128805" y="106.75735931288071" width="276.2536862822148" height="282.4852813742386" maskUnits="userSpaceOnUse">
                    <use href="#stroke-shape-render-3361-d39ca38a-ad3c-8047-8004-7ed4cbe6149f-0" style="fill:none;stroke:white;stroke-width:6">
                    </use>
                    <use href="#stroke-shape-render-3361-d39ca38a-ad3c-8047-8004-7ed4cbe6149f-0" style="fill:black;stroke:none">
                    </use>
                  </mask>
                  <path d="M3606.377,111.587C3606.377,111.391,3606.377,111.196,3606.377,111.000L3606.377,111.000C3608.134,111.000,3609.892,111.000,3611.649,111.000C3639.387,115.248,3694.836,123.908,3694.836,123.908L3710.067,143.857L3752.832,200.769L3765.720,308.726C3765.720,308.726,3765.945,331.025,3765.427,375.612C3765.134,375.319,3765.134,375.319,3764.949,375.158C3764.780,375.012,3764.548,375.026,3764.548,375.026C3764.548,375.026,3758.341,367.949,3745.216,354.490C3733.737,342.720,3727.642,337.182,3727.642,337.182C3727.642,337.182,3726.044,337.898,3723.541,340.116C3720.966,342.396,3720.026,343.929,3720.026,343.929L3681.655,379.133L3680.776,378.253C3680.776,378.253,3647.200,354.896,3630.395,343.343C3613.997,357.127,3597.692,371.012,3581.479,385.000C3568.428,375.485,3555.442,365.901,3542.522,356.251C3527.742,360.340,3513.096,364.643,3498.586,369.158C3498.391,369.158,3498.195,369.158,3498.000,369.158C3498.000,361.726,3498.000,354.295,3498.000,346.863C3499.139,314.104,3500.115,281.248,3500.929,248.293C3501.304,247.176,3501.499,246.021,3501.514,244.830C3501.515,244.811,3501.515,244.792,3501.515,244.773C3515.033,209.634,3528.897,174.626,3543.108,139.749C3563.997,130.067,3585.004,120.715,3606.129,111.693C3606.191,111.666,3606.253,111.640,3606.377,111.587ZC3606.335,111.604,3606.356,111.596,3606.377,111.587ZC3606.362,111.600,3606.347,111.613,3606.377,111.587ZM3526.119,206.049C3525.707,209.656,3524.926,213.177,3523.776,216.610C3526.999,229.712,3530.513,242.718,3534.321,255.627C3542.917,259.493,3551.607,263.111,3560.390,266.482C3569.071,263.681,3577.761,260.943,3586.459,258.268C3589.776,248.007,3593.389,237.837,3597.297,227.758C3597.687,215.045,3597.687,202.334,3597.297,189.621C3593.019,182.800,3588.527,176.150,3583.823,169.672C3578.223,167.797,3572.658,165.841,3567.127,163.805C3561.283,164.782,3555.447,165.756,3549.621,166.727C3549.598,166.731,3549.575,166.735,3549.552,166.739C3548.745,167.170,3547.866,167.561,3546.916,167.912C3541.839,174.171,3536.762,180.429,3531.685,186.687C3529.727,193.174,3527.873,199.621,3526.119,206.049ZC3526.123,206.036,3526.121,206.043,3526.119,206.049ZM3567.931,144.042C3567.412,144.464,3566.892,144.886,3566.373,145.308M3561.315,149.393C3561.299,149.406,3561.284,149.418,3561.315,149.393ZC3561.251,149.451,3561.233,149.472,3561.215,149.493M3549.590,166.666C3549.578,166.690,3549.565,166.715,3549.590,166.666ZM3526.119,206.049C3526.104,206.073,3526.088,206.098,3526.119,206.049ZM3503.609,242.938C3503.594,242.963,3503.580,242.988,3503.609,242.938ZC3503.552,243.041,3503.538,243.069,3503.524,243.097M3501.558,244.761C3501.544,244.765,3501.529,244.769,3501.558,244.761Z" id="stroke-shape-render-3361-d39ca38a-ad3c-8047-8004-7ed4cbe6149f-0">
                  </path>
                </defs>
                <use href="#stroke-shape-render-3361-d39ca38a-ad3c-8047-8004-7ed4cbe6149f-0" mask="url(#outer-stroke-render-3361-d39ca38a-ad3c-8047-8004-7ed4cbe6149f-0)" style="fill:none;stroke-width:6;stroke:#000000;stroke-opacity:1">
                </use>
                <use href="#stroke-shape-render-3361-d39ca38a-ad3c-8047-8004-7ed4cbe6149f-0" style="fill:none;fill-opacity:none;stroke-width:3;stroke:none;stroke-opacity:1">
                </use>
              </g>
            </g>
          </g>
          <g id="shape-d39ca38a-ad3c-8047-8004-7ed4cbe614a0" style="opacity:1">
            <g class="fills" id="fills-d39ca38a-ad3c-8047-8004-7ed4cbe614a0">
              <path d="M3694.836,123.908C3701.475,132.513,3708.114,141.118,3714.754,149.724C3726.591,166.379,3738.796,182.807,3751.367,199.009C3752.393,200.176,3752.979,201.545,3753.125,203.116C3757.226,238.124,3761.326,273.131,3765.427,308.139C3765.818,330.630,3765.818,353.122,3765.427,375.612C3765.203,375.286,3764.910,375.091,3764.548,375.026C3752.622,362.199,3740.319,349.584,3727.642,337.182C3724.720,338.828,3722.181,341.077,3720.026,343.929C3707.335,355.759,3694.544,367.493,3681.655,379.133C3681.235,378.814,3680.942,378.422,3680.776,377.959C3681.614,377.736,3682.102,377.149,3682.241,376.199C3688.522,352.232,3694.576,328.176,3700.401,304.032C3706.167,270.758,3712.123,237.511,3718.268,204.289C3710.457,177.494,3702.646,150.700,3694.836,123.908ZZ" style="shape-rendering:geometricPrecision;text-rendering:geometricPrecision;image-rendering:optimizeQuality;fill-rule:evenodd;clip-rule:evenodd;fill:#2c5e54;fill-opacity:0.9601953125">
              </path>
            </g>
          </g>
          <g id="shape-d39ca38a-ad3c-8047-8004-7ed4cbe614a1" style="opacity:1">
            <g class="fills" id="fills-d39ca38a-ad3c-8047-8004-7ed4cbe614a1">
              <path d="M3526.119,206.049C3527.870,199.634,3529.725,193.180,3531.685,186.687C3536.762,180.429,3541.839,174.171,3546.916,167.912C3547.866,167.561,3548.745,167.170,3549.552,166.739C3555.401,165.764,3561.260,164.786,3567.127,163.805C3572.658,165.841,3578.223,167.797,3583.823,169.672C3588.527,176.150,3593.019,182.800,3597.297,189.621C3597.687,202.334,3597.687,215.045,3597.297,227.758C3593.389,237.837,3589.776,248.007,3586.459,258.268C3577.761,260.943,3569.071,263.681,3560.390,266.482C3551.607,263.111,3542.917,259.493,3534.321,255.627C3530.513,242.718,3526.999,229.712,3523.776,216.610C3524.926,213.177,3525.707,209.656,3526.119,206.049ZZ" style="shape-rendering:geometricPrecision;text-rendering:geometricPrecision;image-rendering:optimizeQuality;fill-rule:evenodd;clip-rule:evenodd;fill:#fdfefe">
              </path>
            </g>
            <g style="shape-rendering:geometricPrecision;text-rendering:geometricPrecision;image-rendering:optimizeQuality;fill-rule:evenodd;clip-rule:evenodd" id="strokes-d39ca38a-ad3c-8047-8004-7ed4cbe614a1" class="strokes">
              <g class="inner-stroke-shape">
                <defs>
                  <clipPath id="inner-stroke-render-3363-d39ca38a-ad3c-8047-8004-7ed4cbe614a1-0">
                    <use href="#stroke-shape-render-3363-d39ca38a-ad3c-8047-8004-7ed4cbe614a1-0">
                    </use>
                  </clipPath>
                  <path d="M3526.119,206.049C3527.870,199.634,3529.725,193.180,3531.685,186.687C3536.762,180.429,3541.839,174.171,3546.916,167.912C3547.866,167.561,3548.745,167.170,3549.552,166.739C3555.401,165.764,3561.260,164.786,3567.127,163.805C3572.658,165.841,3578.223,167.797,3583.823,169.672C3588.527,176.150,3593.019,182.800,3597.297,189.621C3597.687,202.334,3597.687,215.045,3597.297,227.758C3593.389,237.837,3589.776,248.007,3586.459,258.268C3577.761,260.943,3569.071,263.681,3560.390,266.482C3551.607,263.111,3542.917,259.493,3534.321,255.627C3530.513,242.718,3526.999,229.712,3523.776,216.610C3524.926,213.177,3525.707,209.656,3526.119,206.049ZZ" style="fill:none;fill-opacity:none;stroke-width:6;stroke:#000000;stroke-opacity:1" id="stroke-shape-render-3363-d39ca38a-ad3c-8047-8004-7ed4cbe614a1-0">
                  </path>
                </defs>
                <use href="#stroke-shape-render-3363-d39ca38a-ad3c-8047-8004-7ed4cbe614a1-0" clip-path="url(&#x27;#inner-stroke-render-3363-d39ca38a-ad3c-8047-8004-7ed4cbe614a1-0&#x27;)">
                </use>
              </g>
            </g>
          </g>
          <g id="shape-d39ca38a-ad3c-8047-8004-7ed4cbe614a2" style="opacity:1">
            <g class="fills" id="fills-d39ca38a-ad3c-8047-8004-7ed4cbe614a2">
              <path d="M3673.160,165.565C3679.569,167.249,3685.818,169.400,3691.907,172.019C3695.795,178.162,3699.798,184.224,3703.916,190.208C3704.307,203.702,3704.307,217.197,3703.916,230.692C3700.088,240.336,3696.670,250.115,3693.664,260.028C3685.047,262.643,3676.455,265.382,3667.888,268.242C3658.970,264.950,3650.183,261.332,3641.526,257.388C3637.320,243.963,3633.903,230.370,3631.274,216.610C3633.891,207.497,3636.234,198.305,3638.304,189.034C3643.674,182.482,3649.044,175.931,3654.414,169.379C3660.718,168.009,3666.967,166.738,3673.160,165.565ZZ" style="shape-rendering:geometricPrecision;text-rendering:geometricPrecision;image-rendering:optimizeQuality;fill-rule:evenodd;clip-rule:evenodd;fill:#fdfefe">
              </path>
            </g>
            <g style="shape-rendering:geometricPrecision;text-rendering:geometricPrecision;image-rendering:optimizeQuality;fill-rule:evenodd;clip-rule:evenodd" id="strokes-d39ca38a-ad3c-8047-8004-7ed4cbe614a2" class="strokes">
              <g class="inner-stroke-shape">
                <defs>
                  <clipPath id="inner-stroke-render-3364-d39ca38a-ad3c-8047-8004-7ed4cbe614a2-0">
                    <use href="#stroke-shape-render-3364-d39ca38a-ad3c-8047-8004-7ed4cbe614a2-0">
                    </use>
                  </clipPath>
                  <path d="M3673.160,165.565C3679.569,167.249,3685.818,169.400,3691.907,172.019C3695.795,178.162,3699.798,184.224,3703.916,190.208C3704.307,203.702,3704.307,217.197,3703.916,230.692C3700.088,240.336,3696.670,250.115,3693.664,260.028C3685.047,262.643,3676.455,265.382,3667.888,268.242C3658.970,264.950,3650.183,261.332,3641.526,257.388C3637.320,243.963,3633.903,230.370,3631.274,216.610C3633.891,207.497,3636.234,198.305,3638.304,189.034C3643.674,182.482,3649.044,175.931,3654.414,169.379C3660.718,168.009,3666.967,166.738,3673.160,165.565ZZ" style="fill:none;fill-opacity:none;stroke-width:6;stroke:#000000;stroke-opacity:1" id="stroke-shape-render-3364-d39ca38a-ad3c-8047-8004-7ed4cbe614a2-0">
                  </path>
                </defs>
                <use href="#stroke-shape-render-3364-d39ca38a-ad3c-8047-8004-7ed4cbe614a2-0" clip-path="url(&#x27;#inner-stroke-render-3364-d39ca38a-ad3c-8047-8004-7ed4cbe614a2-0&#x27;)">
                </use>
              </g>
            </g>
          </g>
          <g id="shape-d39ca38a-ad3c-8047-8004-7ed4cbe614a3" style="opacity:1">
            <g class="fills" id="fills-d39ca38a-ad3c-8047-8004-7ed4cbe614a3">
              <path d="M3541.937,200.769C3546.827,201.567,3551.709,202.447,3556.582,203.409C3558.652,205.679,3560.898,207.733,3563.319,209.570C3563.779,216.045,3563.584,222.499,3562.733,228.931C3560.389,234.315,3558.338,239.791,3556.582,245.360C3550.258,244.818,3544.010,243.840,3537.836,242.426C3536.487,240.001,3535.023,237.654,3533.442,235.385C3532.499,226.983,3531.913,218.573,3531.685,210.156C3535.217,207.106,3538.634,203.976,3541.937,200.769ZL3541.937,200.769Z" style="shape-rendering:geometricPrecision;text-rendering:geometricPrecision;image-rendering:optimizeQuality;fill-rule:evenodd;clip-rule:evenodd;fill:#3c7f72">
              </path>
            </g>
          </g>
          <g id="shape-d39ca38a-ad3c-8047-8004-7ed5a6d40e60" style="opacity:1">
            <g class="fills" id="fills-d39ca38a-ad3c-8047-8004-7ed5a6d40e60">
              <path d="M3540.662,207.223C3542.010,207.443,3543.356,207.686,3544.699,207.952C3545.270,208.579,3545.889,209.147,3546.556,209.655C3546.683,211.444,3546.629,213.227,3546.395,215.005C3545.749,216.492,3545.183,218.005,3544.699,219.544C3542.956,219.394,3541.233,219.124,3539.531,218.733C3539.160,218.063,3538.756,217.415,3538.320,216.788C3538.060,214.466,3537.899,212.142,3537.836,209.817C3538.809,208.974,3539.751,208.109,3540.662,207.223ZL3540.662,207.223Z" style="shape-rendering:geometricPrecision;text-rendering:geometricPrecision;image-rendering:optimizeQuality;fill-rule:evenodd;clip-rule:evenodd;fill:#ffffff;fill-opacity:1">
              </path>
            </g>
          </g>
          <g id="shape-d39ca38a-ad3c-8047-8004-7ed4cbe614a4" style="opacity:1">
            <g class="fills" id="fills-d39ca38a-ad3c-8047-8004-7ed4cbe614a4">
              <path d="M3649.142,202.529C3654.051,203.219,3658.932,204.099,3663.787,205.169C3665.857,207.439,3668.103,209.493,3670.524,211.330C3670.963,217.803,3670.767,224.256,3669.938,230.692C3667.594,236.075,3665.543,241.551,3663.787,247.120C3657.551,246.144,3651.303,245.166,3645.041,244.186C3643.692,241.761,3642.228,239.414,3640.647,237.146C3639.521,228.544,3639.033,219.938,3639.183,211.330C3642.703,208.584,3646.022,205.651,3649.142,202.529ZL3649.142,202.529Z" style="shape-rendering:geometricPrecision;text-rendering:geometricPrecision;image-rendering:optimizeQuality;fill-rule:evenodd;clip-rule:evenodd;fill:#3c7f72">
              </path>
            </g>
          </g>
          <g id="shape-d39ca38a-ad3c-8047-8004-7ed4cbe614a5" style="opacity:1">
            <g class="fills" id="fills-d39ca38a-ad3c-8047-8004-7ed4cbe614a5">
              <path d="M3764.548,375.026C3761.804,373.250,3759.070,371.490,3756.347,369.745C3751.975,365.950,3747.288,362.625,3742.287,359.771C3735.195,354.039,3727.775,348.758,3720.026,343.929C3722.181,341.077,3724.720,338.828,3727.642,337.182C3740.319,349.584,3752.622,362.199,3764.548,375.026ZZ" style="shape-rendering:geometricPrecision;text-rendering:geometricPrecision;image-rendering:optimizeQuality;fill-rule:evenodd;clip-rule:evenodd;fill:#142b27;fill-opacity:1">
              </path>
            </g>
            <g style="shape-rendering:geometricPrecision;text-rendering:geometricPrecision;image-rendering:optimizeQuality;fill-rule:evenodd;clip-rule:evenodd" id="strokes-d39ca38a-ad3c-8047-8004-7ed4cbe614a5" class="strokes">
              <g class="inner-stroke-shape">
                <defs>
                  <clipPath id="inner-stroke-render-3368-d39ca38a-ad3c-8047-8004-7ed4cbe614a5-0">
                    <use href="#stroke-shape-render-3368-d39ca38a-ad3c-8047-8004-7ed4cbe614a5-0">
                    </use>
                  </clipPath>
                  <path d="M3764.548,375.026C3761.804,373.250,3759.070,371.490,3756.347,369.745C3751.975,365.950,3747.288,362.625,3742.287,359.771C3735.195,354.039,3727.775,348.758,3720.026,343.929C3722.181,341.077,3724.720,338.828,3727.642,337.182C3740.319,349.584,3752.622,362.199,3764.548,375.026ZZ" style="fill:none;fill-opacity:none;stroke-width:6;stroke:#000000;stroke-opacity:1" id="stroke-shape-render-3368-d39ca38a-ad3c-8047-8004-7ed4cbe614a5-0">
                  </path>
                </defs>
                <use href="#stroke-shape-render-3368-d39ca38a-ad3c-8047-8004-7ed4cbe614a5-0" clip-path="url(&#x27;#inner-stroke-render-3368-d39ca38a-ad3c-8047-8004-7ed4cbe614a5-0&#x27;)">
                </use>
              </g>
            </g>
          </g>
          <g id="shape-d39ca38a-ad3c-8047-8004-7ed5b7f90835" style="opacity:1">
            <g class="fills" id="fills-d39ca38a-ad3c-8047-8004-7ed5b7f90835">
              <path d="M3647.867,208.396C3649.215,208.617,3650.561,208.860,3651.904,209.126C3652.475,209.753,3653.094,210.320,3653.761,210.828C3653.888,212.617,3653.834,214.400,3653.600,216.178C3652.954,217.665,3652.388,219.178,3651.904,220.717C3650.161,220.568,3648.438,220.297,3646.737,219.907C3646.365,219.237,3645.961,218.588,3645.525,217.961C3645.265,215.640,3645.104,213.316,3645.041,210.990C3646.015,210.147,3646.957,209.282,3647.867,208.396ZL3647.867,208.396Z" style="shape-rendering:geometricPrecision;text-rendering:geometricPrecision;image-rendering:optimizeQuality;fill-rule:evenodd;clip-rule:evenodd;fill:#ffffff;fill-opacity:1">
              </path>
            </g>
          </g>
        </g>
        <g id="shape-d39ca38a-ad3c-8047-8004-7ed447a0cd08" style="fill:#000000" width="474" height="512" rx="0" ry="0">
          <g id="shape-d39ca38a-ad3c-8047-8004-7ed447a0cd0a" style="opacity:0.998">
            <g class="fills" id="fills-d39ca38a-ad3c-8047-8004-7ed447a0cd0a">
              <path d="M3943.612,156.956C3944.917,156.956,3946.222,156.956,3947.528,156.956C3966.172,162.143,3984.882,167.273,4003.657,172.347C4015.055,183.848,4026.585,195.192,4038.248,206.380C4043.674,219.781,4054.130,246.699,4054.130,246.699L4055.000,275.097L4055.000,288.320L4042.817,322.570L4013.665,352.918L3979.073,373.078L3929.688,378.930L3924.467,378.930L3877.475,357.036L3865.292,343.597L3853.979,330.373C3853.979,330.373,3853.284,329.424,3852.891,327.339C3852.413,324.800,3852.674,323.437,3852.674,323.437L3858.983,324.304C3867.250,323.003,3877.783,322.118,3885.307,321.052C3895.750,316.717,3906.192,312.381,3916.635,308.046C3920.923,305.984,3963.961,279.118,3979.291,269.677C3979.436,268.954,3978.856,266.209,3978.856,265.342C3950.903,251.850,3922.911,238.338,3894.879,224.805C3883.814,222.049,3872.791,219.159,3861.811,216.134C3860.506,215.845,3859.200,215.845,3857.895,216.134C3854.860,216.742,3851.815,217.247,3848.758,217.652C3848.758,217.508,3848.758,217.363,3848.758,217.218C3851.539,212.692,3854.222,208.068,3856.807,203.345C3869.657,191.263,3882.638,179.340,3895.750,167.578C3911.766,164.055,3927.720,160.514,3943.612,156.956ZL3943.612,156.956Z" style="shape-rendering:geometricPrecision;text-rendering:geometricPrecision;image-rendering:optimizeQuality;fill-rule:evenodd;clip-rule:evenodd;fill:#fddd08">
              </path>
            </g>
            <g style="shape-rendering:geometricPrecision;text-rendering:geometricPrecision;image-rendering:optimizeQuality;fill-rule:evenodd;clip-rule:evenodd" id="strokes-d39ca38a-ad3c-8047-8004-7ed447a0cd0a" class="strokes">
              <g class="outer-stroke-shape">
                <defs>
                  <mask id="outer-stroke-render-3371-d39ca38a-ad3c-8047-8004-7ed447a0cd0a-0" x="3841.515028024538" y="149.71305551541235" width="220.72761266258243" height="236.4599649185424" maskUnits="userSpaceOnUse">
                    <use href="#stroke-shape-render-3371-d39ca38a-ad3c-8047-8004-7ed447a0cd0a-0" style="fill:none;stroke:white;stroke-width:6">
                    </use>
                    <use href="#stroke-shape-render-3371-d39ca38a-ad3c-8047-8004-7ed447a0cd0a-0" style="fill:black;stroke:none">
                    </use>
                  </mask>
                  <path d="M3943.612,156.956C3944.917,156.956,3946.222,156.956,3947.528,156.956C3966.172,162.143,3984.882,167.273,4003.657,172.347C4015.055,183.848,4026.585,195.192,4038.248,206.380C4043.674,219.781,4054.130,246.699,4054.130,246.699L4055.000,275.097L4055.000,288.320L4042.817,322.570L4013.665,352.918L3979.073,373.078L3929.688,378.930L3924.467,378.930L3877.475,357.036L3865.292,343.597L3853.979,330.373C3853.979,330.373,3853.284,329.424,3852.891,327.339C3852.413,324.800,3852.674,323.437,3852.674,323.437L3858.983,324.304C3867.250,323.003,3877.783,322.118,3885.307,321.052C3895.750,316.717,3906.192,312.381,3916.635,308.046C3920.923,305.984,3963.961,279.118,3979.291,269.677C3979.436,268.954,3978.856,266.209,3978.856,265.342C3950.903,251.850,3922.911,238.338,3894.879,224.805C3883.814,222.049,3872.791,219.159,3861.811,216.134C3860.506,215.845,3859.200,215.845,3857.895,216.134C3854.860,216.742,3851.815,217.247,3848.758,217.652C3848.758,217.508,3848.758,217.363,3848.758,217.218C3851.539,212.692,3854.222,208.068,3856.807,203.345C3869.657,191.263,3882.638,179.340,3895.750,167.578C3911.766,164.055,3927.720,160.514,3943.612,156.956ZL3943.612,156.956Z" id="stroke-shape-render-3371-d39ca38a-ad3c-8047-8004-7ed447a0cd0a-0">
                  </path>
                </defs>
                <use href="#stroke-shape-render-3371-d39ca38a-ad3c-8047-8004-7ed447a0cd0a-0" mask="url(#outer-stroke-render-3371-d39ca38a-ad3c-8047-8004-7ed447a0cd0a-0)" style="fill:none;stroke-width:6;stroke:#000000;stroke-opacity:1">
                </use>
                <use href="#stroke-shape-render-3371-d39ca38a-ad3c-8047-8004-7ed447a0cd0a-0" style="fill:none;fill-opacity:none;stroke-width:3;stroke:none;stroke-opacity:1">
                </use>
              </g>
            </g>
          </g>
          <g id="shape-d39ca38a-ad3c-8047-8004-7ed447a0cd0b" style="opacity:1">
            <g class="fills" id="fills-d39ca38a-ad3c-8047-8004-7ed447a0cd0b">
              <path d="M3954.925,195.975C3957.076,195.507,3959.251,195.073,3961.451,194.674C3960.609,193.184,3959.522,191.883,3958.188,190.772C3957.978,190.361,3957.906,189.928,3957.970,189.472C3958.690,187.747,3959.415,186.012,3960.146,184.269C3962.177,183.691,3964.207,183.691,3966.237,184.269C3967.047,185.822,3967.772,187.412,3968.413,189.038C3965.029,197.372,3961.766,205.753,3958.623,214.184C3956.368,215.740,3954.048,217.185,3951.661,218.519C3950.723,217.521,3949.998,216.366,3949.486,215.051C3949.196,213.027,3949.196,211.004,3949.486,208.981C3951.424,204.686,3953.237,200.351,3954.925,195.975ZZ" style="shape-rendering:geometricPrecision;text-rendering:geometricPrecision;image-rendering:optimizeQuality;fill-rule:evenodd;clip-rule:evenodd;fill:#1e1e20;fill-opacity:1">
              </path>
            </g>
          </g>
          <g id="shape-d39ca38a-ad3c-8047-8004-7ed447a0cd0c" style="opacity:1">
            <g class="fills" id="fills-d39ca38a-ad3c-8047-8004-7ed447a0cd0c">
              <path d="M3957.970,189.472C3957.906,189.928,3957.978,190.361,3958.188,190.772C3959.522,191.883,3960.609,193.184,3961.451,194.674C3959.251,195.073,3957.076,195.507,3954.925,195.975C3954.603,196.031,3954.313,195.959,3954.054,195.758C3954.935,193.849,3955.733,191.898,3956.447,189.905C3956.946,189.853,3957.453,189.709,3957.970,189.472ZZ" style="shape-rendering:geometricPrecision;text-rendering:geometricPrecision;image-rendering:optimizeQuality;fill-rule:evenodd;clip-rule:evenodd;fill:#f4f0b9">
              </path>
            </g>
          </g>
          <g id="shape-d39ca38a-ad3c-8047-8004-7ed447a0cd0d" style="opacity:1">
            <g class="fills" id="fills-d39ca38a-ad3c-8047-8004-7ed447a0cd0d">
              <path d="M4054.130,246.699C4054.152,255.159,4054.442,263.541,4055.000,271.845C4055.000,277.337,4055.000,282.828,4055.000,288.320C4050.751,299.789,4046.618,311.350,4042.599,323.003C4032.941,332.771,4023.441,342.670,4014.100,352.701C4002.497,359.493,3990.894,366.285,3979.291,373.078C3962.697,375.051,3946.163,377.002,3929.688,378.930C3927.948,378.930,3926.207,378.930,3924.467,378.930C3908.895,371.535,3893.231,364.237,3877.475,357.036C3869.063,348.221,3853.979,330.373,3853.979,330.373C3853.979,330.373,3853.310,329.347,3852.891,327.122C3852.440,324.722,3852.674,323.437,3852.674,323.437L3855.937,323.870C3855.937,323.870,3855.895,323.840,3855.891,323.836C3855.889,323.835,3855.899,323.842,3855.937,323.870C3859.654,326.614,3882.135,341.621,3909.238,344.247C3924.964,345.771,3942.979,347.785,3959.276,344.680C3984.947,341.646,3992.779,336.877,4008.443,330.807C4018.886,322.136,4034.550,306.962,4038.901,293.089C4044.467,278.257,4047.730,262.506,4053.042,247.566C4053.223,247.022,4053.586,246.733,4054.130,246.699ZL4054.130,246.699Z" style="shape-rendering:geometricPrecision;text-rendering:geometricPrecision;image-rendering:optimizeQuality;fill-rule:evenodd;clip-rule:evenodd;fill:#ebbb1f">
              </path>
            </g>
          </g>
          <g id="shape-d39ca38a-ad3c-8047-8004-7ed447a0cd0e">
            <g class="fills" id="fills-d39ca38a-ad3c-8047-8004-7ed447a0cd0e">
              <path d="M3978.856,265.342C3978.828,265.339,3978.799,265.337,3978.856,265.342ZM3936.421,262.668C3910.128,254.344,3883.808,246.058,3857.460,237.812C3854.619,233.471,3851.718,229.208,3848.758,225.022C3848.758,222.565,3848.758,220.109,3848.758,217.652C3851.815,217.247,3854.860,216.742,3857.895,216.134C3859.200,215.845,3860.506,215.845,3861.811,216.134C3872.791,219.159,3883.814,222.049,3894.879,224.805C3922.855,238.311,3950.791,251.796,3978.688,265.261C3978.744,265.288,3978.800,265.315,3978.856,265.342C3978.936,265.414,3979.041,265.486,3979.073,265.559C3980.596,269.027,3980.161,269.244,3978.856,270.111C3975.021,272.818,3920.923,305.984,3916.635,308.046C3906.192,312.381,3895.750,316.717,3885.307,321.052C3876.552,322.292,3867.777,323.376,3858.983,324.304C3856.872,324.038,3854.769,323.748,3852.674,323.437C3852.244,319.836,3852.026,316.223,3852.021,312.598C3854.980,308.220,3858.098,303.956,3861.376,299.809C3873.842,292.718,3929.475,265.962,3936.421,262.668ZM3978.735,265.330C3978.745,265.334,3978.754,265.338,3978.735,265.330Z" style="fill:#d34a24">
              </path>
            </g>
            <g id="strokes-d39ca38a-ad3c-8047-8004-7ed447a0cd0e" class="strokes">
              <g class="outer-stroke-shape">
                <defs>
                  <mask id="outer-stroke-render-3375-d39ca38a-ad3c-8047-8004-7ed447a0cd0e-0" x="3844.515028024538" y="211.67497244579218" width="139.76656919881083" height="116.87146570968154" maskUnits="userSpaceOnUse">
                    <use href="#stroke-shape-render-3375-d39ca38a-ad3c-8047-8004-7ed447a0cd0e-0" style="fill:none;stroke:white;stroke-width:6">
                    </use>
                    <use href="#stroke-shape-render-3375-d39ca38a-ad3c-8047-8004-7ed447a0cd0e-0" style="fill:black;stroke:none">
                    </use>
                  </mask>
                  <path d="M3978.856,265.342C3978.828,265.339,3978.799,265.337,3978.856,265.342ZM3936.421,262.668C3910.128,254.344,3883.808,246.058,3857.460,237.812C3854.619,233.471,3851.718,229.208,3848.758,225.022C3848.758,222.565,3848.758,220.109,3848.758,217.652C3851.815,217.247,3854.860,216.742,3857.895,216.134C3859.200,215.845,3860.506,215.845,3861.811,216.134C3872.791,219.159,3883.814,222.049,3894.879,224.805C3922.855,238.311,3950.791,251.796,3978.688,265.261C3978.744,265.288,3978.800,265.315,3978.856,265.342C3978.936,265.414,3979.041,265.486,3979.073,265.559C3980.596,269.027,3980.161,269.244,3978.856,270.111C3975.021,272.818,3920.923,305.984,3916.635,308.046C3906.192,312.381,3895.750,316.717,3885.307,321.052C3876.552,322.292,3867.777,323.376,3858.983,324.304C3856.872,324.038,3854.769,323.748,3852.674,323.437C3852.244,319.836,3852.026,316.223,3852.021,312.598C3854.980,308.220,3858.098,303.956,3861.376,299.809C3873.842,292.718,3929.475,265.962,3936.421,262.668ZM3978.735,265.330C3978.745,265.334,3978.754,265.338,3978.735,265.330Z" id="stroke-shape-render-3375-d39ca38a-ad3c-8047-8004-7ed447a0cd0e-0">
                  </path>
                </defs>
                <use href="#stroke-shape-render-3375-d39ca38a-ad3c-8047-8004-7ed447a0cd0e-0" mask="url(#outer-stroke-render-3375-d39ca38a-ad3c-8047-8004-7ed447a0cd0e-0)" style="fill:none;stroke-width:6;stroke:#000000;stroke-opacity:1">
                </use>
                <use href="#stroke-shape-render-3375-d39ca38a-ad3c-8047-8004-7ed447a0cd0e-0" style="fill:none;fill-opacity:none;stroke-width:3;stroke:none;stroke-opacity:1">
                </use>
              </g>
            </g>
          </g>
        </g>
        <g id="shape-3540ebb7-4f8f-806e-8004-7ed7f625d27f">
          <g class="fills" id="fills-3540ebb7-4f8f-806e-8004-7ed7f625d27f">
            <ellipse cx="3804.129601226994" cy="267.50949367088606" rx="15.164877300613625" ry="15.174050632911388" transform="matrix(1.000000, 0.000000, 0.000000, 1.000000, 0.000000, 0.000000)" style="fill:#ff9037">
            </ellipse>
          </g>
        </g>
      </g>
    </g>
  </g>
</svg>