<svg width="266" xmlns="http://www.w3.org/2000/svg" height="328" id="screenshot-ef199d1f-19b8-809f-8004-7eb95aeab361" viewBox="3022 77 266 328" style="-webkit-print-color-adjust::exact" xmlns:xlink="http://www.w3.org/1999/xlink" fill="none" version="1.1">
  <g id="shape-ef199d1f-19b8-809f-8004-7eb95aeab361">
    <g fill="none">
      <g class="fills" id="fills-ef199d1f-19b8-809f-8004-7eb95aeab361">
        <rect rx="0" ry="0" x="3022" y="77" width="266" height="328" transform="matrix(1.000000, 0.000000, 0.000000, 1.000000, 0.000000, 0.000000)" class="frame-background">
        </rect>
      </g>
      <g class="frame-children">
        <g id="shape-ef199d1f-19b8-809f-8004-7ead7f5dbab0" style="fill:#000000" width="380" height="360" rx="0" ry="0">
          <g id="shape-ef199d1f-19b8-809f-8004-7ead7f62e43b" style="opacity:1">
            <g class="fills" id="fills-ef199d1f-19b8-809f-8004-7ead7f62e43b">
              <path d="M3229.139,106.795C3228.638,106.962,3228.304,107.296,3228.137,107.797C3225.897,109.951,3223.559,112.037,3221.124,114.056C3213.339,119.535,3205.157,124.375,3196.578,128.579C3195.821,129.972,3196.239,130.890,3197.831,131.333C3204.373,128.624,3210.801,125.703,3217.117,122.569C3220.532,121.028,3224.038,119.776,3227.637,118.814C3229.025,118.684,3240.911,114.307,3240.911,114.307L3245.670,112.805C3248.175,112.304,3252.178,111.638,3254.186,111.302C3254.854,111.386,3255.522,111.469,3256.190,111.553C3255.912,111.744,3255.745,111.995,3255.689,112.304C3253.723,112.269,3251.887,112.603,3250.179,113.305C3247.660,113.516,3245.322,114.184,3243.166,115.308C3227.359,119.788,3212.163,125.797,3197.580,133.336C3197.246,133.503,3196.912,133.670,3196.578,133.837C3195.755,132.583,3195.003,131.247,3194.324,129.831C3193.147,128.737,3192.061,127.569,3191.068,126.325C3191.235,126.158,3191.402,125.991,3191.569,125.824C3192.270,126.774,3193.188,127.441,3194.324,127.827C3198.006,126.196,3201.596,124.360,3205.094,122.319C3209.635,119.505,3214.060,116.501,3218.369,113.305C3221.781,105.840,3223.701,97.995,3224.130,89.769C3216.965,91.711,3210.286,94.716,3204.092,98.783C3195.893,103.713,3188.630,109.889,3182.301,117.311C3182.468,118.146,3182.635,118.981,3182.802,119.815C3181.675,118.875,3180.422,118.124,3179.045,117.562C3174.188,115.715,3169.178,114.630,3164.017,114.307C3161.685,113.973,3159.264,113.806,3156.753,113.806C3153.048,113.719,3149.459,114.053,3145.983,114.808C3140.406,115.862,3135.063,117.448,3129.953,119.565C3124.372,111.244,3117.860,103.733,3110.416,97.031C3104.135,92.471,3097.456,88.548,3090.379,85.263C3090.023,84.810,3089.522,84.643,3088.876,84.762C3088.703,88.058,3089.037,91.230,3089.878,94.276C3090.768,100.622,3092.939,106.464,3096.390,111.803C3095.302,111.152,3092.883,110.802,3092.883,110.802C3092.883,110.802,3091.302,110.092,3089.878,108.298C3079.113,94.736,3078.586,95.067,3074.599,87.266C3073.849,85.106,3073.348,82.936,3073.096,80.756C3074.096,79.975,3075.265,79.641,3076.603,79.754C3093.928,82.988,3108.455,91.167,3120.185,104.292C3123.381,108.468,3126.554,112.641,3129.702,116.811C3130.105,117.464,3130.690,117.798,3131.456,117.812C3147.718,111.617,3164.083,111.283,3180.548,116.811C3194.572,100.362,3212.272,89.929,3233.648,85.513C3235.986,85.179,3238.323,85.179,3240.661,85.513C3241.200,86.377,3241.284,87.295,3240.911,88.267C3238.497,95.437,3234.574,101.613,3229.139,106.795ZL3229.139,106.795Z" style="shape-rendering:geometricPrecision;text-rendering:geometricPrecision;image-rendering:optimizeQuality;fill-rule:evenodd;clip-rule:evenodd;fill:#251f1f">
              </path>
            </g>
          </g>
          <g id="shape-ef199d1f-19b8-809f-8004-7ead7f63996a" style="opacity:1">
            <g class="fills" id="fills-ef199d1f-19b8-809f-8004-7ead7f63996a">
              <path d="M3090.379,85.263C3089.734,85.949,3089.400,86.867,3089.377,88.017C3089.615,90.100,3089.782,92.187,3089.878,94.276C3089.037,91.230,3088.703,88.058,3088.876,84.762C3089.522,84.643,3090.023,84.810,3090.379,85.263ZZ" style="shape-rendering:geometricPrecision;text-rendering:geometricPrecision;image-rendering:optimizeQuality;fill-rule:evenodd;clip-rule:evenodd;fill:#fddd08">
              </path>
            </g>
          </g>
          <g id="shape-ef199d1f-19b8-809f-8004-7ead7f660a2d" style="opacity:1">
            <g class="fills" id="fills-ef199d1f-19b8-809f-8004-7ead7f660a2d">
              <path d="M3090.379,85.263C3097.456,88.548,3104.135,92.471,3110.416,97.031C3117.860,103.733,3124.372,111.244,3129.953,119.565C3135.063,117.448,3140.406,115.862,3145.983,114.808C3152.746,113.055,3161.763,113.806,3164.017,114.307C3169.178,114.630,3174.188,115.715,3179.045,117.562C3180.422,118.124,3181.675,118.875,3182.802,119.815C3182.635,118.981,3182.468,118.146,3182.301,117.311C3188.630,109.889,3195.893,103.713,3204.092,98.783C3204.718,98.822,3205.136,99.156,3205.345,99.785C3205.587,99.310,3205.670,98.809,3205.595,98.282C3207.163,98.233,3208.499,97.649,3209.603,96.530C3210.639,96.186,3211.640,96.269,3212.608,96.780C3213.207,96.607,3213.207,96.357,3212.608,96.029C3214.034,95.643,3215.454,95.225,3216.866,94.777C3220.099,95.226,3221.352,97.062,3220.623,100.285C3221.089,102.694,3220.338,104.530,3218.369,105.794C3218.196,106.654,3217.945,107.489,3217.618,108.298C3217.952,108.632,3218.285,108.965,3218.620,109.299C3217.618,109.633,3216.616,109.967,3215.614,110.301C3216.427,110.986,3216.678,111.821,3216.365,112.805C3216.199,112.471,3216.031,112.137,3215.864,111.803C3215.705,112.585,3215.288,113.169,3214.612,113.556C3214.946,113.723,3215.280,113.890,3215.614,114.056C3214.412,114.150,3213.242,114.400,3212.107,114.808C3211.868,115.524,3211.535,116.192,3211.105,116.811C3208.725,117.785,3206.805,118.953,3205.345,120.316C3205.099,120.964,3205.016,121.631,3205.094,122.319C3201.596,124.360,3198.006,126.196,3194.324,127.827C3193.188,127.441,3192.270,126.774,3191.569,125.824C3191.402,125.991,3191.235,126.158,3191.068,126.325C3192.061,127.569,3193.147,128.737,3194.324,129.831C3195.003,131.247,3195.755,132.583,3196.578,133.837C3197.596,142.913,3198.764,151.927,3200.085,160.878C3200.369,161.644,3200.702,162.395,3201.087,163.131C3199.813,163.135,3198.644,162.718,3197.580,161.879C3195.065,160.897,3192.895,161.398,3191.068,163.382C3187.986,164.967,3185.982,167.470,3185.056,170.893C3183.703,176.195,3185.707,179.533,3191.068,180.908C3192.070,181.242,3193.072,181.576,3194.073,181.910C3187.827,187.037,3180.814,190.877,3173.034,193.427C3173.201,193.594,3173.368,193.761,3173.535,193.928C3177.155,192.787,3180.662,191.368,3184.055,189.672C3187.513,187.458,3191.020,185.372,3194.574,183.412C3195.792,190.512,3198.130,197.189,3201.588,203.443C3204.872,208.674,3207.627,214.183,3209.853,219.968C3210.187,222.138,3210.187,224.308,3209.853,226.478C3209.498,226.919,3209.081,227.253,3208.601,227.479C3206.426,229.233,3204.172,230.902,3201.838,232.487C3201.542,232.979,3201.709,233.313,3202.339,233.489C3202.992,233.249,3203.576,232.915,3204.092,232.487C3204.895,231.898,3205.563,231.981,3206.096,232.737C3205.011,233.735,3203.842,234.654,3202.589,235.492C3201.400,234.902,3200.482,235.236,3199.834,236.493C3198.976,235.766,3198.225,235.849,3197.580,236.744C3198.888,237.821,3198.888,238.238,3197.580,237.995C3195.766,240.446,3194.012,240.279,3192.320,237.495C3190.277,241.945,3189.192,241.445,3189.064,235.992C3192.995,229.298,3195.667,222.120,3197.079,214.460C3196.912,214.293,3196.745,214.126,3196.578,213.959C3193.208,226.917,3187.364,238.601,3179.045,249.012C3178.625,249.183,3178.458,249.517,3178.544,250.014C3177.344,251.241,3175.841,251.742,3174.036,251.516C3171.721,251.100,3169.384,250.683,3167.023,250.264C3166.579,249.455,3166.078,248.704,3165.520,248.011C3165.255,245.097,3164.921,242.260,3164.518,239.498C3163.295,226.489,3164.965,213.887,3169.527,201.690C3169.064,200.783,3168.647,200.866,3168.275,201.940C3167.101,205.042,3166.183,208.214,3165.520,211.455C3165.047,209.869,3165.047,208.199,3165.520,206.447C3160.841,206.530,3156.166,206.447,3151.493,206.197C3150.723,205.055,3150.139,203.803,3149.740,202.441C3147.643,201.865,3146.809,202.700,3147.235,204.945C3147.443,204.716,3147.693,204.549,3147.987,204.444C3148.325,204.996,3148.659,205.497,3148.989,205.947C3150.086,209.524,3150.837,213.197,3151.243,216.963C3151.493,224.306,3151.577,231.651,3151.493,238.997C3151.089,241.983,3150.922,244.988,3150.992,248.011C3149.248,248.638,3147.411,249.055,3145.482,249.263C3145.187,249.913,3144.686,250.330,3143.979,250.515C3142.184,249.670,3140.682,250.004,3139.471,251.516C3138.101,250.702,3136.598,250.368,3134.962,250.515C3134.905,249.289,3134.404,248.288,3133.460,247.510C3127.565,241.193,3122.973,234.016,3119.684,225.977C3119.035,223.218,3118.200,220.548,3117.179,217.965C3117.492,221.000,3118.076,224.004,3118.932,226.979C3119.252,229.768,3120.254,232.272,3121.938,234.490C3121.438,235.756,3121.021,235.756,3120.685,234.490C3120.519,235.325,3120.352,236.159,3120.185,236.994C3118.973,235.528,3117.553,234.359,3115.927,233.489C3116.928,233.155,3117.930,232.821,3118.932,232.487C3119.099,232.153,3119.266,231.820,3119.433,231.485C3117.828,231.133,3116.242,230.799,3114.674,230.484C3114.340,230.818,3114.006,231.151,3113.672,231.485C3113.770,230.671,3113.770,229.836,3113.672,228.982C3113.461,229.711,3113.043,229.961,3112.420,229.733C3110.980,227.632,3109.560,225.545,3108.162,223.473C3107.627,223.127,3107.043,222.877,3106.409,222.722C3107.600,219.485,3108.685,216.230,3109.665,212.957C3110.416,211.789,3111.168,210.620,3111.919,209.452C3111.703,209.055,3111.536,208.637,3111.418,208.200C3112.546,207.028,3113.214,205.609,3113.422,203.944C3115.877,200.543,3117.965,196.871,3119.684,192.927C3120.622,189.387,3121.373,185.881,3121.938,182.411C3127.193,186.293,3132.870,189.548,3138.970,192.176C3139.471,192.510,3139.972,192.510,3140.473,192.176C3134.049,189.218,3128.038,185.629,3122.439,181.409C3123.742,180.252,3125.245,179.334,3126.947,178.655C3131.120,174.420,3131.537,169.830,3128.200,164.884C3127.473,163.900,3126.555,163.233,3125.444,162.881C3124.819,162.062,3123.984,161.477,3122.940,161.128C3120.602,160.794,3118.264,160.794,3115.927,161.128C3115.023,162.036,3114.522,161.953,3114.424,160.878C3115.120,157.535,3115.872,154.197,3116.678,150.863C3116.738,145.330,3117.072,139.821,3117.680,134.337C3118.696,132.294,3119.948,130.458,3121.437,128.829C3122.413,127.683,3123.415,126.514,3124.443,125.324C3122.776,125.468,3121.607,126.469,3120.936,128.328C3120.085,128.408,3119.250,128.325,3118.431,128.078C3110.451,123.524,3103.104,118.099,3096.390,111.803C3092.939,106.464,3090.768,100.622,3089.878,94.276C3089.782,92.187,3089.615,90.100,3089.377,88.017C3089.400,86.867,3089.734,85.949,3090.379,85.263ZL3090.379,85.263Z" style="shape-rendering:geometricPrecision;text-rendering:geometricPrecision;image-rendering:optimizeQuality;fill-rule:evenodd;clip-rule:evenodd;fill:#fddd08">
              </path>
            </g>
          </g>
          <g id="shape-ef199d1f-19b8-809f-8004-7ead7f66cde1" style="opacity:1">
            <g class="fills" id="fills-ef199d1f-19b8-809f-8004-7ead7f66cde1">
              <path d="M3205.094,122.319C3205.016,121.631,3205.099,120.964,3205.345,120.316C3206.805,118.953,3208.725,117.785,3211.105,116.811C3211.535,116.192,3211.868,115.524,3212.107,114.808C3213.242,114.400,3214.412,114.150,3215.614,114.056C3215.280,113.890,3214.946,113.723,3214.612,113.556C3215.288,113.169,3215.705,112.585,3215.864,111.803C3216.031,112.137,3216.199,112.471,3216.365,112.805C3216.678,111.821,3216.427,110.986,3215.614,110.301C3216.616,109.967,3217.618,109.633,3218.620,109.299C3218.285,108.965,3217.952,108.632,3217.618,108.298C3217.945,107.489,3218.196,106.654,3218.369,105.794C3220.338,104.530,3221.089,102.694,3220.623,100.285C3221.352,97.062,3220.099,95.226,3216.866,94.777C3215.454,95.225,3214.034,95.643,3212.608,96.029C3213.207,96.357,3213.207,96.607,3212.608,96.780C3211.640,96.269,3210.639,96.186,3209.603,96.530C3208.499,97.649,3207.163,98.233,3205.595,98.282C3205.670,98.809,3205.587,99.310,3205.345,99.785C3205.136,99.156,3204.718,98.822,3204.092,98.783C3210.286,94.716,3216.965,91.711,3224.130,89.769C3223.701,97.995,3221.781,105.840,3218.369,113.305C3214.060,116.501,3209.635,119.505,3205.094,122.319ZZ" style="shape-rendering:geometricPrecision;text-rendering:geometricPrecision;image-rendering:optimizeQuality;fill-rule:evenodd;clip-rule:evenodd;fill:#fddd08">
              </path>
            </g>
          </g>
          <g id="shape-ef199d1f-19b8-809f-8004-7ead7f671eb3" style="opacity:0.004">
            <g class="fills" id="fills-ef199d1f-19b8-809f-8004-7ead7f671eb3">
              <path d="M3229.139,106.795C3229.139,107.463,3228.805,107.797,3228.137,107.797C3228.304,107.296,3228.638,106.962,3229.139,106.795ZZ" style="shape-rendering:geometricPrecision;text-rendering:geometricPrecision;image-rendering:optimizeQuality;fill-rule:evenodd;clip-rule:evenodd;fill:#ececec">
              </path>
            </g>
          </g>
          <g id="shape-ef199d1f-19b8-809f-8004-7ead7f679615" style="opacity:1">
            <g class="fills" id="fills-ef199d1f-19b8-809f-8004-7ead7f679615">
              <path d="M3257.693,114.056C3257.693,114.056,3257.693,112.805,3257.693,112.304C3257.025,112.304,3256.357,112.304,3255.689,112.304C3255.745,111.995,3255.912,111.744,3256.190,111.553C3255.522,111.469,3254.854,111.386,3254.186,111.302C3252.178,111.638,3250.174,111.972,3248.175,112.304C3251.011,111.166,3254.017,110.498,3257.192,110.301C3258.011,110.574,3258.846,110.741,3259.697,110.802M3259.196,112.304" style="shape-rendering:geometricPrecision;text-rendering:geometricPrecision;image-rendering:optimizeQuality;fill-rule:evenodd;clip-rule:evenodd;fill:#251f1f">
              </path>
            </g>
          </g>
          <g id="shape-ef199d1f-19b8-809f-8004-7ead7f69e1fd" style="opacity:1">
            <g class="fills" id="fills-ef199d1f-19b8-809f-8004-7ead7f69e1fd">
              <path d="M3092.883,110.301C3094.133,110.651,3095.302,111.152,3096.390,111.803C3103.104,118.099,3110.451,123.524,3118.431,128.078C3119.250,128.325,3120.085,128.408,3120.936,128.328C3121.270,128.328,3121.437,128.495,3121.437,128.829C3119.948,130.458,3118.696,132.294,3117.680,134.337C3117.072,139.821,3116.738,145.330,3116.678,150.863C3115.872,154.197,3115.120,157.535,3114.424,160.878C3113.688,162.848,3113.187,164.935,3112.921,167.137C3112.839,168.411,3113.923,172.061,3113.923,172.896C3113.956,173.116,3113.872,173.283,3113.672,173.397C3113.246,172.861,3112.828,172.360,3112.420,171.895C3111.138,168.231,3111.138,164.558,3112.420,160.878C3112.977,159.827,3113.311,158.658,3113.422,157.373C3113.422,157.206,3113.422,157.039,3113.422,156.872C3114.514,155.429,3115.015,153.760,3114.925,151.864C3114.828,146.007,3115.078,140.164,3115.676,134.337C3116.336,132.847,3117.088,131.428,3117.930,130.081C3117.493,129.558,3116.992,129.140,3116.427,128.829C3115.833,127.590,3107.674,122.783,3106.910,122.820C3104.111,121.172,3098.346,115.427,3097.392,115.308C3095.708,113.959,3094.205,112.457,3092.883,110.802C3092.883,110.635,3092.883,110.468,3092.883,110.301ZL3092.883,110.301Z" style="shape-rendering:geometricPrecision;text-rendering:geometricPrecision;image-rendering:optimizeQuality;fill-rule:evenodd;clip-rule:evenodd;fill:#251f1f">
              </path>
            </g>
          </g>
          <g id="shape-ef199d1f-19b8-809f-8004-7ead7f6ad8e9" style="opacity:1">
            <g class="fills" id="fills-ef199d1f-19b8-809f-8004-7ead7f6ad8e9">
              <path d="M3121.437,128.829C3121.437,128.495,3121.270,128.328,3120.936,128.328C3121.607,126.469,3122.776,125.468,3124.443,125.324C3123.415,126.514,3122.413,127.683,3121.437,128.829ZZ" style="shape-rendering:geometricPrecision;text-rendering:geometricPrecision;image-rendering:optimizeQuality;fill-rule:evenodd;clip-rule:evenodd;fill:#59350d">
              </path>
            </g>
          </g>
          <g id="shape-ef199d1f-19b8-809f-8004-7ead7f6b4a23" style="opacity:1">
            <g class="fills" id="fills-ef199d1f-19b8-809f-8004-7ead7f6b4a23">
              <path d="M3129.953,142.850C3139.557,142.792,3142.396,147.049,3138.469,155.620C3133.793,158.902,3129.535,158.485,3125.695,154.368C3123.506,149.009,3124.926,145.170,3129.953,142.850ZZ" style="shape-rendering:geometricPrecision;text-rendering:geometricPrecision;image-rendering:optimizeQuality;fill-rule:evenodd;clip-rule:evenodd;fill:#0e0907">
              </path>
            </g>
          </g>
          <g id="shape-ef199d1f-19b8-809f-8004-7ead7f6b8d8e" style="opacity:1">
            <g class="fills" id="fills-ef199d1f-19b8-809f-8004-7ead7f6b8d8e">
              <path d="M3178.544,142.850C3181.619,142.466,3184.458,143.050,3187.060,144.603C3189.444,146.852,3190.196,149.606,3189.315,152.866C3188.349,155.333,3186.596,156.919,3184.055,157.623C3178.445,158.657,3174.938,156.404,3173.535,150.863C3173.788,147.278,3175.457,144.608,3178.544,142.850ZZ" style="shape-rendering:geometricPrecision;text-rendering:geometricPrecision;image-rendering:optimizeQuality;fill-rule:evenodd;clip-rule:evenodd;fill:#0e0906">
              </path>
            </g>
          </g>
          <g id="shape-ef199d1f-19b8-809f-8004-7ead7f6c2af1" style="opacity:1">
            <g class="fills" id="fills-ef199d1f-19b8-809f-8004-7ead7f6c2af1">
              <path d="M3255.689,112.304C3256.357,112.304,3257.025,112.304,3257.693,112.304C3257.693,112.805,3257.693,113.305,3257.693,113.806C3256.630,126.189,3254.376,138.375,3250.930,150.362C3250.478,150.963,3249.894,151.381,3249.177,151.614C3244.132,152.772,3239.123,154.024,3234.149,155.369C3234.358,155.008,3234.692,154.758,3235.151,154.618C3234.817,154.452,3234.483,154.284,3234.149,154.118C3238.343,152.195,3242.684,150.692,3247.173,149.611C3248.177,148.898,3248.929,147.980,3249.427,146.856C3249.927,143.871,3250.261,140.867,3250.429,137.843C3252.312,131.882,3253.983,125.873,3255.439,119.815C3255.606,120.149,3255.773,120.483,3255.940,120.817C3256.521,118.167,3256.938,115.496,3257.192,112.805C3254.862,113.054,3252.524,113.221,3250.179,113.305C3251.887,112.603,3253.723,112.269,3255.689,112.304ZL3255.689,112.304Z" style="shape-rendering:geometricPrecision;text-rendering:geometricPrecision;image-rendering:optimizeQuality;fill-rule:evenodd;clip-rule:evenodd;fill:#ebbb1f">
              </path>
            </g>
          </g>
          <g id="shape-ef199d1f-19b8-809f-8004-7ead7f6c4864" style="opacity:1">
            <g class="fills" id="fills-ef199d1f-19b8-809f-8004-7ead7f6c4864">
              <path d="M3177.542,144.853C3181.768,144.535,3182.937,146.288,3181.049,150.111C3177.629,151.025,3176.043,149.773,3176.290,146.356C3176.640,145.759,3177.057,145.259,3177.542,144.853ZZ" style="shape-rendering:geometricPrecision;text-rendering:geometricPrecision;image-rendering:optimizeQuality;fill-rule:evenodd;clip-rule:evenodd;fill:#f2f1e7">
              </path>
            </g>
          </g>
          <g id="shape-ef199d1f-19b8-809f-8004-7ead7f6cb1e3" style="opacity:1">
            <g class="fills" id="fills-ef199d1f-19b8-809f-8004-7ead7f6cb1e3">
              <path d="M3133.960,144.353C3136.866,144.491,3138.119,145.993,3137.718,148.860C3135.881,150.863,3134.044,150.863,3132.207,148.860C3131.686,146.902,3132.270,145.399,3133.960,144.353ZZ" style="shape-rendering:geometricPrecision;text-rendering:geometricPrecision;image-rendering:optimizeQuality;fill-rule:evenodd;clip-rule:evenodd;fill:#f5f4e8">
              </path>
            </g>
          </g>
          <g id="shape-ef199d1f-19b8-809f-8004-7ead7f6cde9e" style="opacity:1">
            <g class="fills" id="fills-ef199d1f-19b8-809f-8004-7ead7f6cde9e">
              <path d="M3197.580,133.336C3198.245,136.482,3198.746,139.654,3199.083,142.850C3199.042,147.207,3199.293,151.546,3199.834,155.870C3200.839,157.391,3201.257,159.060,3201.087,160.878C3200.685,160.151,3200.434,159.316,3200.335,158.374C3200.088,159.192,3200.005,160.027,3200.085,160.878C3198.764,151.927,3197.596,142.913,3196.578,133.837C3196.912,133.670,3197.246,133.503,3197.580,133.336ZZ" style="shape-rendering:geometricPrecision;text-rendering:geometricPrecision;image-rendering:optimizeQuality;fill-rule:evenodd;clip-rule:evenodd;fill:#251f1f">
              </path>
            </g>
          </g>
          <g id="shape-ef199d1f-19b8-809f-8004-7ead7f6cde9f" style="opacity:0.961">
            <g class="fills" id="fills-ef199d1f-19b8-809f-8004-7ead7f6cde9f">
              <path d="M3114.925,151.864C3115.015,153.760,3114.514,155.429,3113.422,156.872C3113.622,155.061,3114.123,153.391,3114.925,151.864ZZ" style="shape-rendering:geometricPrecision;text-rendering:geometricPrecision;image-rendering:optimizeQuality;fill-rule:evenodd;clip-rule:evenodd;fill:#251f1f">
              </path>
            </g>
          </g>
          <g id="shape-ef199d1f-19b8-809f-8004-7ead7f6d05d2" style="opacity:1">
            <g class="fills" id="fills-ef199d1f-19b8-809f-8004-7ead7f6d05d2">
              <path d="M3156.002,155.870C3157.216,155.716,3158.385,155.883,3159.508,156.371C3158.924,156.538,3158.340,156.705,3157.755,156.872C3156.913,156.818,3156.328,156.484,3156.002,155.870ZZ" style="shape-rendering:geometricPrecision;text-rendering:geometricPrecision;image-rendering:optimizeQuality;fill-rule:evenodd;clip-rule:evenodd;fill:#1e0e04">
              </path>
            </g>
          </g>
          <g id="shape-ef199d1f-19b8-809f-8004-7ead7f6d05d3" style="opacity:0.031">
            <g class="fills" id="fills-ef199d1f-19b8-809f-8004-7ead7f6d05d3">
              <path d="M3113.422,157.373C3113.311,158.658,3112.977,159.827,3112.420,160.878C3112.255,159.512,3112.589,158.343,3113.422,157.373ZZ" style="shape-rendering:geometricPrecision;text-rendering:geometricPrecision;image-rendering:optimizeQuality;fill-rule:evenodd;clip-rule:evenodd;fill:#d6d5d7">
              </path>
            </g>
          </g>
          <g id="shape-ef199d1f-19b8-809f-8004-7ead7f6e52ba" style="opacity:1">
            <g class="fills" id="fills-ef199d1f-19b8-809f-8004-7ead7f6e52ba">
              <path d="M3254.437,145.354C3253.822,147.867,3252.820,150.204,3251.431,152.365C3239.617,155.693,3227.761,158.864,3215.864,161.879C3221.078,168.438,3226.755,174.782,3232.896,180.908C3233.435,181.693,3233.853,182.528,3234.149,183.412C3233.982,183.746,3233.815,184.080,3233.648,184.414C3226.012,187.790,3218.332,190.961,3210.605,193.928C3211.801,196.473,3213.387,198.810,3215.363,200.939C3215.698,201.440,3215.698,201.940,3215.363,202.441C3212.735,203.989,3209.896,205.157,3206.847,205.947C3206.262,206.201,3205.845,206.619,3205.595,207.198C3209.132,211.316,3211.136,216.074,3211.606,221.470C3211.606,222.305,3211.606,223.139,3211.606,223.974C3212.407,224.108,3213.075,223.941,3213.610,223.473C3216.447,221.827,3219.453,221.577,3222.627,222.722C3224.591,225.162,3224.591,227.583,3222.627,229.983C3221.923,230.220,3221.589,230.721,3221.625,231.485C3220.796,232.814,3219.794,233.982,3218.620,234.991C3217.576,235.256,3216.657,235.757,3215.864,236.493C3215.665,236.379,3215.581,236.212,3215.614,235.992C3217.249,233.769,3219.002,231.599,3220.874,229.482C3221.270,228.859,3221.521,228.191,3221.625,227.479C3222.115,227.324,3222.449,226.990,3222.627,226.478C3222.239,225.871,3221.822,225.871,3221.375,226.478C3221.142,226.180,3221.059,225.846,3221.124,225.476C3221.232,224.636,3220.898,224.135,3220.122,223.974C3219.621,223.974,3219.121,223.974,3218.620,223.974C3218.590,223.702,3218.423,223.535,3218.119,223.473C3214.699,224.218,3211.694,225.721,3209.102,227.980C3208.768,227.980,3208.601,227.813,3208.601,227.479C3209.081,227.253,3209.498,226.919,3209.853,226.478C3210.187,224.308,3210.187,222.138,3209.853,219.968C3207.627,214.183,3204.872,208.674,3201.588,203.443C3201.588,203.109,3201.754,202.942,3202.089,202.942C3202.637,203.872,3203.305,204.707,3204.092,205.446C3206.869,204.141,3209.708,202.973,3212.608,201.940C3212.613,201.035,3212.362,200.200,3211.857,199.437C3210.265,197.580,3208.679,195.744,3207.098,193.928C3212.798,191.383,3218.475,188.880,3224.130,186.417C3226.699,185.383,3229.204,184.214,3231.644,182.911C3229.508,180.185,3227.171,177.681,3224.631,175.400C3220.811,170.995,3216.886,166.655,3212.859,162.380C3212.617,161.905,3212.534,161.405,3212.608,160.878C3219.776,158.961,3226.956,157.125,3234.149,155.369C3239.123,154.024,3244.132,152.772,3249.177,151.614C3249.894,151.381,3250.478,150.963,3250.930,150.362C3254.376,138.375,3256.630,126.189,3257.693,113.806C3258.161,113.271,3259.697,110.802,3259.697,110.802" style="shape-rendering:geometricPrecision;text-rendering:geometricPrecision;image-rendering:optimizeQuality;fill-rule:evenodd;clip-rule:evenodd;fill:#251f1f">
              </path>
            </g>
          </g>
          <g id="shape-ef199d1f-19b8-809f-8004-7ead7f6e9aa0" style="opacity:1">
            <g class="fills" id="fills-ef199d1f-19b8-809f-8004-7ead7f6e9aa0">
              <path d="M3114.424,160.878C3114.522,161.953,3115.023,162.036,3115.927,161.128C3118.264,160.794,3120.602,160.794,3122.940,161.128C3123.984,161.477,3124.819,162.062,3125.444,162.881C3122.104,161.576,3118.764,161.576,3115.426,162.881C3115.026,163.110,3114.859,163.444,3114.925,163.882C3114.563,164.092,3114.313,164.425,3114.173,164.884C3113.923,166.713,3113.923,170.392,3113.923,170.392C3113.923,170.392,3114.093,173.269,3113.923,172.896C3113.609,172.208,3112.868,167.963,3112.921,167.137C3113.187,164.935,3113.688,162.848,3114.424,160.878ZL3114.424,160.878Z" style="shape-rendering:geometricPrecision;text-rendering:geometricPrecision;image-rendering:optimizeQuality;fill-rule:evenodd;clip-rule:evenodd;fill:#f11f43">
              </path>
            </g>
          </g>
          <g id="shape-ef199d1f-19b8-809f-8004-7ead7f6ece4b" style="opacity:1">
            <g class="fills" id="fills-ef199d1f-19b8-809f-8004-7ead7f6ece4b">
              <path d="M3201.087,160.878C3202.599,165.959,3202.265,170.966,3200.085,175.901C3199.751,175.901,3199.417,175.901,3199.083,175.901C3199.083,175.567,3199.083,175.233,3199.083,174.899C3199.893,174.087,3200.477,173.086,3200.836,171.895C3201.170,169.558,3201.170,167.221,3200.836,164.884C3199.357,163.769,3197.770,162.851,3196.077,162.130C3196.552,161.888,3197.053,161.805,3197.580,161.879C3198.644,162.718,3199.813,163.135,3201.087,163.131C3200.702,162.395,3200.369,161.644,3200.085,160.878C3200.005,160.027,3200.088,159.192,3200.335,158.374C3200.434,159.316,3200.685,160.151,3201.087,160.878ZZ" style="shape-rendering:geometricPrecision;text-rendering:geometricPrecision;image-rendering:optimizeQuality;fill-rule:evenodd;clip-rule:evenodd;fill:#251f1f">
              </path>
            </g>
          </g>
          <g id="shape-ef199d1f-19b8-809f-8004-7ead7f6f9b84" style="opacity:1">
            <g class="fills" id="fills-ef199d1f-19b8-809f-8004-7ead7f6f9b84">
              <path d="M3156.002,164.884C3159.389,165.779,3162.812,166.614,3166.271,167.388C3168.426,167.365,3170.346,166.698,3172.032,165.385C3172.199,165.551,3172.366,165.719,3172.533,165.885C3170.792,167.552,3168.705,168.386,3166.271,168.389C3163.289,167.776,3160.367,166.941,3157.505,165.885C3154.901,166.865,3152.229,167.533,3149.490,167.889C3147.464,168.068,3145.628,167.567,3143.979,166.386C3143.312,166.052,3143.312,165.719,3143.979,165.385C3148.094,168.043,3152.101,167.876,3156.002,164.884ZZ" style="shape-rendering:geometricPrecision;text-rendering:geometricPrecision;image-rendering:optimizeQuality;fill-rule:evenodd;clip-rule:evenodd;fill:#472c0e">
              </path>
            </g>
          </g>
          <g id="shape-ef199d1f-19b8-809f-8004-7ead7f7056ad" style="opacity:1">
            <g class="fills" id="fills-ef199d1f-19b8-809f-8004-7ead7f7056ad">
              <path d="M3191.068,163.382C3190.220,164.235,3189.552,165.237,3189.064,166.386C3188.304,166.392,3187.720,166.725,3187.311,167.388C3186.633,168.693,3185.882,169.862,3185.056,170.893C3185.982,167.470,3187.986,164.967,3191.068,163.382ZZ" style="shape-rendering:geometricPrecision;text-rendering:geometricPrecision;image-rendering:optimizeQuality;fill-rule:evenodd;clip-rule:evenodd;fill:#f11f43">
              </path>
            </g>
          </g>
          <g id="shape-ef199d1f-19b8-809f-8004-7eadbf667eb6">
            <g class="fills" id="fills-ef199d1f-19b8-809f-8004-7eadbf667eb6">
              <path d="M3199.834,174.899C3199.834,175.254,3199.083,175.546,3199.083,175.901C3198.130,177.789,3197.552,179.166,3195.621,180.113C3192.801,180.307,3190.097,179.864,3187.510,178.784C3185.899,176.257,3184.997,173.510,3184.806,170.543C3185.697,169.448,3186.508,168.208,3187.239,166.822C3187.681,166.119,3188.312,165.764,3189.132,165.759C3189.197,165.695,3189.302,165.627,3189.441,165.556C3189.898,164.745,3190.432,164.022,3191.068,163.382C3192.895,161.398,3195.065,160.897,3197.580,161.879C3197.053,161.805,3196.552,161.888,3196.077,162.130C3197.770,162.851,3199.357,163.769,3200.836,164.884C3201.170,167.221,3201.170,169.558,3200.836,171.895C3200.713,172.304,3200.563,172.691,3200.386,173.056C3200.264,173.673,3200.089,174.289,3199.834,174.899ZL3199.834,174.899ZM3191.238,164.893C3191.181,164.891,3191.125,164.888,3191.068,164.884C3191.071,164.909,3191.074,164.933,3191.077,164.958C3191.094,164.948,3191.157,164.928,3191.238,164.893Z" style="fill:#f11f43">
              </path>
            </g>
          </g>
          <g id="shape-ef199d1f-19b8-809f-8004-7ead7f70cb87" style="opacity:1">
            <g class="fills" id="fills-ef199d1f-19b8-809f-8004-7ead7f70cb87">
              <path d="M3125.444,162.881C3126.555,163.233,3127.473,163.900,3128.200,164.884C3131.537,169.830,3131.120,174.420,3126.947,178.655C3125.245,179.334,3123.742,180.252,3122.439,181.409C3122.105,181.409,3121.938,181.242,3121.938,180.908C3121.340,180.522,3120.839,180.021,3120.435,179.406C3122.563,179.567,3124.566,179.150,3126.446,178.154C3129.505,174.898,3130.256,171.143,3128.701,166.887C3127.657,165.435,3126.571,164.100,3125.444,162.881ZZ" style="shape-rendering:geometricPrecision;text-rendering:geometricPrecision;image-rendering:optimizeQuality;fill-rule:evenodd;clip-rule:evenodd;fill:#f11f43">
              </path>
            </g>
          </g>
          <g id="shape-ef199d1f-19b8-809f-8004-7ead7f71238c" style="opacity:1">
            <g class="fills" id="fills-ef199d1f-19b8-809f-8004-7ead7f71238c">
              <path d="M3112.420,171.895C3112.828,172.360,3113.246,172.861,3113.672,173.397C3113.872,173.283,3113.923,172.896,3113.923,172.896C3113.923,172.896,3114.925,174.649,3116.928,176.402C3117.033,176.493,3115.318,176.737,3115.426,177.153C3114.987,177.218,3114.152,175.800,3113.923,175.400C3113.161,174.317,3112.661,173.149,3112.420,171.895ZL3112.420,171.895Z" style="shape-rendering:geometricPrecision;text-rendering:geometricPrecision;image-rendering:optimizeQuality;fill-rule:evenodd;clip-rule:evenodd;fill:#251f1f">
              </path>
            </g>
          </g>
          <g id="shape-ef199d1f-19b8-809f-8004-7ead7f7159d7" style="opacity:1">
            <g class="fills" id="fills-ef199d1f-19b8-809f-8004-7ead7f7159d7">
              <path d="M3113.923,170.392C3114.257,170.726,3114.591,171.060,3114.925,171.394C3114.959,172.688,3115.544,173.689,3116.678,174.398C3116.923,175.046,3117.007,175.714,3116.928,176.402C3116.323,176.034,3114.316,173.835,3113.923,172.896C3113.923,172.061,3113.923,171.227,3113.923,170.392ZL3113.923,170.392Z" style="shape-rendering:geometricPrecision;text-rendering:geometricPrecision;image-rendering:optimizeQuality;fill-rule:evenodd;clip-rule:evenodd;fill:#f11f43">
              </path>
            </g>
          </g>
          <g id="shape-ef199d1f-19b8-809f-8004-7ead7f7249ff" style="opacity:1">
            <g class="fills" id="fills-ef199d1f-19b8-809f-8004-7ead7f7249ff">
              <path d="M3185.056,170.893C3185.234,173.687,3186.069,176.275,3187.561,178.655C3189.958,179.673,3192.462,180.090,3195.075,179.907C3195.161,180.404,3194.994,180.737,3194.574,180.908C3193.406,180.908,3192.236,180.908,3191.068,180.908C3185.707,179.533,3183.703,176.195,3185.056,170.893ZZ" style="shape-rendering:geometricPrecision;text-rendering:geometricPrecision;image-rendering:optimizeQuality;fill-rule:evenodd;clip-rule:evenodd;fill:#251f1f">
              </path>
            </g>
          </g>
          <g id="shape-ef199d1f-19b8-809f-8004-7ead7f72ac2d" style="opacity:0.067">
            <g class="fills" id="fills-ef199d1f-19b8-809f-8004-7ead7f72ac2d">
              <path d="M3116.427,177.904C3120.165,180.660,3121.000,184.165,3118.932,188.420C3119.184,186.080,3119.268,183.743,3119.183,181.409C3117.954,180.437,3117.035,179.268,3116.427,177.904ZZ" style="shape-rendering:geometricPrecision;text-rendering:geometricPrecision;image-rendering:optimizeQuality;fill-rule:evenodd;clip-rule:evenodd;fill:#c1c1c3">
              </path>
            </g>
          </g>
          <g id="shape-ef199d1f-19b8-809f-8004-7ead8d9e078c">
            <g class="fills" id="fills-ef199d1f-19b8-809f-8004-7ead8d9e078c">
              <path d="M3125.444,162.881C3126.571,164.100,3127.657,165.435,3128.701,166.887C3130.256,171.143,3129.505,174.898,3126.446,178.154C3124.566,179.150,3122.563,179.567,3120.435,179.406C3119.254,178.390,3118.085,177.389,3116.928,176.402C3117.007,175.714,3116.923,175.046,3116.678,174.398C3115.561,173.700,3114.978,172.719,3114.927,171.454C3114.926,171.435,3114.925,171.417,3114.925,171.398C3114.591,171.060,3114.257,170.726,3113.923,170.392C3113.840,168.549,3113.923,166.713,3114.173,164.884C3114.312,164.429,3114.559,164.097,3114.916,163.887C3114.919,163.886,3114.922,163.884,3114.925,163.882C3114.859,163.444,3115.026,163.110,3115.426,162.881C3118.764,161.576,3122.104,161.576,3125.444,162.881ZL3125.444,162.881ZM3114.925,171.398C3114.925,171.396,3114.925,171.395,3114.925,171.398ZC3114.955,171.394,3114.986,171.394,3114.925,171.398ZC3115.479,171.394,3115.942,171.394,3116.404,171.394C3116.412,171.394,3116.420,171.394,3116.427,171.394C3116.431,171.416,3116.434,171.438,3116.438,171.460C3116.549,172.143,3116.724,172.805,3116.964,173.447M3117.912,175.371C3117.918,175.381,3117.924,175.390,3117.912,175.371ZC3117.950,175.406,3117.970,175.411,3117.912,175.371ZM3121.412,177.134C3121.421,177.140,3121.429,177.146,3121.412,177.134ZC3121.455,177.155,3121.474,177.157,3121.412,177.134ZM3124.917,177.895C3124.926,177.898,3124.935,177.901,3124.917,177.895ZC3124.960,177.883,3124.977,177.863,3124.917,177.895ZM3127.178,173.475C3127.185,173.449,3127.191,173.423,3127.178,173.475ZC3127.208,173.428,3127.218,173.459,3127.178,173.475ZC3127.383,173.952,3127.537,174.414,3127.691,174.876C3127.693,174.884,3127.696,174.891,3127.699,174.899C3127.704,174.884,3127.709,174.868,3127.713,174.852M3127.275,168.330C3127.250,168.325,3127.227,168.339,3127.275,168.330ZC3127.203,168.379,3127.200,168.384,3127.275,168.330ZC3127.193,168.366,3127.188,168.342,3127.275,168.330ZM3121.512,164.375C3121.487,164.378,3121.462,164.380,3121.512,164.375ZC3121.437,164.362,3121.437,164.342,3121.512,164.375ZC3121.437,163.679,3121.437,163.037,3121.437,162.396C3121.437,162.391,3121.437,162.385,3121.437,162.380C3121.419,162.379,3121.401,162.377,3121.383,162.376M3114.971,163.855C3114.956,163.864,3114.940,163.873,3114.971,163.855Z" style="fill:#f11f43">
              </path>
            </g>
          </g>
          <g id="shape-ef199d1f-19b8-809f-8004-7ead7f7327df" style="opacity:1">
            <g class="fills" id="fills-ef199d1f-19b8-809f-8004-7ead7f7327df">
              <path d="M3191.068,180.908C3192.236,180.908,3193.406,180.908,3194.574,180.908C3194.661,181.405,3194.493,181.739,3194.073,181.910C3193.072,181.576,3192.070,181.242,3191.068,180.908ZZ" style="shape-rendering:geometricPrecision;text-rendering:geometricPrecision;image-rendering:optimizeQuality;fill-rule:evenodd;clip-rule:evenodd;fill:#fddd08">
              </path>
            </g>
          </g>
          <g id="shape-ef199d1f-19b8-809f-8004-7eae5e2cb18c">
            <g class="fills" id="fills-ef199d1f-19b8-809f-8004-7eae5e2cb18c">
              <path d="M3209.603,181.910C3206.311,180.019,3203.138,178.015,3200.085,175.901C3202.265,170.966,3202.599,165.959,3201.087,160.878C3201.257,159.060,3200.839,157.391,3199.834,155.870C3199.295,151.563,3199.044,147.240,3199.082,142.901C3199.083,142.884,3199.083,142.867,3199.083,142.850C3198.746,139.654,3198.245,136.482,3197.580,133.336C3212.134,125.812,3227.298,119.812,3243.071,115.335C3243.102,115.326,3243.134,115.317,3243.166,115.308C3245.322,114.184,3247.660,113.516,3250.179,113.305C3252.524,113.221,3254.862,113.054,3257.192,112.805C3256.938,115.496,3256.521,118.167,3255.940,120.817C3255.773,120.483,3255.606,120.149,3255.439,119.815C3253.983,125.873,3252.312,131.882,3250.429,137.843C3250.261,140.867,3249.927,143.871,3249.427,146.856C3248.929,147.980,3248.177,148.898,3247.173,149.611C3242.684,150.692,3238.343,152.195,3234.149,154.118C3234.483,154.284,3234.817,154.452,3235.151,154.618C3234.692,154.758,3234.358,155.008,3234.149,155.369L3234.149,155.369C3226.956,157.125,3219.776,158.961,3212.608,160.878C3212.534,161.405,3212.617,161.905,3212.859,162.380C3216.871,166.638,3220.780,170.961,3224.586,175.348C3224.599,175.363,3224.612,175.379,3224.625,175.394C3224.627,175.396,3224.629,175.398,3224.631,175.400C3227.171,177.681,3229.508,180.185,3231.644,182.911C3229.223,184.204,3226.738,185.364,3224.190,186.393C3224.170,186.401,3224.150,186.409,3224.130,186.417C3218.475,188.880,3212.798,191.383,3207.098,193.928C3208.679,195.744,3210.265,197.580,3211.857,199.437C3212.362,200.200,3212.613,201.035,3212.608,201.940C3209.708,202.973,3206.869,204.141,3204.092,205.446C3203.305,204.707,3202.637,203.872,3202.089,202.942C3200.083,199.011,3198.413,194.922,3197.079,190.673C3200.351,187.860,3204.025,185.523,3208.100,183.663C3208.858,183.294,3209.352,182.734,3209.603,181.910ZC3209.589,181.959,3209.596,181.935,3209.603,181.910ZC3209.625,181.923,3209.646,181.936,3209.603,181.910ZC3209.983,182.153,3210.208,182.459,3210.341,182.869C3210.345,182.883,3210.350,182.897,3210.354,182.911C3210.362,182.894,3210.370,182.877,3210.378,182.860M3225.273,179.828C3225.497,180.097,3225.751,180.347,3226.035,180.579C3226.042,180.585,3226.048,180.590,3226.055,180.595M3199.083,142.850C3199.088,142.834,3199.093,142.817,3199.083,142.850ZM3199.584,139.375C3199.584,139.365,3199.584,139.355,3199.584,139.375ZC3199.579,139.314,3199.574,139.283,3199.569,139.252M3198.841,133.428C3198.838,133.398,3198.835,133.367,3198.841,133.428ZC3198.850,133.345,3198.868,133.355,3198.841,133.428ZM3202.311,133.350C3202.320,133.345,3202.330,133.341,3202.311,133.350ZC3202.356,133.317,3202.373,133.298,3202.390,133.278M3232.216,120.681C3232.327,120.651,3232.438,120.621,3232.550,120.592C3232.582,120.583,3232.614,120.575,3232.646,120.566C3232.625,120.546,3232.605,120.525,3232.584,120.504C3232.439,120.359,3232.294,120.214,3232.149,120.070C3232.148,120.068,3232.146,120.067,3232.145,120.066C3232.158,120.055,3232.170,120.044,3232.183,120.033M3237.854,117.814C3237.871,117.813,3237.889,117.813,3237.854,117.814ZC3237.933,117.797,3237.960,117.781,3237.987,117.766M3243.096,115.335C3243.119,115.326,3243.142,115.317,3243.096,115.335ZM3212.562,181.888C3212.578,181.895,3212.593,181.903,3212.562,181.888ZC3212.629,181.888,3212.650,181.866,3212.671,181.844M3215.067,180.906C3215.082,180.907,3215.097,180.907,3215.067,180.906ZC3215.111,180.882,3215.108,180.856,3215.067,180.906ZM3215.591,175.977C3215.599,175.952,3215.606,175.926,3215.591,175.977ZC3215.629,175.914,3215.645,175.926,3215.591,175.977ZM3219.059,176.910C3219.079,176.907,3219.100,176.905,3219.059,176.910ZC3219.116,176.932,3219.112,176.961,3219.059,176.910ZM3221.580,179.904C3221.595,179.905,3221.610,179.906,3221.580,179.904ZC3221.650,179.892,3221.675,179.877,3221.699,179.862M3224.089,179.642C3224.103,179.646,3224.116,179.651,3224.089,179.642ZC3224.145,179.682,3224.159,179.707,3224.174,179.732M3226.054,180.673C3226.081,180.668,3226.107,180.663,3226.054,180.673ZC3226.118,180.646,3226.103,180.634,3226.054,180.673ZM3223.448,177.892C3223.424,177.884,3223.404,177.885,3223.448,177.892ZC3223.385,177.897,3223.382,177.900,3223.448,177.892ZC3223.372,177.885,3223.365,177.866,3223.358,177.848M3224.571,175.906C3224.586,175.905,3224.601,175.903,3224.571,175.906ZC3224.621,175.902,3224.626,175.901,3224.571,175.906ZM3224.619,175.958C3224.624,175.939,3224.627,175.920,3224.619,175.958ZC3224.631,175.755,3224.631,175.610,3224.631,175.464C3224.631,175.443,3224.631,175.423,3224.631,175.402C3224.631,175.401,3224.631,175.401,3224.631,175.400" style="fill:#ebbb1f">
              </path>
            </g>
          </g>
          <g id="shape-ef199d1f-19b8-809f-8004-7ead7f7370af" style="opacity:1">
            <g class="fills" id="fills-ef199d1f-19b8-809f-8004-7ead7f7370af">
              <path d="M3121.938,180.908C3121.938,181.242,3122.105,181.409,3122.439,181.409C3128.038,185.629,3134.049,189.218,3140.473,192.176C3139.972,192.510,3139.471,192.510,3138.970,192.176C3132.870,189.548,3127.193,186.293,3121.938,182.411C3121.374,181.834,3121.374,181.333,3121.938,180.908ZZ" style="shape-rendering:geometricPrecision;text-rendering:geometricPrecision;image-rendering:optimizeQuality;fill-rule:evenodd;clip-rule:evenodd;fill:#472e1b">
              </path>
            </g>
          </g>
          <g id="shape-ef199d1f-19b8-809f-8004-7ead7f73da06" style="opacity:1">
            <g class="fills" id="fills-ef199d1f-19b8-809f-8004-7ead7f73da06">
              <path d="M3199.083,175.901C3199.417,175.901,3199.751,175.901,3200.085,175.901C3203.138,178.015,3206.311,180.019,3209.603,181.910C3209.384,182.698,3208.883,183.283,3208.100,183.663C3204.025,185.523,3200.351,187.860,3197.079,190.673C3198.413,194.922,3200.083,199.011,3202.089,202.942C3201.754,202.942,3201.588,203.109,3201.588,203.443C3198.130,197.189,3195.792,190.512,3194.574,183.412C3194.546,182.857,3194.379,182.356,3194.073,181.910C3194.493,181.739,3194.661,181.405,3194.574,180.908C3194.994,180.737,3195.161,180.404,3195.075,179.907C3196.864,179.015,3198.200,177.679,3199.083,175.901ZZM3199.584,176.902C3202.305,178.530,3204.977,180.283,3207.599,182.160C3204.092,184.414,3200.586,186.667,3197.079,188.921C3196.732,188.658,3196.482,188.324,3196.328,187.919C3195.921,185.918,3195.755,183.915,3195.827,181.910C3197.188,180.302,3198.440,178.633,3199.584,176.902ZZ" style="shape-rendering:geometricPrecision;text-rendering:geometricPrecision;image-rendering:optimizeQuality;fill-rule:evenodd;clip-rule:evenodd;fill:#251f1f">
              </path>
            </g>
          </g>
          <g id="shape-ef199d1f-19b8-809f-8004-7ead7f74478e" style="opacity:1">
            <g class="fills" id="fills-ef199d1f-19b8-809f-8004-7ead7f74478e">
              <path d="M3194.073,181.910C3194.379,182.356,3194.546,182.857,3194.574,183.412C3191.020,185.372,3187.513,187.458,3184.055,189.672C3180.662,191.368,3177.155,192.787,3173.535,193.928C3173.368,193.761,3173.201,193.594,3173.034,193.427C3180.814,190.877,3187.827,187.037,3194.073,181.910ZZ" style="shape-rendering:geometricPrecision;text-rendering:geometricPrecision;image-rendering:optimizeQuality;fill-rule:evenodd;clip-rule:evenodd;fill:#442d0b">
              </path>
            </g>
          </g>
          <g id="shape-ef199d1f-19b8-809f-8004-7ead7f74478f" style="opacity:0.271">
            <g class="fills" id="fills-ef199d1f-19b8-809f-8004-7ead7f74478f">
              <path d="M3117.930,192.426C3118.066,193.367,3117.732,194.035,3116.928,194.429C3117.008,193.601,3117.342,192.934,3117.930,192.426ZZ" style="shape-rendering:geometricPrecision;text-rendering:geometricPrecision;image-rendering:optimizeQuality;fill-rule:evenodd;clip-rule:evenodd;fill:#cbcfcc">
              </path>
            </g>
          </g>
          <g id="shape-ef199d1f-19b8-809f-8004-7ead7f74b4d5" style="opacity:1">
            <g class="fills" id="fills-ef199d1f-19b8-809f-8004-7ead7f74b4d5">
              <path d="M3116.928,194.429C3117.167,195.838,3116.666,196.839,3115.426,197.434C3115.931,196.410,3116.432,195.409,3116.928,194.429ZZ" style="shape-rendering:geometricPrecision;text-rendering:geometricPrecision;image-rendering:optimizeQuality;fill-rule:evenodd;clip-rule:evenodd;fill:#251f1f">
              </path>
            </g>
          </g>
          <g id="shape-ef199d1f-19b8-809f-8004-7ead7f74b4d6" style="opacity:1">
            <g class="fills" id="fills-ef199d1f-19b8-809f-8004-7ead7f74b4d6">
              <path d="M3114.925,198.435C3114.661,199.301,3114.160,199.969,3113.422,200.438C3113.449,199.371,3113.950,198.703,3114.925,198.435ZZ" style="shape-rendering:geometricPrecision;text-rendering:geometricPrecision;image-rendering:optimizeQuality;fill-rule:evenodd;clip-rule:evenodd;fill:#251f1f">
              </path>
            </g>
          </g>
          <g id="shape-ef199d1f-19b8-809f-8004-7ead7f74e6ca" style="opacity:1">
            <g class="fills" id="fills-ef199d1f-19b8-809f-8004-7ead7f74e6ca">
              <path d="M3113.422,200.438C3113.303,201.392,3112.802,202.060,3111.919,202.441C3112.038,201.488,3112.539,200.820,3113.422,200.438ZZ" style="shape-rendering:geometricPrecision;text-rendering:geometricPrecision;image-rendering:optimizeQuality;fill-rule:evenodd;clip-rule:evenodd;fill:#251f1f">
              </path>
            </g>
          </g>
          <g id="shape-ef199d1f-19b8-809f-8004-7ead7f752210" style="opacity:1">
            <g class="fills" id="fills-ef199d1f-19b8-809f-8004-7ead7f752210">
              <path d="M3152.495,241.000C3152.328,241.000,3152.161,241.000,3151.994,241.000C3152.129,240.199,3151.961,239.532,3151.493,238.997C3151.577,231.651,3151.493,224.306,3151.243,216.963C3150.837,213.197,3150.086,209.524,3148.989,205.947C3148.813,204.760,3148.729,203.591,3148.738,202.441C3149.197,202.856,3149.530,203.357,3149.740,203.944C3152.906,216.121,3153.824,228.473,3152.495,241.000ZZ" style="shape-rendering:geometricPrecision;text-rendering:geometricPrecision;image-rendering:optimizeQuality;fill-rule:evenodd;clip-rule:evenodd;fill:#251f1f">
              </path>
            </g>
          </g>
          <g id="shape-ef199d1f-19b8-809f-8004-7ead7f75a88e" style="opacity:1">
            <g class="fills" id="fills-ef199d1f-19b8-809f-8004-7ead7f75a88e">
              <path d="M3164.518,239.498C3164.518,239.664,3164.518,239.832,3164.518,239.998C3164.184,241.668,3163.850,243.337,3163.516,245.006C3163.677,242.239,3163.510,239.568,3163.015,236.994C3162.618,228.334,3163.453,219.821,3165.520,211.455C3166.183,208.214,3167.101,205.042,3168.275,201.940C3168.647,200.866,3169.064,200.783,3169.527,201.690C3164.965,213.887,3163.295,226.489,3164.518,239.498ZZ" style="shape-rendering:geometricPrecision;text-rendering:geometricPrecision;image-rendering:optimizeQuality;fill-rule:evenodd;clip-rule:evenodd;fill:#251f1f">
              </path>
            </g>
          </g>
          <g id="shape-ef199d1f-19b8-809f-8004-7ead7f76fb21" style="opacity:1">
            <g class="fills" id="fills-ef199d1f-19b8-809f-8004-7ead7f76fb21">
              <path d="M3114.925,175.901C3115.655,175.867,3116.323,176.034,3116.928,176.402C3118.085,177.389,3119.254,178.390,3120.435,179.406C3120.839,180.021,3121.340,180.522,3121.938,180.908C3121.374,181.333,3121.374,181.834,3121.938,182.411C3121.373,185.881,3120.622,189.387,3119.684,192.927C3117.965,196.871,3115.877,200.543,3113.422,203.944C3110.541,207.426,3108.119,211.265,3106.158,215.461C3105.175,218.043,3104.758,220.714,3104.906,223.473C3104.906,223.807,3104.739,223.974,3104.405,223.974C3102.689,223.185,3101.019,222.267,3099.395,221.220C3098.577,220.972,3097.742,220.889,3096.891,220.969C3095.746,221.017,3094.744,221.351,3093.885,221.971C3093.459,223.822,3093.960,225.491,3095.388,226.979C3095.474,227.475,3095.307,227.809,3094.887,227.980C3094.141,226.826,3093.389,225.658,3092.633,224.475C3092.299,225.310,3092.299,226.144,3092.633,226.979C3094.318,229.407,3096.071,231.744,3097.893,233.989C3098.227,234.490,3098.561,234.991,3098.895,235.492C3103.719,241.900,3109.563,247.158,3116.427,251.266C3118.159,251.828,3119.578,251.411,3120.685,250.014C3121.478,247.836,3122.063,245.666,3122.439,243.504C3122.439,245.340,3122.439,247.176,3122.439,249.012C3124.609,249.012,3126.780,249.012,3128.951,249.012C3130.132,248.931,3131.300,249.014,3132.458,249.263C3132.179,249.454,3132.012,249.705,3131.957,250.014C3130.997,249.872,3130.163,250.038,3129.452,250.515C3126.283,250.501,3123.277,251.085,3120.435,252.267C3118.221,252.652,3116.050,252.569,3113.923,252.017C3113.686,251.313,3113.185,250.979,3112.420,251.015C3111.814,250.799,3111.313,250.465,3110.917,250.014C3110.680,249.310,3110.179,248.976,3109.414,249.012C3108.913,248.845,3108.579,248.511,3108.412,248.011C3108.175,247.307,3107.674,246.973,3106.910,247.009C3106.910,246.842,3106.910,246.675,3106.910,246.508C3106.366,245.463,3105.531,244.796,3104.405,244.505C3103.904,244.339,3103.570,244.005,3103.403,243.504C3103.440,242.739,3103.106,242.238,3102.401,242.002C3101.900,241.167,3101.232,240.499,3100.397,239.998C3099.729,239.664,3099.229,239.164,3098.895,238.496C3098.776,237.543,3098.275,236.875,3097.392,236.493C3094.500,233.840,3092.245,230.669,3090.629,226.979C3090.033,221.978,3092.287,219.307,3097.392,218.966C3099.223,219.423,3100.976,220.090,3102.652,220.969C3102.902,220.803,3103.153,220.635,3103.403,220.469C3104.439,213.596,3107.278,207.587,3111.919,202.441C3112.802,202.060,3113.303,201.392,3113.422,200.438C3114.160,199.969,3114.661,199.301,3114.925,198.435C3114.839,197.938,3115.006,197.605,3115.426,197.434C3116.666,196.839,3117.167,195.838,3116.928,194.429C3117.732,194.035,3118.066,193.367,3117.930,192.426C3118.082,190.987,3118.416,189.652,3118.932,188.420C3121.000,184.165,3120.165,180.660,3116.427,177.904C3115.453,177.636,3114.952,176.968,3114.925,175.901ZZ" style="shape-rendering:geometricPrecision;text-rendering:geometricPrecision;image-rendering:optimizeQuality;fill-rule:evenodd;clip-rule:evenodd;fill:#221d1e">
              </path>
            </g>
          </g>
          <g id="shape-ef199d1f-19b8-809f-8004-7ead7f777502" style="opacity:1">
            <g class="fills" id="fills-ef199d1f-19b8-809f-8004-7ead7f777502">
              <path d="M3093.885,221.971C3094.384,221.928,3094.801,222.095,3095.137,222.472C3096.779,225.361,3098.699,228.032,3100.898,230.484C3099.430,229.107,3097.844,227.772,3096.139,226.478C3095.940,226.592,3095.856,226.759,3095.889,226.979C3095.722,226.979,3095.555,226.979,3095.388,226.979C3093.960,225.491,3093.459,223.822,3093.885,221.971ZZ" style="shape-rendering:geometricPrecision;text-rendering:geometricPrecision;image-rendering:optimizeQuality;fill-rule:evenodd;clip-rule:evenodd;fill:#fddd08">
              </path>
            </g>
          </g>
          <g id="shape-ef199d1f-19b8-809f-8004-7ead7f782b17" style="opacity:1">
            <g class="fills" id="fills-ef199d1f-19b8-809f-8004-7ead7f782b17">
              <path d="M3096.891,220.969C3096.224,222.162,3096.308,223.330,3097.141,224.475C3099.156,226.739,3101.076,229.076,3102.902,231.485C3102.735,231.652,3102.568,231.820,3102.401,231.986C3101.782,231.566,3101.282,231.065,3100.898,230.484C3098.699,228.032,3096.779,225.361,3095.137,222.472C3094.801,222.095,3094.384,221.928,3093.885,221.971C3094.744,221.351,3095.746,221.017,3096.891,220.969ZZ" style="shape-rendering:geometricPrecision;text-rendering:geometricPrecision;image-rendering:optimizeQuality;fill-rule:evenodd;clip-rule:evenodd;fill:#251f1f">
              </path>
            </g>
          </g>
          <g id="shape-ef199d1f-19b8-809f-8004-7ead7f78a5e5" style="opacity:1">
            <g class="fills" id="fills-ef199d1f-19b8-809f-8004-7ead7f78a5e5">
              <path d="M3218.620,223.974C3219.121,223.974,3219.621,223.974,3220.122,223.974C3217.991,226.722,3215.737,229.393,3213.360,231.986C3213.127,231.689,3213.044,231.355,3213.109,230.985C3215.324,228.938,3217.161,226.601,3218.620,223.974ZZ" style="shape-rendering:geometricPrecision;text-rendering:geometricPrecision;image-rendering:optimizeQuality;fill-rule:evenodd;clip-rule:evenodd;fill:#251f1f">
              </path>
            </g>
          </g>
          <g id="shape-ef199d1f-19b8-809f-8004-7ead7f78ea08" style="opacity:1">
            <g class="fills" id="fills-ef199d1f-19b8-809f-8004-7ead7f78ea08">
              <path d="M3208.601,227.479C3208.601,227.813,3208.768,227.980,3209.102,227.980C3207.432,229.482,3205.762,230.985,3204.092,232.487C3203.576,232.915,3202.992,233.249,3202.339,233.489C3201.709,233.313,3201.542,232.979,3201.838,232.487C3204.172,230.902,3206.426,229.233,3208.601,227.479ZZ" style="shape-rendering:geometricPrecision;text-rendering:geometricPrecision;image-rendering:optimizeQuality;fill-rule:evenodd;clip-rule:evenodd;fill:#251f1f">
              </path>
            </g>
          </g>
          <g id="shape-ef199d1f-19b8-809f-8004-7ead7f793d9c" style="opacity:1">
            <g class="fills" id="fills-ef199d1f-19b8-809f-8004-7ead7f793d9c">
              <path d="M3095.388,226.979C3095.555,226.979,3095.722,226.979,3095.889,226.979C3096.806,228.808,3097.975,230.477,3099.395,231.986C3099.167,232.386,3098.833,232.553,3098.394,232.487C3097.021,231.118,3095.852,229.616,3094.887,227.980C3095.307,227.809,3095.474,227.475,3095.388,226.979ZZ" style="shape-rendering:geometricPrecision;text-rendering:geometricPrecision;image-rendering:optimizeQuality;fill-rule:evenodd;clip-rule:evenodd;fill:#251f1f">
              </path>
            </g>
          </g>
          <g id="shape-ef199d1f-19b8-809f-8004-7ead7f7981b0" style="opacity:1">
            <g class="fills" id="fills-ef199d1f-19b8-809f-8004-7ead7f7981b0">
              <path d="M3220.122,223.974C3220.898,224.135,3221.232,224.636,3221.124,225.476C3219.296,228.568,3216.958,231.239,3214.111,233.489C3213.950,232.713,3213.449,232.379,3212.608,232.487C3212.490,231.841,3212.656,231.340,3213.109,230.985C3213.044,231.355,3213.127,231.689,3213.360,231.986C3215.737,229.393,3217.991,226.722,3220.122,223.974ZZ" style="shape-rendering:geometricPrecision;text-rendering:geometricPrecision;image-rendering:optimizeQuality;fill-rule:evenodd;clip-rule:evenodd;fill:#fddd08">
              </path>
            </g>
          </g>
          <g id="shape-ef199d1f-19b8-809f-8004-7ead7f79f718" style="opacity:0.004">
            <g class="fills" id="fills-ef199d1f-19b8-809f-8004-7ead7f79f718">
              <path d="M3222.627,229.983C3222.664,230.748,3222.330,231.249,3221.625,231.485C3221.589,230.721,3221.923,230.220,3222.627,229.983ZZ" style="shape-rendering:geometricPrecision;text-rendering:geometricPrecision;image-rendering:optimizeQuality;fill-rule:evenodd;clip-rule:evenodd;fill:#dbdbdc">
              </path>
            </g>
          </g>
          <g id="shape-ef199d1f-19b8-809f-8004-7ead7f7aa9ad" style="opacity:1">
            <g class="fills" id="fills-ef199d1f-19b8-809f-8004-7ead7f7aa9ad">
              <path d="M3113.422,203.944C3113.214,205.609,3112.546,207.028,3111.418,208.200C3111.536,208.637,3111.703,209.055,3111.919,209.452C3111.168,210.620,3110.416,211.789,3109.665,212.957C3108.685,216.230,3107.600,219.485,3106.409,222.722C3107.043,222.877,3107.627,223.127,3108.162,223.473C3109.560,225.545,3110.980,227.632,3112.420,229.733C3113.043,229.961,3113.461,229.711,3113.672,228.982C3113.770,229.836,3113.770,230.671,3113.672,231.485C3114.006,231.151,3114.340,230.818,3114.674,230.484C3116.242,230.799,3117.828,231.133,3119.433,231.485C3119.266,231.820,3119.099,232.153,3118.932,232.487C3117.930,232.821,3116.928,233.155,3115.927,233.489C3117.553,234.359,3118.973,235.528,3120.185,236.994C3120.352,236.159,3120.519,235.325,3120.685,234.490C3121.021,235.756,3121.438,235.756,3121.938,234.490C3120.254,232.272,3119.252,229.768,3118.932,226.979C3120.395,229.737,3121.730,232.574,3122.940,235.492C3123.110,236.583,3123.611,237.501,3124.443,238.246C3123.736,238.430,3123.235,238.847,3122.940,239.498C3123.901,239.555,3124.903,239.888,3125.945,240.499C3125.467,241.979,3124.465,242.981,3122.940,243.504C3121.233,240.378,3118.895,237.790,3115.927,235.742C3111.614,233.945,3107.105,233.027,3102.401,232.988C3102.487,233.985,3102.153,234.820,3101.399,235.492C3101.504,235.785,3101.671,236.035,3101.900,236.243C3101.046,235.619,3100.044,235.368,3098.895,235.492C3098.561,234.991,3098.227,234.490,3097.893,233.989C3097.921,233.434,3098.088,232.933,3098.394,232.487C3098.833,232.553,3099.167,232.386,3099.395,231.986C3097.975,230.477,3096.806,228.808,3095.889,226.979C3095.856,226.759,3095.940,226.592,3096.139,226.478C3097.844,227.772,3099.430,229.107,3100.898,230.484C3101.282,231.065,3101.782,231.566,3102.401,231.986C3102.568,231.820,3102.735,231.652,3102.902,231.485C3101.076,229.076,3099.156,226.739,3097.141,224.475C3096.308,223.330,3096.224,222.162,3096.891,220.969C3097.742,220.889,3098.577,220.972,3099.395,221.220C3101.019,222.267,3102.689,223.185,3104.405,223.974C3106.444,226.085,3108.614,228.088,3110.917,229.983C3111.429,229.732,3111.512,229.398,3111.168,228.982C3108.971,227.198,3106.883,225.363,3104.906,223.473C3104.758,220.714,3105.175,218.043,3106.158,215.461C3108.119,211.265,3110.541,207.426,3113.422,203.944ZZ" style="shape-rendering:geometricPrecision;text-rendering:geometricPrecision;image-rendering:optimizeQuality;fill-rule:evenodd;clip-rule:evenodd;fill:#fddd08">
              </path>
            </g>
          </g>
          <g id="shape-ef199d1f-19b8-809f-8004-7ead7f7afcdd" style="opacity:1">
            <g class="fills" id="fills-ef199d1f-19b8-809f-8004-7ead7f7afcdd">
              <path d="M3104.906,223.473C3106.883,225.363,3108.971,227.198,3111.168,228.982C3111.512,229.398,3111.429,229.732,3110.917,229.983C3108.614,228.088,3106.444,226.085,3104.405,223.974C3104.739,223.974,3104.906,223.807,3104.906,223.473ZZ" style="shape-rendering:geometricPrecision;text-rendering:geometricPrecision;image-rendering:optimizeQuality;fill-rule:evenodd;clip-rule:evenodd;fill:#251f1f">
              </path>
            </g>
          </g>
          <g id="shape-ef199d1f-19b8-809f-8004-7ead7f7afcde" style="opacity:1">
            <g class="fills" id="fills-ef199d1f-19b8-809f-8004-7ead7f7afcde">
              <path d="M3221.124,225.476C3221.059,225.846,3221.142,226.180,3221.375,226.478C3221.822,225.871,3222.239,225.871,3222.627,226.478C3222.449,226.990,3222.115,227.324,3221.625,227.479C3221.210,227.063,3220.793,227.230,3220.373,227.980C3218.501,230.097,3216.748,232.267,3215.113,234.490C3214.445,234.490,3214.111,234.156,3214.111,233.489C3216.958,231.239,3219.296,228.568,3221.124,225.476ZZ" style="shape-rendering:geometricPrecision;text-rendering:geometricPrecision;image-rendering:optimizeQuality;fill-rule:evenodd;clip-rule:evenodd;fill:#251f1f">
              </path>
            </g>
          </g>
          <g id="shape-ef199d1f-19b8-809f-8004-7ead7f7b0999" style="opacity:1">
            <g class="fills" id="fills-ef199d1f-19b8-809f-8004-7ead7f7b0999">
              <path d="M3094.887,227.980C3095.852,229.616,3097.021,231.118,3098.394,232.487C3098.088,232.933,3097.921,233.434,3097.893,233.989C3096.071,231.744,3094.318,229.407,3092.633,226.979C3092.299,226.144,3092.299,225.310,3092.633,224.475C3093.389,225.658,3094.141,226.826,3094.887,227.980ZZ" style="shape-rendering:geometricPrecision;text-rendering:geometricPrecision;image-rendering:optimizeQuality;fill-rule:evenodd;clip-rule:evenodd;fill:#fddd08">
              </path>
            </g>
          </g>
          <g id="shape-ef199d1f-19b8-809f-8004-7ead7f7b694d" style="opacity:1">
            <g class="fills" id="fills-ef199d1f-19b8-809f-8004-7ead7f7b694d">
              <path d="M3221.625,227.479C3221.521,228.191,3221.270,228.859,3220.874,229.482C3219.002,231.599,3217.249,233.769,3215.614,235.992C3215.447,235.992,3215.280,235.992,3215.113,235.992C3214.863,236.243,3213.633,236.551,3213.610,236.493C3212.965,234.881,3214.111,233.291,3214.111,233.489C3214.111,234.240,3214.612,234.490,3215.113,234.490C3216.748,232.267,3218.501,230.097,3220.373,227.980C3220.793,227.230,3221.210,227.063,3221.625,227.479ZL3221.625,227.479Z" style="shape-rendering:geometricPrecision;text-rendering:geometricPrecision;image-rendering:optimizeQuality;fill-rule:evenodd;clip-rule:evenodd;fill:#fddd08">
              </path>
            </g>
          </g>
          <g id="shape-ef199d1f-19b8-809f-8004-7ead7f7bbe65" style="opacity:1">
            <g class="fills" id="fills-ef199d1f-19b8-809f-8004-7ead7f7bbe65">
              <path d="M3122.940,243.504C3122.773,243.504,3122.606,243.504,3122.439,243.504C3122.063,245.666,3121.478,247.836,3120.685,250.014C3119.578,251.411,3118.159,251.828,3116.427,251.266C3109.563,247.158,3103.719,241.900,3098.895,235.492C3100.044,235.368,3101.046,235.619,3101.900,236.243C3101.671,236.035,3101.504,235.785,3101.399,235.492C3102.153,234.820,3102.487,233.985,3102.401,232.988C3107.105,233.027,3111.614,233.945,3115.927,235.742C3118.895,237.790,3121.233,240.378,3122.940,243.504ZL3122.940,243.504Z" style="shape-rendering:geometricPrecision;text-rendering:geometricPrecision;image-rendering:optimizeQuality;fill-rule:evenodd;clip-rule:evenodd;fill:#ebbb1f">
              </path>
            </g>
          </g>
          <g id="shape-ef199d1f-19b8-809f-8004-7ead7f7c0490" style="opacity:1">
            <g class="fills" id="fills-ef199d1f-19b8-809f-8004-7ead7f7c0490">
              <path d="M3215.113,235.992C3210.698,240.487,3206.023,244.743,3201.087,248.762C3198.198,250.879,3195.025,252.130,3191.569,252.518C3190.963,252.301,3190.462,251.967,3190.066,251.516C3190.178,249.661,3190.261,247.825,3190.316,246.008C3189.461,247.214,3189.044,248.549,3189.064,250.014C3187.829,250.582,3186.493,250.665,3185.056,250.264C3183.771,249.563,3182.435,248.978,3181.049,248.511C3182.806,245.331,3184.810,242.326,3187.060,239.498C3187.608,241.885,3188.944,243.721,3191.068,245.006C3193.529,243.524,3195.701,241.688,3197.580,239.498C3198.484,238.863,3199.486,238.529,3200.586,238.496C3200.586,237.995,3200.586,237.495,3200.586,236.994C3202.142,237.157,3203.311,236.573,3204.092,235.241C3205.988,235.037,3207.825,234.620,3209.603,233.989C3210.104,234.156,3210.605,234.323,3211.105,234.490C3211.384,235.359,3211.551,236.194,3211.606,236.994C3212.226,236.620,3212.894,236.454,3213.610,236.493" style="shape-rendering:geometricPrecision;text-rendering:geometricPrecision;image-rendering:optimizeQuality;fill-rule:evenodd;clip-rule:evenodd;fill:#ebbb1f">
              </path>
            </g>
          </g>
          <g id="shape-ef199d1f-19b8-809f-8004-7ead7f7c57b7" style="opacity:1">
            <g class="fills" id="fills-ef199d1f-19b8-809f-8004-7ead7f7c57b7">
              <path d="M3133.460,247.510C3133.160,247.628,3132.994,247.878,3132.959,248.261C3133.326,249.681,3133.660,251.099,3133.960,252.518C3133.185,252.357,3132.851,251.856,3132.959,251.015C3132.959,250.348,3132.624,250.014,3131.957,250.014C3132.012,249.705,3132.179,249.454,3132.458,249.263C3131.300,249.014,3130.132,248.931,3128.951,249.012C3128.951,248.845,3128.951,248.678,3128.951,248.511C3130.120,248.511,3131.289,248.511,3132.458,248.511C3132.532,247.985,3132.449,247.484,3132.207,247.009C3128.627,243.501,3125.538,239.662,3122.940,235.492C3121.730,232.574,3120.395,229.737,3118.932,226.979C3118.076,224.004,3117.492,221.000,3117.179,217.965C3118.200,220.548,3119.035,223.218,3119.684,225.977C3122.973,234.016,3127.565,241.193,3133.460,247.510ZZ" style="shape-rendering:geometricPrecision;text-rendering:geometricPrecision;image-rendering:optimizeQuality;fill-rule:evenodd;clip-rule:evenodd;fill:#251f1f">
              </path>
            </g>
          </g>
          <g id="shape-ef199d1f-19b8-809f-8004-7ead7f7cada3" style="opacity:0.082">
            <g class="fills" id="fills-ef199d1f-19b8-809f-8004-7ead7f7cada3">
              <path d="M3097.392,236.493C3098.275,236.875,3098.776,237.543,3098.895,238.496C3098.012,238.115,3097.511,237.447,3097.392,236.493ZZ" style="shape-rendering:geometricPrecision;text-rendering:geometricPrecision;image-rendering:optimizeQuality;fill-rule:evenodd;clip-rule:evenodd;fill:#c8c8c7">
              </path>
            </g>
          </g>
          <g id="shape-ef199d1f-19b8-809f-8004-7ead7f7cecf1" style="opacity:1">
            <g class="fills" id="fills-ef199d1f-19b8-809f-8004-7ead7f7cecf1">
              <path d="M3218.620,223.974C3217.161,226.601,3215.324,228.938,3213.109,230.985C3212.656,231.340,3212.490,231.841,3212.608,232.487C3213.449,232.379,3213.950,232.713,3214.111,233.489C3213.630,234.372,3213.462,235.374,3213.610,236.493C3212.894,236.454,3212.226,236.620,3211.606,236.994C3211.551,236.194,3211.384,235.359,3211.105,234.490C3210.605,234.323,3210.104,234.156,3209.603,233.989C3207.825,234.620,3205.988,235.037,3204.092,235.241C3203.311,236.573,3202.142,237.157,3200.586,236.994C3200.586,237.495,3200.586,237.995,3200.586,238.496C3199.486,238.529,3198.484,238.863,3197.580,239.498C3195.701,241.688,3193.529,243.524,3191.068,245.006C3188.944,243.721,3187.608,241.885,3187.060,239.498C3187.603,238.244,3188.271,237.076,3189.064,235.992C3189.192,241.445,3190.277,241.945,3192.320,237.495C3194.012,240.279,3195.766,240.446,3197.580,237.995C3198.888,238.238,3198.888,237.821,3197.580,236.744C3198.225,235.849,3198.976,235.766,3199.834,236.493C3200.482,235.236,3201.400,234.902,3202.589,235.492C3203.842,234.654,3205.011,233.735,3206.096,232.737C3205.563,231.981,3204.895,231.898,3204.092,232.487C3205.762,230.985,3207.432,229.482,3209.102,227.980C3211.694,225.721,3214.699,224.218,3218.119,223.473C3218.423,223.535,3218.590,223.702,3218.620,223.974ZZ" style="shape-rendering:geometricPrecision;text-rendering:geometricPrecision;image-rendering:optimizeQuality;fill-rule:evenodd;clip-rule:evenodd;fill:#fddd08">
              </path>
            </g>
          </g>
          <g id="shape-ef199d1f-19b8-809f-8004-7ead7f7d01c4" style="opacity:1">
            <g class="fills" id="fills-ef199d1f-19b8-809f-8004-7ead7f7d01c4">
              <path d="M3189.064,235.992C3188.271,237.076,3187.603,238.244,3187.060,239.498C3184.810,242.326,3182.806,245.331,3181.049,248.511C3180.381,248.678,3179.713,248.845,3179.045,249.012C3187.364,238.601,3193.208,226.917,3196.578,213.959C3196.745,214.126,3196.912,214.293,3197.079,214.460C3195.667,222.120,3192.995,229.298,3189.064,235.992ZZ" style="shape-rendering:geometricPrecision;text-rendering:geometricPrecision;image-rendering:optimizeQuality;fill-rule:evenodd;clip-rule:evenodd;fill:#251f1f">
              </path>
            </g>
          </g>
          <g id="shape-ef199d1f-19b8-809f-8004-7ead7f7d67fd" style="opacity:0.016">
            <g class="fills" id="fills-ef199d1f-19b8-809f-8004-7ead7f7d67fd">
              <path d="M3100.397,239.998C3101.232,240.499,3101.900,241.167,3102.401,242.002C3101.232,241.835,3100.564,241.167,3100.397,239.998ZZ" style="shape-rendering:geometricPrecision;text-rendering:geometricPrecision;image-rendering:optimizeQuality;fill-rule:evenodd;clip-rule:evenodd;fill:#cfcfcf">
              </path>
            </g>
          </g>
          <g id="shape-ef199d1f-19b8-809f-8004-7ead7f7d67fe" style="opacity:0.051">
            <g class="fills" id="fills-ef199d1f-19b8-809f-8004-7ead7f7d67fe">
              <path d="M3102.401,242.002C3103.106,242.238,3103.440,242.739,3103.403,243.504C3102.699,243.267,3102.365,242.766,3102.401,242.002ZZ" style="shape-rendering:geometricPrecision;text-rendering:geometricPrecision;image-rendering:optimizeQuality;fill-rule:evenodd;clip-rule:evenodd;fill:#cac9c8">
              </path>
            </g>
          </g>
          <g id="shape-ef199d1f-19b8-809f-8004-7eb6a406ac2c">
            <g class="fills" id="fills-ef199d1f-19b8-809f-8004-7eb6a406ac2c">
              <path d="M3152.495,241.000C3153.824,228.473,3152.906,216.121,3149.740,203.944C3149.530,203.357,3149.197,202.856,3148.738,202.441C3148.729,203.591,3148.813,204.760,3148.989,205.947C3148.659,205.497,3148.325,204.996,3147.987,204.444C3147.693,204.549,3147.443,204.716,3147.235,204.945C3146.809,202.700,3147.643,201.865,3149.740,202.441C3150.139,203.803,3150.723,205.055,3151.493,206.197C3156.166,206.447,3160.841,206.530,3165.520,206.447C3165.047,208.199,3165.047,209.869,3165.520,211.455L3165.520,211.455C3163.458,219.804,3162.622,228.300,3163.013,236.942C3163.013,236.959,3163.014,236.976,3163.015,236.993C3163.015,236.994,3163.015,236.994,3163.015,236.994C3163.510,239.568,3163.677,242.239,3163.516,245.006C3159.675,245.006,3155.835,245.006,3151.994,245.006C3151.994,243.671,3151.994,242.336,3151.994,241.000C3152.159,241.000,3152.323,241.000,3152.495,241.000ZC3152.490,241.000,3152.493,241.000,3152.495,241.000ZC3152.495,241.018,3152.495,241.036,3152.495,241.000ZM3152.495,244.478C3152.495,244.487,3152.495,244.496,3152.495,244.478ZC3152.523,244.505,3152.550,244.505,3152.495,244.478ZM3162.974,244.505C3162.988,244.505,3163.001,244.505,3162.974,244.505ZC3163.015,244.486,3163.015,244.466,3162.974,244.505ZM3163.015,237.009C3163.015,237.004,3163.015,236.999,3163.015,237.009Z" style="fill:#ebbb1f">
              </path>
            </g>
          </g>
          <g id="shape-ef199d1f-19b8-809f-8004-7ead7f7df0de" style="opacity:1">
            <g class="fills" id="fills-ef199d1f-19b8-809f-8004-7ead7f7df0de">
              <path d="M3122.940,235.492C3125.538,239.662,3128.627,243.501,3132.207,247.009C3132.449,247.484,3132.532,247.985,3132.458,248.511C3131.289,248.511,3130.120,248.511,3128.951,248.511C3126.947,248.511,3124.944,248.511,3122.940,248.511C3122.940,246.842,3122.940,245.173,3122.940,243.504C3124.465,242.981,3125.467,241.979,3125.945,240.499C3124.903,239.888,3123.901,239.555,3122.940,239.498C3123.235,238.847,3123.736,238.430,3124.443,238.246C3123.611,237.501,3123.110,236.583,3122.940,235.492ZZ" style="shape-rendering:geometricPrecision;text-rendering:geometricPrecision;image-rendering:optimizeQuality;fill-rule:evenodd;clip-rule:evenodd;fill:#fddd08">
              </path>
            </g>
          </g>
          <g id="shape-ef199d1f-19b8-809f-8004-7ead7f7e2942" style="opacity:1">
            <g class="fills" id="fills-ef199d1f-19b8-809f-8004-7ead7f7e2942">
              <path d="M3164.518,239.498C3164.921,242.260,3165.255,245.097,3165.520,248.011C3163.655,248.082,3163.237,247.414,3164.267,246.008C3164.517,244.012,3164.601,242.009,3164.518,239.998C3164.518,239.832,3164.518,239.664,3164.518,239.498ZZ" style="shape-rendering:geometricPrecision;text-rendering:geometricPrecision;image-rendering:optimizeQuality;fill-rule:evenodd;clip-rule:evenodd;fill:#fddd08">
              </path>
            </g>
          </g>
          <g id="shape-ef199d1f-19b8-809f-8004-7ead7f7e6b60" style="opacity:1">
            <g class="fills" id="fills-ef199d1f-19b8-809f-8004-7ead7f7e6b60">
              <path d="M3218.620,234.991C3214.353,240.508,3209.343,245.265,3203.591,249.263C3200.406,251.966,3196.733,253.552,3192.571,254.020C3192.429,253.380,3192.095,252.879,3191.569,252.518C3195.025,252.130,3198.198,250.879,3201.087,248.762C3206.023,244.743,3210.698,240.487,3215.113,235.992C3215.280,235.992,3215.447,235.992,3215.614,235.992C3215.581,236.212,3215.665,236.379,3215.864,236.493C3216.657,235.757,3217.576,235.256,3218.620,234.991ZZ" style="shape-rendering:geometricPrecision;text-rendering:geometricPrecision;image-rendering:optimizeQuality;fill-rule:evenodd;clip-rule:evenodd;fill:#251f1f">
              </path>
            </g>
          </g>
          <g id="shape-ef199d1f-19b8-809f-8004-7ead7f7ebc68" style="opacity:1">
            <g class="fills" id="fills-ef199d1f-19b8-809f-8004-7ead7f7ebc68">
              <path d="M3122.439,243.504C3122.606,243.504,3122.773,243.504,3122.940,243.504C3122.940,245.173,3122.940,246.842,3122.940,248.511C3124.944,248.511,3126.947,248.511,3128.951,248.511C3128.951,248.678,3128.951,248.845,3128.951,249.012C3126.780,249.012,3124.609,249.012,3122.439,249.012C3122.439,247.176,3122.439,245.340,3122.439,243.504ZZ" style="shape-rendering:geometricPrecision;text-rendering:geometricPrecision;image-rendering:optimizeQuality;fill-rule:evenodd;clip-rule:evenodd;fill:#fddd08">
              </path>
            </g>
          </g>
          <g id="shape-ef199d1f-19b8-809f-8004-7ead7f7ebc69" style="opacity:1">
            <g class="fills" id="fills-ef199d1f-19b8-809f-8004-7ead7f7ebc69">
              <path d="M3190.066,251.516C3189.732,251.015,3189.398,250.515,3189.064,250.014C3189.044,248.549,3189.461,247.214,3190.316,246.008C3190.261,247.825,3190.178,249.661,3190.066,251.516ZZ" style="shape-rendering:geometricPrecision;text-rendering:geometricPrecision;image-rendering:optimizeQuality;fill-rule:evenodd;clip-rule:evenodd;fill:#251f1f">
              </path>
            </g>
          </g>
          <g id="shape-ef199d1f-19b8-809f-8004-7ead7f7ef62b" style="opacity:0.145">
            <g class="fills" id="fills-ef199d1f-19b8-809f-8004-7ead7f7ef62b">
              <path d="M3129.452,250.515C3130.163,250.038,3130.997,249.872,3131.957,250.014C3132.624,250.014,3132.959,250.348,3132.959,251.015C3131.848,250.580,3130.679,250.413,3129.452,250.515ZZ" style="shape-rendering:geometricPrecision;text-rendering:geometricPrecision;image-rendering:optimizeQuality;fill-rule:evenodd;clip-rule:evenodd;fill:#b9b9b4">
              </path>
            </g>
          </g>
          <g id="shape-ef199d1f-19b8-809f-8004-7ead7f80619b" style="opacity:1">
            <g class="fills" id="fills-ef199d1f-19b8-809f-8004-7ead7f80619b">
              <path d="M3151.493,238.997C3151.961,239.532,3152.129,240.199,3151.994,241.000C3151.994,242.336,3151.994,243.671,3151.994,245.006C3155.835,245.006,3159.675,245.006,3163.516,245.006C3163.850,243.337,3164.184,241.668,3164.518,239.998C3164.601,242.009,3164.517,244.012,3164.267,246.008C3163.237,247.414,3163.655,248.082,3165.520,248.011C3166.078,248.704,3166.579,249.455,3167.023,250.264C3169.384,250.683,3171.721,251.100,3174.036,251.516C3175.300,252.167,3176.636,252.167,3178.043,251.516C3178.357,251.057,3178.525,250.556,3178.544,250.014C3178.458,249.517,3178.625,249.183,3179.045,249.012C3179.713,248.845,3180.381,248.678,3181.049,248.511C3182.435,248.978,3183.771,249.563,3185.056,250.264C3186.493,250.665,3187.829,250.582,3189.064,250.014C3189.398,250.515,3189.732,251.015,3190.066,251.516C3190.462,251.967,3190.963,252.301,3191.569,252.518C3192.095,252.879,3192.429,253.380,3192.571,254.020C3191.720,254.100,3190.884,254.017,3190.066,253.769C3186.965,252.580,3183.876,251.328,3180.798,250.014C3180.216,250.908,3179.882,251.909,3179.797,253.018C3179.241,253.788,3178.489,254.122,3177.542,254.020C3176.117,253.597,3174.614,253.264,3173.034,253.018C3170.427,253.040,3167.922,252.540,3165.520,251.516C3164.792,250.203,3163.707,249.369,3162.264,249.012C3162.062,248.325,3161.812,247.658,3161.512,247.009C3158.693,246.511,3155.855,246.344,3152.996,246.508C3152.972,247.810,3152.471,248.895,3151.493,249.763C3150.193,250.332,3148.857,250.749,3147.486,251.015C3146.588,250.528,3145.920,250.862,3145.482,252.017C3144.947,252.485,3144.279,252.652,3143.478,252.518C3142.643,251.182,3141.809,251.182,3140.974,252.518C3138.684,252.780,3136.346,252.780,3133.960,252.518C3133.660,251.099,3133.326,249.681,3132.959,248.261C3132.994,247.878,3133.160,247.628,3133.460,247.510C3134.404,248.288,3134.905,249.289,3134.962,250.515C3136.598,250.368,3138.101,250.702,3139.471,251.516C3140.682,250.004,3142.184,249.670,3143.979,250.515C3144.686,250.330,3145.187,249.913,3145.482,249.263C3147.411,249.055,3149.248,248.638,3150.992,248.011C3150.922,244.988,3151.089,241.983,3151.493,238.997ZZ" style="shape-rendering:geometricPrecision;text-rendering:geometricPrecision;image-rendering:optimizeQuality;fill-rule:evenodd;clip-rule:evenodd;fill:#251e1e">
              </path>
            </g>
          </g>
          <g id="shape-ef199d1f-19b8-809f-8004-7ead7f80619c" style="opacity:0.224">
            <g class="fills" id="fills-ef199d1f-19b8-809f-8004-7ead7f80619c">
              <path d="M3143.478,252.518C3142.643,252.518,3141.809,252.518,3140.974,252.518C3141.809,251.182,3142.643,251.182,3143.478,252.518ZZ" style="shape-rendering:geometricPrecision;text-rendering:geometricPrecision;image-rendering:optimizeQuality;fill-rule:evenodd;clip-rule:evenodd;fill:#c8c0be">
              </path>
            </g>
          </g>
        
        
         
        </g>
      </g>
    </g>
  </g>
</svg>