<svg width="267" xmlns="http://www.w3.org/2000/svg" height="329" fill="none"><g style="fill: rgb(0, 0, 0);"><g class="fills" style="fill: rgb(0, 0, 0);"><g class="fills"><rect width="266" height="328" class="frame-background" style="fill: none;" ry="0" fill="none" rx="0" y="1"/></g></g><g class="frame-children" style="fill: rgb(0, 0, 0);"><g style="fill: rgb(0, 0, 0);"><g class="fills" style="opacity: 1;"><path d="M208.139 29.795a1.506 1.506 0 0 0-1.002 1.002 127.782 127.782 0 0 1-7.013 6.259 180.846 180.846 0 0 1-24.546 14.523c-.757 1.393-.339 2.311 1.253 2.754a311.453 311.453 0 0 0 19.286-8.764 68.613 68.613 0 0 1 10.52-3.755c1.388-.13 13.274-4.507 13.274-4.507l4.759-1.502c2.505-.501 6.508-1.167 8.516-1.503l2.004.251a1.132 1.132 0 0 0-.501.751c-1.966-.035-3.802.299-5.51 1.001-2.519.211-4.857.879-7.013 2.003a243.74 243.74 0 0 0-45.586 18.028l-1.002.501a34.4 34.4 0 0 1-2.254-4.006 32.257 32.257 0 0 1-3.256-3.506l.501-.501a5.565 5.565 0 0 0 2.755 2.003 108.764 108.764 0 0 0 10.77-5.508 192.364 192.364 0 0 0 13.275-9.014c3.412-7.465 5.332-15.31 5.761-23.536a69.318 69.318 0 0 0-20.038 9.014c-8.199 4.93-15.462 11.106-21.791 18.528l.501 2.504a14.214 14.214 0 0 0-3.757-2.253 51.013 51.013 0 0 0-15.028-3.255 51.198 51.198 0 0 0-7.264-.501c-3.705-.087-7.294.247-10.77 1.002a81.117 81.117 0 0 0-16.03 4.757 120.588 120.588 0 0 0-19.537-22.534A120.072 120.072 0 0 0 69.379 8.263c-.356-.453-.857-.62-1.503-.501-.173 3.296.161 6.468 1.002 9.514.89 6.346 3.061 12.188 6.512 17.527-1.088-.651-3.507-1.001-3.507-1.001s-1.581-.71-3.005-2.504C58.113 17.736 57.586 18.067 53.599 10.266a30.472 30.472 0 0 1-1.503-6.51c1-.781 2.169-1.115 3.507-1.002 17.325 3.234 31.852 11.413 43.582 24.538a2383.77 2383.77 0 0 1 9.517 12.519c.403.653.988.987 1.754 1.001 16.262-6.195 32.627-6.529 49.092-1.001 14.024-16.449 31.724-26.882 53.1-31.298a24.667 24.667 0 0 1 7.013 0c.539.864.623 1.782.25 2.754-2.414 7.17-6.337 13.346-11.772 18.528Z" class="fills" style="shape-rendering: geometricprecision; text-rendering: geometricprecision; fill-rule: evenodd; clip-rule: evenodd; fill: rgb(37, 31, 31);"/></g></g><g style="fill: rgb(0, 0, 0);"><g class="fills" style="opacity: 1;"><path d="M69.379 8.263c-.645.686-.979 1.604-1.002 2.754a92.56 92.56 0 0 1 .501 6.259c-.841-3.046-1.175-6.218-1.002-9.514.646-.119 1.147.048 1.503.501Z" class="fills" style="shape-rendering: geometricprecision; text-rendering: geometricprecision; fill-rule: evenodd; clip-rule: evenodd; fill: rgb(60, 127, 114);"/></g></g><g style="fill: rgb(0, 0, 0);"><g class="fills" style="opacity: 1;"><path d="M69.379 8.263a120.072 120.072 0 0 1 20.037 11.768 120.588 120.588 0 0 1 19.537 22.534 81.117 81.117 0 0 1 16.03-4.757c6.763-1.753 15.78-1.002 18.034-.501a51.013 51.013 0 0 1 15.028 3.255 14.214 14.214 0 0 1 3.757 2.253l-.501-2.504c6.329-7.422 13.592-13.598 21.791-18.528.626.039 1.044.373 1.253 1.002a2.47 2.47 0 0 0 .25-1.503c1.568-.049 2.904-.633 4.008-1.752 1.036-.344 2.037-.261 3.005.25.599-.173.599-.423 0-.751 1.426-.386 2.846-.804 4.258-1.252 3.233.449 4.486 2.285 3.757 5.508.466 2.409-.285 4.245-2.254 5.509-.173.86-.424 1.695-.751 2.504l1.002 1.001-3.006 1.002c.813.685 1.064 1.52.751 2.504l-.501-1.002c-.159.782-.576 1.366-1.252 1.753l1.002.5a13.416 13.416 0 0 0-3.507.752 7.845 7.845 0 0 1-1.002 2.003c-2.38.974-4.3 2.142-5.76 3.505a4.222 4.222 0 0 0-.251 2.003 108.764 108.764 0 0 1-10.77 5.508 5.565 5.565 0 0 1-2.755-2.003l-.501.501a32.257 32.257 0 0 0 3.256 3.506 34.4 34.4 0 0 0 2.254 4.006 782.965 782.965 0 0 0 3.507 27.041c.284.766.617 1.517 1.002 2.253-1.274.004-2.443-.413-3.507-1.252-2.515-.982-4.685-.481-6.512 1.503-3.082 1.585-5.086 4.088-6.012 7.511-1.353 5.302.651 8.64 6.012 10.015l3.005 1.002c-6.246 5.127-13.259 8.967-21.039 11.517l.501.501a71.704 71.704 0 0 0 10.52-4.256c3.458-2.214 6.965-4.3 10.519-6.26 1.218 7.1 3.556 13.777 7.014 20.031a95.525 95.525 0 0 1 8.265 16.525c.334 2.17.334 4.34 0 6.51a3.527 3.527 0 0 1-1.252 1.001 102.483 102.483 0 0 1-6.763 5.008c-.296.492-.129.826.501 1.002a5.92 5.92 0 0 0 1.753-1.002c.803-.589 1.471-.506 2.004.25a28.917 28.917 0 0 1-3.507 2.755c-1.189-.59-2.107-.256-2.755 1.001-.858-.727-1.609-.644-2.254.251 1.308 1.077 1.308 1.494 0 1.251-1.814 2.451-3.568 2.284-5.26-.5-2.043 4.45-3.128 3.95-3.256-1.503a65.73 65.73 0 0 0 8.015-21.532l-.501-.501c-3.37 12.958-9.214 24.642-17.533 35.053-.42.171-.631.991-.545 1.488-.261.496-.303.732-.5 1-.591.805-1.131.396-2 .5-.471.056-1 0-1.964-.484-2.315-.416-4.652-.833-7.013-1.252a15.386 15.386 0 0 0-1.503-2.253 158.2 158.2 0 0 0-1.002-8.513c-1.223-13.009.447-25.611 5.009-37.808-.463-.907-.88-.824-1.252.25a61.872 61.872 0 0 0-2.755 9.515c-.473-1.586-.473-3.256 0-5.008-4.679.083-9.354 0-14.027-.25a13.422 13.422 0 0 1-1.753-3.756c-2.097-.576-2.931.259-2.505 2.504.208-.229.458-.396.752-.501.338.552.672 1.053 1.002 1.503a59.088 59.088 0 0 1 2.254 11.016c.25 7.343.334 14.688.25 22.034a57.245 57.245 0 0 0-.501 9.014 23.753 23.753 0 0 1-5.51 1.252c-.295.65-.796 1.067-1.503 1.252-1.795-.845-3.297-.511-4.508 1.001-1.37-.814-2.873-1.148-4.509-1.001-.057-1.226-.558-2.227-1.502-3.005-5.895-6.317-10.487-13.494-13.776-21.533a57.707 57.707 0 0 0-2.505-8.012 51.727 51.727 0 0 0 1.753 9.014c.32 2.789 1.322 5.293 3.006 7.511-.5 1.266-.917 1.266-1.253 0l-.5 2.504a14.152 14.152 0 0 0-4.258-3.505l3.005-1.002.501-1.002a275.713 275.713 0 0 0-4.759-1.001l-1.002 1.001a10.69 10.69 0 0 0 0-2.503c-.211.729-.629.979-1.252.751-1.44-2.101-2.86-4.188-4.258-6.26a5.69 5.69 0 0 0-1.753-.751 166.99 166.99 0 0 0 3.256-9.765l2.254-3.505a5.747 5.747 0 0 1-.501-1.252c1.128-1.172 1.796-2.591 2.004-4.256a59.109 59.109 0 0 0 6.262-11.017c.938-3.54 1.689-7.046 2.254-10.516a85.471 85.471 0 0 0 17.032 9.765c.501.334 1.002.334 1.503 0a97.894 97.894 0 0 1-18.034-10.767c1.303-1.157 2.806-2.075 4.508-2.754 4.173-4.235 4.59-8.825 1.253-13.771-.727-.984-1.645-1.651-2.756-2.003-.625-.819-1.46-1.404-2.504-1.753a24.667 24.667 0 0 0-7.013 0c-.904.908-1.405.825-1.503-.25a321.425 321.425 0 0 1 2.254-10.015c.06-5.533.394-11.042 1.002-16.526a23.86 23.86 0 0 1 3.757-5.508 656.306 656.306 0 0 1 3.006-3.505c-1.667.144-2.836 1.145-3.507 3.004a6.491 6.491 0 0 1-2.505-.25A116.606 116.606 0 0 1 75.39 34.803c-3.451-5.339-5.622-11.181-6.512-17.527a92.56 92.56 0 0 0-.501-6.259c.023-1.15.357-2.068 1.002-2.754Z" class="fills" style="shape-rendering: geometricprecision; text-rendering: geometricprecision; fill-rule: evenodd; clip-rule: evenodd; fill: rgb(60, 127, 114);"/></g></g><g style="fill: rgb(0, 0, 0);"><g style="opacity: 1;"><g class="fills"><path d="M184.094 45.319a4.222 4.222 0 0 1 .251-2.003c1.46-1.363 3.38-2.531 5.76-3.505a7.845 7.845 0 0 0 1.002-2.003 13.416 13.416 0 0 1 3.507-.752l-1.002-.5c.676-.387 1.093-.971 1.252-1.753l.501 1.002c.313-.984.062-1.819-.751-2.504l3.006-1.002-1.002-1.001c.327-.809.578-1.644.751-2.504 1.969-1.264 2.72-3.1 2.254-5.509.729-3.223-.524-5.059-3.757-5.508-1.412.448-2.832.866-4.258 1.252.599.328.599.578 0 .751-.968-.511-1.969-.594-3.005-.25-1.104 1.119-2.44 1.703-4.008 1.752a2.47 2.47 0 0 1-.25 1.503c-.209-.629-.627-.963-1.253-1.002a69.318 69.318 0 0 1 20.038-9.014c-.429 8.226-2.349 16.071-5.761 23.536a192.364 192.364 0 0 1-13.275 9.014Z" class="fills" style="shape-rendering: geometricprecision; text-rendering: geometricprecision; fill-rule: evenodd; clip-rule: evenodd; fill: rgb(60, 127, 114);"/></g><g class="strokes" style="shape-rendering: geometricprecision; text-rendering: geometricprecision; fill-rule: evenodd; clip-rule: evenodd;"><g class="inner-stroke-shape"><defs><clipPath id="b"><use href="#a"/></clipPath><path d="M184.094 45.319a4.222 4.222 0 0 1 .251-2.003c1.46-1.363 3.38-2.531 5.76-3.505a7.845 7.845 0 0 0 1.002-2.003 13.416 13.416 0 0 1 3.507-.752l-1.002-.5c.676-.387 1.093-.971 1.252-1.753l.501 1.002c.313-.984.062-1.819-.751-2.504l3.006-1.002-1.002-1.001c.327-.809.578-1.644.751-2.504 1.969-1.264 2.72-3.1 2.254-5.509.729-3.223-.524-5.059-3.757-5.508-1.412.448-2.832.866-4.258 1.252.599.328.599.578 0 .751-.968-.511-1.969-.594-3.005-.25-1.104 1.119-2.44 1.703-4.008 1.752a2.47 2.47 0 0 1-.25 1.503c-.209-.629-.627-.963-1.253-1.002a69.318 69.318 0 0 1 20.038-9.014c-.429 8.226-2.349 16.071-5.761 23.536a192.364 192.364 0 0 1-13.275 9.014Z" id="a" style="fill: none; stroke-width: 2; stroke: rgb(60, 127, 114); stroke-opacity: 1;"/></defs><use href="#a" clip-path="url('#b')"/></g></g></g></g><g style="fill: rgb(0, 0, 0);"><g class="fills" style="opacity: 0.004;"><path d="M208.139 29.795c0 .668-.334 1.002-1.002 1.002a1.506 1.506 0 0 1 1.002-1.002Z" class="fills" style="shape-rendering: geometricprecision; text-rendering: geometricprecision; fill-rule: evenodd; clip-rule: evenodd; fill: rgb(236, 236, 236);"/></g></g><g style="fill: rgb(0, 0, 0);"><g class="fills" style="opacity: 1;"><path d="M236.693 37.056v-1.752h-2.004c.056-.309.223-.56.501-.751l-2.004-.251c-2.008.336-4.012.67-6.011 1.002 2.836-1.138 5.842-1.806 9.017-2.003.819.273 1.654.44 2.505.501m-.501 1.502" class="fills" style="shape-rendering: geometricprecision; text-rendering: geometricprecision; fill-rule: evenodd; clip-rule: evenodd; fill: rgb(37, 31, 31);"/></g></g><g style="fill: rgb(0, 0, 0);"><g class="fills" style="opacity: 1;"><path d="M71.883 33.301c1.25.35 2.419.851 3.507 1.502a116.606 116.606 0 0 0 22.041 16.275c.819.247 1.654.33 2.505.25.334 0 .501.167.501.501a23.86 23.86 0 0 0-3.757 5.508 166.244 166.244 0 0 0-1.002 16.526 321.425 321.425 0 0 0-2.254 10.015 27.11 27.11 0 0 0-1.503 6.259c-.082 1.274 1.002 4.924 1.002 5.759.033.22-.051.387-.251.501a40.27 40.27 0 0 0-1.252-1.502c-1.282-3.664-1.282-7.337 0-11.017.557-1.051.891-2.22 1.002-3.505v-.501c1.092-1.443 1.593-3.112 1.503-5.008a147.6 147.6 0 0 1 .751-17.527 33.986 33.986 0 0 1 2.254-4.256 5.255 5.255 0 0 0-1.503-1.252c-.594-1.239-8.753-6.046-9.517-6.009-2.799-1.648-8.564-7.393-9.518-7.512a28.765 28.765 0 0 1-4.509-4.506v-.501Z" class="fills" style="shape-rendering: geometricprecision; text-rendering: geometricprecision; fill-rule: evenodd; clip-rule: evenodd; fill: rgb(37, 31, 31);"/></g></g><g style="fill: rgb(0, 0, 0);"><g class="fills" style="opacity: 1;"><path d="M100.437 51.829c0-.334-.167-.501-.501-.501.671-1.859 1.84-2.86 3.507-3.004a656.306 656.306 0 0 0-3.006 3.505Z" class="fills" style="shape-rendering: geometricprecision; text-rendering: geometricprecision; fill-rule: evenodd; clip-rule: evenodd; fill: rgb(89, 53, 13);"/></g></g><g style="fill: rgb(0, 0, 0);"><g class="fills" style="opacity: 1;"><path d="M108.953 65.85c9.604-.058 12.443 4.199 8.516 12.77-4.676 3.282-8.934 2.865-12.774-1.252-2.189-5.359-.769-9.198 4.258-11.518Z" class="fills" style="shape-rendering: geometricprecision; text-rendering: geometricprecision; fill-rule: evenodd; clip-rule: evenodd; fill: rgb(14, 9, 7);"/></g></g><g style="fill: rgb(0, 0, 0);"><g class="fills" style="opacity: 1;"><path d="M157.544 65.85c3.075-.384 5.914.2 8.516 1.753 2.384 2.249 3.136 5.003 2.255 8.263-.966 2.467-2.719 4.053-5.26 4.757-5.61 1.034-9.117-1.219-10.52-6.76.253-3.585 1.922-6.255 5.009-8.013Z" class="fills" style="shape-rendering: geometricprecision; text-rendering: geometricprecision; fill-rule: evenodd; clip-rule: evenodd; fill: rgb(14, 9, 6);"/></g></g><g style="fill: rgb(0, 0, 0);"><g class="fills" style="opacity: 1;"><path d="M234.689 35.304h2.004v1.502a191.194 191.194 0 0 1-6.763 36.556 3.496 3.496 0 0 1-1.753 1.252 402.689 402.689 0 0 0-15.028 3.755c.209-.361.543-.611 1.002-.751l-1.002-.5a71.131 71.131 0 0 1 13.024-4.507 6.601 6.601 0 0 0 2.254-2.755c.5-2.985.834-5.989 1.002-9.013a266.904 266.904 0 0 0 5.01-18.028l.501 1.002c.581-2.65.998-5.321 1.252-8.012-2.33.249-4.668.416-7.013.5 1.708-.702 3.544-1.036 5.51-1.001Z" class="fills" style="shape-rendering: geometricprecision; text-rendering: geometricprecision; fill-rule: evenodd; clip-rule: evenodd; fill: rgb(235, 187, 31);"/></g></g><g style="fill: rgb(0, 0, 0);"><g class="fills" style="opacity: 1;"><path d="M156.542 67.853c4.226-.318 5.395 1.435 3.507 5.258-3.42.914-5.006-.338-4.759-3.755a5.684 5.684 0 0 1 1.252-1.503Z" class="fills" style="shape-rendering: geometricprecision; text-rendering: geometricprecision; fill-rule: evenodd; clip-rule: evenodd; fill: rgb(242, 241, 231);"/></g></g><g style="fill: rgb(0, 0, 0);"><g class="fills" style="opacity: 1;"><path d="M112.96 67.353c2.906.138 4.159 1.64 3.758 4.507-1.837 2.003-3.674 2.003-5.511 0-.521-1.958.063-3.461 1.753-4.507Z" class="fills" style="shape-rendering: geometricprecision; text-rendering: geometricprecision; fill-rule: evenodd; clip-rule: evenodd; fill: rgb(245, 244, 232);"/></g></g><g style="fill: rgb(0, 0, 0);"><g class="fills" style="opacity: 1;"><path d="M176.58 56.336a93.27 93.27 0 0 1 1.503 9.514c-.041 4.357.21 8.696.751 13.02 1.005 1.521 1.423 3.19 1.253 5.008-.402-.727-.653-1.562-.752-2.504a6.484 6.484 0 0 0-.25 2.504 782.965 782.965 0 0 1-3.507-27.041l1.002-.501Z" class="fills" style="shape-rendering: geometricprecision; text-rendering: geometricprecision; fill-rule: evenodd; clip-rule: evenodd; fill: rgb(37, 31, 31);"/></g></g><g style="fill: rgb(0, 0, 0);"><g class="fills" style="opacity: 0.961;"><path d="M93.925 74.864c.09 1.896-.411 3.565-1.503 5.008.2-1.811.701-3.481 1.503-5.008Z" class="fills" style="shape-rendering: geometricprecision; text-rendering: geometricprecision; fill-rule: evenodd; clip-rule: evenodd; fill: rgb(37, 31, 31);"/></g></g><g style="fill: rgb(0, 0, 0);"><g class="fills" style="opacity: 1;"><path d="M135.002 78.87a6.57 6.57 0 0 1 3.506.501l-1.753.501c-.842-.054-1.427-.388-1.753-1.002Z" class="fills" style="shape-rendering: geometricprecision; text-rendering: geometricprecision; fill-rule: evenodd; clip-rule: evenodd; fill: rgb(30, 14, 4);"/></g></g><g style="fill: rgb(0, 0, 0);"><g class="fills" style="opacity: 0.031;"><path d="M92.422 80.373c-.111 1.285-.445 2.454-1.002 3.505-.165-1.366.169-2.535 1.002-3.505Z" class="fills" style="shape-rendering: geometricprecision; text-rendering: geometricprecision; fill-rule: evenodd; clip-rule: evenodd; fill: rgb(214, 213, 215);"/></g></g><g style="fill: rgb(0, 0, 0);"><g class="fills" style="opacity: 1;"><path d="M233.437 68.354a22.977 22.977 0 0 1-3.006 7.011 1395.424 1395.424 0 0 1-35.567 9.514 222.112 222.112 0 0 0 17.032 19.029c.539.785.957 1.62 1.253 2.504l-.501 1.002a501.962 501.962 0 0 1-23.043 9.514 27.388 27.388 0 0 0 4.758 7.011c.335.501.335 1.001 0 1.502a32.987 32.987 0 0 1-8.516 3.506 2.325 2.325 0 0 0-1.252 1.251c3.537 4.118 5.541 8.876 6.011 14.272v2.504c.801.134 1.469-.033 2.004-.501 2.837-1.646 5.843-1.896 9.017-.751 1.964 2.44 1.964 4.861 0 7.261-.704.237-1.038.738-1.002 1.502a15.204 15.204 0 0 1-3.005 3.506 6.253 6.253 0 0 0-2.756 1.502c-.199-.114-.283-.281-.25-.501a93.082 93.082 0 0 1 5.26-6.51 5.064 5.064 0 0 0 .751-2.003c.49-.155.824-.489 1.002-1.001-.388-.607-.805-.607-1.252 0a1.218 1.218 0 0 1-.251-1.002c.108-.84-.226-1.341-1.002-1.502h-1.502c-.03-.272-.197-.439-.501-.501-3.42.745-6.425 2.248-9.017 4.507-.334 0-.501-.167-.501-.501.48-.226.897-.56 1.252-1.001.334-2.17.334-4.34 0-6.51a95.525 95.525 0 0 0-8.265-16.525c0-.334.166-.501.501-.501a11.26 11.26 0 0 0 2.003 2.504 94.817 94.817 0 0 1 8.516-3.506 4.4 4.4 0 0 0-.751-2.503 956.017 956.017 0 0 0-4.759-5.509c5.7-2.545 11.377-5.048 17.032-7.511a76.879 76.879 0 0 0 7.514-3.506 58.876 58.876 0 0 0-7.013-7.511 426.662 426.662 0 0 0-11.772-13.02 2.474 2.474 0 0 1-.251-1.502 1016.148 1016.148 0 0 1 21.541-5.509 402.689 402.689 0 0 1 15.028-3.755 3.496 3.496 0 0 0 1.753-1.252 191.194 191.194 0 0 0 6.763-36.556c.468-.535 2.004-3.004 2.004-3.004" class="fills" style="shape-rendering: geometricprecision; text-rendering: geometricprecision; fill-rule: evenodd; clip-rule: evenodd; fill: rgb(37, 31, 31);"/></g></g><g style="fill: rgb(0, 0, 0);"><g class="fills" style="opacity: 1;"><path d="M93.424 83.878c.098 1.075.599 1.158 1.503.25a24.667 24.667 0 0 1 7.013 0c1.044.349 1.879.934 2.504 1.753-3.34-1.305-6.68-1.305-10.018 0-.4.229-.567.563-.501 1.001-.362.21-.612.543-.752 1.002-.25 1.829-.25 5.508-.25 5.508s.17 2.877 0 2.504c-.314-.688-1.055-4.933-1.002-5.759a27.11 27.11 0 0 1 1.503-6.259Z" class="fills" style="shape-rendering: geometricprecision; text-rendering: geometricprecision; fill-rule: evenodd; clip-rule: evenodd; fill: rgb(241, 31, 67);"/></g></g><g style="fill: rgb(0, 0, 0);"><g class="fills" style="opacity: 1;"><path d="M180.087 83.878c1.512 5.081 1.178 10.088-1.002 15.023h-1.002v-1.002c.81-.812 1.394-1.813 1.753-3.004a24.653 24.653 0 0 0 0-7.011 22.568 22.568 0 0 0-4.759-2.754 2.477 2.477 0 0 1 1.503-.251c1.064.839 2.233 1.256 3.507 1.252a19.418 19.418 0 0 1-1.002-2.253 6.484 6.484 0 0 1 .25-2.504c.099.942.35 1.777.752 2.504Z" class="fills" style="shape-rendering: geometricprecision; text-rendering: geometricprecision; fill-rule: evenodd; clip-rule: evenodd; fill: rgb(37, 31, 31);"/></g></g><g style="fill: rgb(0, 0, 0);"><g class="fills" style="opacity: 1;"><path d="M135.002 87.884c3.387.895 6.81 1.73 10.269 2.504 2.155-.023 4.075-.69 5.761-2.003l.501.5c-1.741 1.667-3.828 2.501-6.262 2.504a60.454 60.454 0 0 1-8.766-2.504 35.775 35.775 0 0 1-8.015 2.004c-2.026.179-3.862-.322-5.511-1.503-.667-.334-.667-.667 0-1.001 4.115 2.658 8.122 2.491 12.023-.501Z" class="fills" style="shape-rendering: geometricprecision; text-rendering: geometricprecision; fill-rule: evenodd; clip-rule: evenodd; fill: rgb(71, 44, 14);"/></g></g><g style="fill: rgb(0, 0, 0);"><g class="fills" style="opacity: 1;"><path d="M170.068 86.382a9.46 9.46 0 0 0-2.004 3.004c-.76.006-1.344.339-1.753 1.002a21.267 21.267 0 0 1-2.255 3.505c.926-3.423 2.93-5.926 6.012-7.511Z" class="fills" style="shape-rendering: geometricprecision; text-rendering: geometricprecision; fill-rule: evenodd; clip-rule: evenodd; fill: rgb(241, 31, 67);"/></g></g><g class="fills"><path d="M178.834 97.899c0 .355-.751.647-.751 1.002-.953 1.888-1.531 3.265-3.462 4.212a17.632 17.632 0 0 1-8.111-1.329c-1.611-2.527-2.513-5.274-2.704-8.241a22.513 22.513 0 0 0 2.433-3.721c.442-.703 1.073-1.058 1.893-1.063.065-.064.17-.132.309-.203.457-.811.991-1.534 1.627-2.174 1.827-1.984 3.997-2.485 6.512-1.503a2.477 2.477 0 0 0-1.503.251 22.568 22.568 0 0 1 4.759 2.754 24.653 24.653 0 0 1 0 7.011 7.812 7.812 0 0 1-.45 1.161 9.556 9.556 0 0 1-.552 1.843Zm-8.596-10.006a4.837 4.837 0 0 1-.17-.009l.009.074c.017-.01.08-.03.161-.065Z" class="fills" style="fill: rgb(241, 31, 67);"/></g><g style="fill: rgb(0, 0, 0);"><g class="fills" style="opacity: 1;"><path d="M104.444 85.881c1.111.352 2.029 1.019 2.756 2.003 3.337 4.946 2.92 9.536-1.253 13.771-1.702.679-3.205 1.597-4.508 2.754-.334 0-.501-.167-.501-.501a5.087 5.087 0 0 1-1.503-1.502 10.842 10.842 0 0 0 6.011-1.252c3.059-3.256 3.81-7.011 2.255-11.267a42.059 42.059 0 0 0-3.257-4.006Z" class="fills" style="shape-rendering: geometricprecision; text-rendering: geometricprecision; fill-rule: evenodd; clip-rule: evenodd; fill: rgb(241, 31, 67);"/></g></g><g style="fill: rgb(0, 0, 0);"><g class="fills" style="opacity: 1;"><path d="M91.42 94.895c.408.465.826.966 1.252 1.502.2-.114.251-.501.251-.501s1.002 1.753 3.005 3.506c.105.091-1.61.335-1.502.751-.439.065-1.274-1.353-1.503-1.753a8.977 8.977 0 0 1-1.503-3.505Z" class="fills" style="shape-rendering: geometricprecision; text-rendering: geometricprecision; fill-rule: evenodd; clip-rule: evenodd; fill: rgb(37, 31, 31);"/></g></g><g style="fill: rgb(0, 0, 0);"><g class="fills" style="opacity: 1;"><path d="m92.923 93.392 1.002 1.002c.034 1.294.619 2.295 1.753 3.004.245.648.329 1.316.25 2.004-.605-.368-2.612-2.567-3.005-3.506v-2.504Z" class="fills" style="shape-rendering: geometricprecision; text-rendering: geometricprecision; fill-rule: evenodd; clip-rule: evenodd; fill: rgb(241, 31, 67);"/></g></g><g style="fill: rgb(0, 0, 0);"><g class="fills" style="opacity: 1;"><path d="M164.056 93.893a16.354 16.354 0 0 0 2.505 7.762 16.081 16.081 0 0 0 7.514 1.252c.086.497-.081.83-.501 1.001h-3.506c-5.361-1.375-7.365-4.713-6.012-10.015Z" class="fills" style="shape-rendering: geometricprecision; text-rendering: geometricprecision; fill-rule: evenodd; clip-rule: evenodd; fill: rgb(37, 31, 31);"/></g></g><g style="fill: rgb(0, 0, 0);"><g class="fills" style="opacity: 0.067;"><path d="M95.427 100.904c3.738 2.756 4.573 6.261 2.505 10.516.252-2.34.336-4.677.251-7.011-1.229-.972-2.148-2.141-2.756-3.505Z" class="fills" style="shape-rendering: geometricprecision; text-rendering: geometricprecision; fill-rule: evenodd; clip-rule: evenodd; fill: rgb(193, 193, 195);"/></g></g><g class="fills"><path d="M104.444 85.881a42.059 42.059 0 0 1 3.257 4.006c1.555 4.256.804 8.011-2.255 11.267a10.842 10.842 0 0 1-6.011 1.252 1108.52 1108.52 0 0 0-3.507-3.004 4.226 4.226 0 0 0-.25-2.004c-1.117-.698-1.7-1.679-1.751-2.944l-.002-.056c-.334-.338-.668-.672-1.002-1.006-.083-1.843 0-3.679.25-5.508.139-.455.386-.787.743-.997l.009-.005c-.066-.438.101-.772.501-1.001 3.338-1.305 6.678-1.305 10.018 0Zm-10.519 8.517c0-.002 0-.003 0 0Zc.03-.004.061-.004 0 0Zc.554-.004 1.017-.004 1.479-.004h.023l.011.066c.111.683.286 1.345.526 1.987m.948 1.924c.006.01.012.019 0 0Zc.038.035.058.04 0 0Zm3.5 1.763c.009.006.017.012 0 0Zc.043.021.062.023 0 0Zm3.505.761c.009.003.018.006 0 0Zc.043-.012.06-.032 0 0Zm2.261-4.42c.007-.026.013-.052 0 0Zc.03-.047.04-.016 0 0Zc.205.477.359.939.513 1.401l.008.023a.645.645 0 0 0 .014-.047m-.438-6.522c-.025-.005-.048.009 0 0Zc-.072.049-.075.054 0 0Zc-.082.036-.087.012 0 0Zm-5.763-3.955c-.025.003-.05.005 0 0Zc-.075-.013-.075-.033 0 0Zc-.075-.696-.075-1.338-.075-1.979v-.016l-.054-.004m-6.412 1.479c-.015.009-.031.018 0 0Z" class="fills" style="fill: rgb(241, 31, 67);"/></g><g style="fill: rgb(0, 0, 0);"><g class="fills" style="opacity: 1;"><path d="M170.068 103.908h3.506c.087.497-.081.831-.501 1.002l-3.005-1.002Z" class="fills" style="shape-rendering: geometricprecision; text-rendering: geometricprecision; fill-rule: evenodd; clip-rule: evenodd; fill: rgb(60, 127, 114);"/></g></g><g class="fills"><path d="M188.603 104.91a133.64 133.64 0 0 1-9.518-6.009c2.18-4.935 2.514-9.942 1.002-15.023.17-1.818-.248-3.487-1.253-5.008a97.452 97.452 0 0 1-.752-12.969l.001-.051a93.27 93.27 0 0 0-1.503-9.514 243.723 243.723 0 0 1 45.586-18.028c2.156-1.124 4.494-1.792 7.013-2.003 2.821-.805 5.629-1.61 7.821-.805-.254 2.691-.5 3.5-.5 5.5-.167-.334-.333 3.334-.5 3-.555 2.773-.945 6.56-1.5 10-.445 2.762-1.055 5.105-1.5 8-1 3-1.5 7.015-2 10-.498 1.124-.996 1.787-2 2.5-5 1.5-8 2-12 3 .334.166-.834-.166-.5 0-.459.14-3.142.508-3.351.869a1016.148 1016.148 0 0 0-21.541 5.509 2.474 2.474 0 0 0 .251 1.502 425.83 425.83 0 0 1 11.727 12.968l.039.046.006.006a58.876 58.876 0 0 1 7.013 7.511 77.075 77.075 0 0 1-7.454 3.482l-.06.024a2030.935 2030.935 0 0 0-17.032 7.511 956.017 956.017 0 0 1 4.759 5.509 4.4 4.4 0 0 1 .751 2.503 94.817 94.817 0 0 0-8.516 3.506 11.26 11.26 0 0 1-2.003-2.504 79 79 0 0 1-5.01-12.269c3.272-2.813 6.946-5.15 11.021-7.01.758-.369 1.252-.929 1.503-1.753Zc-.014.049-.007.025 0 0Zc.022.013.043.026 0 0Zc.38.243.605.549.738.959l.013.042.024-.051m14.895-3.032a5.585 5.585 0 0 0 .782.767M178.083 65.85c.005-.016.01-.033 0 0Zm.501-3.475c0-.01 0-.02 0 0Za1.364 1.364 0 0 0-.015-.123m-.728-5.824c-.003-.03-.006-.061 0 0Zc.009-.083.027-.073 0 0Zm3.47-.078c.009-.005.019-.009 0 0Za.396.396 0 0 0 .079-.072m29.826-12.597.334-.089.096-.026-.062-.062c-.145-.145-.439.64-.584.496-.001-.002.146-.933.145-.934l.038-.033m5.671-2.219c.017-.001.035-.001 0 0Zc.079-.017.106-.033.133-.048m5.109-2.431c.023-.009.046-.018 0 0Zm-30.534 66.553c.016.007.031.015 0 0Zc.067 0 .088-.022.109-.044m2.396-.938c.015.001.03.001 0 0Zc.044-.024.041-.05 0 0Zm.524-4.929c.008-.025.015-.051 0 0Zc.038-.063.054-.051 0 0Zm3.468.933c.02-.003.041-.005 0 0Zc.057.022.053.051 0 0Zm2.521 2.994c.015.001.03.002 0 0Za.278.278 0 0 0 .119-.042m2.39-.22c.014.004.027.009 0 0Zc.056.04.07.065.085.09m1.88.941c.027-.005.053-.01 0 0Zc.064-.027.049-.039 0 0Zm-2.606-2.781c-.024-.008-.044-.007 0 0Zc-.063.005-.066.008 0 0Zc-.076-.007-.083-.026-.09-.044m1.213-1.942c.015-.001.03-.003 0 0Zc.05-.004.055-.005 0 0Zm.048.052c.005-.019.008-.038 0 0Zc.012-.203.012-.348.012-.494V98.4" class="fills" style="fill: rgb(51, 114, 102);"/></g><g style="fill: rgb(0, 0, 0);"><g class="fills" style="opacity: 1;"><path d="M100.938 103.908c0 .334.167.501.501.501a97.894 97.894 0 0 0 18.034 10.767c-.501.334-1.002.334-1.503 0a85.471 85.471 0 0 1-17.032-9.765c-.564-.577-.564-1.078 0-1.503Z" class="fills" style="shape-rendering: geometricprecision; text-rendering: geometricprecision; fill-rule: evenodd; clip-rule: evenodd; fill: rgb(71, 46, 27);"/></g></g><g style="fill: rgb(0, 0, 0);"><g class="fills" style="opacity: 1;"><path d="M178.083 98.901h1.002a133.64 133.64 0 0 0 9.518 6.009c-.219.788-.72 1.373-1.503 1.753-4.075 1.86-7.749 4.197-11.021 7.01a79 79 0 0 0 5.01 12.269c-.335 0-.501.167-.501.501-3.458-6.254-5.796-12.931-7.014-20.031a2.858 2.858 0 0 0-.501-1.502c.42-.171.588-.505.501-1.002.42-.171.587-.504.501-1.001 1.789-.892 3.125-2.228 4.008-4.006Zm.501 1.001a116.728 116.728 0 0 1 8.015 5.258l-10.52 6.761a2.226 2.226 0 0 1-.751-1.002 25.461 25.461 0 0 1-.501-6.009 52.856 52.856 0 0 0 3.757-5.008Z" class="fills" style="shape-rendering: geometricprecision; text-rendering: geometricprecision; fill-rule: evenodd; clip-rule: evenodd; fill: rgb(37, 31, 31);"/></g></g><g style="fill: rgb(0, 0, 0);"><g class="fills" style="opacity: 1;"><path d="M173.073 104.91c.306.446.473.947.501 1.502a186.854 186.854 0 0 0-10.519 6.26 71.704 71.704 0 0 1-10.52 4.256l-.501-.501c7.78-2.55 14.793-6.39 21.039-11.517Z" class="fills" style="shape-rendering: geometricprecision; text-rendering: geometricprecision; fill-rule: evenodd; clip-rule: evenodd; fill: rgb(68, 45, 11);"/></g></g><g style="fill: rgb(0, 0, 0);"><g class="fills" style="opacity: 0.271;"><path d="M96.93 115.426c.136.941-.198 1.609-1.002 2.003.08-.828.414-1.495 1.002-2.003Z" class="fills" style="shape-rendering: geometricprecision; text-rendering: geometricprecision; fill-rule: evenodd; clip-rule: evenodd; fill: rgb(203, 207, 204);"/></g></g><g style="fill: rgb(0, 0, 0);"><g class="fills" style="opacity: 1;"><path d="M95.928 117.429c.239 1.409-.262 2.41-1.502 3.005a323.675 323.675 0 0 1 1.502-3.005Z" class="fills" style="shape-rendering: geometricprecision; text-rendering: geometricprecision; fill-rule: evenodd; clip-rule: evenodd; fill: rgb(37, 31, 31);"/></g></g><g style="fill: rgb(0, 0, 0);"><g class="fills" style="opacity: 1;"><path d="M93.925 121.435c-.264.866-.765 1.534-1.503 2.003.027-1.067.528-1.735 1.503-2.003Z" class="fills" style="shape-rendering: geometricprecision; text-rendering: geometricprecision; fill-rule: evenodd; clip-rule: evenodd; fill: rgb(37, 31, 31);"/></g></g><g style="fill: rgb(0, 0, 0);"><g class="fills" style="opacity: 1;"><path d="M92.422 123.438c-.119.954-.62 1.622-1.503 2.003.119-.953.62-1.621 1.503-2.003Z" class="fills" style="shape-rendering: geometricprecision; text-rendering: geometricprecision; fill-rule: evenodd; clip-rule: evenodd; fill: rgb(37, 31, 31);"/></g></g><g style="fill: rgb(0, 0, 0);"><g class="fills" style="opacity: 1;"><path d="M131.495 164h-.501c.135-.801-.033-1.468-.501-2.003.084-7.346 0-14.691-.25-22.034a59.088 59.088 0 0 0-2.254-11.016 22.674 22.674 0 0 1-.251-3.506c.459.415.792.916 1.002 1.503 3.166 12.177 4.084 24.529 2.755 37.056Z" class="fills" style="shape-rendering: geometricprecision; text-rendering: geometricprecision; fill-rule: evenodd; clip-rule: evenodd; fill: rgb(37, 31, 31);"/></g></g><g style="fill: rgb(0, 0, 0);"><g class="fills" style="opacity: 1;"><path d="M143.518 162.498v.5l-1.002 5.008c.161-2.767-.006-5.438-.501-8.012a88.942 88.942 0 0 1 2.505-25.539 61.872 61.872 0 0 1 2.755-9.515c.372-1.074.789-1.157 1.252-.25-4.562 12.197-6.232 24.799-5.009 37.808Z" class="fills" style="shape-rendering: geometricprecision; text-rendering: geometricprecision; fill-rule: evenodd; clip-rule: evenodd; fill: rgb(37, 31, 31);"/></g></g><g style="fill: rgb(0, 0, 0);"><g class="fills" style="opacity: 1;"><path d="M93.925 98.901a3.46 3.46 0 0 1 2.003.501c1.157.987 2.326 1.988 3.507 3.004a5.087 5.087 0 0 0 1.503 1.502c-.564.425-.564.926 0 1.503a110.199 110.199 0 0 1-2.254 10.516 59.109 59.109 0 0 1-6.262 11.017 53.537 53.537 0 0 0-7.264 11.517 19.363 19.363 0 0 0-1.252 8.012c0 .334-.167.501-.501.501a40.34 40.34 0 0 1-5.01-2.754 6.465 6.465 0 0 0-2.504-.251c-1.145.048-2.147.382-3.006 1.002-.426 1.851.075 3.52 1.503 5.008.086.496-.081.83-.501 1.001a795.66 795.66 0 0 1-2.254-3.505 3.254 3.254 0 0 0 0 2.504 116.723 116.723 0 0 0 5.26 7.01l1.002 1.503c4.824 6.408 10.668 11.666 17.532 15.774 1.732.562 3.151.145 4.258-1.252a38.093 38.093 0 0 0 1.754-6.51v5.508h6.512a12.519 12.519 0 0 1 3.507.251 1.126 1.126 0 0 0-.501.751c-.96-.142-1.794.024-2.505.501-3.169-.014-6.175.57-9.017 1.752a15.241 15.241 0 0 1-6.512-.25c-.237-.704-.738-1.038-1.503-1.002a3.541 3.541 0 0 1-1.503-1.001c-.237-.704-.738-1.038-1.503-1.002a1.506 1.506 0 0 1-1.002-1.001c-.237-.704-.738-1.038-1.502-1.002v-.501c-.544-1.045-1.379-1.712-2.505-2.003a1.502 1.502 0 0 1-1.002-1.001c.037-.765-.297-1.266-1.002-1.502a5.757 5.757 0 0 0-2.004-2.004 3.273 3.273 0 0 1-1.502-1.502c-.119-.953-.62-1.621-1.503-2.003-2.892-2.653-5.147-5.824-6.763-9.514-.596-5.001 1.658-7.672 6.763-8.013a23.575 23.575 0 0 1 5.26 2.003l.751-.5c1.036-6.873 3.875-12.882 8.516-18.028.883-.381 1.384-1.049 1.503-2.003.738-.469 1.239-1.137 1.503-2.003-.086-.497.081-.83.501-1.001 1.24-.595 1.741-1.596 1.502-3.005.804-.394 1.138-1.062 1.002-2.003a14.162 14.162 0 0 1 1.002-4.006c2.068-4.255 1.233-7.76-2.505-10.516-.974-.268-1.475-.936-1.502-2.003Z" class="fills" style="shape-rendering: geometricprecision; text-rendering: geometricprecision; fill-rule: evenodd; clip-rule: evenodd; fill: rgb(34, 29, 30);"/></g></g><g style="fill: rgb(0, 0, 0);"><g class="fills" style="opacity: 1;"><path d="M73.5 144.5c.499-.043 0 0 .637.972a46.023 46.023 0 0 0 5.761 8.012 59.709 59.709 0 0 0-4.759-4.006c-.199.114-.283.281-.25.501h-.501c-.602-.628-1.122-1.612-1.408-2.578-.392-1.323-.347-2.612.52-2.901Z" class="fills" style="shape-rendering: geometricprecision; text-rendering: geometricprecision; fill-rule: evenodd; clip-rule: evenodd; fill: rgb(60, 127, 114);"/></g></g><g style="fill: rgb(0, 0, 0);"><g class="fills" style="opacity: 1;"><path d="M76.667 147c-.592.866-.517 1.714.222 2.546a90.25 90.25 0 0 1 5.111 5.09l-.444.364a4.477 4.477 0 0 1-1.334-1.091 34.513 34.513 0 0 1-5.111-5.818c-.298-.273-.668-.395-1.111-.363.762-.451 1.651-.693 2.667-.728Z" class="fills" style="shape-rendering: geometricprecision; text-rendering: geometricprecision; fill-rule: evenodd; clip-rule: evenodd; fill: rgb(37, 31, 31);"/></g></g><g style="fill: rgb(0, 0, 0);"><g class="fills" style="opacity: 1;"><path d="M197.62 146.974h1.502a127.287 127.287 0 0 1-6.762 8.012 1.215 1.215 0 0 1-.251-1.001 28 28 0 0 0 5.511-7.011Z" class="fills" style="shape-rendering: geometricprecision; text-rendering: geometricprecision; fill-rule: evenodd; clip-rule: evenodd; fill: rgb(37, 31, 31);"/></g></g><g style="fill: rgb(0, 0, 0);"><g class="fills" style="opacity: 1;"><path d="M187.601 150.479c0 .334.167.501.501.501l-5.01 4.507a5.92 5.92 0 0 1-1.753 1.002c-.63-.176-.797-.51-.501-1.002a102.483 102.483 0 0 0 6.763-5.008Z" class="fills" style="shape-rendering: geometricprecision; text-rendering: geometricprecision; fill-rule: evenodd; clip-rule: evenodd; fill: rgb(37, 31, 31);"/></g></g><g style="fill: rgb(0, 0, 0);"><g class="fills" style="opacity: 1;"><path d="M74.388 149.979h.501a21.022 21.022 0 0 0 3.506 5.007c-.228.4-.562.567-1.001.501a22.46 22.46 0 0 1-3.507-4.507c.42-.171.587-.505.501-1.001Z" class="fills" style="shape-rendering: geometricprecision; text-rendering: geometricprecision; fill-rule: evenodd; clip-rule: evenodd; fill: rgb(37, 31, 31);"/></g></g><g style="fill: rgb(0, 0, 0);"><g class="fills" style="opacity: 1;"><path d="M199.122 146.974c.776.161 1.11.662 1.002 1.502a28.853 28.853 0 0 1-7.013 8.013c-.161-.776-.662-1.11-1.503-1.002-.118-.646.048-1.147.501-1.502-.065.37.018.704.251 1.001a127.287 127.287 0 0 0 6.762-8.012Z" class="fills" style="shape-rendering: geometricprecision; text-rendering: geometricprecision; fill-rule: evenodd; clip-rule: evenodd; fill: rgb(60, 127, 114);"/></g></g><g style="fill: rgb(0, 0, 0);"><g class="fills" style="opacity: 0.004;"><path d="M201.627 152.983c.037.765-.297 1.266-1.002 1.502-.036-.764.298-1.265 1.002-1.502Z" class="fills" style="shape-rendering: geometricprecision; text-rendering: geometricprecision; fill-rule: evenodd; clip-rule: evenodd; fill: rgb(219, 219, 220);"/></g></g><g style="fill: rgb(0, 0, 0);"><g class="fills" style="opacity: 1;"><path d="M92.422 126.944c-.208 1.665-.876 3.084-2.004 4.256.118.437.285.855.501 1.252l-2.254 3.505a166.99 166.99 0 0 1-3.256 9.765 5.69 5.69 0 0 1 1.753.751c1.398 2.072 2.818 4.159 4.258 6.26.623.228 1.041-.022 1.252-.751a10.69 10.69 0 0 1 0 2.503l1.002-1.001c1.568.315 3.154.649 4.759 1.001l-.501 1.002-3.005 1.002a14.152 14.152 0 0 1 4.258 3.505l.5-2.504c.336 1.266.753 1.266 1.253 0-1.684-2.218-2.686-4.722-3.006-7.511a99.403 99.403 0 0 1 4.008 8.513 4.533 4.533 0 0 0 1.503 2.754c-.707.184-1.208.601-1.503 1.252.961.057 1.963.39 3.005 1.001-.478 1.48-1.48 2.482-3.005 3.005-1.707-3.126-4.045-5.714-7.013-7.762a35.61 35.61 0 0 0-13.526-2.754c.086.997-.248 1.832-1.002 2.504.105.293.272.543.501.751-.854-.624-1.856-.875-3.005-.751l-1.002-1.503a2.858 2.858 0 0 1 .501-1.502c.439.066.773-.101 1.001-.501a21.022 21.022 0 0 1-3.506-5.007c-.033-.22.051-.387.25-.501 1.705 1.294 2.861 2.022 4.759 4.006a5.426 5.426 0 0 0 1.503 1.502l.501-.501C79.5 152 78.859 152.525 76.5 149c-.833-1.145-3-4-3-4.5 2-1 4.077-.528 4.895-.28a40.34 40.34 0 0 0 5.01 2.754C84 148 87.697 150.605 90 152.5c.041-.238.041-.12.032.001-.011.124-.032.253-.032-.001-2.168-1.482-4.906-2.973-6.5-5.5-.148-2.759.675-5.957 1.658-8.539a53.537 53.537 0 0 1 7.264-11.517ZM90 152.5c0 .246-.02.367-.031.369-.01.001-.011-.124.031-.369Z" class="fills" style="shape-rendering: geometricprecision; text-rendering: geometricprecision; fill-rule: evenodd; clip-rule: evenodd; fill: rgb(60, 127, 114);"/></g></g><g style="fill: rgb(0, 0, 0);"><g class="fills" style="opacity: 1;"><path d="M81.647 146a129.026 129.026 0 0 0 8.085 5.924c.444.447.337.806-.324 1.076A95.741 95.741 0 0 1 81 146.539c.431 0 .647-.18.647-.539Z" class="fills" style="shape-rendering: geometricprecision; text-rendering: geometricprecision; fill-rule: evenodd; clip-rule: evenodd; fill: rgb(37, 31, 31);"/></g></g><g style="fill: rgb(0, 0, 0);"><g class="fills" style="opacity: 1;"><path d="M200.124 148.476c-.065.37.018.704.251 1.002.447-.607.864-.607 1.252 0-.178.512-.512.846-1.002 1.001-.415-.416-.832-.249-1.252.501a93.082 93.082 0 0 0-5.26 6.51c-.668 0-1.002-.334-1.002-1.001a28.853 28.853 0 0 0 7.013-8.013Z" class="fills" style="shape-rendering: geometricprecision; text-rendering: geometricprecision; fill-rule: evenodd; clip-rule: evenodd; fill: rgb(37, 31, 31);"/></g></g><g style="fill: rgb(0, 0, 0);"><g class="fills" style="opacity: 1;"><path d="M73.887 150.98a22.46 22.46 0 0 0 3.507 4.507 2.858 2.858 0 0 0-.501 1.502 116.723 116.723 0 0 1-5.26-7.01 3.254 3.254 0 0 1 0-2.504 795.66 795.66 0 0 0 2.254 3.505Z" class="fills" style="shape-rendering: geometricprecision; text-rendering: geometricprecision; fill-rule: evenodd; clip-rule: evenodd; fill: rgb(60, 127, 114);"/></g></g><g style="fill: rgb(0, 0, 0);"><g class="fills" style="opacity: 1;"><path d="M200.625 150.479a5.064 5.064 0 0 1-.751 2.003 93.082 93.082 0 0 0-5.26 6.51h-.501c-.25.251-1.48.559-1.503.501-.645-1.612.501-3.202.501-3.004 0 .751.501 1.001 1.002 1.001a93.082 93.082 0 0 1 5.26-6.51c.42-.75.837-.917 1.252-.501Z" class="fills" style="shape-rendering: geometricprecision; text-rendering: geometricprecision; fill-rule: evenodd; clip-rule: evenodd; fill: rgb(60, 127, 114);"/></g></g><g style="fill: rgb(0, 0, 0);"><g class="fills" style="opacity: 1;"><path d="M101.94 166.504h-.501a38.093 38.093 0 0 1-1.754 6.51c-1.107 1.397-2.526 1.814-4.258 1.252-6.864-4.108-12.708-9.366-17.532-15.774 1.149-.124 2.151.127 3.005.751a1.835 1.835 0 0 1-.501-.751c.754-.672 1.088-1.507 1.002-2.504a35.61 35.61 0 0 1 13.526 2.754c2.968 2.048 5.306 4.636 7.013 7.762Z" class="fills" style="shape-rendering: geometricprecision; text-rendering: geometricprecision; fill-rule: evenodd; clip-rule: evenodd; fill: rgb(51, 114, 102);"/></g></g><g style="fill: rgb(0, 0, 0);"><g class="fills" style="opacity: 1;"><path d="M194.113 158.992a170.801 170.801 0 0 1-14.026 12.77c-2.889 2.117-6.062 3.368-9.518 3.756a3.552 3.552 0 0 1-1.503-1.002c.112-1.855.195-3.691.25-5.508a6.606 6.606 0 0 0-1.252 4.006c-1.235.568-2.571.651-4.008.25a25.066 25.066 0 0 0-4.007-1.753 64.729 64.729 0 0 1 6.011-9.013c.548 2.387 1.884 4.223 4.008 5.508a26.631 26.631 0 0 0 6.512-5.508 5.405 5.405 0 0 1 3.006-1.002v-1.502c1.556.163 2.725-.421 3.506-1.753a24.14 24.14 0 0 0 5.511-1.252l1.502.501c.279.869.446 1.704.501 2.504a3.434 3.434 0 0 1 2.004-.501" class="fills" style="shape-rendering: geometricprecision; text-rendering: geometricprecision; fill-rule: evenodd; clip-rule: evenodd; fill: rgb(51, 114, 102);"/></g></g><g style="fill: rgb(0, 0, 0);"><g class="fills" style="opacity: 1;"><path d="M112.46 170.51c-.3.118-.466.368-.501.751.367 1.42.701 2.838 1.001 4.257-.775-.161-1.109-.662-1.001-1.503 0-.667-.335-1.001-1.002-1.001.055-.309.222-.56.501-.751a12.519 12.519 0 0 0-3.507-.251v-.501h3.507a2.475 2.475 0 0 0-.251-1.502 61.944 61.944 0 0 1-9.267-11.517 99.403 99.403 0 0 0-4.008-8.513 51.727 51.727 0 0 1-1.753-9.014 57.707 57.707 0 0 1 2.505 8.012c3.289 8.039 7.881 15.216 13.776 21.533Z" class="fills" style="shape-rendering: geometricprecision; text-rendering: geometricprecision; fill-rule: evenodd; clip-rule: evenodd; fill: rgb(37, 31, 31);"/></g></g><g style="fill: rgb(0, 0, 0);"><g class="fills" style="opacity: 0.082;"><path d="M76.392 159.493c.883.382 1.384 1.05 1.503 2.003-.883-.381-1.384-1.049-1.503-2.003Z" class="fills" style="shape-rendering: geometricprecision; text-rendering: geometricprecision; fill-rule: evenodd; clip-rule: evenodd; fill: rgb(200, 200, 199);"/></g></g><g style="fill: rgb(0, 0, 0);"><g class="fills" style="opacity: 1;"><path d="M197.62 146.974a28 28 0 0 1-5.511 7.011c-.453.355-.619.856-.501 1.502.841-.108 1.342.226 1.503 1.002-.481.883-.649 1.885-.501 3.004a3.434 3.434 0 0 0-2.004.501c-.055-.8-.222-1.635-.501-2.504l-1.502-.501a24.14 24.14 0 0 1-5.511 1.252c-.781 1.332-1.95 1.916-3.506 1.753v1.502a5.405 5.405 0 0 0-3.006 1.002 26.631 26.631 0 0 1-6.512 5.508c-2.124-1.285-3.46-3.121-4.008-5.508a18.092 18.092 0 0 1 2.004-3.506c.128 5.453 1.213 5.953 3.256 1.503 1.692 2.784 3.446 2.951 5.26.5 1.308.243 1.308-.174 0-1.251.645-.895 1.396-.978 2.254-.251.648-1.257 1.566-1.591 2.755-1.001a28.917 28.917 0 0 0 3.507-2.755c-.533-.756-1.201-.839-2.004-.25l5.01-4.507c2.592-2.259 5.597-3.762 9.017-4.507.304.062.471.229.501.501Z" class="fills" style="shape-rendering: geometricprecision; text-rendering: geometricprecision; fill-rule: evenodd; clip-rule: evenodd; fill: rgb(60, 127, 114);"/></g></g><g style="fill: rgb(0, 0, 0);"><g class="fills" style="opacity: 1;"><path d="M168.064 158.992a18.092 18.092 0 0 0-2.004 3.506 64.729 64.729 0 0 0-6.011 9.013l-2.004.501c8.319-10.411 14.163-22.095 17.533-35.053l.501.501a65.73 65.73 0 0 1-8.015 21.532Z" class="fills" style="shape-rendering: geometricprecision; text-rendering: geometricprecision; fill-rule: evenodd; clip-rule: evenodd; fill: rgb(37, 31, 31);"/></g></g><g style="fill: rgb(0, 0, 0);"><g class="fills" style="opacity: 0.016;"><path d="M79.397 162.998a5.757 5.757 0 0 1 2.004 2.004c-1.169-.167-1.837-.835-2.004-2.004Z" class="fills" style="shape-rendering: geometricprecision; text-rendering: geometricprecision; fill-rule: evenodd; clip-rule: evenodd; fill: rgb(207, 207, 207);"/></g></g><g style="fill: rgb(0, 0, 0);"><g class="fills" style="opacity: 0.051;"><path d="M81.401 165.002c.705.236 1.039.737 1.002 1.502-.704-.237-1.038-.738-1.002-1.502Z" class="fills" style="shape-rendering: geometricprecision; text-rendering: geometricprecision; fill-rule: evenodd; clip-rule: evenodd; fill: rgb(202, 201, 200);"/></g></g><g class="fills"><path d="M131.495 164c1.329-12.527.411-24.879-2.755-37.056a3.651 3.651 0 0 0-1.002-1.503c-.009 1.15.075 2.319.251 3.506-.33-.45-.664-.951-1.002-1.503a1.832 1.832 0 0 0-.752.501c-.426-2.245.408-3.08 2.505-2.504a13.422 13.422 0 0 0 1.753 3.756c4.673.25 9.348.333 14.027.25-.473 1.752-.473 3.422 0 5.008a88.978 88.978 0 0 0-2.507 25.487l.002.051v.001c.495 2.574.662 5.245.501 8.012h-11.522V164h.501Zc-.005 0-.002 0 0 0Zc0 .018 0 .036 0 0Zm0 3.478c0 .009 0 .018 0 0Zc.028.027.055.027 0 0Zm10.479.027c.014 0 .027 0 0 0Zc.041-.019.041-.039 0 0Zm.041-7.496c0-.005 0-.01 0 0Z" class="fills" style="fill: rgb(51, 114, 102);"/></g><g style="fill: rgb(0, 0, 0);"><g class="fills" style="opacity: 1;"><path d="M101.94 158.492a61.944 61.944 0 0 0 9.267 11.517c.242.475.325.976.251 1.502h-9.518v-5.007c1.525-.523 2.527-1.525 3.005-3.005-1.042-.611-2.044-.944-3.005-1.001.295-.651.796-1.068 1.503-1.252a4.533 4.533 0 0 1-1.503-2.754Z" class="fills" style="shape-rendering: geometricprecision; text-rendering: geometricprecision; fill-rule: evenodd; clip-rule: evenodd; fill: rgb(60, 127, 114);"/></g></g><g style="fill: rgb(0, 0, 0);"><g class="fills" style="opacity: 1;"><path d="M143.518 162.498a158.2 158.2 0 0 1 1.002 8.513c-1.865.071-2.283-.597-1.253-2.003.25-1.996.334-3.999.251-6.01v-.5Z" class="fills" style="shape-rendering: geometricprecision; text-rendering: geometricprecision; fill-rule: evenodd; clip-rule: evenodd; fill: rgb(60, 127, 114);"/></g></g><g style="fill: rgb(0, 0, 0);"><g class="fills" style="opacity: 1;"><path d="M197.62 157.991a67.81 67.81 0 0 1-15.029 14.272c-3.185 2.703-6.858 4.289-11.02 4.757a2.38 2.38 0 0 0-1.002-1.502c3.456-.388 6.629-1.639 9.518-3.756a170.801 170.801 0 0 0 14.026-12.77h.501c-.033.22.051.387.25.501a6.253 6.253 0 0 1 2.756-1.502Z" class="fills" style="shape-rendering: geometricprecision; text-rendering: geometricprecision; fill-rule: evenodd; clip-rule: evenodd; fill: rgb(37, 31, 31);"/></g></g><g style="fill: rgb(0, 0, 0);"><g class="fills" style="opacity: 1;"><path d="M101.439 166.504h.501v5.007h6.011v.501h-6.512v-5.508Z" class="fills" style="shape-rendering: geometricprecision; text-rendering: geometricprecision; fill-rule: evenodd; clip-rule: evenodd; fill: rgb(60, 127, 114);"/></g></g><g style="fill: rgb(0, 0, 0);"><g class="fills" style="opacity: 1;"><path d="m169.066 174.516-1.002-1.502a6.606 6.606 0 0 1 1.252-4.006 183.522 183.522 0 0 1-.25 5.508Z" class="fills" style="shape-rendering: geometricprecision; text-rendering: geometricprecision; fill-rule: evenodd; clip-rule: evenodd; fill: rgb(37, 31, 31);"/></g></g><g style="fill: rgb(0, 0, 0);"><g class="fills" style="opacity: 0.145;"><path d="M108.452 173.515c.711-.477 1.545-.643 2.505-.501.667 0 1.002.334 1.002 1.001a7.736 7.736 0 0 0-3.507-.5Z" class="fills" style="shape-rendering: geometricprecision; text-rendering: geometricprecision; fill-rule: evenodd; clip-rule: evenodd; fill: rgb(185, 185, 180);"/></g></g><g style="fill: rgb(0, 0, 0);"><g class="fills" style="opacity: 1;"><path d="M130.493 161.997c.468.535.636 1.202.501 2.003v4.006h11.522l1.002-5.008a36.245 36.245 0 0 1-.251 6.01c-1.03 1.406-.612 2.074 1.253 2.003a15.386 15.386 0 0 1 1.503 2.253c2.361.419 4.698.836 7.013 1.252 1.264.651 2.6.651 4.007 0 .314-.459.482-.96.501-1.502-.086-.497.081-.831.501-1.002l2.004-.501a25.066 25.066 0 0 1 4.007 1.753c1.437.401 2.773.318 4.008-.25l1.002 1.502c.396.451.897.785 1.503 1.002.526.361.86.862 1.002 1.502a6.47 6.47 0 0 1-2.505-.251 267.772 267.772 0 0 1-9.268-3.755 6.295 6.295 0 0 0-1.001 3.004c-.556.77-1.308 1.104-2.255 1.002a34.466 34.466 0 0 0-4.508-1.002 18.562 18.562 0 0 1-7.514-1.502c-.728-1.313-1.813-2.147-3.256-2.504a14.537 14.537 0 0 0-.752-2.003 36.7 36.7 0 0 0-8.516-.501c-.024 1.302-.525 2.387-1.503 3.255-1.3.569-2.636.986-4.007 1.252-.898-.487-1.566-.153-2.004 1.002-.535.468-1.203.635-2.004.501-.835-1.336-1.669-1.336-2.504 0a31.39 31.39 0 0 1-7.014 0 98.095 98.095 0 0 0-1.001-4.257c.035-.383.201-.633.501-.751.944.778 1.445 1.779 1.502 3.005 1.636-.147 3.139.187 4.509 1.001 1.211-1.512 2.713-1.846 4.508-1.001.707-.185 1.208-.602 1.503-1.252a23.753 23.753 0 0 0 5.51-1.252c-.07-3.023.097-6.028.501-9.014Z" class="fills" style="shape-rendering: geometricprecision; text-rendering: geometricprecision; fill-rule: evenodd; clip-rule: evenodd; fill: rgb(37, 30, 30);"/></g></g><g style="fill: rgb(0, 0, 0);"><g class="fills" style="opacity: 0.224;"><path d="M122.478 175.518h-2.504c.835-1.336 1.669-1.336 2.504 0Z" class="fills" style="shape-rendering: geometricprecision; text-rendering: geometricprecision; fill-rule: evenodd; clip-rule: evenodd; fill: rgb(200, 192, 190);"/></g></g></g></g></svg>