<?xml version="1.0" encoding="UTF-8"?>
<!DOCTYPE svg PUBLIC "-//W3C//DTD SVG 1.1//EN" "http://www.w3.org/Graphics/SVG/1.1/DTD/svg11.dtd">
<svg xmlns="http://www.w3.org/2000/svg" version="1.1" width="406px" height="614px" style="shape-rendering:geometricPrecision; text-rendering:geometricPrecision; image-rendering:optimizeQuality; fill-rule:evenodd; clip-rule:evenodd" xmlns:xlink="http://www.w3.org/1999/xlink">
<g><path style="opacity:1" fill="#020202" d="M 218.5,613.5 C 213.833,613.5 209.167,613.5 204.5,613.5C 194.332,610.85 186.166,605.184 180,596.5C 161.116,554.672 141.949,513.005 122.5,471.5C 101.711,494.124 80.7115,516.624 59.5,539C 39.9621,550.857 22.4621,548.357 7,531.5C 2.357,524.407 -0.143,516.74 -0.5,508.5C -0.5,490.5 -0.5,472.5 -0.5,454.5C 0.833333,454.167 0.833333,453.833 -0.5,453.5C -0.5,453.167 -0.5,452.833 -0.5,452.5C 0.833333,444.833 0.833333,437.167 -0.5,429.5C -0.5,314.5 -0.5,199.5 -0.5,84.5C 4.42112,68.5824 15.0878,58.9157 31.5,55.5C 27.2138,36.5328 32.2138,20.6995 46.5,8C 60.7186,-0.741031 74.7186,-0.407697 88.5,9C 191.301,104.133 293.801,199.633 396,295.5C 404.277,308.942 404.61,322.609 397,336.5C 390.048,346.231 380.548,351.731 368.5,353C 377.566,371.243 374.566,387.243 359.5,401C 356.221,403.223 352.721,405.057 349,406.5C 340.272,408.155 331.438,408.988 322.5,409C 332.749,428.664 342.582,448.497 352,468.5C 357.977,487.906 352.477,503.073 335.5,514C 331.013,515.603 326.846,517.77 323,520.5C 329.038,539.715 324.205,555.548 308.5,568C 278.802,584.015 248.802,599.182 218.5,613.5 Z"/></g>
<g><path style="opacity:1" fill="#eee9cd" d="M 72.5,48.5 C 166.506,136.506 260.84,224.173 355.5,311.5C 315.5,312.167 275.5,312.833 235.5,313.5C 233.623,314.659 233.123,316.326 234,318.5C 260.591,371.847 286.757,425.347 312.5,479C 312.355,479.772 312.022,480.439 311.5,481C 290.48,492.034 269.48,503.034 248.5,514C 246.956,515.187 245.289,515.52 243.5,515C 218.345,459.552 193.178,404.052 168,348.5C 166.192,346.604 164.025,346.104 161.5,347C 131.961,378.37 102.628,409.87 73.5,441.5C 72.8333,358.167 72.1667,274.833 71.5,191.5C 71.1679,143.664 71.5012,95.9971 72.5,48.5 Z"/></g>
<g><path style="opacity:1" fill="#5b594e" d="M 72.5,48.5 C 71.5012,95.9971 71.1679,143.664 71.5,191.5C 71.5,204.833 71.5,218.167 71.5,231.5C 70.1685,170.332 70.1685,108.999 71.5,47.5C 72.1067,47.6236 72.44,47.9569 72.5,48.5 Z"/></g>
<g><path style="opacity:1" fill="#d5d3be" d="M 71.5,191.5 C 72.1667,274.833 72.8333,358.167 73.5,441.5C 73.2172,442.289 72.7172,442.956 72,443.5C 71.5,372.834 71.3333,302.167 71.5,231.5C 71.5,218.167 71.5,204.833 71.5,191.5 Z"/></g>
<g><path style="opacity:1" fill="#201d11" d="M 355.5,311.5 C 356.043,311.56 356.376,311.893 356.5,312.5C 316.172,313.5 275.839,313.833 235.5,313.5C 275.5,312.833 315.5,312.167 355.5,311.5 Z"/></g>
</svg>
