<svg width="556.031" xmlns="http://www.w3.org/2000/svg" height="590.785" id="screenshot-fedeaf24-6722-8002-8004-8748974f5c95" viewBox="4052.795 3379.357 556.031 590.785" style="-webkit-print-color-adjust::exact" xmlns:xlink="http://www.w3.org/1999/xlink" fill="none" version="1.1">
  <g id="shape-fedeaf24-6722-8002-8004-8748974f5c95" style="fill:#000000" width="200" height="302" rx="0" ry="0">
    <g id="shape-fedeaf24-6722-8002-8004-874afbaa652e" rx="0" ry="0">
      <g id="shape-fedeaf24-6722-8002-8004-874bc0247ec0" style="opacity:0.7">
        <g class="fills" id="fills-fedeaf24-6722-8002-8004-874bc0247ec0">
          <path d="M4198.260,3423.372C4198.260,3423.372,4188.911,3404.499,4198.194,3397.999C4205.840,3392.645,4220.787,3407.599,4220.787,3407.599L4466.297,3754.737L4440.903,3772.518L4198.260,3423.372Z" style="fill:#f11f43;fill-opacity:1">
          </path>
        </g>
        <g id="strokes-fedeaf24-6722-8002-8004-874bc0247ec0" class="strokes">
          <g class="inner-stroke-shape">
            <defs>
              <clipPath id="inner-stroke-render-792-fedeaf24-6722-8002-8004-874bc0247ec0-0">
                <use href="#stroke-shape-render-792-fedeaf24-6722-8002-8004-874bc0247ec0-0">
                </use>
              </clipPath>
              <path d="M4198.260,3423.372C4198.260,3423.372,4188.911,3404.499,4198.194,3397.999C4205.840,3392.645,4220.787,3407.599,4220.787,3407.599L4466.297,3754.737L4440.903,3772.518L4198.260,3423.372Z" style="fill:none;fill-opacity:none;stroke-width:12;stroke:#f11f43;stroke-opacity:1" id="stroke-shape-render-792-fedeaf24-6722-8002-8004-874bc0247ec0-0">
              </path>
            </defs>
            <use href="#stroke-shape-render-792-fedeaf24-6722-8002-8004-874bc0247ec0-0" clip-path="url(&#x27;#inner-stroke-render-792-fedeaf24-6722-8002-8004-874bc0247ec0-0&#x27;)">
            </use>
          </g>
        </g>
      </g>
      <g id="shape-fedeaf24-6722-8002-8004-8748975f470e" style="opacity:0.959">
        <g class="fills" id="fills-fedeaf24-6722-8002-8004-8748975f470e">
          <path d="M4564.592,3958.753C4533.236,3913.972,4501.881,3869.192,4470.525,3824.412C4467.249,3826.706,4463.972,3829.001,4460.696,3831.295C4455.725,3824.195,4450.754,3817.096,4445.783,3809.997C4449.059,3807.703,4452.336,3805.408,4455.613,3803.114C4455.039,3802.295,4454.465,3801.476,4453.892,3800.657C4450.427,3803.285,4446.782,3805.634,4442.956,3807.703C4433.091,3808.292,4429.103,3803.760,4430.993,3794.106C4434.794,3790.835,4438.794,3787.831,4442.994,3785.093C4440.891,3782.089,4438.788,3779.086,4436.684,3776.082C4438.154,3775.314,4439.191,3774.180,4439.797,3772.682C4436.961,3767.762,4433.848,3763.024,4430.456,3758.469C4439.194,3752.351,4447.931,3746.233,4456.669,3740.115C4465.329,3752.774,4474.260,3765.239,4483.463,3777.509C4485.254,3778.131,4486.865,3777.817,4488.296,3776.566C4492.694,3782.846,4497.091,3789.127,4501.488,3795.407C4504.765,3793.112,4508.042,3790.818,4511.318,3788.524C4516.289,3795.623,4521.260,3802.722,4526.231,3809.822C4522.838,3811.840,4519.889,3814.311,4517.385,3817.237C4544.315,3856.570,4571.518,3895.711,4598.996,3934.663C4587.528,3942.693,4576.060,3950.723,4564.592,3958.753ZZM4483.141,3818.020C4483.103,3820.147,4482.065,3821.280,4480.028,3821.420C4486.428,3832.012,4493.638,3842.019,4501.660,3851.442C4502.145,3850.726,4502.405,3849.934,4502.438,3849.066C4507.636,3844.436,4513.330,3840.652,4519.517,3837.718C4517.229,3834.057,4515.521,3830.166,4514.396,3826.044C4508.676,3821.049,4503.828,3815.288,4499.852,3808.760C4497.726,3810.589,4495.295,3811.476,4492.561,3811.424C4490.863,3815.824,4487.723,3818.022,4483.141,3818.020ZZM4465.197,3797.624C4464.418,3795.885,4464.376,3794.083,4465.073,3792.217C4466.894,3790.701,4467.591,3788.790,4467.161,3786.482C4464.936,3786.874,4462.724,3787.202,4460.526,3787.466C4460.798,3785.918,4460.580,3784.444,4459.870,3783.042C4457.791,3782.259,4456.097,3781.004,4454.790,3779.274C4453.842,3779.755,4453.119,3780.465,4452.619,3781.405C4455.475,3781.836,4456.349,3783.666,4455.242,3786.893C4457.754,3789.009,4459.665,3791.740,4460.977,3795.085C4461.971,3796.840,4463.378,3797.687,4465.197,3797.624ZZM4459.130,3762.807C4459.896,3762.166,4460.770,3761.961,4461.751,3762.192C4460.275,3758.900,4459.401,3759.105,4459.130,3762.807ZZM4446.349,3761.990C4446.016,3763.089,4446.316,3764.099,4447.251,3765.021C4449.900,3762.860,4452.821,3761.222,4456.016,3760.104C4454.597,3757.656,4452.877,3755.199,4450.854,3752.732C4447.522,3754.457,4445.269,3757.052,4444.096,3760.516C4445.097,3760.634,4445.849,3761.125,4446.349,3761.990ZZM4569.255,3907.878C4567.766,3910.633,4565.963,3910.674,4563.848,3908.002C4563.858,3909.305,4563.422,3910.425,4562.537,3911.361C4559.871,3912.915,4557.182,3914.594,4554.469,3916.400C4553.772,3916.277,4553.076,3916.154,4552.380,3916.032C4552.146,3918.216,4551.026,3919.814,4549.021,3920.825C4554.946,3929.744,4561.337,3938.291,4568.195,3946.464C4574.475,3942.066,4580.755,3937.669,4587.035,3933.272C4581.109,3924.807,4575.181,3916.342,4569.255,3907.878ZZ" style="shape-rendering:geometricPrecision;text-rendering:geometricPrecision;image-rendering:optimizeQuality;fill-rule:evenodd;clip-rule:evenodd;fill:#110f11">
          </path>
        </g>
      </g>
      <g id="shape-fedeaf24-6722-8002-8004-8748975ff490" style="opacity:0.844">
        <g class="fills" id="fills-fedeaf24-6722-8002-8004-8748975ff490">
          <path d="M4453.727,3793.447C4491.540,3845.708,4528.904,3898.489,4565.820,3951.789C4564.989,3951.861,4564.197,3951.602,4563.444,3951.011C4557.094,3942.233,4550.744,3933.454,4544.393,3924.676C4514.230,3880.889,4484.008,3837.146,4453.727,3793.447ZZ" style="shape-rendering:geometricPrecision;text-rendering:geometricPrecision;image-rendering:optimizeQuality;fill-rule:evenodd;clip-rule:evenodd;fill:#252021">
          </path>
        </g>
      </g>
      <g id="shape-fedeaf24-6722-8002-8004-874897604689" style="opacity:0.569">
        <g class="fills" id="fills-fedeaf24-6722-8002-8004-874897604689">
          <path d="M4506.814,3797.782C4507.906,3797.017,4508.998,3796.252,4510.090,3795.488C4513.523,3799.830,4516.310,3804.390,4518.448,3809.168C4515.581,3805.072,4512.713,3800.976,4509.845,3796.880C4508.923,3797.815,4507.913,3798.116,4506.814,3797.782ZZ" style="shape-rendering:geometricPrecision;text-rendering:geometricPrecision;image-rendering:optimizeQuality;fill-rule:evenodd;clip-rule:evenodd;fill:#a3a1a3">
          </path>
        </g>
      </g>
      <g id="shape-fedeaf24-6722-8002-8004-8748976093e0" style="opacity:1">
        <g class="fills" id="fills-fedeaf24-6722-8002-8004-8748976093e0">
          <path d="M4506.814,3797.782C4507.913,3798.116,4508.923,3797.815,4509.845,3796.880C4512.713,3800.976,4515.581,3805.072,4518.448,3809.168C4517.787,3811.226,4516.284,3812.278,4513.943,3812.322C4510.529,3808.609,4507.661,3804.513,4505.339,3800.035C4505.458,3799.034,4505.949,3798.283,4506.814,3797.782ZZ" style="shape-rendering:geometricPrecision;text-rendering:geometricPrecision;image-rendering:optimizeQuality;fill-rule:evenodd;clip-rule:evenodd;fill:#e5e5e4">
          </path>
        </g>
      </g>
      <g id="shape-fedeaf24-6722-8002-8004-87489761095e" style="opacity:0.525">
        <g class="fills" id="fills-fedeaf24-6722-8002-8004-87489761095e">
          <path d="M4454.139,3811.470C4455.033,3809.670,4456.481,3808.250,4458.480,3807.210C4461.913,3811.552,4464.699,3816.112,4466.838,3820.890C4463.971,3816.794,4461.103,3812.698,4458.235,3808.602C4456.869,3809.559,4455.505,3810.514,4454.139,3811.470ZZ" style="shape-rendering:geometricPrecision;text-rendering:geometricPrecision;image-rendering:optimizeQuality;fill-rule:evenodd;clip-rule:evenodd;fill:#797675">
          </path>
        </g>
      </g>
      <g id="shape-fedeaf24-6722-8002-8004-874897617399" style="opacity:1">
        <g class="fills" id="fills-fedeaf24-6722-8002-8004-874897617399">
          <path d="M4454.139,3811.470C4455.505,3810.514,4456.869,3809.559,4458.235,3808.602C4461.103,3812.698,4463.971,3816.794,4466.838,3820.890C4465.944,3822.689,4464.497,3824.110,4462.497,3825.150C4459.064,3820.808,4456.278,3816.248,4454.139,3811.470ZZ" style="shape-rendering:geometricPrecision;text-rendering:geometricPrecision;image-rendering:optimizeQuality;fill-rule:evenodd;clip-rule:evenodd;fill:#f1f1ee">
          </path>
        </g>
      </g>
      <g id="shape-fedeaf24-6722-8002-8004-87489761739a" style="opacity:0.749">
        <g class="fills" id="fills-fedeaf24-6722-8002-8004-87489761739a">
          <path d="M4447.090,3782.225C4448.237,3783.863,4449.384,3785.501,4450.531,3787.140C4445.889,3790.390,4441.248,3793.640,4436.605,3796.890C4440.249,3793.133,4444.427,3789.800,4449.138,3786.894C4447.807,3785.489,4447.124,3783.932,4447.090,3782.225ZZ" style="shape-rendering:geometricPrecision;text-rendering:geometricPrecision;image-rendering:optimizeQuality;fill-rule:evenodd;clip-rule:evenodd;fill:#757173">
          </path>
        </g>
      </g>
      <g id="shape-fedeaf24-6722-8002-8004-874897627533" style="opacity:1">
        <g class="fills" id="fills-fedeaf24-6722-8002-8004-874897627533">
          <path d="M4565.820,3951.789C4528.904,3898.489,4491.540,3845.708,4453.727,3793.447C4448.900,3797.030,4443.889,3800.335,4438.695,3803.362C4436.824,3802.565,4435.636,3801.159,4435.131,3799.144C4435.249,3798.142,4435.740,3797.391,4436.605,3796.890C4441.248,3793.640,4445.889,3790.390,4450.531,3787.140C4449.384,3785.501,4448.237,3783.863,4447.090,3782.225C4445.942,3780.586,4444.795,3778.948,4443.648,3777.310C4446.298,3775.253,4449.123,3773.478,4452.126,3771.984C4461.394,3781.676,4472.577,3785.443,4485.676,3783.284C4521.672,3832.949,4557.124,3882.999,4592.033,3933.435C4583.295,3939.553,4574.558,3945.671,4565.820,3951.789ZL4565.820,3951.789Z" style="shape-rendering:geometricPrecision;text-rendering:geometricPrecision;image-rendering:optimizeQuality;fill-rule:evenodd;clip-rule:evenodd;fill:#f3f3f1">
          </path>
        </g>
      </g>
      <g id="shape-fedeaf24-6722-8002-8004-87489762aec7" style="opacity:0.966">
        <g class="fills" id="fills-fedeaf24-6722-8002-8004-87489762aec7">
          <path d="M4471.504,3794.428C4480.601,3788.241,4487.346,3790.029,4491.740,3799.791C4492.923,3807.048,4489.934,3811.786,4482.772,3814.006C4469.792,3812.701,4466.036,3806.175,4471.504,3794.428ZZ" style="shape-rendering:geometricPrecision;text-rendering:geometricPrecision;image-rendering:optimizeQuality;fill-rule:evenodd;clip-rule:evenodd;fill:#141315">
          </path>
        </g>
      </g>
      <g id="shape-fedeaf24-6722-8002-8004-87489762f4d5" style="opacity:1">
        <g class="fills" id="fills-fedeaf24-6722-8002-8004-87489762f4d5">
          <path d="M4474.372,3798.524C4480.034,3794.135,4484.539,3795.050,4487.890,3801.266C4487.271,3808.079,4483.721,3810.565,4477.241,3808.723C4475.547,3807.467,4474.400,3805.829,4473.800,3803.808C4474.235,3802.031,4474.426,3800.270,4474.372,3798.524ZZ" style="shape-rendering:geometricPrecision;text-rendering:geometricPrecision;image-rendering:optimizeQuality;fill-rule:evenodd;clip-rule:evenodd;fill:#efefef">
          </path>
        </g>
      </g>
      <g id="shape-fedeaf24-6722-8002-8004-874897630027" style="opacity:1">
        <g class="fills" id="fills-fedeaf24-6722-8002-8004-874897630027">
          <path d="M4437.420,3759.697C4443.426,3755.491,4449.434,3751.285,4455.441,3747.079C4462.988,3757.278,4469.981,3767.845,4476.418,3778.780C4466.225,3778.191,4458.441,3773.468,4453.068,3764.610C4450.337,3766.522,4447.606,3768.434,4444.876,3770.346C4442.391,3766.797,4439.905,3763.247,4437.420,3759.697ZL4437.420,3759.697Z" style="shape-rendering:geometricPrecision;text-rendering:geometricPrecision;image-rendering:optimizeQuality;fill-rule:evenodd;clip-rule:evenodd;fill:#f2f2f1">
          </path>
        </g>
      </g>
      <g id="shape-fedeaf24-6722-8002-8004-874897640cc3" style="opacity:0.997">
        <g class="fills" id="fills-fedeaf24-6722-8002-8004-874897640cc3">
          <path d="M4503.053,3851.688C4508.514,3847.864,4513.975,3844.040,4519.436,3840.216C4533.966,3860.968,4548.497,3881.720,4563.028,3902.472C4557.566,3906.296,4552.106,3910.119,4546.645,3913.943C4532.114,3893.192,4517.583,3872.439,4503.053,3851.688ZZ" style="shape-rendering:geometricPrecision;text-rendering:geometricPrecision;image-rendering:optimizeQuality;fill-rule:evenodd;clip-rule:evenodd;fill:#151416">
          </path>
        </g>
      </g>
      <g id="shape-fedeaf24-6722-8002-8004-87489764483d" style="opacity:1">
        <g class="fills" id="fills-fedeaf24-6722-8002-8004-87489764483d">
          <path d="M4545.005,3902.884C4547.462,3901.163,4549.920,3899.442,4552.377,3897.722C4553.333,3899.087,4554.289,3900.452,4555.245,3901.818C4552.787,3903.538,4550.330,3905.259,4547.872,3906.980C4546.916,3905.614,4545.961,3904.249,4545.005,3902.884ZZ" style="shape-rendering:geometricPrecision;text-rendering:geometricPrecision;image-rendering:optimizeQuality;fill-rule:evenodd;clip-rule:evenodd;fill:#e9edef">
          </path>
        </g>
      </g>
      <g id="shape-fedeaf24-6722-8002-8004-87489764fae7" style="opacity:0.694">
        <g class="fills" id="fills-fedeaf24-6722-8002-8004-87489764fae7">
          <path d="M4545.005,3902.884C4547.003,3900.290,4549.542,3898.104,4552.623,3896.329C4554.146,3897.991,4555.020,3899.821,4555.245,3901.818C4554.289,3900.452,4553.333,3899.087,4552.377,3897.722C4549.920,3899.442,4547.462,3901.163,4545.005,3902.884ZZ" style="shape-rendering:geometricPrecision;text-rendering:geometricPrecision;image-rendering:optimizeQuality;fill-rule:evenodd;clip-rule:evenodd;fill:#808383">
          </path>
        </g>
      </g>
      <g id="shape-fedeaf24-6722-8002-8004-8748976500d1" style="opacity:1">
        <g class="fills" id="fills-fedeaf24-6722-8002-8004-8748976500d1">
          <path d="M4537.548,3892.235C4539.926,3890.369,4542.479,3888.785,4545.207,3887.482C4547.134,3888.625,4548.650,3890.209,4549.755,3892.233C4547.024,3894.145,4544.293,3896.057,4541.563,3897.969C4540.225,3896.058,4538.886,3894.146,4537.548,3892.235ZZ" style="shape-rendering:geometricPrecision;text-rendering:geometricPrecision;image-rendering:optimizeQuality;fill-rule:evenodd;clip-rule:evenodd;fill:#e6e7e7">
          </path>
        </g>
      </g>
      <g id="shape-fedeaf24-6722-8002-8004-87489765f3a2" style="opacity:1">
        <g class="fills" id="fills-fedeaf24-6722-8002-8004-87489765f3a2">
          <path d="M4531.484,3881.832C4533.591,3880.156,4535.872,3878.763,4538.324,3877.653C4540.251,3878.795,4541.767,3880.379,4542.872,3882.403C4540.142,3884.315,4537.410,3886.227,4534.680,3888.139C4533.109,3886.248,4532.044,3884.146,4531.484,3881.832ZZ" style="shape-rendering:geometricPrecision;text-rendering:geometricPrecision;image-rendering:optimizeQuality;fill-rule:evenodd;clip-rule:evenodd;fill:#e0e0e0">
          </path>
        </g>
      </g>
      <g id="shape-fedeaf24-6722-8002-8004-874897662100" style="opacity:0.506">
        <g class="fills" id="fills-fedeaf24-6722-8002-8004-874897662100">
          <path d="M4531.728,3868.232C4533.528,3869.127,4534.949,3870.574,4535.989,3872.574C4533.267,3874.862,4530.345,3876.500,4527.224,3877.490C4529.681,3875.770,4532.139,3874.049,4534.596,3872.328C4533.640,3870.963,4532.684,3869.598,4531.728,3868.232ZZ" style="shape-rendering:geometricPrecision;text-rendering:geometricPrecision;image-rendering:optimizeQuality;fill-rule:evenodd;clip-rule:evenodd;fill:#a5a5a5">
          </path>
        </g>
      </g>
      <g id="shape-fedeaf24-6722-8002-8004-8748976654e1" style="opacity:1">
        <g class="fills" id="fills-fedeaf24-6722-8002-8004-8748976654e1">
          <path d="M4531.728,3868.232C4532.684,3869.598,4533.640,3870.963,4534.596,3872.328C4532.139,3874.049,4529.681,3875.770,4527.224,3877.490C4525.900,3876.016,4525.121,3874.323,4524.888,3872.411C4526.777,3870.111,4529.058,3868.718,4531.728,3868.232ZZ" style="shape-rendering:geometricPrecision;text-rendering:geometricPrecision;image-rendering:optimizeQuality;fill-rule:evenodd;clip-rule:evenodd;fill:#eff0ef">
          </path>
        </g>
      </g>
      <g id="shape-fedeaf24-6722-8002-8004-874897668dc6" style="opacity:0.529">
        <g class="fills" id="fills-fedeaf24-6722-8002-8004-874897668dc6">
          <path d="M4524.272,3857.583C4526.273,3858.754,4527.886,3860.474,4529.106,3862.744C4526.384,3865.032,4523.462,3866.670,4520.341,3867.660C4522.798,3865.940,4525.256,3864.219,4527.713,3862.498C4526.566,3860.860,4525.419,3859.222,4524.272,3857.583ZZ" style="shape-rendering:geometricPrecision;text-rendering:geometricPrecision;image-rendering:optimizeQuality;fill-rule:evenodd;clip-rule:evenodd;fill:#949596">
          </path>
        </g>
      </g>
      <g id="shape-fedeaf24-6722-8002-8004-87489767169e" style="opacity:1">
        <g class="fills" id="fills-fedeaf24-6722-8002-8004-87489767169e">
          <path d="M4524.272,3857.583C4525.419,3859.222,4526.566,3860.860,4527.713,3862.498C4525.256,3864.219,4522.798,3865.940,4520.341,3867.660C4519.194,3866.022,4518.047,3864.384,4516.899,3862.746C4519.357,3861.025,4521.814,3859.304,4524.272,3857.583ZZ" style="shape-rendering:geometricPrecision;text-rendering:geometricPrecision;image-rendering:optimizeQuality;fill-rule:evenodd;clip-rule:evenodd;fill:#f0f3f3">
          </path>
        </g>
      </g>
      <g id="shape-fedeaf24-6722-8002-8004-8748976776af" style="opacity:1">
        <g class="fills" id="fills-fedeaf24-6722-8002-8004-8748976776af">
          <path d="M4511.409,3853.161C4513.516,3851.486,4515.797,3850.093,4518.249,3848.982C4519.748,3849.588,4520.882,3850.625,4521.649,3852.095C4518.919,3854.007,4516.188,3855.919,4513.458,3857.831C4512.320,3856.440,4511.637,3854.884,4511.409,3853.161ZZ" style="shape-rendering:geometricPrecision;text-rendering:geometricPrecision;image-rendering:optimizeQuality;fill-rule:evenodd;clip-rule:evenodd;fill:#edeff0">
          </path>
        </g>
      </g>
    </g>
    <g id="shape-fedeaf24-6722-8002-8004-874a5e0bac4a" rx="0" ry="0">
      <g id="shape-fedeaf24-6722-8002-8004-874b56b7cb57" style="opacity:0.6">
        <g class="fills" id="fills-fedeaf24-6722-8002-8004-874b56b7cb57">
          <path d="M4438.038,3409.863C4438.038,3409.863,4452.575,3394.623,4461.859,3401.124C4469.504,3406.477,4460.565,3425.637,4460.565,3425.637L4218.331,3775.069L4192.938,3757.288L4438.038,3409.863Z" style="fill:#2c5e54">
          </path>
        </g>
        <g id="strokes-fedeaf24-6722-8002-8004-874b56b7cb57" class="strokes">
          <g class="inner-stroke-shape">
            <defs>
              <clipPath id="inner-stroke-render-815-fedeaf24-6722-8002-8004-874b56b7cb57-0">
                <use href="#stroke-shape-render-815-fedeaf24-6722-8002-8004-874b56b7cb57-0">
                </use>
              </clipPath>
              <path d="M4438.038,3409.863C4438.038,3409.863,4452.575,3394.623,4461.859,3401.124C4469.504,3406.477,4460.565,3425.637,4460.565,3425.637L4218.331,3775.069L4192.938,3757.288L4438.038,3409.863Z" style="fill:none;fill-opacity:none;stroke-width:6;stroke:#2c5e54" id="stroke-shape-render-815-fedeaf24-6722-8002-8004-874b56b7cb57-0">
              </path>
            </defs>
            <use href="#stroke-shape-render-815-fedeaf24-6722-8002-8004-874b56b7cb57-0" clip-path="url(&#x27;#inner-stroke-render-815-fedeaf24-6722-8002-8004-874b56b7cb57-0&#x27;)">
            </use>
          </g>
        </g>
      </g>
      <g id="shape-fedeaf24-6722-8002-8004-8748976882ed" style="opacity:0.71">
        <g class="fills" id="fills-fedeaf24-6722-8002-8004-8748976882ed">
          <path d="M4131.116,3834.246C4108.324,3868.538,4084.889,3902.588,4060.811,3936.395C4072.007,3944.234,4083.202,3952.072,4094.397,3959.911C4082.502,3952.798,4070.843,3945.041,4059.419,3936.640C4083.318,3902.509,4107.217,3868.378,4131.116,3834.246ZZ" style="shape-rendering:geometricPrecision;text-rendering:geometricPrecision;image-rendering:optimizeQuality;fill-rule:evenodd;clip-rule:evenodd;fill:#6c686b">
          </path>
        </g>
      </g>
      <g id="shape-fedeaf24-6722-8002-8004-87489759ca5c" style="opacity:0.952">
        <g class="fills" id="fills-fedeaf24-6722-8002-8004-87489759ca5c">
          <path d="M4094.397,3959.911C4083.202,3952.072,4072.007,3944.234,4060.811,3936.395C4084.889,3902.588,4108.324,3868.538,4131.116,3834.246C4129.477,3833.099,4127.839,3831.952,4126.201,3830.805C4132.319,3822.067,4138.437,3813.330,4144.555,3804.592C4146.194,3805.739,4147.832,3806.886,4149.470,3808.033C4155.589,3799.296,4161.706,3790.558,4167.825,3781.821C4165.640,3780.291,4163.456,3778.762,4161.271,3777.232C4165.095,3771.771,4168.919,3766.310,4172.743,3760.849C4173.562,3761.423,4174.381,3761.996,4175.200,3762.570C4182.013,3752.261,4189.360,3742.350,4197.242,3732.835C4207.041,3748.898,4216.706,3765.025,4226.236,3781.214C4223.680,3785.164,4221.413,3789.274,4219.435,3793.543C4219.795,3794.050,4220.013,3794.610,4220.090,3795.222C4217.194,3800.520,4213.753,3805.435,4209.765,3809.967C4206.997,3809.181,4204.485,3807.828,4202.229,3805.911C4196.111,3814.648,4189.993,3823.386,4183.875,3832.124C4185.786,3833.462,4187.697,3834.800,4189.609,3836.139C4183.815,3844.703,4177.752,3853.072,4171.418,3861.246C4169.506,3861.013,4167.814,3860.234,4166.339,3858.910C4142.806,3893.098,4118.825,3926.765,4094.397,3959.911ZZM4212.310,3777.567C4211.025,3777.722,4210.643,3778.268,4211.162,3779.205C4212.639,3779.316,4213.022,3778.770,4212.310,3777.567ZZM4198.140,3754.217C4198.788,3755.512,4198.310,3756.195,4196.706,3756.265C4195.262,3756.088,4194.402,3755.283,4194.126,3753.847C4190.855,3757.648,4187.851,3761.648,4185.113,3765.848C4192.122,3770.959,4199.317,3775.793,4206.697,3780.351C4206.179,3778.767,4206.752,3777.948,4208.418,3777.894C4207.352,3774.981,4208.404,3773.479,4211.573,3773.389C4209.826,3771.300,4208.351,3769.047,4207.150,3766.629C4204.977,3766.974,4203.189,3766.332,4201.784,3764.703C4203.113,3760.706,4202.363,3757.129,4199.533,3753.971C4198.965,3753.724,4198.501,3753.806,4198.140,3754.217ZZM4196.584,3749.465C4195.858,3750.241,4195.421,3751.156,4195.273,3752.209C4197.917,3752.165,4198.354,3751.250,4196.584,3749.465ZZM4175.772,3773.957C4177.369,3778.046,4180.550,3780.477,4185.315,3781.250C4182.336,3778.555,4179.155,3776.124,4175.772,3773.957ZZM4197.316,3790.263C4200.367,3793.955,4204.189,3796.632,4208.784,3798.293C4205.590,3794.454,4201.767,3791.778,4197.316,3790.263ZZM4186.009,3799.437C4182.079,3804.936,4178.201,3810.766,4174.374,3816.926C4175.104,3818.702,4174.571,3819.753,4172.776,3820.079C4174.730,3822.396,4177.146,3823.885,4180.025,3824.545C4185.211,3818.011,4190.127,3811.280,4194.774,3804.353C4192.052,3802.065,4189.131,3800.427,4186.009,3799.437ZZM4148.404,3818.274C4145.966,3821.467,4143.808,3824.839,4141.930,3828.390C4142.053,3829.087,4142.176,3829.783,4142.299,3830.479C4146.972,3834.007,4151.136,3837.939,4154.790,3842.278C4156.251,3843.097,4157.712,3843.917,4159.173,3844.736C4163.743,3843.362,4166.761,3844.865,4168.225,3849.243C4168.825,3849.408,4169.426,3849.422,4170.027,3849.285C4173.059,3846.118,4175.544,3842.567,4177.484,3838.636C4167.822,3831.998,4158.129,3825.210,4148.404,3818.274ZZM4137.013,3843.259C4118.327,3871.118,4099.563,3899.079,4080.720,3927.140C4080.212,3927.500,4079.653,3927.719,4079.041,3927.795C4083.846,3931.974,4089.034,3935.607,4094.604,3938.693C4095.274,3935.703,4096.435,3935.498,4098.086,3938.079C4098.935,3937.302,4099.918,3936.769,4101.036,3936.482C4120.588,3910.302,4139.598,3883.734,4158.065,3856.779C4151.276,3851.627,4144.259,3847.120,4137.013,3843.259ZZ" style="shape-rendering:geometricPrecision;text-rendering:geometricPrecision;image-rendering:optimizeQuality;fill-rule:evenodd;clip-rule:evenodd;fill:#191719">
          </path>
        </g>
      </g>
      <g id="shape-fedeaf24-6722-8002-8004-8748975af368" style="opacity:1">
        <g class="fills" id="fills-fedeaf24-6722-8002-8004-8748975af368">
          <path d="M4195.930,3741.682C4203.982,3754.990,4212.282,3768.126,4220.829,3781.091C4218.726,3784.094,4216.623,3787.098,4214.520,3790.101C4202.779,3781.880,4191.037,3773.659,4179.296,3765.438C4184.841,3757.519,4190.385,3749.601,4195.930,3741.682ZL4195.930,3741.682Z" style="shape-rendering:geometricPrecision;text-rendering:geometricPrecision;image-rendering:optimizeQuality;fill-rule:evenodd;clip-rule:evenodd;fill:#f9fafb">
          </path>
        </g>
      </g>
      <g id="shape-fedeaf24-6722-8002-8004-8748975b152e" style="opacity:1">
        <g class="fills" id="fills-fedeaf24-6722-8002-8004-8748975b152e">
          <path d="M4173.971,3767.813C4187.176,3776.855,4200.186,3786.169,4213.003,3795.754C4212.217,3798.523,4210.865,3801.035,4208.947,3803.290C4195.568,3793.922,4182.188,3784.553,4168.809,3775.185C4170.529,3772.727,4172.250,3770.270,4173.971,3767.813ZL4173.971,3767.813Z" style="shape-rendering:geometricPrecision;text-rendering:geometricPrecision;image-rendering:optimizeQuality;fill-rule:evenodd;clip-rule:evenodd;fill:#efefef">
          </path>
        </g>
      </g>
      <g id="shape-fedeaf24-6722-8002-8004-8748975b98ec" style="opacity:1">
        <g class="fills" id="fills-fedeaf24-6722-8002-8004-8748975b98ec">
          <path d="M4180.352,3828.437C4171.888,3822.510,4163.423,3816.583,4154.959,3810.656C4155.915,3809.290,4156.870,3807.926,4157.827,3806.560C4162.054,3808.316,4166.067,3810.720,4169.868,3813.771C4174.024,3808.126,4177.903,3802.296,4181.504,3796.282C4178.180,3792.771,4174.412,3789.726,4170.200,3787.146C4170.773,3786.327,4171.347,3785.508,4171.920,3784.688C4180.658,3790.807,4189.396,3796.925,4198.133,3803.043C4192.206,3811.507,4186.279,3819.972,4180.352,3828.437ZL4180.352,3828.437Z" style="shape-rendering:geometricPrecision;text-rendering:geometricPrecision;image-rendering:optimizeQuality;fill-rule:evenodd;clip-rule:evenodd;fill:#f8f8f8">
          </path>
        </g>
      </g>
      <g id="shape-fedeaf24-6722-8002-8004-8748975bf7ab" style="opacity:1">
        <g class="fills" id="fills-fedeaf24-6722-8002-8004-8748975bf7ab">
          <path d="M4166.758,3792.061C4169.489,3793.973,4172.219,3795.885,4174.950,3797.797C4172.847,3800.800,4170.744,3803.804,4168.640,3806.807C4165.910,3804.895,4163.179,3802.983,4160.449,3801.072C4162.552,3798.068,4164.655,3795.064,4166.758,3792.061ZZ" style="shape-rendering:geometricPrecision;text-rendering:geometricPrecision;image-rendering:optimizeQuality;fill-rule:evenodd;clip-rule:evenodd;fill:#e9e8e8">
          </path>
        </g>
      </g>
      <g id="shape-fedeaf24-6722-8002-8004-8748975c3a24" style="opacity:0.392">
        <g class="fills" id="fills-fedeaf24-6722-8002-8004-8748975c3a24">
          <path d="M4157.827,3806.560C4156.870,3807.926,4155.915,3809.290,4154.959,3810.656C4163.423,3816.583,4171.888,3822.510,4180.352,3828.437C4171.192,3823.236,4162.263,3817.391,4153.566,3810.901C4154.606,3808.902,4156.027,3807.454,4157.827,3806.560ZZ" style="shape-rendering:geometricPrecision;text-rendering:geometricPrecision;image-rendering:optimizeQuality;fill-rule:evenodd;clip-rule:evenodd;fill:#c1c3c4">
          </path>
        </g>
      </g>
      <g id="shape-fedeaf24-6722-8002-8004-8748975ccb3a" style="opacity:1">
        <g class="fills" id="fills-fedeaf24-6722-8002-8004-8748975ccb3a">
          <path d="M4181.252,3837.612C4177.428,3843.073,4173.605,3848.534,4169.781,3853.995C4157.766,3845.583,4145.752,3837.170,4133.738,3828.758C4137.453,3822.909,4141.646,3817.502,4146.316,3812.539C4158.672,3820.182,4170.318,3828.539,4181.252,3837.612ZL4181.252,3837.612Z" style="shape-rendering:geometricPrecision;text-rendering:geometricPrecision;image-rendering:optimizeQuality;fill-rule:evenodd;clip-rule:evenodd;fill:#f3f3f3">
          </path>
        </g>
      </g>
      <g id="shape-fedeaf24-6722-8002-8004-8748975da5c0" style="opacity:0.566">
        <g class="fills" id="fills-fedeaf24-6722-8002-8004-8748975da5c0">
          <path d="M4181.252,3837.612C4178.156,3843.762,4174.414,3849.687,4170.026,3855.388C4157.406,3846.953,4145.310,3838.076,4133.738,3828.758C4145.752,3837.170,4157.766,3845.583,4169.781,3853.995C4173.605,3848.534,4177.428,3843.073,4181.252,3837.612ZZ" style="shape-rendering:geometricPrecision;text-rendering:geometricPrecision;image-rendering:optimizeQuality;fill-rule:evenodd;clip-rule:evenodd;fill:#8f8f91">
          </path>
        </g>
      </g>
      <g id="shape-fedeaf24-6722-8002-8004-87489763e5b8" style="opacity:1">
        <g class="fills" id="fills-fedeaf24-6722-8002-8004-87489763e5b8">
          <path d="M4136.031,3837.688C4144.495,3843.615,4152.960,3849.542,4161.424,3855.469C4140.393,3885.505,4119.362,3915.540,4098.331,3945.575C4089.866,3939.648,4081.402,3933.721,4072.937,3927.795C4093.969,3897.759,4114.999,3867.724,4136.031,3837.688ZL4136.031,3837.688Z" style="shape-rendering:geometricPrecision;text-rendering:geometricPrecision;image-rendering:optimizeQuality;fill-rule:evenodd;clip-rule:evenodd;fill:#fbfbfa">
          </path>
        </g>
      </g>
      <g id="shape-fedeaf24-6722-8002-8004-87489767ee19" style="opacity:0.624">
        <g class="fills" id="fills-fedeaf24-6722-8002-8004-87489767ee19">
          <path d="M4093.169,3952.948C4093.742,3952.129,4094.316,3951.309,4094.889,3950.490C4086.425,3944.563,4077.960,3938.636,4069.496,3932.709C4068.922,3933.529,4068.349,3934.348,4067.775,3935.167C4067.622,3933.756,4068.114,3932.473,4069.250,3931.317C4078.261,3937.626,4087.272,3943.935,4096.282,3950.245C4095.584,3951.708,4094.547,3952.609,4093.169,3952.948ZZ" style="shape-rendering:geometricPrecision;text-rendering:geometricPrecision;image-rendering:optimizeQuality;fill-rule:evenodd;clip-rule:evenodd;fill:#b6b5b3">
          </path>
        </g>
      </g>
      <g id="shape-fedeaf24-6722-8002-8004-8748976841e2" style="opacity:1">
        <g class="fills" id="fills-fedeaf24-6722-8002-8004-8748976841e2">
          <path d="M4093.169,3952.948C4084.704,3947.021,4076.240,3941.094,4067.775,3935.167C4068.349,3934.348,4068.922,3933.529,4069.496,3932.709C4077.960,3938.636,4086.425,3944.563,4094.889,3950.490C4094.316,3951.309,4093.742,3952.129,4093.169,3952.948ZZ" style="shape-rendering:geometricPrecision;text-rendering:geometricPrecision;image-rendering:optimizeQuality;fill-rule:evenodd;clip-rule:evenodd;fill:#fefefe">
          </path>
        </g>
      </g>
    </g>
  </g>
</svg>